%FSLAX25Y25*%
%MOIN*%
G70*
G01*
G75*
G04 Layer_Color=8421504*
%ADD10C,0.03150*%
%ADD11R,0.04134X0.08661*%
%ADD12R,0.03937X0.04331*%
%ADD13R,0.04299X0.02362*%
%ADD14R,0.03500X0.03000*%
%ADD15R,0.02362X0.04299*%
%ADD16R,0.04921X0.07874*%
%ADD17R,0.03000X0.03500*%
%ADD18R,0.09449X0.10236*%
%ADD19O,0.02756X0.09843*%
%ADD20O,0.09843X0.02756*%
%ADD21C,0.01500*%
%ADD22C,0.00800*%
%ADD23C,0.01000*%
%ADD24C,0.02500*%
%ADD25C,0.02000*%
%ADD26C,0.06000*%
%ADD27R,0.06000X0.06000*%
%ADD28C,0.02500*%
%ADD29R,0.05906X0.06693*%
%ADD30R,0.37008X0.27559*%
%ADD31R,0.11811X0.04213*%
%ADD32R,0.10236X0.09449*%
%ADD33R,0.03150X0.05118*%
%ADD34R,0.01181X0.02165*%
%ADD35C,0.01200*%
%ADD36C,0.06000*%
%ADD37C,0.04000*%
%ADD38C,0.01600*%
%ADD39C,0.00500*%
%ADD40C,0.00600*%
%ADD41R,0.01181X0.08412*%
%ADD42R,0.01870X0.17323*%
%ADD43R,0.17323X0.01870*%
D11*
X112835Y112242D02*
D03*
X101221D02*
D03*
D12*
X107028Y105942D02*
D03*
D13*
X74424Y9740D02*
D03*
X83510Y13480D02*
D03*
Y6000D02*
D03*
X47110D02*
D03*
Y13480D02*
D03*
X38024Y9740D02*
D03*
D14*
X14353Y103657D02*
D03*
X28410Y96658D02*
D03*
Y103657D02*
D03*
X51410Y106257D02*
D03*
X44410D02*
D03*
X51410Y118257D02*
D03*
X44410D02*
D03*
X51410Y112258D02*
D03*
X44410D02*
D03*
X90510Y13480D02*
D03*
X97510D02*
D03*
Y6000D02*
D03*
X113528Y87242D02*
D03*
X106528D02*
D03*
X61110Y13480D02*
D03*
X54110D02*
D03*
X61110Y6000D02*
D03*
X54110D02*
D03*
X7353Y103657D02*
D03*
X90510Y6000D02*
D03*
X21410Y96658D02*
D03*
Y103657D02*
D03*
X7353Y96658D02*
D03*
X14353D02*
D03*
D15*
X28891Y109658D02*
D03*
X21410D02*
D03*
X25150Y118744D02*
D03*
X7353Y109658D02*
D03*
X14833D02*
D03*
X11093Y118744D02*
D03*
D16*
X52867Y127657D02*
D03*
X67631D02*
D03*
D17*
X113228Y93742D02*
D03*
Y100742D02*
D03*
X107028Y93742D02*
D03*
Y100742D02*
D03*
X23610Y13000D02*
D03*
Y6000D02*
D03*
X104249Y10158D02*
D03*
Y17157D02*
D03*
X7910Y126758D02*
D03*
Y133757D02*
D03*
X28910Y126758D02*
D03*
Y133757D02*
D03*
X14410D02*
D03*
X21410D02*
D03*
X32610Y13000D02*
D03*
Y6000D02*
D03*
X14410Y126758D02*
D03*
X21410D02*
D03*
D18*
X92584Y112258D02*
D03*
X64237D02*
D03*
D19*
X50087Y95116D02*
D03*
X54418D02*
D03*
X58749D02*
D03*
X63080D02*
D03*
X67410D02*
D03*
X71741D02*
D03*
X76072D02*
D03*
X80402D02*
D03*
X84733D02*
D03*
Y27399D02*
D03*
X80402D02*
D03*
X76072D02*
D03*
X71741D02*
D03*
X67410Y27358D02*
D03*
X63080Y27399D02*
D03*
X58749D02*
D03*
X54418D02*
D03*
X50087D02*
D03*
D20*
X37292Y87242D02*
D03*
Y82911D02*
D03*
Y78580D02*
D03*
Y74250D02*
D03*
Y69919D02*
D03*
Y65588D02*
D03*
Y61257D02*
D03*
Y56927D02*
D03*
Y52596D02*
D03*
Y48265D02*
D03*
Y43935D02*
D03*
X97528Y87242D02*
D03*
Y82911D02*
D03*
Y78580D02*
D03*
Y74250D02*
D03*
Y69919D02*
D03*
Y65588D02*
D03*
Y61257D02*
D03*
Y56927D02*
D03*
Y52596D02*
D03*
Y48265D02*
D03*
Y43935D02*
D03*
Y39604D02*
D03*
Y35273D02*
D03*
X37292D02*
D03*
Y39604D02*
D03*
M02*
