%FSLAX25Y25*%
%MOIN*%
G70*
G01*
G75*
G04 Layer_Color=2752767*
%ADD10C,0.00800*%
%ADD11C,0.00667*%
D10*
X0Y0D02*
Y137795D01*
Y0D02*
X118110D01*
Y137795D01*
X0D02*
X118110D01*
X109910Y13758D02*
Y17758D01*
X113910D01*
Y13758D01*
X109910D01*
Y23757D02*
Y27757D01*
X113910D01*
Y23757D01*
X109910D01*
Y33757D02*
Y37758D01*
X113910D01*
Y33757D01*
X109910D01*
Y53758D02*
Y57758D01*
X113910D01*
Y53758D01*
X109910D01*
Y73757D02*
Y77758D01*
X113910D01*
Y73757D01*
X109910D01*
X5579Y53758D02*
Y57758D01*
X9579D01*
Y53758D01*
X5579D01*
Y63757D02*
Y67757D01*
X9579D01*
Y63757D01*
X5579D01*
Y43758D02*
Y47758D01*
X9579D01*
Y43758D01*
X5579D01*
Y33757D02*
Y37758D01*
X9579D01*
Y33757D01*
X5579D01*
Y23757D02*
Y27757D01*
X9579D01*
Y23757D01*
X5579D01*
Y13758D02*
Y17758D01*
X9579D01*
Y13758D01*
X5579D01*
Y3757D02*
Y7757D01*
X9579D01*
Y3757D01*
X5579D01*
X109910D02*
Y7757D01*
X113910D01*
Y3757D01*
X109910D01*
Y63757D02*
Y67757D01*
X113910D01*
Y63757D01*
X109910D01*
Y43758D02*
Y47758D01*
X113910D01*
Y43758D01*
X109910D01*
D11*
X41200Y5400D02*
G03*
X41200Y5400I-2000J0D01*
G01*
X55200Y41100D02*
G03*
X55200Y41100I-2000J0D01*
G01*
X35100Y134600D02*
G03*
X35100Y134600I-2000J0D01*
G01*
X91700Y72700D02*
G03*
X91700Y72700I-2000J0D01*
G01*
X60000Y85700D02*
G03*
X60000Y85700I-2000J0D01*
G01*
X77100Y44100D02*
G03*
X77100Y44100I-2000J0D01*
G01*
X116713Y122838D02*
G03*
X116713Y122838I-2000J0D01*
G01*
X100965D02*
G03*
X100965Y122838I-2000J0D01*
G01*
X97028Y114964D02*
G03*
X97028Y114964I-2000J0D01*
G01*
X117028Y96942D02*
G03*
X117028Y96942I-2000J0D01*
G01*
X70810Y18100D02*
G03*
X70810Y18100I-2000J0D01*
G01*
X70510Y12815D02*
G03*
X70510Y12815I-2000J0D01*
G01*
X75610Y17300D02*
G03*
X75610Y17300I-2000J0D01*
G01*
X116928Y105742D02*
G03*
X116928Y105742I-2000J0D01*
G01*
X117028Y90742D02*
G03*
X117028Y90742I-2000J0D01*
G01*
X97028Y107090D02*
G03*
X97028Y107090I-2000J0D01*
G01*
Y91342D02*
G03*
X97028Y91342I-2000J0D01*
G01*
Y99216D02*
G03*
X97028Y99216I-2000J0D01*
G01*
X42110Y32400D02*
G03*
X42110Y32400I-2000J0D01*
G01*
X33292Y42435D02*
G03*
X33292Y42435I-2000J0D01*
G01*
X31892Y36535D02*
G03*
X31892Y36535I-2000J0D01*
G01*
X88410Y35757D02*
G03*
X88410Y35757I-2000J0D01*
G01*
X47910Y61257D02*
G03*
X47910Y61257I-2000J0D01*
G01*
X60749Y34399D02*
G03*
X60749Y34399I-2000J0D01*
G01*
Y59503D02*
G03*
X60749Y59503I-2000J0D01*
G01*
X19249Y124158D02*
G03*
X19249Y124158I-2000J0D01*
G01*
X49749Y125657D02*
G03*
X49749Y125657I-2000J0D01*
G01*
Y122658D02*
G03*
X49749Y122658I-2000J0D01*
G01*
Y128657D02*
G03*
X49749Y128657I-2000J0D01*
G01*
X25610Y24000D02*
G03*
X25610Y24000I-2000J0D01*
G01*
Y17000D02*
G03*
X25610Y17000I-2000J0D01*
G01*
M02*
