%FSLAX25Y25*%
%MOIN*%
G70*
G01*
G75*
G04 Layer_Physical_Order=2*
G04 Layer_Color=16711680*
%ADD10C,0.03150*%
%ADD11R,0.04134X0.08661*%
%ADD12R,0.03937X0.04331*%
%ADD13R,0.04299X0.02362*%
%ADD14R,0.03500X0.03000*%
%ADD15R,0.02362X0.04299*%
%ADD16R,0.04921X0.07874*%
%ADD17R,0.03000X0.03500*%
%ADD18R,0.09449X0.10236*%
%ADD19O,0.02756X0.09843*%
%ADD20O,0.09843X0.02756*%
%ADD21C,0.01500*%
%ADD22C,0.00800*%
%ADD23C,0.01000*%
%ADD24C,0.02500*%
%ADD25C,0.02000*%
%ADD26C,0.06000*%
%ADD27R,0.06000X0.06000*%
%ADD28C,0.02500*%
%ADD29R,0.05906X0.06693*%
%ADD30R,0.37008X0.27559*%
%ADD31R,0.11811X0.04213*%
%ADD32R,0.10236X0.09449*%
%ADD33R,0.03150X0.05118*%
%ADD34R,0.01181X0.02165*%
%ADD35C,0.01200*%
%ADD36C,0.06000*%
%ADD37C,0.04000*%
G36*
X116173Y80257D02*
X112660D01*
Y75757D01*
Y71258D01*
X116173D01*
Y68372D01*
X115700Y68211D01*
X115120Y68967D01*
X114180Y69688D01*
X113085Y70142D01*
X112660Y70198D01*
Y65756D01*
Y61317D01*
X113085Y61373D01*
X114180Y61827D01*
X115120Y62548D01*
X115700Y63304D01*
X116173Y63143D01*
Y58372D01*
X115700Y58211D01*
X115120Y58967D01*
X114180Y59688D01*
X113085Y60142D01*
X112660Y60198D01*
Y55756D01*
Y51317D01*
X113085Y51373D01*
X114180Y51827D01*
X115120Y52548D01*
X115700Y53304D01*
X116173Y53143D01*
Y48372D01*
X115700Y48211D01*
X115120Y48967D01*
X114180Y49688D01*
X113085Y50142D01*
X112660Y50198D01*
Y45757D01*
Y41317D01*
X113085Y41373D01*
X114180Y41827D01*
X115120Y42548D01*
X115700Y43304D01*
X116173Y43143D01*
Y38372D01*
X115700Y38211D01*
X115120Y38967D01*
X114180Y39688D01*
X113085Y40142D01*
X112660Y40198D01*
Y35756D01*
Y31317D01*
X113085Y31373D01*
X114180Y31827D01*
X115120Y32548D01*
X115700Y33304D01*
X116173Y33143D01*
Y28372D01*
X115700Y28211D01*
X115120Y28967D01*
X114180Y29688D01*
X113085Y30142D01*
X112660Y30198D01*
Y25756D01*
Y21317D01*
X113085Y21373D01*
X114180Y21827D01*
X115120Y22548D01*
X115700Y23304D01*
X116173Y23143D01*
Y18372D01*
X115700Y18211D01*
X115120Y18967D01*
X114180Y19688D01*
X113085Y20142D01*
X112660Y20198D01*
Y15756D01*
Y11317D01*
X113085Y11373D01*
X114180Y11827D01*
X115120Y12548D01*
X115700Y13304D01*
X116173Y13143D01*
Y8372D01*
X115700Y8211D01*
X115120Y8967D01*
X114180Y9688D01*
X113085Y10142D01*
X112660Y10198D01*
Y5756D01*
X111911D01*
Y5007D01*
X107470D01*
X107526Y4583D01*
X107980Y3488D01*
X108701Y2548D01*
X108880Y2411D01*
X108719Y1937D01*
X78160D01*
Y7000D01*
X78260D01*
Y11533D01*
X78689Y11790D01*
X78760Y11752D01*
Y10750D01*
X85260D01*
Y12915D01*
X85260Y12915D01*
X85260Y12915D01*
D01*
X87760D01*
Y15916D01*
X88509D01*
Y16665D01*
X91760D01*
Y18915D01*
X91660D01*
Y19257D01*
X91660D01*
Y25258D01*
X90831D01*
X90812Y25302D01*
X90372Y25876D01*
X89485Y26763D01*
Y33816D01*
X89184D01*
Y35757D01*
X89090Y36475D01*
X88812Y37144D01*
X88372Y37719D01*
X87797Y38160D01*
X87128Y38437D01*
X86410Y38531D01*
X85692Y38437D01*
X85023Y38160D01*
X84449Y37719D01*
X84008Y37144D01*
X83731Y36475D01*
X83636Y35757D01*
Y33816D01*
X61825D01*
X61495Y34192D01*
X61523Y34399D01*
X61428Y35117D01*
X61151Y35786D01*
X60788Y36259D01*
Y57643D01*
X61151Y58116D01*
X61428Y58785D01*
X61523Y59503D01*
X61428Y60221D01*
X61151Y60890D01*
X60710Y61464D01*
X60136Y61905D01*
X59467Y62182D01*
X58749Y62277D01*
X58031Y62182D01*
X57362Y61905D01*
X56788Y61464D01*
X56347Y60890D01*
X56070Y60221D01*
X55975Y59503D01*
X56070Y58785D01*
X56347Y58116D01*
X56710Y57643D01*
Y36259D01*
X56347Y35786D01*
X56070Y35117D01*
X55975Y34399D01*
X56070Y33681D01*
X56347Y33012D01*
X56788Y32438D01*
X57362Y31997D01*
X58031Y31720D01*
X58335Y31680D01*
Y25698D01*
X58335D01*
Y25433D01*
X58160Y25258D01*
X58160D01*
Y19257D01*
D01*
Y19257D01*
X57818Y18915D01*
X57660D01*
Y18915D01*
Y19257D01*
X57660Y19268D01*
X57660D01*
D01*
Y19268D01*
X57660D01*
D01*
Y21508D01*
X51160D01*
Y19268D01*
X51160Y19268D01*
X51160D01*
X51160Y19257D01*
X50818Y18915D01*
X47660D01*
Y17852D01*
X46298D01*
X42048Y22102D01*
Y30420D01*
X42072Y30439D01*
X42512Y31013D01*
X42790Y31682D01*
X42884Y32400D01*
X42790Y33118D01*
X42512Y33787D01*
X42072Y34361D01*
X41497Y34802D01*
X40828Y35079D01*
X40110Y35174D01*
X39392Y35079D01*
X38723Y34802D01*
X38149Y34361D01*
X37708Y33787D01*
X37431Y33118D01*
X37337Y32400D01*
X37431Y31682D01*
X37708Y31013D01*
X38149Y30439D01*
X38173Y30420D01*
Y21300D01*
X38173Y21300D01*
X38173D01*
X38320Y20559D01*
X38740Y19930D01*
X44126Y14545D01*
X44754Y14125D01*
X45495Y13978D01*
X47660D01*
Y12915D01*
Y10750D01*
X50911D01*
Y9250D01*
X47660D01*
Y8637D01*
X46660D01*
Y13000D01*
X40160D01*
Y7000D01*
X41726D01*
X42040Y6530D01*
X43240Y5330D01*
X43426Y5206D01*
X43281Y4728D01*
X32994D01*
X31829Y5893D01*
Y34555D01*
X31853Y34573D01*
X32294Y35148D01*
X32383Y35361D01*
X32873Y35264D01*
Y13800D01*
X33020Y13059D01*
X33160Y12849D01*
Y7000D01*
X39660D01*
Y13000D01*
X38161D01*
X37780Y13570D01*
X36748Y14602D01*
Y38917D01*
X36600Y39658D01*
X36180Y40286D01*
X34062Y42404D01*
X34066Y42435D01*
X33971Y43152D01*
X33694Y43821D01*
X33253Y44396D01*
X32860Y44698D01*
Y48939D01*
X26210D01*
Y49507D01*
X23583D01*
X23305Y49923D01*
X23340Y50007D01*
X22687D01*
X22460Y50234D01*
Y52508D01*
X20210D01*
Y53137D01*
X20126Y53102D01*
X19710Y53380D01*
Y56507D01*
X13710D01*
Y50007D01*
X16523D01*
X16801Y49592D01*
X16766Y49507D01*
X13710D01*
Y48297D01*
X11303D01*
X10789Y48967D01*
X9849Y49688D01*
X8754Y50142D01*
X7580Y50296D01*
X6405Y50142D01*
X5310Y49688D01*
X4370Y48967D01*
X3649Y48027D01*
X3195Y46932D01*
X3041Y45757D01*
X3195Y44583D01*
X3649Y43488D01*
X4370Y42548D01*
X5310Y41827D01*
X6405Y41373D01*
X7580Y41219D01*
X8754Y41373D01*
X9849Y41827D01*
X10789Y42548D01*
X11510Y43488D01*
X11813Y44218D01*
X13710D01*
Y43007D01*
X19710D01*
Y46563D01*
X19794Y46598D01*
X20210Y46320D01*
Y43007D01*
X26210D01*
Y43576D01*
X28339D01*
X28616Y43161D01*
X28613Y43152D01*
X28518Y42435D01*
X28613Y41717D01*
X28890Y41048D01*
X29331Y40473D01*
X29905Y40033D01*
X30574Y39755D01*
X31292Y39661D01*
X31322Y39665D01*
X31891Y39096D01*
X31562Y38720D01*
X31279Y38937D01*
X30610Y39214D01*
X29892Y39308D01*
X29174Y39214D01*
X28505Y38937D01*
X27931Y38496D01*
X27490Y37922D01*
X27213Y37253D01*
X27118Y36535D01*
X27213Y35817D01*
X27490Y35148D01*
X27931Y34573D01*
X27955Y34555D01*
Y5091D01*
X27955Y5091D01*
X27955D01*
X28102Y4349D01*
X28522Y3721D01*
X29844Y2399D01*
X29653Y1937D01*
X10771D01*
X10610Y2411D01*
X10789Y2548D01*
X11510Y3488D01*
X11964Y4583D01*
X12020Y5007D01*
X3139D01*
X3195Y4583D01*
X3649Y3488D01*
X4370Y2548D01*
X4549Y2411D01*
X4388Y1937D01*
X1937D01*
Y135858D01*
X10110D01*
Y130850D01*
X16110D01*
Y132061D01*
X17110D01*
Y130850D01*
X23110D01*
Y132061D01*
X24833D01*
X28307Y128587D01*
X28307D01*
X28307Y128587D01*
X28307D01*
X28307Y128587D01*
Y128587D01*
X28307Y128587D01*
Y128587D01*
X28969Y128145D01*
X29749Y127990D01*
X32005D01*
Y126423D01*
Y125885D01*
X23110D01*
Y130350D01*
X17110D01*
Y126913D01*
X16531Y126837D01*
X16526Y126835D01*
X16110Y127112D01*
Y126663D01*
X15862Y126560D01*
X15588Y126350D01*
X13860D01*
Y123850D01*
X14287D01*
X14493Y123395D01*
X14235Y123100D01*
X13860D01*
Y120850D01*
X16360D01*
Y120942D01*
X16431Y120980D01*
X16860Y120723D01*
Y117100D01*
X23214D01*
X23568Y116747D01*
Y117665D01*
X26569D01*
Y116916D01*
X27318D01*
Y113665D01*
X26901D01*
X26924Y113551D01*
X26606Y113165D01*
X23568D01*
Y111566D01*
X22880Y110669D01*
X22426Y109575D01*
X22271Y108400D01*
Y96080D01*
X13500Y87309D01*
X3792D01*
Y76186D01*
X3779Y76169D01*
X3592Y75716D01*
X3326Y75075D01*
X3171Y73900D01*
X3171Y73900D01*
X3171D01*
X3171Y73900D01*
X3171D01*
Y70258D01*
X3080D01*
Y61257D01*
X9173D01*
X9364Y60795D01*
X8716Y60147D01*
X7580Y60296D01*
X6405Y60142D01*
X5310Y59688D01*
X4370Y58967D01*
X3649Y58027D01*
X3195Y56932D01*
X3041Y55757D01*
X3195Y54583D01*
X3649Y53488D01*
X4370Y52548D01*
X5310Y51827D01*
X6405Y51373D01*
X7580Y51219D01*
X8754Y51373D01*
X9849Y51827D01*
X10789Y52548D01*
X11510Y53488D01*
X11964Y54583D01*
X12118Y55757D01*
X11964Y56932D01*
X11760Y57424D01*
X13397Y59061D01*
X23860D01*
Y58100D01*
X30360D01*
Y64100D01*
Y66350D01*
X23860D01*
Y64100D01*
Y63139D01*
X12553D01*
X12466Y63122D01*
X12079Y63439D01*
Y65047D01*
X12094Y65083D01*
X12249Y66258D01*
Y72020D01*
X15089Y74860D01*
X17028D01*
Y77999D01*
X25129Y86100D01*
X27989D01*
Y85994D01*
X27989D01*
Y78694D01*
X33351D01*
Y84357D01*
X35094Y86100D01*
X37360D01*
Y92100D01*
X36149D01*
Y97113D01*
X38688Y99651D01*
X46816D01*
Y106344D01*
Y113037D01*
Y115893D01*
X39409D01*
Y117393D01*
X46816D01*
Y119628D01*
X49749D01*
X50334Y119745D01*
X50830Y120076D01*
X51830Y121076D01*
X52162Y121572D01*
X52278Y122158D01*
Y130157D01*
X52162Y130743D01*
X51830Y131239D01*
X51334Y131570D01*
X50749Y131687D01*
X47749D01*
X47202Y131578D01*
X46816Y131895D01*
Y133635D01*
X32005D01*
Y132068D01*
X30593D01*
X27120Y135542D01*
X27216Y135858D01*
X116173D01*
Y80257D01*
D02*
G37*
G36*
X50749Y122158D02*
X49749Y121158D01*
X42749D01*
Y122158D01*
Y125657D01*
X45249D01*
X46749Y127157D01*
Y128657D01*
Y129157D01*
X47749Y130157D01*
X50749D01*
Y122158D01*
D02*
G37*
%LPC*%
G36*
X111160Y40198D02*
X110735Y40142D01*
X109641Y39688D01*
X108701Y38967D01*
X107980Y38027D01*
X107526Y36932D01*
X107470Y36507D01*
X111160D01*
Y40198D01*
D02*
G37*
G36*
Y45008D02*
X107470D01*
X107526Y44583D01*
X107980Y43488D01*
X108701Y42548D01*
X109641Y41827D01*
X110735Y41373D01*
X111160Y41317D01*
Y45008D01*
D02*
G37*
G36*
Y50198D02*
X110735Y50142D01*
X109641Y49688D01*
X108701Y48967D01*
X107980Y48027D01*
X107526Y46932D01*
X107470Y46507D01*
X111160D01*
Y50198D01*
D02*
G37*
G36*
X8330Y40198D02*
Y36507D01*
X12020D01*
X11964Y36932D01*
X11510Y38027D01*
X10789Y38967D01*
X9849Y39688D01*
X8754Y40142D01*
X8330Y40198D01*
D02*
G37*
G36*
X111160Y35008D02*
X107470D01*
X107526Y34583D01*
X107980Y33488D01*
X108701Y32548D01*
X109641Y31827D01*
X110735Y31373D01*
X111160Y31317D01*
Y35008D01*
D02*
G37*
G36*
X6830Y40198D02*
X6405Y40142D01*
X5310Y39688D01*
X4370Y38967D01*
X3649Y38027D01*
X3195Y36932D01*
X3139Y36507D01*
X6830D01*
Y40198D01*
D02*
G37*
G36*
X12020Y35008D02*
X8330D01*
Y31317D01*
X8754Y31373D01*
X9849Y31827D01*
X10789Y32548D01*
X11510Y33488D01*
X11964Y34583D01*
X12020Y35008D01*
D02*
G37*
G36*
X26210Y56507D02*
X23960D01*
Y53256D01*
Y50007D01*
X26210D01*
Y51057D01*
X28460D01*
Y53737D01*
Y56419D01*
X26210D01*
Y56507D01*
D02*
G37*
G36*
X45910Y64031D02*
X45192Y63937D01*
X44523Y63660D01*
X43949Y63219D01*
X43508Y62644D01*
X43231Y61975D01*
X43137Y61257D01*
X43231Y60540D01*
X43508Y59871D01*
X43871Y59398D01*
Y56102D01*
X40448Y52679D01*
X34647D01*
Y47317D01*
X41946D01*
Y48458D01*
X42092Y48556D01*
X47352Y53816D01*
X47794Y54477D01*
X47949Y55257D01*
D01*
D01*
D01*
D01*
D01*
X47949D01*
D01*
D01*
D01*
D01*
Y55257D01*
X47949D01*
D01*
Y55257D01*
D01*
D01*
D01*
D01*
D01*
D01*
D01*
D01*
D01*
D01*
D01*
D01*
Y55257D01*
D01*
X47949D01*
D01*
D01*
D01*
D01*
X47949Y55257D01*
Y59398D01*
X48312Y59871D01*
X48590Y60540D01*
X48684Y61257D01*
X48590Y61975D01*
X48312Y62644D01*
X47872Y63219D01*
X47297Y63660D01*
X46628Y63937D01*
X45910Y64031D01*
D02*
G37*
G36*
X111160Y60198D02*
X110735Y60142D01*
X109641Y59688D01*
X108701Y58967D01*
X107980Y58027D01*
X107526Y56932D01*
X107470Y56507D01*
X111160D01*
Y60198D01*
D02*
G37*
G36*
X37091Y76907D02*
X31729D01*
Y70100D01*
X30860D01*
Y64100D01*
Y58100D01*
X37360D01*
Y64100D01*
Y70100D01*
X37091D01*
Y76907D01*
D02*
G37*
G36*
X32860Y56419D02*
X29960D01*
Y54488D01*
X32860D01*
Y56419D01*
D02*
G37*
G36*
Y52988D02*
X29960D01*
Y51057D01*
X32860D01*
Y52988D01*
D02*
G37*
G36*
X111160Y55007D02*
X107470D01*
X107526Y54583D01*
X107980Y53488D01*
X108701Y52548D01*
X109641Y51827D01*
X110735Y51373D01*
X111160Y51317D01*
Y55007D01*
D02*
G37*
G36*
X22460Y56507D02*
X20210D01*
Y54008D01*
X22460D01*
Y56507D01*
D02*
G37*
G36*
X6830Y35008D02*
X3139D01*
X3195Y34583D01*
X3649Y33488D01*
X4370Y32548D01*
X5310Y31827D01*
X6405Y31373D01*
X6830Y31317D01*
Y35008D01*
D02*
G37*
G36*
X85260Y9250D02*
X82760D01*
Y7000D01*
X85260D01*
Y9250D01*
D02*
G37*
G36*
X7580Y20296D02*
X6405Y20142D01*
X5310Y19688D01*
X4370Y18967D01*
X3649Y18027D01*
X3195Y16932D01*
X3041Y15757D01*
X3195Y14583D01*
X3649Y13488D01*
X4370Y12548D01*
X5310Y11827D01*
X6405Y11373D01*
X7580Y11219D01*
X8754Y11373D01*
X9849Y11827D01*
X10789Y12548D01*
X11510Y13488D01*
X11964Y14583D01*
X12118Y15757D01*
X11964Y16932D01*
X11510Y18027D01*
X10789Y18967D01*
X9849Y19688D01*
X8754Y20142D01*
X7580Y20296D01*
D02*
G37*
G36*
X111160Y15008D02*
X107470D01*
X107526Y14583D01*
X107980Y13488D01*
X108701Y12548D01*
X109641Y11827D01*
X110735Y11373D01*
X111160Y11317D01*
Y15008D01*
D02*
G37*
G36*
X81260Y9250D02*
X78760D01*
Y7000D01*
X81260D01*
Y9250D01*
D02*
G37*
G36*
X6830Y10198D02*
X6405Y10142D01*
X5310Y9688D01*
X4370Y8967D01*
X3649Y8027D01*
X3195Y6932D01*
X3139Y6508D01*
X6830D01*
Y10198D01*
D02*
G37*
G36*
X8330D02*
Y6508D01*
X12020D01*
X11964Y6932D01*
X11510Y8027D01*
X10789Y8967D01*
X9849Y9688D01*
X8754Y10142D01*
X8330Y10198D01*
D02*
G37*
G36*
X111160D02*
X110735Y10142D01*
X109641Y9688D01*
X108701Y8967D01*
X107980Y8027D01*
X107526Y6932D01*
X107470Y6508D01*
X111160D01*
Y10198D01*
D02*
G37*
G36*
X91760Y15165D02*
X89260D01*
Y12915D01*
X91760D01*
Y15165D01*
D02*
G37*
G36*
X53660Y25258D02*
X51160D01*
Y23008D01*
X53660D01*
Y25258D01*
D02*
G37*
G36*
X57660D02*
X55160D01*
Y23008D01*
X57660D01*
Y25258D01*
D02*
G37*
G36*
X111160Y30198D02*
X110735Y30142D01*
X109641Y29688D01*
X108701Y28967D01*
X107980Y28027D01*
X107526Y26932D01*
X107470Y26507D01*
X111160D01*
Y30198D01*
D02*
G37*
G36*
Y25008D02*
X107470D01*
X107526Y24583D01*
X107980Y23488D01*
X108701Y22548D01*
X109641Y21827D01*
X110735Y21373D01*
X111160Y21317D01*
Y25008D01*
D02*
G37*
G36*
X23610Y26774D02*
X22892Y26679D01*
X22223Y26402D01*
X21649Y25961D01*
X21208Y25387D01*
X20931Y24718D01*
X20836Y24000D01*
X20931Y23282D01*
X21061Y22968D01*
Y18032D01*
X20931Y17718D01*
X20836Y17000D01*
X20931Y16282D01*
X21208Y15613D01*
X21649Y15039D01*
X22223Y14598D01*
X22892Y14321D01*
X23610Y14226D01*
X24328Y14321D01*
X24997Y14598D01*
X25572Y15039D01*
X26012Y15613D01*
X26289Y16282D01*
X26384Y17000D01*
X26289Y17718D01*
X26159Y18032D01*
Y22968D01*
X26289Y23282D01*
X26384Y24000D01*
X26289Y24718D01*
X26012Y25387D01*
X25572Y25961D01*
X24997Y26402D01*
X24328Y26679D01*
X23610Y26774D01*
D02*
G37*
G36*
X111160Y20198D02*
X110735Y20142D01*
X109641Y19688D01*
X108701Y18967D01*
X107980Y18027D01*
X107526Y16932D01*
X107470Y16508D01*
X111160D01*
Y20198D01*
D02*
G37*
G36*
X7580Y30296D02*
X6405Y30142D01*
X5310Y29688D01*
X4370Y28967D01*
X3649Y28027D01*
X3195Y26932D01*
X3041Y25758D01*
X3195Y24583D01*
X3649Y23488D01*
X4370Y22548D01*
X5310Y21827D01*
X6405Y21373D01*
X7580Y21219D01*
X8754Y21373D01*
X9849Y21827D01*
X10789Y22548D01*
X11510Y23488D01*
X11964Y24583D01*
X12118Y25758D01*
X11964Y26932D01*
X11510Y28027D01*
X10789Y28967D01*
X9849Y29688D01*
X8754Y30142D01*
X7580Y30296D01*
D02*
G37*
G36*
X9660Y115655D02*
X3792D01*
Y110181D01*
X9660D01*
Y115655D01*
D02*
G37*
G36*
X17028D02*
X11160D01*
Y110181D01*
X17028D01*
Y115655D01*
D02*
G37*
G36*
X25818Y116165D02*
X23568D01*
Y113665D01*
X25818D01*
Y116165D01*
D02*
G37*
G36*
X107112Y117955D02*
X105649Y117762D01*
X104285Y117197D01*
X103113Y116299D01*
X102215Y115128D01*
X101650Y113764D01*
X101457Y112300D01*
X101650Y110836D01*
X102215Y109473D01*
X103113Y108301D01*
X104285Y107403D01*
X105649Y106838D01*
X107112Y106645D01*
X108576Y106838D01*
X109940Y107403D01*
X111111Y108301D01*
X112010Y109473D01*
X112575Y110836D01*
X112767Y112300D01*
X112575Y113764D01*
X112010Y115128D01*
X111111Y116299D01*
X109940Y117197D01*
X108576Y117762D01*
X107112Y117955D01*
D02*
G37*
G36*
X98302Y115933D02*
X79048D01*
Y101403D01*
X98302D01*
Y115933D01*
D02*
G37*
G36*
X9660Y108681D02*
X3792D01*
Y103206D01*
X9660D01*
Y108681D01*
D02*
G37*
G36*
X17028D02*
X11160D01*
Y103206D01*
X17028D01*
Y108681D01*
D02*
G37*
G36*
X12360Y119350D02*
X9860D01*
Y117100D01*
X12360D01*
Y119350D01*
D02*
G37*
G36*
Y126350D02*
X10110D01*
Y123850D01*
X12360D01*
Y126350D01*
D02*
G37*
G36*
Y130350D02*
X10110D01*
Y127850D01*
X12360D01*
Y130350D01*
D02*
G37*
G36*
X16110D02*
X13860D01*
Y127850D01*
X16110D01*
Y130350D01*
D02*
G37*
G36*
X12360Y123100D02*
X9860D01*
Y120850D01*
X12360D01*
Y123100D01*
D02*
G37*
G36*
X16360Y119350D02*
X13860D01*
Y117100D01*
X16360D01*
Y119350D01*
D02*
G37*
G36*
X77548Y131962D02*
X58294D01*
Y117433D01*
X77548D01*
Y131962D01*
D02*
G37*
G36*
X98302D02*
X79048D01*
Y117433D01*
X98302D01*
Y131962D01*
D02*
G37*
G36*
X77548Y115933D02*
X58294D01*
Y101403D01*
X77548D01*
Y115933D01*
D02*
G37*
G36*
X100503Y71921D02*
X96800D01*
Y67824D01*
X100503D01*
Y71921D01*
D02*
G37*
G36*
X105705D02*
X102003D01*
Y67824D01*
X105705D01*
Y71921D01*
D02*
G37*
G36*
X29611Y72508D02*
X24249D01*
Y70100D01*
X23860D01*
Y67850D01*
X30360D01*
Y70100D01*
X29611D01*
Y72508D01*
D02*
G37*
G36*
X49013Y71921D02*
X45310D01*
Y67824D01*
X49013D01*
Y71921D01*
D02*
G37*
G36*
X111160Y65008D02*
X107470D01*
X107526Y64583D01*
X107980Y63488D01*
X108701Y62548D01*
X109641Y61827D01*
X110735Y61373D01*
X111160Y61317D01*
Y65008D01*
D02*
G37*
G36*
Y70198D02*
X110735Y70142D01*
X109641Y69688D01*
X108701Y68967D01*
X107980Y68027D01*
X107526Y66932D01*
X107470Y66508D01*
X111160D01*
Y70198D01*
D02*
G37*
G36*
X43810Y71921D02*
X40107D01*
Y67824D01*
X43810D01*
Y71921D01*
D02*
G37*
G36*
X111160Y75007D02*
X107410D01*
Y71258D01*
X111160D01*
Y75007D01*
D02*
G37*
G36*
X26180Y76907D02*
X24249D01*
Y74007D01*
X26180D01*
Y76907D01*
D02*
G37*
G36*
X29611D02*
X27680D01*
Y74007D01*
X29611D01*
Y76907D01*
D02*
G37*
G36*
X111160Y80257D02*
X107410D01*
Y76508D01*
X111160D01*
Y80257D01*
D02*
G37*
G36*
X105705Y77517D02*
X102003D01*
Y73421D01*
X105705D01*
Y77517D01*
D02*
G37*
G36*
X43810D02*
X40107D01*
Y73421D01*
X43810D01*
Y77517D01*
D02*
G37*
G36*
X49013D02*
X45310D01*
Y73421D01*
X49013D01*
Y77517D01*
D02*
G37*
G36*
X100503D02*
X96800D01*
Y73421D01*
X100503D01*
Y77517D01*
D02*
G37*
%LPD*%
D13*
X29210Y46257D02*
D03*
Y53738D02*
D03*
X38297Y49998D02*
D03*
D14*
X43410Y10000D02*
D03*
X36410D02*
D03*
X20110Y120100D02*
D03*
X13110D02*
D03*
X34110Y89100D02*
D03*
X27110D02*
D03*
Y67100D02*
D03*
X34110D02*
D03*
X27110Y61100D02*
D03*
X34110D02*
D03*
X54410Y22257D02*
D03*
X81410D02*
D03*
X88410D02*
D03*
X50910Y10000D02*
D03*
X67910Y4000D02*
D03*
X74910D02*
D03*
X50910Y15915D02*
D03*
X57910D02*
D03*
X88510D02*
D03*
X61410Y22257D02*
D03*
X82010Y10000D02*
D03*
X75010D02*
D03*
X57910D02*
D03*
X81510Y15915D02*
D03*
D15*
X30670Y82344D02*
D03*
X34410Y73257D02*
D03*
X26930D02*
D03*
D17*
X26568Y109915D02*
D03*
Y116915D02*
D03*
X23210Y53258D02*
D03*
Y46257D02*
D03*
X16710Y53258D02*
D03*
Y46257D02*
D03*
X13110Y134100D02*
D03*
Y127100D02*
D03*
X20110Y134100D02*
D03*
Y127100D02*
D03*
D21*
X42510Y36600D02*
X44210Y34900D01*
Y23200D02*
Y34900D01*
Y23200D02*
X45153Y22257D01*
X54410D01*
X13110Y116900D02*
Y120100D01*
X10410Y114200D02*
X13110Y116900D01*
Y120100D02*
Y127100D01*
X26548Y53738D02*
X29210D01*
X26068Y53258D02*
X26548Y53738D01*
X23210Y53258D02*
X26068D01*
X10410Y109431D02*
Y114200D01*
Y109431D02*
X17441D01*
D22*
X82010Y5610D02*
Y10000D01*
X28810Y1400D02*
X77800D01*
X82010Y5610D01*
X25010Y36900D02*
Y40200D01*
X31292Y42435D02*
X34810Y38917D01*
Y13800D02*
X36410Y12200D01*
X34810Y13800D02*
Y38917D01*
X36410Y10000D02*
Y12200D01*
X40110Y21300D02*
Y32400D01*
X29892Y5091D02*
Y36535D01*
X40110Y21300D02*
X45495Y15915D01*
X50910D01*
X26810Y3400D02*
Y35100D01*
Y3400D02*
X28810Y1400D01*
X25010Y36900D02*
X26810Y35100D01*
X32192Y2791D02*
X58201D01*
X29892Y5091D02*
X32192Y2791D01*
X58201D02*
X59410Y4000D01*
X43410Y7900D02*
X44610Y6700D01*
X56042D02*
X57910Y8568D01*
X44610Y6700D02*
X56042D01*
X71410Y19500D02*
Y29757D01*
Y19500D02*
X73610Y17300D01*
X59410Y4000D02*
X67910D01*
X75010Y4515D02*
Y10515D01*
X74925Y10600D02*
X75010Y10515D01*
X68379Y10600D02*
X74925D01*
X68379D02*
X68510Y10731D01*
Y12815D01*
X61568Y20789D02*
X64442Y17915D01*
Y15915D02*
Y17915D01*
X66410Y14615D02*
Y29757D01*
X43410Y7900D02*
Y10000D01*
X58510Y10600D02*
X64442D01*
X57910Y10000D02*
X58510Y10600D01*
X64442D02*
Y12646D01*
X66410Y14615D01*
X61568Y20789D02*
Y22758D01*
X57910Y15915D02*
X64442D01*
X61410Y22758D02*
Y29757D01*
Y22758D02*
X61568D01*
D23*
X36910Y16200D02*
Y43500D01*
X39410Y13700D02*
X45910D01*
X29210Y53738D02*
X31772D01*
X34110Y51400D01*
Y46300D02*
Y51400D01*
Y46300D02*
X36910Y43500D01*
Y16200D02*
X39410Y13700D01*
X45910D02*
X49610Y10000D01*
X50910D01*
X7710Y46257D02*
X16710D01*
X12553Y61100D02*
X27110D01*
X7710Y56257D02*
X12553Y61100D01*
X34110Y88000D02*
Y97957D01*
X39410Y103258D01*
X30670Y84560D02*
X34110Y88000D01*
X30670Y82344D02*
Y84560D01*
X34110Y61100D02*
Y72957D01*
X34410Y73257D01*
X23210Y46600D02*
X28868D01*
X29210Y46257D01*
X23210D02*
Y46600D01*
X16710Y53100D02*
X23210Y46600D01*
X16710Y53100D02*
Y53258D01*
X64383Y10915D02*
X64442D01*
X38297Y49998D02*
X40650D01*
X45910Y55257D01*
Y61257D01*
X58749Y34399D02*
Y59503D01*
X25678Y134100D02*
X29749Y130029D01*
X13110Y134100D02*
X25678D01*
X29749Y130029D02*
X39410D01*
D24*
X86410Y25915D02*
X88410Y23915D01*
Y22257D02*
Y23915D01*
X86410Y25915D02*
Y35757D01*
D25*
X22610Y40200D02*
X27110D01*
X18168Y35757D02*
X22610Y40200D01*
X7580Y35757D02*
X18168D01*
X26930Y67280D02*
X27110Y67100D01*
X26930Y67280D02*
Y73257D01*
X39139Y116915D02*
X39410Y116643D01*
X88510Y11600D02*
Y15915D01*
X86910Y10000D02*
X88510Y11600D01*
X82010Y10000D02*
X86910D01*
X81410Y16015D02*
X81510Y15915D01*
X78725D02*
X81510D01*
X81410Y16015D02*
Y29757D01*
X68810Y16357D02*
Y18100D01*
X69410Y15757D02*
X70553D01*
X17249Y124158D02*
X18070Y123336D01*
X20110Y120100D02*
Y127100D01*
X18070Y123336D02*
X39410D01*
X23610Y17000D02*
Y24000D01*
X2610Y97000D02*
X10610Y105000D01*
Y109431D01*
X10410D02*
X17441D01*
X24925Y116915D01*
X39139D01*
X76768Y13958D02*
X78725Y15915D01*
X70553Y15757D02*
X72353Y13958D01*
X68810Y16357D02*
X69410Y15757D01*
X72353Y13958D02*
X76768D01*
X2610Y40727D02*
Y97000D01*
Y40727D02*
X7580Y35757D01*
D26*
X111910Y15757D02*
D03*
Y25758D02*
D03*
Y35757D02*
D03*
Y55757D02*
D03*
X7580D02*
D03*
Y45757D02*
D03*
Y35757D02*
D03*
Y25758D02*
D03*
Y15757D02*
D03*
Y5757D02*
D03*
X111910D02*
D03*
Y65758D02*
D03*
Y45757D02*
D03*
D27*
Y75757D02*
D03*
X7580Y65758D02*
D03*
D28*
X39200Y5400D02*
D03*
X53200Y41100D02*
D03*
X33100Y134600D02*
D03*
X89700Y72700D02*
D03*
X58000Y85700D02*
D03*
X75100Y44100D02*
D03*
X114713Y122838D02*
D03*
X98965D02*
D03*
X95028Y114964D02*
D03*
X115028Y96942D02*
D03*
X68810Y18100D02*
D03*
X68510Y12815D02*
D03*
X73610Y17300D02*
D03*
X114928Y105742D02*
D03*
X115028Y90742D02*
D03*
X95028Y107090D02*
D03*
Y91342D02*
D03*
Y99216D02*
D03*
X40110Y32400D02*
D03*
X31292Y42435D02*
D03*
X29892Y36535D02*
D03*
X86410Y35757D02*
D03*
X45910Y61257D02*
D03*
X58749Y34399D02*
D03*
Y59503D02*
D03*
X17249Y124158D02*
D03*
X47749Y125657D02*
D03*
Y122658D02*
D03*
Y128657D02*
D03*
X23610Y24000D02*
D03*
Y17000D02*
D03*
D29*
X44560Y72671D02*
D03*
X101253D02*
D03*
D30*
X78298Y116683D02*
D03*
D31*
X39410Y116643D02*
D03*
Y109950D02*
D03*
Y123336D02*
D03*
Y130029D02*
D03*
Y103258D02*
D03*
D32*
X10410Y81084D02*
D03*
Y109431D02*
D03*
D33*
X81410Y29757D02*
D03*
X71410D02*
D03*
X61410D02*
D03*
X76410D02*
D03*
X86410D02*
D03*
X66410D02*
D03*
D34*
X66410Y10403D02*
D03*
X68379D02*
D03*
X64442Y16112D02*
D03*
Y10403D02*
D03*
X68379Y16112D02*
D03*
D35*
X66410Y8000D02*
Y10600D01*
X32610Y6300D02*
Y37800D01*
X30210Y40200D02*
X32610Y37800D01*
X34210Y4700D02*
X57110D01*
X32610Y6300D02*
X34210Y4700D01*
X57110D02*
X58810Y6400D01*
X68379Y17669D02*
X68810Y18100D01*
X58810Y6400D02*
X64810D01*
X66410Y8000D01*
X81410Y22758D02*
X81510Y22658D01*
Y17015D02*
Y22658D01*
X27110Y40200D02*
X30210D01*
D36*
X7710Y73900D02*
X12510Y78700D01*
X7710Y66258D02*
Y73900D01*
X26810Y94200D02*
Y108400D01*
X13694Y81084D02*
X26810Y94200D01*
X10410Y81084D02*
X13694D01*
X10410D02*
X12510Y78984D01*
Y78700D02*
Y78984D01*
D37*
X26810Y108400D02*
X28361Y109950D01*
X39410D01*
M02*
