%FSLAX25Y25*%
%MOIN*%
G70*
G01*
G75*
G04 Layer_Physical_Order=1*
G04 Layer_Color=255*
%ADD10R,0.05709X0.02756*%
%ADD11R,0.03500X0.03000*%
%ADD12R,0.02362X0.04299*%
%ADD13R,0.04724X0.09843*%
%ADD14R,0.11811X0.23622*%
%ADD15R,0.15748X0.06000*%
%ADD16R,0.03937X0.03937*%
%ADD17R,0.03937X0.03937*%
%ADD18R,0.03000X0.03500*%
%ADD19R,0.03937X0.03937*%
%ADD20R,0.03937X0.03937*%
%ADD21C,0.01000*%
%ADD22C,0.02500*%
%ADD23C,0.02000*%
%ADD24C,0.06000*%
%ADD25C,0.01500*%
%ADD26C,0.03000*%
%ADD27C,0.05000*%
%ADD28R,0.12500X0.06000*%
%ADD29R,0.14000X0.23000*%
%ADD30C,0.06000*%
%ADD31R,0.06000X0.06000*%
%ADD32R,0.06000X0.06000*%
%ADD33C,0.05512*%
%ADD34C,0.02500*%
G36*
X185335Y174743D02*
X185334Y174742D01*
X184341Y173927D01*
X183525Y172934D01*
X182919Y171800D01*
X182546Y170570D01*
X182420Y169291D01*
X182546Y168012D01*
X182919Y166782D01*
X183525Y165649D01*
X184341Y164656D01*
X185334Y163840D01*
X186468Y163234D01*
X187697Y162861D01*
X188976Y162735D01*
X190255Y162861D01*
X191485Y163234D01*
X192619Y163840D01*
X193612Y164656D01*
X194428Y165649D01*
X194428Y165650D01*
X194913Y165529D01*
Y124504D01*
X194465Y124282D01*
X193620Y124931D01*
X192525Y125384D01*
X191350Y125539D01*
X168180D01*
X167539Y126180D01*
Y166000D01*
X169250D01*
Y168999D01*
Y172000D01*
X166750D01*
Y170683D01*
X166656Y170651D01*
X166250Y170942D01*
Y172000D01*
X164819D01*
X164609Y172209D01*
X163669Y172931D01*
X163216Y173119D01*
X162575Y173384D01*
X161400Y173539D01*
X143842D01*
X143548Y173500D01*
X134468D01*
Y164529D01*
X130248D01*
Y173311D01*
X115437D01*
Y173029D01*
X105500D01*
X105352Y173000D01*
X104250D01*
Y172710D01*
X103848Y172412D01*
X103750Y172442D01*
Y173000D01*
X101250D01*
Y169999D01*
Y167000D01*
X103617D01*
Y166870D01*
X103464Y166500D01*
X101250D01*
Y163499D01*
Y160500D01*
X103617D01*
X103971Y160146D01*
Y159421D01*
X103638D01*
Y154128D01*
X103603Y154044D01*
X103465Y153000D01*
Y146035D01*
X86500D01*
Y152250D01*
X80500D01*
Y146035D01*
X70500D01*
X70376Y146018D01*
X70000Y146348D01*
Y146479D01*
X70376Y146808D01*
X71000Y146726D01*
X71718Y146821D01*
X72387Y147098D01*
X72961Y147539D01*
X73402Y148113D01*
X73679Y148782D01*
X73774Y149500D01*
X73679Y150218D01*
X73402Y150887D01*
X72961Y151461D01*
X72387Y151902D01*
X71718Y152179D01*
X71000Y152274D01*
X70376Y152192D01*
X70000Y152521D01*
Y152750D01*
X69039D01*
Y165474D01*
X69269Y165569D01*
X70209Y166291D01*
X70931Y167231D01*
X71384Y168325D01*
X71539Y169500D01*
X71384Y170675D01*
X70931Y171769D01*
X70209Y172709D01*
X69269Y173431D01*
X68175Y173884D01*
X67000Y174039D01*
X65825Y173884D01*
X64731Y173431D01*
X63791Y172709D01*
X63069Y171769D01*
X62616Y170675D01*
X62461Y169500D01*
X62616Y168325D01*
X63069Y167231D01*
X63791Y166291D01*
X64731Y165569D01*
X64961Y165474D01*
Y152750D01*
X64000D01*
Y151512D01*
X63500D01*
Y152750D01*
X57500D01*
Y151512D01*
X56968D01*
Y152942D01*
X50032D01*
Y151512D01*
X31378D01*
Y152942D01*
X24441D01*
Y146005D01*
X31378D01*
Y147434D01*
X50032D01*
Y146005D01*
X56968D01*
Y147434D01*
X57500D01*
Y146250D01*
X63500D01*
Y147434D01*
X64000D01*
Y146250D01*
X69026D01*
X69049Y146136D01*
X68732Y145750D01*
X64000D01*
Y141372D01*
X63613Y141054D01*
X63500Y141077D01*
Y141750D01*
X61250D01*
Y139250D01*
X63246D01*
X63465Y139000D01*
X63465Y139000D01*
Y131171D01*
X62329Y130034D01*
X54000D01*
X53750Y130002D01*
X53500Y130034D01*
X53500Y130034D01*
X22388D01*
X21774Y130649D01*
Y164851D01*
X22189Y165129D01*
X22500Y165000D01*
Y165000D01*
X22500Y165000D01*
X31500D01*
Y174000D01*
X22500D01*
Y172274D01*
X21782Y172179D01*
X21113Y171902D01*
X20539Y171461D01*
X17039Y167961D01*
X16598Y167387D01*
X16483Y167110D01*
X16321Y166718D01*
X16226Y166000D01*
Y129500D01*
X16321Y128782D01*
X16483Y128390D01*
X16598Y128113D01*
X16732Y127938D01*
X14397Y125603D01*
X14185Y125326D01*
X13481Y125034D01*
X10000D01*
Y125500D01*
X1937D01*
Y165529D01*
X2422Y165650D01*
X2423Y165649D01*
X3238Y164656D01*
X4232Y163840D01*
X5365Y163234D01*
X6595Y162861D01*
X7874Y162735D01*
X9153Y162861D01*
X10383Y163234D01*
X11516Y163840D01*
X12510Y164656D01*
X13325Y165649D01*
X13931Y166782D01*
X14304Y168012D01*
X14430Y169291D01*
X14304Y170570D01*
X13931Y171800D01*
X13325Y172934D01*
X12510Y173927D01*
X11516Y174742D01*
X11515Y174743D01*
X11637Y175228D01*
X185214D01*
X185335Y174743D01*
D02*
G37*
G36*
X136466Y133829D02*
Y118203D01*
X136282Y118179D01*
X135613Y117902D01*
X135039Y117461D01*
X134598Y116887D01*
X134321Y116218D01*
X134226Y115500D01*
X134305Y114902D01*
X133975Y114526D01*
X133342D01*
X133161Y114761D01*
X132894Y115028D01*
X132320Y115469D01*
X132142Y115543D01*
Y115945D01*
X123433D01*
Y110189D01*
Y106252D01*
Y102315D01*
Y98378D01*
Y94441D01*
Y90504D01*
Y87547D01*
X122008D01*
X121228Y87392D01*
X120566Y86950D01*
X119155Y85539D01*
X117146D01*
X116868Y85955D01*
X116879Y85982D01*
X116974Y86700D01*
X116879Y87418D01*
X116602Y88087D01*
X116161Y88661D01*
X115587Y89102D01*
X114918Y89379D01*
X114803Y89719D01*
X115442Y90358D01*
X115884Y91020D01*
X116039Y91800D01*
Y126355D01*
X118345Y128661D01*
X130540D01*
X131013Y128298D01*
X131682Y128021D01*
X132400Y127926D01*
X133118Y128021D01*
X133787Y128298D01*
X134361Y128739D01*
X134802Y129313D01*
X135079Y129982D01*
X135174Y130700D01*
X135079Y131418D01*
X134802Y132087D01*
X134361Y132661D01*
X133787Y133102D01*
X133118Y133379D01*
X132400Y133474D01*
X131682Y133379D01*
X131013Y133102D01*
X130540Y132739D01*
X117500D01*
X116720Y132584D01*
X116058Y132142D01*
X112558Y128642D01*
X112116Y127980D01*
X111961Y127200D01*
Y106076D01*
X111499Y105885D01*
X110942Y106442D01*
X110280Y106884D01*
X109500Y107039D01*
X97845D01*
X97539Y107345D01*
Y113500D01*
X97384Y114280D01*
X96942Y114942D01*
X94539Y117345D01*
Y135140D01*
X94902Y135613D01*
X95179Y136282D01*
X95274Y137000D01*
X95179Y137718D01*
X95345Y137966D01*
X132329D01*
X136466Y133829D01*
D02*
G37*
G36*
X158461Y124300D02*
X158461Y124300D01*
X158461D01*
X158616Y123125D01*
X158881Y122484D01*
X159069Y122031D01*
X159791Y121091D01*
X159791Y121091D01*
X159791Y121090D01*
Y121091D01*
X163091Y117791D01*
X163091Y117791D01*
X164031Y117069D01*
X165125Y116616D01*
X166300Y116461D01*
X191350D01*
X192525Y116616D01*
X193620Y117069D01*
X194465Y117718D01*
X194913Y117496D01*
Y114504D01*
X194465Y114282D01*
X193620Y114931D01*
X192525Y115384D01*
X192100Y115440D01*
Y110999D01*
Y106560D01*
X192525Y106616D01*
X193620Y107069D01*
X194465Y107718D01*
X194913Y107496D01*
Y104504D01*
X194465Y104282D01*
X193620Y104931D01*
X192525Y105384D01*
X191350Y105539D01*
X190176Y105384D01*
X189081Y104931D01*
X188141Y104209D01*
X187420Y103269D01*
X186966Y102175D01*
X186812Y101000D01*
X186966Y99825D01*
X187420Y98731D01*
X188141Y97791D01*
X189081Y97069D01*
X190176Y96616D01*
X191350Y96461D01*
X192525Y96616D01*
X193620Y97069D01*
X194465Y97718D01*
X194913Y97496D01*
Y94504D01*
X194465Y94282D01*
X193620Y94931D01*
X192525Y95384D01*
X191350Y95539D01*
X190176Y95384D01*
X189081Y94931D01*
X188141Y94209D01*
X187420Y93269D01*
X186966Y92175D01*
X186812Y91000D01*
X186966Y89825D01*
X187420Y88731D01*
X188141Y87791D01*
X189081Y87069D01*
X190176Y86616D01*
X191350Y86461D01*
X192525Y86616D01*
X193620Y87069D01*
X194465Y87718D01*
X194913Y87496D01*
Y84504D01*
X194465Y84282D01*
X193620Y84931D01*
X192525Y85384D01*
X191350Y85539D01*
X190176Y85384D01*
X189081Y84931D01*
X188141Y84209D01*
X187420Y83269D01*
X186966Y82175D01*
X186812Y81000D01*
X186966Y79825D01*
X187420Y78731D01*
X188141Y77791D01*
X189081Y77069D01*
X190176Y76616D01*
X191350Y76461D01*
X192525Y76616D01*
X193620Y77069D01*
X194465Y77718D01*
X194913Y77496D01*
Y74504D01*
X194465Y74282D01*
X193620Y74931D01*
X192525Y75384D01*
X191350Y75539D01*
X190176Y75384D01*
X189081Y74931D01*
X188141Y74209D01*
X187420Y73269D01*
X186966Y72175D01*
X186812Y71000D01*
X186966Y69825D01*
X187420Y68731D01*
X188141Y67791D01*
X189081Y67069D01*
X190176Y66616D01*
X191350Y66461D01*
X192525Y66616D01*
X193620Y67069D01*
X194465Y67718D01*
X194913Y67496D01*
Y64504D01*
X194465Y64282D01*
X193620Y64931D01*
X192525Y65384D01*
X191350Y65539D01*
X190176Y65384D01*
X189081Y64931D01*
X188141Y64209D01*
X187420Y63269D01*
X186966Y62175D01*
X186812Y61000D01*
X186966Y59825D01*
X187420Y58731D01*
X188141Y57791D01*
X189081Y57069D01*
X190176Y56616D01*
X191350Y56461D01*
X192525Y56616D01*
X193620Y57069D01*
X194465Y57718D01*
X194913Y57496D01*
Y54504D01*
X194465Y54282D01*
X193620Y54931D01*
X192525Y55384D01*
X191350Y55539D01*
X190176Y55384D01*
X189081Y54931D01*
X188141Y54209D01*
X187420Y53269D01*
X186966Y52175D01*
X186812Y51000D01*
X186966Y49825D01*
X187420Y48731D01*
X188141Y47791D01*
X189081Y47069D01*
X190176Y46616D01*
X191350Y46461D01*
X192525Y46616D01*
X193620Y47069D01*
X194465Y47718D01*
X194913Y47496D01*
Y44504D01*
X194465Y44282D01*
X193620Y44931D01*
X192525Y45384D01*
X191350Y45539D01*
X190176Y45384D01*
X189081Y44931D01*
X188141Y44209D01*
X187420Y43269D01*
X186966Y42175D01*
X186812Y41000D01*
X186966Y39825D01*
X187420Y38731D01*
X188141Y37791D01*
X189081Y37069D01*
X190176Y36616D01*
X191350Y36461D01*
X192525Y36616D01*
X193620Y37069D01*
X194465Y37718D01*
X194913Y37496D01*
Y11637D01*
X194428Y11515D01*
X194428Y11516D01*
X193612Y12510D01*
X192619Y13325D01*
X191485Y13931D01*
X190255Y14304D01*
X188976Y14430D01*
X187697Y14304D01*
X186468Y13931D01*
X185334Y13325D01*
X184341Y12510D01*
X183525Y11516D01*
X182919Y10383D01*
X182546Y9153D01*
X182420Y7874D01*
X182546Y6595D01*
X182919Y5365D01*
X183525Y4232D01*
X184341Y3238D01*
X185334Y2423D01*
X185335Y2422D01*
X185214Y1937D01*
X145335D01*
Y29500D01*
X145335D01*
Y29500D01*
X145335D01*
Y29500D01*
Y29500D01*
X145335D01*
X145335Y29500D01*
Y31500D01*
X145196Y32202D01*
X144798Y32798D01*
X144202Y33196D01*
X143500Y33335D01*
X132142D01*
Y35386D01*
Y37514D01*
X123433D01*
Y35386D01*
Y33335D01*
X51500D01*
X50798Y33196D01*
X50202Y32798D01*
X49804Y32202D01*
X49665Y31500D01*
Y1937D01*
X11637D01*
X11515Y2422D01*
X11516Y2423D01*
X12510Y3238D01*
X13325Y4232D01*
X13931Y5365D01*
X14304Y6595D01*
X14430Y7874D01*
X14304Y9153D01*
X13931Y10383D01*
X13325Y11516D01*
X12510Y12510D01*
X11516Y13325D01*
X10383Y13931D01*
X9153Y14304D01*
X7874Y14430D01*
X6595Y14304D01*
X5365Y13931D01*
X4232Y13325D01*
X3238Y12510D01*
X2423Y11516D01*
X2422Y11515D01*
X1937Y11637D01*
Y27496D01*
X2386Y27718D01*
X3231Y27069D01*
X4325Y26616D01*
X4750Y26560D01*
Y30999D01*
Y35440D01*
X4325Y35384D01*
X3231Y34931D01*
X2386Y34282D01*
X1937Y34504D01*
Y37496D01*
X2386Y37718D01*
X3231Y37069D01*
X4325Y36616D01*
X5500Y36461D01*
X6675Y36616D01*
X7769Y37069D01*
X8709Y37791D01*
X9431Y38731D01*
X9884Y39825D01*
X10039Y41000D01*
X9884Y42175D01*
X9431Y43269D01*
X8709Y44209D01*
X7769Y44931D01*
X6675Y45384D01*
X5500Y45539D01*
X4325Y45384D01*
X3231Y44931D01*
X2386Y44282D01*
X1937Y44504D01*
Y47496D01*
X2386Y47718D01*
X3231Y47069D01*
X4325Y46616D01*
X5500Y46461D01*
X6675Y46616D01*
X7769Y47069D01*
X8709Y47791D01*
X9431Y48731D01*
X9884Y49825D01*
X10039Y51000D01*
X9884Y52175D01*
X9431Y53269D01*
X8709Y54209D01*
X7769Y54931D01*
X6675Y55384D01*
X5500Y55539D01*
X4325Y55384D01*
X3231Y54931D01*
X2386Y54282D01*
X1937Y54504D01*
Y57496D01*
X2386Y57718D01*
X3231Y57069D01*
X4325Y56616D01*
X5500Y56461D01*
X6675Y56616D01*
X7769Y57069D01*
X8709Y57791D01*
X9431Y58731D01*
X9884Y59825D01*
X10039Y61000D01*
X9884Y62175D01*
X9431Y63269D01*
X8709Y64209D01*
X7769Y64931D01*
X6675Y65384D01*
X5500Y65539D01*
X4325Y65384D01*
X3231Y64931D01*
X2386Y64282D01*
X1937Y64504D01*
Y67496D01*
X2386Y67718D01*
X3231Y67069D01*
X4325Y66616D01*
X5500Y66461D01*
X6675Y66616D01*
X7769Y67069D01*
X8709Y67791D01*
X9431Y68731D01*
X9884Y69825D01*
X10039Y71000D01*
X9884Y72175D01*
X9431Y73269D01*
X8709Y74209D01*
X7769Y74931D01*
X6675Y75384D01*
X5500Y75539D01*
X4325Y75384D01*
X3231Y74931D01*
X2386Y74282D01*
X1937Y74504D01*
Y77496D01*
X2386Y77718D01*
X3231Y77069D01*
X4325Y76616D01*
X5500Y76461D01*
X6675Y76616D01*
X7769Y77069D01*
X8709Y77791D01*
X9431Y78731D01*
X9884Y79825D01*
X10039Y81000D01*
X9884Y82175D01*
X9431Y83269D01*
X8709Y84209D01*
X7769Y84931D01*
X6675Y85384D01*
X5500Y85539D01*
X4325Y85384D01*
X3231Y84931D01*
X2386Y84282D01*
X1937Y84504D01*
Y87496D01*
X2386Y87718D01*
X3231Y87069D01*
X4325Y86616D01*
X5500Y86461D01*
X6675Y86616D01*
X7769Y87069D01*
X8709Y87791D01*
X9431Y88731D01*
X9884Y89825D01*
X10039Y91000D01*
X9884Y92175D01*
X9431Y93269D01*
X8709Y94209D01*
X7769Y94931D01*
X6675Y95384D01*
X5500Y95539D01*
X4325Y95384D01*
X3231Y94931D01*
X2386Y94282D01*
X1937Y94504D01*
Y97496D01*
X2386Y97718D01*
X3231Y97069D01*
X4325Y96616D01*
X5500Y96461D01*
X6675Y96616D01*
X7769Y97069D01*
X8709Y97791D01*
X9431Y98731D01*
X9884Y99825D01*
X10039Y101000D01*
X9884Y102175D01*
X9431Y103269D01*
X8709Y104209D01*
X7769Y104931D01*
X6675Y105384D01*
X5500Y105539D01*
X4325Y105384D01*
X3231Y104931D01*
X2386Y104282D01*
X1937Y104504D01*
Y107496D01*
X2386Y107718D01*
X3231Y107069D01*
X4325Y106616D01*
X4750Y106560D01*
Y110999D01*
Y115440D01*
X4325Y115384D01*
X3231Y114931D01*
X2386Y114282D01*
X1937Y114504D01*
Y116500D01*
X10000D01*
Y116965D01*
X13481D01*
X14325Y116616D01*
X15500Y116461D01*
X16675Y116616D01*
X17769Y117069D01*
X18709Y117791D01*
X19431Y118731D01*
X19826Y119685D01*
X20103Y119897D01*
X22171Y121966D01*
X24532D01*
Y121559D01*
X24532D01*
Y118841D01*
X31468D01*
Y121559D01*
X31468D01*
Y121612D01*
X31822Y121966D01*
X38705D01*
Y121559D01*
X38705D01*
Y114622D01*
X39961D01*
Y95969D01*
X38705D01*
Y89031D01*
X38750D01*
Y89000D01*
X38750D01*
Y83000D01*
X40060D01*
X40116Y82720D01*
X40558Y82058D01*
X41558Y81058D01*
X42220Y80616D01*
X43000Y80461D01*
X43250D01*
Y78250D01*
X46501D01*
Y76750D01*
X43250D01*
Y74500D01*
X45742D01*
X45933Y74038D01*
X42698Y70802D01*
X42145Y69976D01*
X41951Y69000D01*
Y63692D01*
X41452Y63659D01*
X41384Y64175D01*
X40931Y65269D01*
X40209Y66209D01*
X39269Y66931D01*
X38175Y67384D01*
X37000Y67539D01*
X35825Y67384D01*
X34731Y66931D01*
X33791Y66209D01*
X33069Y65269D01*
X32616Y64175D01*
X32461Y63000D01*
X32616Y61825D01*
X33069Y60731D01*
X33791Y59791D01*
X34731Y59069D01*
X35825Y58616D01*
X37000Y58461D01*
X38175Y58616D01*
X39269Y59069D01*
X40209Y59791D01*
X40931Y60731D01*
X41384Y61825D01*
X41452Y62341D01*
X41951Y62309D01*
Y55532D01*
X41821Y55218D01*
X41726Y54500D01*
X41821Y53782D01*
X41951Y53468D01*
Y45556D01*
X39869Y43474D01*
X39408Y43666D01*
Y46200D01*
X32908D01*
Y40200D01*
Y34200D01*
X33476D01*
Y28649D01*
X31358D01*
Y33274D01*
X31512Y33505D01*
X31651Y34200D01*
X32408D01*
Y40200D01*
Y46200D01*
X31039D01*
Y85743D01*
X31480Y85979D01*
X31750Y85798D01*
Y86376D01*
X31962Y86538D01*
X32124Y86750D01*
X34250D01*
Y89000D01*
X32708D01*
X32679Y89218D01*
X32402Y89887D01*
X31961Y90461D01*
X31468Y90839D01*
Y91750D01*
X24532D01*
Y89031D01*
X26917D01*
X27247Y88656D01*
X27226Y88500D01*
X27232Y88454D01*
X27116Y88280D01*
X26961Y87500D01*
Y46200D01*
X25907D01*
Y45239D01*
X23200D01*
X22420Y45084D01*
X21758Y44642D01*
X20155Y43039D01*
X19526D01*
X19431Y43269D01*
X18709Y44209D01*
X17769Y44931D01*
X16675Y45384D01*
X15500Y45539D01*
X14325Y45384D01*
X13231Y44931D01*
X12291Y44209D01*
X11569Y43269D01*
X11116Y42175D01*
X10961Y41000D01*
X11116Y39825D01*
X11569Y38731D01*
X12291Y37791D01*
X13231Y37069D01*
X14325Y36616D01*
X15500Y36461D01*
X16675Y36616D01*
X17769Y37069D01*
X18709Y37791D01*
X19431Y38731D01*
X19526Y38961D01*
X21000D01*
X21780Y39116D01*
X22442Y39558D01*
X24045Y41161D01*
X25907D01*
Y40200D01*
Y34200D01*
X25996D01*
Y27050D01*
X26153D01*
X26322Y26202D01*
X26875Y25375D01*
X27952Y24298D01*
X28779Y23745D01*
X29736Y23555D01*
Y18000D01*
X29250D01*
Y12000D01*
X35750D01*
Y18000D01*
X35098D01*
Y23551D01*
X39600D01*
X40576Y23745D01*
X41402Y24298D01*
Y24298D01*
X41402D01*
Y24298D01*
Y24298D01*
Y24298D01*
X41402D01*
X43302Y26198D01*
X43855Y27024D01*
X44049Y28000D01*
X44049D01*
Y28000D01*
X44049D01*
Y28000D01*
Y28000D01*
X44049D01*
X44049Y28000D01*
Y40444D01*
X46302Y42698D01*
X46855Y43525D01*
X47049Y44500D01*
X47049D01*
Y44500D01*
X47049D01*
Y44500D01*
Y44500D01*
X47049D01*
X47049Y44500D01*
Y53468D01*
X47179Y53782D01*
X47274Y54500D01*
X47179Y55218D01*
X47049Y55532D01*
Y62309D01*
X47548Y62341D01*
X47616Y61825D01*
X48069Y60731D01*
X48791Y59791D01*
X49731Y59069D01*
X50825Y58616D01*
X52000Y58461D01*
X53175Y58616D01*
X54269Y59069D01*
X55209Y59791D01*
X55931Y60731D01*
X56384Y61825D01*
X56539Y63000D01*
X56384Y64175D01*
X55931Y65269D01*
X55209Y66209D01*
X54269Y66931D01*
X53175Y67384D01*
X52000Y67539D01*
X50825Y67384D01*
X49731Y66931D01*
X48791Y66209D01*
X48069Y65269D01*
X47616Y64175D01*
X47548Y63659D01*
X47049Y63692D01*
Y67944D01*
X49056Y69951D01*
X52000D01*
X52975Y70145D01*
X53802Y70698D01*
X55802Y72698D01*
X56355Y73524D01*
X56549Y74500D01*
X56750D01*
Y74860D01*
X62803D01*
Y74756D01*
Y72638D01*
Y71799D01*
X61260D01*
X60479Y71644D01*
X59818Y71202D01*
X59126Y70510D01*
X58718Y70679D01*
X58000Y70774D01*
X57282Y70679D01*
X56613Y70402D01*
X56039Y69961D01*
X55598Y69387D01*
X55321Y68718D01*
X55226Y68000D01*
X55321Y67282D01*
X55598Y66613D01*
X56039Y66039D01*
X56613Y65598D01*
X57282Y65321D01*
X58000Y65226D01*
X58718Y65321D01*
X59387Y65598D01*
X59961Y66039D01*
X59974Y66055D01*
X60280Y66116D01*
X60942Y66558D01*
X62104Y67721D01*
X62803D01*
Y66882D01*
Y62945D01*
Y59008D01*
Y55071D01*
Y51134D01*
Y47197D01*
Y43260D01*
Y39323D01*
Y39014D01*
X71512D01*
Y39323D01*
Y43260D01*
Y47197D01*
Y51134D01*
Y55071D01*
Y59008D01*
Y61551D01*
X71974Y61742D01*
X73358Y60358D01*
X73358Y60358D01*
X73755Y60093D01*
X74020Y59916D01*
X74800Y59761D01*
X114140D01*
X114613Y59398D01*
X115282Y59121D01*
X116000Y59026D01*
X116718Y59121D01*
X117387Y59398D01*
X117961Y59839D01*
X118402Y60413D01*
X118679Y61082D01*
X118774Y61800D01*
X118679Y62518D01*
X118402Y63187D01*
X118039Y63660D01*
Y76500D01*
X117884Y77280D01*
X117442Y77942D01*
X115942Y79442D01*
X115280Y79884D01*
X114500Y80039D01*
X109860D01*
X109387Y80402D01*
X108718Y80679D01*
X108000Y80774D01*
X107282Y80679D01*
X106613Y80402D01*
X106039Y79961D01*
X105598Y79387D01*
X105321Y78718D01*
X105226Y78000D01*
X105321Y77282D01*
X105525Y76789D01*
X105289Y76348D01*
X105283Y76347D01*
X104621Y75905D01*
X102755Y74039D01*
X96513D01*
X96184Y74415D01*
X96274Y75100D01*
X96179Y75818D01*
X95902Y76487D01*
X95461Y77061D01*
X94887Y77502D01*
X94218Y77779D01*
X93500Y77874D01*
X92782Y77779D01*
X92113Y77502D01*
X91640Y77139D01*
X80845D01*
X79539Y78445D01*
Y83974D01*
X79915Y84303D01*
X80373Y84243D01*
X82558Y82058D01*
X82558Y82058D01*
X82558Y82058D01*
X82558Y82058D01*
Y82058D01*
X83220Y81616D01*
X84000Y81461D01*
X120000D01*
X120780Y81616D01*
X121442Y82058D01*
X122853Y83469D01*
X123433D01*
Y82630D01*
Y78693D01*
Y74756D01*
Y70819D01*
Y66882D01*
Y62945D01*
Y59008D01*
Y55071D01*
Y51134D01*
Y47197D01*
Y43260D01*
Y39323D01*
Y39014D01*
X132142D01*
Y39323D01*
Y43260D01*
Y47197D01*
Y51134D01*
Y51321D01*
X132604Y51512D01*
X133107Y51009D01*
Y40954D01*
X133262Y40174D01*
X133704Y39512D01*
X136158Y37058D01*
X136158Y37058D01*
X136158Y37058D01*
X136158Y37058D01*
Y37058D01*
X136820Y36616D01*
X137600Y36461D01*
X145755D01*
X146961Y35255D01*
Y18800D01*
X146961Y18800D01*
X146961D01*
X147116Y18020D01*
X147558Y17358D01*
X149558Y15358D01*
X150220Y14916D01*
X151000Y14761D01*
X152738D01*
X152782Y14654D01*
X153465Y13765D01*
X154354Y13082D01*
X154461Y13038D01*
Y10800D01*
X153250D01*
Y4800D01*
X159750D01*
Y10800D01*
X158539D01*
Y13038D01*
X158646Y13082D01*
X159535Y13765D01*
X160217Y14654D01*
X160646Y15689D01*
X160793Y16800D01*
X160646Y17911D01*
X160217Y18946D01*
X160090Y19112D01*
X160311Y19561D01*
X162689D01*
X162910Y19112D01*
X162783Y18946D01*
X162354Y17911D01*
X162207Y16800D01*
X162354Y15689D01*
X162783Y14654D01*
X163465Y13765D01*
X164354Y13082D01*
X164461Y13038D01*
Y10800D01*
X163250D01*
Y4800D01*
X169750D01*
Y10800D01*
X168539D01*
Y13038D01*
X168646Y13082D01*
X169535Y13765D01*
X170218Y14654D01*
X170646Y15689D01*
X170793Y16800D01*
X170697Y17529D01*
X171145Y17750D01*
X172224Y16671D01*
X172354Y15689D01*
X172783Y14654D01*
X173332Y13937D01*
X171698Y12302D01*
X171145Y11475D01*
X171011Y10800D01*
X170250D01*
Y4800D01*
X176750D01*
Y10145D01*
X178302Y11698D01*
X178855Y12525D01*
X179024Y13372D01*
X179535Y13765D01*
X180218Y14654D01*
X180646Y15689D01*
X180793Y16800D01*
X180646Y17911D01*
X180218Y18946D01*
X179535Y19835D01*
X178646Y20517D01*
X177611Y20946D01*
X176500Y21093D01*
X175389Y20946D01*
X175226Y20879D01*
X174049Y22056D01*
Y22759D01*
X174465Y23036D01*
X175389Y22654D01*
X176500Y22507D01*
X177611Y22654D01*
X178646Y23083D01*
X179535Y23765D01*
X180218Y24654D01*
X180646Y25689D01*
X180793Y26800D01*
X180646Y27911D01*
X180218Y28946D01*
X179535Y29835D01*
X178646Y30518D01*
X177611Y30946D01*
X176500Y31093D01*
X175389Y30946D01*
X174433Y30550D01*
X174256Y30645D01*
X173938Y31060D01*
X173855Y31475D01*
X173302Y32302D01*
X169302Y36302D01*
X168475Y36855D01*
X167500Y37049D01*
X167056D01*
X147649Y56456D01*
Y57968D01*
X147779Y58282D01*
X147874Y59000D01*
X147779Y59718D01*
X147502Y60387D01*
X147061Y60961D01*
X146487Y61402D01*
X145818Y61679D01*
X145100Y61774D01*
X144382Y61679D01*
X143713Y61402D01*
X143139Y60961D01*
X142698Y60387D01*
X142421Y59718D01*
X142326Y59000D01*
X142421Y58282D01*
X142551Y57968D01*
Y55400D01*
X142551Y55400D01*
X142551D01*
X142745Y54425D01*
X143298Y53598D01*
X164198Y32698D01*
X165024Y32145D01*
X166000Y31951D01*
X166444D01*
X166874Y31521D01*
X166653Y31072D01*
X166500Y31093D01*
X165389Y30946D01*
X164354Y30518D01*
X163465Y29835D01*
X162783Y28946D01*
X162354Y27911D01*
X162207Y26800D01*
X162354Y25689D01*
X162783Y24654D01*
X163217Y24088D01*
X162996Y23639D01*
X160004D01*
X159783Y24088D01*
X160217Y24654D01*
X160646Y25689D01*
X160694Y26050D01*
X156499D01*
Y26799D01*
X155750D01*
Y30994D01*
X155389Y30946D01*
X154354Y30518D01*
X153988Y30237D01*
X153539Y30458D01*
Y38500D01*
X153384Y39280D01*
X152942Y39942D01*
X150442Y42442D01*
X149780Y42884D01*
X149000Y43039D01*
X140345D01*
X140196Y43188D01*
Y54344D01*
X140040Y55124D01*
X139598Y55786D01*
X135993Y59391D01*
X135331Y59833D01*
X134551Y59988D01*
X132142D01*
Y60827D01*
Y62945D01*
Y66882D01*
Y67721D01*
X134396D01*
X137558Y64558D01*
X138220Y64116D01*
X139000Y63961D01*
X139000Y63961D01*
X150961D01*
Y62526D01*
X150731Y62431D01*
X149791Y61709D01*
X149069Y60769D01*
X148616Y59675D01*
X148461Y58500D01*
X148616Y57325D01*
X149069Y56231D01*
X149791Y55291D01*
X150731Y54569D01*
X151825Y54116D01*
X153000Y53961D01*
X154175Y54116D01*
X155269Y54569D01*
X156209Y55291D01*
X156931Y56231D01*
X157026Y56461D01*
X160750D01*
Y55500D01*
X167250D01*
Y61500D01*
X160750D01*
Y60539D01*
X157026D01*
X156931Y60769D01*
X156209Y61709D01*
X155269Y62431D01*
X155039Y62526D01*
Y63961D01*
X156000D01*
X156780Y64116D01*
X157442Y64558D01*
X159442Y66558D01*
X159884Y67220D01*
X160039Y68000D01*
Y71474D01*
X160069Y71500D01*
X160750Y71500D01*
Y71500D01*
X167250D01*
Y77500D01*
X160750D01*
Y77241D01*
X160282Y77179D01*
X159613Y76902D01*
X159451Y76929D01*
X159442Y76942D01*
X158039Y78345D01*
Y79678D01*
X158455Y79956D01*
X158782Y79821D01*
X159500Y79726D01*
X160218Y79821D01*
X160334Y79869D01*
X160750Y79591D01*
Y78000D01*
X163250D01*
Y80999D01*
Y84000D01*
X161815D01*
X161539Y84360D01*
Y85255D01*
X162442Y86158D01*
X162884Y86820D01*
X163039Y87600D01*
Y104500D01*
X162884Y105280D01*
X162442Y105942D01*
X162442Y105942D01*
X162442D01*
X162442Y105942D01*
Y105942D01*
X157039Y111345D01*
Y143000D01*
X157039Y143000D01*
X156884Y143780D01*
X156442Y144442D01*
X155942Y144942D01*
X155280Y145384D01*
X154500Y145539D01*
X154360D01*
X153887Y145902D01*
X153218Y146179D01*
X152500Y146274D01*
X152726Y146500D01*
X153217D01*
Y150250D01*
X144592D01*
Y146500D01*
X151275D01*
X151373Y146010D01*
X151113Y145902D01*
X150539Y145461D01*
X150098Y144887D01*
X149821Y144218D01*
X149726Y143500D01*
X149821Y142782D01*
X150098Y142113D01*
X150539Y141539D01*
X151113Y141098D01*
X151782Y140821D01*
X152500Y140726D01*
X152585Y140737D01*
X152961Y140408D01*
Y110500D01*
X152961Y110500D01*
X152961D01*
X153116Y109720D01*
X153558Y109058D01*
X154573Y108043D01*
X154476Y107552D01*
X154113Y107402D01*
X153539Y106961D01*
X153098Y106387D01*
X152821Y105718D01*
X152726Y105000D01*
X152821Y104282D01*
X153098Y103613D01*
X153539Y103039D01*
X154113Y102598D01*
X154782Y102321D01*
X155021Y102289D01*
X155285Y101865D01*
X155242Y101740D01*
X154782Y101679D01*
X154113Y101402D01*
X153539Y100961D01*
X153098Y100387D01*
X152821Y99718D01*
X152726Y99000D01*
X152821Y98282D01*
X153098Y97613D01*
X153461Y97140D01*
Y92345D01*
X151558Y90442D01*
X151116Y89780D01*
X150961Y89000D01*
Y76526D01*
X150731Y76431D01*
X149791Y75709D01*
X149563Y75412D01*
X149130Y75662D01*
X149179Y75782D01*
X149274Y76500D01*
X149179Y77218D01*
X148902Y77887D01*
X148461Y78461D01*
X147887Y78902D01*
X147218Y79179D01*
X146500Y79274D01*
X142176D01*
Y108500D01*
X142750D01*
Y113276D01*
X143175Y113540D01*
X143250Y113503D01*
Y112250D01*
X145750D01*
Y114500D01*
X144189D01*
X143968Y114948D01*
X143994Y114983D01*
X144397Y115956D01*
X144535Y117000D01*
Y123711D01*
X144961Y124039D01*
X145402Y124613D01*
X145679Y125282D01*
X145774Y126000D01*
X145679Y126718D01*
X145402Y127387D01*
X144961Y127961D01*
X144535Y128289D01*
Y135500D01*
X144535Y135500D01*
X144397Y136544D01*
X143994Y137517D01*
X143353Y138353D01*
X136853Y144853D01*
X136017Y145494D01*
X135044Y145897D01*
X134000Y146035D01*
X134000Y146035D01*
X111535D01*
Y146971D01*
X115437D01*
Y146689D01*
X130248D01*
Y155471D01*
X134468D01*
Y151750D01*
X153217D01*
Y155500D01*
Y164461D01*
X158461D01*
Y124300D01*
D02*
G37*
%LPC*%
G36*
X181350Y85539D02*
X180176Y85384D01*
X179081Y84931D01*
X178141Y84209D01*
X177420Y83269D01*
X176966Y82175D01*
X176812Y81000D01*
X176966Y79825D01*
X177420Y78731D01*
X178141Y77791D01*
X179081Y77069D01*
X180176Y76616D01*
X181350Y76461D01*
X182525Y76616D01*
X183620Y77069D01*
X184560Y77791D01*
X185281Y78731D01*
X185735Y79825D01*
X185889Y81000D01*
X185735Y82175D01*
X185281Y83269D01*
X184560Y84209D01*
X183620Y84931D01*
X182525Y85384D01*
X181350Y85539D01*
D02*
G37*
G36*
X15500D02*
X14325Y85384D01*
X13231Y84931D01*
X12291Y84209D01*
X11569Y83269D01*
X11116Y82175D01*
X10961Y81000D01*
X11116Y79825D01*
X11569Y78731D01*
X12291Y77791D01*
X13231Y77069D01*
X14325Y76616D01*
X15500Y76461D01*
X16675Y76616D01*
X17769Y77069D01*
X18709Y77791D01*
X19431Y78731D01*
X19884Y79825D01*
X20039Y81000D01*
X19884Y82175D01*
X19431Y83269D01*
X18709Y84209D01*
X17769Y84931D01*
X16675Y85384D01*
X15500Y85539D01*
D02*
G37*
G36*
X167250Y80250D02*
X164750D01*
Y78000D01*
X167250D01*
Y80250D01*
D02*
G37*
G36*
X34250Y85250D02*
X31750D01*
Y83000D01*
X34250D01*
Y85250D01*
D02*
G37*
G36*
X167250Y84000D02*
X164750D01*
Y81750D01*
X167250D01*
Y84000D01*
D02*
G37*
G36*
X174250D02*
X167750D01*
Y78000D01*
X168961D01*
Y77500D01*
X167750D01*
Y71500D01*
X174250D01*
Y77500D01*
X173039D01*
Y78000D01*
X174250D01*
Y84000D01*
D02*
G37*
G36*
X181350Y65539D02*
X180176Y65384D01*
X179081Y64931D01*
X178141Y64209D01*
X177420Y63269D01*
X176966Y62175D01*
X176812Y61000D01*
X176966Y59825D01*
X177420Y58731D01*
X178141Y57791D01*
X179081Y57069D01*
X180176Y56616D01*
X181350Y56461D01*
X182525Y56616D01*
X183620Y57069D01*
X184560Y57791D01*
X185281Y58731D01*
X185735Y59825D01*
X185889Y61000D01*
X185735Y62175D01*
X185281Y63269D01*
X184560Y64209D01*
X183620Y64931D01*
X182525Y65384D01*
X181350Y65539D01*
D02*
G37*
G36*
X15500D02*
X14325Y65384D01*
X13231Y64931D01*
X12291Y64209D01*
X11569Y63269D01*
X11116Y62175D01*
X10961Y61000D01*
X11116Y59825D01*
X11569Y58731D01*
X12291Y57791D01*
X13231Y57069D01*
X14325Y56616D01*
X15500Y56461D01*
X16675Y56616D01*
X17769Y57069D01*
X18709Y57791D01*
X19431Y58731D01*
X19884Y59825D01*
X20039Y61000D01*
X19884Y62175D01*
X19431Y63269D01*
X18709Y64209D01*
X17769Y64931D01*
X16675Y65384D01*
X15500Y65539D01*
D02*
G37*
G36*
Y75539D02*
X14325Y75384D01*
X13231Y74931D01*
X12291Y74209D01*
X11569Y73269D01*
X11116Y72175D01*
X10961Y71000D01*
X11116Y69825D01*
X11569Y68731D01*
X12291Y67791D01*
X13231Y67069D01*
X14325Y66616D01*
X15500Y66461D01*
X16675Y66616D01*
X17769Y67069D01*
X18709Y67791D01*
X19431Y68731D01*
X19884Y69825D01*
X20039Y71000D01*
X19884Y72175D01*
X19431Y73269D01*
X18709Y74209D01*
X17769Y74931D01*
X16675Y75384D01*
X15500Y75539D01*
D02*
G37*
G36*
X185791Y110250D02*
X182100D01*
Y106560D01*
X182525Y106616D01*
X183620Y107069D01*
X184560Y107791D01*
X185281Y108731D01*
X185735Y109825D01*
X185791Y110250D01*
D02*
G37*
G36*
X181350Y75539D02*
X180176Y75384D01*
X179081Y74931D01*
X178141Y74209D01*
X177420Y73269D01*
X176966Y72175D01*
X176812Y71000D01*
X176966Y69825D01*
X177420Y68731D01*
X178141Y67791D01*
X179081Y67069D01*
X180176Y66616D01*
X181350Y66461D01*
X182525Y66616D01*
X183620Y67069D01*
X184560Y67791D01*
X185281Y68731D01*
X185735Y69825D01*
X185889Y71000D01*
X185735Y72175D01*
X185281Y73269D01*
X184560Y74209D01*
X183620Y74931D01*
X182525Y75384D01*
X181350Y75539D01*
D02*
G37*
G36*
X38250Y85250D02*
X35750D01*
Y83000D01*
X38250D01*
Y85250D01*
D02*
G37*
G36*
X15500Y105539D02*
X14325Y105384D01*
X13231Y104931D01*
X12291Y104209D01*
X11569Y103269D01*
X11116Y102175D01*
X10961Y101000D01*
X11116Y99825D01*
X11569Y98731D01*
X12291Y97791D01*
X13231Y97069D01*
X14325Y96616D01*
X15500Y96461D01*
X16675Y96616D01*
X17769Y97069D01*
X18709Y97791D01*
X19431Y98731D01*
X19884Y99825D01*
X20039Y101000D01*
X19884Y102175D01*
X19431Y103269D01*
X18709Y104209D01*
X17769Y104931D01*
X16675Y105384D01*
X15500Y105539D01*
D02*
G37*
G36*
X31468Y95969D02*
X28750D01*
Y93250D01*
X31468D01*
Y95969D01*
D02*
G37*
G36*
X181350Y105539D02*
X180176Y105384D01*
X179081Y104931D01*
X178141Y104209D01*
X177420Y103269D01*
X176966Y102175D01*
X176812Y101000D01*
X176966Y99825D01*
X177420Y98731D01*
X178141Y97791D01*
X179081Y97069D01*
X180176Y96616D01*
X181350Y96461D01*
X182525Y96616D01*
X183620Y97069D01*
X184560Y97791D01*
X185281Y98731D01*
X185735Y99825D01*
X185889Y101000D01*
X185735Y102175D01*
X185281Y103269D01*
X184560Y104209D01*
X183620Y104931D01*
X182525Y105384D01*
X181350Y105539D01*
D02*
G37*
G36*
X14750Y110250D02*
X11060D01*
X11116Y109825D01*
X11569Y108731D01*
X12291Y107791D01*
X13231Y107069D01*
X14325Y106616D01*
X14750Y106560D01*
Y110250D01*
D02*
G37*
G36*
X9940D02*
X6250D01*
Y106560D01*
X6675Y106616D01*
X7769Y107069D01*
X8709Y107791D01*
X9431Y108731D01*
X9884Y109825D01*
X9940Y110250D01*
D02*
G37*
G36*
X27250Y95969D02*
X24532D01*
Y93250D01*
X27250D01*
Y95969D01*
D02*
G37*
G36*
X19940Y110250D02*
X16250D01*
Y106560D01*
X16675Y106616D01*
X17769Y107069D01*
X18709Y107791D01*
X19431Y108731D01*
X19884Y109825D01*
X19940Y110250D01*
D02*
G37*
G36*
X180600D02*
X176910D01*
X176966Y109825D01*
X177420Y108731D01*
X178141Y107791D01*
X179081Y107069D01*
X180176Y106616D01*
X180600Y106560D01*
Y110250D01*
D02*
G37*
G36*
X15500Y95539D02*
X14325Y95384D01*
X13231Y94931D01*
X12291Y94209D01*
X11569Y93269D01*
X11116Y92175D01*
X10961Y91000D01*
X11116Y89825D01*
X11569Y88731D01*
X12291Y87791D01*
X13231Y87069D01*
X14325Y86616D01*
X15500Y86461D01*
X16675Y86616D01*
X17769Y87069D01*
X18709Y87791D01*
X19431Y88731D01*
X19884Y89825D01*
X20039Y91000D01*
X19884Y92175D01*
X19431Y93269D01*
X18709Y94209D01*
X17769Y94931D01*
X16675Y95384D01*
X15500Y95539D01*
D02*
G37*
G36*
X38250Y89000D02*
X35750D01*
Y86750D01*
X38250D01*
Y89000D01*
D02*
G37*
G36*
X181350Y95539D02*
X180176Y95384D01*
X179081Y94931D01*
X178141Y94209D01*
X177420Y93269D01*
X176966Y92175D01*
X176812Y91000D01*
X176966Y89825D01*
X177420Y88731D01*
X178141Y87791D01*
X179081Y87069D01*
X180176Y86616D01*
X181350Y86461D01*
X182525Y86616D01*
X183620Y87069D01*
X184560Y87791D01*
X185281Y88731D01*
X185735Y89825D01*
X185889Y91000D01*
X185735Y92175D01*
X185281Y93269D01*
X184560Y94209D01*
X183620Y94931D01*
X182525Y95384D01*
X181350Y95539D01*
D02*
G37*
G36*
X167250Y55000D02*
X164750D01*
Y52750D01*
X167250D01*
Y55000D01*
D02*
G37*
G36*
X35750Y11500D02*
X33250D01*
Y9250D01*
X35750D01*
Y11500D01*
D02*
G37*
G36*
X31750D02*
X29250D01*
Y9250D01*
X31750D01*
Y11500D01*
D02*
G37*
G36*
X152750Y10800D02*
X150250D01*
Y8550D01*
X152750D01*
Y10800D01*
D02*
G37*
G36*
X19940Y30250D02*
X16250D01*
Y26560D01*
X16675Y26616D01*
X17769Y27069D01*
X18709Y27791D01*
X19431Y28731D01*
X19884Y29825D01*
X19940Y30250D01*
D02*
G37*
G36*
X14750D02*
X11060D01*
X11116Y29825D01*
X11569Y28731D01*
X12291Y27791D01*
X13231Y27069D01*
X14325Y26616D01*
X14750Y26560D01*
Y30250D01*
D02*
G37*
G36*
X9940D02*
X6250D01*
Y26560D01*
X6675Y26616D01*
X7769Y27069D01*
X8709Y27791D01*
X9431Y28731D01*
X9884Y29825D01*
X9940Y30250D01*
D02*
G37*
G36*
X31750Y7750D02*
X29250D01*
Y5500D01*
X31750D01*
Y7750D01*
D02*
G37*
G36*
X152750Y7050D02*
X150250D01*
Y4800D01*
X152750D01*
Y7050D01*
D02*
G37*
G36*
X148750D02*
X146250D01*
Y4800D01*
X148750D01*
Y7050D01*
D02*
G37*
G36*
Y10800D02*
X146250D01*
Y8550D01*
X148750D01*
Y10800D01*
D02*
G37*
G36*
X42750Y18000D02*
X36250D01*
Y12000D01*
X37461D01*
Y11500D01*
X36250D01*
Y5500D01*
X42750D01*
Y11500D01*
X41539D01*
Y12000D01*
X42750D01*
Y18000D01*
D02*
G37*
G36*
X35750Y7750D02*
X33250D01*
Y5500D01*
X35750D01*
Y7750D01*
D02*
G37*
G36*
X157250Y30994D02*
Y27550D01*
X160694D01*
X160646Y27911D01*
X160217Y28946D01*
X159535Y29835D01*
X158646Y30518D01*
X157611Y30946D01*
X157250Y30994D01*
D02*
G37*
G36*
X163250Y51250D02*
X160750D01*
Y49000D01*
X163250D01*
Y51250D01*
D02*
G37*
G36*
X181350Y55539D02*
X180176Y55384D01*
X179081Y54931D01*
X178141Y54209D01*
X177420Y53269D01*
X176966Y52175D01*
X176812Y51000D01*
X176966Y49825D01*
X177420Y48731D01*
X178141Y47791D01*
X179081Y47069D01*
X180176Y46616D01*
X181350Y46461D01*
X182525Y46616D01*
X183620Y47069D01*
X184560Y47791D01*
X185281Y48731D01*
X185735Y49825D01*
X185889Y51000D01*
X185735Y52175D01*
X185281Y53269D01*
X184560Y54209D01*
X183620Y54931D01*
X182525Y55384D01*
X181350Y55539D01*
D02*
G37*
G36*
X15500D02*
X14325Y55384D01*
X13231Y54931D01*
X12291Y54209D01*
X11569Y53269D01*
X11116Y52175D01*
X10961Y51000D01*
X11116Y49825D01*
X11569Y48731D01*
X12291Y47791D01*
X13231Y47069D01*
X14325Y46616D01*
X15500Y46461D01*
X16675Y46616D01*
X17769Y47069D01*
X18709Y47791D01*
X19431Y48731D01*
X19884Y49825D01*
X20039Y51000D01*
X19884Y52175D01*
X19431Y53269D01*
X18709Y54209D01*
X17769Y54931D01*
X16675Y55384D01*
X15500Y55539D01*
D02*
G37*
G36*
X163250Y55000D02*
X160750D01*
Y52750D01*
X163250D01*
Y55000D01*
D02*
G37*
G36*
X174250Y61500D02*
X167750D01*
Y55500D01*
X168961D01*
Y55000D01*
X167750D01*
Y49000D01*
X174250D01*
Y55000D01*
X173039D01*
Y55500D01*
X174250D01*
Y61500D01*
D02*
G37*
G36*
X167250Y51250D02*
X164750D01*
Y49000D01*
X167250D01*
Y51250D01*
D02*
G37*
G36*
X16250Y35440D02*
Y31750D01*
X19940D01*
X19884Y32175D01*
X19431Y33269D01*
X18709Y34209D01*
X17769Y34931D01*
X16675Y35384D01*
X16250Y35440D01*
D02*
G37*
G36*
X14750D02*
X14325Y35384D01*
X13231Y34931D01*
X12291Y34209D01*
X11569Y33269D01*
X11116Y32175D01*
X11060Y31750D01*
X14750D01*
Y35440D01*
D02*
G37*
G36*
X6250D02*
Y31750D01*
X9940D01*
X9884Y32175D01*
X9431Y33269D01*
X8709Y34209D01*
X7769Y34931D01*
X6675Y35384D01*
X6250Y35440D01*
D02*
G37*
G36*
X181350Y45539D02*
X180176Y45384D01*
X179081Y44931D01*
X178141Y44209D01*
X177420Y43269D01*
X176966Y42175D01*
X176812Y41000D01*
X176966Y39825D01*
X177420Y38731D01*
X178141Y37791D01*
X179081Y37069D01*
X180176Y36616D01*
X181350Y36461D01*
X182525Y36616D01*
X183620Y37069D01*
X184560Y37791D01*
X185281Y38731D01*
X185735Y39825D01*
X185889Y41000D01*
X185735Y42175D01*
X185281Y43269D01*
X184560Y44209D01*
X183620Y44931D01*
X182525Y45384D01*
X181350Y45539D01*
D02*
G37*
G36*
X71512Y37514D02*
X67908D01*
Y35386D01*
X71512D01*
Y37514D01*
D02*
G37*
G36*
X66408D02*
X62803D01*
Y35386D01*
X66408D01*
Y37514D01*
D02*
G37*
G36*
X99750Y162750D02*
X97250D01*
Y160500D01*
X99750D01*
Y162750D01*
D02*
G37*
G36*
X180642Y163421D02*
X177530D01*
Y157750D01*
X180642D01*
Y163421D01*
D02*
G37*
G36*
X176030D02*
X172917D01*
Y157750D01*
X176030D01*
Y163421D01*
D02*
G37*
G36*
X57000Y174039D02*
X55825Y173884D01*
X54731Y173431D01*
X53791Y172709D01*
X53069Y171769D01*
X52616Y170675D01*
X52461Y169500D01*
X52616Y168325D01*
X53069Y167231D01*
X53791Y166291D01*
X54731Y165569D01*
X55825Y165116D01*
X57000Y164961D01*
X58175Y165116D01*
X59269Y165569D01*
X60209Y166291D01*
X60931Y167231D01*
X61384Y168325D01*
X61539Y169500D01*
X61384Y170675D01*
X60931Y171769D01*
X60209Y172709D01*
X59269Y173431D01*
X58175Y173884D01*
X57000Y174039D01*
D02*
G37*
G36*
X37000D02*
X35825Y173884D01*
X34731Y173431D01*
X33791Y172709D01*
X33069Y171769D01*
X32616Y170675D01*
X32461Y169500D01*
X32616Y168325D01*
X33069Y167231D01*
X33791Y166291D01*
X34731Y165569D01*
X35825Y165116D01*
X37000Y164961D01*
X38175Y165116D01*
X39269Y165569D01*
X40209Y166291D01*
X40931Y167231D01*
X41384Y168325D01*
X41539Y169500D01*
X41384Y170675D01*
X40931Y171769D01*
X40209Y172709D01*
X39269Y173431D01*
X38175Y173884D01*
X37000Y174039D01*
D02*
G37*
G36*
X99750Y166500D02*
X97250D01*
Y164250D01*
X99750D01*
Y166500D01*
D02*
G37*
G36*
X180642Y156250D02*
X177530D01*
Y150579D01*
X180642D01*
Y156250D01*
D02*
G37*
G36*
X176030D02*
X172917D01*
Y150579D01*
X176030D01*
Y156250D01*
D02*
G37*
G36*
X97583Y152250D02*
X94471D01*
Y146579D01*
X97583D01*
Y152250D01*
D02*
G37*
G36*
Y159421D02*
X94471D01*
Y153750D01*
X97583D01*
Y159421D01*
D02*
G37*
G36*
X92971D02*
X89858D01*
Y153750D01*
X92971D01*
Y159421D01*
D02*
G37*
G36*
X86500Y166250D02*
X80500D01*
Y159750D01*
X80951D01*
Y159250D01*
X80500D01*
Y152750D01*
X86500D01*
Y159250D01*
X86049D01*
Y159750D01*
X86500D01*
Y166250D01*
D02*
G37*
G36*
X47750Y173940D02*
Y170250D01*
X51440D01*
X51384Y170675D01*
X50931Y171769D01*
X50209Y172709D01*
X49269Y173431D01*
X48175Y173884D01*
X47750Y173940D01*
D02*
G37*
G36*
X46250D02*
X45825Y173884D01*
X44731Y173431D01*
X43791Y172709D01*
X43069Y171769D01*
X42616Y170675D01*
X42560Y170250D01*
X46250D01*
Y173940D01*
D02*
G37*
G36*
X173250Y172000D02*
X170750D01*
Y169750D01*
X173250D01*
Y172000D01*
D02*
G37*
G36*
X99750Y173000D02*
X97250D01*
Y170750D01*
X99750D01*
Y173000D01*
D02*
G37*
G36*
X86500Y173250D02*
X84250D01*
Y170750D01*
X86500D01*
Y173250D01*
D02*
G37*
G36*
X82750D02*
X80500D01*
Y170750D01*
X82750D01*
Y173250D01*
D02*
G37*
G36*
X173250Y168250D02*
X170750D01*
Y166000D01*
X173250D01*
Y168250D01*
D02*
G37*
G36*
X51440Y168750D02*
X47750D01*
Y165060D01*
X48175Y165116D01*
X49269Y165569D01*
X50209Y166291D01*
X50931Y167231D01*
X51384Y168325D01*
X51440Y168750D01*
D02*
G37*
G36*
X46250D02*
X42560D01*
X42616Y168325D01*
X43069Y167231D01*
X43791Y166291D01*
X44731Y165569D01*
X45825Y165116D01*
X46250Y165060D01*
Y168750D01*
D02*
G37*
G36*
X99750Y169250D02*
X97250D01*
Y167000D01*
X99750D01*
Y169250D01*
D02*
G37*
G36*
X86500D02*
X84250D01*
Y166750D01*
X86500D01*
Y169250D01*
D02*
G37*
G36*
X82750D02*
X80500D01*
Y166750D01*
X82750D01*
Y169250D01*
D02*
G37*
G36*
X92971Y152250D02*
X89858D01*
Y146579D01*
X92971D01*
Y152250D01*
D02*
G37*
G36*
X190600Y115440D02*
X190176Y115384D01*
X189081Y114931D01*
X188141Y114209D01*
X187420Y113269D01*
X186966Y112175D01*
X186910Y111750D01*
X190600D01*
Y115440D01*
D02*
G37*
G36*
X182100D02*
Y111750D01*
X185791D01*
X185735Y112175D01*
X185281Y113269D01*
X184560Y114209D01*
X183620Y114931D01*
X182525Y115384D01*
X182100Y115440D01*
D02*
G37*
G36*
X180600D02*
X180176Y115384D01*
X179081Y114931D01*
X178141Y114209D01*
X177420Y113269D01*
X176966Y112175D01*
X176910Y111750D01*
X180600D01*
Y115440D01*
D02*
G37*
G36*
X31468Y117341D02*
X28750D01*
Y114622D01*
X31468D01*
Y117341D01*
D02*
G37*
G36*
X27250D02*
X24532D01*
Y114622D01*
X27250D01*
Y117341D01*
D02*
G37*
G36*
X149750Y114500D02*
X147250D01*
Y112250D01*
X149750D01*
Y114500D01*
D02*
G37*
G36*
Y110750D02*
X147250D01*
Y108500D01*
X149750D01*
Y110750D01*
D02*
G37*
G36*
X145750D02*
X143250D01*
Y108500D01*
X145750D01*
Y110750D01*
D02*
G37*
G36*
X190600Y110250D02*
X186910D01*
X186966Y109825D01*
X187420Y108731D01*
X188141Y107791D01*
X189081Y107069D01*
X190176Y106616D01*
X190600Y106560D01*
Y110250D01*
D02*
G37*
G36*
X16250Y115440D02*
Y111750D01*
X19940D01*
X19884Y112175D01*
X19431Y113269D01*
X18709Y114209D01*
X17769Y114931D01*
X16675Y115384D01*
X16250Y115440D01*
D02*
G37*
G36*
X14750D02*
X14325Y115384D01*
X13231Y114931D01*
X12291Y114209D01*
X11569Y113269D01*
X11116Y112175D01*
X11060Y111750D01*
X14750D01*
Y115440D01*
D02*
G37*
G36*
X6250D02*
Y111750D01*
X9940D01*
X9884Y112175D01*
X9431Y113269D01*
X8709Y114209D01*
X7769Y114931D01*
X6675Y115384D01*
X6250Y115440D01*
D02*
G37*
G36*
X59750Y141750D02*
X57500D01*
Y139250D01*
X59750D01*
Y141750D01*
D02*
G37*
G36*
X56968Y138768D02*
X54250D01*
Y136050D01*
X56968D01*
Y138768D01*
D02*
G37*
G36*
X52750D02*
X50032D01*
Y136050D01*
X52750D01*
Y138768D01*
D02*
G37*
G36*
X143093Y150250D02*
X134468D01*
Y146500D01*
X143093D01*
Y150250D01*
D02*
G37*
G36*
X63500Y145750D02*
X61250D01*
Y143250D01*
X63500D01*
Y145750D01*
D02*
G37*
G36*
X59750D02*
X57500D01*
Y143250D01*
X59750D01*
Y145750D01*
D02*
G37*
G36*
X52750Y134550D02*
X50032D01*
Y131832D01*
X52750D01*
Y134550D01*
D02*
G37*
G36*
X31378D02*
X28659D01*
Y131832D01*
X31378D01*
Y134550D01*
D02*
G37*
G36*
X27159D02*
X24441D01*
Y131832D01*
X27159D01*
Y134550D01*
D02*
G37*
G36*
X31378Y138768D02*
X28659D01*
Y136050D01*
X31378D01*
Y138768D01*
D02*
G37*
G36*
X27159D02*
X24441D01*
Y136050D01*
X27159D01*
Y138768D01*
D02*
G37*
G36*
X56968Y134550D02*
X54250D01*
Y131832D01*
X56968D01*
Y134550D01*
D02*
G37*
%LPD*%
D10*
X127787Y73697D02*
D03*
Y69760D02*
D03*
Y34327D02*
D03*
Y113067D02*
D03*
Y109130D02*
D03*
Y105193D02*
D03*
Y101256D02*
D03*
Y97319D02*
D03*
Y93382D02*
D03*
Y89445D02*
D03*
Y85508D02*
D03*
Y81571D02*
D03*
Y77634D02*
D03*
Y65823D02*
D03*
Y61886D02*
D03*
Y57949D02*
D03*
Y54012D02*
D03*
Y50075D02*
D03*
Y46138D02*
D03*
Y42201D02*
D03*
Y38264D02*
D03*
X67158D02*
D03*
Y42201D02*
D03*
Y46138D02*
D03*
Y50075D02*
D03*
Y54012D02*
D03*
Y57949D02*
D03*
Y61886D02*
D03*
Y65823D02*
D03*
Y69760D02*
D03*
Y73697D02*
D03*
Y77634D02*
D03*
Y81571D02*
D03*
Y85508D02*
D03*
Y89445D02*
D03*
Y93382D02*
D03*
Y97319D02*
D03*
Y101256D02*
D03*
Y105193D02*
D03*
Y109130D02*
D03*
Y113067D02*
D03*
D11*
X164000Y74500D02*
D03*
Y58500D02*
D03*
X46500Y77500D02*
D03*
X53500D02*
D03*
X32500Y8500D02*
D03*
X39500D02*
D03*
X36158Y37200D02*
D03*
X29158Y43200D02*
D03*
X36158D02*
D03*
X39500Y15000D02*
D03*
X32500D02*
D03*
X100500Y163500D02*
D03*
X107500D02*
D03*
X100500Y170000D02*
D03*
X107500D02*
D03*
X170000Y169000D02*
D03*
X163000D02*
D03*
X164000Y52000D02*
D03*
X171000D02*
D03*
X164000Y81000D02*
D03*
X171000D02*
D03*
Y58500D02*
D03*
Y74500D02*
D03*
X149500Y7800D02*
D03*
X156500D02*
D03*
X173500D02*
D03*
X166500D02*
D03*
X42000Y86000D02*
D03*
X35000D02*
D03*
X146500Y111500D02*
D03*
X139500D02*
D03*
X29158Y37200D02*
D03*
D12*
X36158Y30700D02*
D03*
X32417Y21613D02*
D03*
X28677Y30700D02*
D03*
D13*
X93721Y153000D02*
D03*
X107500D02*
D03*
X176779Y157000D02*
D03*
X163000D02*
D03*
D14*
X122843Y160000D02*
D03*
D15*
X143842D02*
D03*
Y169000D02*
D03*
Y151000D02*
D03*
D16*
X42173Y118091D02*
D03*
Y92500D02*
D03*
D17*
X28000Y118091D02*
D03*
Y92500D02*
D03*
D18*
X60500Y149500D02*
D03*
Y142500D02*
D03*
X67000Y149500D02*
D03*
Y142500D02*
D03*
X83500Y149000D02*
D03*
Y156000D02*
D03*
Y170000D02*
D03*
Y163000D02*
D03*
D19*
X27909Y149473D02*
D03*
X53500D02*
D03*
D20*
X27909Y135300D02*
D03*
X53500D02*
D03*
D21*
X139000Y66000D02*
X156000D01*
X153000Y58500D02*
Y66000D01*
Y58500D02*
X164000D01*
X158000Y68000D02*
Y75500D01*
X156000Y66000D02*
X158000Y68000D01*
X135240Y69760D02*
X139000Y66000D01*
X156000Y77500D02*
X158000Y75500D01*
X156000Y77500D02*
Y88000D01*
X158500Y90500D01*
X155500Y105000D02*
X158500Y102000D01*
Y90500D02*
Y102000D01*
X153000Y72500D02*
Y89000D01*
X155500Y91500D02*
Y99000D01*
X153000Y89000D02*
X155500Y91500D01*
X159500Y82500D02*
Y86100D01*
X161000Y74500D02*
X164000D01*
X127787Y69760D02*
X135240D01*
X152500Y72000D02*
X153000Y72500D01*
X137000Y72000D02*
X152500D01*
X135303Y73697D02*
X137000Y72000D01*
X127787Y73697D02*
X135303D01*
X171000Y74500D02*
Y81000D01*
X80500Y97000D02*
X82000Y98500D01*
X71492Y85508D02*
X72500Y84500D01*
X80000Y75100D02*
X93500D01*
X61929Y81571D02*
X65658D01*
X58000Y68000D02*
X59500D01*
X61260Y69760D01*
X42000Y92327D02*
X42173Y92500D01*
X171000Y52000D02*
Y58500D01*
X154500Y143500D02*
X155000Y143000D01*
X152500Y143500D02*
X154500D01*
X165400Y21600D02*
X166500Y20500D01*
X156500Y7800D02*
Y16800D01*
X61260Y69760D02*
X65658D01*
X29000Y43500D02*
Y87500D01*
X37000Y63000D02*
X37500D01*
X21000Y41000D02*
X23200Y43200D01*
X15500Y41000D02*
X21000D01*
X42000Y92673D02*
X42173Y92500D01*
X23200Y43200D02*
X29158D01*
X39500Y8500D02*
Y15000D01*
X32417Y15083D02*
X32500Y15000D01*
X32417Y15083D02*
Y21613D01*
X29000Y87500D02*
X30000Y88500D01*
X36158Y30700D02*
Y43200D01*
X92500Y103000D02*
X94000Y101500D01*
X106100D01*
X107600Y100000D01*
X95500Y106500D02*
X97000Y105000D01*
X109500D01*
X111000Y103500D01*
Y98500D02*
Y103500D01*
X132988Y54012D02*
X135146Y51854D01*
X134551Y57949D02*
X138156Y54344D01*
Y42344D02*
X139500Y41000D01*
X135146Y40954D02*
X137600Y38500D01*
X135146Y40954D02*
Y51854D01*
X138156Y42344D02*
Y54344D01*
X73400Y89100D02*
X75000Y87500D01*
X77500Y77600D02*
Y131100D01*
Y77600D02*
X80000Y75100D01*
X61000Y82500D02*
X61929Y81571D01*
X59500Y82500D02*
X61000D01*
X88700Y88400D02*
X91100Y86000D01*
X111000Y88800D02*
X114000Y91800D01*
X104400Y88800D02*
X111000D01*
X106063Y74463D02*
X108937D01*
X103600Y72000D02*
X106063Y74463D01*
X78000Y72000D02*
X103600D01*
X113500Y86000D02*
X114200Y86700D01*
X91100Y86000D02*
X113500D01*
X92500Y103000D02*
Y111500D01*
X42000Y83500D02*
X43000Y82500D01*
X45500D01*
X42000Y83500D02*
Y118000D01*
X120000Y83500D02*
X122008Y85508D01*
X126287D01*
X67000Y149500D02*
Y169500D01*
X59956Y138455D02*
X60500Y139000D01*
X92500Y116500D02*
Y137000D01*
Y116500D02*
X95500Y113500D01*
Y106500D02*
Y113500D01*
X27909Y149473D02*
X70973D01*
X67158Y65823D02*
X70777D01*
X72900Y126400D02*
X73400Y125900D01*
Y89100D02*
Y125900D01*
Y133400D02*
X75200D01*
X77500Y131100D01*
X80500Y87000D02*
X84000Y83500D01*
X120000D01*
X117500Y130700D02*
X132400D01*
X114000Y127200D02*
X117500Y130700D01*
X114000Y91800D02*
Y127200D01*
X137600Y38500D02*
X146600D01*
X149000Y41000D02*
X151500Y38500D01*
X126287Y57949D02*
X134551D01*
X166500Y7000D02*
Y20500D01*
X153500Y21600D02*
X165400D01*
X139500Y41000D02*
X149000D01*
X126287Y54012D02*
X132988D01*
X151000Y16800D02*
X156500D01*
X146600Y38500D02*
X149000Y36100D01*
Y18800D02*
Y36100D01*
Y18800D02*
X151000Y16800D01*
X151500Y23600D02*
X153500Y21600D01*
X151500Y23600D02*
Y38500D01*
X80500Y94000D02*
Y97000D01*
X82000Y98500D02*
X104600D01*
X159500Y86100D02*
X161000Y87600D01*
X155000Y110500D02*
X161000Y104500D01*
Y87600D02*
Y104500D01*
X155000Y110500D02*
Y143000D01*
X114500Y78000D02*
X116000Y76500D01*
Y61800D02*
Y76500D01*
X108000Y78000D02*
X114500D01*
X74800Y61800D02*
X116000D01*
X70777Y65823D02*
X74800Y61800D01*
X75000Y75000D02*
X78000Y72000D01*
X75000Y75000D02*
Y87500D01*
X84500Y95000D02*
X86800D01*
X84000Y94500D02*
X84500D01*
X86800Y95000D02*
X88700Y93100D01*
Y88400D02*
Y93100D01*
X107600Y96000D02*
X110700Y92900D01*
X107600Y96000D02*
Y100000D01*
X72500Y68300D02*
X72800Y68000D01*
X65658Y85508D02*
X71492D01*
X72500Y68300D02*
Y84500D01*
D22*
X139402Y77598D02*
Y112113D01*
X140500Y76500D02*
X146500D01*
X139402Y77598D02*
X140500Y76500D01*
X54366Y77634D02*
X67158D01*
X47000Y118500D02*
X51500D01*
X130933Y113067D02*
X131200Y112800D01*
X131000Y109000D02*
X131200Y109200D01*
X126287Y109130D02*
X126417D01*
X19000Y129500D02*
X20500Y128000D01*
X19000Y166000D02*
X22500Y169500D01*
X27000D01*
X126287Y109130D02*
X126417Y109000D01*
X19000Y129500D02*
Y166000D01*
X137000Y115500D02*
X139500D01*
X126417Y109000D02*
X131000D01*
X131200Y109200D02*
Y112800D01*
X126287Y113067D02*
X130933D01*
D23*
X48000Y72500D02*
X52000D01*
X44500Y44500D02*
Y69000D01*
X28677Y27177D02*
Y34000D01*
X53500Y74000D02*
Y77500D01*
X52000Y72500D02*
X53500Y74000D01*
X164000Y111000D02*
X181350D01*
X172500Y39000D02*
X175500Y42000D01*
Y83500D01*
X173000Y86000D02*
X175500Y83500D01*
X146200Y7800D02*
X149500D01*
X141000Y126000D02*
X143000D01*
X27500Y145000D02*
X27909Y144591D01*
X93721Y153000D02*
Y162221D01*
X95000Y163500D01*
X100500D01*
Y170000D01*
X47000Y138800D02*
Y146000D01*
X179000Y3000D02*
X180500Y4500D01*
Y10500D01*
X182000Y12000D01*
Y15500D01*
X185000Y18500D01*
Y30000D01*
X181500Y33500D02*
X185000Y30000D01*
X176500Y33500D02*
X181500D01*
X175500Y34500D02*
X176500Y33500D01*
X175500Y34500D02*
Y36000D01*
X172500Y39000D02*
X175500Y36000D01*
X146500Y111500D02*
X150500D01*
X176300Y169000D02*
X176779Y168520D01*
X170000Y169000D02*
X176300D01*
X173500Y7800D02*
Y10500D01*
X176500Y13500D01*
X41500Y28000D02*
Y41500D01*
X44500Y44500D01*
X29754Y26100D02*
X39600D01*
X28677Y27177D02*
X29754Y26100D01*
X39600D02*
X41500Y28000D01*
X44500Y69000D02*
X48000Y72500D01*
X28000Y92500D02*
Y118091D01*
X5500Y111000D02*
X28000D01*
X38000Y77500D02*
X46500D01*
X55750Y124250D02*
X56000Y124500D01*
X126051Y38500D02*
X126287Y38264D01*
X32500Y5000D02*
Y8500D01*
Y5000D02*
X34000Y3500D01*
X44000D01*
X45500Y5000D01*
X15500Y16000D02*
X23000Y8500D01*
X32500D01*
X28677Y36720D02*
X29158Y37200D01*
X133400Y35100D02*
Y37164D01*
X132300Y38264D02*
X133400Y37164D01*
X141500Y46500D02*
X143500Y44500D01*
X171500Y21000D02*
X175700Y16800D01*
X176500D01*
Y13500D02*
Y16800D01*
X171500Y21000D02*
Y30500D01*
X143842Y143157D02*
X150500Y136500D01*
X89000Y153000D02*
X93721D01*
X23000Y157000D02*
X24500Y158500D01*
X23000Y146500D02*
Y157000D01*
Y146500D02*
X24500Y145000D01*
X27500D01*
X24500Y158500D02*
X62500D01*
X59300Y137800D02*
X60500Y139000D01*
Y142500D01*
X140500Y57000D02*
Y62000D01*
X143842Y151000D02*
X154842D01*
X47000Y138800D02*
X48000Y137800D01*
X150500Y111500D02*
Y136500D01*
X143842Y143157D02*
Y151000D01*
X176779Y144621D02*
Y168520D01*
X164000Y42000D02*
X167000Y39000D01*
X172500D01*
X164000Y42000D02*
Y52000D01*
X166000Y34500D02*
X167500D01*
X140500Y57000D02*
X141500Y56000D01*
Y46500D02*
Y56000D01*
X167500Y34500D02*
X171500Y30500D01*
X150500Y44500D02*
X156500Y38500D01*
Y26800D02*
Y38500D01*
X143500Y44500D02*
X150500D01*
X90500Y38264D02*
Y52500D01*
X15500Y16000D02*
Y31000D01*
X5500D02*
X23200D01*
X145100Y55400D02*
Y59000D01*
Y55400D02*
X166000Y34500D01*
X45500Y37400D02*
X46364Y38264D01*
X45500Y5000D02*
Y37400D01*
X46364Y38264D02*
X81736D01*
X149500Y3000D02*
Y7800D01*
X164000Y86000D02*
X173000D01*
X147500Y3000D02*
X179000D01*
X120764Y38264D02*
X132300D01*
X83500Y143500D02*
Y149000D01*
Y156000D02*
Y163000D01*
Y170000D02*
X100500D01*
X33500Y92500D02*
X35000Y91000D01*
X28000Y92500D02*
X33500D01*
X35000Y80500D02*
X38000Y77500D01*
X35000Y80500D02*
Y91000D01*
X164000Y81000D02*
Y111000D01*
X29158Y34480D02*
Y37200D01*
X28677Y34000D02*
X29158Y34480D01*
D24*
X163000Y124300D02*
X166300Y121000D01*
X163000Y124300D02*
Y167400D01*
X166300Y121000D02*
X191350D01*
X161400Y169000D02*
X163000Y167400D01*
X143842Y169000D02*
X161400D01*
D25*
X106000Y111000D02*
X111000Y116000D01*
X121280Y118000D02*
X134000D01*
X119280Y116000D02*
X121280Y118000D01*
X119280Y90720D02*
X121500Y88500D01*
X122000D01*
X119280Y90720D02*
Y116000D01*
X98500Y111000D02*
X106000D01*
D26*
X88500Y102500D02*
Y140500D01*
X131700Y111500D02*
X139500D01*
Y115500D01*
X88500Y140500D02*
X90000Y142000D01*
D27*
X107500Y144000D02*
X108500Y143000D01*
X140500Y117000D02*
Y135500D01*
X107500Y144000D02*
Y153000D01*
X20500Y126000D02*
X53500D01*
X17250Y122750D02*
X20500Y126000D01*
X5500Y121000D02*
X15500D01*
X54000Y126000D02*
X64000D01*
X67500Y129500D01*
Y139000D01*
X70500Y142000D01*
X134000D02*
X140500Y135500D01*
X53500Y126000D02*
X54000Y125500D01*
Y79000D02*
Y126000D01*
X70500Y142000D02*
X134000D01*
D28*
X132250Y160000D02*
D03*
D29*
X112500D02*
D03*
D30*
X153000Y58500D02*
D03*
Y72500D02*
D03*
X52000Y63000D02*
D03*
X37000D02*
D03*
Y169500D02*
D03*
X47000D02*
D03*
X57000D02*
D03*
X67000D02*
D03*
X191350Y121000D02*
D03*
X181350Y111000D02*
D03*
X191350D02*
D03*
X181350Y101000D02*
D03*
X191350D02*
D03*
X181350Y91000D02*
D03*
X191350D02*
D03*
X181350Y81000D02*
D03*
X191350D02*
D03*
X181350Y71000D02*
D03*
X191350D02*
D03*
X181350Y61000D02*
D03*
X191350D02*
D03*
X181350Y51000D02*
D03*
X191350D02*
D03*
X181350Y41000D02*
D03*
X191350D02*
D03*
X15500Y121000D02*
D03*
X5500Y111000D02*
D03*
X15500D02*
D03*
X5500Y101000D02*
D03*
X15500D02*
D03*
X5500Y81000D02*
D03*
X15500D02*
D03*
X5500Y71000D02*
D03*
X15500D02*
D03*
X5500Y61000D02*
D03*
X15500D02*
D03*
X5500Y51000D02*
D03*
X15500D02*
D03*
X5500Y41000D02*
D03*
X15500D02*
D03*
X5500Y31000D02*
D03*
X15500D02*
D03*
X5500Y91000D02*
D03*
X15500D02*
D03*
D31*
X27000Y169500D02*
D03*
D32*
X181350Y121000D02*
D03*
X5500D02*
D03*
D33*
X166500Y16800D02*
D03*
X156500Y26800D02*
D03*
X176500Y16800D02*
D03*
X156500D02*
D03*
X166500Y26800D02*
D03*
X176500D02*
D03*
D34*
X155500Y105000D02*
D03*
X161000Y74500D02*
D03*
X155500Y99000D02*
D03*
X111000Y116000D02*
D03*
X98500Y111000D02*
D03*
X92500Y111500D02*
D03*
X143000Y126000D02*
D03*
X104600Y98500D02*
D03*
X80500Y94000D02*
D03*
Y87000D02*
D03*
X59500Y82500D02*
D03*
X44500Y54500D02*
D03*
X45500Y82500D02*
D03*
X27500Y145000D02*
D03*
X62500Y158500D02*
D03*
X89000Y153000D02*
D03*
X47000Y146000D02*
D03*
X145100Y59000D02*
D03*
X143842Y145000D02*
D03*
X134000Y118000D02*
D03*
X119280Y97220D02*
D03*
X152500Y143500D02*
D03*
X159500Y82500D02*
D03*
X170000Y140000D02*
D03*
X137000Y115500D02*
D03*
X114200Y86700D02*
D03*
X110700Y92900D02*
D03*
X84500Y95000D02*
D03*
X140500Y62000D02*
D03*
X132400Y130700D02*
D03*
X104400Y88800D02*
D03*
X116000Y61800D02*
D03*
X36500Y97500D02*
D03*
X58000Y68000D02*
D03*
X45500Y31000D02*
D03*
X90500Y52500D02*
D03*
X72800Y68000D02*
D03*
X88500Y102500D02*
D03*
X71000Y149500D02*
D03*
X92500Y137000D02*
D03*
X111000Y98500D02*
D03*
X72900Y126400D02*
D03*
X73400Y133400D02*
D03*
X108937Y74463D02*
D03*
X93500Y75100D02*
D03*
X146500Y76500D02*
D03*
X47000Y118500D02*
D03*
X30000Y88500D02*
D03*
X150500Y121500D02*
D03*
X122000Y88500D02*
D03*
X154842Y151000D02*
D03*
X5000Y160000D02*
D03*
Y150000D02*
D03*
Y140000D02*
D03*
Y130000D02*
D03*
Y20000D02*
D03*
X20000D02*
D03*
Y5000D02*
D03*
X190000Y30000D02*
D03*
Y20000D02*
D03*
X180000Y5000D02*
D03*
Y170000D02*
D03*
X190000Y160000D02*
D03*
Y150000D02*
D03*
Y140000D02*
D03*
Y130000D02*
D03*
X180000D02*
D03*
Y140000D02*
D03*
X170000Y130000D02*
D03*
X79000Y160000D02*
D03*
X44000Y162000D02*
D03*
X30000D02*
D03*
X62000Y138000D02*
D03*
X102000Y54000D02*
D03*
X75000Y37500D02*
D03*
X90000D02*
D03*
X105000D02*
D03*
X134000Y63000D02*
D03*
X47000Y5000D02*
D03*
X148000Y13000D02*
D03*
X104500Y136500D02*
D03*
X108000Y78000D02*
D03*
X132500Y167000D02*
D03*
M02*
