%FSLAX25Y25*%
%MOIN*%
G70*
G01*
G75*
G04 Layer_Color=128*
%ADD10R,0.05709X0.02756*%
%ADD11R,0.03500X0.03000*%
%ADD12R,0.02362X0.04299*%
%ADD13R,0.04724X0.09843*%
%ADD14R,0.11811X0.23622*%
%ADD15R,0.15748X0.06000*%
%ADD16R,0.03937X0.03937*%
%ADD17R,0.03937X0.03937*%
%ADD18R,0.03000X0.03500*%
%ADD19R,0.03937X0.03937*%
%ADD20R,0.03937X0.03937*%
%ADD21C,0.01000*%
%ADD22C,0.02500*%
%ADD23C,0.02000*%
%ADD24C,0.06000*%
%ADD25C,0.01500*%
%ADD26C,0.03000*%
%ADD27C,0.05000*%
%ADD28R,0.12500X0.06000*%
%ADD29R,0.14000X0.23000*%
%ADD30C,0.06000*%
%ADD31R,0.06000X0.06000*%
%ADD32R,0.06000X0.06000*%
%ADD33C,0.05512*%
%ADD34C,0.02500*%
%ADD35R,0.07600X0.02400*%
%ADD36O,0.07600X0.02400*%
%ADD37R,0.07087X0.05512*%
%ADD38R,0.04724X0.01181*%
%ADD39R,0.01181X0.04724*%
%ADD40C,0.00500*%
%ADD41C,0.00787*%
%ADD42C,0.00600*%
%ADD43C,0.00800*%
%ADD44R,0.01300X0.11811*%
%ADD45C,0.00400*%
%ADD46C,0.02756*%
%ADD47C,0.00100*%
D11*
X151000Y105000D02*
D03*
X144000D02*
D03*
X151000Y99000D02*
D03*
X144000D02*
D03*
X119000Y134000D02*
D03*
X112000D02*
D03*
X81500Y132000D02*
D03*
X88500D02*
D03*
X81500Y119402D02*
D03*
X88500D02*
D03*
X152500Y134000D02*
D03*
X159500D02*
D03*
X152500Y140000D02*
D03*
X159500D02*
D03*
X138500D02*
D03*
X145500D02*
D03*
X138500Y134000D02*
D03*
X145500D02*
D03*
X79000Y52500D02*
D03*
X86000D02*
D03*
X65000D02*
D03*
X72000D02*
D03*
X65000Y60500D02*
D03*
X72000D02*
D03*
X79000D02*
D03*
X86000D02*
D03*
X58000Y118500D02*
D03*
X51000D02*
D03*
X132500Y112000D02*
D03*
X125500D02*
D03*
D18*
X129000Y127000D02*
D03*
Y120000D02*
D03*
X48500Y108500D02*
D03*
Y101500D02*
D03*
X88500Y91500D02*
D03*
Y98500D02*
D03*
X142500Y69000D02*
D03*
Y76000D02*
D03*
D20*
X123112Y128457D02*
D03*
X111695Y119796D02*
D03*
X123112D02*
D03*
X111695Y128457D02*
D03*
D35*
X57000Y112500D02*
D03*
Y107500D02*
D03*
Y102500D02*
D03*
Y97500D02*
D03*
X79500D02*
D03*
Y102500D02*
D03*
Y107500D02*
D03*
D36*
Y112500D02*
D03*
D37*
X98000Y119402D02*
D03*
Y132000D02*
D03*
D38*
X99094Y97594D02*
D03*
Y95626D02*
D03*
Y93657D02*
D03*
Y91689D02*
D03*
Y89720D02*
D03*
Y87752D02*
D03*
Y85783D02*
D03*
Y83815D02*
D03*
Y81846D02*
D03*
Y79878D02*
D03*
Y77909D02*
D03*
Y75941D02*
D03*
X132559Y75941D02*
D03*
Y77909D02*
D03*
Y79878D02*
D03*
Y81846D02*
D03*
Y83815D02*
D03*
Y85783D02*
D03*
Y87752D02*
D03*
Y89720D02*
D03*
Y91689D02*
D03*
Y93657D02*
D03*
Y95626D02*
D03*
Y97594D02*
D03*
D39*
X105000Y70035D02*
D03*
X106968D02*
D03*
X108937D02*
D03*
X110906D02*
D03*
X112874D02*
D03*
X114842D02*
D03*
X116811D02*
D03*
X118780D02*
D03*
X120748D02*
D03*
X122716D02*
D03*
X124685D02*
D03*
X126654D02*
D03*
Y103500D02*
D03*
X124685D02*
D03*
X122716D02*
D03*
X120748D02*
D03*
X118780D02*
D03*
X116811D02*
D03*
X114842D02*
D03*
X112874D02*
D03*
X110906D02*
D03*
X108937D02*
D03*
X106968D02*
D03*
X105000D02*
D03*
M02*
