%FSLAX25Y25*%
%MOIN*%
G70*
G01*
G75*
G04 Layer_Color=8421504*
%ADD10R,0.05709X0.02756*%
%ADD11R,0.03500X0.03000*%
%ADD12R,0.02362X0.04299*%
%ADD13R,0.04724X0.09843*%
%ADD14R,0.11811X0.23622*%
%ADD15R,0.15748X0.06000*%
%ADD16R,0.03937X0.03937*%
%ADD17R,0.03937X0.03937*%
%ADD18R,0.03000X0.03500*%
%ADD19R,0.03937X0.03937*%
%ADD20R,0.03937X0.03937*%
%ADD21C,0.01000*%
%ADD22C,0.02500*%
%ADD23C,0.02000*%
%ADD24C,0.06000*%
%ADD25C,0.01500*%
%ADD26C,0.03000*%
%ADD27C,0.05000*%
%ADD28R,0.12500X0.06000*%
%ADD29R,0.14000X0.23000*%
%ADD30C,0.06000*%
%ADD31R,0.06000X0.06000*%
%ADD32R,0.06000X0.06000*%
%ADD33C,0.05512*%
%ADD34C,0.02500*%
%ADD35R,0.07600X0.02400*%
%ADD36O,0.07600X0.02400*%
%ADD37R,0.07087X0.05512*%
%ADD38R,0.04724X0.01181*%
%ADD39R,0.01181X0.04724*%
%ADD40C,0.00500*%
%ADD41C,0.00787*%
%ADD42C,0.00600*%
%ADD43C,0.00800*%
%ADD44R,0.01300X0.11811*%
%ADD45C,0.00400*%
%ADD46C,0.02756*%
%ADD47C,0.00100*%
D10*
X127787Y73697D02*
D03*
Y69760D02*
D03*
Y34327D02*
D03*
Y113067D02*
D03*
Y109130D02*
D03*
Y105193D02*
D03*
Y101256D02*
D03*
Y97319D02*
D03*
Y93382D02*
D03*
Y89445D02*
D03*
Y85508D02*
D03*
Y81571D02*
D03*
Y77634D02*
D03*
Y65823D02*
D03*
Y61886D02*
D03*
Y57949D02*
D03*
Y54012D02*
D03*
Y50075D02*
D03*
Y46138D02*
D03*
Y42201D02*
D03*
Y38264D02*
D03*
X67158D02*
D03*
Y42201D02*
D03*
Y46138D02*
D03*
Y50075D02*
D03*
Y54012D02*
D03*
Y57949D02*
D03*
Y61886D02*
D03*
Y65823D02*
D03*
Y69760D02*
D03*
Y73697D02*
D03*
Y77634D02*
D03*
Y81571D02*
D03*
Y85508D02*
D03*
Y89445D02*
D03*
Y93382D02*
D03*
Y97319D02*
D03*
Y101256D02*
D03*
Y105193D02*
D03*
Y109130D02*
D03*
Y113067D02*
D03*
D11*
X164000Y74500D02*
D03*
Y58500D02*
D03*
X46500Y77500D02*
D03*
X53500D02*
D03*
X32500Y8500D02*
D03*
X39500D02*
D03*
X36158Y37200D02*
D03*
X29158Y43200D02*
D03*
X36158D02*
D03*
X39500Y15000D02*
D03*
X32500D02*
D03*
X100500Y163500D02*
D03*
X107500D02*
D03*
X100500Y170000D02*
D03*
X107500D02*
D03*
X170000Y169000D02*
D03*
X163000D02*
D03*
X164000Y52000D02*
D03*
X171000D02*
D03*
X164000Y81000D02*
D03*
X171000D02*
D03*
Y58500D02*
D03*
Y74500D02*
D03*
X149500Y7800D02*
D03*
X156500D02*
D03*
X173500D02*
D03*
X166500D02*
D03*
X42000Y86000D02*
D03*
X35000D02*
D03*
X146500Y111500D02*
D03*
X139500D02*
D03*
X29158Y37200D02*
D03*
D12*
X36158Y30700D02*
D03*
X32417Y21613D02*
D03*
X28677Y30700D02*
D03*
D13*
X93721Y153000D02*
D03*
X107500D02*
D03*
X176779Y157000D02*
D03*
X163000D02*
D03*
D14*
X122843Y160000D02*
D03*
D15*
X143842D02*
D03*
Y169000D02*
D03*
Y151000D02*
D03*
D16*
X42173Y118091D02*
D03*
Y92500D02*
D03*
D17*
X28000Y118091D02*
D03*
Y92500D02*
D03*
D18*
X60500Y149500D02*
D03*
Y142500D02*
D03*
X67000Y149500D02*
D03*
Y142500D02*
D03*
X83500Y149000D02*
D03*
Y156000D02*
D03*
Y170000D02*
D03*
Y163000D02*
D03*
D19*
X27909Y149473D02*
D03*
X53500D02*
D03*
D20*
X27909Y135300D02*
D03*
X53500D02*
D03*
M02*
