%FSLAX25Y25*%
%MOIN*%
G70*
G01*
G75*
G04 Layer_Color=2752767*
%ADD10C,0.00800*%
%ADD11C,0.00600*%
%ADD12C,0.00667*%
D10*
X0Y7874D02*
G03*
X7874Y-0I7874J0D01*
G01*
X188976D02*
G03*
X196850Y7874I0J7874D01*
G01*
X7874Y177165D02*
G03*
X0Y169291I0J-7874D01*
G01*
X196850Y169291D02*
G03*
X188976Y177165I-7874J0D01*
G01*
X7874Y-0D02*
X188976D01*
X196850Y7874D02*
Y169291D01*
X7874Y177165D02*
X188976D01*
X0Y7874D02*
Y169291D01*
D11*
X193701Y7874D02*
G03*
X193701Y7874I-4724J0D01*
G01*
X12598Y169291D02*
G03*
X12598Y169291I-4724J0D01*
G01*
X193701Y169291D02*
G03*
X193701Y169291I-4724J0D01*
G01*
X12598Y7874D02*
G03*
X12598Y7874I-4724J0D01*
G01*
X151000Y56500D02*
Y60500D01*
X155000D01*
Y56500D01*
X151000D01*
Y70500D02*
Y74500D01*
X155000D01*
Y70500D01*
X151000D01*
X50000Y61000D02*
Y65000D01*
X54000D01*
Y61000D01*
X50000D01*
X35000D02*
Y65000D01*
X39000D01*
Y61000D01*
X35000D01*
X166500Y14800D02*
X164500Y18800D01*
X168500D01*
X166500Y14800D01*
X156500Y24800D02*
X154500Y28800D01*
X158500D01*
X156500Y24800D01*
X176500Y14800D02*
X174500Y18800D01*
X178500D01*
X176500Y14800D01*
X156500D02*
X154500Y18800D01*
X158500D01*
X156500Y14800D01*
X166500Y24800D02*
X164500Y28800D01*
X168500D01*
X166500Y24800D01*
X176500D02*
X174500Y28800D01*
X178500D01*
X176500Y24800D01*
X155500Y103000D02*
X156500Y104000D01*
X157500D01*
X156500Y105000D01*
X157500Y106000D01*
X156500D01*
X155500Y107000D01*
X154500Y106000D01*
X153500D01*
X154500Y105000D01*
X153500Y104000D01*
X154500D01*
X155500Y103000D01*
X161000Y72500D02*
X162000Y73500D01*
X163000D01*
X162000Y74500D01*
X163000Y75500D01*
X162000D01*
X161000Y76500D01*
X160000Y75500D01*
X159000D01*
X160000Y74500D01*
X159000Y73500D01*
X160000D01*
X161000Y72500D01*
X155500Y97000D02*
X156500Y98000D01*
X157500D01*
X156500Y99000D01*
X157500Y100000D01*
X156500D01*
X155500Y101000D01*
X154500Y100000D01*
X153500D01*
X154500Y99000D01*
X153500Y98000D01*
X154500D01*
X155500Y97000D01*
X111000Y114000D02*
X112000Y115000D01*
X113000D01*
X112000Y116000D01*
X113000Y117000D01*
X112000D01*
X111000Y118000D01*
X110000Y117000D01*
X109000D01*
X110000Y116000D01*
X109000Y115000D01*
X110000D01*
X111000Y114000D01*
X98500Y109000D02*
X99500Y110000D01*
X100500D01*
X99500Y111000D01*
X100500Y112000D01*
X99500D01*
X98500Y113000D01*
X97500Y112000D01*
X96500D01*
X97500Y111000D01*
X96500Y110000D01*
X97500D01*
X98500Y109000D01*
X92500Y109500D02*
X93500Y110500D01*
X94500D01*
X93500Y111500D01*
X94500Y112500D01*
X93500D01*
X92500Y113500D01*
X91500Y112500D01*
X90500D01*
X91500Y111500D01*
X90500Y110500D01*
X91500D01*
X92500Y109500D01*
X143000Y124000D02*
X144000Y125000D01*
X145000D01*
X144000Y126000D01*
X145000Y127000D01*
X144000D01*
X143000Y128000D01*
X142000Y127000D01*
X141000D01*
X142000Y126000D01*
X141000Y125000D01*
X142000D01*
X143000Y124000D01*
X104600Y96500D02*
X105600Y97500D01*
X106600D01*
X105600Y98500D01*
X106600Y99500D01*
X105600D01*
X104600Y100500D01*
X103600Y99500D01*
X102600D01*
X103600Y98500D01*
X102600Y97500D01*
X103600D01*
X104600Y96500D01*
X80500Y92000D02*
X81500Y93000D01*
X82500D01*
X81500Y94000D01*
X82500Y95000D01*
X81500D01*
X80500Y96000D01*
X79500Y95000D01*
X78500D01*
X79500Y94000D01*
X78500Y93000D01*
X79500D01*
X80500Y92000D01*
Y85000D02*
X81500Y86000D01*
X82500D01*
X81500Y87000D01*
X82500Y88000D01*
X81500D01*
X80500Y89000D01*
X79500Y88000D01*
X78500D01*
X79500Y87000D01*
X78500Y86000D01*
X79500D01*
X80500Y85000D01*
X59500Y80500D02*
X60500Y81500D01*
X61500D01*
X60500Y82500D01*
X61500Y83500D01*
X60500D01*
X59500Y84500D01*
X58500Y83500D01*
X57500D01*
X58500Y82500D01*
X57500Y81500D01*
X58500D01*
X59500Y80500D01*
X44500Y52500D02*
X45500Y53500D01*
X46500D01*
X45500Y54500D01*
X46500Y55500D01*
X45500D01*
X44500Y56500D01*
X43500Y55500D01*
X42500D01*
X43500Y54500D01*
X42500Y53500D01*
X43500D01*
X44500Y52500D01*
X45500Y80500D02*
X46500Y81500D01*
X47500D01*
X46500Y82500D01*
X47500Y83500D01*
X46500D01*
X45500Y84500D01*
X44500Y83500D01*
X43500D01*
X44500Y82500D01*
X43500Y81500D01*
X44500D01*
X45500Y80500D01*
X27500Y143000D02*
X28500Y144000D01*
X29500D01*
X28500Y145000D01*
X29500Y146000D01*
X28500D01*
X27500Y147000D01*
X26500Y146000D01*
X25500D01*
X26500Y145000D01*
X25500Y144000D01*
X26500D01*
X27500Y143000D01*
X62500Y156500D02*
X63500Y157500D01*
X64500D01*
X63500Y158500D01*
X64500Y159500D01*
X63500D01*
X62500Y160500D01*
X61500Y159500D01*
X60500D01*
X61500Y158500D01*
X60500Y157500D01*
X61500D01*
X62500Y156500D01*
X89000Y151000D02*
X90000Y152000D01*
X91000D01*
X90000Y153000D01*
X91000Y154000D01*
X90000D01*
X89000Y155000D01*
X88000Y154000D01*
X87000D01*
X88000Y153000D01*
X87000Y152000D01*
X88000D01*
X89000Y151000D01*
X47000Y144000D02*
X48000Y145000D01*
X49000D01*
X48000Y146000D01*
X49000Y147000D01*
X48000D01*
X47000Y148000D01*
X46000Y147000D01*
X45000D01*
X46000Y146000D01*
X45000Y145000D01*
X46000D01*
X47000Y144000D01*
X145100Y57000D02*
X146100Y58000D01*
X147100D01*
X146100Y59000D01*
X147100Y60000D01*
X146100D01*
X145100Y61000D01*
X144100Y60000D01*
X143100D01*
X144100Y59000D01*
X143100Y58000D01*
X144100D01*
X145100Y57000D01*
X143842Y143000D02*
X144843Y144000D01*
X145843D01*
X144843Y145000D01*
X145843Y146000D01*
X144843D01*
X143842Y147000D01*
X142842Y146000D01*
X141842D01*
X142842Y145000D01*
X141842Y144000D01*
X142842D01*
X143842Y143000D01*
X134000Y116000D02*
X135000Y117000D01*
X136000D01*
X135000Y118000D01*
X136000Y119000D01*
X135000D01*
X134000Y120000D01*
X133000Y119000D01*
X132000D01*
X133000Y118000D01*
X132000Y117000D01*
X133000D01*
X134000Y116000D01*
X119280Y95221D02*
X120280Y96220D01*
X121280D01*
X120280Y97220D01*
X121280Y98220D01*
X120280D01*
X119280Y99221D01*
X118280Y98220D01*
X117280D01*
X118280Y97220D01*
X117280Y96220D01*
X118280D01*
X119280Y95221D01*
X152500Y141500D02*
X153500Y142500D01*
X154500D01*
X153500Y143500D01*
X154500Y144500D01*
X153500D01*
X152500Y145500D01*
X151500Y144500D01*
X150500D01*
X151500Y143500D01*
X150500Y142500D01*
X151500D01*
X152500Y141500D01*
X159500Y80500D02*
X160500Y81500D01*
X161500D01*
X160500Y82500D01*
X161500Y83500D01*
X160500D01*
X159500Y84500D01*
X158500Y83500D01*
X157500D01*
X158500Y82500D01*
X157500Y81500D01*
X158500D01*
X159500Y80500D01*
X170000Y138000D02*
X171000Y139000D01*
X172000D01*
X171000Y140000D01*
X172000Y141000D01*
X171000D01*
X170000Y142000D01*
X169000Y141000D01*
X168000D01*
X169000Y140000D01*
X168000Y139000D01*
X169000D01*
X170000Y138000D01*
X137000Y113500D02*
X138000Y114500D01*
X139000D01*
X138000Y115500D01*
X139000Y116500D01*
X138000D01*
X137000Y117500D01*
X136000Y116500D01*
X135000D01*
X136000Y115500D01*
X135000Y114500D01*
X136000D01*
X137000Y113500D01*
X114200Y84700D02*
X115200Y85700D01*
X116200D01*
X115200Y86700D01*
X116200Y87700D01*
X115200D01*
X114200Y88700D01*
X113200Y87700D01*
X112200D01*
X113200Y86700D01*
X112200Y85700D01*
X113200D01*
X114200Y84700D01*
X110700Y90900D02*
X111700Y91900D01*
X112700D01*
X111700Y92900D01*
X112700Y93900D01*
X111700D01*
X110700Y94900D01*
X109700Y93900D01*
X108700D01*
X109700Y92900D01*
X108700Y91900D01*
X109700D01*
X110700Y90900D01*
X84500Y93000D02*
X85500Y94000D01*
X86500D01*
X85500Y95000D01*
X86500Y96000D01*
X85500D01*
X84500Y97000D01*
X83500Y96000D01*
X82500D01*
X83500Y95000D01*
X82500Y94000D01*
X83500D01*
X84500Y93000D01*
X140500Y60000D02*
X141500Y61000D01*
X142500D01*
X141500Y62000D01*
X142500Y63000D01*
X141500D01*
X140500Y64000D01*
X139500Y63000D01*
X138500D01*
X139500Y62000D01*
X138500Y61000D01*
X139500D01*
X140500Y60000D01*
X132400Y128700D02*
X133400Y129700D01*
X134400D01*
X133400Y130700D01*
X134400Y131700D01*
X133400D01*
X132400Y132700D01*
X131400Y131700D01*
X130400D01*
X131400Y130700D01*
X130400Y129700D01*
X131400D01*
X132400Y128700D01*
X104400Y86800D02*
X105400Y87800D01*
X106400D01*
X105400Y88800D01*
X106400Y89800D01*
X105400D01*
X104400Y90800D01*
X103400Y89800D01*
X102400D01*
X103400Y88800D01*
X102400Y87800D01*
X103400D01*
X104400Y86800D01*
X116000Y59800D02*
X117000Y60800D01*
X118000D01*
X117000Y61800D01*
X118000Y62800D01*
X117000D01*
X116000Y63800D01*
X115000Y62800D01*
X114000D01*
X115000Y61800D01*
X114000Y60800D01*
X115000D01*
X116000Y59800D01*
X36500Y95500D02*
X37500Y96500D01*
X38500D01*
X37500Y97500D01*
X38500Y98500D01*
X37500D01*
X36500Y99500D01*
X35500Y98500D01*
X34500D01*
X35500Y97500D01*
X34500Y96500D01*
X35500D01*
X36500Y95500D01*
X58000Y66000D02*
X59000Y67000D01*
X60000D01*
X59000Y68000D01*
X60000Y69000D01*
X59000D01*
X58000Y70000D01*
X57000Y69000D01*
X56000D01*
X57000Y68000D01*
X56000Y67000D01*
X57000D01*
X58000Y66000D01*
X45500Y29000D02*
X46500Y30000D01*
X47500D01*
X46500Y31000D01*
X47500Y32000D01*
X46500D01*
X45500Y33000D01*
X44500Y32000D01*
X43500D01*
X44500Y31000D01*
X43500Y30000D01*
X44500D01*
X45500Y29000D01*
X90500Y50500D02*
X91500Y51500D01*
X92500D01*
X91500Y52500D01*
X92500Y53500D01*
X91500D01*
X90500Y54500D01*
X89500Y53500D01*
X88500D01*
X89500Y52500D01*
X88500Y51500D01*
X89500D01*
X90500Y50500D01*
X72800Y66000D02*
X73800Y67000D01*
X74800D01*
X73800Y68000D01*
X74800Y69000D01*
X73800D01*
X72800Y70000D01*
X71800Y69000D01*
X70800D01*
X71800Y68000D01*
X70800Y67000D01*
X71800D01*
X72800Y66000D01*
X88500Y100500D02*
X89500Y101500D01*
X90500D01*
X89500Y102500D01*
X90500Y103500D01*
X89500D01*
X88500Y104500D01*
X87500Y103500D01*
X86500D01*
X87500Y102500D01*
X86500Y101500D01*
X87500D01*
X88500Y100500D01*
X71000Y147500D02*
X72000Y148500D01*
X73000D01*
X72000Y149500D01*
X73000Y150500D01*
X72000D01*
X71000Y151500D01*
X70000Y150500D01*
X69000D01*
X70000Y149500D01*
X69000Y148500D01*
X70000D01*
X71000Y147500D01*
X92500Y135000D02*
X93500Y136000D01*
X94500D01*
X93500Y137000D01*
X94500Y138000D01*
X93500D01*
X92500Y139000D01*
X91500Y138000D01*
X90500D01*
X91500Y137000D01*
X90500Y136000D01*
X91500D01*
X92500Y135000D01*
X111000Y96500D02*
X112000Y97500D01*
X113000D01*
X112000Y98500D01*
X113000Y99500D01*
X112000D01*
X111000Y100500D01*
X110000Y99500D01*
X109000D01*
X110000Y98500D01*
X109000Y97500D01*
X110000D01*
X111000Y96500D01*
X72900Y124400D02*
X73900Y125400D01*
X74900D01*
X73900Y126400D01*
X74900Y127400D01*
X73900D01*
X72900Y128400D01*
X71900Y127400D01*
X70900D01*
X71900Y126400D01*
X70900Y125400D01*
X71900D01*
X72900Y124400D01*
X73400Y131400D02*
X74400Y132400D01*
X75400D01*
X74400Y133400D01*
X75400Y134400D01*
X74400D01*
X73400Y135400D01*
X72400Y134400D01*
X71400D01*
X72400Y133400D01*
X71400Y132400D01*
X72400D01*
X73400Y131400D01*
X108937Y72463D02*
X109937Y73463D01*
X110937D01*
X109937Y74463D01*
X110937Y75463D01*
X109937D01*
X108937Y76463D01*
X107937Y75463D01*
X106937D01*
X107937Y74463D01*
X106937Y73463D01*
X107937D01*
X108937Y72463D01*
X93500Y73100D02*
X94500Y74100D01*
X95500D01*
X94500Y75100D01*
X95500Y76100D01*
X94500D01*
X93500Y77100D01*
X92500Y76100D01*
X91500D01*
X92500Y75100D01*
X91500Y74100D01*
X92500D01*
X93500Y73100D01*
X146500Y74500D02*
X147500Y75500D01*
X148500D01*
X147500Y76500D01*
X148500Y77500D01*
X147500D01*
X146500Y78500D01*
X145500Y77500D01*
X144500D01*
X145500Y76500D01*
X144500Y75500D01*
X145500D01*
X146500Y74500D01*
X47000Y116500D02*
X48000Y117500D01*
X49000D01*
X48000Y118500D01*
X49000Y119500D01*
X48000D01*
X47000Y120500D01*
X46000Y119500D01*
X45000D01*
X46000Y118500D01*
X45000Y117500D01*
X46000D01*
X47000Y116500D01*
X30000Y86500D02*
X31000Y87500D01*
X32000D01*
X31000Y88500D01*
X32000Y89500D01*
X31000D01*
X30000Y90500D01*
X29000Y89500D01*
X28000D01*
X29000Y88500D01*
X28000Y87500D01*
X29000D01*
X30000Y86500D01*
X150500Y119500D02*
X151500Y120500D01*
X152500D01*
X151500Y121500D01*
X152500Y122500D01*
X151500D01*
X150500Y123500D01*
X149500Y122500D01*
X148500D01*
X149500Y121500D01*
X148500Y120500D01*
X149500D01*
X150500Y119500D01*
X122000Y86500D02*
X123000Y87500D01*
X124000D01*
X123000Y88500D01*
X124000Y89500D01*
X123000D01*
X122000Y90500D01*
X121000Y89500D01*
X120000D01*
X121000Y88500D01*
X120000Y87500D01*
X121000D01*
X122000Y86500D01*
X154842Y149000D02*
X155842Y150000D01*
X156843D01*
X155842Y151000D01*
X156843Y152000D01*
X155842D01*
X154842Y153000D01*
X153842Y152000D01*
X152842D01*
X153842Y151000D01*
X152842Y150000D01*
X153842D01*
X154842Y149000D01*
X5000Y158000D02*
X6000Y159000D01*
X7000D01*
X6000Y160000D01*
X7000Y161000D01*
X6000D01*
X5000Y162000D01*
X4000Y161000D01*
X3000D01*
X4000Y160000D01*
X3000Y159000D01*
X4000D01*
X5000Y158000D01*
Y148000D02*
X6000Y149000D01*
X7000D01*
X6000Y150000D01*
X7000Y151000D01*
X6000D01*
X5000Y152000D01*
X4000Y151000D01*
X3000D01*
X4000Y150000D01*
X3000Y149000D01*
X4000D01*
X5000Y148000D01*
Y138000D02*
X6000Y139000D01*
X7000D01*
X6000Y140000D01*
X7000Y141000D01*
X6000D01*
X5000Y142000D01*
X4000Y141000D01*
X3000D01*
X4000Y140000D01*
X3000Y139000D01*
X4000D01*
X5000Y138000D01*
Y128000D02*
X6000Y129000D01*
X7000D01*
X6000Y130000D01*
X7000Y131000D01*
X6000D01*
X5000Y132000D01*
X4000Y131000D01*
X3000D01*
X4000Y130000D01*
X3000Y129000D01*
X4000D01*
X5000Y128000D01*
Y18000D02*
X6000Y19000D01*
X7000D01*
X6000Y20000D01*
X7000Y21000D01*
X6000D01*
X5000Y22000D01*
X4000Y21000D01*
X3000D01*
X4000Y20000D01*
X3000Y19000D01*
X4000D01*
X5000Y18000D01*
X20000D02*
X21000Y19000D01*
X22000D01*
X21000Y20000D01*
X22000Y21000D01*
X21000D01*
X20000Y22000D01*
X19000Y21000D01*
X18000D01*
X19000Y20000D01*
X18000Y19000D01*
X19000D01*
X20000Y18000D01*
Y3000D02*
X21000Y4000D01*
X22000D01*
X21000Y5000D01*
X22000Y6000D01*
X21000D01*
X20000Y7000D01*
X19000Y6000D01*
X18000D01*
X19000Y5000D01*
X18000Y4000D01*
X19000D01*
X20000Y3000D01*
X190000Y28000D02*
X191000Y29000D01*
X192000D01*
X191000Y30000D01*
X192000Y31000D01*
X191000D01*
X190000Y32000D01*
X189000Y31000D01*
X188000D01*
X189000Y30000D01*
X188000Y29000D01*
X189000D01*
X190000Y28000D01*
Y18000D02*
X191000Y19000D01*
X192000D01*
X191000Y20000D01*
X192000Y21000D01*
X191000D01*
X190000Y22000D01*
X189000Y21000D01*
X188000D01*
X189000Y20000D01*
X188000Y19000D01*
X189000D01*
X190000Y18000D01*
X180000Y3000D02*
X181000Y4000D01*
X182000D01*
X181000Y5000D01*
X182000Y6000D01*
X181000D01*
X180000Y7000D01*
X179000Y6000D01*
X178000D01*
X179000Y5000D01*
X178000Y4000D01*
X179000D01*
X180000Y3000D01*
Y168000D02*
X181000Y169000D01*
X182000D01*
X181000Y170000D01*
X182000Y171000D01*
X181000D01*
X180000Y172000D01*
X179000Y171000D01*
X178000D01*
X179000Y170000D01*
X178000Y169000D01*
X179000D01*
X180000Y168000D01*
X190000Y158000D02*
X191000Y159000D01*
X192000D01*
X191000Y160000D01*
X192000Y161000D01*
X191000D01*
X190000Y162000D01*
X189000Y161000D01*
X188000D01*
X189000Y160000D01*
X188000Y159000D01*
X189000D01*
X190000Y158000D01*
Y148000D02*
X191000Y149000D01*
X192000D01*
X191000Y150000D01*
X192000Y151000D01*
X191000D01*
X190000Y152000D01*
X189000Y151000D01*
X188000D01*
X189000Y150000D01*
X188000Y149000D01*
X189000D01*
X190000Y148000D01*
Y138000D02*
X191000Y139000D01*
X192000D01*
X191000Y140000D01*
X192000Y141000D01*
X191000D01*
X190000Y142000D01*
X189000Y141000D01*
X188000D01*
X189000Y140000D01*
X188000Y139000D01*
X189000D01*
X190000Y138000D01*
Y128000D02*
X191000Y129000D01*
X192000D01*
X191000Y130000D01*
X192000Y131000D01*
X191000D01*
X190000Y132000D01*
X189000Y131000D01*
X188000D01*
X189000Y130000D01*
X188000Y129000D01*
X189000D01*
X190000Y128000D01*
X180000D02*
X181000Y129000D01*
X182000D01*
X181000Y130000D01*
X182000Y131000D01*
X181000D01*
X180000Y132000D01*
X179000Y131000D01*
X178000D01*
X179000Y130000D01*
X178000Y129000D01*
X179000D01*
X180000Y128000D01*
Y138000D02*
X181000Y139000D01*
X182000D01*
X181000Y140000D01*
X182000Y141000D01*
X181000D01*
X180000Y142000D01*
X179000Y141000D01*
X178000D01*
X179000Y140000D01*
X178000Y139000D01*
X179000D01*
X180000Y138000D01*
X170000Y128000D02*
X171000Y129000D01*
X172000D01*
X171000Y130000D01*
X172000Y131000D01*
X171000D01*
X170000Y132000D01*
X169000Y131000D01*
X168000D01*
X169000Y130000D01*
X168000Y129000D01*
X169000D01*
X170000Y128000D01*
X79000Y158000D02*
X80000Y159000D01*
X81000D01*
X80000Y160000D01*
X81000Y161000D01*
X80000D01*
X79000Y162000D01*
X78000Y161000D01*
X77000D01*
X78000Y160000D01*
X77000Y159000D01*
X78000D01*
X79000Y158000D01*
X44000Y160000D02*
X45000Y161000D01*
X46000D01*
X45000Y162000D01*
X46000Y163000D01*
X45000D01*
X44000Y164000D01*
X43000Y163000D01*
X42000D01*
X43000Y162000D01*
X42000Y161000D01*
X43000D01*
X44000Y160000D01*
X30000D02*
X31000Y161000D01*
X32000D01*
X31000Y162000D01*
X32000Y163000D01*
X31000D01*
X30000Y164000D01*
X29000Y163000D01*
X28000D01*
X29000Y162000D01*
X28000Y161000D01*
X29000D01*
X30000Y160000D01*
X62000Y136000D02*
X63000Y137000D01*
X64000D01*
X63000Y138000D01*
X64000Y139000D01*
X63000D01*
X62000Y140000D01*
X61000Y139000D01*
X60000D01*
X61000Y138000D01*
X60000Y137000D01*
X61000D01*
X62000Y136000D01*
X102000Y52000D02*
X103000Y53000D01*
X104000D01*
X103000Y54000D01*
X104000Y55000D01*
X103000D01*
X102000Y56000D01*
X101000Y55000D01*
X100000D01*
X101000Y54000D01*
X100000Y53000D01*
X101000D01*
X102000Y52000D01*
X75000Y35500D02*
X76000Y36500D01*
X77000D01*
X76000Y37500D01*
X77000Y38500D01*
X76000D01*
X75000Y39500D01*
X74000Y38500D01*
X73000D01*
X74000Y37500D01*
X73000Y36500D01*
X74000D01*
X75000Y35500D01*
X90000D02*
X91000Y36500D01*
X92000D01*
X91000Y37500D01*
X92000Y38500D01*
X91000D01*
X90000Y39500D01*
X89000Y38500D01*
X88000D01*
X89000Y37500D01*
X88000Y36500D01*
X89000D01*
X90000Y35500D01*
X105000D02*
X106000Y36500D01*
X107000D01*
X106000Y37500D01*
X107000Y38500D01*
X106000D01*
X105000Y39500D01*
X104000Y38500D01*
X103000D01*
X104000Y37500D01*
X103000Y36500D01*
X104000D01*
X105000Y35500D01*
X134000Y61000D02*
X135000Y62000D01*
X136000D01*
X135000Y63000D01*
X136000Y64000D01*
X135000D01*
X134000Y65000D01*
X133000Y64000D01*
X132000D01*
X133000Y63000D01*
X132000Y62000D01*
X133000D01*
X134000Y61000D01*
X47000Y3000D02*
X48000Y4000D01*
X49000D01*
X48000Y5000D01*
X49000Y6000D01*
X48000D01*
X47000Y7000D01*
X46000Y6000D01*
X45000D01*
X46000Y5000D01*
X45000Y4000D01*
X46000D01*
X47000Y3000D01*
X148000Y11000D02*
X149000Y12000D01*
X150000D01*
X149000Y13000D01*
X150000Y14000D01*
X149000D01*
X148000Y15000D01*
X147000Y14000D01*
X146000D01*
X147000Y13000D01*
X146000Y12000D01*
X147000D01*
X148000Y11000D01*
X104500Y134500D02*
X105500Y135500D01*
X106500D01*
X105500Y136500D01*
X106500Y137500D01*
X105500D01*
X104500Y138500D01*
X103500Y137500D01*
X102500D01*
X103500Y136500D01*
X102500Y135500D01*
X103500D01*
X104500Y134500D01*
X108000Y76000D02*
X109000Y77000D01*
X110000D01*
X109000Y78000D01*
X110000Y79000D01*
X109000D01*
X108000Y80000D01*
X107000Y79000D01*
X106000D01*
X107000Y78000D01*
X106000Y77000D01*
X107000D01*
X108000Y76000D01*
X132500Y165000D02*
X133500Y166000D01*
X134500D01*
X133500Y167000D01*
X134500Y168000D01*
X133500D01*
X132500Y169000D01*
X131500Y168000D01*
X130500D01*
X131500Y167000D01*
X130500Y166000D01*
X131500D01*
X132500Y165000D01*
D12*
X39000Y169500D02*
G03*
X39000Y169500I-2000J0D01*
G01*
X29000D02*
G03*
X29000Y169500I-2000J0D01*
G01*
X49000D02*
G03*
X49000Y169500I-2000J0D01*
G01*
X59000D02*
G03*
X59000Y169500I-2000J0D01*
G01*
X69000D02*
G03*
X69000Y169500I-2000J0D01*
G01*
X183350Y121000D02*
G03*
X183350Y121000I-2000J0D01*
G01*
X193350D02*
G03*
X193350Y121000I-2000J0D01*
G01*
X183350Y111000D02*
G03*
X183350Y111000I-2000J0D01*
G01*
X193350D02*
G03*
X193350Y111000I-2000J0D01*
G01*
X183350Y101000D02*
G03*
X183350Y101000I-2000J0D01*
G01*
X193350D02*
G03*
X193350Y101000I-2000J0D01*
G01*
X183350Y91000D02*
G03*
X183350Y91000I-2000J0D01*
G01*
X193350D02*
G03*
X193350Y91000I-2000J0D01*
G01*
X183350Y81000D02*
G03*
X183350Y81000I-2000J0D01*
G01*
X193350D02*
G03*
X193350Y81000I-2000J0D01*
G01*
X183350Y71000D02*
G03*
X183350Y71000I-2000J0D01*
G01*
X193350D02*
G03*
X193350Y71000I-2000J0D01*
G01*
X183350Y61000D02*
G03*
X183350Y61000I-2000J0D01*
G01*
X193350D02*
G03*
X193350Y61000I-2000J0D01*
G01*
X183350Y51000D02*
G03*
X183350Y51000I-2000J0D01*
G01*
X193350D02*
G03*
X193350Y51000I-2000J0D01*
G01*
X183350Y41000D02*
G03*
X183350Y41000I-2000J0D01*
G01*
X193350D02*
G03*
X193350Y41000I-2000J0D01*
G01*
X7500Y121000D02*
G03*
X7500Y121000I-2000J0D01*
G01*
X17500D02*
G03*
X17500Y121000I-2000J0D01*
G01*
X7500Y111000D02*
G03*
X7500Y111000I-2000J0D01*
G01*
X17500D02*
G03*
X17500Y111000I-2000J0D01*
G01*
X7500Y101000D02*
G03*
X7500Y101000I-2000J0D01*
G01*
X17500D02*
G03*
X17500Y101000I-2000J0D01*
G01*
X7500Y81000D02*
G03*
X7500Y81000I-2000J0D01*
G01*
X17500D02*
G03*
X17500Y81000I-2000J0D01*
G01*
X7500Y71000D02*
G03*
X7500Y71000I-2000J0D01*
G01*
X17500D02*
G03*
X17500Y71000I-2000J0D01*
G01*
X7500Y61000D02*
G03*
X7500Y61000I-2000J0D01*
G01*
X17500D02*
G03*
X17500Y61000I-2000J0D01*
G01*
X7500Y51000D02*
G03*
X7500Y51000I-2000J0D01*
G01*
X17500D02*
G03*
X17500Y51000I-2000J0D01*
G01*
X7500Y41000D02*
G03*
X7500Y41000I-2000J0D01*
G01*
X17500D02*
G03*
X17500Y41000I-2000J0D01*
G01*
X7500Y31000D02*
G03*
X7500Y31000I-2000J0D01*
G01*
X17500D02*
G03*
X17500Y31000I-2000J0D01*
G01*
X7500Y91000D02*
G03*
X7500Y91000I-2000J0D01*
G01*
X17500D02*
G03*
X17500Y91000I-2000J0D01*
G01*
M02*
