%FSLAX25Y25*%
%MOIN*%
G70*
G01*
G75*
%ADD10C,0.00800*%
%ADD11C,0.00600*%
%ADD12C,0.00667*%
D10*
X0Y7874D02*
G03*
X7874Y-0I7874J0D01*
G01*
X188976D02*
G03*
X196850Y7874I0J7874D01*
G01*
X7874Y177165D02*
G03*
X0Y169291I0J-7874D01*
G01*
X196850Y169291D02*
G03*
X188976Y177165I-7874J0D01*
G01*
X7874Y-0D02*
X188976D01*
X196850Y7874D02*
Y169291D01*
X7874Y177165D02*
X188976D01*
X0Y7874D02*
Y169291D01*
D11*
X193701Y7874D02*
G03*
X193701Y7874I-4724J0D01*
G01*
X12598Y169291D02*
G03*
X12598Y169291I-4724J0D01*
G01*
X193701Y169291D02*
G03*
X193701Y169291I-4724J0D01*
G01*
X12598Y7874D02*
G03*
X12598Y7874I-4724J0D01*
G01*
X151425Y58500D02*
X154575D01*
X153000Y56925D02*
Y60075D01*
X151425Y72500D02*
X154575D01*
X153000Y70925D02*
Y74075D01*
X50425Y63000D02*
X53575D01*
X52000Y61425D02*
Y64575D01*
X35425Y63000D02*
X38575D01*
X37000Y61425D02*
Y64575D01*
X35000Y169500D02*
X39000D01*
X37000Y167500D02*
Y171500D01*
X25000Y169500D02*
X29000D01*
X27000Y167500D02*
Y171500D01*
X45000Y169500D02*
X49000D01*
X47000Y167500D02*
Y171500D01*
X55000Y169500D02*
X59000D01*
X57000Y167500D02*
Y171500D01*
X65000Y169500D02*
X69000D01*
X67000Y167500D02*
Y171500D01*
X179350Y121000D02*
X183350D01*
X181350Y119000D02*
Y123000D01*
X189350Y121000D02*
X193350D01*
X191350Y119000D02*
Y123000D01*
X179350Y111000D02*
X183350D01*
X181350Y109000D02*
Y113000D01*
X189350Y111000D02*
X193350D01*
X191350Y109000D02*
Y113000D01*
X179350Y101000D02*
X183350D01*
X181350Y99000D02*
Y103000D01*
X189350Y101000D02*
X193350D01*
X191350Y99000D02*
Y103000D01*
X179350Y91000D02*
X183350D01*
X181350Y89000D02*
Y93000D01*
X189350Y91000D02*
X193350D01*
X191350Y89000D02*
Y93000D01*
X179350Y81000D02*
X183350D01*
X181350Y79000D02*
Y83000D01*
X189350Y81000D02*
X193350D01*
X191350Y79000D02*
Y83000D01*
X179350Y71000D02*
X183350D01*
X181350Y69000D02*
Y73000D01*
X189350Y71000D02*
X193350D01*
X191350Y69000D02*
Y73000D01*
X179350Y61000D02*
X183350D01*
X181350Y59000D02*
Y63000D01*
X189350Y61000D02*
X193350D01*
X191350Y59000D02*
Y63000D01*
X179350Y51000D02*
X183350D01*
X181350Y49000D02*
Y53000D01*
X189350Y51000D02*
X193350D01*
X191350Y49000D02*
Y53000D01*
X179350Y41000D02*
X183350D01*
X181350Y39000D02*
Y43000D01*
X189350Y41000D02*
X193350D01*
X191350Y39000D02*
Y43000D01*
X164728Y16800D02*
X168272D01*
X166500Y15028D02*
Y18572D01*
X154728Y26800D02*
X158272D01*
X156500Y25028D02*
Y28572D01*
X174728Y16800D02*
X178272D01*
X176500Y15028D02*
Y18572D01*
X154728Y16800D02*
X158272D01*
X156500Y15028D02*
Y18572D01*
X164728Y26800D02*
X168272D01*
X166500Y25028D02*
Y28572D01*
X174728Y26800D02*
X178272D01*
X176500Y25028D02*
Y28572D01*
X3500Y121000D02*
X7500D01*
X5500Y119000D02*
Y123000D01*
X13500Y121000D02*
X17500D01*
X15500Y119000D02*
Y123000D01*
X3500Y111000D02*
X7500D01*
X5500Y109000D02*
Y113000D01*
X13500Y111000D02*
X17500D01*
X15500Y109000D02*
Y113000D01*
X3500Y101000D02*
X7500D01*
X5500Y99000D02*
Y103000D01*
X13500Y101000D02*
X17500D01*
X15500Y99000D02*
Y103000D01*
X3500Y81000D02*
X7500D01*
X5500Y79000D02*
Y83000D01*
X13500Y81000D02*
X17500D01*
X15500Y79000D02*
Y83000D01*
X3500Y71000D02*
X7500D01*
X5500Y69000D02*
Y73000D01*
X13500Y71000D02*
X17500D01*
X15500Y69000D02*
Y73000D01*
X3500Y61000D02*
X7500D01*
X5500Y59000D02*
Y63000D01*
X13500Y61000D02*
X17500D01*
X15500Y59000D02*
Y63000D01*
X3500Y51000D02*
X7500D01*
X5500Y49000D02*
Y53000D01*
X13500Y51000D02*
X17500D01*
X15500Y49000D02*
Y53000D01*
X3500Y41000D02*
X7500D01*
X5500Y39000D02*
Y43000D01*
X13500Y41000D02*
X17500D01*
X15500Y39000D02*
Y43000D01*
X3500Y31000D02*
X7500D01*
X5500Y29000D02*
Y33000D01*
X13500Y31000D02*
X17500D01*
X15500Y29000D02*
Y33000D01*
X3500Y91000D02*
X7500D01*
X5500Y89000D02*
Y93000D01*
X13500Y91000D02*
X17500D01*
X15500Y89000D02*
Y93000D01*
X154900Y105000D02*
X156100D01*
X155500Y104400D02*
Y105600D01*
X160400Y74500D02*
X161600D01*
X161000Y73900D02*
Y75100D01*
X154900Y99000D02*
X156100D01*
X155500Y98400D02*
Y99600D01*
X110400Y116000D02*
X111600D01*
X111000Y115400D02*
Y116600D01*
X97900Y111000D02*
X99100D01*
X98500Y110400D02*
Y111600D01*
X91900Y111500D02*
X93100D01*
X92500Y110900D02*
Y112100D01*
X142400Y126000D02*
X143600D01*
X143000Y125400D02*
Y126600D01*
X104000Y98500D02*
X105200D01*
X104600Y97900D02*
Y99100D01*
X79900Y94000D02*
X81100D01*
X80500Y93400D02*
Y94600D01*
X79900Y87000D02*
X81100D01*
X80500Y86400D02*
Y87600D01*
X58900Y82500D02*
X60100D01*
X59500Y81900D02*
Y83100D01*
X43900Y54500D02*
X45100D01*
X44500Y53900D02*
Y55100D01*
X44900Y82500D02*
X46100D01*
X45500Y81900D02*
Y83100D01*
X26900Y145000D02*
X28100D01*
X27500Y144400D02*
Y145600D01*
X61900Y158500D02*
X63100D01*
X62500Y157900D02*
Y159100D01*
X88400Y153000D02*
X89600D01*
X89000Y152400D02*
Y153600D01*
X46400Y146000D02*
X47600D01*
X47000Y145400D02*
Y146600D01*
X144500Y59000D02*
X145700D01*
X145100Y58400D02*
Y59600D01*
X143243Y145000D02*
X144442D01*
X143842Y144400D02*
Y145600D01*
X133400Y118000D02*
X134600D01*
X134000Y117400D02*
Y118600D01*
X118679Y97220D02*
X119879D01*
X119280Y96621D02*
Y97821D01*
X151900Y143500D02*
X153100D01*
X152500Y142900D02*
Y144100D01*
X158900Y82500D02*
X160100D01*
X159500Y81900D02*
Y83100D01*
X169400Y140000D02*
X170600D01*
X170000Y139400D02*
Y140600D01*
X136400Y115500D02*
X137600D01*
X137000Y114900D02*
Y116100D01*
X113600Y86700D02*
X114800D01*
X114200Y86100D02*
Y87300D01*
X110100Y92900D02*
X111300D01*
X110700Y92300D02*
Y93500D01*
X83900Y95000D02*
X85100D01*
X84500Y94400D02*
Y95600D01*
X139900Y62000D02*
X141100D01*
X140500Y61400D02*
Y62600D01*
X131800Y130700D02*
X133000D01*
X132400Y130100D02*
Y131300D01*
X103800Y88800D02*
X105000D01*
X104400Y88200D02*
Y89400D01*
X115400Y61800D02*
X116600D01*
X116000Y61200D02*
Y62400D01*
X35900Y97500D02*
X37100D01*
X36500Y96900D02*
Y98100D01*
X57400Y68000D02*
X58600D01*
X58000Y67400D02*
Y68600D01*
X44900Y31000D02*
X46100D01*
X45500Y30400D02*
Y31600D01*
X89900Y52500D02*
X91100D01*
X90500Y51900D02*
Y53100D01*
X72200Y68000D02*
X73400D01*
X72800Y67400D02*
Y68600D01*
X87900Y102500D02*
X89100D01*
X88500Y101900D02*
Y103100D01*
X70400Y149500D02*
X71600D01*
X71000Y148900D02*
Y150100D01*
X91900Y137000D02*
X93100D01*
X92500Y136400D02*
Y137600D01*
X110400Y98500D02*
X111600D01*
X111000Y97900D02*
Y99100D01*
X72300Y126400D02*
X73500D01*
X72900Y125800D02*
Y127000D01*
X72800Y133400D02*
X74000D01*
X73400Y132800D02*
Y134000D01*
X108337Y74463D02*
X109537D01*
X108937Y73863D02*
Y75063D01*
X92900Y75100D02*
X94100D01*
X93500Y74500D02*
Y75700D01*
X145900Y76500D02*
X147100D01*
X146500Y75900D02*
Y77100D01*
X46400Y118500D02*
X47600D01*
X47000Y117900D02*
Y119100D01*
X29400Y88500D02*
X30600D01*
X30000Y87900D02*
Y89100D01*
X149900Y121500D02*
X151100D01*
X150500Y120900D02*
Y122100D01*
X121400Y88500D02*
X122600D01*
X122000Y87900D02*
Y89100D01*
X154243Y151000D02*
X155443D01*
X154842Y150400D02*
Y151600D01*
X4400Y160000D02*
X5600D01*
X5000Y159400D02*
Y160600D01*
X4400Y150000D02*
X5600D01*
X5000Y149400D02*
Y150600D01*
X4400Y140000D02*
X5600D01*
X5000Y139400D02*
Y140600D01*
X4400Y130000D02*
X5600D01*
X5000Y129400D02*
Y130600D01*
X4400Y20000D02*
X5600D01*
X5000Y19400D02*
Y20600D01*
X19400Y20000D02*
X20600D01*
X20000Y19400D02*
Y20600D01*
X19400Y5000D02*
X20600D01*
X20000Y4400D02*
Y5600D01*
X189400Y30000D02*
X190600D01*
X190000Y29400D02*
Y30600D01*
X189400Y20000D02*
X190600D01*
X190000Y19400D02*
Y20600D01*
X179400Y5000D02*
X180600D01*
X180000Y4400D02*
Y5600D01*
X179400Y170000D02*
X180600D01*
X180000Y169400D02*
Y170600D01*
X189400Y160000D02*
X190600D01*
X190000Y159400D02*
Y160600D01*
X189400Y150000D02*
X190600D01*
X190000Y149400D02*
Y150600D01*
X189400Y140000D02*
X190600D01*
X190000Y139400D02*
Y140600D01*
X189400Y130000D02*
X190600D01*
X190000Y129400D02*
Y130600D01*
X179400Y130000D02*
X180600D01*
X180000Y129400D02*
Y130600D01*
X179400Y140000D02*
X180600D01*
X180000Y139400D02*
Y140600D01*
X169400Y130000D02*
X170600D01*
X170000Y129400D02*
Y130600D01*
X78400Y160000D02*
X79600D01*
X79000Y159400D02*
Y160600D01*
X43400Y162000D02*
X44600D01*
X44000Y161400D02*
Y162600D01*
X29400Y162000D02*
X30600D01*
X30000Y161400D02*
Y162600D01*
X61400Y138000D02*
X62600D01*
X62000Y137400D02*
Y138600D01*
X101400Y54000D02*
X102600D01*
X102000Y53400D02*
Y54600D01*
X74400Y37500D02*
X75600D01*
X75000Y36900D02*
Y38100D01*
X89400Y37500D02*
X90600D01*
X90000Y36900D02*
Y38100D01*
X104400Y37500D02*
X105600D01*
X105000Y36900D02*
Y38100D01*
X133400Y63000D02*
X134600D01*
X134000Y62400D02*
Y63600D01*
X46400Y5000D02*
X47600D01*
X47000Y4400D02*
Y5600D01*
X147400Y13000D02*
X148600D01*
X148000Y12400D02*
Y13600D01*
X103900Y136500D02*
X105100D01*
X104500Y135900D02*
Y137100D01*
X107400Y78000D02*
X108600D01*
X108000Y77400D02*
Y78600D01*
X131900Y167000D02*
X133100D01*
X132500Y166400D02*
Y167600D01*
M02*
