%FSLAX25Y25*%
%MOIN*%
G70*
G01*
G75*
%ADD10C,0.00600*%
%ADD11C,0.00800*%
%ADD12C,0.00667*%
D10*
X193701Y169291D02*
G03*
X193701Y169291I-4724J0D01*
G01*
X12598Y7874D02*
G03*
X12598Y7874I-4724J0D01*
G01*
X193701Y7874D02*
G03*
X193701Y7874I-4724J0D01*
G01*
X13500Y91000D02*
X17500D01*
X15500Y89000D02*
Y93000D01*
X3500Y91000D02*
X7500D01*
X5500Y89000D02*
Y93000D01*
X13500Y81000D02*
X17500D01*
X15500Y79000D02*
Y83000D01*
X3500Y71000D02*
X7500D01*
X5500Y69000D02*
Y73000D01*
X13500Y31000D02*
X17500D01*
X15500Y29000D02*
Y33000D01*
X3500Y31000D02*
X7500D01*
X5500Y29000D02*
Y33000D01*
X13500Y41000D02*
X17500D01*
X15500Y39000D02*
Y43000D01*
X3500Y41000D02*
X7500D01*
X5500Y39000D02*
Y43000D01*
X13500Y51000D02*
X17500D01*
X15500Y49000D02*
Y53000D01*
X3500Y51000D02*
X7500D01*
X5500Y49000D02*
Y53000D01*
X3500Y81000D02*
X7500D01*
X5500Y79000D02*
Y83000D01*
X13500Y111000D02*
X17500D01*
X15500Y109000D02*
Y113000D01*
X3500Y111000D02*
X7500D01*
X5500Y109000D02*
Y113000D01*
X13500Y121000D02*
X17500D01*
X15500Y119000D02*
Y123000D01*
X3500Y121000D02*
X7500D01*
X5500Y119000D02*
Y123000D01*
X3500Y101000D02*
X7500D01*
X5500Y99000D02*
Y103000D01*
X13500Y101000D02*
X17500D01*
X15500Y99000D02*
Y103000D01*
X13500Y71000D02*
X17500D01*
X15500Y69000D02*
Y73000D01*
X3500Y61000D02*
X7500D01*
X5500Y59000D02*
Y63000D01*
X13500Y61000D02*
X17500D01*
X15500Y59000D02*
Y63000D01*
X189350Y41000D02*
X193350D01*
X191350Y39000D02*
Y43000D01*
X179350Y41000D02*
X183350D01*
X181350Y39000D02*
Y43000D01*
X179350Y51000D02*
X183350D01*
X181350Y49000D02*
Y53000D01*
X189350Y51000D02*
X193350D01*
X191350Y49000D02*
Y53000D01*
X189350Y71000D02*
X193350D01*
X191350Y69000D02*
Y73000D01*
X189350Y81000D02*
X193350D01*
X191350Y79000D02*
Y83000D01*
X179350Y81000D02*
X183350D01*
X181350Y79000D02*
Y83000D01*
X189350Y91000D02*
X193350D01*
X191350Y89000D02*
Y93000D01*
X179350Y91000D02*
X183350D01*
X181350Y89000D02*
Y93000D01*
X189350Y101000D02*
X193350D01*
X191350Y99000D02*
Y103000D01*
X179350Y101000D02*
X183350D01*
X181350Y99000D02*
Y103000D01*
X189350Y111000D02*
X193350D01*
X191350Y109000D02*
Y113000D01*
X179350Y111000D02*
X183350D01*
X181350Y109000D02*
Y113000D01*
X189350Y121000D02*
X193350D01*
X191350Y119000D02*
Y123000D01*
X179350Y121000D02*
X183350D01*
X181350Y119000D02*
Y123000D01*
X189350Y61000D02*
X193350D01*
X191350Y59000D02*
Y63000D01*
X179350Y61000D02*
X183350D01*
X181350Y59000D02*
Y63000D01*
X179350Y71000D02*
X183350D01*
X181350Y69000D02*
Y73000D01*
X54000Y171500D02*
X58000D01*
X56000Y169500D02*
Y173500D01*
X44000Y171500D02*
X48000D01*
X46000Y169500D02*
Y173500D01*
X64000Y171500D02*
X68000D01*
X66000Y169500D02*
Y173500D01*
X74000Y171500D02*
X78000D01*
X76000Y169500D02*
Y173500D01*
X84000Y171500D02*
X88000D01*
X86000Y169500D02*
Y173500D01*
X61900Y96500D02*
X63100D01*
X62500Y95900D02*
Y97100D01*
X61900Y88500D02*
X63100D01*
X62500Y87900D02*
Y89100D01*
X172396Y38004D02*
X173596D01*
X172996Y37404D02*
Y38604D01*
X138900Y122500D02*
X140100D01*
X139500Y121900D02*
Y123100D01*
X74600Y66700D02*
X75800D01*
X75200Y66100D02*
Y67300D01*
X92400Y143500D02*
X93600D01*
X93000Y142900D02*
Y144100D01*
X134046Y13390D02*
X135246D01*
X134646Y12790D02*
Y13990D01*
X134242Y17000D02*
X135442D01*
X134843Y16400D02*
Y17600D01*
X134900Y122500D02*
X136100D01*
X135500Y121900D02*
Y123100D01*
X151242Y19900D02*
X152443D01*
X151842Y19300D02*
Y20500D01*
X92100Y97600D02*
X93300D01*
X92700Y97000D02*
Y98200D01*
X107100Y96900D02*
X108300D01*
X107700Y96300D02*
Y97500D01*
X87900Y96700D02*
X89100D01*
X88500Y96100D02*
Y97300D01*
X80600Y140800D02*
X81800D01*
X81200Y140200D02*
Y141400D01*
X74400Y136000D02*
X75600D01*
X75000Y135400D02*
Y136600D01*
X90601Y65293D02*
X91802D01*
X91202Y64693D02*
Y65893D01*
X109500Y157800D02*
X110700D01*
X110100Y157200D02*
Y158400D01*
X87042Y164500D02*
X88243D01*
X87643Y163900D02*
Y165100D01*
X10400Y162000D02*
X11600D01*
X11000Y161400D02*
Y162600D01*
X10958Y147158D02*
X12157D01*
X11558Y146557D02*
Y147757D01*
X26000Y143300D02*
X27200D01*
X26600Y142700D02*
Y143900D01*
X4543Y167450D02*
X5742D01*
X5142Y166850D02*
Y168050D01*
X34464Y167450D02*
X35664D01*
X35064Y166850D02*
Y168050D01*
X56400Y150000D02*
X57600D01*
X57000Y149400D02*
Y150600D01*
X25242Y49000D02*
X26443D01*
X25842Y48400D02*
Y49600D01*
X120900Y145000D02*
X122100D01*
X121500Y144400D02*
Y145600D01*
X120900Y152500D02*
X122100D01*
X121500Y151900D02*
Y153100D01*
X120900Y160000D02*
X122100D01*
X121500Y159400D02*
Y160600D01*
X163400Y160000D02*
X164600D01*
X164000Y159400D02*
Y160600D01*
X160400Y160000D02*
X161600D01*
X161000Y159400D02*
Y160600D01*
X163400Y163000D02*
X164600D01*
X164000Y162400D02*
Y163600D01*
X160400Y163000D02*
X161600D01*
X161000Y162400D02*
Y163600D01*
X22400Y171500D02*
X23600D01*
X23000Y170900D02*
Y172100D01*
X86500Y82700D02*
X87700D01*
X87100Y82100D02*
Y83300D01*
X30900Y14500D02*
X32100D01*
X31500Y13900D02*
Y15100D01*
X89400Y60500D02*
X90600D01*
X90000Y59900D02*
Y61100D01*
X48400Y158000D02*
X49600D01*
X49000Y157400D02*
Y158600D01*
X44900Y161500D02*
X46100D01*
X45500Y160900D02*
Y162100D01*
X48400Y161500D02*
X49600D01*
X49000Y160900D02*
Y162100D01*
X44900Y158000D02*
X46100D01*
X45500Y157400D02*
Y158600D01*
X69900Y136000D02*
X71100D01*
X70500Y135400D02*
Y136600D01*
X92400Y168000D02*
X93600D01*
X93000Y167400D02*
Y168600D01*
X95400Y168000D02*
X96600D01*
X96000Y167400D02*
Y168600D01*
X89000Y143700D02*
X90200D01*
X89600Y143100D02*
Y144300D01*
X186400Y154500D02*
X187600D01*
X187000Y153900D02*
Y155100D01*
X51900Y138500D02*
X53100D01*
X52500Y137900D02*
Y139100D01*
X144900Y119000D02*
X146100D01*
X145500Y118400D02*
Y119600D01*
X170600Y79300D02*
X171800D01*
X171200Y78700D02*
Y79900D01*
X179100Y133300D02*
X180300D01*
X179700Y132700D02*
Y133900D01*
X179137Y167866D02*
X180337D01*
X179737Y167266D02*
Y168466D01*
X56400Y98000D02*
X57600D01*
X57000Y97400D02*
Y98600D01*
X66237Y104595D02*
X67437D01*
X66837Y103995D02*
Y105194D01*
X41132Y33811D02*
X42332D01*
X41732Y33211D02*
Y34411D01*
X24743Y33500D02*
X25943D01*
X25343Y32900D02*
Y34100D01*
X40900Y68500D02*
X42100D01*
X41500Y67900D02*
Y69100D01*
X36632Y92429D02*
X37832D01*
X37232Y91829D02*
Y93029D01*
X36632Y96366D02*
X37832D01*
X37232Y95766D02*
Y96966D01*
X61900Y116500D02*
X63100D01*
X62500Y115900D02*
Y117100D01*
X65400Y134500D02*
X66600D01*
X66000Y133900D02*
Y135100D01*
X156724Y123000D02*
X157924D01*
X157324Y122400D02*
Y123600D01*
X107400Y89500D02*
X108600D01*
X108000Y88900D02*
Y90100D01*
X4400Y22500D02*
X5600D01*
X5000Y21900D02*
Y23100D01*
X92700Y135900D02*
X93900D01*
X93300Y135300D02*
Y136500D01*
X179400Y172500D02*
X180600D01*
X180000Y171900D02*
Y173100D01*
X144400Y112000D02*
X145600D01*
X145000Y111400D02*
Y112600D01*
X179000Y143600D02*
X180200D01*
X179600Y143000D02*
Y144200D01*
X123742Y121000D02*
X124943D01*
X124343Y120400D02*
Y121600D01*
X120243Y121000D02*
X121442D01*
X120843Y120400D02*
Y121600D01*
X114743Y116500D02*
X115943D01*
X115342Y115900D02*
Y117100D01*
X25500Y65000D02*
X26700D01*
X26100Y64400D02*
Y65600D01*
X163842Y146200D02*
X165042D01*
X164443Y145600D02*
Y146800D01*
X163842Y149200D02*
X165042D01*
X164443Y148600D02*
Y149800D01*
X120243Y117500D02*
X121442D01*
X120843Y116900D02*
Y118100D01*
X123742Y117500D02*
X124943D01*
X124343Y116900D02*
Y118100D01*
X37132Y38748D02*
X38332D01*
X37732Y38148D02*
Y39348D01*
X37132Y33811D02*
X38332D01*
X37732Y33211D02*
Y34411D01*
X24743Y27000D02*
X25943D01*
X25343Y26400D02*
Y27600D01*
X160800Y120000D02*
X162000D01*
X161400Y119400D02*
Y120600D01*
X116900Y101500D02*
X118100D01*
X117500Y100900D02*
Y102100D01*
X107737Y154700D02*
X108937D01*
X108337Y154100D02*
Y155300D01*
X111396Y104500D02*
X112596D01*
X111996Y103900D02*
Y105100D01*
X114542Y72741D02*
X115743D01*
X115143Y72141D02*
Y73341D01*
X171900Y5000D02*
X173100D01*
X172500Y4400D02*
Y5600D01*
X119609Y13390D02*
X120809D01*
X120209Y12790D02*
Y13990D01*
X123546Y13390D02*
X124746D01*
X124146Y12790D02*
Y13990D01*
X66337Y97594D02*
X67537D01*
X66937Y96995D02*
Y98194D01*
X86500Y78500D02*
X87700D01*
X87100Y77900D02*
Y79100D01*
X80937Y73058D02*
X82137D01*
X81537Y72457D02*
Y73658D01*
X101300Y154000D02*
X102500D01*
X101900Y153400D02*
Y154600D01*
X119243Y17000D02*
X120442D01*
X119843Y16400D02*
Y17600D01*
X123742Y17000D02*
X124943D01*
X124343Y16400D02*
Y17600D01*
X160843Y149200D02*
X162042D01*
X161442Y148600D02*
Y149800D01*
X160843Y146200D02*
X162042D01*
X161442Y145600D02*
Y146800D01*
X191900Y20000D02*
X193100D01*
X192500Y19400D02*
Y20600D01*
X90742Y37500D02*
X91943D01*
X91343Y36900D02*
Y38100D01*
X26900Y162500D02*
X28100D01*
X27500Y161900D02*
Y163100D01*
X179400Y5000D02*
X180600D01*
X180000Y4400D02*
Y5600D01*
X139242Y29437D02*
X140443D01*
X139842Y28837D02*
Y30037D01*
X139242Y35937D02*
X140443D01*
X139842Y35337D02*
Y36537D01*
X171742Y12500D02*
X172942D01*
X172343Y11900D02*
Y13100D01*
X109242Y37500D02*
X110442D01*
X109843Y36900D02*
Y38100D01*
X109242Y22500D02*
X110442D01*
X109843Y21900D02*
Y23100D01*
X90742Y22500D02*
X91943D01*
X91343Y21900D02*
Y23100D01*
X73242Y27000D02*
X74442D01*
X73843Y26400D02*
Y27600D01*
X91437Y117296D02*
X92637D01*
X92037Y116696D02*
Y117896D01*
X179400Y12500D02*
X180600D01*
X180000Y11900D02*
Y13100D01*
X155700Y33500D02*
X156900D01*
X156300Y32900D02*
Y34100D01*
X156200Y39500D02*
X157400D01*
X156800Y38900D02*
Y40100D01*
X140896Y39500D02*
X142096D01*
X141496Y38900D02*
Y40100D01*
X140896Y65004D02*
X142096D01*
X141496Y64404D02*
Y65604D01*
X156896Y75504D02*
X158096D01*
X157496Y74904D02*
Y76104D01*
X43900Y125900D02*
X45100D01*
X44500Y125300D02*
Y126500D01*
X37800Y100100D02*
X39000D01*
X38400Y99500D02*
Y100700D01*
D11*
X196849Y169426D02*
G03*
X188976Y177165I-7873J-134D01*
G01*
X7874Y177165D02*
G03*
X0Y169291I0J-7874D01*
G01*
X188976Y0D02*
G03*
X196850Y7874I0J7874D01*
G01*
X0D02*
G03*
X7874Y0I7874J0D01*
G01*
X0Y7874D02*
Y169291D01*
X7874Y177165D02*
X188976D01*
X196850Y7874D02*
Y169291D01*
X7874Y0D02*
X188976D01*
M02*
