%FSLAX25Y25*%
%MOIN*%
G70*
G01*
G75*
G04 Layer_Color=128*
%ADD10R,0.02000X0.02500*%
%ADD11R,0.02500X0.02000*%
%ADD12R,0.02200X0.03300*%
%ADD13R,0.03500X0.03000*%
%ADD14R,0.03000X0.03500*%
%ADD15R,0.02362X0.02756*%
%ADD16R,0.01575X0.03937*%
%ADD17R,0.07874X0.03937*%
%ADD18R,0.11811X0.04213*%
%ADD19R,0.08661X0.04134*%
%ADD20R,0.04331X0.03937*%
%ADD21R,0.03937X0.04331*%
%ADD22R,0.04134X0.08661*%
%ADD23R,0.37008X0.27559*%
%ADD24O,0.02362X0.07087*%
%ADD25O,0.07087X0.02362*%
%ADD26R,0.01969X0.02362*%
%ADD27C,0.01200*%
%ADD28C,0.01000*%
%ADD29C,0.02000*%
%ADD30C,0.00600*%
%ADD31C,0.01500*%
%ADD32C,0.01300*%
%ADD33C,0.04000*%
%ADD34C,0.06000*%
%ADD35R,0.06000X0.06000*%
%ADD36R,0.06000X0.06000*%
%ADD37C,0.02500*%
%ADD38C,0.03000*%
%ADD39O,0.07600X0.02400*%
%ADD40R,0.07600X0.02400*%
%ADD41R,0.04724X0.01181*%
%ADD42R,0.01181X0.04724*%
%ADD43R,0.03937X0.02362*%
%ADD44R,0.03937X0.03937*%
%ADD45R,0.09449X0.10236*%
%ADD46R,0.07087X0.12992*%
%ADD47R,0.03937X0.03937*%
%ADD48R,0.03937X0.03937*%
%ADD49R,0.04921X0.07874*%
%ADD50R,0.09449X0.07087*%
%ADD51R,0.09843X0.04724*%
%ADD52R,0.04724X0.09843*%
%ADD53R,0.07087X0.05512*%
%ADD54R,0.02362X0.01969*%
%ADD55R,0.03300X0.02200*%
%ADD56R,0.05118X0.03150*%
%ADD57R,0.06693X0.05906*%
%ADD58C,0.01100*%
%ADD59C,0.07000*%
%ADD60C,0.00787*%
%ADD61C,0.01600*%
%ADD62C,0.00500*%
%ADD63C,0.00800*%
%ADD64R,0.00700X0.02537*%
%ADD65C,0.00400*%
%ADD66C,0.02756*%
%ADD67C,0.00700*%
%ADD68R,0.01870X0.17323*%
%ADD69R,0.01181X0.08412*%
%ADD70R,0.11811X0.01300*%
%ADD71R,0.13988X0.01000*%
%ADD72R,0.01300X0.11811*%
D13*
X11000Y165500D02*
D03*
X145800Y39500D02*
D03*
X152800D02*
D03*
X50200Y60000D02*
D03*
X57200D02*
D03*
X50200Y66700D02*
D03*
X57200D02*
D03*
X64200D02*
D03*
X71200D02*
D03*
X64200Y60000D02*
D03*
X71200D02*
D03*
X123143Y75941D02*
D03*
X130142D02*
D03*
X18000Y171500D02*
D03*
X11000D02*
D03*
X18000Y165500D02*
D03*
X108343Y112500D02*
D03*
X115342D02*
D03*
X167800Y39500D02*
D03*
X160800D02*
D03*
Y33500D02*
D03*
X167800D02*
D03*
X152800D02*
D03*
X65500Y146000D02*
D03*
X72500D02*
D03*
X145800Y33500D02*
D03*
X167900Y149600D02*
D03*
X64342Y38100D02*
D03*
X71342D02*
D03*
X64342Y46100D02*
D03*
X71342D02*
D03*
X48842Y28000D02*
D03*
X41842D02*
D03*
X175000Y161700D02*
D03*
X168000D02*
D03*
X175000Y167700D02*
D03*
X168000D02*
D03*
X174900Y149600D02*
D03*
X167900Y143600D02*
D03*
X174900D02*
D03*
X175000Y155700D02*
D03*
X168000D02*
D03*
X41842Y38748D02*
D03*
X48842D02*
D03*
X30700Y64800D02*
D03*
X37700D02*
D03*
X95537Y130500D02*
D03*
X88537D02*
D03*
X61343Y129500D02*
D03*
X68343D02*
D03*
X64342Y31100D02*
D03*
X71342D02*
D03*
X41842Y48200D02*
D03*
X48842D02*
D03*
D14*
X70937Y97594D02*
D03*
Y104595D02*
D03*
X94500Y153000D02*
D03*
Y160000D02*
D03*
X151842Y15500D02*
D03*
Y8500D02*
D03*
X70842Y22000D02*
D03*
Y15000D02*
D03*
X63842Y22000D02*
D03*
Y15000D02*
D03*
X133843Y112000D02*
D03*
Y119000D02*
D03*
X139842Y112000D02*
D03*
Y119000D02*
D03*
X127842Y112000D02*
D03*
Y119000D02*
D03*
X66500Y153000D02*
D03*
Y160000D02*
D03*
X88500Y153000D02*
D03*
Y160000D02*
D03*
X106843Y126500D02*
D03*
Y119500D02*
D03*
X68500Y122500D02*
D03*
Y115500D02*
D03*
X25437Y127094D02*
D03*
Y120095D02*
D03*
X37937Y129595D02*
D03*
Y136594D02*
D03*
Y152594D02*
D03*
Y145595D02*
D03*
X60500Y160000D02*
D03*
Y153000D02*
D03*
X25500Y112500D02*
D03*
Y105500D02*
D03*
D39*
X57000Y116500D02*
D03*
D40*
Y111500D02*
D03*
Y106500D02*
D03*
Y101500D02*
D03*
X34500D02*
D03*
Y106500D02*
D03*
Y111500D02*
D03*
Y116500D02*
D03*
D41*
X81437Y88752D02*
D03*
Y86783D02*
D03*
Y94657D02*
D03*
Y92689D02*
D03*
X114902Y96626D02*
D03*
Y94657D02*
D03*
Y92689D02*
D03*
Y90720D02*
D03*
Y88752D02*
D03*
Y86783D02*
D03*
Y84815D02*
D03*
Y82846D02*
D03*
Y80878D02*
D03*
Y78909D02*
D03*
Y76941D02*
D03*
X81437Y76941D02*
D03*
Y78909D02*
D03*
Y80878D02*
D03*
Y82846D02*
D03*
Y84815D02*
D03*
Y90720D02*
D03*
Y96626D02*
D03*
Y98594D02*
D03*
X114902Y98594D02*
D03*
D42*
X91280Y104500D02*
D03*
X93248D02*
D03*
X95217D02*
D03*
X97185D02*
D03*
X99154D02*
D03*
X101122D02*
D03*
X103091D02*
D03*
X108996Y71035D02*
D03*
X107028D02*
D03*
X105059D02*
D03*
X103091D02*
D03*
X101122D02*
D03*
X95217D02*
D03*
X93248D02*
D03*
X91280D02*
D03*
X89311D02*
D03*
X87343D02*
D03*
X108996Y104500D02*
D03*
X99154Y71035D02*
D03*
X97185D02*
D03*
X87343Y104500D02*
D03*
X105059D02*
D03*
X89311D02*
D03*
X107028D02*
D03*
D43*
X72382Y160240D02*
D03*
Y152760D02*
D03*
X82618D02*
D03*
Y156500D02*
D03*
Y160240D02*
D03*
D44*
X88537Y124458D02*
D03*
X99954Y115796D02*
D03*
X88537D02*
D03*
X99954Y124458D02*
D03*
D45*
X136116Y165500D02*
D03*
X107769D02*
D03*
X136116Y147000D02*
D03*
X107769D02*
D03*
D46*
X169915Y133700D02*
D03*
X189600D02*
D03*
D47*
X20173Y159000D02*
D03*
Y133409D02*
D03*
D48*
X6000Y159000D02*
D03*
Y133409D02*
D03*
D49*
X142561Y129000D02*
D03*
X157324D02*
D03*
D50*
X153443Y145689D02*
D03*
Y169311D02*
D03*
D51*
X162343Y8500D02*
D03*
Y22279D02*
D03*
D52*
X117763Y131000D02*
D03*
X131543D02*
D03*
D53*
X77842Y116902D02*
D03*
Y129500D02*
D03*
D54*
X54443Y23557D02*
D03*
Y28000D02*
D03*
Y48300D02*
D03*
Y43857D02*
D03*
Y34305D02*
D03*
Y38748D02*
D03*
X54343Y19000D02*
D03*
Y14557D02*
D03*
X32437Y134038D02*
D03*
Y129595D02*
D03*
Y145595D02*
D03*
Y150038D02*
D03*
D55*
X50937Y148594D02*
D03*
Y142595D02*
D03*
X45137Y145595D02*
D03*
X50937Y132800D02*
D03*
Y126800D02*
D03*
X45137Y129800D02*
D03*
D56*
X82342Y26000D02*
D03*
Y36000D02*
D03*
Y46000D02*
D03*
Y31000D02*
D03*
Y21000D02*
D03*
Y41000D02*
D03*
D57*
X125256Y6157D02*
D03*
Y62850D02*
D03*
M02*
