%FSLAX25Y25*%
%MOIN*%
G70*
G01*
G75*
G04 Layer_Physical_Order=4*
G04 Layer_Color=16711680*
%ADD10R,0.02000X0.02500*%
%ADD11R,0.02500X0.02000*%
%ADD12R,0.02200X0.03300*%
%ADD13R,0.03500X0.03000*%
%ADD14R,0.03000X0.03500*%
%ADD15R,0.02362X0.02756*%
%ADD16R,0.01575X0.03937*%
%ADD17R,0.07874X0.03937*%
%ADD18R,0.11811X0.04213*%
%ADD19R,0.08661X0.04134*%
%ADD20R,0.04331X0.03937*%
%ADD21R,0.03937X0.04331*%
%ADD22R,0.04134X0.08661*%
%ADD23R,0.37008X0.27559*%
%ADD24O,0.02362X0.07087*%
%ADD25O,0.07087X0.02362*%
%ADD26R,0.01969X0.02362*%
%ADD27C,0.01200*%
%ADD28C,0.01000*%
%ADD29C,0.02000*%
%ADD30C,0.00600*%
%ADD31C,0.01500*%
%ADD32C,0.01300*%
%ADD33C,0.04000*%
%ADD34C,0.06000*%
%ADD35R,0.06000X0.06000*%
%ADD36R,0.06000X0.06000*%
%ADD37C,0.02500*%
%ADD38C,0.03000*%
%ADD39O,0.07600X0.02400*%
%ADD40R,0.07600X0.02400*%
%ADD41R,0.04724X0.01181*%
%ADD42R,0.01181X0.04724*%
%ADD43R,0.03937X0.02362*%
%ADD44R,0.03937X0.03937*%
%ADD45R,0.09449X0.10236*%
%ADD46R,0.07087X0.12992*%
%ADD47R,0.03937X0.03937*%
%ADD48R,0.03937X0.03937*%
%ADD49R,0.04921X0.07874*%
%ADD50R,0.09449X0.07087*%
%ADD51R,0.09843X0.04724*%
%ADD52R,0.04724X0.09843*%
%ADD53R,0.07087X0.05512*%
%ADD54R,0.02362X0.01969*%
%ADD55R,0.03300X0.02200*%
%ADD56R,0.05118X0.03150*%
%ADD57R,0.06693X0.05906*%
%ADD58C,0.01100*%
%ADD59C,0.07000*%
G36*
X20266Y117955D02*
X20893Y117474D01*
X21622Y117172D01*
X22406Y117069D01*
X22437D01*
Y116844D01*
X26401D01*
X26445Y116624D01*
X26735Y116191D01*
X26499Y115750D01*
X22500D01*
Y114440D01*
X22220Y114384D01*
X21558Y113942D01*
X20175Y112559D01*
X19685Y112656D01*
X19431Y113269D01*
X18709Y114209D01*
X17769Y114931D01*
X16675Y115384D01*
X16250Y115440D01*
Y110999D01*
X15501D01*
Y110250D01*
X11060D01*
X11116Y109825D01*
X11569Y108731D01*
X11756Y108488D01*
X11535Y108039D01*
X9465D01*
X9244Y108488D01*
X9431Y108731D01*
X9884Y109825D01*
X9940Y110250D01*
X5499D01*
Y110999D01*
X4750D01*
Y115440D01*
X4325Y115384D01*
X3231Y114931D01*
X2386Y114282D01*
X1937Y114504D01*
Y116500D01*
X10000D01*
Y117974D01*
X12150D01*
X12291Y117791D01*
X13231Y117069D01*
X14325Y116616D01*
X15500Y116461D01*
X16675Y116616D01*
X17769Y117069D01*
X18709Y117791D01*
X18850Y117974D01*
X20247D01*
X20266Y117955D01*
D02*
G37*
G36*
X194200Y133300D02*
Y119200D01*
X192800Y117800D01*
X179600D01*
X178300Y119100D01*
X178100Y123900D01*
Y125800D01*
X186100Y133800D01*
X193700D01*
X194200Y133300D01*
D02*
G37*
G36*
X119119Y114919D02*
X119615Y114587D01*
X120200Y114471D01*
X124843D01*
Y112750D01*
X127843D01*
Y111250D01*
X124843D01*
Y109339D01*
X119387D01*
X118784Y109942D01*
X118593Y110070D01*
Y114791D01*
X119054Y114983D01*
X119119Y114919D01*
D02*
G37*
G36*
X165700Y163000D02*
Y159200D01*
X163500Y157000D01*
X163200Y156700D01*
X147400D01*
X143500Y152800D01*
X143000Y152300D01*
Y117200D01*
X141800Y116000D01*
X120200D01*
X119200Y117000D01*
Y117200D01*
Y122400D01*
X119500Y122700D01*
X120900Y124100D01*
X123200D01*
X125700Y126600D01*
Y159100D01*
X130600Y164000D01*
X131200Y164600D01*
X164100D01*
X165700Y163000D01*
D02*
G37*
G36*
X54898Y144155D02*
Y134622D01*
X54516Y134418D01*
X54087Y134675D01*
Y135400D01*
X47787D01*
Y132400D01*
X41987D01*
Y131839D01*
X40937D01*
Y132844D01*
X35118D01*
Y133288D01*
X32436D01*
Y134037D01*
X31687D01*
Y136522D01*
X31476D01*
Y143110D01*
X34937D01*
Y142344D01*
X40937D01*
Y143555D01*
X41987D01*
Y142994D01*
X47787D01*
Y142994D01*
X48287D01*
Y143344D01*
X54087D01*
Y144313D01*
X54549Y144504D01*
X54898Y144155D01*
D02*
G37*
G36*
X95250Y149750D02*
X97144D01*
Y136817D01*
X97299Y136036D01*
X97742Y135375D01*
X101557Y131559D01*
X102219Y131117D01*
X102999Y130962D01*
X108879D01*
X109629Y130212D01*
X109437Y129750D01*
X107592D01*
Y126499D01*
X106093D01*
Y129750D01*
X103842D01*
Y127926D01*
X103423D01*
Y127926D01*
X100704D01*
Y124457D01*
X99204D01*
Y127926D01*
X98787D01*
Y129750D01*
X92287D01*
Y127926D01*
X92005D01*
Y127926D01*
X91787Y127926D01*
Y133500D01*
X85287D01*
Y128322D01*
X84802Y128200D01*
X84691Y128408D01*
X83816Y129474D01*
X82886Y130237D01*
Y133756D01*
X77310D01*
X77088Y134204D01*
X77402Y134613D01*
X77679Y135282D01*
X77774Y136000D01*
X77713Y136463D01*
X77884Y136720D01*
X78039Y137500D01*
Y139963D01*
X78530Y140061D01*
X78798Y139413D01*
X79239Y138839D01*
X79813Y138398D01*
X80482Y138121D01*
X81200Y138026D01*
X81918Y138121D01*
X82587Y138398D01*
X83161Y138839D01*
X83602Y139413D01*
X83879Y140082D01*
X83974Y140800D01*
X83879Y141518D01*
X83602Y142187D01*
X83161Y142761D01*
X82587Y143202D01*
X81918Y143479D01*
X81200Y143574D01*
X80482Y143479D01*
X79813Y143202D01*
X79239Y142761D01*
X78798Y142187D01*
X78530Y141539D01*
X78039Y141637D01*
Y150961D01*
X78480Y151196D01*
X78695Y151053D01*
X78960Y150876D01*
X79150Y150838D01*
Y150079D01*
X85500D01*
Y149750D01*
X87750D01*
Y153001D01*
X89250D01*
Y149750D01*
X93750D01*
Y153001D01*
X95250D01*
Y149750D01*
D02*
G37*
G36*
X168400Y149300D02*
Y145600D01*
Y129900D01*
X168938Y129362D01*
X168747Y128900D01*
X167000D01*
X164100Y131800D01*
X159400Y136500D01*
X154100D01*
X152700Y137900D01*
X148800Y141800D01*
Y149300D01*
X150500Y151000D01*
X166700D01*
X168400Y149300D01*
D02*
G37*
G36*
X7874Y175228D02*
X41500D01*
Y167000D01*
X43451D01*
Y164103D01*
X43419Y164081D01*
X42419Y163081D01*
X42087Y162585D01*
X41971Y162000D01*
Y157500D01*
X42087Y156915D01*
X42419Y156419D01*
X43419Y155419D01*
X43915Y155087D01*
X44500Y154971D01*
X53000D01*
X53585Y155087D01*
X54081Y155419D01*
X55133Y156471D01*
X56327D01*
X56426Y155463D01*
X56758Y154370D01*
X57297Y153362D01*
X57500Y153114D01*
Y153114D01*
X58021Y152479D01*
X58300Y152250D01*
X57500D01*
Y149750D01*
X59750D01*
Y151302D01*
X59912Y151215D01*
X61006Y150884D01*
X61250Y150860D01*
Y149750D01*
X65750D01*
Y152057D01*
X66264Y152479D01*
X66692Y153001D01*
X67250D01*
Y149750D01*
X69500D01*
Y150079D01*
X70206D01*
Y149000D01*
X69250D01*
Y143000D01*
X73961D01*
Y138546D01*
X73613Y138402D01*
X73039Y137961D01*
X73000Y137911D01*
X72500D01*
X72461Y137961D01*
X71887Y138402D01*
X71218Y138679D01*
X70500Y138774D01*
X69782Y138679D01*
X69113Y138402D01*
X68539Y137961D01*
X68098Y137387D01*
X67821Y136718D01*
X67726Y136000D01*
X67821Y135282D01*
X68098Y134613D01*
X68539Y134039D01*
X69113Y133598D01*
X69782Y133321D01*
X70500Y133226D01*
X71218Y133321D01*
X71887Y133598D01*
X72351Y133954D01*
X72799Y133733D01*
Y131539D01*
X71592D01*
Y132500D01*
X65092D01*
Y126500D01*
X71592D01*
Y127461D01*
X72799D01*
Y125244D01*
X81720D01*
X81812Y124544D01*
X81803Y124500D01*
Y121158D01*
X72799D01*
Y117539D01*
X71500D01*
Y118750D01*
X65500D01*
Y117725D01*
X65010Y117627D01*
X64902Y117887D01*
X64461Y118461D01*
X63887Y118902D01*
X63218Y119179D01*
X62500Y119274D01*
X61782Y119179D01*
X61113Y118902D01*
X61009Y118822D01*
X60962Y118858D01*
X60305Y119131D01*
X59600Y119223D01*
X58103D01*
X57912Y119685D01*
X58379Y120153D01*
X58821Y120814D01*
X58976Y121595D01*
Y126500D01*
X60593D01*
Y129499D01*
Y132500D01*
X58976D01*
Y145000D01*
X58821Y145780D01*
X58379Y146442D01*
X54784Y150036D01*
X54123Y150478D01*
X54087Y150486D01*
Y151195D01*
X47787D01*
Y148195D01*
X41987D01*
Y147634D01*
X40937D01*
Y148845D01*
X35118D01*
Y149288D01*
X29756D01*
Y147554D01*
Y147498D01*
X29657Y147478D01*
X28995Y147036D01*
X27995Y146036D01*
X27553Y145375D01*
X27398Y144595D01*
Y130344D01*
X26187D01*
Y127094D01*
X25438D01*
Y126345D01*
X22437D01*
Y124282D01*
X22061Y123952D01*
X21500Y124026D01*
X18850D01*
X18709Y124209D01*
X17769Y124931D01*
X16675Y125384D01*
X15500Y125539D01*
X14325Y125384D01*
X13231Y124931D01*
X12291Y124209D01*
X12150Y124026D01*
X10000D01*
Y125500D01*
X1937D01*
Y169291D01*
X1927Y169345D01*
X2036Y170453D01*
X2375Y171569D01*
X2925Y172599D01*
X3665Y173501D01*
X4567Y174241D01*
X5596Y174791D01*
X6713Y175130D01*
X7821Y175239D01*
X7874Y175228D01*
D02*
G37*
G36*
X89240Y63332D02*
X89815Y62891D01*
X90484Y62614D01*
X91202Y62519D01*
X91485Y62557D01*
X91861Y62227D01*
Y59245D01*
X90755Y58139D01*
X74450D01*
Y59250D01*
X71199D01*
Y60750D01*
X74450D01*
Y61261D01*
X86300D01*
X87080Y61416D01*
X87742Y61858D01*
Y61858D01*
X87742D01*
Y61858D01*
Y61858D01*
Y61858D01*
X87742D01*
X89217Y63333D01*
X89240Y63332D01*
D02*
G37*
G36*
X126892Y76691D02*
X130143D01*
Y75942D01*
X130893D01*
Y72941D01*
X133393D01*
Y75070D01*
X133854Y75262D01*
X140957Y68159D01*
X140796Y67686D01*
X140778Y67683D01*
X140109Y67406D01*
X139636Y67043D01*
X134341D01*
X131342Y70042D01*
X130680Y70484D01*
X129900Y70639D01*
X125099D01*
X124908Y71101D01*
X124945Y71139D01*
X125497Y71965D01*
X125691Y72941D01*
X126392D01*
Y78839D01*
X126892D01*
Y76691D01*
D02*
G37*
G36*
X147343Y12000D02*
X148343Y11000D01*
X166842D01*
X169343Y8500D01*
Y4500D01*
X168842Y4000D01*
X141342D01*
X135843Y9500D01*
X134843Y10500D01*
X118342D01*
X117342Y11500D01*
Y15000D01*
Y16000D01*
X119343Y18000D01*
X141342D01*
X147343Y12000D01*
D02*
G37*
G36*
X99083Y48913D02*
X99083Y48913D01*
X99083D01*
X99238Y48133D01*
X99680Y47471D01*
X104589Y42562D01*
X105251Y42120D01*
X106031Y41965D01*
X106031Y41965D01*
X139413D01*
X139574Y41491D01*
X139535Y41461D01*
X139094Y40887D01*
X138817Y40218D01*
X138722Y39500D01*
X138817Y38782D01*
X139094Y38113D01*
X139535Y37539D01*
X140109Y37098D01*
X140778Y36821D01*
X141496Y36726D01*
X142174Y36816D01*
X142550Y36486D01*
Y30500D01*
X149050D01*
Y36500D01*
Y41965D01*
X149550D01*
Y36500D01*
Y34250D01*
X156050D01*
Y36446D01*
X156426Y36775D01*
X156800Y36726D01*
X157174Y36775D01*
X157550Y36446D01*
Y34250D01*
X164050D01*
Y36500D01*
Y41965D01*
X164550D01*
Y36500D01*
Y30500D01*
X171050D01*
Y35466D01*
X171498Y35687D01*
X171609Y35602D01*
X172278Y35325D01*
X172996Y35230D01*
X173714Y35325D01*
X174383Y35602D01*
X174957Y36043D01*
X175211Y36373D01*
X175710Y36406D01*
X177054Y35062D01*
X177054Y35062D01*
X177054D01*
X177054Y35062D01*
X177054D01*
X177054Y35062D01*
X177054D01*
Y35062D01*
X177716Y34620D01*
X178496Y34465D01*
X189496D01*
X190276Y34620D01*
X190938Y35062D01*
X192442Y36566D01*
X192470Y36609D01*
X192525Y36616D01*
X193620Y37069D01*
X194465Y37718D01*
X194913Y37496D01*
Y11637D01*
X194428Y11515D01*
X194428Y11516D01*
X193612Y12510D01*
X192619Y13325D01*
X191485Y13931D01*
X190255Y14304D01*
X188976Y14430D01*
X187697Y14304D01*
X186468Y13931D01*
X185334Y13325D01*
X184341Y12510D01*
X183525Y11516D01*
X182919Y10383D01*
X182546Y9153D01*
X182420Y7874D01*
X182546Y6595D01*
X182919Y5365D01*
X183525Y4232D01*
X184341Y3238D01*
X185334Y2423D01*
X185335Y2422D01*
X185214Y1937D01*
X130102D01*
Y8971D01*
X134209D01*
X134761Y8419D01*
X134761Y8419D01*
X140261Y2919D01*
X140757Y2587D01*
X141342Y2471D01*
X168842D01*
X169428Y2587D01*
X169924Y2919D01*
X170424Y3419D01*
X170756Y3915D01*
X170872Y4500D01*
Y8500D01*
X170775Y8988D01*
X170756Y9085D01*
X170424Y9581D01*
X168764Y11242D01*
Y12362D01*
X167504D01*
X167428Y12413D01*
X166842Y12529D01*
X154842D01*
Y14750D01*
X148843D01*
Y13316D01*
X148381Y13125D01*
X142424Y19081D01*
X141928Y19413D01*
X141342Y19529D01*
X135922D01*
X135560Y19679D01*
X134843Y19774D01*
X134125Y19679D01*
X133763Y19529D01*
X125422D01*
X125060Y19679D01*
X124343Y19774D01*
X123625Y19679D01*
X123263Y19529D01*
X120922D01*
X120560Y19679D01*
X119843Y19774D01*
X119125Y19679D01*
X118456Y19402D01*
X117881Y18961D01*
X117440Y18387D01*
X117351Y18172D01*
X116261Y17081D01*
X115929Y16585D01*
X115813Y16000D01*
Y15000D01*
Y11500D01*
X115929Y10915D01*
X116261Y10419D01*
X117261Y9419D01*
X117757Y9087D01*
X118342Y8971D01*
X120410D01*
Y1937D01*
X11637D01*
X11515Y2422D01*
X11516Y2423D01*
X12510Y3238D01*
X13325Y4232D01*
X13931Y5365D01*
X14304Y6595D01*
X14430Y7874D01*
X14304Y9153D01*
X13931Y10383D01*
X13325Y11516D01*
X12510Y12510D01*
X11516Y13325D01*
X10383Y13931D01*
X9153Y14304D01*
X7874Y14430D01*
X6595Y14304D01*
X5365Y13931D01*
X4232Y13325D01*
X3238Y12510D01*
X2423Y11516D01*
X2422Y11515D01*
X1937Y11637D01*
Y27496D01*
X2386Y27718D01*
X3231Y27069D01*
X4325Y26616D01*
X4750Y26560D01*
Y30999D01*
Y35440D01*
X4325Y35384D01*
X3231Y34931D01*
X2386Y34282D01*
X1937Y34504D01*
Y37496D01*
X2386Y37718D01*
X3231Y37069D01*
X4325Y36616D01*
X5500Y36461D01*
X6675Y36616D01*
X7769Y37069D01*
X8709Y37791D01*
X9431Y38731D01*
X9884Y39825D01*
X10039Y41000D01*
X9884Y42175D01*
X9431Y43269D01*
X9093Y43709D01*
X9345Y43961D01*
X11535D01*
X11756Y43512D01*
X11569Y43269D01*
X11116Y42175D01*
X10961Y41000D01*
X11116Y39825D01*
X11569Y38731D01*
X12291Y37791D01*
X13231Y37069D01*
X14325Y36616D01*
X15500Y36461D01*
X16675Y36616D01*
X17769Y37069D01*
X18709Y37791D01*
X19431Y38731D01*
X19884Y39825D01*
X20039Y41000D01*
X19884Y42175D01*
X19431Y43269D01*
X19244Y43512D01*
X19466Y43961D01*
X21000D01*
X21780Y44116D01*
X22442Y44558D01*
X24465Y46581D01*
X24472Y46591D01*
X25125Y46321D01*
X25842Y46226D01*
X26560Y46321D01*
X27229Y46598D01*
X27804Y47039D01*
X28245Y47613D01*
X28522Y48282D01*
X28616Y49000D01*
X28522Y49718D01*
X28245Y50387D01*
X27804Y50961D01*
X27229Y51402D01*
X27156Y51772D01*
X27445Y52061D01*
X93900D01*
X94680Y52216D01*
X95342Y52658D01*
Y52658D01*
X95342D01*
Y52658D01*
Y52658D01*
Y52658D01*
X95342D01*
X97242Y54558D01*
X97684Y55220D01*
X97839Y56000D01*
X97839Y56000D01*
Y67173D01*
X99083D01*
Y48913D01*
D02*
G37*
G36*
X29030Y103524D02*
X29200Y103269D01*
Y102250D01*
X34501D01*
Y101501D01*
X35250D01*
Y98800D01*
X34909D01*
X35271Y98327D01*
X34830Y97753D01*
X34553Y97084D01*
X34459Y96366D01*
X34553Y95648D01*
X34830Y94979D01*
X35271Y94405D01*
Y94390D01*
X34830Y93816D01*
X34779Y93693D01*
X34289Y93595D01*
X30442Y97442D01*
X29780Y97884D01*
X29000Y98039D01*
X26576D01*
X26385Y98501D01*
X26942Y99058D01*
X27384Y99720D01*
X27539Y100500D01*
X27539D01*
Y100500D01*
X27539D01*
Y100500D01*
Y100500D01*
X27539D01*
X27539Y100500D01*
Y102250D01*
X28500D01*
Y103321D01*
X28929Y103578D01*
X29030Y103524D01*
D02*
G37*
G36*
X67937Y106200D02*
Y105344D01*
X73937D01*
Y105057D01*
X74399Y105249D01*
X76590Y103058D01*
X76590Y103058D01*
X76590D01*
X76590Y103058D01*
X76590D01*
X76590Y103058D01*
X76590D01*
Y103058D01*
X77251Y102616D01*
X78031Y102461D01*
X85252D01*
Y100685D01*
X77575D01*
Y100685D01*
X75906D01*
X75106Y100525D01*
X74427Y100073D01*
X74427Y100072D01*
X74399Y100044D01*
X73937Y100235D01*
Y100845D01*
X67937D01*
Y100616D01*
X67561Y100286D01*
X66937Y100368D01*
X66219Y100274D01*
X65955Y100164D01*
X65539Y100442D01*
Y104455D01*
X67475Y106391D01*
X67937Y106200D01*
D02*
G37*
G36*
X62339Y70114D02*
X62316Y70080D01*
X62240Y69700D01*
X60950D01*
Y68739D01*
X60450D01*
Y69700D01*
X53950D01*
Y63700D01*
X60450D01*
Y64661D01*
X60950D01*
Y63700D01*
X62467D01*
X62612Y63429D01*
X62355Y63000D01*
X60950D01*
Y62039D01*
X60450D01*
Y63000D01*
X53950D01*
Y58139D01*
X53450D01*
Y63000D01*
X47539D01*
Y63700D01*
X53450D01*
Y69700D01*
X46950D01*
Y68729D01*
X46220Y68584D01*
X45558Y68142D01*
X44058Y66642D01*
X43616Y65980D01*
X43461Y65200D01*
Y63039D01*
X40950D01*
Y64050D01*
X34450D01*
Y63039D01*
X33950D01*
Y67800D01*
X28337D01*
X28146Y68262D01*
X30439Y70555D01*
X62103D01*
X62339Y70114D01*
D02*
G37*
G36*
X105144Y100535D02*
X105586Y99873D01*
X106601Y98858D01*
X107262Y98416D01*
X108043Y98261D01*
X110143D01*
X110653Y98362D01*
X111039Y98045D01*
Y94535D01*
Y92811D01*
Y88630D01*
Y84693D01*
Y82968D01*
Y78787D01*
Y78492D01*
X110577Y78301D01*
X109932Y78946D01*
X109271Y79388D01*
X108491Y79543D01*
X104445D01*
X91825Y92162D01*
X91164Y92605D01*
X90383Y92760D01*
X85299D01*
Y92811D01*
Y94535D01*
Y96504D01*
Y100638D01*
X105123D01*
X105144Y100535D01*
D02*
G37*
G36*
X97500Y169000D02*
Y161000D01*
X96740Y160240D01*
X91000D01*
X90500Y160740D01*
Y161500D01*
X91500Y162500D01*
Y168500D01*
Y169000D01*
X92000Y169500D01*
X97000D01*
X97500Y169000D01*
D02*
G37*
G36*
X185214Y175228D02*
X185335Y174743D01*
X185334Y174742D01*
X184341Y173927D01*
X183525Y172934D01*
X182919Y171800D01*
X182546Y170570D01*
X182452Y169609D01*
X181971Y169472D01*
X181698Y169827D01*
X181124Y170268D01*
X180455Y170545D01*
X179737Y170640D01*
X179019Y170545D01*
X178666Y170399D01*
X178250Y170677D01*
Y170700D01*
X171750D01*
Y164700D01*
Y158700D01*
Y156450D01*
X178250D01*
Y158700D01*
Y164700D01*
Y165056D01*
X178666Y165333D01*
X179019Y165187D01*
X179737Y165093D01*
X180455Y165187D01*
X181124Y165464D01*
X181698Y165905D01*
X182139Y166479D01*
X182359Y167009D01*
X182858Y166985D01*
X182919Y166782D01*
X183525Y165649D01*
X184341Y164656D01*
X185334Y163840D01*
X186468Y163234D01*
X187697Y162861D01*
X188976Y162735D01*
X190255Y162861D01*
X191485Y163234D01*
X192619Y163840D01*
X193612Y164656D01*
X194428Y165649D01*
X194428Y165650D01*
X194913Y165529D01*
Y141696D01*
X194643D01*
Y141696D01*
X184557D01*
Y134420D01*
X182878Y132740D01*
X182429Y132962D01*
X182474Y133300D01*
X182379Y134018D01*
X182102Y134687D01*
X181661Y135261D01*
X181087Y135702D01*
X180418Y135979D01*
X179700Y136074D01*
X178982Y135979D01*
X178313Y135702D01*
X177739Y135261D01*
X177298Y134687D01*
X177021Y134018D01*
X176926Y133300D01*
X177021Y132582D01*
X177298Y131913D01*
X177739Y131339D01*
X178313Y130898D01*
X178982Y130621D01*
X179700Y130526D01*
X180038Y130571D01*
X180260Y130122D01*
X177019Y126881D01*
X176687Y126385D01*
X176571Y125800D01*
Y123900D01*
X176577Y123868D01*
X176572Y123836D01*
X176772Y119036D01*
X176835Y118777D01*
X176850Y118699D01*
Y116500D01*
X178846D01*
X179015Y116387D01*
X179600Y116271D01*
X192800D01*
X193385Y116387D01*
X193881Y116719D01*
X194451Y117288D01*
X194913Y117097D01*
Y114504D01*
X194465Y114282D01*
X193620Y114931D01*
X192525Y115384D01*
X192100Y115440D01*
Y110999D01*
X191351D01*
Y110250D01*
X186910D01*
X186966Y109825D01*
X187420Y108731D01*
X187606Y108488D01*
X187385Y108039D01*
X185316D01*
X185095Y108488D01*
X185281Y108731D01*
X185735Y109825D01*
X185791Y110250D01*
X176910D01*
X176966Y109825D01*
X177420Y108731D01*
X177606Y108488D01*
X177385Y108039D01*
X173900D01*
X173120Y107884D01*
X172458Y107442D01*
X172055Y107039D01*
X162276D01*
X162085Y107501D01*
X162842Y108258D01*
X163284Y108920D01*
X163439Y109700D01*
Y118140D01*
X163802Y118613D01*
X164079Y119282D01*
X164174Y120000D01*
X164079Y120718D01*
X163802Y121387D01*
X163361Y121961D01*
X162787Y122402D01*
X162118Y122679D01*
X161400Y122774D01*
X160682Y122679D01*
X160013Y122402D01*
X159439Y121961D01*
X158998Y121387D01*
X158721Y120718D01*
X158626Y120000D01*
X158721Y119282D01*
X158998Y118613D01*
X159361Y118140D01*
Y110545D01*
X158155Y109339D01*
X142842D01*
Y111250D01*
X139841D01*
Y112750D01*
X142842D01*
Y114893D01*
X142881Y114919D01*
X144081Y116119D01*
X144304Y116451D01*
X144468D01*
X144782Y116321D01*
X145500Y116226D01*
X146218Y116321D01*
X146887Y116598D01*
X147461Y117039D01*
X147902Y117613D01*
X148179Y118282D01*
X148274Y119000D01*
X148179Y119718D01*
X147902Y120387D01*
X147461Y120961D01*
X146887Y121402D01*
X146218Y121679D01*
X145500Y121774D01*
X144905Y121695D01*
X144529Y122025D01*
Y123563D01*
X146521D01*
Y134437D01*
X144529D01*
Y151666D01*
X144581Y151719D01*
X148033Y155171D01*
X163200D01*
X163688Y155268D01*
X163785Y155287D01*
X164281Y155619D01*
X164288Y155625D01*
X164750Y155434D01*
Y152954D01*
X164750Y152954D01*
X164750D01*
X164750Y152700D01*
X164650Y152600D01*
X164650D01*
Y152529D01*
X150500D01*
X149915Y152413D01*
X149419Y152081D01*
X148069Y150732D01*
X147218D01*
Y140646D01*
X147791D01*
X151619Y136819D01*
X153019Y135419D01*
X153515Y135087D01*
X154100Y134971D01*
X158418D01*
X158696Y134555D01*
X158647Y134437D01*
X158074D01*
Y129750D01*
X161285D01*
Y131799D01*
X161747Y131990D01*
X163019Y130719D01*
X164872Y128865D01*
Y125704D01*
X174958D01*
Y140600D01*
X178150D01*
Y140774D01*
X178566Y141052D01*
X178882Y140921D01*
X179600Y140826D01*
X180318Y140921D01*
X180987Y141198D01*
X181561Y141639D01*
X182002Y142213D01*
X182279Y142882D01*
X182374Y143600D01*
X182279Y144318D01*
X182002Y144987D01*
X181561Y145561D01*
X180987Y146002D01*
X180318Y146279D01*
X179600Y146374D01*
X178882Y146279D01*
X178566Y146148D01*
X178150Y146426D01*
Y146600D01*
Y148850D01*
X174899D01*
Y150350D01*
X178150D01*
Y152346D01*
X178150Y152346D01*
Y152600D01*
X178250Y152700D01*
X178250Y152954D01*
X178250D01*
Y152954D01*
X178250D01*
Y154950D01*
X171750D01*
Y152954D01*
X171750Y152954D01*
X171750D01*
X171750Y152700D01*
X171650Y152600D01*
X171250Y152700D01*
X171250Y152954D01*
X171250D01*
Y152954D01*
X171250D01*
Y158700D01*
Y164700D01*
Y166950D01*
X164750D01*
Y166394D01*
X164364Y166077D01*
X164100Y166129D01*
X159667D01*
Y168561D01*
X147218D01*
Y166129D01*
X142340D01*
Y172118D01*
X129891D01*
Y165454D01*
X129519Y165081D01*
X124619Y160181D01*
X124287Y159685D01*
X124171Y159100D01*
Y127234D01*
X122566Y125629D01*
X121625D01*
Y130250D01*
X117762D01*
Y130999D01*
X117013D01*
Y137421D01*
X113901D01*
Y132204D01*
X113422Y132059D01*
X113166Y132442D01*
Y132442D01*
X113166D01*
X113166Y132442D01*
X113166Y132442D01*
X113166D01*
Y132442D01*
X111165Y134443D01*
X110504Y134885D01*
X109723Y135040D01*
X103844D01*
X101223Y137661D01*
Y140382D01*
X101545D01*
Y140382D01*
X107019D01*
Y147001D01*
X107768D01*
Y147750D01*
X113994D01*
Y153618D01*
X111347D01*
X111018Y153994D01*
X111111Y154700D01*
X111043Y155214D01*
X111487Y155398D01*
X112061Y155839D01*
X112502Y156413D01*
X112779Y157082D01*
X112874Y157800D01*
X112779Y158518D01*
X113022Y158882D01*
X113994D01*
Y164750D01*
X107768D01*
Y165499D01*
X107019D01*
Y172118D01*
X101545D01*
Y171744D01*
X101066Y171598D01*
X100625Y172258D01*
X99942Y172942D01*
X99280Y173384D01*
X98500Y173539D01*
X90026D01*
X89931Y173769D01*
X89209Y174709D01*
X89151Y174755D01*
X89311Y175228D01*
X185214Y175228D01*
D02*
G37*
G36*
X54000Y162000D02*
X56195D01*
X56620Y161716D01*
X57400Y161561D01*
X61939D01*
X62000Y161500D01*
Y158500D01*
X61500Y158000D01*
X54500D01*
X53000Y156500D01*
X44500D01*
X43500Y157500D01*
Y162000D01*
X44500Y163000D01*
X53000D01*
X54000Y162000D01*
D02*
G37*
G36*
X82850Y174755D02*
X82791Y174709D01*
X82069Y173769D01*
X81616Y172675D01*
X81461Y171500D01*
X81616Y170325D01*
X82069Y169231D01*
X82791Y168291D01*
X83731Y167569D01*
X84825Y167116D01*
X85636Y167009D01*
X85765Y166526D01*
X85681Y166461D01*
X85240Y165887D01*
X84963Y165218D01*
X84869Y164500D01*
X84963Y163782D01*
X85148Y163337D01*
X84870Y162921D01*
X79150D01*
Y162290D01*
X79120Y162284D01*
X78480Y161857D01*
X78039Y162092D01*
Y162800D01*
X77884Y163580D01*
X77442Y164242D01*
X76642Y165042D01*
X75980Y165484D01*
X75200Y165639D01*
X58245D01*
X58039Y165845D01*
Y167474D01*
X58269Y167569D01*
X59209Y168291D01*
X59931Y169231D01*
X60384Y170325D01*
X60539Y171500D01*
X60384Y172675D01*
X59931Y173769D01*
X59209Y174709D01*
X59150Y174755D01*
X59311Y175228D01*
X62689D01*
X62849Y174755D01*
X62791Y174709D01*
X62069Y173769D01*
X61616Y172675D01*
X61560Y172250D01*
X70440D01*
X70384Y172675D01*
X69931Y173769D01*
X69209Y174709D01*
X69151Y174755D01*
X69311Y175228D01*
X72689D01*
X72850Y174755D01*
X72791Y174709D01*
X72069Y173769D01*
X71616Y172675D01*
X71461Y171500D01*
X71616Y170325D01*
X72069Y169231D01*
X72791Y168291D01*
X73731Y167569D01*
X74825Y167116D01*
X76000Y166961D01*
X77175Y167116D01*
X78269Y167569D01*
X79209Y168291D01*
X79931Y169231D01*
X80384Y170325D01*
X80539Y171500D01*
X80384Y172675D01*
X79931Y173769D01*
X79209Y174709D01*
X79150Y174755D01*
X79311Y175228D01*
X82689D01*
X82850Y174755D01*
D02*
G37*
%LPC*%
G36*
X63592Y34100D02*
X61093D01*
Y31850D01*
X63592D01*
Y34100D01*
D02*
G37*
G36*
X57124Y33555D02*
X55193D01*
Y31820D01*
X57124D01*
Y33555D01*
D02*
G37*
G36*
X67593Y34100D02*
X65092D01*
Y31850D01*
X67593D01*
Y34100D01*
D02*
G37*
G36*
X63592Y37350D02*
X61093D01*
Y35100D01*
X63592D01*
Y37350D01*
D02*
G37*
G36*
X6250Y35440D02*
Y31750D01*
X9940D01*
X9884Y32175D01*
X9431Y33269D01*
X8709Y34209D01*
X7769Y34931D01*
X6675Y35384D01*
X6250Y35440D01*
D02*
G37*
G36*
X164050Y32750D02*
X161550D01*
Y30500D01*
X164050D01*
Y32750D01*
D02*
G37*
G36*
X160050D02*
X157550D01*
Y30500D01*
X160050D01*
Y32750D01*
D02*
G37*
G36*
X53693Y33555D02*
X51761D01*
Y31820D01*
X53693D01*
Y33555D01*
D02*
G37*
G36*
X16250Y35440D02*
Y31750D01*
X19940D01*
X19884Y32175D01*
X19431Y33269D01*
X18709Y34209D01*
X17769Y34931D01*
X16675Y35384D01*
X16250Y35440D01*
D02*
G37*
G36*
X14750D02*
X14325Y35384D01*
X13231Y34931D01*
X12291Y34209D01*
X11569Y33269D01*
X11116Y32175D01*
X11060Y31750D01*
X14750D01*
Y35440D01*
D02*
G37*
G36*
X67593Y37350D02*
X65092D01*
Y35100D01*
X67593D01*
Y37350D01*
D02*
G37*
G36*
X129393Y75191D02*
X126892D01*
Y72941D01*
X129393D01*
Y75191D01*
D02*
G37*
G36*
X152692Y174354D02*
X147218D01*
Y170061D01*
X152692D01*
Y174354D01*
D02*
G37*
G36*
X21250Y174500D02*
X14750D01*
Y168500D01*
Y162500D01*
X16705D01*
Y162469D01*
X16705D01*
Y155532D01*
X18134D01*
Y136878D01*
X16705D01*
Y129941D01*
X22437D01*
Y127845D01*
X24687D01*
Y130344D01*
X23642D01*
Y136878D01*
X22212D01*
Y155532D01*
X23642D01*
Y162469D01*
X22184D01*
X22057Y163107D01*
X21615Y163769D01*
X21250Y164134D01*
Y168500D01*
Y168798D01*
X21666Y169076D01*
X22282Y168821D01*
X23000Y168726D01*
X23718Y168821D01*
X24387Y169098D01*
X24961Y169539D01*
X25402Y170113D01*
X25679Y170782D01*
X25774Y171500D01*
X25679Y172218D01*
X25402Y172887D01*
X24961Y173461D01*
X24387Y173902D01*
X23718Y174179D01*
X23000Y174274D01*
X22282Y174179D01*
X21666Y173924D01*
X21250Y174202D01*
Y174500D01*
D02*
G37*
G36*
X33750Y100750D02*
X29200D01*
Y98800D01*
X33750D01*
Y100750D01*
D02*
G37*
G36*
X171250Y170700D02*
X168750D01*
Y168450D01*
X171250D01*
Y170700D01*
D02*
G37*
G36*
X40950Y67800D02*
X38450D01*
Y65550D01*
X40950D01*
Y67800D01*
D02*
G37*
G36*
X45092Y51200D02*
X38592D01*
Y50239D01*
X34043D01*
X33262Y50084D01*
X32601Y49642D01*
X23901Y40942D01*
X23459Y40280D01*
X23303Y39500D01*
Y35360D01*
X22940Y34887D01*
X22663Y34218D01*
X22569Y33500D01*
X22663Y32782D01*
X22940Y32113D01*
X23381Y31539D01*
X23956Y31098D01*
X24625Y30821D01*
X25343Y30726D01*
X26060Y30821D01*
X26729Y31098D01*
X27304Y31539D01*
X27745Y32113D01*
X28022Y32782D01*
X28116Y33500D01*
X28022Y34218D01*
X27745Y34887D01*
X27382Y35360D01*
Y38655D01*
X34887Y46161D01*
X38592D01*
Y45200D01*
X45092D01*
Y51200D01*
D02*
G37*
G36*
X38592Y41748D02*
X38450Y41427D01*
X37732Y41522D01*
X37014Y41427D01*
X36345Y41150D01*
X35771Y40709D01*
X35330Y40135D01*
X35053Y39466D01*
X34958Y38748D01*
X35053Y38030D01*
X35330Y37361D01*
X35771Y36787D01*
X36106Y36530D01*
Y36030D01*
X35771Y35772D01*
X35330Y35198D01*
X35053Y34529D01*
X34958Y33811D01*
X35053Y33093D01*
X35330Y32424D01*
X35693Y31951D01*
Y29768D01*
X35848Y28987D01*
X36290Y28326D01*
X38058Y26558D01*
X38592Y26201D01*
Y25000D01*
X45092D01*
Y31000D01*
X39771D01*
Y31951D01*
X40134Y32424D01*
X40411Y33093D01*
X40506Y33811D01*
X40411Y34529D01*
X40134Y35198D01*
X40056Y35300D01*
X40277Y35748D01*
X45092D01*
Y41748D01*
X38592D01*
Y41748D01*
D02*
G37*
G36*
X10250Y174500D02*
X7750D01*
Y172250D01*
X10250D01*
Y174500D01*
D02*
G37*
G36*
X36950Y67800D02*
X34450D01*
Y65550D01*
X36950D01*
Y67800D01*
D02*
G37*
G36*
X159667Y174354D02*
X154192D01*
Y170061D01*
X159667D01*
Y174354D01*
D02*
G37*
G36*
X156050Y32750D02*
X153550D01*
Y30500D01*
X156050D01*
Y32750D01*
D02*
G37*
G36*
X70092Y18250D02*
X67843D01*
Y15750D01*
X70092D01*
Y18250D01*
D02*
G37*
G36*
X66843D02*
X64592D01*
Y15750D01*
X66843D01*
Y18250D01*
D02*
G37*
G36*
X57024Y13807D02*
X55093D01*
Y12072D01*
X57024D01*
Y13807D01*
D02*
G37*
G36*
X154842Y18750D02*
X152593D01*
Y16250D01*
X154842D01*
Y18750D01*
D02*
G37*
G36*
X151093D02*
X148843D01*
Y16250D01*
X151093D01*
Y18750D01*
D02*
G37*
G36*
X73843Y18250D02*
X71592D01*
Y15750D01*
X73843D01*
Y18250D01*
D02*
G37*
G36*
X66843Y14250D02*
X64592D01*
Y11750D01*
X66843D01*
Y14250D01*
D02*
G37*
G36*
X63092D02*
X60843D01*
Y11750D01*
X63092D01*
Y14250D01*
D02*
G37*
G36*
X14250Y174500D02*
X11750D01*
Y172250D01*
X14250D01*
Y174500D01*
D02*
G37*
G36*
X53592Y13807D02*
X51661D01*
Y12072D01*
X53592D01*
Y13807D01*
D02*
G37*
G36*
X73843Y14250D02*
X71592D01*
Y11750D01*
X73843D01*
Y14250D01*
D02*
G37*
G36*
X70092D02*
X67843D01*
Y11750D01*
X70092D01*
Y14250D01*
D02*
G37*
G36*
X9940Y30250D02*
X6250D01*
Y26560D01*
X6675Y26616D01*
X7769Y27069D01*
X8709Y27791D01*
X9431Y28731D01*
X9884Y29825D01*
X9940Y30250D01*
D02*
G37*
G36*
X52092Y51200D02*
X45592D01*
Y45200D01*
X51761D01*
Y44607D01*
X54444D01*
Y43107D01*
X51761D01*
Y41748D01*
X45592D01*
Y35748D01*
X51761D01*
Y35055D01*
X57124D01*
Y36264D01*
Y36709D01*
X58248D01*
X59028Y36864D01*
X59690Y37306D01*
Y37306D01*
X59690D01*
D01*
D01*
D01*
D01*
D01*
D01*
X59690D01*
D01*
X59690D01*
Y37306D01*
D01*
D01*
D01*
D01*
Y37306D01*
D01*
D01*
D01*
D01*
D01*
D01*
Y37306D01*
D01*
D01*
X59690D01*
D01*
D01*
D01*
X60631Y38247D01*
X61092Y38055D01*
Y38708D01*
X61234Y38850D01*
X67593D01*
Y39461D01*
X68093D01*
Y35100D01*
X73786D01*
X74103Y34714D01*
X74002Y34209D01*
X73981Y34100D01*
X68093D01*
Y30039D01*
X67593D01*
Y30350D01*
X61093D01*
Y30039D01*
X57124D01*
Y30484D01*
X52092D01*
Y31000D01*
X45592D01*
Y25000D01*
X51761D01*
Y24307D01*
X57124D01*
Y25516D01*
Y25961D01*
X70143D01*
X70923Y26116D01*
X71584Y26558D01*
X72784Y27758D01*
X73013Y28100D01*
X74593D01*
Y29161D01*
X75200D01*
X75980Y29316D01*
X76642Y29758D01*
X77442Y30558D01*
X77805Y31102D01*
X78284Y30956D01*
Y28526D01*
X77425Y28355D01*
X76598Y27802D01*
X73986Y25191D01*
X73843Y25250D01*
Y25250D01*
X73843Y25250D01*
X67843D01*
Y24549D01*
X66843D01*
Y25250D01*
X60843D01*
Y24549D01*
X60500D01*
X59525Y24355D01*
X58698Y23802D01*
X57586Y22690D01*
X57124Y22882D01*
Y22807D01*
X51761D01*
Y21549D01*
X29556D01*
X27891Y23213D01*
Y25968D01*
X28022Y26282D01*
X28116Y27000D01*
X28022Y27718D01*
X27745Y28387D01*
X27304Y28961D01*
X26729Y29402D01*
X26060Y29679D01*
X25343Y29774D01*
X24625Y29679D01*
X23956Y29402D01*
X23381Y28961D01*
X22940Y28387D01*
X22663Y27718D01*
X22569Y27000D01*
X22663Y26282D01*
X22794Y25968D01*
Y22158D01*
X22988Y21182D01*
X23540Y20355D01*
X26698Y17198D01*
X27525Y16645D01*
X28500Y16451D01*
X51661D01*
Y15307D01*
X57024D01*
Y16451D01*
X57500D01*
X58476Y16645D01*
X59302Y17198D01*
X60381Y18276D01*
X60522Y18217D01*
D01*
X60843Y18084D01*
Y15750D01*
X63092D01*
Y18250D01*
X61008D01*
X60875Y18571D01*
D01*
X60817Y18712D01*
X60855Y18750D01*
X66843D01*
Y19451D01*
X67843D01*
Y18750D01*
X73843D01*
Y19451D01*
X74400D01*
X75375Y19645D01*
X76202Y20198D01*
Y20198D01*
X76202D01*
D01*
D01*
D01*
D01*
D01*
D01*
X76202D01*
D01*
X76202D01*
Y20198D01*
D01*
D01*
D01*
D01*
Y20198D01*
D01*
D01*
D01*
D01*
D01*
D01*
Y20198D01*
D01*
D01*
X76202D01*
D01*
D01*
D01*
X77821Y21817D01*
X78283Y21625D01*
Y21750D01*
X86402D01*
Y22925D01*
Y27925D01*
Y32925D01*
Y37925D01*
Y42925D01*
Y49075D01*
X78284D01*
Y48039D01*
X74593D01*
Y49100D01*
X73151D01*
X72884Y49499D01*
X71842Y50542D01*
X71180Y50984D01*
X70400Y51139D01*
X57400D01*
X56620Y50984D01*
X56321Y50784D01*
X52092D01*
Y51200D01*
D02*
G37*
G36*
X168764Y26142D02*
X163093D01*
Y23030D01*
X168764D01*
Y26142D01*
D02*
G37*
G36*
X152050Y32750D02*
X149550D01*
Y30500D01*
X152050D01*
Y32750D01*
D02*
G37*
G36*
X19940Y30250D02*
X16250D01*
Y26560D01*
X16675Y26616D01*
X17769Y27069D01*
X18709Y27791D01*
X19431Y28731D01*
X19884Y29825D01*
X19940Y30250D01*
D02*
G37*
G36*
X14750D02*
X11060D01*
X11116Y29825D01*
X11569Y28731D01*
X12291Y27791D01*
X13231Y27069D01*
X14325Y26616D01*
X14750Y26560D01*
Y30250D01*
D02*
G37*
G36*
X161592Y21530D02*
X155921D01*
Y18417D01*
X161592D01*
Y21530D01*
D02*
G37*
G36*
X86402Y20250D02*
X83092D01*
Y17925D01*
X86402D01*
Y20250D01*
D02*
G37*
G36*
X81593D02*
X78284D01*
Y17925D01*
X81593D01*
Y20250D01*
D02*
G37*
G36*
X161592Y26142D02*
X155921D01*
Y23030D01*
X161592D01*
Y26142D01*
D02*
G37*
G36*
X179500Y31328D02*
X178363Y31216D01*
X177270Y30884D01*
X176262Y30346D01*
X175379Y29621D01*
X174654Y28738D01*
X174116Y27730D01*
X173784Y26637D01*
X173672Y25500D01*
X173784Y24363D01*
X174116Y23270D01*
X174654Y22262D01*
X175379Y21379D01*
X176262Y20654D01*
X177270Y20116D01*
X178363Y19784D01*
X179500Y19672D01*
X180637Y19784D01*
X181730Y20116D01*
X182738Y20654D01*
X183621Y21379D01*
X184346Y22262D01*
X184884Y23270D01*
X185216Y24363D01*
X185328Y25500D01*
X185216Y26637D01*
X184884Y27730D01*
X184346Y28738D01*
X183621Y29621D01*
X182738Y30346D01*
X181730Y30884D01*
X180637Y31216D01*
X179500Y31328D01*
D02*
G37*
G36*
X168764Y21530D02*
X163093D01*
Y18417D01*
X168764D01*
Y21530D01*
D02*
G37*
G36*
X50187Y141844D02*
X47787D01*
Y139995D01*
X50187D01*
Y141844D01*
D02*
G37*
G36*
X40937Y139845D02*
X38687D01*
Y137345D01*
X40937D01*
Y139845D01*
D02*
G37*
G36*
X37187D02*
X34937D01*
Y137345D01*
X37187D01*
Y139845D01*
D02*
G37*
G36*
X89600Y146474D02*
X88882Y146379D01*
X88213Y146102D01*
X87639Y145661D01*
X87198Y145087D01*
X86921Y144418D01*
X86826Y143700D01*
X86921Y142982D01*
X87198Y142313D01*
X87639Y141739D01*
X88213Y141298D01*
X88882Y141021D01*
X89600Y140926D01*
X90318Y141021D01*
X90987Y141298D01*
X91561Y141739D01*
X92002Y142313D01*
X92279Y142982D01*
X92374Y143700D01*
X92279Y144418D01*
X92002Y145087D01*
X91561Y145661D01*
X90987Y146102D01*
X90318Y146379D01*
X89600Y146474D01*
D02*
G37*
G36*
X113994Y146250D02*
X108519D01*
Y140382D01*
X113994D01*
Y146250D01*
D02*
G37*
G36*
X54087Y141844D02*
X51687D01*
Y139995D01*
X54087D01*
Y141844D01*
D02*
G37*
G36*
X34937Y136522D02*
X33187D01*
Y134788D01*
X35118D01*
Y133344D01*
X37187D01*
Y135845D01*
X34937D01*
Y136522D01*
D02*
G37*
G36*
X121625Y137421D02*
X118513D01*
Y131750D01*
X121625D01*
Y137421D01*
D02*
G37*
G36*
X98787Y133500D02*
X96287D01*
Y131250D01*
X98787D01*
Y133500D01*
D02*
G37*
G36*
X9469Y136878D02*
X6750D01*
Y134159D01*
X9469D01*
Y136878D01*
D02*
G37*
G36*
X5250D02*
X2531D01*
Y134159D01*
X5250D01*
Y136878D01*
D02*
G37*
G36*
X40937Y135845D02*
X38687D01*
Y133344D01*
X40937D01*
Y135845D01*
D02*
G37*
G36*
X37187Y155844D02*
X34937D01*
Y153345D01*
X37187D01*
Y155844D01*
D02*
G37*
G36*
X31687Y152522D02*
X29756D01*
Y150788D01*
X31687D01*
Y152522D01*
D02*
G37*
G36*
X40937Y151845D02*
X38687D01*
Y149345D01*
X40937D01*
Y151845D01*
D02*
G37*
G36*
X9469Y158250D02*
X6750D01*
Y155532D01*
X9469D01*
Y158250D01*
D02*
G37*
G36*
X5250D02*
X2531D01*
Y155532D01*
X5250D01*
Y158250D01*
D02*
G37*
G36*
X40937Y155844D02*
X38687D01*
Y153345D01*
X40937D01*
Y155844D01*
D02*
G37*
G36*
X68750Y145250D02*
X66250D01*
Y143000D01*
X68750D01*
Y145250D01*
D02*
G37*
G36*
X64750D02*
X62250D01*
Y143000D01*
X64750D01*
Y145250D01*
D02*
G37*
G36*
X5250Y162469D02*
X2531D01*
Y159750D01*
X5250D01*
Y162469D01*
D02*
G37*
G36*
X34937Y152522D02*
X33187D01*
Y150788D01*
X35118D01*
Y149345D01*
X37187D01*
Y151845D01*
X34937D01*
Y152522D01*
D02*
G37*
G36*
X68750Y149000D02*
X66250D01*
Y146750D01*
X68750D01*
Y149000D01*
D02*
G37*
G36*
X64750D02*
X62250D01*
Y146750D01*
X64750D01*
Y149000D01*
D02*
G37*
G36*
X190600Y115440D02*
X190176Y115384D01*
X189081Y114931D01*
X188141Y114209D01*
X187420Y113269D01*
X186966Y112175D01*
X186910Y111750D01*
X190600D01*
Y115440D01*
D02*
G37*
G36*
X182100D02*
Y111750D01*
X185791D01*
X185735Y112175D01*
X185281Y113269D01*
X184560Y114209D01*
X183620Y114931D01*
X182525Y115384D01*
X182100Y115440D01*
D02*
G37*
G36*
X180600D02*
X180176Y115384D01*
X179081Y114931D01*
X178141Y114209D01*
X177420Y113269D01*
X176966Y112175D01*
X176910Y111750D01*
X180600D01*
Y115440D01*
D02*
G37*
G36*
X67750Y121750D02*
X65500D01*
Y119250D01*
X67750D01*
Y121750D01*
D02*
G37*
G36*
X113994Y172118D02*
X108519D01*
Y166250D01*
X113994D01*
Y172118D01*
D02*
G37*
G36*
X65250Y170750D02*
X61560D01*
X61616Y170325D01*
X62069Y169231D01*
X62791Y168291D01*
X63731Y167569D01*
X64825Y167116D01*
X65250Y167060D01*
Y170750D01*
D02*
G37*
G36*
X73937Y103844D02*
X71687D01*
Y101345D01*
X73937D01*
Y103844D01*
D02*
G37*
G36*
X70187D02*
X67937D01*
Y101345D01*
X70187D01*
Y103844D01*
D02*
G37*
G36*
X167250Y170700D02*
X164750D01*
Y168450D01*
X167250D01*
Y170700D01*
D02*
G37*
G36*
X14750Y115440D02*
X14325Y115384D01*
X13231Y114931D01*
X12291Y114209D01*
X11569Y113269D01*
X11116Y112175D01*
X11060Y111750D01*
X14750D01*
Y115440D01*
D02*
G37*
G36*
X6250D02*
Y111750D01*
X9940D01*
X9884Y112175D01*
X9431Y113269D01*
X8709Y114209D01*
X7769Y114931D01*
X6675Y115384D01*
X6250Y115440D01*
D02*
G37*
G36*
X70440Y170750D02*
X66750D01*
Y167060D01*
X67175Y167116D01*
X68269Y167569D01*
X69209Y168291D01*
X69931Y169231D01*
X70384Y170325D01*
X70440Y170750D01*
D02*
G37*
G36*
X5250Y132659D02*
X2531D01*
Y129941D01*
X5250D01*
Y132659D01*
D02*
G37*
G36*
X156574Y134437D02*
X153364D01*
Y129750D01*
X156574D01*
Y134437D01*
D02*
G37*
G36*
X14250Y170750D02*
X7750D01*
Y168500D01*
Y162500D01*
D01*
Y162500D01*
X7718Y162469D01*
X6750D01*
Y159750D01*
X9415D01*
X9469Y159708D01*
Y159208D01*
X9884Y159486D01*
X10282Y159321D01*
X11000Y159226D01*
X11718Y159321D01*
X12387Y159598D01*
X12961Y160039D01*
X13402Y160613D01*
X13679Y161282D01*
X13774Y162000D01*
X13757Y162124D01*
X14087Y162500D01*
X14250D01*
Y168500D01*
Y170750D01*
D02*
G37*
G36*
X94787Y133500D02*
X92287D01*
Y131250D01*
X94787D01*
Y133500D01*
D02*
G37*
G36*
X64592Y132500D02*
X62093D01*
Y130250D01*
X64592D01*
Y132500D01*
D02*
G37*
G36*
X9469Y132659D02*
X6750D01*
Y129941D01*
X9469D01*
Y132659D01*
D02*
G37*
G36*
X71500Y125750D02*
X69250D01*
Y123250D01*
X71500D01*
Y125750D01*
D02*
G37*
G36*
X67750D02*
X65500D01*
Y123250D01*
X67750D01*
Y125750D01*
D02*
G37*
G36*
X71500Y121750D02*
X69250D01*
Y119250D01*
X71500D01*
Y121750D01*
D02*
G37*
G36*
X64592Y128750D02*
X62093D01*
Y126500D01*
X64592D01*
Y128750D01*
D02*
G37*
G36*
X161285Y128250D02*
X158074D01*
Y123563D01*
X161285D01*
Y128250D01*
D02*
G37*
G36*
X156574D02*
X153364D01*
Y123563D01*
X156574D01*
Y128250D01*
D02*
G37*
%LPD*%
D13*
X11000Y165500D02*
D03*
X145800Y39500D02*
D03*
X152800D02*
D03*
X50200Y60000D02*
D03*
X57200D02*
D03*
X50200Y66700D02*
D03*
X57200D02*
D03*
X64200D02*
D03*
X71200D02*
D03*
X64200Y60000D02*
D03*
X71200D02*
D03*
X123143Y75941D02*
D03*
X130142D02*
D03*
X18000Y171500D02*
D03*
X11000D02*
D03*
X18000Y165500D02*
D03*
X108343Y112500D02*
D03*
X115342D02*
D03*
X167800Y39500D02*
D03*
X160800D02*
D03*
Y33500D02*
D03*
X167800D02*
D03*
X152800D02*
D03*
X65500Y146000D02*
D03*
X72500D02*
D03*
X145800Y33500D02*
D03*
X167900Y149600D02*
D03*
X64342Y38100D02*
D03*
X71342D02*
D03*
X64342Y46100D02*
D03*
X71342D02*
D03*
X48842Y28000D02*
D03*
X41842D02*
D03*
X175000Y161700D02*
D03*
X168000D02*
D03*
X175000Y167700D02*
D03*
X168000D02*
D03*
X174900Y149600D02*
D03*
X167900Y143600D02*
D03*
X174900D02*
D03*
X175000Y155700D02*
D03*
X168000D02*
D03*
X41842Y38748D02*
D03*
X48842D02*
D03*
X30700Y64800D02*
D03*
X37700D02*
D03*
X95537Y130500D02*
D03*
X88537D02*
D03*
X61343Y129500D02*
D03*
X68343D02*
D03*
X64342Y31100D02*
D03*
X71342D02*
D03*
X41842Y48200D02*
D03*
X48842D02*
D03*
D14*
X70937Y97594D02*
D03*
Y104595D02*
D03*
X94500Y153000D02*
D03*
Y160000D02*
D03*
X151842Y15500D02*
D03*
Y8500D02*
D03*
X70842Y22000D02*
D03*
Y15000D02*
D03*
X63842Y22000D02*
D03*
Y15000D02*
D03*
X133843Y112000D02*
D03*
Y119000D02*
D03*
X139842Y112000D02*
D03*
Y119000D02*
D03*
X127842Y112000D02*
D03*
Y119000D02*
D03*
X66500Y153000D02*
D03*
Y160000D02*
D03*
X88500Y153000D02*
D03*
Y160000D02*
D03*
X106843Y126500D02*
D03*
Y119500D02*
D03*
X68500Y122500D02*
D03*
Y115500D02*
D03*
X25437Y127094D02*
D03*
Y120095D02*
D03*
X37937Y129595D02*
D03*
Y136594D02*
D03*
Y152594D02*
D03*
Y145595D02*
D03*
X60500Y160000D02*
D03*
Y153000D02*
D03*
X25500Y112500D02*
D03*
Y105500D02*
D03*
D28*
X95217Y119457D02*
G03*
X92694Y123801I-5000J0D01*
G01*
D02*
G03*
X90216Y124458I-2477J-4343D01*
G01*
X91280Y104500D02*
G03*
X91343Y104563I0J63D01*
G01*
X93248Y104500D02*
G03*
X93343Y104595I0J94D01*
G01*
X83842Y124500D02*
G03*
X78843Y129500I-5000J0D01*
G01*
X83842Y115500D02*
G03*
X86843Y112500I3000J0D01*
G01*
X93248Y109595D02*
G03*
X90342Y112500I-2905J0D01*
G01*
X91343Y108500D02*
G03*
X89342Y110500I-2000J0D01*
G01*
X78342Y115500D02*
G03*
X83342Y110500I5000J0D01*
G01*
X100454Y115796D02*
G03*
X97185Y112527I0J-3269D01*
G01*
X104158Y119500D02*
G03*
X100454Y115796I0J-3704D01*
G01*
X179000Y41000D02*
X181350D01*
X172996Y47004D02*
X179000Y41000D01*
X136600Y96000D02*
X190000D01*
X191000Y91000D02*
Y95000D01*
X135257Y94657D02*
X136600Y96000D01*
X135653Y82846D02*
X147500Y71000D01*
X114902Y82846D02*
X135653D01*
X114902Y84815D02*
X139085D01*
X114902Y86783D02*
X142517D01*
X114902Y88752D02*
X145748D01*
X114902Y90720D02*
X148779D01*
X114902Y92689D02*
X152700D01*
X132826Y96626D02*
X137200Y101000D01*
X114902Y96626D02*
X132826D01*
X142517Y86783D02*
X150700Y78600D01*
X145748Y88752D02*
X152000Y82500D01*
X148779Y90720D02*
X153500Y86000D01*
X154389Y91000D02*
X181350D01*
X152700Y92689D02*
X154389Y91000D01*
X137200Y101000D02*
X181350D01*
X73937Y108595D02*
X78031Y104500D01*
X87343D01*
X63500Y98000D02*
Y105300D01*
X62500Y97000D02*
X63500Y98000D01*
X62500Y96500D02*
Y97000D01*
X36500Y88500D02*
X62500D01*
X7000Y96000D02*
X29000D01*
X36500Y88500D01*
X36000Y85000D02*
X63248D01*
X15500Y91000D02*
X30000D01*
X36000Y85000D01*
X33500Y82500D02*
X65216D01*
X7500Y86000D02*
X30000D01*
X33500Y82500D01*
X29594Y72594D02*
X73094D01*
X26594Y75094D02*
X71495D01*
X24094Y77595D02*
X69595D01*
X31405Y80094D02*
X67395D01*
X15500Y81000D02*
X30500D01*
X31405Y80094D01*
X63248Y85000D02*
X67000Y88752D01*
X81437D01*
X65216Y82500D02*
X69500Y86783D01*
X81437D01*
X5500Y94500D02*
X7000Y96000D01*
X5500Y91000D02*
Y94500D01*
X81437Y73058D02*
X81537Y72957D01*
X179737Y167700D02*
X179771D01*
X179571D02*
X179737Y167866D01*
X175000Y167700D02*
X179571D01*
X21000Y46000D02*
X23023Y48023D01*
Y50523D01*
X8500Y46000D02*
X21000D01*
X5500Y43000D02*
X8500Y46000D01*
X5500Y41000D02*
Y43000D01*
X19900Y51000D02*
X25000Y56100D01*
X15500Y51000D02*
X19900D01*
X8000Y56000D02*
X21000D01*
X24000Y59000D01*
X5500Y53500D02*
X8000Y56000D01*
X5500Y51000D02*
Y53500D01*
X15500Y61000D02*
X44500D01*
X7000Y66000D02*
X23000D01*
X29594Y72594D01*
X5500Y64500D02*
X7000Y66000D01*
X5500Y61000D02*
Y64500D01*
X15500Y71000D02*
X22500D01*
X26594Y75094D01*
X7000Y76000D02*
X22500D01*
X24094Y77595D01*
X5500Y74500D02*
X7000Y76000D01*
X5500Y71000D02*
Y74500D01*
X75200Y80878D02*
X81437D01*
X73500Y79178D02*
X75200Y80878D01*
X73500Y77100D02*
Y79178D01*
X73700Y82846D02*
X81437D01*
X71500Y80647D02*
X73700Y82846D01*
X69595Y77595D02*
X71500Y79500D01*
Y80647D01*
X76900Y78909D02*
X81437D01*
X75800Y77809D02*
X76900Y78909D01*
X75800Y75300D02*
Y77809D01*
X5500Y84000D02*
X7500Y86000D01*
X5500Y81000D02*
Y84000D01*
X18000Y101000D02*
X19500Y99500D01*
X15500Y101000D02*
X18000D01*
X167800Y39500D02*
X171500D01*
X172996Y38004D01*
X152800Y33500D02*
X160800D01*
X145800D02*
Y39500D01*
X92300Y96100D02*
X92700Y97600D01*
X87100Y78500D02*
X94700D01*
X97185Y71035D02*
Y76015D01*
X94700Y78500D02*
X97185Y76015D01*
X87100Y82700D02*
X94700D01*
X99154Y71035D02*
Y78246D01*
X94700Y82700D02*
X99154Y78246D01*
X81437Y90720D02*
X90383D01*
X103600Y77504D01*
X108491D01*
X56000Y165000D02*
Y171500D01*
Y165000D02*
X57400Y163600D01*
X76000Y137500D02*
Y162800D01*
X75000Y136500D02*
X76000Y137500D01*
X75000Y136000D02*
Y136500D01*
X57400Y163600D02*
X75200D01*
X76000Y162800D01*
X79000Y159500D02*
X79900Y160400D01*
X79000Y153500D02*
X79740Y152760D01*
X79000Y153500D02*
Y159500D01*
X82458Y160400D02*
X82618Y160240D01*
X79900Y160400D02*
X82458D01*
X79740Y152760D02*
X82618D01*
X56937Y121595D02*
Y145000D01*
X50437Y148594D02*
X53342D01*
X56937Y145000D01*
X25000Y56100D02*
X91600D01*
X23000Y112500D02*
X27900D01*
X21500Y108000D02*
Y111000D01*
X7000Y106000D02*
X19500D01*
X21500Y111000D02*
X23000Y112500D01*
X19500Y106000D02*
X21500Y108000D01*
X54437Y124094D02*
Y131595D01*
X53232Y132800D02*
X54437Y131595D01*
X76441Y115500D02*
X77842Y116902D01*
X68500Y115500D02*
X76441D01*
X18000Y171500D02*
X23000D01*
X18000Y164500D02*
Y171500D01*
X20173Y133409D02*
Y162327D01*
X18000Y164500D02*
X20173Y162327D01*
X72115Y84815D02*
X81437D01*
X67395Y80094D02*
X72115Y84815D01*
X52937Y93594D02*
X74874D01*
X50437Y91094D02*
X76437D01*
X72382Y152760D02*
X72500Y152642D01*
X33600Y52100D02*
X87400D01*
X92500Y17000D02*
Y32500D01*
X85500Y10000D02*
X92500Y17000D01*
X29000Y10000D02*
X85500D01*
X20500Y18500D02*
X29000Y10000D01*
X20500Y18500D02*
Y39000D01*
X33600Y52100D01*
X34043Y48200D02*
X41842D01*
X25343Y33500D02*
Y39500D01*
X34043Y48200D01*
X91000Y40500D02*
Y48500D01*
X87400Y52100D02*
X91000Y48500D01*
X47000Y66700D02*
X50200D01*
X45500Y65200D02*
X47000Y66700D01*
X45500Y62000D02*
Y65200D01*
X44500Y61000D02*
X45500Y62000D01*
X24000Y59000D02*
X46000D01*
X47000Y60000D01*
X50200D01*
X65600Y63300D02*
X86300D01*
X88000Y65000D01*
Y66300D01*
X65200Y70300D02*
X84100D01*
X84835Y71035D01*
X86000Y171500D02*
X98500D01*
X99183Y136817D02*
Y170817D01*
X98500Y171500D02*
X99183Y170817D01*
X92642Y135000D02*
X95537Y132106D01*
Y130500D02*
Y132106D01*
X102999Y133001D02*
X109723D01*
X99183Y136817D02*
X102999Y133001D01*
X57200Y60000D02*
X64200D01*
Y61900D02*
X65600Y63300D01*
X64200Y60200D02*
Y61900D01*
X88000Y66300D02*
X89311Y67611D01*
Y71035D01*
X143996Y68004D02*
X172496D01*
X131122Y80878D02*
X143996Y68004D01*
X178000Y62500D02*
X181000D01*
X172496Y68004D02*
X178000Y62500D01*
X107274Y47004D02*
X172996D01*
X170996Y44004D02*
X178496Y36504D01*
X106031Y44004D02*
X170996D01*
X109757Y53000D02*
X181000D01*
X179000D02*
X181000Y51000D01*
X101122Y48913D02*
Y71035D01*
Y48913D02*
X106031Y44004D01*
X103091Y51187D02*
Y71035D01*
Y51187D02*
X107274Y47004D01*
X105059Y53461D02*
Y71035D01*
Y53461D02*
X108516Y50004D01*
X107028Y55730D02*
Y71035D01*
Y55730D02*
X109757Y53000D01*
X108996Y58004D02*
Y71035D01*
X108516Y50004D02*
X174496D01*
X108996Y58004D02*
X111000Y56000D01*
X189000D01*
X118000Y99032D02*
Y101000D01*
X117563Y98594D02*
X118000Y99032D01*
X114902Y98594D02*
X117563D01*
X117500Y101500D02*
X118000Y101000D01*
X117000Y105000D02*
X172900D01*
X110843Y101000D02*
X113000D01*
X117000Y105000D01*
X159000Y107300D02*
X161400Y109700D01*
X118543Y107300D02*
X159000D01*
X161400Y109700D02*
Y120000D01*
X168300Y76000D02*
X190100D01*
X165700Y78600D02*
X168300Y76000D01*
X174900Y143600D02*
X179600D01*
X175000Y161700D02*
Y167700D01*
X174832Y162000D02*
X175343D01*
X31937Y125594D02*
Y129595D01*
Y125594D02*
X33437Y124094D01*
X41937D01*
X31437Y121595D02*
X38937D01*
X29437Y123594D02*
Y144595D01*
Y123594D02*
X31437Y121595D01*
X57000Y98000D02*
Y101500D01*
X63500Y105300D02*
X66795Y108595D01*
X71495Y75094D02*
X73500Y77100D01*
X73094Y72594D02*
X75800Y75300D01*
X47937Y93594D02*
Y120595D01*
X50437Y96095D02*
Y118595D01*
X43937Y94595D02*
Y122095D01*
X62400Y107700D02*
Y111000D01*
X61200Y106500D02*
X62400Y107700D01*
X57000Y106500D02*
X61200D01*
X66795Y108595D02*
X73937D01*
X62400Y111000D02*
X75343D01*
X61900Y111500D02*
X62400Y111000D01*
X57000Y111500D02*
X61900D01*
X28900D02*
X34500D01*
X27900Y112500D02*
X28900Y111500D01*
X5500Y104500D02*
X7000Y106000D01*
X5500Y101000D02*
Y104500D01*
X41437Y97594D02*
Y119095D01*
X28900Y106500D02*
X34500D01*
X27900Y105500D02*
X28900Y106500D01*
X25500Y105500D02*
X27900D01*
X48842Y28000D02*
X70143D01*
X71342Y29200D01*
X78000Y36000D02*
X82342D01*
X76000Y32000D02*
Y34000D01*
X71342Y31200D02*
X75200D01*
X71342Y29200D02*
Y32000D01*
X76000Y34000D02*
X78000Y36000D01*
X75200Y31200D02*
X76000Y32000D01*
X61000Y41500D02*
X70500D01*
X50732Y38748D02*
X58248D01*
X61000Y41500D01*
X70500D02*
X71342Y40658D01*
Y38100D02*
Y40658D01*
X77500Y41000D02*
X82342D01*
X74600Y38100D02*
X77500Y41000D01*
X71342Y38100D02*
X74600D01*
X41732Y33811D02*
X44000D01*
X64342Y38100D02*
Y38500D01*
X39500Y28000D02*
X41842D01*
X37732Y29768D02*
X39500Y28000D01*
X37732Y29768D02*
Y33811D01*
X173900Y106000D02*
X189600D01*
X191000Y101000D02*
Y104600D01*
X189600Y106000D02*
X191000Y104600D01*
X172900Y105000D02*
X173900Y106000D01*
X191000Y48000D02*
Y51000D01*
X174496Y50004D02*
X178500Y46000D01*
X189000D02*
X191000Y48000D01*
X178500Y46000D02*
X189000D01*
X191000Y58000D02*
Y61000D01*
X189000Y56000D02*
X191000Y58000D01*
X190100Y76000D02*
X191000Y75100D01*
X189500Y86000D02*
X191000Y84500D01*
X190000Y96000D02*
X191000Y95000D01*
X41772Y92429D02*
X43937Y94595D01*
X37232Y92429D02*
X41772D01*
X30437Y145595D02*
X44637D01*
X40209Y96366D02*
X41437Y97594D01*
X37232Y96366D02*
X40209D01*
X57000Y116500D02*
X62500D01*
X50437Y132800D02*
X53232D01*
X29437Y144595D02*
X30437Y145595D01*
X52937Y122594D02*
X54437Y124094D01*
X51937Y120095D02*
X55437D01*
X56937Y121595D01*
X49937Y122594D02*
X52937D01*
X41937Y124094D02*
X43937Y122095D01*
X31937Y129595D02*
X37437D01*
X37642Y129800D02*
X44637D01*
X37437Y129595D02*
X37642Y129800D01*
X50437Y96095D02*
X52937Y93594D01*
X47937D02*
X50437Y91094D01*
X47937Y120595D02*
X49937Y122594D01*
X50437Y118595D02*
X51937Y120095D01*
X110933Y78909D02*
X128933D01*
X108043Y84300D02*
X109843Y82500D01*
Y80000D02*
Y82500D01*
X109723Y133001D02*
X111724Y131000D01*
Y117760D02*
Y131000D01*
X61343Y129500D02*
X61343Y129500D01*
X37286Y23557D02*
X54443D01*
X31842Y29000D02*
X37286Y23557D01*
X31842Y29000D02*
Y39500D01*
X35342Y43000D01*
X101122Y96179D02*
Y104500D01*
X98642Y93700D02*
X101122Y96179D01*
X95217Y104500D02*
Y119457D01*
X110143Y100300D02*
X110843Y101000D01*
X108043Y100300D02*
X110143D01*
X89037Y124458D02*
X90216D01*
X68843Y129500D02*
X79843D01*
X37732Y38748D02*
X41842D01*
X41842Y38748D01*
X105059Y108051D02*
X105508Y108500D01*
X105059Y104500D02*
Y108051D01*
X108996Y104500D02*
X111996D01*
X99154D02*
Y109189D01*
X105965Y112500D02*
X108343D01*
X103091Y109626D02*
X105965Y112500D01*
X103091Y104500D02*
Y109626D01*
X99154Y109189D02*
X101224Y111260D01*
X101724D01*
X104224Y113760D01*
X109724Y115760D02*
X111724Y117760D01*
X83842Y115500D02*
Y124500D01*
X93248Y104500D02*
Y109595D01*
X86843Y112500D02*
X90342D01*
X83342Y110500D02*
X89342D01*
X91343Y104563D02*
Y108500D01*
X89311Y104500D02*
Y108031D01*
X88842Y108500D02*
X89311Y108031D01*
X77842Y108500D02*
X88842D01*
X105224Y115760D02*
X109724D01*
X104224Y113760D02*
Y114760D01*
X105224Y115760D01*
X97185Y104500D02*
Y112527D01*
X104158Y119500D02*
X106843D01*
X99954Y124458D02*
X102800D01*
X104843Y126500D01*
X106843D01*
X99954Y124458D02*
Y128612D01*
X98066Y130500D02*
X99954Y128612D01*
X95842Y130500D02*
X98066D01*
X88537Y124458D02*
Y130500D01*
X107028Y101315D02*
X108043Y100300D01*
X107028Y101315D02*
Y104500D01*
X81537Y73058D02*
Y76841D01*
X81437Y76941D02*
X81537Y76841D01*
X81437D02*
Y76941D01*
Y96626D02*
X88468D01*
X109843Y80000D02*
X110933Y78909D01*
X128933D02*
X130142Y77700D01*
Y75941D02*
Y77700D01*
X64200Y69300D02*
X65200Y70300D01*
X64200Y66700D02*
Y69300D01*
X57200Y66700D02*
X64200D01*
X91280Y65915D02*
X91602Y65593D01*
X91280Y65915D02*
Y71035D01*
X84835D02*
X87343D01*
X95217Y67883D02*
Y71035D01*
Y67883D02*
X95800Y67300D01*
X93248Y67052D02*
Y71035D01*
Y67052D02*
X93900Y66400D01*
X71342Y46100D02*
X71443Y46000D01*
X82342D01*
X70400Y49100D02*
X71443Y48057D01*
X54343Y48200D02*
X54443Y48300D01*
X71443Y46100D02*
Y48057D01*
X56500Y48200D02*
X57400Y49100D01*
X48842Y48200D02*
X56500D01*
X57400Y49100D02*
X70400D01*
X117342Y108500D02*
X118543Y107300D01*
X105508Y108500D02*
X117342D01*
X166842Y39900D02*
X167000Y39742D01*
X111919Y70423D02*
X113742Y68600D01*
X111919Y70423D02*
Y74075D01*
X108491Y77504D02*
X111919Y74075D01*
X95800Y56000D02*
Y67300D01*
X93900Y54100D02*
X95800Y56000D01*
X91600Y56100D02*
X93900Y58400D01*
Y66400D01*
X189496Y36504D02*
X191000Y38008D01*
Y42500D01*
X141496Y39500D02*
X145800D01*
X178496Y36504D02*
X189496D01*
X167800Y33500D02*
Y39500D01*
X23023Y50523D02*
X26600Y54100D01*
X93900D01*
X129900Y68600D02*
X133496Y65004D01*
X113742Y68600D02*
X129900D01*
X133496Y65004D02*
X141496D01*
X114902Y80878D02*
X131122D01*
X38937Y121595D02*
X41437Y119095D01*
X75343Y111000D02*
X77842Y108500D01*
X78031Y92689D02*
X81437D01*
X76437Y91094D02*
X78031Y92689D01*
X74874Y93594D02*
X75937Y94657D01*
X81437D01*
X19500Y99500D02*
X24500D01*
X25500Y100500D01*
Y105500D01*
X114902Y94657D02*
X135257D01*
X191000Y81000D02*
Y84500D01*
X153500Y86000D02*
X189500D01*
X152000Y82500D02*
X181000D01*
X191000Y71000D02*
Y75100D01*
X150700Y78600D02*
X165700D01*
X139085Y84815D02*
X148396Y75504D01*
X157496D01*
X147500Y71000D02*
X181000D01*
D29*
X168000Y155700D02*
Y161700D01*
X123500Y112000D02*
X143842D01*
X152800Y39500D02*
X160800D01*
X46000Y162000D02*
Y171500D01*
X165200Y161700D02*
X168000D01*
X71200Y66700D02*
X75200D01*
X109000Y173500D02*
X165300D01*
X166300D02*
X168000Y171800D01*
Y167700D02*
Y171800D01*
X82618Y160240D02*
X94260D01*
X139842Y119000D02*
X145500D01*
X157324Y123000D02*
Y129000D01*
X11000Y162000D02*
Y165500D01*
X107769Y165500D02*
Y172269D01*
X109000Y173500D01*
X25343Y22158D02*
X28500Y19000D01*
X57500D01*
X25343Y22158D02*
Y27000D01*
X60740Y160240D02*
X72382D01*
X53000Y160000D02*
X60500D01*
X66937Y97594D02*
X70500D01*
X94260Y160240D02*
X94500Y160000D01*
X174900Y155600D02*
X188500D01*
X174900D02*
X175000Y155700D01*
X174900Y149600D02*
Y155600D01*
X167900Y143600D02*
Y149600D01*
X29900Y116500D02*
X34500D01*
X28800Y117600D02*
X29900Y116500D01*
X28800Y117600D02*
Y118300D01*
X27005Y120095D02*
X28800Y118300D01*
X25437Y120095D02*
X27005D01*
X60500Y22000D02*
X74400D01*
X57500Y19000D02*
X60500Y22000D01*
X108116Y168600D02*
X108616Y169100D01*
X153443Y169311D02*
Y172173D01*
X115342Y112500D02*
Y116500D01*
X78400Y26000D02*
X82342D01*
X74400Y22000D02*
X78400Y26000D01*
X115143Y72741D02*
X122942D01*
X123143Y72941D01*
Y75941D01*
D31*
X50937Y138063D02*
Y142595D01*
Y138063D02*
X51000Y138000D01*
X55000Y153000D02*
X66500D01*
X60500Y148500D02*
Y153000D01*
X85500Y156500D02*
X88500Y153500D01*
Y153000D02*
Y153500D01*
X82618Y156500D02*
X85500D01*
X5500Y111000D02*
X15500D01*
X14000Y129000D02*
Y132500D01*
X15905Y127094D02*
X25437D01*
X6000Y133409D02*
X13091D01*
X14000Y129000D02*
X15905Y127094D01*
X13091Y133409D02*
X14000Y132500D01*
X6000Y133409D02*
Y159000D01*
X65500Y146000D02*
Y149000D01*
X93000Y142500D02*
X94500Y144000D01*
X93000Y141000D02*
Y142500D01*
X160800Y29700D02*
Y33500D01*
Y29700D02*
X162343Y28157D01*
Y22279D02*
Y28157D01*
X151842Y20902D02*
X153220Y22279D01*
X162343D01*
X151842Y15500D02*
Y19900D01*
X61343Y124158D02*
Y129500D01*
Y124158D02*
X63000Y122500D01*
X68500D01*
X61343Y129500D02*
Y133843D01*
X62000Y134500D02*
X66000D01*
X61343Y133843D02*
X62000Y134500D01*
X72500Y146000D02*
Y152642D01*
X65500Y141000D02*
Y144000D01*
Y149000D02*
X66500Y150000D01*
Y153000D01*
X41500Y65000D02*
Y68500D01*
X41300Y64800D02*
X41500Y65000D01*
X37700Y64800D02*
X41300D01*
X71200Y60000D02*
X89500D01*
X90000Y60500D01*
X94500Y149000D02*
Y153000D01*
X88500D02*
X94500D01*
X66837Y104595D02*
X70937D01*
X36199Y43857D02*
X58357D01*
X72600Y27000D02*
X73843D01*
X71300Y25700D02*
X72600Y27000D01*
X59700Y25700D02*
X71300D01*
X57557Y23557D02*
X59700Y25700D01*
X54443Y23557D02*
X57557D01*
X35342Y43000D02*
X36199Y43857D01*
X58357D02*
X60600Y46100D01*
X64342D01*
X58943Y15000D02*
X76000D01*
X58500Y14557D02*
X58943Y15000D01*
X76500Y18500D02*
X79000Y21000D01*
X49443Y14557D02*
X58500D01*
X76000Y15000D02*
X76500Y15500D01*
Y18500D01*
X79000Y21000D02*
X82342D01*
X44000Y33811D02*
X57531D01*
X60242Y31100D01*
X54443Y34305D02*
X54936Y33811D01*
X60242Y31100D02*
X64342D01*
X64342Y31100D02*
Y38100D01*
Y31100D02*
X64342Y31100D01*
X30500Y65000D02*
X30700Y64800D01*
X26100Y65000D02*
X30500D01*
X108000Y89500D02*
X108043Y84300D01*
X90537Y115796D02*
X92037Y117296D01*
X88537Y115796D02*
X90537D01*
X45400Y126800D02*
X50937D01*
X44500Y125900D02*
X45400Y126800D01*
D34*
X15500Y91000D02*
D03*
X5500D02*
D03*
X15500Y81000D02*
D03*
X5500Y71000D02*
D03*
X15500Y31000D02*
D03*
X5500D02*
D03*
X15500Y41000D02*
D03*
X5500D02*
D03*
X15500Y51000D02*
D03*
X5500D02*
D03*
Y81000D02*
D03*
X15500Y111000D02*
D03*
X5500D02*
D03*
X15500Y121000D02*
D03*
X5500Y101000D02*
D03*
X15500D02*
D03*
Y71000D02*
D03*
X5500Y61000D02*
D03*
X15500D02*
D03*
X191350Y41000D02*
D03*
X181350D02*
D03*
Y51000D02*
D03*
X191350D02*
D03*
Y71000D02*
D03*
Y81000D02*
D03*
X181350D02*
D03*
X191350Y91000D02*
D03*
X181350D02*
D03*
X191350Y101000D02*
D03*
X181350D02*
D03*
X191350Y111000D02*
D03*
X181350D02*
D03*
X191350Y121000D02*
D03*
Y61000D02*
D03*
X181350D02*
D03*
Y71000D02*
D03*
X56000Y171500D02*
D03*
X66000D02*
D03*
X76000D02*
D03*
X86000D02*
D03*
D35*
X5500Y121000D02*
D03*
X181350D02*
D03*
D36*
X46000Y171500D02*
D03*
D37*
X62500Y96500D02*
D03*
Y88500D02*
D03*
X172996Y38004D02*
D03*
X139500Y122500D02*
D03*
X75200Y66700D02*
D03*
X93000Y143500D02*
D03*
X134646Y13390D02*
D03*
X134843Y17000D02*
D03*
X135500Y122500D02*
D03*
X151842Y19900D02*
D03*
X92700Y97600D02*
D03*
X107700Y96900D02*
D03*
X88500Y96700D02*
D03*
X81200Y140800D02*
D03*
X75000Y136000D02*
D03*
X91202Y65293D02*
D03*
X110100Y157800D02*
D03*
X87643Y164500D02*
D03*
X11000Y162000D02*
D03*
X11558Y147158D02*
D03*
X26600Y143300D02*
D03*
X5142Y167450D02*
D03*
X35064D02*
D03*
X57000Y150000D02*
D03*
X25842Y49000D02*
D03*
X121500Y145000D02*
D03*
Y152500D02*
D03*
Y160000D02*
D03*
X164000D02*
D03*
X161000D02*
D03*
X164000Y163000D02*
D03*
X161000D02*
D03*
X23000Y171500D02*
D03*
X87100Y82700D02*
D03*
X31500Y14500D02*
D03*
X90000Y60500D02*
D03*
X49000Y158000D02*
D03*
X45500Y161500D02*
D03*
X49000D02*
D03*
X45500Y158000D02*
D03*
X70500Y136000D02*
D03*
X93000Y168000D02*
D03*
X96000D02*
D03*
X89600Y143700D02*
D03*
X187000Y154500D02*
D03*
X52500Y138500D02*
D03*
X145500Y119000D02*
D03*
X171200Y79300D02*
D03*
X179700Y133300D02*
D03*
X179737Y167866D02*
D03*
X57000Y98000D02*
D03*
X66837Y104595D02*
D03*
X41732Y33811D02*
D03*
X25343Y33500D02*
D03*
X41500Y68500D02*
D03*
X37232Y92429D02*
D03*
Y96366D02*
D03*
X62500Y116500D02*
D03*
X66000Y134500D02*
D03*
X157324Y123000D02*
D03*
X108000Y89500D02*
D03*
X5000Y22500D02*
D03*
X93300Y135900D02*
D03*
X180000Y172500D02*
D03*
X145000Y112000D02*
D03*
X179600Y143600D02*
D03*
X124343Y121000D02*
D03*
X120843D02*
D03*
X115342Y116500D02*
D03*
X26100Y65000D02*
D03*
X164443Y146200D02*
D03*
Y149200D02*
D03*
X120843Y117500D02*
D03*
X124343D02*
D03*
X37732Y38748D02*
D03*
Y33811D02*
D03*
X25343Y27000D02*
D03*
X161400Y120000D02*
D03*
X117500Y101500D02*
D03*
X108337Y154700D02*
D03*
X111996Y104500D02*
D03*
X115143Y72741D02*
D03*
X172500Y5000D02*
D03*
X120209Y13390D02*
D03*
X124146Y13390D02*
D03*
X66937Y97594D02*
D03*
X87100Y78500D02*
D03*
X81537Y73058D02*
D03*
X101900Y154000D02*
D03*
X119843Y17000D02*
D03*
X124343D02*
D03*
X161442Y149200D02*
D03*
Y146200D02*
D03*
X192500Y20000D02*
D03*
X91343Y37500D02*
D03*
X27500Y162500D02*
D03*
X180000Y5000D02*
D03*
X139842Y29437D02*
D03*
Y35937D02*
D03*
X172343Y12500D02*
D03*
X109843Y37500D02*
D03*
Y22500D02*
D03*
X91343D02*
D03*
X73843Y27000D02*
D03*
X92037Y117296D02*
D03*
X180000Y12500D02*
D03*
X156300Y33500D02*
D03*
X156800Y39500D02*
D03*
X141496D02*
D03*
Y65004D02*
D03*
X157496Y75504D02*
D03*
X44500Y125900D02*
D03*
X38400Y100100D02*
D03*
D38*
X5500Y121000D02*
X21500D01*
X22406Y120095D02*
X25437D01*
X21500Y121000D02*
X22406Y120095D01*
D39*
X57000Y116500D02*
D03*
D40*
Y111500D02*
D03*
Y106500D02*
D03*
Y101500D02*
D03*
X34500D02*
D03*
Y106500D02*
D03*
Y111500D02*
D03*
Y116500D02*
D03*
D41*
X81437Y88752D02*
D03*
Y86783D02*
D03*
Y94657D02*
D03*
Y92689D02*
D03*
X114902Y96626D02*
D03*
Y94657D02*
D03*
Y92689D02*
D03*
Y90720D02*
D03*
Y88752D02*
D03*
Y86783D02*
D03*
Y84815D02*
D03*
Y82846D02*
D03*
Y80878D02*
D03*
Y78909D02*
D03*
Y76941D02*
D03*
X81437Y76941D02*
D03*
Y78909D02*
D03*
Y80878D02*
D03*
Y82846D02*
D03*
Y84815D02*
D03*
Y90720D02*
D03*
Y96626D02*
D03*
Y98594D02*
D03*
X114902Y98594D02*
D03*
D42*
X91280Y104500D02*
D03*
X93248D02*
D03*
X95217D02*
D03*
X97185D02*
D03*
X99154D02*
D03*
X101122D02*
D03*
X103091D02*
D03*
X108996Y71035D02*
D03*
X107028D02*
D03*
X105059D02*
D03*
X103091D02*
D03*
X101122D02*
D03*
X95217D02*
D03*
X93248D02*
D03*
X91280D02*
D03*
X89311D02*
D03*
X87343D02*
D03*
X108996Y104500D02*
D03*
X99154Y71035D02*
D03*
X97185D02*
D03*
X87343Y104500D02*
D03*
X105059D02*
D03*
X89311D02*
D03*
X107028D02*
D03*
D43*
X72382Y160240D02*
D03*
Y152760D02*
D03*
X82618D02*
D03*
Y156500D02*
D03*
Y160240D02*
D03*
D44*
X88537Y124458D02*
D03*
X99954Y115796D02*
D03*
X88537D02*
D03*
X99954Y124458D02*
D03*
D45*
X136116Y165500D02*
D03*
X107769D02*
D03*
X136116Y147000D02*
D03*
X107769D02*
D03*
D46*
X169915Y133700D02*
D03*
X189600D02*
D03*
D47*
X20173Y159000D02*
D03*
Y133409D02*
D03*
D48*
X6000Y159000D02*
D03*
Y133409D02*
D03*
D49*
X142561Y129000D02*
D03*
X157324D02*
D03*
D50*
X153443Y145689D02*
D03*
Y169311D02*
D03*
D51*
X162343Y8500D02*
D03*
Y22279D02*
D03*
D52*
X117763Y131000D02*
D03*
X131543D02*
D03*
D53*
X77842Y116902D02*
D03*
Y129500D02*
D03*
D54*
X54443Y23557D02*
D03*
Y28000D02*
D03*
Y48300D02*
D03*
Y43857D02*
D03*
Y34305D02*
D03*
Y38748D02*
D03*
X54343Y19000D02*
D03*
Y14557D02*
D03*
X32437Y134038D02*
D03*
Y129595D02*
D03*
Y145595D02*
D03*
Y150038D02*
D03*
D55*
X50937Y148594D02*
D03*
Y142595D02*
D03*
X45137Y145595D02*
D03*
X50937Y132800D02*
D03*
Y126800D02*
D03*
X45137Y129800D02*
D03*
D56*
X82342Y26000D02*
D03*
Y36000D02*
D03*
Y46000D02*
D03*
Y31000D02*
D03*
Y21000D02*
D03*
Y41000D02*
D03*
D57*
X125256Y6157D02*
D03*
Y62850D02*
D03*
D58*
X70500Y97594D02*
X74906D01*
X75906Y98594D02*
X81437D01*
X74906Y97594D02*
X75906Y98594D01*
X114902Y76941D02*
X119402D01*
X120402Y75941D02*
X123143D01*
X119402Y76941D02*
X120402Y75941D01*
D59*
X153443Y142842D02*
Y145689D01*
M02*
