M48
;Layer_Color=9474304
;FILE_FORMAT=2:5
INCH,TZ
;TYPE=PLATED
T1F00S00C0.01200
T2F00S00C0.04000
%
T01
X172500Y5000
X180000
X192500Y20000
X187000Y154500
X179600Y143600
X179700Y133300
X164443Y146200
Y149200
X161442Y149200
Y146200
X161000Y160000
X164000
Y163000
X161000
X121500Y160000
Y152500
Y145000
X108337Y154700
X110100Y157800
X101900Y154000
X93000Y143500
X89600Y143700
X81200Y140800
X75000Y136000
X70500
X66000Y134500
X52500Y138500
X57000Y150000
X49000Y158000
Y161500
X45500
Y158000
X44500Y125900
X62500Y116500
X66837Y104595
X66937Y97594
X62500Y96500
X57000Y98000
X62500Y88500
X37232Y92429
Y96366
X38400Y100100
X41500Y68500
X37732Y38748
Y33811
X41732
X31500Y14500
X73843Y27000
X91343Y22500
Y37500
X109843
Y22500
X119843Y17000
X120209Y13390
X124146Y13390
X124343Y17000
X134843
X134646Y13390
X139842Y29437
Y35937
X141496Y39500
X156800
X156300Y33500
X151842Y19900
X172343Y12500
X180000
X172996Y38004
X171200Y79300
X157496Y75504
X141496Y65004
X115143Y72741
X108000Y89500
X107700Y96900
X111996Y104500
X117500Y101500
X115342Y116500
X120843Y117500
Y121000
X124343
Y117500
X135500Y122500
X139500
X145500Y119000
X145000Y112000
X157324Y123000
X161400Y120000
X92037Y117296
X93300Y135900
X87643Y164500
X88500Y96700
X92700Y97600
X87100Y82700
Y78500
X81537Y73058
X75200Y66700
X91202Y65293
X90000Y60500
X26100Y65000
X25842Y49000
X25343Y33500
Y27000
X5000Y22500
X11558Y147158
X11000Y162000
X27500Y162500
X26600Y143300
X23000Y171500
X5142Y167450
X35064
X93000Y168000
X96000
X179737Y167866
X180000Y172500
T02
X191350Y41000
Y51000
Y61000
Y71000
Y81000
Y91000
Y101000
Y111000
Y121000
X181350
Y111000
Y101000
Y91000
Y81000
Y71000
Y61000
Y51000
Y41000
X15500
Y31000
X5500
Y41000
Y51000
X15500
Y61000
Y71000
Y81000
Y91000
X5500
Y81000
Y71000
Y61000
Y101000
Y111000
X15500
Y121000
X5500
X15500Y101000
X46000Y171500
X56000
X66000
X76000
X86000
M30
