%FSLAX25Y25*%
%MOIN*%
G70*
G01*
G75*
G04 Layer_Color=32896*
%ADD10R,0.02000X0.02500*%
%ADD11R,0.02500X0.02000*%
%ADD12R,0.02200X0.03300*%
%ADD13R,0.03500X0.03000*%
%ADD14R,0.03000X0.03500*%
%ADD15R,0.02362X0.02756*%
%ADD16R,0.01575X0.03937*%
%ADD17R,0.07874X0.03937*%
%ADD18R,0.11811X0.04213*%
%ADD19R,0.08661X0.04134*%
%ADD20R,0.04331X0.03937*%
%ADD21R,0.03937X0.04331*%
%ADD22R,0.04134X0.08661*%
%ADD23R,0.37008X0.27559*%
%ADD24O,0.02362X0.07087*%
%ADD25O,0.07087X0.02362*%
%ADD26R,0.01969X0.02362*%
%ADD27C,0.01200*%
%ADD28C,0.01000*%
%ADD29C,0.02000*%
%ADD30C,0.00600*%
%ADD31C,0.01500*%
%ADD32C,0.01300*%
%ADD33C,0.04000*%
%ADD34C,0.06000*%
%ADD35R,0.06000X0.06000*%
%ADD36R,0.06000X0.06000*%
%ADD37C,0.02500*%
%ADD38C,0.03000*%
%ADD39O,0.07600X0.02400*%
%ADD40R,0.07600X0.02400*%
%ADD41R,0.04724X0.01181*%
%ADD42R,0.01181X0.04724*%
%ADD43R,0.03937X0.02362*%
%ADD44R,0.03937X0.03937*%
%ADD45R,0.09449X0.10236*%
%ADD46R,0.07087X0.12992*%
%ADD47R,0.03937X0.03937*%
%ADD48R,0.03937X0.03937*%
%ADD49R,0.04921X0.07874*%
%ADD50R,0.09449X0.07087*%
%ADD51R,0.09843X0.04724*%
%ADD52R,0.04724X0.09843*%
%ADD53R,0.07087X0.05512*%
%ADD54R,0.02362X0.01969*%
%ADD55R,0.03300X0.02200*%
%ADD56R,0.05118X0.03150*%
%ADD57R,0.06693X0.05906*%
%ADD58C,0.01100*%
%ADD59C,0.07000*%
%ADD60C,0.00787*%
%ADD61C,0.01600*%
%ADD62C,0.00500*%
%ADD63C,0.00800*%
%ADD64R,0.00700X0.02537*%
%ADD65C,0.00400*%
%ADD66C,0.02756*%
%ADD67C,0.00700*%
%ADD68R,0.01870X0.17323*%
%ADD69R,0.01181X0.08412*%
%ADD70R,0.11811X0.01300*%
%ADD71R,0.13988X0.01000*%
%ADD72R,0.01300X0.11811*%
G36*
X43242Y7519D02*
X43358Y7506D01*
X43467Y7485D01*
X43570Y7458D01*
X43672Y7417D01*
X43761Y7383D01*
X43843Y7342D01*
X43918Y7301D01*
X43986Y7253D01*
X44041Y7212D01*
X44096Y7178D01*
X44137Y7144D01*
X44171Y7110D01*
X44191Y7089D01*
X44205Y7075D01*
X44212Y7069D01*
X44287Y6980D01*
X44348Y6884D01*
X44403Y6782D01*
X44451Y6679D01*
X44492Y6570D01*
X44526Y6468D01*
X44574Y6263D01*
X44594Y6167D01*
X44608Y6078D01*
X44615Y5996D01*
X44622Y5928D01*
X44629Y5873D01*
Y5825D01*
Y5798D01*
Y5791D01*
X44622Y5648D01*
X44608Y5511D01*
X44587Y5382D01*
X44560Y5266D01*
X44533Y5156D01*
X44499Y5054D01*
X44458Y4965D01*
X44417Y4883D01*
X44383Y4808D01*
X44342Y4740D01*
X44308Y4685D01*
X44273Y4644D01*
X44253Y4610D01*
X44232Y4583D01*
X44219Y4569D01*
X44212Y4562D01*
X44130Y4487D01*
X44041Y4419D01*
X43952Y4357D01*
X43857Y4309D01*
X43768Y4268D01*
X43672Y4234D01*
X43495Y4180D01*
X43406Y4159D01*
X43331Y4145D01*
X43262Y4138D01*
X43201Y4132D01*
X43153Y4125D01*
X43085D01*
X42880Y4138D01*
X42702Y4166D01*
X42538Y4214D01*
X42409Y4262D01*
X42347Y4289D01*
X42300Y4309D01*
X42259Y4337D01*
X42224Y4357D01*
X42190Y4371D01*
X42170Y4384D01*
X42163Y4398D01*
X42156D01*
X42033Y4507D01*
X41924Y4637D01*
X41842Y4767D01*
X41774Y4890D01*
X41719Y5006D01*
X41698Y5054D01*
X41685Y5095D01*
X41671Y5129D01*
X41664Y5156D01*
X41657Y5170D01*
Y5177D01*
X42224Y5252D01*
X42279Y5129D01*
X42334Y5020D01*
X42388Y4931D01*
X42443Y4862D01*
X42491Y4801D01*
X42532Y4767D01*
X42559Y4740D01*
X42566Y4733D01*
X42648Y4678D01*
X42737Y4644D01*
X42825Y4617D01*
X42907Y4596D01*
X42976Y4583D01*
X43030Y4576D01*
X43085D01*
X43228Y4589D01*
X43358Y4617D01*
X43474Y4664D01*
X43577Y4719D01*
X43652Y4767D01*
X43713Y4815D01*
X43747Y4842D01*
X43761Y4856D01*
X43850Y4972D01*
X43925Y5108D01*
X43973Y5245D01*
X44014Y5375D01*
X44041Y5498D01*
X44048Y5545D01*
X44055Y5593D01*
Y5627D01*
X44062Y5662D01*
Y5675D01*
Y5682D01*
X41644D01*
X41637Y5744D01*
Y5791D01*
Y5819D01*
Y5825D01*
X41644Y5976D01*
X41657Y6112D01*
X41678Y6242D01*
X41698Y6358D01*
X41733Y6474D01*
X41767Y6577D01*
X41808Y6666D01*
X41842Y6754D01*
X41883Y6830D01*
X41924Y6891D01*
X41958Y6946D01*
X41985Y6994D01*
X42013Y7028D01*
X42033Y7055D01*
X42047Y7069D01*
X42054Y7075D01*
X42136Y7157D01*
X42217Y7226D01*
X42306Y7287D01*
X42395Y7335D01*
X42484Y7383D01*
X42573Y7417D01*
X42737Y7472D01*
X42818Y7492D01*
X42887Y7506D01*
X42955Y7513D01*
X43010Y7519D01*
X43058Y7526D01*
X43119D01*
X43242Y7519D01*
D02*
G37*
G36*
X55085D02*
X55194Y7513D01*
X55393Y7472D01*
X55570Y7410D01*
X55645Y7376D01*
X55714Y7349D01*
X55782Y7315D01*
X55836Y7280D01*
X55884Y7246D01*
X55925Y7219D01*
X55959Y7198D01*
X55980Y7178D01*
X55994Y7171D01*
X56000Y7164D01*
X56089Y7075D01*
X56164Y6980D01*
X56233Y6877D01*
X56287Y6768D01*
X56335Y6659D01*
X56376Y6549D01*
X56410Y6440D01*
X56437Y6331D01*
X56458Y6228D01*
X56472Y6133D01*
X56485Y6051D01*
X56492Y5976D01*
Y5914D01*
X56499Y5866D01*
Y5839D01*
Y5825D01*
X56492Y5675D01*
X56479Y5532D01*
X56458Y5402D01*
X56431Y5279D01*
X56403Y5170D01*
X56369Y5061D01*
X56328Y4972D01*
X56287Y4883D01*
X56253Y4808D01*
X56212Y4746D01*
X56178Y4692D01*
X56144Y4644D01*
X56123Y4610D01*
X56103Y4583D01*
X56089Y4569D01*
X56082Y4562D01*
X56000Y4487D01*
X55912Y4419D01*
X55823Y4357D01*
X55727Y4309D01*
X55638Y4268D01*
X55543Y4234D01*
X55372Y4180D01*
X55290Y4159D01*
X55215Y4145D01*
X55147Y4138D01*
X55092Y4132D01*
X55044Y4125D01*
X54976D01*
X54819Y4132D01*
X54675Y4159D01*
X54546Y4186D01*
X54430Y4227D01*
X54334Y4262D01*
X54259Y4296D01*
X54232Y4302D01*
X54211Y4316D01*
X54204Y4323D01*
X54197D01*
X54067Y4405D01*
X53958Y4494D01*
X53863Y4583D01*
X53787Y4671D01*
X53726Y4753D01*
X53678Y4815D01*
X53651Y4862D01*
X53644Y4869D01*
Y4876D01*
X53583Y5020D01*
X53535Y5184D01*
X53501Y5347D01*
X53473Y5505D01*
X53466Y5580D01*
X53460Y5648D01*
Y5709D01*
X53453Y5764D01*
Y5805D01*
Y5839D01*
Y5860D01*
Y5866D01*
X53460Y6010D01*
X53473Y6140D01*
X53494Y6269D01*
X53521Y6386D01*
X53555Y6495D01*
X53589Y6590D01*
X53630Y6686D01*
X53665Y6768D01*
X53706Y6836D01*
X53746Y6905D01*
X53781Y6959D01*
X53815Y7000D01*
X53842Y7034D01*
X53863Y7062D01*
X53876Y7075D01*
X53883Y7082D01*
X53965Y7157D01*
X54054Y7226D01*
X54143Y7287D01*
X54232Y7342D01*
X54327Y7383D01*
X54416Y7417D01*
X54587Y7472D01*
X54669Y7492D01*
X54744Y7506D01*
X54805Y7513D01*
X54867Y7519D01*
X54914Y7526D01*
X54976D01*
X55085Y7519D01*
D02*
G37*
G36*
X50748Y7075D02*
X50803Y7144D01*
X50864Y7212D01*
X50933Y7267D01*
X50987Y7308D01*
X51042Y7349D01*
X51083Y7376D01*
X51110Y7390D01*
X51124Y7396D01*
X51213Y7437D01*
X51301Y7472D01*
X51390Y7492D01*
X51465Y7513D01*
X51540Y7519D01*
X51595Y7526D01*
X51643D01*
X51786Y7519D01*
X51923Y7492D01*
X52046Y7458D01*
X52155Y7424D01*
X52244Y7383D01*
X52312Y7349D01*
X52353Y7321D01*
X52360Y7315D01*
X52367D01*
X52483Y7226D01*
X52579Y7130D01*
X52661Y7028D01*
X52729Y6925D01*
X52784Y6836D01*
X52818Y6768D01*
X52831Y6741D01*
X52845Y6720D01*
X52852Y6707D01*
Y6700D01*
X52906Y6549D01*
X52941Y6392D01*
X52968Y6249D01*
X52988Y6112D01*
X53002Y5996D01*
Y5942D01*
X53009Y5901D01*
Y5866D01*
Y5839D01*
Y5825D01*
Y5819D01*
X53002Y5634D01*
X52982Y5470D01*
X52954Y5320D01*
X52920Y5190D01*
X52886Y5081D01*
X52872Y5033D01*
X52859Y4999D01*
X52845Y4972D01*
X52838Y4951D01*
X52831Y4938D01*
Y4931D01*
X52756Y4794D01*
X52681Y4678D01*
X52592Y4576D01*
X52517Y4494D01*
X52442Y4425D01*
X52387Y4378D01*
X52346Y4343D01*
X52340Y4337D01*
X52333D01*
X52210Y4268D01*
X52080Y4214D01*
X51964Y4180D01*
X51848Y4152D01*
X51759Y4138D01*
X51684Y4132D01*
X51657Y4125D01*
X51616D01*
X51506Y4132D01*
X51404Y4145D01*
X51308Y4166D01*
X51219Y4200D01*
X51144Y4234D01*
X51069Y4275D01*
X51001Y4323D01*
X50939Y4364D01*
X50885Y4412D01*
X50837Y4453D01*
X50796Y4494D01*
X50769Y4528D01*
X50741Y4562D01*
X50721Y4583D01*
X50714Y4596D01*
X50707Y4603D01*
Y4200D01*
X50195D01*
Y8687D01*
X50748D01*
Y7075D01*
D02*
G37*
G36*
X24439Y4200D02*
X23811D01*
Y4828D01*
X24439D01*
Y4200D01*
D02*
G37*
G36*
X29664D02*
X29036D01*
Y4828D01*
X29664D01*
Y4200D01*
D02*
G37*
G36*
X45851D02*
X45298D01*
Y8687D01*
X45851D01*
Y4200D01*
D02*
G37*
G36*
X70200Y5778D02*
Y5272D01*
X68253D01*
Y4200D01*
X67700D01*
Y5272D01*
X67092D01*
Y5778D01*
X67700D01*
Y8681D01*
X68151D01*
X70200Y5778D01*
D02*
G37*
G36*
X49334Y5429D02*
Y5306D01*
X49327Y5204D01*
Y5115D01*
X49321Y5040D01*
X49314Y4986D01*
Y4951D01*
X49307Y4924D01*
Y4917D01*
X49286Y4828D01*
X49259Y4753D01*
X49232Y4685D01*
X49198Y4623D01*
X49177Y4576D01*
X49157Y4535D01*
X49143Y4514D01*
X49136Y4507D01*
X49082Y4446D01*
X49027Y4398D01*
X48965Y4350D01*
X48904Y4309D01*
X48849Y4275D01*
X48808Y4255D01*
X48781Y4241D01*
X48768Y4234D01*
X48672Y4200D01*
X48576Y4173D01*
X48487Y4152D01*
X48406Y4138D01*
X48330Y4132D01*
X48276Y4125D01*
X48228D01*
X48112Y4132D01*
X47996Y4145D01*
X47893Y4173D01*
X47791Y4214D01*
X47702Y4255D01*
X47613Y4296D01*
X47538Y4350D01*
X47470Y4398D01*
X47408Y4446D01*
X47354Y4501D01*
X47306Y4541D01*
X47265Y4589D01*
X47238Y4623D01*
X47217Y4651D01*
X47203Y4664D01*
X47197Y4671D01*
Y4200D01*
X46705D01*
Y7451D01*
X47258D01*
Y5703D01*
X47265Y5559D01*
X47272Y5429D01*
X47285Y5320D01*
X47306Y5231D01*
X47326Y5156D01*
X47340Y5108D01*
X47347Y5081D01*
X47354Y5067D01*
X47395Y4992D01*
X47436Y4924D01*
X47490Y4862D01*
X47538Y4815D01*
X47586Y4774D01*
X47627Y4746D01*
X47654Y4726D01*
X47661Y4719D01*
X47743Y4678D01*
X47825Y4651D01*
X47900Y4623D01*
X47968Y4610D01*
X48030Y4603D01*
X48078Y4596D01*
X48119D01*
X48207Y4603D01*
X48289Y4617D01*
X48358Y4637D01*
X48419Y4658D01*
X48467Y4678D01*
X48501Y4699D01*
X48528Y4712D01*
X48535Y4719D01*
X48590Y4767D01*
X48638Y4822D01*
X48679Y4883D01*
X48706Y4938D01*
X48726Y4986D01*
X48740Y5026D01*
X48754Y5054D01*
Y5061D01*
X48761Y5129D01*
X48768Y5218D01*
X48774Y5313D01*
Y5409D01*
X48781Y5498D01*
Y5573D01*
Y5600D01*
Y5621D01*
Y5634D01*
Y5641D01*
Y7451D01*
X49334D01*
Y5429D01*
D02*
G37*
G36*
X41473Y2957D02*
X37826D01*
Y3353D01*
X41473D01*
Y2957D01*
D02*
G37*
G36*
X21352Y8598D02*
X21427Y8489D01*
X21509Y8387D01*
X21591Y8291D01*
X21666Y8216D01*
X21727Y8155D01*
X21768Y8114D01*
X21775Y8107D01*
X21782Y8100D01*
X21912Y7991D01*
X22049Y7888D01*
X22185Y7799D01*
X22308Y7724D01*
X22417Y7663D01*
X22465Y7642D01*
X22506Y7622D01*
X22533Y7601D01*
X22561Y7588D01*
X22574Y7581D01*
X22581D01*
Y7041D01*
X22486Y7082D01*
X22383Y7130D01*
X22287Y7171D01*
X22199Y7219D01*
X22124Y7260D01*
X22062Y7294D01*
X22021Y7321D01*
X22014Y7328D01*
X22007D01*
X21891Y7396D01*
X21789Y7472D01*
X21700Y7533D01*
X21625Y7594D01*
X21564Y7642D01*
X21516Y7677D01*
X21488Y7704D01*
X21482Y7711D01*
Y4200D01*
X20928D01*
Y8708D01*
X21290D01*
X21352Y8598D01*
D02*
G37*
G36*
X32089Y8701D02*
X32198Y8694D01*
X32403Y8653D01*
X32492Y8633D01*
X32580Y8605D01*
X32656Y8571D01*
X32724Y8544D01*
X32785Y8510D01*
X32840Y8482D01*
X32888Y8448D01*
X32929Y8428D01*
X32956Y8407D01*
X32976Y8387D01*
X32990Y8380D01*
X32997Y8373D01*
X33065Y8305D01*
X33120Y8236D01*
X33222Y8079D01*
X33298Y7922D01*
X33352Y7765D01*
X33393Y7629D01*
X33400Y7567D01*
X33414Y7513D01*
X33420Y7472D01*
X33427Y7437D01*
Y7417D01*
Y7410D01*
X32860Y7349D01*
X32847Y7499D01*
X32819Y7629D01*
X32785Y7738D01*
X32737Y7834D01*
X32697Y7909D01*
X32656Y7963D01*
X32628Y7991D01*
X32621Y8004D01*
X32526Y8086D01*
X32423Y8148D01*
X32314Y8189D01*
X32212Y8223D01*
X32123Y8236D01*
X32054Y8243D01*
X32027Y8250D01*
X31986D01*
X31850Y8243D01*
X31727Y8216D01*
X31624Y8182D01*
X31535Y8141D01*
X31467Y8093D01*
X31412Y8059D01*
X31385Y8032D01*
X31371Y8025D01*
X31289Y7936D01*
X31235Y7840D01*
X31194Y7752D01*
X31160Y7663D01*
X31146Y7588D01*
X31139Y7526D01*
X31132Y7485D01*
Y7478D01*
Y7472D01*
X31146Y7356D01*
X31173Y7232D01*
X31214Y7123D01*
X31262Y7021D01*
X31310Y6932D01*
X31351Y6864D01*
X31365Y6836D01*
X31378Y6816D01*
X31392Y6809D01*
Y6802D01*
X31447Y6734D01*
X31508Y6659D01*
X31576Y6584D01*
X31658Y6509D01*
X31822Y6351D01*
X31986Y6194D01*
X32136Y6065D01*
X32205Y6003D01*
X32266Y5955D01*
X32314Y5908D01*
X32348Y5880D01*
X32375Y5860D01*
X32382Y5853D01*
X32546Y5709D01*
X32697Y5580D01*
X32819Y5464D01*
X32922Y5368D01*
X33004Y5286D01*
X33059Y5224D01*
X33093Y5184D01*
X33106Y5177D01*
Y5170D01*
X33195Y5061D01*
X33263Y4958D01*
X33332Y4856D01*
X33380Y4767D01*
X33420Y4685D01*
X33448Y4630D01*
X33461Y4589D01*
X33468Y4583D01*
Y4576D01*
X33489Y4507D01*
X33509Y4439D01*
X33516Y4378D01*
X33523Y4323D01*
X33530Y4275D01*
Y4234D01*
Y4207D01*
Y4200D01*
X30559D01*
Y4726D01*
X32765D01*
X32690Y4835D01*
X32614Y4924D01*
X32580Y4965D01*
X32553Y4992D01*
X32539Y5013D01*
X32533Y5020D01*
X32498Y5054D01*
X32464Y5088D01*
X32375Y5170D01*
X32266Y5266D01*
X32164Y5361D01*
X32061Y5450D01*
X31979Y5518D01*
X31945Y5545D01*
X31918Y5566D01*
X31904Y5580D01*
X31897Y5587D01*
X31788Y5682D01*
X31692Y5764D01*
X31597Y5846D01*
X31515Y5921D01*
X31440Y5996D01*
X31371Y6058D01*
X31303Y6119D01*
X31249Y6174D01*
X31201Y6222D01*
X31160Y6263D01*
X31098Y6324D01*
X31064Y6365D01*
X31050Y6379D01*
X30962Y6488D01*
X30880Y6584D01*
X30818Y6679D01*
X30770Y6761D01*
X30729Y6830D01*
X30702Y6877D01*
X30689Y6911D01*
X30682Y6925D01*
X30641Y7021D01*
X30613Y7116D01*
X30593Y7205D01*
X30579Y7287D01*
X30572Y7356D01*
X30566Y7410D01*
Y7444D01*
Y7458D01*
X30572Y7553D01*
X30579Y7649D01*
X30627Y7820D01*
X30689Y7970D01*
X30757Y8100D01*
X30825Y8202D01*
X30859Y8243D01*
X30887Y8284D01*
X30914Y8312D01*
X30934Y8332D01*
X30941Y8339D01*
X30948Y8346D01*
X31023Y8407D01*
X31098Y8469D01*
X31180Y8517D01*
X31269Y8557D01*
X31440Y8619D01*
X31604Y8660D01*
X31679Y8681D01*
X31747Y8687D01*
X31809Y8694D01*
X31863Y8701D01*
X31911Y8708D01*
X31973D01*
X32089Y8701D01*
D02*
G37*
G36*
X26946Y8694D02*
X27103Y8667D01*
X27246Y8626D01*
X27362Y8578D01*
X27458Y8523D01*
X27526Y8482D01*
X27553Y8469D01*
X27574Y8455D01*
X27581Y8441D01*
X27588D01*
X27704Y8332D01*
X27799Y8216D01*
X27881Y8093D01*
X27950Y7970D01*
X28004Y7861D01*
X28025Y7813D01*
X28038Y7772D01*
X28052Y7738D01*
X28066Y7711D01*
X28073Y7697D01*
Y7690D01*
X28100Y7594D01*
X28127Y7499D01*
X28161Y7287D01*
X28189Y7075D01*
X28209Y6870D01*
X28216Y6775D01*
X28223Y6686D01*
Y6611D01*
X28230Y6543D01*
Y6488D01*
Y6447D01*
Y6420D01*
Y6413D01*
X28223Y6188D01*
X28209Y5969D01*
X28189Y5778D01*
X28161Y5593D01*
X28127Y5429D01*
X28093Y5279D01*
X28052Y5142D01*
X28011Y5026D01*
X27970Y4917D01*
X27929Y4828D01*
X27895Y4753D01*
X27861Y4692D01*
X27834Y4644D01*
X27813Y4610D01*
X27799Y4589D01*
X27793Y4583D01*
X27717Y4501D01*
X27642Y4432D01*
X27560Y4371D01*
X27472Y4316D01*
X27390Y4275D01*
X27301Y4234D01*
X27137Y4180D01*
X27062Y4166D01*
X26993Y4152D01*
X26932Y4138D01*
X26877Y4132D01*
X26829Y4125D01*
X26768D01*
X26590Y4138D01*
X26433Y4166D01*
X26297Y4207D01*
X26174Y4255D01*
X26085Y4302D01*
X26010Y4343D01*
X25989Y4364D01*
X25969Y4371D01*
X25962Y4384D01*
X25955D01*
X25839Y4494D01*
X25743Y4617D01*
X25662Y4740D01*
X25593Y4862D01*
X25539Y4972D01*
X25518Y5013D01*
X25498Y5054D01*
X25484Y5088D01*
X25477Y5115D01*
X25470Y5129D01*
Y5136D01*
X25443Y5231D01*
X25416Y5327D01*
X25375Y5539D01*
X25347Y5750D01*
X25327Y5955D01*
X25320Y6051D01*
X25313Y6140D01*
Y6215D01*
X25306Y6283D01*
Y6338D01*
Y6379D01*
Y6406D01*
Y6413D01*
X25313Y6652D01*
Y6754D01*
X25320Y6857D01*
X25327Y6953D01*
X25341Y7041D01*
X25347Y7116D01*
X25354Y7192D01*
X25368Y7253D01*
X25375Y7315D01*
X25381Y7362D01*
X25395Y7396D01*
X25402Y7431D01*
Y7451D01*
X25409Y7465D01*
Y7472D01*
X25450Y7615D01*
X25498Y7745D01*
X25545Y7861D01*
X25586Y7957D01*
X25627Y8032D01*
X25662Y8093D01*
X25682Y8127D01*
X25689Y8141D01*
X25757Y8236D01*
X25832Y8319D01*
X25907Y8394D01*
X25976Y8455D01*
X26044Y8496D01*
X26092Y8530D01*
X26126Y8551D01*
X26140Y8557D01*
X26242Y8605D01*
X26351Y8646D01*
X26461Y8674D01*
X26556Y8687D01*
X26638Y8701D01*
X26707Y8708D01*
X26768D01*
X26946Y8694D01*
D02*
G37*
G36*
X64463Y8749D02*
X64681Y8721D01*
X64886Y8674D01*
X64975Y8646D01*
X65057Y8626D01*
X65132Y8598D01*
X65200Y8571D01*
X65262Y8551D01*
X65310Y8523D01*
X65344Y8510D01*
X65378Y8496D01*
X65392Y8482D01*
X65399D01*
X65494Y8428D01*
X65576Y8366D01*
X65740Y8236D01*
X65870Y8100D01*
X65986Y7963D01*
X66068Y7834D01*
X66102Y7786D01*
X66136Y7738D01*
X66157Y7697D01*
X66170Y7670D01*
X66184Y7649D01*
Y7642D01*
X66273Y7431D01*
X66341Y7212D01*
X66389Y7007D01*
X66423Y6816D01*
X66437Y6734D01*
X66444Y6659D01*
X66450Y6590D01*
Y6529D01*
X66457Y6481D01*
Y6447D01*
Y6427D01*
Y6420D01*
X66444Y6181D01*
X66416Y5955D01*
X66368Y5750D01*
X66348Y5655D01*
X66321Y5573D01*
X66293Y5491D01*
X66273Y5423D01*
X66245Y5361D01*
X66225Y5313D01*
X66211Y5272D01*
X66198Y5245D01*
X66184Y5224D01*
Y5218D01*
X66068Y5033D01*
X65938Y4869D01*
X65808Y4726D01*
X65672Y4610D01*
X65556Y4521D01*
X65508Y4487D01*
X65460Y4459D01*
X65426Y4432D01*
X65392Y4419D01*
X65378Y4412D01*
X65371Y4405D01*
X65166Y4309D01*
X64955Y4241D01*
X64757Y4193D01*
X64565Y4159D01*
X64483Y4145D01*
X64408Y4138D01*
X64340Y4132D01*
X64278D01*
X64231Y4125D01*
X64169D01*
X63991Y4132D01*
X63814Y4152D01*
X63657Y4180D01*
X63513Y4214D01*
X63452Y4227D01*
X63390Y4241D01*
X63343Y4255D01*
X63302Y4268D01*
X63268Y4282D01*
X63240Y4289D01*
X63227Y4296D01*
X63220D01*
X63049Y4371D01*
X62878Y4453D01*
X62728Y4541D01*
X62591Y4623D01*
X62475Y4705D01*
X62428Y4733D01*
X62387Y4767D01*
X62352Y4787D01*
X62332Y4808D01*
X62318Y4815D01*
X62311Y4822D01*
Y6488D01*
X64210D01*
Y5962D01*
X62892D01*
Y5115D01*
X62974Y5054D01*
X63063Y4992D01*
X63151Y4938D01*
X63240Y4890D01*
X63322Y4849D01*
X63390Y4822D01*
X63418Y4808D01*
X63438Y4801D01*
X63445Y4794D01*
X63452D01*
X63589Y4746D01*
X63725Y4712D01*
X63855Y4685D01*
X63964Y4671D01*
X64060Y4658D01*
X64135Y4651D01*
X64203D01*
X64367Y4658D01*
X64524Y4678D01*
X64661Y4712D01*
X64791Y4746D01*
X64893Y4781D01*
X64941Y4801D01*
X64975Y4815D01*
X65002Y4822D01*
X65023Y4835D01*
X65036Y4842D01*
X65043D01*
X65180Y4924D01*
X65303Y5020D01*
X65405Y5122D01*
X65487Y5218D01*
X65549Y5306D01*
X65597Y5375D01*
X65617Y5402D01*
X65631Y5423D01*
X65638Y5436D01*
Y5443D01*
X65706Y5607D01*
X65754Y5771D01*
X65795Y5942D01*
X65815Y6106D01*
X65822Y6174D01*
X65829Y6242D01*
X65836Y6304D01*
Y6351D01*
X65842Y6399D01*
Y6427D01*
Y6447D01*
Y6454D01*
X65836Y6632D01*
X65815Y6802D01*
X65788Y6953D01*
X65754Y7089D01*
X65726Y7198D01*
X65713Y7246D01*
X65699Y7280D01*
X65685Y7315D01*
X65679Y7335D01*
X65672Y7349D01*
Y7356D01*
X65631Y7444D01*
X65590Y7526D01*
X65542Y7601D01*
X65494Y7670D01*
X65453Y7724D01*
X65419Y7765D01*
X65399Y7793D01*
X65392Y7799D01*
X65316Y7875D01*
X65241Y7936D01*
X65159Y7991D01*
X65084Y8038D01*
X65016Y8079D01*
X64961Y8107D01*
X64927Y8120D01*
X64914Y8127D01*
X64798Y8168D01*
X64681Y8202D01*
X64558Y8223D01*
X64449Y8243D01*
X64354Y8250D01*
X64278Y8257D01*
X64210D01*
X64087Y8250D01*
X63971Y8236D01*
X63869Y8216D01*
X63780Y8196D01*
X63705Y8175D01*
X63643Y8155D01*
X63609Y8141D01*
X63595Y8134D01*
X63493Y8086D01*
X63411Y8038D01*
X63336Y7984D01*
X63274Y7936D01*
X63227Y7888D01*
X63192Y7854D01*
X63172Y7827D01*
X63165Y7820D01*
X63111Y7738D01*
X63063Y7649D01*
X63022Y7560D01*
X62988Y7478D01*
X62960Y7396D01*
X62933Y7335D01*
X62926Y7294D01*
X62919Y7287D01*
Y7280D01*
X62380Y7431D01*
X62428Y7594D01*
X62482Y7738D01*
X62537Y7861D01*
X62591Y7963D01*
X62646Y8052D01*
X62687Y8114D01*
X62714Y8148D01*
X62721Y8161D01*
X62810Y8264D01*
X62912Y8346D01*
X63015Y8421D01*
X63117Y8482D01*
X63206Y8537D01*
X63274Y8571D01*
X63302Y8585D01*
X63322Y8592D01*
X63336Y8598D01*
X63343D01*
X63493Y8653D01*
X63643Y8694D01*
X63793Y8721D01*
X63923Y8742D01*
X64039Y8756D01*
X64094D01*
X64135Y8762D01*
X64217D01*
X64463Y8749D01*
D02*
G37*
G36*
X36132Y4200D02*
X35524D01*
X33769Y8687D01*
X34370D01*
X35586Y5429D01*
X35633Y5293D01*
X35681Y5156D01*
X35722Y5033D01*
X35756Y4924D01*
X35784Y4828D01*
X35804Y4753D01*
X35811Y4726D01*
X35818Y4705D01*
X35825Y4699D01*
Y4692D01*
X35900Y4951D01*
X35941Y5074D01*
X35982Y5190D01*
X36016Y5286D01*
X36036Y5361D01*
X36050Y5388D01*
X36057Y5409D01*
X36064Y5423D01*
Y5429D01*
X37225Y8687D01*
X37874D01*
X36132Y4200D01*
D02*
G37*
G36*
X61458D02*
X60884D01*
Y8018D01*
X59593Y4200D01*
X59060D01*
X57749Y7957D01*
Y4200D01*
X57175D01*
Y8687D01*
X57981D01*
X59053Y5566D01*
X59108Y5395D01*
X59163Y5252D01*
X59204Y5129D01*
X59231Y5026D01*
X59258Y4951D01*
X59279Y4897D01*
X59286Y4862D01*
X59293Y4849D01*
X59320Y4938D01*
X59354Y5047D01*
X59388Y5156D01*
X59422Y5266D01*
X59456Y5361D01*
X59484Y5436D01*
X59491Y5470D01*
X59497Y5491D01*
X59504Y5505D01*
Y5511D01*
X60570Y8687D01*
X61458D01*
Y4200D01*
D02*
G37*
%LPC*%
G36*
X68253Y7786D02*
Y5778D01*
X69660D01*
X68253Y7786D01*
D02*
G37*
G36*
X43146Y7075D02*
X43112D01*
X43037Y7069D01*
X42962Y7062D01*
X42832Y7028D01*
X42716Y6973D01*
X42614Y6911D01*
X42538Y6850D01*
X42477Y6802D01*
X42443Y6761D01*
X42429Y6754D01*
Y6748D01*
X42368Y6666D01*
X42327Y6563D01*
X42286Y6461D01*
X42259Y6365D01*
X42238Y6276D01*
X42224Y6201D01*
Y6174D01*
X42217Y6153D01*
Y6140D01*
Y6133D01*
X44034D01*
X44014Y6283D01*
X43980Y6420D01*
X43932Y6536D01*
X43884Y6632D01*
X43836Y6713D01*
X43795Y6768D01*
X43768Y6802D01*
X43754Y6816D01*
X43652Y6905D01*
X43543Y6966D01*
X43440Y7014D01*
X43338Y7041D01*
X43249Y7062D01*
X43174Y7069D01*
X43146Y7075D01*
D02*
G37*
G36*
X55017Y7069D02*
X54901D01*
X54833Y7055D01*
X54703Y7021D01*
X54587Y6966D01*
X54484Y6911D01*
X54409Y6857D01*
X54348Y6802D01*
X54313Y6768D01*
X54300Y6761D01*
Y6754D01*
X54204Y6625D01*
X54136Y6481D01*
X54088Y6324D01*
X54054Y6181D01*
X54033Y6044D01*
X54027Y5990D01*
Y5942D01*
X54020Y5894D01*
Y5866D01*
Y5846D01*
Y5839D01*
Y5723D01*
X54033Y5614D01*
X54047Y5511D01*
X54061Y5423D01*
X54081Y5334D01*
X54109Y5252D01*
X54129Y5184D01*
X54156Y5122D01*
X54184Y5067D01*
X54204Y5020D01*
X54232Y4979D01*
X54252Y4944D01*
X54266Y4917D01*
X54279Y4897D01*
X54293Y4890D01*
Y4883D01*
X54348Y4828D01*
X54402Y4781D01*
X54511Y4705D01*
X54628Y4651D01*
X54737Y4617D01*
X54833Y4589D01*
X54908Y4583D01*
X54935Y4576D01*
X54976D01*
X55051Y4583D01*
X55126Y4589D01*
X55256Y4623D01*
X55379Y4671D01*
X55475Y4733D01*
X55556Y4787D01*
X55618Y4835D01*
X55652Y4869D01*
X55666Y4883D01*
X55714Y4944D01*
X55755Y5013D01*
X55823Y5163D01*
X55864Y5320D01*
X55898Y5470D01*
X55919Y5607D01*
X55925Y5668D01*
Y5716D01*
X55932Y5757D01*
Y5791D01*
Y5812D01*
Y5819D01*
Y5935D01*
X55919Y6037D01*
X55905Y6140D01*
X55891Y6228D01*
X55871Y6317D01*
X55850Y6392D01*
X55823Y6461D01*
X55796Y6522D01*
X55775Y6577D01*
X55748Y6625D01*
X55727Y6666D01*
X55707Y6700D01*
X55693Y6720D01*
X55679Y6741D01*
X55666Y6754D01*
X55611Y6809D01*
X55556Y6857D01*
X55440Y6939D01*
X55324Y6994D01*
X55215Y7028D01*
X55119Y7055D01*
X55044Y7062D01*
X55017Y7069D01*
D02*
G37*
G36*
X26809Y8250D02*
X26775D01*
X26707Y8243D01*
X26638Y8236D01*
X26515Y8196D01*
X26406Y8134D01*
X26310Y8066D01*
X26235Y7998D01*
X26181Y7936D01*
X26147Y7895D01*
X26133Y7888D01*
Y7881D01*
X26085Y7806D01*
X26044Y7717D01*
X26010Y7615D01*
X25983Y7499D01*
X25935Y7260D01*
X25907Y7014D01*
X25894Y6891D01*
X25887Y6782D01*
X25880Y6679D01*
Y6590D01*
X25873Y6515D01*
Y6461D01*
Y6427D01*
Y6413D01*
Y6215D01*
X25887Y6030D01*
X25894Y5866D01*
X25914Y5716D01*
X25935Y5580D01*
X25955Y5457D01*
X25976Y5354D01*
X26003Y5259D01*
X26030Y5184D01*
X26051Y5115D01*
X26071Y5054D01*
X26092Y5013D01*
X26105Y4979D01*
X26119Y4958D01*
X26133Y4944D01*
Y4938D01*
X26181Y4876D01*
X26235Y4822D01*
X26290Y4767D01*
X26345Y4726D01*
X26447Y4664D01*
X26550Y4623D01*
X26638Y4596D01*
X26707Y4583D01*
X26734Y4576D01*
X26768D01*
X26836Y4583D01*
X26905Y4589D01*
X27028Y4630D01*
X27137Y4692D01*
X27233Y4760D01*
X27308Y4822D01*
X27362Y4883D01*
X27396Y4924D01*
X27410Y4931D01*
Y4938D01*
X27451Y5013D01*
X27492Y5108D01*
X27526Y5211D01*
X27553Y5320D01*
X27601Y5566D01*
X27629Y5812D01*
X27642Y5928D01*
X27649Y6044D01*
X27656Y6146D01*
Y6235D01*
X27663Y6311D01*
Y6365D01*
Y6399D01*
Y6413D01*
Y6611D01*
X27649Y6795D01*
X27635Y6959D01*
X27622Y7110D01*
X27595Y7253D01*
X27574Y7376D01*
X27547Y7485D01*
X27519Y7581D01*
X27499Y7663D01*
X27472Y7738D01*
X27444Y7793D01*
X27424Y7840D01*
X27410Y7875D01*
X27396Y7902D01*
X27383Y7915D01*
Y7922D01*
X27342Y7977D01*
X27294Y8032D01*
X27191Y8114D01*
X27089Y8168D01*
X26993Y8209D01*
X26905Y8236D01*
X26836Y8243D01*
X26809Y8250D01*
D02*
G37*
G36*
X51622Y7069D02*
X51520D01*
X51452Y7055D01*
X51329Y7021D01*
X51219Y6966D01*
X51131Y6911D01*
X51056Y6857D01*
X51001Y6802D01*
X50967Y6768D01*
X50953Y6761D01*
Y6754D01*
X50905Y6693D01*
X50864Y6625D01*
X50803Y6468D01*
X50755Y6304D01*
X50728Y6146D01*
X50707Y5996D01*
X50700Y5935D01*
Y5880D01*
X50694Y5832D01*
Y5798D01*
Y5778D01*
Y5771D01*
Y5662D01*
X50707Y5559D01*
X50714Y5464D01*
X50735Y5375D01*
X50755Y5293D01*
X50775Y5218D01*
X50796Y5149D01*
X50817Y5095D01*
X50844Y5040D01*
X50864Y4992D01*
X50885Y4958D01*
X50905Y4924D01*
X50926Y4904D01*
X50933Y4883D01*
X50946Y4876D01*
Y4869D01*
X50994Y4815D01*
X51042Y4774D01*
X51151Y4699D01*
X51254Y4651D01*
X51349Y4610D01*
X51431Y4589D01*
X51499Y4583D01*
X51527Y4576D01*
X51561D01*
X51629Y4583D01*
X51691Y4589D01*
X51814Y4623D01*
X51916Y4671D01*
X52005Y4733D01*
X52080Y4787D01*
X52135Y4835D01*
X52169Y4869D01*
X52183Y4883D01*
X52230Y4944D01*
X52271Y5013D01*
X52333Y5156D01*
X52381Y5313D01*
X52408Y5464D01*
X52428Y5607D01*
X52435Y5662D01*
Y5716D01*
X52442Y5757D01*
Y5791D01*
Y5812D01*
Y5819D01*
Y5935D01*
X52428Y6044D01*
X52421Y6146D01*
X52401Y6242D01*
X52387Y6324D01*
X52367Y6406D01*
X52340Y6474D01*
X52319Y6536D01*
X52299Y6590D01*
X52271Y6638D01*
X52251Y6679D01*
X52237Y6713D01*
X52217Y6734D01*
X52210Y6754D01*
X52196Y6768D01*
X52148Y6823D01*
X52100Y6870D01*
X51998Y6939D01*
X51896Y6994D01*
X51800Y7034D01*
X51718Y7055D01*
X51650Y7062D01*
X51622Y7069D01*
D02*
G37*
%LPD*%
D28*
X20500Y26000D02*
Y126000D01*
X500Y26000D02*
X20224D01*
X500D02*
Y126000D01*
X20224D01*
X196350Y36000D02*
Y126000D01*
X176350Y36000D02*
X196075D01*
X176350D02*
Y126000D01*
X196075D01*
X73118Y112965D02*
X82567D01*
X73118Y133437D02*
X82567D01*
Y112965D02*
Y133437D01*
X73118Y112965D02*
Y133437D01*
D30*
X77984Y67583D02*
Y107953D01*
X118354D01*
Y67583D02*
Y107953D01*
X77984Y67583D02*
X118354D01*
X84890Y74488D02*
X111449D01*
X111449Y74488D02*
Y101047D01*
X84890D02*
X111449D01*
X84890Y74488D02*
Y101047D01*
X74547Y150594D02*
X80453D01*
Y162406D01*
X74547D02*
X80453D01*
X74547Y150594D02*
Y162406D01*
X156437Y3700D02*
Y25800D01*
X168248D01*
Y3700D02*
Y25800D01*
X156437Y5100D02*
X168248D01*
X156437Y3700D02*
X168248D01*
X136343Y125094D02*
Y136906D01*
X134942Y125094D02*
Y136906D01*
X114242D02*
X136343D01*
X114242Y125094D02*
Y136906D01*
Y125094D02*
X136343D01*
X52943Y29300D02*
X53543Y29900D01*
X55343D01*
X55942Y29300D01*
X52943Y22200D02*
X55942D01*
Y29257D01*
X52943Y22200D02*
Y29257D01*
X53043Y29400D02*
X55843D01*
X53043Y49700D02*
X55843D01*
X52943Y42500D02*
Y49557D01*
X55942Y42500D02*
Y49557D01*
X52943Y42500D02*
X55942D01*
X55343Y50200D02*
X55942Y49600D01*
X53543Y50200D02*
X55343D01*
X52943Y49600D02*
X53543Y50200D01*
X52943Y40048D02*
X53543Y40648D01*
X55343D01*
X55942Y40048D01*
X52943Y32948D02*
X55942D01*
Y40005D01*
X52943Y32948D02*
Y40005D01*
X53043Y40148D02*
X55843D01*
X52943Y20400D02*
X55743D01*
X52842Y13200D02*
Y20257D01*
X55843Y13200D02*
Y20257D01*
X52842Y13200D02*
X55843D01*
X55243Y20900D02*
X55843Y20300D01*
X53443Y20900D02*
X55243D01*
X52842Y20300D02*
X53443Y20900D01*
X42737Y140795D02*
Y150394D01*
X53237Y140894D02*
Y150294D01*
X42737Y140795D02*
X53237D01*
X42737Y150394D02*
X53237D01*
X33337Y127694D02*
X33937Y128295D01*
X31537Y127694D02*
X33337D01*
X30937Y128295D02*
X31537Y127694D01*
X30937Y135395D02*
X33937D01*
X30937Y128338D02*
Y135395D01*
X33937Y128338D02*
Y135395D01*
X31037Y128194D02*
X33837D01*
X42737Y125000D02*
Y134600D01*
X53237Y125100D02*
Y134500D01*
X42737Y125000D02*
X53237D01*
X42737Y134600D02*
X53237D01*
X31037Y144194D02*
X33837D01*
X33937Y144338D02*
Y151394D01*
X30937Y144338D02*
Y151394D01*
X33937D01*
X30937Y144295D02*
X31537Y143694D01*
X33337D01*
X33937Y144295D01*
X98027Y167867D02*
X97444Y168451D01*
Y169617D01*
X98027Y170200D01*
X100359D01*
X100943Y169617D01*
Y168451D01*
X100359Y167867D01*
X100943Y164952D02*
X97444D01*
X99193Y166701D01*
Y164369D01*
X98277Y148067D02*
X97744Y148600D01*
Y149667D01*
X98277Y150200D01*
X100409D01*
X100943Y149667D01*
Y148600D01*
X100409Y148067D01*
X98277Y147001D02*
X97744Y146468D01*
Y145402D01*
X98277Y144868D01*
X98810D01*
X99343Y145402D01*
Y145935D01*
Y145402D01*
X99876Y144868D01*
X100409D01*
X100943Y145402D01*
Y146468D01*
X100409Y147001D01*
X71000Y70300D02*
Y73799D01*
X69251D01*
X68667Y73216D01*
Y72049D01*
X69251Y71466D01*
X71000D01*
X69834D02*
X68667Y70300D01*
X67501Y73216D02*
X66918Y73799D01*
X65752D01*
X65169Y73216D01*
Y72633D01*
X65752Y72049D01*
X66335D01*
X65752D01*
X65169Y71466D01*
Y70883D01*
X65752Y70300D01*
X66918D01*
X67501Y70883D01*
X64002Y70300D02*
X62836D01*
X63419D01*
Y73799D01*
X64002Y73216D01*
X58000Y70500D02*
Y73999D01*
X56251D01*
X55667Y73416D01*
Y72249D01*
X56251Y71666D01*
X58000D01*
X56834D02*
X55667Y70500D01*
X54501Y73416D02*
X53918Y73999D01*
X52752D01*
X52169Y73416D01*
Y72833D01*
X52752Y72249D01*
X53335D01*
X52752D01*
X52169Y71666D01*
Y71083D01*
X52752Y70500D01*
X53918D01*
X54501Y71083D01*
X51002Y73416D02*
X50419Y73999D01*
X49253D01*
X48670Y73416D01*
Y71083D01*
X49253Y70500D01*
X50419D01*
X51002Y71083D01*
Y73416D01*
X71000Y53000D02*
Y56199D01*
X69401D01*
X68867Y55666D01*
Y54599D01*
X69401Y54066D01*
X71000D01*
X69934D02*
X68867Y53000D01*
X65668D02*
X67801D01*
X65668Y55133D01*
Y55666D01*
X66202Y56199D01*
X67268D01*
X67801Y55666D01*
X64602Y53533D02*
X64069Y53000D01*
X63003D01*
X62469Y53533D01*
Y55666D01*
X63003Y56199D01*
X64069D01*
X64602Y55666D01*
Y55133D01*
X64069Y54599D01*
X62469D01*
X58000Y53100D02*
Y56599D01*
X56251D01*
X55667Y56016D01*
Y54849D01*
X56251Y54266D01*
X58000D01*
X56834D02*
X55667Y53100D01*
X52169D02*
X54501D01*
X52169Y55433D01*
Y56016D01*
X52752Y56599D01*
X53918D01*
X54501Y56016D01*
X51002D02*
X50419Y56599D01*
X49253D01*
X48670Y56016D01*
Y55433D01*
X49253Y54849D01*
X48670Y54266D01*
Y53683D01*
X49253Y53100D01*
X50419D01*
X51002Y53683D01*
Y54266D01*
X50419Y54849D01*
X51002Y55433D01*
Y56016D01*
X50419Y54849D02*
X49253D01*
X129067Y82316D02*
X129651Y82899D01*
X130817D01*
X131400Y82316D01*
Y79983D01*
X130817Y79400D01*
X129651D01*
X129067Y79983D01*
X127901Y82316D02*
X127318Y82899D01*
X126152D01*
X125569Y82316D01*
Y81733D01*
X126152Y81149D01*
X126735D01*
X126152D01*
X125569Y80566D01*
Y79983D01*
X126152Y79400D01*
X127318D01*
X127901Y79983D01*
X122070Y82899D02*
X123236Y82316D01*
X124402Y81149D01*
Y79983D01*
X123819Y79400D01*
X122653D01*
X122070Y79983D01*
Y80566D01*
X122653Y81149D01*
X124402D01*
X62984Y105767D02*
X62401Y106351D01*
Y107517D01*
X62984Y108100D01*
X65317D01*
X65900Y107517D01*
Y106351D01*
X65317Y105767D01*
X62984Y104601D02*
X62401Y104018D01*
Y102852D01*
X62984Y102269D01*
X63567D01*
X64151Y102852D01*
Y103435D01*
Y102852D01*
X64734Y102269D01*
X65317D01*
X65900Y102852D01*
Y104018D01*
X65317Y104601D01*
X62401Y98770D02*
Y101102D01*
X64151D01*
X63567Y99936D01*
Y99353D01*
X64151Y98770D01*
X65317D01*
X65900Y99353D01*
Y100519D01*
X65317Y101102D01*
X175000Y41900D02*
X171501D01*
Y40151D01*
X172084Y39567D01*
X173251D01*
X173834Y40151D01*
Y41900D01*
Y40734D02*
X175000Y39567D01*
Y36068D02*
Y38401D01*
X172667Y36068D01*
X172084D01*
X171501Y36652D01*
Y37818D01*
X172084Y38401D01*
X171501Y34902D02*
Y32570D01*
X172084D01*
X174417Y34902D01*
X175000D01*
X168550Y26800D02*
Y30299D01*
X166801D01*
X166218Y29716D01*
Y28549D01*
X166801Y27966D01*
X168550D01*
X167384D02*
X166218Y26800D01*
X162719D02*
X165051D01*
X162719Y29133D01*
Y29716D01*
X163302Y30299D01*
X164468D01*
X165051Y29716D01*
X159220Y30299D02*
X160386Y29716D01*
X161553Y28549D01*
Y27383D01*
X160969Y26800D01*
X159803D01*
X159220Y27383D01*
Y27966D01*
X159803Y28549D01*
X161553D01*
X97185Y112499D02*
Y111916D01*
X96019Y110749D01*
X94853Y111916D01*
Y112499D01*
X96019Y110749D02*
Y109000D01*
X91354D02*
X93686D01*
X91354Y111333D01*
Y111916D01*
X91937Y112499D01*
X93103D01*
X93686Y111916D01*
X81500Y137999D02*
Y137416D01*
X80334Y136249D01*
X79167Y137416D01*
Y137999D01*
X80334Y136249D02*
Y134500D01*
X78001D02*
X76835D01*
X77418D01*
Y137999D01*
X78001Y137416D01*
X80000Y166999D02*
Y164083D01*
X79417Y163500D01*
X78251D01*
X77667Y164083D01*
Y166999D01*
X76501Y166416D02*
X75918Y166999D01*
X74752D01*
X74169Y166416D01*
Y165833D01*
X74752Y165249D01*
X75335D01*
X74752D01*
X74169Y164666D01*
Y164083D01*
X74752Y163500D01*
X75918D01*
X76501Y164083D01*
X66333Y139084D02*
X65749Y138501D01*
X64583D01*
X64000Y139084D01*
Y141417D01*
X64583Y142000D01*
X65749D01*
X66333Y141417D01*
X67499Y139084D02*
X68082Y138501D01*
X69248D01*
X69831Y139084D01*
Y139667D01*
X69248Y140251D01*
X68665D01*
X69248D01*
X69831Y140834D01*
Y141417D01*
X69248Y142000D01*
X68082D01*
X67499Y141417D01*
X70998Y139084D02*
X71581Y138501D01*
X72747D01*
X73330Y139084D01*
Y139667D01*
X72747Y140251D01*
X72164D01*
X72747D01*
X73330Y140834D01*
Y141417D01*
X72747Y142000D01*
X71581D01*
X70998Y141417D01*
X69367Y167166D02*
X69901Y167699D01*
X70967D01*
X71500Y167166D01*
Y165033D01*
X70967Y164500D01*
X69901D01*
X69367Y165033D01*
X68301Y167166D02*
X67768Y167699D01*
X66702D01*
X66168Y167166D01*
Y166633D01*
X66702Y166100D01*
X67235D01*
X66702D01*
X66168Y165566D01*
Y165033D01*
X66702Y164500D01*
X67768D01*
X68301Y165033D01*
X62969Y164500D02*
X65102D01*
X62969Y166633D01*
Y167166D01*
X63503Y167699D01*
X64569D01*
X65102Y167166D01*
X92167Y136916D02*
X92751Y137499D01*
X93917D01*
X94500Y136916D01*
Y134583D01*
X93917Y134000D01*
X92751D01*
X92167Y134583D01*
X91001Y136916D02*
X90418Y137499D01*
X89252D01*
X88669Y136916D01*
Y136333D01*
X89252Y135749D01*
X89835D01*
X89252D01*
X88669Y135166D01*
Y134583D01*
X89252Y134000D01*
X90418D01*
X91001Y134583D01*
X87502Y134000D02*
X86336D01*
X86919D01*
Y137499D01*
X87502Y136916D01*
X65167Y135916D02*
X65751Y136499D01*
X66917D01*
X67500Y135916D01*
Y133583D01*
X66917Y133000D01*
X65751D01*
X65167Y133583D01*
X61669Y133000D02*
X64001D01*
X61669Y135333D01*
Y135916D01*
X62252Y136499D01*
X63418D01*
X64001Y135916D01*
X60502Y133583D02*
X59919Y133000D01*
X58753D01*
X58170Y133583D01*
Y135916D01*
X58753Y136499D01*
X59919D01*
X60502Y135916D01*
Y135333D01*
X59919Y134749D01*
X58170D01*
X62767Y123516D02*
X63351Y124099D01*
X64517D01*
X65100Y123516D01*
Y121183D01*
X64517Y120600D01*
X63351D01*
X62767Y121183D01*
X59269Y120600D02*
X61601D01*
X59269Y122933D01*
Y123516D01*
X59852Y124099D01*
X61018D01*
X61601Y123516D01*
X58102D02*
X57519Y124099D01*
X56353D01*
X55770Y123516D01*
Y122933D01*
X56353Y122349D01*
X55770Y121766D01*
Y121183D01*
X56353Y120600D01*
X57519D01*
X58102Y121183D01*
Y121766D01*
X57519Y122349D01*
X58102Y122933D01*
Y123516D01*
X57519Y122349D02*
X56353D01*
X106167Y133916D02*
X106751Y134499D01*
X107917D01*
X108500Y133916D01*
Y131583D01*
X107917Y131000D01*
X106751D01*
X106167Y131583D01*
X102669Y131000D02*
X105001D01*
X102669Y133333D01*
Y133916D01*
X103252Y134499D01*
X104418D01*
X105001Y133916D01*
X101502Y134499D02*
X99170D01*
Y133916D01*
X101502Y131583D01*
Y131000D01*
X58867Y167166D02*
X59400Y167699D01*
X60467D01*
X61000Y167166D01*
Y165033D01*
X60467Y164500D01*
X59400D01*
X58867Y165033D01*
X55668Y164500D02*
X57801D01*
X55668Y166633D01*
Y167166D01*
X56201Y167699D01*
X57268D01*
X57801Y167166D01*
X53003Y164500D02*
Y167699D01*
X54602Y166100D01*
X52469D01*
X86084Y146267D02*
X85501Y146851D01*
Y148017D01*
X86084Y148600D01*
X88417D01*
X89000Y148017D01*
Y146851D01*
X88417Y146267D01*
X89000Y142769D02*
Y145101D01*
X86667Y142769D01*
X86084D01*
X85501Y143352D01*
Y144518D01*
X86084Y145101D01*
Y141602D02*
X85501Y141019D01*
Y139853D01*
X86084Y139270D01*
X88417D01*
X89000Y139853D01*
Y141019D01*
X88417Y141602D01*
X86084D01*
X93584Y146167D02*
X93001Y146751D01*
Y147917D01*
X93584Y148500D01*
X95917D01*
X96500Y147917D01*
Y146751D01*
X95917Y146167D01*
X96500Y145001D02*
Y143835D01*
Y144418D01*
X93001D01*
X93584Y145001D01*
X95917Y142085D02*
X96500Y141502D01*
Y140336D01*
X95917Y139753D01*
X93584D01*
X93001Y140336D01*
Y141502D01*
X93584Y142085D01*
X94167D01*
X94751Y141502D01*
Y139753D01*
X153850Y26500D02*
Y29999D01*
X152101D01*
X151518Y29416D01*
Y28249D01*
X152101Y27666D01*
X153850D01*
X152684D02*
X151518Y26500D01*
X148019D02*
X150352D01*
X148019Y28833D01*
Y29416D01*
X148602Y29999D01*
X149768D01*
X150352Y29416D01*
X145103Y26500D02*
Y29999D01*
X146853Y28249D01*
X144520D01*
X148100Y43600D02*
Y47099D01*
X146351D01*
X145767Y46516D01*
Y45349D01*
X146351Y44766D01*
X148100D01*
X146934D02*
X145767Y43600D01*
X142269D02*
X144601D01*
X142269Y45933D01*
Y46516D01*
X142852Y47099D01*
X144018D01*
X144601Y46516D01*
X138770Y47099D02*
X141102D01*
Y45349D01*
X139936Y45933D01*
X139353D01*
X138770Y45349D01*
Y44183D01*
X139353Y43600D01*
X140519D01*
X141102Y44183D01*
X186400Y142400D02*
Y145899D01*
X184651D01*
X184067Y145316D01*
Y144149D01*
X184651Y143566D01*
X186400D01*
X185234D02*
X184067Y142400D01*
X181152D02*
Y145899D01*
X182901Y144149D01*
X180569D01*
X174000Y171000D02*
Y174199D01*
X172400D01*
X171867Y173666D01*
Y172599D01*
X172400Y172066D01*
X174000D01*
X172934D02*
X171867Y171000D01*
X170801Y174199D02*
X168668D01*
Y173666D01*
X170801Y171533D01*
Y171000D01*
X184500Y154000D02*
Y157199D01*
X182901D01*
X182367Y156666D01*
Y155599D01*
X182901Y155066D01*
X184500D01*
X183434D02*
X182367Y154000D01*
X179168Y157199D02*
X180235Y156666D01*
X181301Y155599D01*
Y154533D01*
X180768Y154000D01*
X179701D01*
X179168Y154533D01*
Y155066D01*
X179701Y155599D01*
X181301D01*
X184500Y160000D02*
Y163199D01*
X182901D01*
X182367Y162666D01*
Y161600D01*
X182901Y161066D01*
X184500D01*
X183434D02*
X182367Y160000D01*
X179168Y163199D02*
X181301D01*
Y161600D01*
X180235Y162133D01*
X179701D01*
X179168Y161600D01*
Y160533D01*
X179701Y160000D01*
X180768D01*
X181301Y160533D01*
X48900Y21200D02*
Y24699D01*
X47151D01*
X46567Y24116D01*
Y22949D01*
X47151Y22366D01*
X48900D01*
X47734D02*
X46567Y21200D01*
X45401D02*
X44235D01*
X44818D01*
Y24699D01*
X45401Y24116D01*
X42485Y24699D02*
X40153D01*
Y24116D01*
X42485Y21783D01*
Y21200D01*
X30438Y159095D02*
X33937D01*
Y157345D01*
X33354Y156762D01*
X31021D01*
X30438Y157345D01*
Y159095D01*
X33354Y155596D02*
X33937Y155013D01*
Y153846D01*
X33354Y153263D01*
X31021D01*
X30438Y153846D01*
Y155013D01*
X31021Y155596D01*
X31604D01*
X32188Y155013D01*
Y153263D01*
X47801Y20000D02*
X51300D01*
Y18251D01*
X50717Y17667D01*
X48384D01*
X47801Y18251D01*
Y20000D01*
X51300Y16501D02*
Y15335D01*
Y15918D01*
X47801D01*
X48384Y16501D01*
X51300Y13585D02*
Y12419D01*
Y13002D01*
X47801D01*
X48384Y13585D01*
X152000Y122999D02*
Y119500D01*
X150251D01*
X149667Y120083D01*
Y122416D01*
X150251Y122999D01*
X152000D01*
X148501Y119500D02*
X147335D01*
X147918D01*
Y122999D01*
X148501Y122416D01*
X138884Y104967D02*
X138301Y105551D01*
Y106717D01*
X138884Y107300D01*
X141217D01*
X141800Y106717D01*
Y105551D01*
X141217Y104967D01*
X138301Y103801D02*
Y101469D01*
X138884D01*
X141217Y103801D01*
X141800D01*
X126427Y105167D02*
X125844Y105751D01*
Y106917D01*
X126427Y107500D01*
X128759D01*
X129342Y106917D01*
Y105751D01*
X128759Y105167D01*
X125844Y101669D02*
X126427Y102835D01*
X127593Y104001D01*
X128759D01*
X129342Y103418D01*
Y102252D01*
X128759Y101669D01*
X128176D01*
X127593Y102252D01*
Y104001D01*
X132427Y105167D02*
X131844Y105751D01*
Y106917D01*
X132427Y107500D01*
X134759D01*
X135343Y106917D01*
Y105751D01*
X134759Y105167D01*
X131844Y101669D02*
Y104001D01*
X133593D01*
X133010Y102835D01*
Y102252D01*
X133593Y101669D01*
X134759D01*
X135343Y102252D01*
Y103418D01*
X134759Y104001D01*
X50167Y153083D02*
Y155416D01*
X50751Y155999D01*
X51917D01*
X52500Y155416D01*
Y153083D01*
X51917Y152500D01*
X50751D01*
X51334Y153666D02*
X50167Y152500D01*
X50751D02*
X50167Y153083D01*
X47252Y152500D02*
Y155999D01*
X49001Y154249D01*
X46668D01*
X56801Y39700D02*
X60000D01*
Y38100D01*
X59467Y37567D01*
X57334D01*
X56801Y38100D01*
Y39700D01*
X60000Y34901D02*
X56801D01*
X58400Y36501D01*
Y34368D01*
X56801Y49500D02*
X60300D01*
Y47751D01*
X59717Y47167D01*
X57384D01*
X56801Y47751D01*
Y49500D01*
X57384Y46001D02*
X56801Y45418D01*
Y44252D01*
X57384Y43668D01*
X57967D01*
X58551Y44252D01*
Y44835D01*
Y44252D01*
X59134Y43668D01*
X59717D01*
X60300Y44252D01*
Y45418D01*
X59717Y46001D01*
X56744Y29300D02*
X60242D01*
Y27551D01*
X59659Y26967D01*
X57327D01*
X56744Y27551D01*
Y29300D01*
X60242Y23469D02*
Y25801D01*
X57910Y23469D01*
X57327D01*
X56744Y24052D01*
Y25218D01*
X57327Y25801D01*
X147018Y21916D02*
X147601Y22499D01*
X148767D01*
X149350Y21916D01*
Y19583D01*
X148767Y19000D01*
X147601D01*
X147018Y19583D01*
X143519Y19000D02*
X145852D01*
X143519Y21333D01*
Y21916D01*
X144102Y22499D01*
X145268D01*
X145852Y21916D01*
X142353D02*
X141770Y22499D01*
X140603D01*
X140020Y21916D01*
Y21333D01*
X140603Y20749D01*
X141186D01*
X140603D01*
X140020Y20166D01*
Y19583D01*
X140603Y19000D01*
X141770D01*
X142353Y19583D01*
X169935Y22167D02*
X169351Y22751D01*
Y23917D01*
X169935Y24500D01*
X172267D01*
X172850Y23917D01*
Y22751D01*
X172267Y22167D01*
X172850Y18668D02*
Y21001D01*
X170518Y18668D01*
X169935D01*
X169351Y19252D01*
Y20418D01*
X169935Y21001D01*
X172850Y15170D02*
Y17502D01*
X170518Y15170D01*
X169935D01*
X169351Y15753D01*
Y16919D01*
X169935Y17502D01*
X110584Y133167D02*
X110001Y133751D01*
Y134917D01*
X110584Y135500D01*
X112917D01*
X113500Y134917D01*
Y133751D01*
X112917Y133167D01*
X113500Y129669D02*
Y132001D01*
X111167Y129669D01*
X110584D01*
X110001Y130252D01*
Y131418D01*
X110584Y132001D01*
X113500Y128502D02*
Y127336D01*
Y127919D01*
X110001D01*
X110584Y128502D01*
X75927Y40267D02*
X75344Y40851D01*
Y42017D01*
X75927Y42600D01*
X78259D01*
X78843Y42017D01*
Y40851D01*
X78259Y40267D01*
X78843Y39101D02*
Y37935D01*
Y38518D01*
X75344D01*
X75927Y39101D01*
X78843Y33853D02*
Y36185D01*
X76510Y33853D01*
X75927D01*
X75344Y34436D01*
Y35602D01*
X75927Y36185D01*
Y48767D02*
X75344Y49351D01*
Y50517D01*
X75927Y51100D01*
X78259D01*
X78843Y50517D01*
Y49351D01*
X78259Y48767D01*
X78843Y47601D02*
Y46435D01*
Y47018D01*
X75344D01*
X75927Y47601D01*
X78843Y44685D02*
Y43519D01*
Y44102D01*
X75344D01*
X75927Y44685D01*
X76184Y30067D02*
X75601Y30651D01*
Y31817D01*
X76184Y32400D01*
X78517D01*
X79100Y31817D01*
Y30651D01*
X78517Y30067D01*
X79100Y28901D02*
Y27735D01*
Y28318D01*
X75601D01*
X76184Y28901D01*
Y25985D02*
X75601Y25402D01*
Y24236D01*
X76184Y23653D01*
X78517D01*
X79100Y24236D01*
Y25402D01*
X78517Y25985D01*
X76184D01*
X75084Y15367D02*
X74501Y15951D01*
Y17117D01*
X75084Y17700D01*
X77417D01*
X78000Y17117D01*
Y15951D01*
X77417Y15367D01*
Y14201D02*
X78000Y13618D01*
Y12452D01*
X77417Y11869D01*
X75084D01*
X74501Y12452D01*
Y13618D01*
X75084Y14201D01*
X75667D01*
X76251Y13618D01*
Y11869D01*
X182667Y150916D02*
X183251Y151499D01*
X184417D01*
X185000Y150916D01*
Y148583D01*
X184417Y148000D01*
X183251D01*
X182667Y148583D01*
X181501Y150916D02*
X180918Y151499D01*
X179752D01*
X179169Y150916D01*
Y150333D01*
X179752Y149749D01*
X179169Y149166D01*
Y148583D01*
X179752Y148000D01*
X180918D01*
X181501Y148583D01*
Y149166D01*
X180918Y149749D01*
X181501Y150333D01*
Y150916D01*
X180918Y149749D02*
X179752D01*
X57384Y13867D02*
X56801Y14451D01*
Y15617D01*
X57384Y16200D01*
X59717D01*
X60300Y15617D01*
Y14451D01*
X59717Y13867D01*
X60300Y10369D02*
Y12701D01*
X57967Y10369D01*
X57384D01*
X56801Y10952D01*
Y12118D01*
X57384Y12701D01*
X151167Y137916D02*
X151751Y138499D01*
X152917D01*
X153500Y137916D01*
Y135583D01*
X152917Y135000D01*
X151751D01*
X151167Y135583D01*
X150001Y135000D02*
X148835D01*
X149418D01*
Y138499D01*
X150001Y137916D01*
X43384Y66267D02*
X42801Y66851D01*
Y68017D01*
X43384Y68600D01*
X45717D01*
X46300Y68017D01*
Y66851D01*
X45717Y66267D01*
X46300Y62769D02*
Y65101D01*
X43967Y62769D01*
X43384D01*
X42801Y63352D01*
Y64518D01*
X43384Y65101D01*
X42801Y59270D02*
Y61602D01*
X44551D01*
X43967Y60436D01*
Y59853D01*
X44551Y59270D01*
X45717D01*
X46300Y59853D01*
Y61019D01*
X45717Y61602D01*
X191667Y145599D02*
X194000D01*
Y143849D01*
X192834D01*
X194000D01*
Y142100D01*
X190501D02*
X189335D01*
X189918D01*
Y145599D01*
X190501Y145016D01*
X49300Y32000D02*
Y35499D01*
X47551D01*
X46967Y34916D01*
Y33749D01*
X47551Y33166D01*
X49300D01*
X48134D02*
X46967Y32000D01*
X45801D02*
X44635D01*
X45218D01*
Y35499D01*
X45801Y34916D01*
X40553Y35499D02*
X41719Y34916D01*
X42885Y33749D01*
Y32583D01*
X42302Y32000D01*
X41136D01*
X40553Y32583D01*
Y33166D01*
X41136Y33749D01*
X42885D01*
X24938Y150594D02*
X28437D01*
X27271D01*
X24938Y148262D01*
X26688Y150011D01*
X28437Y148262D01*
Y147096D02*
Y145929D01*
Y146512D01*
X24938D01*
X25521Y147096D01*
X31700Y164400D02*
Y167899D01*
X29951D01*
X29367Y167316D01*
Y166149D01*
X29951Y165566D01*
X31700D01*
X30534D02*
X29367Y164400D01*
X25868D02*
X28201D01*
X25868Y166733D01*
Y167316D01*
X26452Y167899D01*
X27618D01*
X28201Y167316D01*
X24702D02*
X24119Y167899D01*
X22953D01*
X22370Y167316D01*
Y164983D01*
X22953Y164400D01*
X24119D01*
X24702Y164983D01*
Y167316D01*
X119501Y115000D02*
X123000D01*
Y112667D01*
X120084Y111501D02*
X119501Y110918D01*
Y109752D01*
X120084Y109169D01*
X120667D01*
X121251Y109752D01*
Y110335D01*
Y109752D01*
X121834Y109169D01*
X122417D01*
X123000Y109752D01*
Y110918D01*
X122417Y111501D01*
X31767Y173016D02*
X32351Y173599D01*
X33517D01*
X34100Y173016D01*
Y170683D01*
X33517Y170100D01*
X32351D01*
X31767Y170683D01*
X30601Y173016D02*
X30018Y173599D01*
X28852D01*
X28269Y173016D01*
Y172433D01*
X28852Y171849D01*
X29435D01*
X28852D01*
X28269Y171266D01*
Y170683D01*
X28852Y170100D01*
X30018D01*
X30601Y170683D01*
X27102Y173016D02*
X26519Y173599D01*
X25353D01*
X24770Y173016D01*
Y170683D01*
X25353Y170100D01*
X26519D01*
X27102Y170683D01*
Y173016D01*
X48100Y41900D02*
Y45099D01*
X46501D01*
X45967Y44566D01*
Y43499D01*
X46501Y42966D01*
X48100D01*
X47034D02*
X45967Y41900D01*
X44901D02*
X43835D01*
X44368D01*
Y45099D01*
X44901Y44566D01*
X42235D02*
X41702Y45099D01*
X40636D01*
X40103Y44566D01*
Y44033D01*
X40636Y43499D01*
X40103Y42966D01*
Y42433D01*
X40636Y41900D01*
X41702D01*
X42235Y42433D01*
Y42966D01*
X41702Y43499D01*
X42235Y44033D01*
Y44566D01*
X41702Y43499D02*
X40636D01*
X34867Y123166D02*
X35401Y123699D01*
X36467D01*
X37000Y123166D01*
Y121033D01*
X36467Y120500D01*
X35401D01*
X34867Y121033D01*
X33801Y123166D02*
X33268Y123699D01*
X32201D01*
X31668Y123166D01*
Y122633D01*
X32201Y122099D01*
X32735D01*
X32201D01*
X31668Y121566D01*
Y121033D01*
X32201Y120500D01*
X33268D01*
X33801Y121033D01*
X30602Y123699D02*
X28469D01*
Y123166D01*
X30602Y121033D01*
Y120500D01*
X47804Y138760D02*
X48338Y139294D01*
X49404D01*
X49937Y138760D01*
Y136628D01*
X49404Y136094D01*
X48338D01*
X47804Y136628D01*
X46738Y138760D02*
X46205Y139294D01*
X45138D01*
X44605Y138760D01*
Y138227D01*
X45138Y137694D01*
X45672D01*
X45138D01*
X44605Y137161D01*
Y136628D01*
X45138Y136094D01*
X46205D01*
X46738Y136628D01*
X41940Y136094D02*
Y139294D01*
X43539Y137694D01*
X41406D01*
X33700Y140099D02*
Y136900D01*
X32100D01*
X31567Y137433D01*
Y139566D01*
X32100Y140099D01*
X33700D01*
X30501Y136900D02*
X29435D01*
X29968D01*
Y140099D01*
X30501Y139566D01*
X25703Y136900D02*
X27835D01*
X25703Y139033D01*
Y139566D01*
X26236Y140099D01*
X27302D01*
X27835Y139566D01*
X56667Y131167D02*
X54534D01*
X54001Y131701D01*
Y132767D01*
X54534Y133300D01*
X56667D01*
X57200Y132767D01*
Y131701D01*
X56134Y132234D02*
X57200Y131167D01*
Y131701D02*
X56667Y131167D01*
X54534Y130101D02*
X54001Y129568D01*
Y128501D01*
X54534Y127968D01*
X55067D01*
X55601Y128501D01*
X56134Y127968D01*
X56667D01*
X57200Y128501D01*
Y129568D01*
X56667Y130101D01*
X56134D01*
X55601Y129568D01*
X55067Y130101D01*
X54534D01*
X55601Y129568D02*
Y128501D01*
X36271Y163962D02*
X35738Y164495D01*
Y165561D01*
X36271Y166095D01*
X38404D01*
X38937Y165561D01*
Y164495D01*
X38404Y163962D01*
X38937Y160763D02*
Y162896D01*
X36804Y160763D01*
X36271D01*
X35738Y161296D01*
Y162362D01*
X36271Y162896D01*
X35738Y157564D02*
X36271Y158630D01*
X37337Y159696D01*
X38404D01*
X38937Y159163D01*
Y158097D01*
X38404Y157564D01*
X37871D01*
X37337Y158097D01*
Y159696D01*
X125800Y94219D02*
Y91304D01*
X125217Y90720D01*
X124051D01*
X123467Y91304D01*
Y94219D01*
X120552Y90720D02*
Y94219D01*
X122301Y92470D01*
X119969D01*
X135567Y69399D02*
X136734D01*
X136151D01*
Y66483D01*
X136734Y65900D01*
X137317D01*
X137900Y66483D01*
X134401Y65900D02*
X133235D01*
X133818D01*
Y69399D01*
X134401Y68816D01*
X190167Y33499D02*
X191334D01*
X190751D01*
Y30583D01*
X191334Y30000D01*
X191917D01*
X192500Y30583D01*
X186669Y33499D02*
X187835Y32916D01*
X189001Y31749D01*
Y30583D01*
X188418Y30000D01*
X187252D01*
X186669Y30583D01*
Y31166D01*
X187252Y31749D01*
X189001D01*
X13667Y23299D02*
X14834D01*
X14251D01*
Y20383D01*
X14834Y19800D01*
X15417D01*
X16000Y20383D01*
X10752Y19800D02*
Y23299D01*
X12501Y21549D01*
X10169D01*
X28800Y97800D02*
Y101299D01*
X27051D01*
X26467Y100716D01*
Y99549D01*
X27051Y98966D01*
X28800D01*
X27634D02*
X26467Y97800D01*
X25301Y98383D02*
X24718Y97800D01*
X23552D01*
X22968Y98383D01*
Y100716D01*
X23552Y101299D01*
X24718D01*
X25301Y100716D01*
Y100133D01*
X24718Y99549D01*
X22968D01*
X47937Y124093D02*
Y121178D01*
X47354Y120595D01*
X46188D01*
X45604Y121178D01*
Y124093D01*
X42105D02*
X44438D01*
Y122344D01*
X43272Y122927D01*
X42689D01*
X42105Y122344D01*
Y121178D01*
X42689Y120595D01*
X43855D01*
X44438Y121178D01*
X157228Y120812D02*
X159361D01*
Y119213D01*
X158294Y119746D01*
X157761D01*
X157228Y119213D01*
Y118146D01*
X157761Y117613D01*
X158828D01*
X159361Y118146D01*
X156162Y120812D02*
Y118679D01*
X155096Y117613D01*
X154029Y118679D01*
Y120812D01*
X171267Y121399D02*
X173400D01*
Y119799D01*
X172334Y120333D01*
X171800D01*
X171267Y119799D01*
Y118733D01*
X171800Y118200D01*
X172867D01*
X173400Y118733D01*
X170201Y121399D02*
Y119266D01*
X169135Y118200D01*
X168068Y119266D01*
Y121399D01*
X9900Y129966D02*
X9367Y130499D01*
X8301D01*
X7767Y129966D01*
Y129433D01*
X8301Y128900D01*
X8834D01*
X8301D01*
X7767Y128366D01*
Y127833D01*
X8301Y127300D01*
X9367D01*
X9900Y127833D01*
X6701Y130499D02*
Y128366D01*
X5635Y127300D01*
X4568Y128366D01*
Y130499D01*
X3502Y129966D02*
X2969Y130499D01*
X1903D01*
X1369Y129966D01*
Y129433D01*
X1903Y128900D01*
X2436D01*
X1903D01*
X1369Y128366D01*
Y127833D01*
X1903Y127300D01*
X2969D01*
X3502Y127833D01*
X31442Y40400D02*
Y43599D01*
X29843D01*
X29310Y43066D01*
Y42000D01*
X29843Y41466D01*
X31442D01*
X28243Y40400D02*
Y42533D01*
X27177Y43599D01*
X26111Y42533D01*
Y40400D01*
Y42000D01*
X28243D01*
X25045Y40400D02*
X23978D01*
X24511D01*
Y43599D01*
X25045Y43066D01*
X22379Y40400D02*
X21313D01*
X21846D01*
Y43599D01*
X22379Y43066D01*
X171367Y111666D02*
X171900Y112199D01*
X172967D01*
X173500Y111666D01*
Y109533D01*
X172967Y109000D01*
X171900D01*
X171367Y109533D01*
Y110600D01*
X172434D01*
X170301Y109000D02*
Y112199D01*
X168168Y109000D01*
Y112199D01*
X167102D02*
Y109000D01*
X165503D01*
X164969Y109533D01*
Y111666D01*
X165503Y112199D01*
X167102D01*
X162000Y72099D02*
X159867D01*
X160934D01*
Y68900D01*
X158801Y72099D02*
X156668Y68900D01*
Y72099D02*
X158801Y68900D01*
X155602Y72099D02*
Y68900D01*
X154003D01*
X153469Y69433D01*
Y71566D01*
X154003Y72099D01*
X155602D01*
X152403Y71566D02*
X151870Y72099D01*
X150804D01*
X150270Y71566D01*
Y71033D01*
X150804Y70499D01*
X151337D01*
X150804D01*
X150270Y69966D01*
Y69433D01*
X150804Y68900D01*
X151870D01*
X152403Y69433D01*
X175000Y59000D02*
Y62199D01*
X173400D01*
X172867Y61666D01*
Y60599D01*
X173400Y60066D01*
X175000D01*
X171801Y62199D02*
Y59000D01*
X170202D01*
X169668Y59533D01*
Y60066D01*
X170202Y60599D01*
X171801D01*
X170202D01*
X169668Y61133D01*
Y61666D01*
X170202Y62199D01*
X171801D01*
X168602Y59000D02*
X167536D01*
X168069D01*
Y62199D01*
X168602Y61666D01*
X163804Y59000D02*
X165936D01*
X163804Y61133D01*
Y61666D01*
X164337Y62199D01*
X165403D01*
X165936Y61666D01*
X173500Y69100D02*
Y72299D01*
X171900D01*
X171367Y71766D01*
Y70700D01*
X171900Y70166D01*
X173500D01*
X170301Y72299D02*
Y69100D01*
X168702D01*
X168168Y69633D01*
Y70166D01*
X168702Y70700D01*
X170301D01*
X168702D01*
X168168Y71233D01*
Y71766D01*
X168702Y72299D01*
X170301D01*
X167102Y69100D02*
X166036D01*
X166569D01*
Y72299D01*
X167102Y71766D01*
X162000Y79500D02*
Y82699D01*
X160400D01*
X159867Y82166D01*
Y81099D01*
X160400Y80566D01*
X162000D01*
X158801Y82699D02*
Y79500D01*
X157202D01*
X156668Y80033D01*
Y80566D01*
X157202Y81099D01*
X158801D01*
X157202D01*
X156668Y81633D01*
Y82166D01*
X157202Y82699D01*
X158801D01*
X155602Y82166D02*
X155069Y82699D01*
X154003D01*
X153469Y82166D01*
Y80033D01*
X154003Y79500D01*
X155069D01*
X155602Y80033D01*
Y82166D01*
X173500Y79500D02*
Y82699D01*
X171900D01*
X171367Y82166D01*
Y81099D01*
X171900Y80566D01*
X173500D01*
X170301Y79500D02*
Y81633D01*
X169235Y82699D01*
X168168Y81633D01*
Y79500D01*
Y81099D01*
X170301D01*
X167102Y82699D02*
X164969D01*
Y82166D01*
X167102Y80033D01*
Y79500D01*
X162000Y89000D02*
Y92199D01*
X160400D01*
X159867Y91666D01*
Y90600D01*
X160400Y90066D01*
X162000D01*
X158801Y89000D02*
Y91133D01*
X157735Y92199D01*
X156668Y91133D01*
Y89000D01*
Y90600D01*
X158801D01*
X153469Y92199D02*
X154536Y91666D01*
X155602Y90600D01*
Y89533D01*
X155069Y89000D01*
X154003D01*
X153469Y89533D01*
Y90066D01*
X154003Y90600D01*
X155602D01*
X173500Y89000D02*
Y92199D01*
X171900D01*
X171367Y91666D01*
Y90600D01*
X171900Y90066D01*
X173500D01*
X170301Y89000D02*
Y91133D01*
X169235Y92199D01*
X168168Y91133D01*
Y89000D01*
Y90600D01*
X170301D01*
X164969Y92199D02*
X167102D01*
Y90600D01*
X166036Y91133D01*
X165503D01*
X164969Y90600D01*
Y89533D01*
X165503Y89000D01*
X166569D01*
X167102Y89533D01*
X162000Y99000D02*
Y102199D01*
X160400D01*
X159867Y101666D01*
Y100600D01*
X160400Y100066D01*
X162000D01*
X158801Y99000D02*
Y101133D01*
X157735Y102199D01*
X156668Y101133D01*
Y99000D01*
Y100600D01*
X158801D01*
X154003Y99000D02*
Y102199D01*
X155602Y100600D01*
X153469D01*
X173500Y99000D02*
Y102199D01*
X171900D01*
X171367Y101666D01*
Y100600D01*
X171900Y100066D01*
X173500D01*
X170301Y99000D02*
Y101133D01*
X169235Y102199D01*
X168168Y101133D01*
Y99000D01*
Y100600D01*
X170301D01*
X167102Y99000D02*
X166036D01*
X166569D01*
Y102199D01*
X167102Y101666D01*
X159867Y111666D02*
X160400Y112199D01*
X161467D01*
X162000Y111666D01*
Y109533D01*
X161467Y109000D01*
X160400D01*
X159867Y109533D01*
Y110600D01*
X160934D01*
X158801Y109000D02*
Y112199D01*
X156668Y109000D01*
Y112199D01*
X155602D02*
Y109000D01*
X154003D01*
X153469Y109533D01*
Y111666D01*
X154003Y112199D01*
X155602D01*
X32834Y30367D02*
X32301Y30900D01*
Y31967D01*
X32834Y32500D01*
X34967D01*
X35500Y31967D01*
Y30900D01*
X34967Y30367D01*
X33900D01*
Y31434D01*
X35500Y29301D02*
X32301D01*
X35500Y27168D01*
X32301D01*
Y26102D02*
X35500D01*
Y24503D01*
X34967Y23969D01*
X32834D01*
X32301Y24503D01*
Y26102D01*
X31800Y93700D02*
Y96899D01*
X33400Y95300D01*
X31267D01*
X30201Y96366D02*
X29668Y96899D01*
X28602D01*
X28068Y96366D01*
Y95833D01*
X28602Y95300D01*
X28068Y94766D01*
Y94233D01*
X28602Y93700D01*
X29668D01*
X30201Y94233D01*
Y94766D01*
X29668Y95300D01*
X30201Y95833D01*
Y96366D01*
X29668Y95300D02*
X28602D01*
X24869Y96899D02*
X27002D01*
Y95300D01*
X25936Y95833D01*
X25403D01*
X24869Y95300D01*
Y94233D01*
X25403Y93700D01*
X26469D01*
X27002Y94233D01*
X23803Y96899D02*
Y93700D01*
X22204D01*
X21670Y94233D01*
Y94766D01*
X22204Y95300D01*
X23803D01*
X22204D01*
X21670Y95833D01*
Y96366D01*
X22204Y96899D01*
X23803D01*
X47901Y94000D02*
Y97199D01*
X49500Y95600D01*
X47367D01*
X46301Y96666D02*
X45768Y97199D01*
X44701D01*
X44168Y96666D01*
Y96133D01*
X44701Y95600D01*
X44168Y95066D01*
Y94533D01*
X44701Y94000D01*
X45768D01*
X46301Y94533D01*
Y95066D01*
X45768Y95600D01*
X46301Y96133D01*
Y96666D01*
X45768Y95600D02*
X44701D01*
X40969Y97199D02*
X43102D01*
Y95600D01*
X42036Y96133D01*
X41503D01*
X40969Y95600D01*
Y94533D01*
X41503Y94000D01*
X42569D01*
X43102Y94533D01*
X39903Y94000D02*
Y96133D01*
X38837Y97199D01*
X37770Y96133D01*
Y94000D01*
Y95600D01*
X39903D01*
X31000Y79000D02*
Y82199D01*
X29401D01*
X28867Y81666D01*
Y80599D01*
X29401Y80066D01*
X31000D01*
X27801Y82199D02*
Y79000D01*
X26202D01*
X25668Y79533D01*
Y80066D01*
X26202Y80599D01*
X27801D01*
X26202D01*
X25668Y81133D01*
Y81666D01*
X26202Y82199D01*
X27801D01*
X22469D02*
X23536Y81666D01*
X24602Y80599D01*
Y79533D01*
X24069Y79000D01*
X23003D01*
X22469Y79533D01*
Y80066D01*
X23003Y80599D01*
X24602D01*
X42500Y79000D02*
Y82199D01*
X40900D01*
X40367Y81666D01*
Y80599D01*
X40900Y80066D01*
X42500D01*
X39301Y82199D02*
Y79000D01*
X37701D01*
X37168Y79533D01*
Y80066D01*
X37701Y80599D01*
X39301D01*
X37701D01*
X37168Y81133D01*
Y81666D01*
X37701Y82199D01*
X39301D01*
X33969D02*
X36102D01*
Y80599D01*
X35036Y81133D01*
X34503D01*
X33969Y80599D01*
Y79533D01*
X34503Y79000D01*
X35569D01*
X36102Y79533D01*
X42500Y70000D02*
Y73199D01*
X40900D01*
X40367Y72666D01*
Y71600D01*
X40900Y71066D01*
X42500D01*
X39301Y73199D02*
Y70000D01*
X37701D01*
X37168Y70533D01*
Y71066D01*
X37701Y71600D01*
X39301D01*
X37701D01*
X37168Y72133D01*
Y72666D01*
X37701Y73199D01*
X39301D01*
X36102Y72666D02*
X35569Y73199D01*
X34503D01*
X33969Y72666D01*
Y72133D01*
X34503Y71600D01*
X35036D01*
X34503D01*
X33969Y71066D01*
Y70533D01*
X34503Y70000D01*
X35569D01*
X36102Y70533D01*
X30500Y70000D02*
Y73199D01*
X28901D01*
X28367Y72666D01*
Y71600D01*
X28901Y71066D01*
X30500D01*
X27301Y73199D02*
Y70000D01*
X25701D01*
X25168Y70533D01*
Y71066D01*
X25701Y71600D01*
X27301D01*
X25701D01*
X25168Y72133D01*
Y72666D01*
X25701Y73199D01*
X27301D01*
X22503Y70000D02*
Y73199D01*
X24102Y71600D01*
X21969D01*
X33578Y90621D02*
Y88489D01*
X32511Y87423D01*
X31445Y88489D01*
Y90621D01*
X30379D02*
Y87423D01*
X28779D01*
X28246Y87956D01*
Y88489D01*
X28779Y89022D01*
X30379D01*
X28779D01*
X28246Y89555D01*
Y90088D01*
X28779Y90621D01*
X30379D01*
X27180Y87423D02*
Y89555D01*
X26113Y90621D01*
X25047Y89555D01*
Y87423D01*
Y89022D01*
X27180D01*
X23981Y90621D02*
X21848D01*
X22914D01*
Y87423D01*
X45500Y87500D02*
Y90699D01*
X43900D01*
X43367Y90166D01*
Y89100D01*
X43900Y88566D01*
X45500D01*
X42301Y90699D02*
Y87500D01*
X40701D01*
X40168Y88033D01*
Y88566D01*
X40701Y89100D01*
X42301D01*
X40701D01*
X40168Y89633D01*
Y90166D01*
X40701Y90699D01*
X42301D01*
X39102D02*
X36969D01*
Y90166D01*
X39102Y88033D01*
Y87500D01*
X161500Y59000D02*
Y62199D01*
X159900D01*
X159367Y61666D01*
Y60599D01*
X159900Y60066D01*
X161500D01*
X160434D02*
X159367Y59000D01*
X158301Y62199D02*
X156168Y59000D01*
Y62199D02*
X158301Y59000D01*
X155102Y62199D02*
Y59000D01*
X153503D01*
X152969Y59533D01*
Y61666D01*
X153503Y62199D01*
X155102D01*
X151903Y61666D02*
X151370Y62199D01*
X150304D01*
X149770Y61666D01*
Y61133D01*
X150304Y60599D01*
X150837D01*
X150304D01*
X149770Y60066D01*
Y59533D01*
X150304Y59000D01*
X151370D01*
X151903Y59533D01*
X175000Y52000D02*
Y55199D01*
X173400D01*
X172867Y54666D01*
Y53600D01*
X173400Y53066D01*
X175000D01*
X171801Y55199D02*
Y52000D01*
X170202D01*
X169668Y52533D01*
Y53066D01*
X170202Y53600D01*
X171801D01*
X170202D01*
X169668Y54133D01*
Y54666D01*
X170202Y55199D01*
X171801D01*
X168602Y52000D02*
X167536D01*
X168069D01*
Y55199D01*
X168602Y54666D01*
X164337Y52000D02*
Y55199D01*
X165936Y53600D01*
X163804D01*
X161500Y52000D02*
Y55199D01*
X159900D01*
X159367Y54666D01*
Y53600D01*
X159900Y53066D01*
X161500D01*
X158301Y55199D02*
Y52000D01*
X156702D01*
X156168Y52533D01*
Y53066D01*
X156702Y53600D01*
X158301D01*
X156702D01*
X156168Y54133D01*
Y54666D01*
X156702Y55199D01*
X158301D01*
X155102Y52000D02*
X154036D01*
X154569D01*
Y55199D01*
X155102Y54666D01*
X152436D02*
X151903Y55199D01*
X150837D01*
X150304Y54666D01*
Y54133D01*
X150837Y53600D01*
X151370D01*
X150837D01*
X150304Y53066D01*
Y52533D01*
X150837Y52000D01*
X151903D01*
X152436Y52533D01*
X161500Y45000D02*
Y48199D01*
X159900D01*
X159367Y47666D01*
Y46600D01*
X159900Y46066D01*
X161500D01*
X158301Y48199D02*
Y45000D01*
X156702D01*
X156168Y45533D01*
Y46066D01*
X156702Y46600D01*
X158301D01*
X156702D01*
X156168Y47133D01*
Y47666D01*
X156702Y48199D01*
X158301D01*
X155102Y45000D02*
X154036D01*
X154569D01*
Y48199D01*
X155102Y47666D01*
X150304Y48199D02*
X152436D01*
Y46600D01*
X151370Y47133D01*
X150837D01*
X150304Y46600D01*
Y45533D01*
X150837Y45000D01*
X151903D01*
X152436Y45533D01*
X174937Y45063D02*
Y48262D01*
X173338D01*
X172805Y47728D01*
Y46662D01*
X173338Y46129D01*
X174937D01*
X171738Y45063D02*
Y47195D01*
X170672Y48262D01*
X169606Y47195D01*
Y45063D01*
Y46662D01*
X171738D01*
X168539Y47728D02*
X168006Y48262D01*
X166940D01*
X166407Y47728D01*
Y47195D01*
X166940Y46662D01*
X166407Y46129D01*
Y45596D01*
X166940Y45063D01*
X168006D01*
X168539Y45596D01*
Y46129D01*
X168006Y46662D01*
X168539Y47195D01*
Y47728D01*
X168006Y46662D02*
X166940D01*
X42000Y57600D02*
Y60799D01*
X40400D01*
X39867Y60266D01*
Y59200D01*
X40400Y58666D01*
X42000D01*
X36668Y60799D02*
X38801D01*
Y59200D01*
X37735D01*
X38801D01*
Y57600D01*
X35602Y60799D02*
X33469D01*
Y60266D01*
X35602Y58133D01*
Y57600D01*
X32600D02*
Y60799D01*
X31001D01*
X30467Y60266D01*
Y59200D01*
X31001Y58666D01*
X32600D01*
X29401Y57600D02*
Y59733D01*
X28335Y60799D01*
X27268Y59733D01*
Y57600D01*
Y59200D01*
X29401D01*
X26202Y57600D02*
X25136D01*
X25669D01*
Y60799D01*
X26202Y60266D01*
X21404Y60799D02*
X23536D01*
Y59200D01*
X22470Y59733D01*
X21937D01*
X21404Y59200D01*
Y58133D01*
X21937Y57600D01*
X23003D01*
X23536Y58133D01*
X30200Y49700D02*
Y52899D01*
X28600D01*
X28067Y52366D01*
Y51300D01*
X28600Y50766D01*
X30200D01*
X24868Y52899D02*
X27001D01*
Y51300D01*
X25935D01*
X27001D01*
Y49700D01*
X21669Y52899D02*
X22736Y52366D01*
X23802Y51300D01*
Y50233D01*
X23269Y49700D01*
X22203D01*
X21669Y50233D01*
Y50766D01*
X22203Y51300D01*
X23802D01*
X21000Y130066D02*
X20467Y130599D01*
X19400D01*
X18867Y130066D01*
Y129533D01*
X19400Y128999D01*
X19934D01*
X19400D01*
X18867Y128466D01*
Y127933D01*
X19400Y127400D01*
X20467D01*
X21000Y127933D01*
X17801Y130599D02*
Y128466D01*
X16735Y127400D01*
X15668Y128466D01*
Y130599D01*
X14602Y130066D02*
X14069Y130599D01*
X13003D01*
X12469Y130066D01*
Y129533D01*
X13003Y128999D01*
X13536D01*
X13003D01*
X12469Y128466D01*
Y127933D01*
X13003Y127400D01*
X14069D01*
X14602Y127933D01*
X28167Y30066D02*
X28701Y30599D01*
X29767D01*
X30300Y30066D01*
Y27933D01*
X29767Y27400D01*
X28701D01*
X28167Y27933D01*
Y29000D01*
X29234D01*
X27101Y27400D02*
Y30599D01*
X24968Y27400D01*
Y30599D01*
X23902D02*
Y27400D01*
X22303D01*
X21769Y27933D01*
Y30066D01*
X22303Y30599D01*
X23902D01*
X38000Y40300D02*
Y43499D01*
X35867Y40300D01*
Y43499D01*
X32668Y42966D02*
X33202Y43499D01*
X34268D01*
X34801Y42966D01*
Y40833D01*
X34268Y40300D01*
X33202D01*
X32668Y40833D01*
X42700Y51500D02*
Y54699D01*
X41100D01*
X40567Y54166D01*
Y53100D01*
X41100Y52566D01*
X42700D01*
X39501Y51500D02*
Y53633D01*
X38435Y54699D01*
X37368Y53633D01*
Y51500D01*
Y53100D01*
X39501D01*
X36302Y51500D02*
X35236D01*
X35769D01*
Y54699D01*
X36302Y54166D01*
X31504Y51500D02*
X33636D01*
X31504Y53633D01*
Y54166D01*
X32037Y54699D01*
X33103D01*
X33636Y54166D01*
D62*
X68462Y95120D02*
G03*
X73412Y95120I2475J2475D01*
G01*
Y107069D02*
G03*
X68462Y107069I-2475J-2475D01*
G01*
X120668Y78416D02*
G03*
X120668Y73466I2475J-2475D01*
G01*
X132617D02*
G03*
X132617Y78416I-2475J2475D01*
G01*
X20475Y169025D02*
G03*
X20475Y173975I-2475J2475D01*
G01*
X8525D02*
G03*
X8525Y169025I2475J-2475D01*
G01*
X21748Y146205D02*
G03*
X21748Y146205I-8661J0D01*
G01*
X63025Y148475D02*
G03*
X63025Y143525I2475J-2475D01*
G01*
X74975D02*
G03*
X74975Y148475I-2475J2475D01*
G01*
X92025Y150525D02*
G03*
X96975Y150525I2475J2475D01*
G01*
Y162475D02*
G03*
X92025Y162475I-2475J-2475D01*
G01*
X28225Y67275D02*
G03*
X28225Y62325I2475J-2475D01*
G01*
X40175D02*
G03*
X40175Y67275I-2475J2475D01*
G01*
X154317Y17975D02*
G03*
X149368Y17975I-2475J-2475D01*
G01*
Y6025D02*
G03*
X154317Y6025I2475J2475D01*
G01*
X61868Y40575D02*
G03*
X61868Y35625I2475J-2475D01*
G01*
X73817D02*
G03*
X73817Y40575I-2475J2475D01*
G01*
X61868Y48575D02*
G03*
X61868Y43625I2475J-2475D01*
G01*
X73817D02*
G03*
X73817Y48575I-2475J2475D01*
G01*
X73317Y24475D02*
G03*
X68368Y24475I-2475J-2475D01*
G01*
Y12525D02*
G03*
X73317Y12525I2475J2475D01*
G01*
X66317Y24475D02*
G03*
X61368Y24475I-2475J-2475D01*
G01*
Y12525D02*
G03*
X66317Y12525I2475J2475D01*
G01*
X131368Y109525D02*
G03*
X136317Y109525I2475J2475D01*
G01*
Y121475D02*
G03*
X131368Y121475I-2475J-2475D01*
G01*
X137368Y109525D02*
G03*
X142317Y109525I2475J2475D01*
G01*
Y121475D02*
G03*
X137368Y121475I-2475J-2475D01*
G01*
X125368Y109525D02*
G03*
X130317Y109525I2475J2475D01*
G01*
Y121475D02*
G03*
X125368Y121475I-2475J-2475D01*
G01*
X165425Y152075D02*
G03*
X165425Y147125I2475J-2475D01*
G01*
X177375D02*
G03*
X177375Y152075I-2475J2475D01*
G01*
X64025Y150525D02*
G03*
X68975Y150525I2475J2475D01*
G01*
Y162475D02*
G03*
X64025Y162475I-2475J-2475D01*
G01*
X86025Y150525D02*
G03*
X90975Y150525I2475J2475D01*
G01*
Y162475D02*
G03*
X86025Y162475I-2475J-2475D01*
G01*
X109317Y128975D02*
G03*
X104368Y128975I-2475J-2475D01*
G01*
Y117025D02*
G03*
X109317Y117025I2475J2475D01*
G01*
X98012Y128025D02*
G03*
X98012Y132975I-2475J2475D01*
G01*
X86062D02*
G03*
X86062Y128025I2475J-2475D01*
G01*
X70975Y124975D02*
G03*
X66025Y124975I-2475J-2475D01*
G01*
Y113025D02*
G03*
X70975Y113025I2475J2475D01*
G01*
X58868Y131975D02*
G03*
X58868Y127025I2475J-2475D01*
G01*
X70817D02*
G03*
X70817Y131975I-2475J2475D01*
G01*
X61868Y33575D02*
G03*
X61868Y28625I2475J-2475D01*
G01*
X73817D02*
G03*
X73817Y33575I-2475J2475D01*
G01*
X27912Y129569D02*
G03*
X22962Y129569I-2475J-2475D01*
G01*
Y117620D02*
G03*
X27912Y117620I2475J2475D01*
G01*
X35462Y127120D02*
G03*
X40412Y127120I2475J2475D01*
G01*
Y139069D02*
G03*
X35462Y139069I-2475J-2475D01*
G01*
X40412Y155069D02*
G03*
X35462Y155069I-2475J-2475D01*
G01*
Y143120D02*
G03*
X40412Y143120I2475J2475D01*
G01*
X62975Y162475D02*
G03*
X58025Y162475I-2475J-2475D01*
G01*
Y150525D02*
G03*
X62975Y150525I2475J2475D01*
G01*
X101662Y174162D02*
X142382D01*
X101662Y156839D02*
X142382D01*
Y174162D01*
X101662Y156839D02*
Y174162D01*
X144252Y156839D02*
Y174162D01*
X142382Y156839D02*
X144252D01*
X142382Y174162D02*
X144252D01*
X101662Y155661D02*
X142382D01*
X101662Y138339D02*
X142382D01*
Y155661D01*
X101662Y138339D02*
Y155661D01*
X144252Y138339D02*
Y155661D01*
X142382Y138339D02*
X144252D01*
X142382Y155661D02*
X144252D01*
X155800Y37000D02*
Y42000D01*
X142800Y37000D02*
Y42000D01*
Y37000D02*
X155800D01*
X142800Y42000D02*
X155800D01*
X47200Y62500D02*
X60200D01*
X47200Y57500D02*
X60200D01*
X47200D02*
Y62500D01*
X60200Y57500D02*
Y62500D01*
X47200Y69200D02*
X60200D01*
X47200Y64200D02*
X60200D01*
X47200D02*
Y69200D01*
X60200Y64200D02*
Y69200D01*
X61200D02*
X74200D01*
X61200Y64200D02*
X74200D01*
X61200D02*
Y69200D01*
X74200Y64200D02*
Y69200D01*
X61200Y62500D02*
X74200D01*
X61200Y57500D02*
X74200D01*
X61200D02*
Y62500D01*
X74200Y57500D02*
Y62500D01*
X68437Y95195D02*
Y106994D01*
X73437Y95195D02*
Y106994D01*
X120742Y78441D02*
X132543D01*
X120742Y73441D02*
X132543D01*
X8600Y169000D02*
X20400D01*
X8600Y174000D02*
X20400D01*
X8000Y163000D02*
Y168000D01*
X21000Y163000D02*
Y168000D01*
X8000D02*
X21000D01*
X8000Y163000D02*
X21000D01*
X105342Y110000D02*
Y115000D01*
X118342Y110000D02*
Y115000D01*
X105342D02*
X118342D01*
X105342Y110000D02*
X118342D01*
X157800Y37000D02*
X170800D01*
X157800Y42000D02*
X170800D01*
Y37000D02*
Y42000D01*
X157800Y37000D02*
Y42000D01*
Y36000D02*
X170800D01*
X157800Y31000D02*
X170800D01*
X157800D02*
Y36000D01*
X170800Y31000D02*
Y36000D01*
X63100Y148500D02*
X74900D01*
X63100Y143500D02*
X74900D01*
X92000Y150600D02*
Y162400D01*
X97000Y150600D02*
Y162400D01*
X142800Y31000D02*
X155800D01*
X142800Y36000D02*
X155800D01*
Y31000D02*
Y36000D01*
X142800Y31000D02*
Y36000D01*
X28300Y67300D02*
X40100D01*
X28300Y62300D02*
X40100D01*
X154342Y6100D02*
Y17900D01*
X149343Y6100D02*
Y17900D01*
X61942Y40600D02*
X73743D01*
X61942Y35600D02*
X73743D01*
X61942Y48600D02*
X73743D01*
X61942Y43600D02*
X73743D01*
X73343Y12600D02*
Y24400D01*
X68343Y12600D02*
Y24400D01*
X66343Y12600D02*
Y24400D01*
X61343Y12600D02*
Y24400D01*
X38842Y25500D02*
X51842D01*
X38842Y30500D02*
X51842D01*
Y25500D02*
Y30500D01*
X38842Y25500D02*
Y30500D01*
X165000Y159200D02*
X178000D01*
X165000Y164200D02*
X178000D01*
Y159200D02*
Y164200D01*
X165000Y159200D02*
Y164200D01*
Y165200D02*
X178000D01*
X165000Y170200D02*
X178000D01*
Y165200D02*
Y170200D01*
X165000Y165200D02*
Y170200D01*
X131342Y109600D02*
Y121400D01*
X136343Y109600D02*
Y121400D01*
X137343Y109600D02*
Y121400D01*
X142342Y109600D02*
Y121400D01*
X125343Y109600D02*
Y121400D01*
X130342Y109600D02*
Y121400D01*
X146442Y139500D02*
X160442D01*
X146442Y140500D02*
Y174500D01*
X160442D01*
Y140500D02*
Y174500D01*
X146454Y140500D02*
X160442D01*
X146442Y144500D02*
Y148500D01*
X160442Y139500D02*
Y140500D01*
X146442Y139500D02*
Y140500D01*
X165500Y152100D02*
X177300D01*
X165500Y147100D02*
X177300D01*
X164900Y146100D02*
X177900D01*
X164900Y141100D02*
X177900D01*
X164900D02*
Y146100D01*
X177900Y141100D02*
Y146100D01*
X165000Y153200D02*
X178000D01*
X165000Y158200D02*
X178000D01*
Y153200D02*
Y158200D01*
X165000Y153200D02*
Y158200D01*
X38842Y36248D02*
Y41248D01*
X51842Y36248D02*
Y41248D01*
X38842D02*
X51842D01*
X38842Y36248D02*
X51842D01*
X64000Y150600D02*
Y162400D01*
X69000Y150600D02*
Y162400D01*
X86000Y150600D02*
Y162400D01*
X91000Y150600D02*
Y162400D01*
X109343Y117100D02*
Y128900D01*
X104342Y117100D02*
Y128900D01*
X86137Y128000D02*
X97937D01*
X86137Y133000D02*
X97937D01*
X71000Y113100D02*
Y124900D01*
X66000Y113100D02*
Y124900D01*
X58943Y132000D02*
X70742D01*
X58943Y127000D02*
X70742D01*
X61942Y33600D02*
X73743D01*
X61942Y28600D02*
X73743D01*
X38842Y45700D02*
Y50700D01*
X51842Y45700D02*
Y50700D01*
X38842D02*
X51842D01*
X38842Y45700D02*
X51842D01*
X27937Y117694D02*
Y129495D01*
X22937Y117694D02*
Y129495D01*
X35437Y127194D02*
Y138995D01*
X40437Y127194D02*
Y138995D01*
Y143194D02*
Y154994D01*
X35437Y143194D02*
Y154994D01*
X63000Y150600D02*
Y162400D01*
X58000Y150600D02*
Y162400D01*
X28000Y102500D02*
Y115500D01*
X23000Y102500D02*
Y115500D01*
X28000D01*
X23000Y102500D02*
X28000D01*
D63*
X92090Y124458D02*
X93790Y122757D01*
X92090Y124458D02*
X93790Y126157D01*
Y122757D02*
Y126157D01*
X23323Y138331D02*
Y154079D01*
X2850Y138331D02*
Y154079D01*
X137831Y132500D02*
X139253Y133921D01*
X137891Y125440D02*
X139253Y124079D01*
X139313D01*
X137891Y125500D02*
Y126440D01*
X139253Y133921D02*
X141443D01*
X137831Y125500D02*
Y132500D01*
X139313Y124079D02*
Y133921D01*
X160572Y124100D02*
Y133921D01*
X139313Y124079D02*
X160572D01*
X139313Y133921D02*
X160572D01*
X80965Y62850D02*
X145335D01*
X80965Y6157D02*
X145335D01*
Y16394D01*
X137657D02*
X145335D01*
X137657D02*
Y52614D01*
X145335D02*
Y62850D01*
X137657Y52614D02*
X145335D01*
X80965Y6157D02*
Y62850D01*
D65*
X43800Y119500D02*
G03*
X47800Y119500I2000J0D01*
G01*
X51000D01*
X40500D02*
X43800D01*
X40500Y98500D02*
Y119500D01*
Y98500D02*
X51000D01*
Y119500D01*
D66*
X82618Y104500D02*
G03*
X82618Y104500I-1181J0D01*
G01*
D67*
X174718Y127401D02*
X184876D01*
X174797Y139999D02*
X184876D01*
X179782Y135657D02*
X184704Y130736D01*
X174861D02*
X179782Y135657D01*
Y131720D02*
X184704Y136642D01*
X174861D02*
X179782Y131720D01*
D68*
X143317Y165500D02*
D03*
Y147000D02*
D03*
D69*
X138684Y129198D02*
D03*
D70*
X162383Y4414D02*
D03*
D71*
X153448Y140000D02*
D03*
D72*
X135599Y131036D02*
D03*
M02*
