%FSLAX25Y25*%
%MOIN*%
G70*
G01*
G75*
G04 Layer_Color=2752767*
%ADD10C,0.00800*%
%ADD11C,0.00667*%
D10*
X486024Y56102D02*
G03*
X486024Y56102I-8661J0D01*
G01*
X41142D02*
G03*
X41142Y56102I-8661J0D01*
G01*
X460630Y-0D02*
X511811Y51181D01*
X0D02*
X51181Y-0D01*
X429134Y45866D02*
X442913D01*
Y65551D01*
X429134D02*
X442913D01*
X429134Y45866D02*
Y65551D01*
X80709Y45866D02*
Y65551D01*
X66929D02*
X80709D01*
X66929Y45866D02*
Y65551D01*
Y45866D02*
X80709D01*
X511811Y51181D02*
Y94488D01*
X0D02*
X511811D01*
X0Y51181D02*
Y94488D01*
X51181Y-0D02*
X460630D01*
X158000Y9988D02*
Y13988D01*
X162000D01*
Y9988D01*
X158000D01*
X168000D02*
Y13988D01*
X172000D01*
Y9988D01*
X168000D01*
X148000D02*
Y13988D01*
X152000D01*
Y9988D01*
X148000D01*
X138000D02*
Y13988D01*
X142000D01*
Y9988D01*
X138000D01*
D11*
X392551Y26378D02*
G03*
X392551Y26378I-2000J0D01*
G01*
X195701D02*
G03*
X195701Y26378I-2000J0D01*
G01*
X97276D02*
G03*
X97276Y26378I-2000J0D01*
G01*
X294126D02*
G03*
X294126Y26378I-2000J0D01*
G01*
X19248Y82378D02*
X17248Y86378D01*
X21248D01*
X19248Y82378D01*
X29091D02*
X27091Y86378D01*
X31091D01*
X29091Y82378D01*
X38933D02*
X36933Y86378D01*
X40933D01*
X38933Y82378D01*
X48776D02*
X46776Y86378D01*
X50776D01*
X48776Y82378D01*
X401575Y59102D02*
X402575Y60102D01*
X403575D01*
X402575Y61102D01*
X403575Y62102D01*
X402575D01*
X401575Y63102D01*
X400575Y62102D01*
X399575D01*
X400575Y61102D01*
X399575Y60102D01*
X400575D01*
X401575Y59102D01*
Y49102D02*
X402575Y50102D01*
X403575D01*
X402575Y51102D01*
X403575Y52102D01*
X402575D01*
X401575Y53102D01*
X400575Y52102D01*
X399575D01*
X400575Y51102D01*
X399575Y50102D01*
X400575D01*
X401575Y49102D01*
X303150D02*
X304150Y50102D01*
X305150D01*
X304150Y51102D01*
X305150Y52102D01*
X304150D01*
X303150Y53102D01*
X302150Y52102D01*
X301150D01*
X302150Y51102D01*
X301150Y50102D01*
X302150D01*
X303150Y49102D01*
Y59102D02*
X304150Y60102D01*
X305150D01*
X304150Y61102D01*
X305150Y62102D01*
X304150D01*
X303150Y63102D01*
X302150Y62102D01*
X301150D01*
X302150Y61102D01*
X301150Y60102D01*
X302150D01*
X303150Y59102D01*
X204724D02*
X205724Y60102D01*
X206724D01*
X205724Y61102D01*
X206724Y62102D01*
X205724D01*
X204724Y63102D01*
X203724Y62102D01*
X202724D01*
X203724Y61102D01*
X202724Y60102D01*
X203724D01*
X204724Y59102D01*
Y49102D02*
X205724Y50102D01*
X206724D01*
X205724Y51102D01*
X206724Y52102D01*
X205724D01*
X204724Y53102D01*
X203724Y52102D01*
X202724D01*
X203724Y51102D01*
X202724Y50102D01*
X203724D01*
X204724Y49102D01*
X106299D02*
X107299Y50102D01*
X108299D01*
X107299Y51102D01*
X108299Y52102D01*
X107299D01*
X106299Y53102D01*
X105299Y52102D01*
X104299D01*
X105299Y51102D01*
X104299Y50102D01*
X105299D01*
X106299Y49102D01*
Y59102D02*
X107299Y60102D01*
X108299D01*
X107299Y61102D01*
X108299Y62102D01*
X107299D01*
X106299Y63102D01*
X105299Y62102D01*
X104299D01*
X105299Y61102D01*
X104299Y60102D01*
X105299D01*
X106299Y59102D01*
X258276Y4878D02*
X259276Y6878D01*
X258276Y8878D01*
X260276Y7878D01*
X262276Y8878D01*
X261276Y6878D01*
X262276Y4878D01*
X260276Y5878D01*
X258276Y4878D01*
X344500Y49102D02*
X345500Y51102D01*
X344500Y53102D01*
X346500Y52102D01*
X348500Y53102D01*
X347500Y51102D01*
X348500Y49102D01*
X346500Y50102D01*
X344500Y49102D01*
X138000Y48988D02*
X139000Y50988D01*
X138000Y52988D01*
X140000Y51988D01*
X142000Y52988D01*
X141000Y50988D01*
X142000Y48988D01*
X140000Y49988D01*
X138000Y48988D01*
X264776Y30213D02*
X265776Y32213D01*
X264776Y34213D01*
X266776Y33213D01*
X268776Y34213D01*
X267776Y32213D01*
X268776Y30213D01*
X266776Y31213D01*
X264776Y30213D01*
X249776D02*
X250776Y32213D01*
X249776Y34213D01*
X251776Y33213D01*
X253776Y34213D01*
X252776Y32213D01*
X253776Y30213D01*
X251776Y31213D01*
X249776Y30213D01*
X64929Y466504D02*
X65929Y468504D01*
X64929Y470504D01*
X66929Y469504D01*
X68929Y470504D01*
X67929Y468504D01*
X68929Y466504D01*
X66929Y467504D01*
X64929Y466504D01*
X244776Y76102D02*
X245776Y78102D01*
X244776Y80102D01*
X246776Y79102D01*
X248776Y80102D01*
X247776Y78102D01*
X248776Y76102D01*
X246776Y77102D01*
X244776Y76102D01*
X274075Y82602D02*
X275075Y84602D01*
X274075Y86602D01*
X276075Y85602D01*
X278075Y86602D01*
X277075Y84602D01*
X278075Y82602D01*
X276075Y83602D01*
X274075Y82602D01*
M02*
