%FSLAX25Y25*%
%MOIN*%
G70*
G01*
G75*
%ADD10C,0.00800*%
%ADD11C,0.00667*%
D10*
X486024Y56102D02*
G03*
X486024Y56102I-8661J0D01*
G01*
X41142D02*
G03*
X41142Y56102I-8661J0D01*
G01*
X460630Y-0D02*
X511811Y51181D01*
X0D02*
X51181Y-0D01*
X429134Y45866D02*
X442913D01*
Y65551D01*
X429134D02*
X442913D01*
X429134Y45866D02*
Y65551D01*
X80709Y45866D02*
Y65551D01*
X66929D02*
X80709D01*
X66929Y45866D02*
Y65551D01*
Y45866D02*
X80709D01*
X511811Y51181D02*
Y94488D01*
X0D02*
X511811D01*
X0Y51181D02*
Y94488D01*
X51181Y-0D02*
X460630D01*
D11*
X158000Y11988D02*
X162000D01*
X160000Y9988D02*
Y13988D01*
X168000Y11988D02*
X172000D01*
X170000Y9988D02*
Y13988D01*
X148000Y11988D02*
X152000D01*
X150000Y9988D02*
Y13988D01*
X138000Y11988D02*
X142000D01*
X140000Y9988D02*
Y13988D01*
X388780Y26378D02*
X392323D01*
X390551Y24606D02*
Y28150D01*
X191929Y26378D02*
X195473D01*
X193701Y24606D02*
Y28150D01*
X93504Y26378D02*
X97047D01*
X95276Y24606D02*
Y28150D01*
X290354Y26378D02*
X293898D01*
X292126Y24606D02*
Y28150D01*
X16998Y84378D02*
X21498D01*
X19248Y82128D02*
Y86628D01*
X26841Y84378D02*
X31341D01*
X29091Y82128D02*
Y86628D01*
X36683Y84378D02*
X41183D01*
X38933Y82128D02*
Y86628D01*
X46526Y84378D02*
X51026D01*
X48776Y82128D02*
Y86628D01*
X399803Y61102D02*
X403346D01*
X401575Y59331D02*
Y62874D01*
X399803Y51102D02*
X403346D01*
X401575Y49331D02*
Y52874D01*
X301378Y51102D02*
X304921D01*
X303150Y49331D02*
Y52874D01*
X301378Y61102D02*
X304921D01*
X303150Y59331D02*
Y62874D01*
X202953Y61102D02*
X206496D01*
X204724Y59331D02*
Y62874D01*
X202953Y51102D02*
X206496D01*
X204724Y49331D02*
Y52874D01*
X104528Y51102D02*
X108071D01*
X106299Y49331D02*
Y52874D01*
X104528Y61102D02*
X108071D01*
X106299Y59331D02*
Y62874D01*
X259676Y6878D02*
X260876D01*
X260276Y6278D02*
Y7478D01*
X345900Y51102D02*
X347100D01*
X346500Y50502D02*
Y51702D01*
X139400Y50988D02*
X140600D01*
X140000Y50388D02*
Y51588D01*
X266176Y32213D02*
X267376D01*
X266776Y31613D02*
Y32813D01*
X251176Y32213D02*
X252376D01*
X251776Y31613D02*
Y32813D01*
X66329Y468504D02*
X67529D01*
X66929Y467904D02*
Y469104D01*
X246176Y78102D02*
X247376D01*
X246776Y77502D02*
Y78702D01*
X275475Y84602D02*
X276675D01*
X276075Y84002D02*
Y85202D01*
M02*
