%FSLAX25Y25*%
%MOIN*%
G70*
G01*
G75*
G04 Layer_Color=65535*
%ADD10R,0.03500X0.03000*%
%ADD11R,0.02362X0.04299*%
%ADD12R,0.03000X0.03500*%
%ADD13R,0.04299X0.02362*%
%ADD14R,0.09843X0.04724*%
%ADD15R,0.11811X0.23622*%
%ADD16R,0.15748X0.06000*%
%ADD17R,0.03937X0.03937*%
%ADD18R,0.03937X0.03937*%
%ADD19R,0.05709X0.02756*%
%ADD20C,0.03000*%
%ADD21C,0.01000*%
%ADD22C,0.05000*%
%ADD23C,0.02500*%
%ADD24C,0.02000*%
%ADD25C,0.06000*%
%ADD26R,0.10000X0.16933*%
%ADD27C,0.05512*%
%ADD28C,0.06000*%
%ADD29R,0.06000X0.06000*%
%ADD30C,0.02500*%
%ADD31C,0.00500*%
%ADD32C,0.00787*%
%ADD33C,0.00600*%
%ADD34C,0.00800*%
%ADD35C,0.01500*%
%ADD36R,0.11811X0.01300*%
D21*
X136181Y49654D02*
Y59841D01*
X73189Y49654D02*
Y59841D01*
X136181Y141625D02*
Y159890D01*
X73189Y145033D02*
Y175638D01*
X136181D01*
X73189Y49654D02*
X136181D01*
Y159890D02*
Y175638D01*
D31*
X160000Y138543D02*
G03*
X160000Y138543I-500J0D01*
G01*
X30475Y40025D02*
G03*
X30475Y44975I-2475J2475D01*
G01*
X18525D02*
G03*
X18525Y40025I2475J-2475D01*
G01*
X45825Y44975D02*
G03*
X45825Y40025I2475J-2475D01*
G01*
X57775D02*
G03*
X57775Y44975I-2475J2475D01*
G01*
X49025Y65975D02*
G03*
X49025Y61025I2475J-2475D01*
G01*
X60975D02*
G03*
X60975Y65975I-2475J2475D01*
G01*
X90475Y34975D02*
G03*
X85525Y34975I-2475J-2475D01*
G01*
Y23025D02*
G03*
X90475Y23025I2475J2475D01*
G01*
X97975Y34975D02*
G03*
X93025Y34975I-2475J-2475D01*
G01*
Y23025D02*
G03*
X97975Y23025I2475J2475D01*
G01*
X144475Y34975D02*
G03*
X139525Y34975I-2475J-2475D01*
G01*
Y23025D02*
G03*
X144475Y23025I2475J2475D01*
G01*
X28957Y79500D02*
G03*
X28957Y79500I-500J0D01*
G01*
Y106000D02*
G03*
X28957Y106000I-500J0D01*
G01*
X36575Y23205D02*
G03*
X36575Y23205I-8661J0D01*
G01*
X64075D02*
G03*
X64075Y23205I-8661J0D01*
G01*
X146025Y101408D02*
G03*
X146025Y96458I2475J-2475D01*
G01*
X157975D02*
G03*
X157975Y101408I-2475J2475D01*
G01*
X155115Y156615D02*
X156358Y157858D01*
Y153000D02*
Y157858D01*
X155456Y156754D02*
X155929Y157227D01*
X155456Y153894D02*
X155929Y153421D01*
X156350Y153000D01*
X155929Y153421D02*
Y157227D01*
X155456Y153894D02*
Y156754D01*
X156500Y153000D02*
Y158000D01*
X169500Y153000D02*
Y158000D01*
X156500Y153000D02*
X169500D01*
X156500Y158000D02*
X169500D01*
X163673Y153963D02*
Y156963D01*
X162194Y155462D02*
X163673Y156941D01*
X162260Y155395D02*
X163673Y153982D01*
X156350Y153000D02*
X156500D01*
X155115Y154235D02*
X156350Y153000D01*
X155115Y154235D02*
Y156615D01*
X156500Y123500D02*
Y128500D01*
X169500Y123500D02*
Y128500D01*
X156500Y123500D02*
X169500D01*
X156500Y128500D02*
X169500D01*
Y117500D02*
Y122500D01*
X156500Y117500D02*
Y122500D01*
X169500D01*
X156500Y117500D02*
X169500D01*
X157335Y138224D02*
Y139799D01*
X160628D01*
X169146Y138224D02*
Y139799D01*
X165852D02*
X169146D01*
X156500Y151500D02*
X169500D01*
X156500Y146500D02*
X169500D01*
Y151500D01*
X156500Y146500D02*
Y151500D01*
X14115Y122615D02*
X15358Y123858D01*
Y119000D02*
Y123858D01*
X14456Y122754D02*
X14929Y123227D01*
X14456Y119894D02*
X14929Y119421D01*
X15350Y119000D01*
X14929Y119421D02*
Y123227D01*
X14456Y119894D02*
Y122754D01*
X15500Y119000D02*
Y124000D01*
X28500Y119000D02*
Y124000D01*
X15500Y119000D02*
X28500D01*
X15500Y124000D02*
X28500D01*
X22673Y119963D02*
Y122963D01*
X21193Y121461D02*
X22673Y122941D01*
X21260Y121395D02*
X22673Y119982D01*
X15350Y119000D02*
X15500D01*
X14115Y120235D02*
X15350Y119000D01*
X14115Y120235D02*
Y122615D01*
Y96115D02*
X15358Y97358D01*
Y92500D02*
Y97358D01*
X14456Y96254D02*
X14929Y96727D01*
X14456Y93394D02*
X14929Y92921D01*
X15350Y92500D01*
X14929Y92921D02*
Y96727D01*
X14456Y93394D02*
Y96254D01*
X15500Y92500D02*
Y97500D01*
X28500Y92500D02*
Y97500D01*
X15500Y92500D02*
X28500D01*
X15500Y97500D02*
X28500D01*
X22673Y93463D02*
Y96463D01*
X21193Y94962D02*
X22673Y96441D01*
X21260Y94895D02*
X22673Y93482D01*
X15350Y92500D02*
X15500D01*
X14115Y93735D02*
X15350Y92500D01*
X14115Y93735D02*
Y96115D01*
X32500Y124000D02*
X45500D01*
X32500Y119000D02*
X45500D01*
Y124000D01*
X32500Y119000D02*
Y124000D01*
Y97500D02*
X45500D01*
X32500Y92500D02*
X45500D01*
Y97500D01*
X32500Y92500D02*
Y97500D01*
X35000Y164100D02*
X48000D01*
X35000Y159100D02*
X48000D01*
Y164100D01*
X35000Y159100D02*
Y164100D01*
X18000Y159100D02*
X31000D01*
X18000Y164100D02*
X31000D01*
X18000Y159100D02*
Y164100D01*
X31000Y159100D02*
Y164100D01*
X18000Y46500D02*
X31000D01*
X18000Y51500D02*
X31000D01*
X18000Y46500D02*
Y51500D01*
X31000Y46500D02*
Y51500D01*
X39500Y82000D02*
X52500D01*
X39500Y77000D02*
X52500D01*
Y82000D01*
X39500Y77000D02*
Y82000D01*
Y89500D02*
X52500D01*
X39500Y84500D02*
X52500D01*
Y89500D01*
X39500Y84500D02*
Y89500D01*
Y108500D02*
X52500D01*
X39500Y103500D02*
X52500D01*
Y108500D01*
X39500Y103500D02*
Y108500D01*
Y116000D02*
X52500D01*
X39500Y111000D02*
X52500D01*
Y116000D01*
X39500Y111000D02*
Y116000D01*
X21000Y104000D02*
Y117000D01*
X16000Y104000D02*
Y117000D01*
Y104000D02*
X21000D01*
X16000Y117000D02*
X21000D01*
X16000Y76000D02*
Y89000D01*
X21000Y76000D02*
Y89000D01*
X16000D02*
X21000D01*
X16000Y76000D02*
X21000D01*
X18600Y45000D02*
X30400D01*
X18600Y40000D02*
X30400D01*
X45900D02*
X57700D01*
X45900Y45000D02*
X57700D01*
X49100Y61000D02*
X60900D01*
X49100Y66000D02*
X60900D01*
X85500Y23100D02*
Y34900D01*
X90500Y23100D02*
Y34900D01*
X93000Y23100D02*
Y34900D01*
X98000Y23100D02*
Y34900D01*
X139500Y23100D02*
Y34900D01*
X144500Y23100D02*
Y34900D01*
X100331Y10800D02*
X136531D01*
Y36200D01*
X100331Y10800D02*
Y36200D01*
X136531D01*
X27201Y77335D02*
X28776D01*
X27201D02*
Y80628D01*
Y89146D02*
X28776D01*
X27201Y85852D02*
Y89146D01*
Y103835D02*
X28776D01*
X27201D02*
Y107128D01*
Y115646D02*
X28776D01*
X27201Y112352D02*
Y115646D01*
X15500Y64500D02*
X28500D01*
X15500Y69500D02*
X28500D01*
X15500Y64500D02*
Y69500D01*
X28500Y64500D02*
Y69500D01*
X15500Y58500D02*
X28500D01*
X15500Y63500D02*
X28500D01*
X15500Y58500D02*
Y63500D01*
X28500Y58500D02*
Y63500D01*
X146100Y96433D02*
X157900D01*
X146100Y101433D02*
X157900D01*
X15500Y52500D02*
X28500D01*
X15500Y57500D02*
X28500D01*
X15500Y52500D02*
Y57500D01*
X28500Y52500D02*
Y57500D01*
D32*
X65000Y95000D02*
G03*
X65000Y95000I-4489J0D01*
G01*
Y109700D02*
G03*
X65000Y109700I-4489J0D01*
G01*
X154000Y85500D02*
G03*
X154000Y85500I-4489J0D01*
G01*
Y113300D02*
G03*
X154000Y113300I-4489J0D01*
G01*
X12094Y156218D02*
X44378D01*
Y135746D02*
Y156218D01*
X33354Y135746D02*
X44378D01*
X33354Y132990D02*
Y135746D01*
X23118Y132990D02*
X33354D01*
X23118D02*
Y135746D01*
X12094D02*
X23118D01*
X12094D02*
Y156218D01*
X63943Y91850D02*
X65124Y90669D01*
X55676D02*
X56857Y91850D01*
X56069Y99724D02*
X57250Y98543D01*
X63550D02*
X64731Y99724D01*
X60400Y88701D02*
Y90276D01*
Y99724D02*
Y101299D01*
X65124Y95000D02*
X66699D01*
X54101D02*
X55676D01*
X63943Y106550D02*
X65124Y105369D01*
X55676D02*
X56857Y106550D01*
X56069Y114424D02*
X57250Y113243D01*
X63550D02*
X64731Y114424D01*
X60400Y103401D02*
Y104976D01*
Y114424D02*
Y115999D01*
X65124Y109700D02*
X66699D01*
X54101D02*
X55676D01*
X152943Y82350D02*
X154124Y81169D01*
X144676D02*
X145857Y82350D01*
X145069Y90224D02*
X146250Y89043D01*
X152550D02*
X153731Y90224D01*
X149400Y79201D02*
Y80776D01*
Y90224D02*
Y91799D01*
X154124Y85500D02*
X155699D01*
X143101D02*
X144676D01*
X152943Y110150D02*
X154124Y108969D01*
X144676D02*
X145857Y110150D01*
X145069Y118024D02*
X146250Y116843D01*
X152550D02*
X153731Y118024D01*
X149400Y107001D02*
Y108576D01*
Y118024D02*
Y119599D01*
X154124Y113300D02*
X155699D01*
X143101D02*
X144676D01*
D33*
X71095Y37300D02*
X82906D01*
X71095Y35900D02*
X82906D01*
Y15200D02*
Y37300D01*
X71095Y15200D02*
X82906D01*
X71095D02*
Y37300D01*
X147594D02*
X159406D01*
X147594Y35900D02*
X159406D01*
Y15200D02*
Y37300D01*
X147594Y15200D02*
X159406D01*
X147594D02*
Y37300D01*
X145500Y124000D02*
Y127999D01*
X147499D01*
X148166Y127332D01*
Y125999D01*
X147499Y125333D01*
X145500D01*
X146833D02*
X148166Y124000D01*
X149499D02*
X150832D01*
X150165D01*
Y127999D01*
X149499Y127332D01*
X155497Y127999D02*
X154164Y127332D01*
X152831Y125999D01*
Y124667D01*
X153497Y124000D01*
X154830D01*
X155497Y124667D01*
Y125333D01*
X154830Y125999D01*
X152831D01*
X157600Y112600D02*
Y116599D01*
X159599D01*
X160266Y115932D01*
Y114599D01*
X159599Y113933D01*
X157600D01*
X158933D02*
X160266Y112600D01*
X161599D02*
X162932D01*
X162265D01*
Y116599D01*
X161599Y115932D01*
X167597Y116599D02*
X164931D01*
Y114599D01*
X166264Y115266D01*
X166930D01*
X167597Y114599D01*
Y113267D01*
X166930Y112600D01*
X165597D01*
X164931Y113267D01*
X151166Y135167D02*
Y137832D01*
X150499Y138499D01*
X149167D01*
X148500Y137832D01*
Y135167D01*
X149167Y134500D01*
X150499D01*
X149833Y135833D02*
X151166Y134500D01*
X150499D02*
X151166Y135167D01*
X152499Y137832D02*
X153165Y138499D01*
X154498D01*
X155165Y137832D01*
Y137166D01*
X154498Y136499D01*
X153832D01*
X154498D01*
X155165Y135833D01*
Y135167D01*
X154498Y134500D01*
X153165D01*
X152499Y135167D01*
X48666Y148499D02*
X47333D01*
X47999D01*
Y145167D01*
X47333Y144500D01*
X46666D01*
X46000Y145167D01*
X49999Y144500D02*
X51332D01*
X50665D01*
Y148499D01*
X49999Y147832D01*
X63500Y158999D02*
Y155666D01*
X64166Y155000D01*
X65499D01*
X66166Y155666D01*
Y158999D01*
X70165Y155000D02*
X67499D01*
X70165Y157666D01*
Y158332D01*
X69498Y158999D01*
X68165D01*
X67499Y158332D01*
X113000Y43499D02*
Y40166D01*
X113666Y39500D01*
X114999D01*
X115666Y40166D01*
Y43499D01*
X116999Y39500D02*
X118332D01*
X117665D01*
Y43499D01*
X116999Y42832D01*
X140000Y106499D02*
X142666D01*
X141333D01*
Y102500D01*
X146665Y106499D02*
X143999D01*
Y102500D01*
X146665D01*
X143999Y104499D02*
X145332D01*
X150663Y105832D02*
X149997Y106499D01*
X148664D01*
X147997Y105832D01*
Y105166D01*
X148664Y104499D01*
X149997D01*
X150663Y103833D01*
Y103166D01*
X149997Y102500D01*
X148664D01*
X147997Y103166D01*
X151996Y106499D02*
X154662D01*
X153329D01*
Y102500D01*
X155995Y104499D02*
X158661D01*
X159994Y102500D02*
Y106499D01*
X161993D01*
X162659Y105832D01*
Y104499D01*
X161993Y103833D01*
X159994D01*
X161326D02*
X162659Y102500D01*
X140000Y77499D02*
X142666D01*
X141333D01*
Y73500D01*
X146665Y77499D02*
X143999D01*
Y73500D01*
X146665D01*
X143999Y75499D02*
X145332D01*
X150663Y76832D02*
X149997Y77499D01*
X148664D01*
X147997Y76832D01*
Y76166D01*
X148664Y75499D01*
X149997D01*
X150663Y74833D01*
Y74166D01*
X149997Y73500D01*
X148664D01*
X147997Y74166D01*
X151996Y77499D02*
X154662D01*
X153329D01*
Y73500D01*
X155995Y75499D02*
X158661D01*
X159994Y77499D02*
X162659D01*
X161326D01*
Y73500D01*
X58000Y128000D02*
X61999D01*
Y126001D01*
X61332Y125334D01*
X59999D01*
X59333Y126001D01*
Y128000D01*
Y126667D02*
X58000Y125334D01*
X61999Y124001D02*
X58000Y121335D01*
X61999D02*
X58000Y124001D01*
X61999Y120003D02*
X58000D01*
Y118003D01*
X58666Y117337D01*
X61332D01*
X61999Y118003D01*
Y120003D01*
X67999Y90000D02*
Y87334D01*
Y88667D01*
X64000D01*
X67999Y86001D02*
X64000Y83336D01*
X67999D02*
X64000Y86001D01*
X67999Y82003D02*
X64000D01*
Y80003D01*
X64666Y79337D01*
X67332D01*
X67999Y80003D01*
Y82003D01*
X29500Y65000D02*
Y68999D01*
X31499D01*
X32166Y68332D01*
Y66999D01*
X31499Y66333D01*
X29500D01*
X30833D02*
X32166Y65000D01*
X33499D02*
X34832D01*
X34165D01*
Y68999D01*
X33499Y68332D01*
X38830Y65000D02*
Y68999D01*
X36831Y66999D01*
X39497D01*
X29500Y59000D02*
Y62999D01*
X31499D01*
X32166Y62332D01*
Y60999D01*
X31499Y60333D01*
X29500D01*
X30833D02*
X32166Y59000D01*
X33499D02*
X34832D01*
X34165D01*
Y62999D01*
X33499Y62332D01*
X36831D02*
X37497Y62999D01*
X38830D01*
X39497Y62332D01*
Y61666D01*
X38830Y60999D01*
X38164D01*
X38830D01*
X39497Y60333D01*
Y59666D01*
X38830Y59000D01*
X37497D01*
X36831Y59666D01*
X34500Y125500D02*
Y129499D01*
X36499D01*
X37166Y128832D01*
Y127499D01*
X36499Y126833D01*
X34500D01*
X35833D02*
X37166Y125500D01*
X38499D02*
X39832D01*
X39165D01*
Y129499D01*
X38499Y128832D01*
X44497Y125500D02*
X41831D01*
X44497Y128166D01*
Y128832D01*
X43830Y129499D01*
X42497D01*
X41831Y128832D01*
X46500Y93000D02*
Y96999D01*
X48499D01*
X49166Y96332D01*
Y94999D01*
X48499Y94333D01*
X46500D01*
X47833D02*
X49166Y93000D01*
X52498D02*
Y96999D01*
X50499Y94999D01*
X53164D01*
X35000Y165000D02*
Y168999D01*
X36999D01*
X37666Y168332D01*
Y166999D01*
X36999Y166333D01*
X35000D01*
X36333D02*
X37666Y165000D01*
X38999D02*
X40332D01*
X39665D01*
Y168999D01*
X38999Y168332D01*
X42331D02*
X42997Y168999D01*
X44330D01*
X44997Y168332D01*
Y165666D01*
X44330Y165000D01*
X42997D01*
X42331Y165666D01*
Y168332D01*
X21000Y165500D02*
Y169499D01*
X22999D01*
X23666Y168832D01*
Y167499D01*
X22999Y166833D01*
X21000D01*
X22333D02*
X23666Y165500D01*
X24999Y166166D02*
X25665Y165500D01*
X26998D01*
X27665Y166166D01*
Y168832D01*
X26998Y169499D01*
X25665D01*
X24999Y168832D01*
Y168166D01*
X25665Y167499D01*
X27665D01*
X32500Y47000D02*
Y50999D01*
X34499D01*
X35166Y50332D01*
Y48999D01*
X34499Y48333D01*
X32500D01*
X33833D02*
X35166Y47000D01*
X36499Y50332D02*
X37165Y50999D01*
X38498D01*
X39165Y50332D01*
Y49666D01*
X38498Y48999D01*
X39165Y48333D01*
Y47666D01*
X38498Y47000D01*
X37165D01*
X36499Y47666D01*
Y48333D01*
X37165Y48999D01*
X36499Y49666D01*
Y50332D01*
X37165Y48999D02*
X38498D01*
X147500Y147000D02*
Y150999D01*
X149499D01*
X150166Y150332D01*
Y148999D01*
X149499Y148333D01*
X147500D01*
X148833D02*
X150166Y147000D01*
X151499Y150999D02*
X154165D01*
Y150332D01*
X151499Y147667D01*
Y147000D01*
X53500Y77000D02*
Y80999D01*
X55499D01*
X56166Y80332D01*
Y78999D01*
X55499Y78333D01*
X53500D01*
X54833D02*
X56166Y77000D01*
X60164Y80999D02*
X58832Y80332D01*
X57499Y78999D01*
Y77666D01*
X58165Y77000D01*
X59498D01*
X60164Y77666D01*
Y78333D01*
X59498Y78999D01*
X57499D01*
X53500Y83500D02*
Y87499D01*
X55499D01*
X56166Y86832D01*
Y85499D01*
X55499Y84833D01*
X53500D01*
X54833D02*
X56166Y83500D01*
X60164Y87499D02*
X57499D01*
Y85499D01*
X58832Y86166D01*
X59498D01*
X60164Y85499D01*
Y84166D01*
X59498Y83500D01*
X58165D01*
X57499Y84166D01*
X42500Y98500D02*
Y102499D01*
X44499D01*
X45166Y101832D01*
Y100499D01*
X44499Y99833D01*
X42500D01*
X43833D02*
X45166Y98500D01*
X46499D02*
X47832D01*
X47165D01*
Y102499D01*
X46499Y101832D01*
X49831Y98500D02*
X51164D01*
X50497D01*
Y102499D01*
X49831Y101832D01*
X47500Y117000D02*
Y120999D01*
X49499D01*
X50166Y120332D01*
Y118999D01*
X49499Y118333D01*
X47500D01*
X48833D02*
X50166Y117000D01*
X51499Y120332D02*
X52165Y120999D01*
X53498D01*
X54164Y120332D01*
Y119666D01*
X53498Y118999D01*
X52832D01*
X53498D01*
X54164Y118333D01*
Y117666D01*
X53498Y117000D01*
X52165D01*
X51499Y117666D01*
X11000Y114000D02*
X14999D01*
Y112001D01*
X14332Y111334D01*
X12999D01*
X12333Y112001D01*
Y114000D01*
Y112667D02*
X11000Y111334D01*
Y107335D02*
Y110001D01*
X13666Y107335D01*
X14332D01*
X14999Y108002D01*
Y109335D01*
X14332Y110001D01*
X11000Y84500D02*
X14999D01*
Y82501D01*
X14332Y81834D01*
X12999D01*
X12333Y82501D01*
Y84500D01*
Y83167D02*
X11000Y81834D01*
Y80501D02*
Y79168D01*
Y79835D01*
X14999D01*
X14332Y80501D01*
X32666Y72666D02*
Y75332D01*
X31999Y75999D01*
X30666D01*
X30000Y75332D01*
Y72666D01*
X30666Y72000D01*
X31999D01*
X31333Y73333D02*
X32666Y72000D01*
X31999D02*
X32666Y72666D01*
X36665Y72000D02*
X33999D01*
X36665Y74666D01*
Y75332D01*
X35998Y75999D01*
X34665D01*
X33999Y75332D01*
X32666Y99166D02*
Y101832D01*
X31999Y102499D01*
X30666D01*
X30000Y101832D01*
Y99166D01*
X30666Y98500D01*
X31999D01*
X31333Y99833D02*
X32666Y98500D01*
X31999D02*
X32666Y99166D01*
X33999Y98500D02*
X35332D01*
X34665D01*
Y102499D01*
X33999Y101832D01*
X17500Y129499D02*
Y125500D01*
X20166D01*
X21499Y129499D02*
Y125500D01*
X23498D01*
X24164Y126166D01*
Y128832D01*
X23498Y129499D01*
X21499D01*
X25497Y128832D02*
X26164Y129499D01*
X27497D01*
X28163Y128832D01*
Y128166D01*
X27497Y127499D01*
X26830D01*
X27497D01*
X28163Y126833D01*
Y126166D01*
X27497Y125500D01*
X26164D01*
X25497Y126166D01*
X17000Y102499D02*
Y98500D01*
X19666D01*
X20999Y102499D02*
Y98500D01*
X22998D01*
X23664Y99166D01*
Y101832D01*
X22998Y102499D01*
X20999D01*
X27663Y98500D02*
X24997D01*
X27663Y101166D01*
Y101832D01*
X26997Y102499D01*
X25664D01*
X24997Y101832D01*
X145000Y157499D02*
Y153500D01*
X147666D01*
X148999Y157499D02*
Y153500D01*
X150998D01*
X151664Y154166D01*
Y156832D01*
X150998Y157499D01*
X148999D01*
X152997Y153500D02*
X154330D01*
X153664D01*
Y157499D01*
X152997Y156832D01*
X52000Y5999D02*
Y2000D01*
Y3333D01*
X54666Y5999D01*
X52666Y3999D01*
X54666Y2000D01*
X58665D02*
X55999D01*
X58665Y4666D01*
Y5332D01*
X57998Y5999D01*
X56665D01*
X55999Y5332D01*
X24500Y5999D02*
Y2000D01*
Y3333D01*
X27166Y5999D01*
X25166Y3999D01*
X27166Y2000D01*
X28499D02*
X29832D01*
X29165D01*
Y5999D01*
X28499Y5332D01*
X162666Y100332D02*
X161999Y100999D01*
X160667D01*
X160000Y100332D01*
Y97666D01*
X160667Y97000D01*
X161999D01*
X162666Y97666D01*
X163999D02*
X164665Y97000D01*
X165998D01*
X166665Y97666D01*
Y100332D01*
X165998Y100999D01*
X164665D01*
X163999Y100332D01*
Y99666D01*
X164665Y98999D01*
X166665D01*
X35166Y43832D02*
X34499Y44499D01*
X33166D01*
X32500Y43832D01*
Y41166D01*
X33166Y40500D01*
X34499D01*
X35166Y41166D01*
X36499Y43832D02*
X37165Y44499D01*
X38498D01*
X39165Y43832D01*
Y43166D01*
X38498Y42499D01*
X39165Y41833D01*
Y41166D01*
X38498Y40500D01*
X37165D01*
X36499Y41166D01*
Y41833D01*
X37165Y42499D01*
X36499Y43166D01*
Y43832D01*
X37165Y42499D02*
X38498D01*
X50766Y49332D02*
X50099Y49999D01*
X48766D01*
X48100Y49332D01*
Y46666D01*
X48766Y46000D01*
X50099D01*
X50766Y46666D01*
X52099Y49999D02*
X54764D01*
Y49332D01*
X52099Y46666D01*
Y46000D01*
X54166Y70332D02*
X53499Y70999D01*
X52166D01*
X51500Y70332D01*
Y67666D01*
X52166Y67000D01*
X53499D01*
X54166Y67666D01*
X58165Y70999D02*
X56832Y70332D01*
X55499Y68999D01*
Y67666D01*
X56165Y67000D01*
X57498D01*
X58165Y67666D01*
Y68333D01*
X57498Y68999D01*
X55499D01*
X89332Y41334D02*
X89999Y42001D01*
Y43334D01*
X89332Y44000D01*
X86666D01*
X86000Y43334D01*
Y42001D01*
X86666Y41334D01*
X89999Y37336D02*
Y40001D01*
X87999D01*
X88666Y38668D01*
Y38002D01*
X87999Y37336D01*
X86666D01*
X86000Y38002D01*
Y39335D01*
X86666Y40001D01*
X96832Y41334D02*
X97499Y42001D01*
Y43334D01*
X96832Y44000D01*
X94166D01*
X93500Y43334D01*
Y42001D01*
X94166Y41334D01*
X93500Y38002D02*
X97499D01*
X95499Y40001D01*
Y37336D01*
X143832Y42334D02*
X144499Y43001D01*
Y44334D01*
X143832Y45000D01*
X141166D01*
X140500Y44334D01*
Y43001D01*
X141166Y42334D01*
X143832Y41001D02*
X144499Y40335D01*
Y39002D01*
X143832Y38335D01*
X143166D01*
X142499Y39002D01*
Y39668D01*
Y39002D01*
X141833Y38335D01*
X141166D01*
X140500Y39002D01*
Y40335D01*
X141166Y41001D01*
X76166Y42832D02*
X75499Y43499D01*
X74166D01*
X73500Y42832D01*
Y40166D01*
X74166Y39500D01*
X75499D01*
X76166Y40166D01*
X80164Y39500D02*
X77499D01*
X80164Y42166D01*
Y42832D01*
X79498Y43499D01*
X78165D01*
X77499Y42832D01*
X153166D02*
X152499Y43499D01*
X151166D01*
X150500Y42832D01*
Y40166D01*
X151166Y39500D01*
X152499D01*
X153166Y40166D01*
X154499Y39500D02*
X155832D01*
X155165D01*
Y43499D01*
X154499Y42832D01*
X29500Y53000D02*
Y56999D01*
X31499D01*
X32166Y56332D01*
Y54999D01*
X31499Y54333D01*
X29500D01*
X30833D02*
X32166Y53000D01*
X33499D02*
X34832D01*
X34165D01*
Y56999D01*
X33499Y56332D01*
X36831Y56999D02*
X39497D01*
Y56332D01*
X36831Y53666D01*
Y53000D01*
D34*
X17677Y15331D02*
Y31079D01*
X38150Y15331D02*
Y31079D01*
X45177Y15331D02*
Y31079D01*
X65650Y15331D02*
Y31079D01*
D35*
X75945Y161071D02*
X99567D01*
X75945D02*
Y172095D01*
X133425D01*
Y153197D02*
Y172095D01*
X117677Y153197D02*
X133425D01*
X117677Y145717D02*
Y153197D01*
D36*
X77078Y36738D02*
D03*
X153586Y36715D02*
D03*
M02*
