%FSLAX25Y25*%
%MOIN*%
G70*
G01*
G75*
G04 Layer_Color=2752767*
%ADD10C,0.00800*%
%ADD11C,0.00600*%
%ADD12C,0.00667*%
D10*
X0Y7874D02*
G03*
X7874Y-0I7874J0D01*
G01*
X169291D02*
G03*
X177165Y7874I0J7874D01*
G01*
X7874Y177165D02*
G03*
X0Y169291I0J-7874D01*
G01*
X177165Y169291D02*
G03*
X169291Y177165I-7874J0D01*
G01*
X7874Y-0D02*
X169291D01*
X177165Y7874D02*
Y169291D01*
X7874Y177165D02*
X169291D01*
X0Y7874D02*
Y169291D01*
D11*
X174016Y7874D02*
G03*
X174016Y7874I-4724J0D01*
G01*
X12598Y169291D02*
G03*
X12598Y169291I-4724J0D01*
G01*
X174016Y169291D02*
G03*
X174016Y169291I-4724J0D01*
G01*
X12598Y7874D02*
G03*
X12598Y7874I-4724J0D01*
G01*
X16000Y139100D02*
Y143100D01*
X20000D01*
Y139100D01*
X16000D01*
X26000D02*
Y143100D01*
X30000D01*
Y139100D01*
X26000D01*
X36000Y149100D02*
Y153100D01*
X40000D01*
Y149100D01*
X36000D01*
X16000D02*
Y153100D01*
X20000D01*
Y149100D01*
X16000D01*
X36000Y139100D02*
Y143100D01*
X40000D01*
Y139100D01*
X36000D01*
X26000Y149100D02*
Y153100D01*
X30000D01*
Y149100D01*
X26000D01*
X60500Y93000D02*
X58500Y97000D01*
X62500D01*
X60500Y93000D01*
Y107700D02*
X58500Y111700D01*
X62500D01*
X60500Y107700D01*
X149500Y83500D02*
X147500Y87500D01*
X151500D01*
X149500Y83500D01*
Y111300D02*
X147500Y115300D01*
X151500D01*
X149500Y111300D01*
X68500Y43000D02*
X69500Y44000D01*
X70500D01*
X69500Y45000D01*
X70500Y46000D01*
X69500D01*
X68500Y47000D01*
X67500Y46000D01*
X66500D01*
X67500Y45000D01*
X66500Y44000D01*
X67500D01*
X68500Y43000D01*
X23000Y112000D02*
X24000Y113000D01*
X25000D01*
X24000Y114000D01*
X25000Y115000D01*
X24000D01*
X23000Y116000D01*
X22000Y115000D01*
X21000D01*
X22000Y114000D01*
X21000Y113000D01*
X22000D01*
X23000Y112000D01*
X23000Y71000D02*
X24000Y72000D01*
X25000D01*
X24000Y73000D01*
X25000Y74000D01*
X24000D01*
X23000Y75000D01*
X22000Y74000D01*
X21000D01*
X22000Y73000D01*
X21000Y72000D01*
X22000D01*
X23000Y71000D01*
X91500Y39000D02*
X92500Y40000D01*
X93500D01*
X92500Y41000D01*
X93500Y42000D01*
X92500D01*
X91500Y43000D01*
X90500Y42000D01*
X89500D01*
X90500Y41000D01*
X89500Y40000D01*
X90500D01*
X91500Y39000D01*
X54500Y111500D02*
X55500Y112500D01*
X56500D01*
X55500Y113500D01*
X56500Y114500D01*
X55500D01*
X54500Y115500D01*
X53500Y114500D01*
X52500D01*
X53500Y113500D01*
X52500Y112500D01*
X53500D01*
X54500Y111500D01*
Y104000D02*
X55500Y105000D01*
X56500D01*
X55500Y106000D01*
X56500Y107000D01*
X55500D01*
X54500Y108000D01*
X53500Y107000D01*
X52500D01*
X53500Y106000D01*
X52500Y105000D01*
X53500D01*
X54500Y104000D01*
X49500Y89000D02*
X50500Y90000D01*
X51500D01*
X50500Y91000D01*
X51500Y92000D01*
X50500D01*
X49500Y93000D01*
X48500Y92000D01*
X47500D01*
X48500Y91000D01*
X47500Y90000D01*
X48500D01*
X49500Y89000D01*
X79041Y89059D02*
X80041Y90059D01*
X81041D01*
X80041Y91059D01*
X81041Y92059D01*
X80041D01*
X79041Y93059D01*
X78041Y92059D01*
X77041D01*
X78041Y91059D01*
X77041Y90059D01*
X78041D01*
X79041Y89059D01*
X147500Y65500D02*
X148500Y66500D01*
X149500D01*
X148500Y67500D01*
X149500Y68500D01*
X148500D01*
X147500Y69500D01*
X146500Y68500D01*
X145500D01*
X146500Y67500D01*
X145500Y66500D01*
X146500D01*
X147500Y65500D01*
X46126Y61126D02*
X47126Y62126D01*
X48126D01*
X47126Y63126D01*
X48126Y64126D01*
X47126D01*
X46126Y65126D01*
X45126Y64126D01*
X44126D01*
X45126Y63126D01*
X44126Y62126D01*
X45126D01*
X46126Y61126D01*
X124000Y108500D02*
X125000Y109500D01*
X126000D01*
X125000Y110500D01*
X126000Y111500D01*
X125000D01*
X124000Y112500D01*
X123000Y111500D01*
X122000D01*
X123000Y110500D01*
X122000Y109500D01*
X123000D01*
X124000Y108500D01*
X114900Y57933D02*
X115900Y58933D01*
X116900D01*
X115900Y59933D01*
X116900Y60933D01*
X115900D01*
X114900Y61933D01*
X113900Y60933D01*
X112900D01*
X113900Y59933D01*
X112900Y58933D01*
X113900D01*
X114900Y57933D01*
X54000Y53000D02*
X55000Y54000D01*
X56000D01*
X55000Y55000D01*
X56000Y56000D01*
X55000D01*
X54000Y57000D01*
X53000Y56000D01*
X52000D01*
X53000Y55000D01*
X52000Y54000D01*
X53000D01*
X54000Y53000D01*
X129000Y45600D02*
X130000Y46600D01*
X131000D01*
X130000Y47600D01*
X131000Y48600D01*
X130000D01*
X129000Y49600D01*
X128000Y48600D01*
X127000D01*
X128000Y47600D01*
X127000Y46600D01*
X128000D01*
X129000Y45600D01*
X164000Y109000D02*
X165000Y110000D01*
X166000D01*
X165000Y111000D01*
X166000Y112000D01*
X165000D01*
X164000Y113000D01*
X163000Y112000D01*
X162000D01*
X163000Y111000D01*
X162000Y110000D01*
X163000D01*
X164000Y109000D01*
X12126Y119126D02*
X13126Y120126D01*
X14126D01*
X13126Y121126D01*
X14126Y122126D01*
X13126D01*
X12126Y123126D01*
X11126Y122126D01*
X10126D01*
X11126Y121126D01*
X10126Y120126D01*
X11126D01*
X12126Y119126D01*
Y92626D02*
X13126Y93626D01*
X14126D01*
X13126Y94626D01*
X14126Y95626D01*
X13126D01*
X12126Y96626D01*
X11126Y95626D01*
X10126D01*
X11126Y94626D01*
X10126Y93626D01*
X11126D01*
X12126Y92626D01*
X52500Y148000D02*
X53500Y149000D01*
X54500D01*
X53500Y150000D01*
X54500Y151000D01*
X53500D01*
X52500Y152000D01*
X51500Y151000D01*
X50500D01*
X51500Y150000D01*
X50500Y149000D01*
X51500D01*
X52500Y148000D01*
X65000Y138000D02*
X66000Y139000D01*
X67000D01*
X66000Y140000D01*
X67000Y141000D01*
X66000D01*
X65000Y142000D01*
X64000Y141000D01*
X63000D01*
X64000Y140000D01*
X63000Y139000D01*
X64000D01*
X65000Y138000D01*
X87500Y125500D02*
X88500Y126500D01*
X89500D01*
X88500Y127500D01*
X89500Y128500D01*
X88500D01*
X87500Y129500D01*
X86500Y128500D01*
X85500D01*
X86500Y127500D01*
X85500Y126500D01*
X86500D01*
X87500Y125500D01*
X107500D02*
X108500Y126500D01*
X109500D01*
X108500Y127500D01*
X109500Y128500D01*
X108500D01*
X107500Y129500D01*
X106500Y128500D01*
X105500D01*
X106500Y127500D01*
X105500Y126500D01*
X106500D01*
X107500Y125500D01*
X127500D02*
X128500Y126500D01*
X129500D01*
X128500Y127500D01*
X129500Y128500D01*
X128500D01*
X127500Y129500D01*
X126500Y128500D01*
X125500D01*
X126500Y127500D01*
X125500Y126500D01*
X126500D01*
X127500Y125500D01*
X107500Y95500D02*
X108500Y96500D01*
X109500D01*
X108500Y97500D01*
X109500Y98500D01*
X108500D01*
X107500Y99500D01*
X106500Y98500D01*
X105500D01*
X106500Y97500D01*
X105500Y96500D01*
X106500D01*
X107500Y95500D01*
X87500D02*
X88500Y96500D01*
X89500D01*
X88500Y97500D01*
X89500Y98500D01*
X88500D01*
X87500Y99500D01*
X86500Y98500D01*
X85500D01*
X86500Y97500D01*
X85500Y96500D01*
X86500D01*
X87500Y95500D01*
Y65500D02*
X88500Y66500D01*
X89500D01*
X88500Y67500D01*
X89500Y68500D01*
X88500D01*
X87500Y69500D01*
X86500Y68500D01*
X85500D01*
X86500Y67500D01*
X85500Y66500D01*
X86500D01*
X87500Y65500D01*
X107500D02*
X108500Y66500D01*
X109500D01*
X108500Y67500D01*
X109500Y68500D01*
X108500D01*
X107500Y69500D01*
X106500Y68500D01*
X105500D01*
X106500Y67500D01*
X105500Y66500D01*
X106500D01*
X107500Y65500D01*
X127500Y103000D02*
X128500Y104000D01*
X129500D01*
X128500Y105000D01*
X129500Y106000D01*
X128500D01*
X127500Y107000D01*
X126500Y106000D01*
X125500D01*
X126500Y105000D01*
X125500Y104000D01*
X126500D01*
X127500Y103000D01*
X147500Y55500D02*
X148500Y56500D01*
X149500D01*
X148500Y57500D01*
X149500Y58500D01*
X148500D01*
X147500Y59500D01*
X146500Y58500D01*
X145500D01*
X146500Y57500D01*
X145500Y56500D01*
X146500D01*
X147500Y55500D01*
Y45500D02*
X148500Y46500D01*
X149500D01*
X148500Y47500D01*
X149500Y48500D01*
X148500D01*
X147500Y49500D01*
X146500Y48500D01*
X145500D01*
X146500Y47500D01*
X145500Y46500D01*
X146500D01*
X147500Y45500D01*
X157500Y168000D02*
X158500Y169000D01*
X159500D01*
X158500Y170000D01*
X159500Y171000D01*
X158500D01*
X157500Y172000D01*
X156500Y171000D01*
X155500D01*
X156500Y170000D01*
X155500Y169000D01*
X156500D01*
X157500Y168000D01*
X47500D02*
X48500Y169000D01*
X49500D01*
X48500Y170000D01*
X49500Y171000D01*
X48500D01*
X47500Y172000D01*
X46500Y171000D01*
X45500D01*
X46500Y170000D01*
X45500Y169000D01*
X46500D01*
X47500Y168000D01*
X17500D02*
X18500Y169000D01*
X19500D01*
X18500Y170000D01*
X19500Y171000D01*
X18500D01*
X17500Y172000D01*
X16500Y171000D01*
X15500D01*
X16500Y170000D01*
X15500Y169000D01*
X16500D01*
X17500Y168000D01*
X7500Y15500D02*
X8500Y16500D01*
X9500D01*
X8500Y17500D01*
X9500Y18500D01*
X8500D01*
X7500Y19500D01*
X6500Y18500D01*
X5500D01*
X6500Y17500D01*
X5500Y16500D01*
X6500D01*
X7500Y15500D01*
X167500D02*
X168500Y16500D01*
X169500D01*
X168500Y17500D01*
X169500Y18500D01*
X168500D01*
X167500Y19500D01*
X166500Y18500D01*
X165500D01*
X166500Y17500D01*
X165500Y16500D01*
X166500D01*
X167500Y15500D01*
X155000Y5500D02*
X156000Y6500D01*
X157000D01*
X156000Y7500D01*
X157000Y8500D01*
X156000D01*
X155000Y9500D01*
X154000Y8500D01*
X153000D01*
X154000Y7500D01*
X153000Y6500D01*
X154000D01*
X155000Y5500D01*
X135000D02*
X136000Y6500D01*
X137000D01*
X136000Y7500D01*
X137000Y8500D01*
X136000D01*
X135000Y9500D01*
X134000Y8500D01*
X133000D01*
X134000Y7500D01*
X133000Y6500D01*
X134000D01*
X135000Y5500D01*
X115000D02*
X116000Y6500D01*
X117000D01*
X116000Y7500D01*
X117000Y8500D01*
X116000D01*
X115000Y9500D01*
X114000Y8500D01*
X113000D01*
X114000Y7500D01*
X113000Y6500D01*
X114000D01*
X115000Y5500D01*
X92500D02*
X93500Y6500D01*
X94500D01*
X93500Y7500D01*
X94500Y8500D01*
X93500D01*
X92500Y9500D01*
X91500Y8500D01*
X90500D01*
X91500Y7500D01*
X90500Y6500D01*
X91500D01*
X92500Y5500D01*
X67500D02*
X68500Y6500D01*
X69500D01*
X68500Y7500D01*
X69500Y8500D01*
X68500D01*
X67500Y9500D01*
X66500Y8500D01*
X65500D01*
X66500Y7500D01*
X65500Y6500D01*
X66500D01*
X67500Y5500D01*
X117500Y53000D02*
X118500Y54000D01*
X119500D01*
X118500Y55000D01*
X119500Y56000D01*
X118500D01*
X117500Y57000D01*
X116500Y56000D01*
X115500D01*
X116500Y55000D01*
X115500Y54000D01*
X116500D01*
X117500Y53000D01*
X13000D02*
X14000Y54000D01*
X15000D01*
X14000Y55000D01*
X15000Y56000D01*
X14000D01*
X13000Y57000D01*
X12000Y56000D01*
X11000D01*
X12000Y55000D01*
X11000Y54000D01*
X12000D01*
X13000Y53000D01*
X125900Y48100D02*
X126900Y49100D01*
X127900D01*
X126900Y50100D01*
X127900Y51100D01*
X126900D01*
X125900Y52100D01*
X124900Y51100D01*
X123900D01*
X124900Y50100D01*
X123900Y49100D01*
X124900D01*
X125900Y48100D01*
X66300Y127000D02*
X67300Y128000D01*
X68300D01*
X67300Y129000D01*
X68300Y130000D01*
X67300D01*
X66300Y131000D01*
X65300Y130000D01*
X64300D01*
X65300Y129000D01*
X64300Y128000D01*
X65300D01*
X66300Y127000D01*
D12*
X173000Y97000D02*
G03*
X173000Y97000I-2000J0D01*
G01*
Y107000D02*
G03*
X173000Y107000I-2000J0D01*
G01*
X8000Y77000D02*
G03*
X8000Y77000I-2000J0D01*
G01*
Y87000D02*
G03*
X8000Y87000I-2000J0D01*
G01*
Y97000D02*
G03*
X8000Y97000I-2000J0D01*
G01*
Y107000D02*
G03*
X8000Y107000I-2000J0D01*
G01*
X173000Y57000D02*
G03*
X173000Y57000I-2000J0D01*
G01*
Y67000D02*
G03*
X173000Y67000I-2000J0D01*
G01*
Y87000D02*
G03*
X173000Y87000I-2000J0D01*
G01*
X8000Y47000D02*
G03*
X8000Y47000I-2000J0D01*
G01*
Y57000D02*
G03*
X8000Y57000I-2000J0D01*
G01*
Y67000D02*
G03*
X8000Y67000I-2000J0D01*
G01*
X173000Y77000D02*
G03*
X173000Y77000I-2000J0D01*
G01*
M02*
