%FSLAX25Y25*%
%MOIN*%
G70*
G01*
G75*
G04 Layer_Color=8388736*
%ADD10R,0.03500X0.03000*%
%ADD11R,0.02362X0.04299*%
%ADD12R,0.03000X0.03500*%
%ADD13R,0.04299X0.02362*%
%ADD14R,0.09843X0.04724*%
%ADD15R,0.11811X0.23622*%
%ADD16R,0.15748X0.06000*%
%ADD17R,0.03937X0.03937*%
%ADD18R,0.03937X0.03937*%
%ADD19R,0.05709X0.02756*%
%ADD20C,0.03000*%
%ADD21C,0.01000*%
%ADD22C,0.05000*%
%ADD23C,0.02500*%
%ADD24C,0.02000*%
%ADD25C,0.06000*%
%ADD26R,0.10000X0.16933*%
%ADD27C,0.05512*%
%ADD28C,0.06000*%
%ADD29R,0.06000X0.06000*%
%ADD30C,0.02500*%
%ADD31C,0.00500*%
%ADD32C,0.00787*%
%ADD33C,0.00600*%
%ADD34C,0.00800*%
%ADD35C,0.01500*%
%ADD36R,0.11811X0.01300*%
%ADD37C,0.00100*%
%ADD38R,0.04300X0.03800*%
%ADD39R,0.03162X0.05099*%
%ADD40R,0.03800X0.04300*%
%ADD41R,0.05099X0.03162*%
%ADD42R,0.10642X0.05524*%
%ADD43R,0.12611X0.24422*%
%ADD44R,0.16548X0.06800*%
%ADD45R,0.04737X0.04737*%
%ADD46R,0.04737X0.04737*%
%ADD47R,0.06509X0.03556*%
%ADD48C,0.06312*%
%ADD49C,0.06800*%
%ADD50R,0.06800X0.06800*%
D38*
X159500Y155500D02*
D03*
X166500D02*
D03*
X159500Y126000D02*
D03*
X166500D02*
D03*
Y120000D02*
D03*
X159500D02*
D03*
X166500Y149000D02*
D03*
X159500D02*
D03*
X18500Y121500D02*
D03*
X25500D02*
D03*
X18500Y95000D02*
D03*
X25500D02*
D03*
X42500Y121500D02*
D03*
X35500D02*
D03*
X42500Y95000D02*
D03*
X35500D02*
D03*
X45000Y161600D02*
D03*
X38000D02*
D03*
X21000D02*
D03*
X28000D02*
D03*
X21000Y49000D02*
D03*
X28000D02*
D03*
X49500Y79500D02*
D03*
X42500D02*
D03*
X49500Y87000D02*
D03*
X42500D02*
D03*
X49500Y106000D02*
D03*
X42500D02*
D03*
X49500Y113500D02*
D03*
X42500D02*
D03*
X28000Y42500D02*
D03*
X21000D02*
D03*
X48300D02*
D03*
X55300D02*
D03*
X51500Y63500D02*
D03*
X58500D02*
D03*
X18500Y67000D02*
D03*
X25500D02*
D03*
X18500Y61000D02*
D03*
X25500D02*
D03*
X148500Y98933D02*
D03*
X155500D02*
D03*
X18500Y55000D02*
D03*
X25500D02*
D03*
D39*
X159500Y132500D02*
D03*
X166980D02*
D03*
X163240Y141587D02*
D03*
D40*
X88000Y25500D02*
D03*
Y32500D02*
D03*
X95500Y25500D02*
D03*
Y32500D02*
D03*
X142000Y25500D02*
D03*
Y32500D02*
D03*
X18500Y107000D02*
D03*
Y114000D02*
D03*
X18500Y86000D02*
D03*
Y79000D02*
D03*
D41*
X25413Y83240D02*
D03*
Y109740D02*
D03*
X34500Y79500D02*
D03*
Y86980D02*
D03*
Y106000D02*
D03*
Y113480D02*
D03*
D42*
X77000Y18721D02*
D03*
Y32500D02*
D03*
X153500Y18721D02*
D03*
Y32500D02*
D03*
D43*
X107000Y23500D02*
D03*
D44*
X128000D02*
D03*
Y32500D02*
D03*
Y14500D02*
D03*
D45*
X20827Y10409D02*
D03*
Y36000D02*
D03*
X48327Y10409D02*
D03*
Y36000D02*
D03*
D46*
X35000Y10409D02*
D03*
Y36000D02*
D03*
X62500Y10409D02*
D03*
Y36000D02*
D03*
D47*
X135000Y63433D02*
D03*
Y67370D02*
D03*
Y71307D02*
D03*
Y75244D02*
D03*
Y79181D02*
D03*
Y83118D02*
D03*
Y87055D02*
D03*
Y90992D02*
D03*
Y94929D02*
D03*
Y98866D02*
D03*
Y102803D02*
D03*
Y106740D02*
D03*
Y110677D02*
D03*
Y114614D02*
D03*
Y118551D02*
D03*
Y122488D02*
D03*
Y126425D02*
D03*
Y130362D02*
D03*
Y134299D02*
D03*
Y138236D02*
D03*
X74370D02*
D03*
Y134299D02*
D03*
Y130362D02*
D03*
Y126425D02*
D03*
Y122488D02*
D03*
Y118551D02*
D03*
Y114614D02*
D03*
Y110677D02*
D03*
Y106740D02*
D03*
Y102803D02*
D03*
Y98866D02*
D03*
Y94929D02*
D03*
Y90992D02*
D03*
Y87055D02*
D03*
Y83118D02*
D03*
Y79181D02*
D03*
Y75244D02*
D03*
Y71307D02*
D03*
Y67370D02*
D03*
Y63433D02*
D03*
Y142173D02*
D03*
D48*
X18000Y141100D02*
D03*
X28000D02*
D03*
X38000Y151100D02*
D03*
X18000D02*
D03*
X38000Y141100D02*
D03*
X28000Y151100D02*
D03*
D49*
X171000Y97000D02*
D03*
X60500Y95000D02*
D03*
Y109700D02*
D03*
X149500Y85500D02*
D03*
Y113300D02*
D03*
X6000Y77000D02*
D03*
Y87000D02*
D03*
Y97000D02*
D03*
X171000Y57000D02*
D03*
Y67000D02*
D03*
Y87000D02*
D03*
X6000Y47000D02*
D03*
Y57000D02*
D03*
Y67000D02*
D03*
X171000Y77000D02*
D03*
D50*
Y107000D02*
D03*
X6000D02*
D03*
M02*
