%FSLAX25Y25*%
%MOIN*%
G70*
G01*
G75*
G04 Layer_Color=16711935*
%ADD10C,0.03150*%
%ADD11R,0.04299X0.02362*%
%ADD12O,0.09843X0.02756*%
%ADD13O,0.02756X0.09843*%
%ADD14R,0.03500X0.03000*%
%ADD15R,0.02362X0.04299*%
%ADD16R,0.03000X0.03500*%
%ADD17R,0.09449X0.10236*%
%ADD18R,0.04921X0.07874*%
%ADD19R,0.03937X0.04331*%
%ADD20R,0.04134X0.08661*%
%ADD21C,0.01000*%
%ADD22C,0.00800*%
%ADD23C,0.02000*%
%ADD24C,0.02500*%
%ADD25C,0.01500*%
%ADD26C,0.06000*%
%ADD27R,0.06000X0.06000*%
%ADD28C,0.02500*%
%ADD29R,0.01181X0.02165*%
%ADD30R,0.03150X0.05118*%
%ADD31R,0.11811X0.04213*%
%ADD32R,0.10236X0.09449*%
%ADD33R,0.37008X0.27559*%
%ADD34R,0.05906X0.06693*%
%ADD35C,0.01200*%
%ADD36C,0.06000*%
%ADD37C,0.04000*%
%ADD38C,0.00500*%
%ADD39C,0.01600*%
%ADD40C,0.00600*%
%ADD41R,0.01870X0.17323*%
%ADD42R,0.01181X0.08412*%
%ADD43R,0.17323X0.01870*%
%ADD44R,0.05099X0.03162*%
%ADD45O,0.10642X0.03556*%
%ADD46O,0.03556X0.10642*%
%ADD47R,0.04300X0.03800*%
%ADD48R,0.03162X0.05099*%
%ADD49R,0.03800X0.04300*%
%ADD50R,0.10249X0.11036*%
%ADD51R,0.05721X0.08674*%
%ADD52R,0.04737X0.05131*%
%ADD53R,0.04934X0.09461*%
%ADD54C,0.06800*%
%ADD55R,0.06800X0.06800*%
%ADD56R,0.01981X0.02965*%
%ADD57R,0.03950X0.05918*%
%ADD58R,0.12611X0.05013*%
%ADD59R,0.11036X0.10249*%
%ADD60R,0.37808X0.28359*%
%ADD61R,0.06706X0.07493*%
D44*
X38297Y49998D02*
D03*
X29210Y53738D02*
D03*
Y46257D02*
D03*
D47*
X81510Y15915D02*
D03*
X57910Y10000D02*
D03*
X75010D02*
D03*
X82010D02*
D03*
X61410Y22257D02*
D03*
X88510Y15915D02*
D03*
X57910D02*
D03*
X50910D02*
D03*
X74910Y4000D02*
D03*
X67910D02*
D03*
X50910Y10000D02*
D03*
X88410Y22257D02*
D03*
X81410D02*
D03*
X54410D02*
D03*
X34110Y61100D02*
D03*
X27110D02*
D03*
X34110Y67100D02*
D03*
X27110D02*
D03*
Y89100D02*
D03*
X34110D02*
D03*
X13110Y120100D02*
D03*
X20110D02*
D03*
X36410Y10000D02*
D03*
X43410D02*
D03*
D48*
X26930Y73257D02*
D03*
X34410D02*
D03*
X30670Y82344D02*
D03*
D49*
X20110Y127100D02*
D03*
Y134100D02*
D03*
X13110Y127100D02*
D03*
Y134100D02*
D03*
X16710Y46257D02*
D03*
Y53258D02*
D03*
X23210Y46257D02*
D03*
Y53258D02*
D03*
X26568Y116915D02*
D03*
Y109915D02*
D03*
D54*
X111910Y45757D02*
D03*
Y65758D02*
D03*
Y5757D02*
D03*
X7580D02*
D03*
Y15757D02*
D03*
Y25758D02*
D03*
Y35757D02*
D03*
Y45757D02*
D03*
Y55757D02*
D03*
X111910D02*
D03*
Y35757D02*
D03*
Y25758D02*
D03*
Y15757D02*
D03*
D55*
X7580Y65758D02*
D03*
X111910Y75757D02*
D03*
D56*
X68379Y16112D02*
D03*
X64442Y10403D02*
D03*
Y16112D02*
D03*
X68379Y10403D02*
D03*
X66410D02*
D03*
D57*
X66410Y29757D02*
D03*
X86410D02*
D03*
X76410D02*
D03*
X61410D02*
D03*
X71410D02*
D03*
X81410D02*
D03*
D58*
X39410Y103258D02*
D03*
Y130029D02*
D03*
Y123336D02*
D03*
Y109950D02*
D03*
Y116643D02*
D03*
D59*
X10410Y109431D02*
D03*
Y81084D02*
D03*
D60*
X78298Y116683D02*
D03*
D61*
X101253Y72671D02*
D03*
X44560D02*
D03*
M02*
