%FSLAX25Y25*%
%MOIN*%
G70*
G01*
G75*
G04 Layer_Color=16711935*
%ADD10R,0.02500X0.02000*%
%ADD11R,0.02600X0.01800*%
%ADD12R,0.02756X0.02362*%
%ADD13R,0.01575X0.01181*%
%ADD14R,0.03937X0.01575*%
%ADD15R,0.03937X0.07874*%
%ADD16R,0.01800X0.02600*%
%ADD17R,0.11811X0.04213*%
%ADD18R,0.03000X0.03500*%
%ADD19R,0.03500X0.03000*%
%ADD20R,0.08661X0.04134*%
%ADD21R,0.04331X0.03937*%
%ADD22R,0.03937X0.04331*%
%ADD23R,0.04134X0.08661*%
%ADD24R,0.37008X0.27559*%
%ADD25O,0.08000X0.03100*%
%ADD26O,0.03100X0.08000*%
%ADD27R,0.02000X0.02500*%
%ADD28O,0.07087X0.02362*%
%ADD29O,0.02362X0.07087*%
%ADD30C,0.01500*%
%ADD31C,0.01000*%
%ADD32C,0.02000*%
%ADD33C,0.03000*%
%ADD34C,0.04000*%
%ADD35C,0.03150*%
%ADD36C,0.06000*%
%ADD37R,0.06000X0.06000*%
%ADD38C,0.02500*%
%ADD39C,0.04000*%
%ADD40R,0.04921X0.07874*%
%ADD41R,0.07087X0.12992*%
%ADD42R,0.09449X0.07087*%
%ADD43R,0.09843X0.04724*%
%ADD44R,0.05906X0.06693*%
%ADD45R,0.03150X0.05118*%
%ADD46R,0.01181X0.01575*%
%ADD47R,0.09449X0.10236*%
%ADD48C,0.07000*%
%ADD49C,0.06000*%
%ADD50C,0.00787*%
%ADD51C,0.00500*%
%ADD52C,0.01600*%
%ADD53C,0.00600*%
%ADD54C,0.00800*%
%ADD55R,0.02537X0.00700*%
%ADD56C,0.00100*%
%ADD57C,0.00700*%
%ADD58R,0.01181X0.08412*%
%ADD59R,0.11811X0.01300*%
%ADD60R,0.01870X0.17323*%
%ADD61R,0.13988X0.01000*%
%ADD62R,0.03300X0.02800*%
%ADD63R,0.03400X0.02600*%
%ADD64R,0.03556X0.03162*%
%ADD65R,0.02375X0.01981*%
%ADD66R,0.04737X0.02375*%
%ADD67R,0.04737X0.08674*%
%ADD68R,0.02600X0.03400*%
%ADD69R,0.12611X0.05013*%
%ADD70R,0.03800X0.04300*%
%ADD71R,0.04300X0.03800*%
%ADD72R,0.09461X0.04934*%
%ADD73R,0.05131X0.04737*%
%ADD74R,0.04737X0.05131*%
%ADD75R,0.04934X0.09461*%
%ADD76R,0.37808X0.28359*%
%ADD77O,0.08800X0.03900*%
%ADD78O,0.03900X0.08800*%
%ADD79R,0.02800X0.03300*%
%ADD80O,0.07887X0.03162*%
%ADD81O,0.03162X0.07887*%
%ADD82C,0.06800*%
%ADD83R,0.06800X0.06800*%
%ADD84C,0.04800*%
%ADD85R,0.05721X0.08674*%
%ADD86R,0.07887X0.13792*%
%ADD87R,0.10249X0.07887*%
%ADD88R,0.10642X0.05524*%
%ADD89R,0.06706X0.07493*%
%ADD90R,0.03950X0.05918*%
%ADD91R,0.01981X0.02375*%
%ADD92R,0.10249X0.11036*%
D63*
X18400Y76100D02*
D03*
Y80100D02*
D03*
X22500Y78100D02*
D03*
D65*
X34890Y33331D02*
D03*
Y36874D02*
D03*
X50500Y22343D02*
D03*
Y18800D02*
D03*
D70*
X161500Y149311D02*
D03*
X112355Y107187D02*
D03*
Y114187D02*
D03*
X55890Y15240D02*
D03*
Y22240D02*
D03*
X40700Y40374D02*
D03*
Y33374D02*
D03*
X29283Y161984D02*
D03*
Y154984D02*
D03*
X161500Y142311D02*
D03*
X168500Y149311D02*
D03*
Y142311D02*
D03*
X22926Y64800D02*
D03*
Y57800D02*
D03*
D71*
X17000Y44500D02*
D03*
X16900Y50600D02*
D03*
X23900D02*
D03*
X24000Y44500D02*
D03*
X22500Y85766D02*
D03*
X15500D02*
D03*
X83890Y17740D02*
D03*
X90890D02*
D03*
X83890Y11740D02*
D03*
X90890D02*
D03*
X28890Y33374D02*
D03*
X21890D02*
D03*
X44390Y12240D02*
D03*
X37390D02*
D03*
X73890Y17740D02*
D03*
X66890D02*
D03*
X168500Y163300D02*
D03*
X161500D02*
D03*
Y169300D02*
D03*
X168500D02*
D03*
X121000Y135800D02*
D03*
X128000D02*
D03*
X143500Y129800D02*
D03*
X136500D02*
D03*
X143500Y135800D02*
D03*
X136500D02*
D03*
X168500Y157300D02*
D03*
X161500D02*
D03*
X37390Y22343D02*
D03*
X44390D02*
D03*
X15500Y107000D02*
D03*
X22500D02*
D03*
X15500Y97000D02*
D03*
X22500D02*
D03*
D82*
X6000Y67000D02*
D03*
Y57000D02*
D03*
Y47000D02*
D03*
X171000Y87000D02*
D03*
Y67000D02*
D03*
Y57000D02*
D03*
Y77000D02*
D03*
Y97000D02*
D03*
X6000D02*
D03*
Y87000D02*
D03*
Y77000D02*
D03*
D83*
X171000Y107000D02*
D03*
X6000D02*
D03*
D84*
X80870Y116187D02*
D03*
X75907Y110087D02*
D03*
X102655Y119287D02*
D03*
X83800Y135466D02*
D03*
X104043Y134800D02*
D03*
X92681Y116187D02*
D03*
X88507Y110087D02*
D03*
D85*
X126382Y126800D02*
D03*
X111618D02*
D03*
D86*
X172000Y125100D02*
D03*
X152315D02*
D03*
D87*
X149000Y146989D02*
D03*
Y170611D02*
D03*
D88*
X136555Y114787D02*
D03*
Y101008D02*
D03*
X123055D02*
D03*
Y114787D02*
D03*
D89*
X47039Y71653D02*
D03*
X103732D02*
D03*
D90*
X68890Y28740D02*
D03*
X88890D02*
D03*
X78890D02*
D03*
X63890D02*
D03*
X73890D02*
D03*
X83890D02*
D03*
D91*
X72847Y11740D02*
D03*
X76390D02*
D03*
X22500Y90900D02*
D03*
X18957D02*
D03*
X82846Y6618D02*
D03*
X86390D02*
D03*
D92*
X103327Y148300D02*
D03*
X131673D02*
D03*
X103327Y166800D02*
D03*
X131673D02*
D03*
M02*
