%FSLAX25Y25*%
%MOIN*%
G70*
G01*
G75*
G04 Layer_Color=8388736*
%ADD10R,0.02500X0.02000*%
%ADD11R,0.02600X0.01800*%
%ADD12R,0.02756X0.02362*%
%ADD13R,0.01575X0.01181*%
%ADD14R,0.03937X0.01575*%
%ADD15R,0.03937X0.07874*%
%ADD16R,0.01800X0.02600*%
%ADD17R,0.11811X0.04213*%
%ADD18R,0.03000X0.03500*%
%ADD19R,0.03500X0.03000*%
%ADD20R,0.08661X0.04134*%
%ADD21R,0.04331X0.03937*%
%ADD22R,0.03937X0.04331*%
%ADD23R,0.04134X0.08661*%
%ADD24R,0.37008X0.27559*%
%ADD25O,0.08000X0.03100*%
%ADD26O,0.03100X0.08000*%
%ADD27R,0.02000X0.02500*%
%ADD28O,0.07087X0.02362*%
%ADD29O,0.02362X0.07087*%
%ADD30C,0.01500*%
%ADD31C,0.01000*%
%ADD32C,0.02000*%
%ADD33C,0.03000*%
%ADD34C,0.04000*%
%ADD35C,0.03150*%
%ADD36C,0.06000*%
%ADD37R,0.06000X0.06000*%
%ADD38C,0.02500*%
%ADD39C,0.04000*%
%ADD40R,0.04921X0.07874*%
%ADD41R,0.07087X0.12992*%
%ADD42R,0.09449X0.07087*%
%ADD43R,0.09843X0.04724*%
%ADD44R,0.05906X0.06693*%
%ADD45R,0.03150X0.05118*%
%ADD46R,0.01181X0.01575*%
%ADD47R,0.09449X0.10236*%
%ADD48C,0.07000*%
%ADD49C,0.06000*%
%ADD50C,0.00787*%
%ADD51C,0.00500*%
%ADD52C,0.01600*%
%ADD53C,0.00600*%
%ADD54C,0.00800*%
%ADD55R,0.02537X0.00700*%
%ADD56C,0.00100*%
%ADD57C,0.00700*%
%ADD58R,0.01181X0.08412*%
%ADD59R,0.11811X0.01300*%
%ADD60R,0.01870X0.17323*%
%ADD61R,0.13988X0.01000*%
%ADD62R,0.03300X0.02800*%
%ADD63R,0.03400X0.02600*%
%ADD64R,0.03556X0.03162*%
%ADD65R,0.02375X0.01981*%
%ADD66R,0.04737X0.02375*%
%ADD67R,0.04737X0.08674*%
%ADD68R,0.02600X0.03400*%
%ADD69R,0.12611X0.05013*%
%ADD70R,0.03800X0.04300*%
%ADD71R,0.04300X0.03800*%
%ADD72R,0.09461X0.04934*%
%ADD73R,0.05131X0.04737*%
%ADD74R,0.04737X0.05131*%
%ADD75R,0.04934X0.09461*%
%ADD76R,0.37808X0.28359*%
%ADD77O,0.08800X0.03900*%
%ADD78O,0.03900X0.08800*%
%ADD79R,0.02800X0.03300*%
%ADD80O,0.07887X0.03162*%
%ADD81O,0.03162X0.07887*%
%ADD82C,0.06800*%
%ADD83R,0.06800X0.06800*%
D62*
X40000Y154874D02*
D03*
X35000D02*
D03*
X149087Y25500D02*
D03*
X154087D02*
D03*
D63*
X162000Y66787D02*
D03*
X157900Y64787D02*
D03*
Y68787D02*
D03*
X162000Y45300D02*
D03*
X157900Y43300D02*
D03*
Y47300D02*
D03*
D64*
X29173Y161370D02*
D03*
Y154874D02*
D03*
D65*
X28976Y137097D02*
D03*
Y140641D02*
D03*
Y149197D02*
D03*
Y145654D02*
D03*
D66*
X21449Y139338D02*
D03*
Y147015D02*
D03*
Y141897D02*
D03*
Y136779D02*
D03*
Y144456D02*
D03*
D67*
X8850Y156464D02*
D03*
Y126542D02*
D03*
D68*
X166000Y125773D02*
D03*
X170000D02*
D03*
X168000Y129873D02*
D03*
X73890Y143874D02*
D03*
X77890D02*
D03*
X90890Y147874D02*
D03*
X88890Y143774D02*
D03*
X75890Y147974D02*
D03*
X86890Y147874D02*
D03*
D69*
X165370Y149311D02*
D03*
Y142618D02*
D03*
Y162697D02*
D03*
Y156004D02*
D03*
Y169390D02*
D03*
D70*
X63380Y153500D02*
D03*
Y146500D02*
D03*
X56790Y146240D02*
D03*
Y139240D02*
D03*
X49380Y146240D02*
D03*
Y139240D02*
D03*
X4008Y10366D02*
D03*
Y17366D02*
D03*
X12008Y10366D02*
D03*
Y17366D02*
D03*
X86890Y161374D02*
D03*
X75890Y154374D02*
D03*
Y161374D02*
D03*
X96890Y144518D02*
D03*
Y151518D02*
D03*
X86890Y154374D02*
D03*
D71*
X162000Y97800D02*
D03*
X155000D02*
D03*
X162000Y80300D02*
D03*
X155000D02*
D03*
X162000Y52800D02*
D03*
X155000D02*
D03*
X162000Y74300D02*
D03*
X155000D02*
D03*
X56380Y153500D02*
D03*
X49380D02*
D03*
X155000Y91300D02*
D03*
X162000D02*
D03*
X155000Y58800D02*
D03*
X162000D02*
D03*
X88890Y138018D02*
D03*
X95890D02*
D03*
X77870D02*
D03*
X70870D02*
D03*
D72*
X170287Y19693D02*
D03*
Y31307D02*
D03*
D73*
X163988Y25500D02*
D03*
D74*
X56380Y159701D02*
D03*
D75*
X50573Y166000D02*
D03*
X62187D02*
D03*
D76*
X126482Y156043D02*
D03*
D77*
X142287Y25500D02*
D03*
D78*
X49374Y126287D02*
D03*
D79*
X149087Y20000D02*
D03*
Y15000D02*
D03*
X154087Y20000D02*
D03*
Y15000D02*
D03*
X158987Y25500D02*
D03*
Y20500D02*
D03*
D80*
X23390Y104240D02*
D03*
Y100303D02*
D03*
Y92429D02*
D03*
Y96366D02*
D03*
Y80618D02*
D03*
Y76681D02*
D03*
Y84555D02*
D03*
Y88492D02*
D03*
Y56996D02*
D03*
Y53059D02*
D03*
Y45185D02*
D03*
Y49122D02*
D03*
Y64870D02*
D03*
Y60933D02*
D03*
Y68807D02*
D03*
Y72744D02*
D03*
Y25500D02*
D03*
X142287Y108177D02*
D03*
X23390Y33374D02*
D03*
Y29437D02*
D03*
Y37311D02*
D03*
Y41248D02*
D03*
X142287D02*
D03*
Y37311D02*
D03*
Y29437D02*
D03*
Y33374D02*
D03*
Y25500D02*
D03*
Y72744D02*
D03*
Y68807D02*
D03*
Y60933D02*
D03*
Y64870D02*
D03*
Y49122D02*
D03*
Y45185D02*
D03*
Y53059D02*
D03*
Y56996D02*
D03*
Y88492D02*
D03*
Y84555D02*
D03*
Y76681D02*
D03*
Y80618D02*
D03*
Y96366D02*
D03*
Y92429D02*
D03*
Y100303D02*
D03*
Y104240D02*
D03*
D81*
X41500Y126287D02*
D03*
X49374D02*
D03*
X53311D02*
D03*
X61185D02*
D03*
X57248D02*
D03*
X72996D02*
D03*
X76933D02*
D03*
X69059D02*
D03*
X65122D02*
D03*
X96618D02*
D03*
X100555D02*
D03*
X108429D02*
D03*
X104492D02*
D03*
X88744D02*
D03*
X92681D02*
D03*
X84807D02*
D03*
X80870D02*
D03*
X120240D02*
D03*
X124177D02*
D03*
X116303D02*
D03*
X112366D02*
D03*
X45437Y126287D02*
D03*
X41500Y7390D02*
D03*
X49374Y7390D02*
D03*
X116303Y7390D02*
D03*
X120240D02*
D03*
X124177D02*
D03*
X84807D02*
D03*
X88744D02*
D03*
X96618D02*
D03*
X92681D02*
D03*
X108429D02*
D03*
X112366Y7390D02*
D03*
X104492Y7390D02*
D03*
X100555D02*
D03*
X69059D02*
D03*
X72996D02*
D03*
X80870D02*
D03*
X76933D02*
D03*
X61185D02*
D03*
X65122D02*
D03*
X57248D02*
D03*
X53311D02*
D03*
X45437D02*
D03*
D82*
X6000Y67000D02*
D03*
Y57000D02*
D03*
Y47000D02*
D03*
X171000Y87000D02*
D03*
Y67000D02*
D03*
Y57000D02*
D03*
Y77000D02*
D03*
Y97000D02*
D03*
X6000D02*
D03*
Y87000D02*
D03*
Y77000D02*
D03*
D83*
X171000Y107000D02*
D03*
X6000D02*
D03*
M02*
