%FSLAX25Y25*%
%MOIN*%
G70*
G01*
G75*
%ADD10C,0.00600*%
%ADD11C,0.00800*%
%ADD12C,0.00667*%
D10*
X12598Y169291D02*
G03*
X12598Y169291I-4724J0D01*
G01*
X174016Y7874D02*
G03*
X174016Y7874I-4724J0D01*
G01*
X4000Y67000D02*
X8000D01*
X6000Y65000D02*
Y69000D01*
X4000Y57000D02*
X8000D01*
X6000Y55000D02*
Y59000D01*
X4000Y47000D02*
X8000D01*
X6000Y45000D02*
Y49000D01*
X169000Y87000D02*
X173000D01*
X171000Y85000D02*
Y89000D01*
X169000Y67000D02*
X173000D01*
X171000Y65000D02*
Y69000D01*
X169000Y57000D02*
X173000D01*
X171000Y55000D02*
Y59000D01*
X169000Y77000D02*
X173000D01*
X171000Y75000D02*
Y79000D01*
X169000Y107000D02*
X173000D01*
X171000Y105000D02*
Y109000D01*
X169000Y97000D02*
X173000D01*
X171000Y95000D02*
Y99000D01*
X4000Y107000D02*
X8000D01*
X6000Y105000D02*
Y109000D01*
X4000Y97000D02*
X8000D01*
X6000Y95000D02*
Y99000D01*
X4000Y87000D02*
X8000D01*
X6000Y85000D02*
Y89000D01*
X4000Y77000D02*
X8000D01*
X6000Y75000D02*
Y79000D01*
X99400Y136900D02*
X100600D01*
X100000Y136300D02*
Y137500D01*
X74900Y132000D02*
X76100D01*
X75500Y131400D02*
Y132600D01*
X44400Y120000D02*
X45600D01*
X45000Y119400D02*
Y120600D01*
X144400Y20000D02*
X145600D01*
X145000Y19400D02*
Y20600D01*
X134400Y20000D02*
X135600D01*
X135000Y19400D02*
Y20600D01*
X171900Y16000D02*
X173100D01*
X172500Y15400D02*
Y16600D01*
X161900Y16000D02*
X163100D01*
X162500Y15400D02*
Y16600D01*
X150100Y104074D02*
X151300D01*
X150700Y103474D02*
Y104674D01*
X161600Y102574D02*
X162800D01*
X162200Y101974D02*
Y103174D01*
X155600Y114574D02*
X156800D01*
X156200Y113974D02*
Y115174D01*
X161100Y120574D02*
X162300D01*
X161700Y119974D02*
Y121174D01*
X116600Y173574D02*
X117800D01*
X117200Y172974D02*
Y174174D01*
X64400Y100000D02*
X65600D01*
X65000Y99400D02*
Y100600D01*
X44400Y100000D02*
X45600D01*
X45000Y99400D02*
Y100600D01*
X106100Y110574D02*
X107300D01*
X106700Y109974D02*
Y111174D01*
X84100Y120074D02*
X85300D01*
X84700Y119474D02*
Y120674D01*
X98100Y114574D02*
X99300D01*
X98700Y113974D02*
Y115174D01*
X64400Y40000D02*
X65600D01*
X65000Y39400D02*
Y40600D01*
X44400Y40000D02*
X45600D01*
X45000Y39400D02*
Y40600D01*
X49600Y29574D02*
X50800D01*
X50200Y28974D02*
Y30174D01*
X8600Y23574D02*
X9800D01*
X9200Y22974D02*
Y24174D01*
X134400Y10000D02*
X135600D01*
X135000Y9400D02*
Y10600D01*
X144400Y10000D02*
X145600D01*
X145000Y9400D02*
Y10600D01*
X9100Y34574D02*
X10300D01*
X9700Y33974D02*
Y35174D01*
X94400Y172500D02*
X95600D01*
X95000Y171900D02*
Y173100D01*
X84400Y172500D02*
X85600D01*
X85000Y171900D02*
Y173100D01*
X34400Y173500D02*
X35600D01*
X35000Y172900D02*
Y174100D01*
X24400Y173500D02*
X25600D01*
X25000Y172900D02*
Y174100D01*
X35600Y150574D02*
X36800D01*
X36200Y149974D02*
Y151174D01*
X24600Y150074D02*
X25800D01*
X25200Y149474D02*
Y150674D01*
X25400Y136854D02*
X26600D01*
X26000Y136254D02*
Y137454D01*
X148300Y44300D02*
X149500D01*
X148900Y43700D02*
Y44900D01*
X29700Y44700D02*
X30900D01*
X30300Y44100D02*
Y45300D01*
X12900Y40000D02*
X14100D01*
X13500Y39400D02*
Y40600D01*
X153800Y68787D02*
X155000D01*
X154400Y68187D02*
Y69387D01*
X97618Y120787D02*
X98818D01*
X98218Y120187D02*
Y121387D01*
X80270Y120787D02*
X81470D01*
X80870Y120187D02*
Y121387D01*
X28100Y95166D02*
X29300D01*
X28700Y94566D02*
Y95766D01*
X136153Y68807D02*
X137353D01*
X136753Y68207D02*
Y69407D01*
X4400Y143500D02*
X5600D01*
X5000Y142900D02*
Y144100D01*
X134890Y106574D02*
X136090D01*
X135490Y105974D02*
Y107174D01*
X64400Y60000D02*
X65600D01*
X65000Y59400D02*
Y60600D01*
X116600Y144700D02*
X117800D01*
X117200Y144100D02*
Y145300D01*
X116600Y154700D02*
X117800D01*
X117200Y154100D02*
Y155300D01*
X116600Y164700D02*
X117800D01*
X117200Y164100D02*
Y165300D01*
X70390Y23540D02*
X71590D01*
X70990Y22940D02*
Y24140D01*
X15400Y13500D02*
X16600D01*
X16000Y12900D02*
Y14100D01*
X58590Y29540D02*
X59790D01*
X59190Y28940D02*
Y30140D01*
X21090Y21440D02*
X22290D01*
X21690Y20840D02*
Y22040D01*
X78890Y23040D02*
X80090D01*
X79490Y22440D02*
Y23640D01*
X32400Y29900D02*
X33600D01*
X33000Y29300D02*
Y30500D01*
X31200Y38200D02*
X32400D01*
X31800Y37600D02*
Y38800D01*
X59790Y15240D02*
X60990D01*
X60390Y14640D02*
Y15840D01*
X94290Y14740D02*
X95490D01*
X94890Y14140D02*
Y15340D01*
X4400Y123500D02*
X5600D01*
X5000Y122900D02*
Y124100D01*
X156590Y169300D02*
X157790D01*
X157190Y168700D02*
Y169900D01*
X156900Y148000D02*
X158100D01*
X157500Y147400D02*
Y148600D01*
X156900Y150500D02*
X158100D01*
X157500Y149900D02*
Y151100D01*
X152100Y134000D02*
X153300D01*
X152700Y133400D02*
Y134600D01*
X167900Y137700D02*
X169100D01*
X168500Y137100D02*
Y138300D01*
X83290Y147874D02*
X84490D01*
X83890Y147274D02*
Y148474D01*
X90290Y151374D02*
X91490D01*
X90890Y150774D02*
Y151974D01*
X70833Y142287D02*
X72033D01*
X71433Y141687D02*
Y142887D01*
X76533Y120787D02*
X77733D01*
X77133Y120187D02*
Y121387D01*
X24573Y154874D02*
X25773D01*
X25172Y154274D02*
Y155474D01*
X17700Y64800D02*
X18900D01*
X18300Y64200D02*
Y65400D01*
X36790Y27274D02*
X37990D01*
X37390Y26674D02*
Y27874D01*
X16790Y28437D02*
X17990D01*
X17390Y27837D02*
Y29037D01*
X28753Y49122D02*
X29953D01*
X29353Y48522D02*
Y49722D01*
X157254Y161282D02*
X158454D01*
X157854Y160682D02*
Y161882D01*
X154254Y161282D02*
X155454D01*
X154854Y160682D02*
Y161882D01*
X154254Y164282D02*
X155454D01*
X154854Y163682D02*
Y164882D01*
X157254Y164282D02*
X158454D01*
X157854Y163682D02*
Y164882D01*
X108790Y118894D02*
X109990D01*
X109390Y118294D02*
Y119494D01*
X111790Y118894D02*
X112990D01*
X112390Y118294D02*
Y119494D01*
X114790Y118894D02*
X115990D01*
X115390Y118294D02*
Y119494D01*
X16790Y33974D02*
X17990D01*
X17390Y33374D02*
Y34574D01*
X29290Y27287D02*
X30490D01*
X29890Y26687D02*
Y27887D01*
X91681Y120787D02*
X92881D01*
X92281Y120187D02*
Y121387D01*
X99955Y131787D02*
X101155D01*
X100555Y131187D02*
Y132387D01*
X88081Y120787D02*
X89281D01*
X88681Y120187D02*
Y121387D01*
X72290Y147974D02*
X73490D01*
X72890Y147374D02*
Y148574D01*
X145590Y121474D02*
X146790D01*
X146190Y120874D02*
Y122074D01*
X104400Y80000D02*
X105600D01*
X105000Y79400D02*
Y80600D01*
X44400Y60000D02*
X45600D01*
X45000Y59400D02*
Y60600D01*
X124400Y80000D02*
X125600D01*
X125000Y79400D02*
Y80600D01*
X124400Y60000D02*
X125600D01*
X125000Y59400D02*
Y60600D01*
X104400Y60000D02*
X105600D01*
X105000Y59400D02*
Y60600D01*
X153800Y64787D02*
X155000D01*
X154400Y64187D02*
Y65387D01*
X44400Y80000D02*
X45600D01*
X45000Y79400D02*
Y80600D01*
X64400Y80000D02*
X65600D01*
X65000Y79400D02*
Y80600D01*
X161900Y36000D02*
X163100D01*
X162500Y35400D02*
Y36600D01*
X151900Y36000D02*
X153100D01*
X152500Y35400D02*
Y36600D01*
X171900Y46000D02*
X173100D01*
X172500Y45400D02*
Y46600D01*
X171900Y36000D02*
X173100D01*
X172500Y35400D02*
Y36600D01*
X160601Y133500D02*
X161801D01*
X161201Y132900D02*
Y134100D01*
X45780Y166001D02*
X46980D01*
X46380Y165401D02*
Y166601D01*
X65780Y166001D02*
X66980D01*
X66380Y165401D02*
Y166601D01*
X45780Y159001D02*
X46980D01*
X46380Y158401D02*
Y159601D01*
X65780Y159001D02*
X66980D01*
X66380Y158401D02*
Y159601D01*
X43100Y149374D02*
X44300D01*
X43700Y148774D02*
Y149974D01*
X43100Y136374D02*
X44300D01*
X43700Y135774D02*
Y136974D01*
X56780Y134501D02*
X57980D01*
X57380Y133901D02*
Y135101D01*
X45780Y173001D02*
X46980D01*
X46380Y172401D02*
Y173601D01*
X65780Y173001D02*
X66980D01*
X66380Y172401D02*
Y173601D01*
X124400Y40000D02*
X125600D01*
X125000Y39400D02*
Y40600D01*
X124400Y20000D02*
X125600D01*
X125000Y19400D02*
Y20600D01*
X104400Y40000D02*
X105600D01*
X105000Y39400D02*
Y40600D01*
X104400Y20000D02*
X105600D01*
X105000Y19400D02*
Y20600D01*
X124400Y90000D02*
X125600D01*
X125000Y89400D02*
Y90600D01*
X34400Y60000D02*
X35600D01*
X35000Y59400D02*
Y60600D01*
X84400Y60000D02*
X85600D01*
X85000Y59400D02*
Y60600D01*
X84400Y80000D02*
X85600D01*
X85000Y79400D02*
Y80600D01*
X84400Y40000D02*
X85600D01*
X85000Y39400D02*
Y40600D01*
X142987Y115000D02*
X144187D01*
X143587Y114400D02*
Y115600D01*
X84207Y131787D02*
X85407D01*
X84807Y131187D02*
Y132387D01*
X84400Y100000D02*
X85600D01*
X85000Y99400D02*
Y100600D01*
X104400Y100000D02*
X105600D01*
X105000Y99400D02*
Y100600D01*
X34400Y80000D02*
X35600D01*
X35000Y79400D02*
Y80600D01*
X144400Y5000D02*
X145600D01*
X145000Y4400D02*
Y5600D01*
X134400Y5000D02*
X135600D01*
X135000Y4400D02*
Y5600D01*
X159400Y5000D02*
X160600D01*
X160000Y4400D02*
Y5600D01*
X74400Y172500D02*
X75600D01*
X75000Y171900D02*
Y173100D01*
X34400Y166000D02*
X35600D01*
X35000Y165400D02*
Y166600D01*
X34400Y158500D02*
X35600D01*
X35000Y157900D02*
Y159100D01*
X14400Y153500D02*
X15600D01*
X15000Y152900D02*
Y154100D01*
X171280Y134501D02*
X172480D01*
X171880Y133901D02*
Y135101D01*
X14400Y173500D02*
X15600D01*
X15000Y172900D02*
Y174100D01*
X14400Y163500D02*
X15600D01*
X15000Y162900D02*
Y164100D01*
X4400Y133500D02*
X5600D01*
X5000Y132900D02*
Y134100D01*
X4400Y153500D02*
X5600D01*
X5000Y152900D02*
Y154100D01*
X4400Y113500D02*
X5600D01*
X5000Y112900D02*
Y114100D01*
X87900Y132000D02*
X89100D01*
X88500Y131400D02*
Y132600D01*
X92900Y157500D02*
X94100D01*
X93500Y156900D02*
Y158100D01*
X29400Y123500D02*
X30600D01*
X30000Y122900D02*
Y124100D01*
D11*
X177165Y169291D02*
G03*
X169291Y177165I-7874J0D01*
G01*
X7874Y177165D02*
G03*
X0Y169291I0J-7874D01*
G01*
X169291Y-0D02*
G03*
X177165Y7874I0J7874D01*
G01*
X0D02*
G03*
X7874Y-0I7874J0D01*
G01*
X0Y7874D02*
Y169291D01*
X7874Y177165D02*
X169291D01*
X177165Y7874D02*
Y169291D01*
X7874Y-0D02*
X169291D01*
M02*
