%FSLAX25Y25*%
%MOIN*%
G70*
G01*
G75*
G04 Layer_Color=16711935*
%ADD10R,0.03937X0.03937*%
%ADD11R,0.03937X0.03937*%
%ADD12R,0.03937X0.03937*%
%ADD13R,0.03937X0.03937*%
%ADD14C,0.01000*%
%ADD15C,0.02000*%
%ADD16C,0.06000*%
%ADD17C,0.07000*%
%ADD18C,0.05000*%
%ADD19C,0.02500*%
%ADD20C,0.04000*%
%ADD21C,0.03000*%
%ADD22C,0.07087*%
%ADD23C,0.06300*%
%ADD24C,0.06000*%
%ADD25R,0.06000X0.06000*%
%ADD26C,0.05512*%
%ADD27C,0.08661*%
%ADD28C,0.02500*%
%ADD29C,0.05000*%
%ADD30R,0.05000X0.06000*%
%ADD31R,0.05709X0.02756*%
%ADD32R,0.15748X0.15748*%
%ADD33R,0.08071X0.08858*%
%ADD34R,0.04213X0.11811*%
%ADD35R,0.06000X0.05000*%
%ADD36R,0.08858X0.08071*%
%ADD37R,0.27559X0.37008*%
%ADD38R,0.02362X0.04299*%
%ADD39O,0.02400X0.07400*%
%ADD40R,0.15748X0.06000*%
%ADD41R,0.11811X0.23622*%
%ADD42R,0.04299X0.02362*%
%ADD43O,0.02400X0.07600*%
%ADD44R,0.02400X0.07600*%
%ADD45C,0.00500*%
%ADD46C,0.02362*%
%ADD47C,0.00787*%
%ADD48C,0.00984*%
%ADD49C,0.00600*%
%ADD50C,0.00200*%
%ADD51C,0.00800*%
%ADD52R,0.00446X0.00990*%
%ADD53R,0.00900X0.00700*%
%ADD54C,0.00400*%
%ADD55C,0.01500*%
%ADD56R,0.04737X0.04737*%
%ADD57R,0.04737X0.04737*%
%ADD58R,0.04737X0.04737*%
%ADD59R,0.04737X0.04737*%
%ADD60C,0.07887*%
%ADD61C,0.07100*%
%ADD62C,0.06800*%
%ADD63R,0.06800X0.06800*%
%ADD64C,0.06312*%
%ADD65C,0.09461*%
%ADD66R,0.05800X0.06800*%
%ADD67R,0.06509X0.03556*%
%ADD68R,0.16548X0.16548*%
%ADD69R,0.08871X0.09658*%
%ADD70R,0.05013X0.12611*%
%ADD71R,0.06800X0.05800*%
%ADD72R,0.09658X0.08871*%
%ADD73R,0.28359X0.37808*%
%ADD74R,0.03162X0.05099*%
%ADD75O,0.03200X0.08200*%
%ADD76R,0.16548X0.06800*%
%ADD77R,0.12611X0.24422*%
%ADD78R,0.05099X0.03162*%
%ADD79O,0.03200X0.08400*%
%ADD80R,0.03200X0.08400*%
D60*
X418607Y123917D02*
D03*
X408607D02*
D03*
X398607D02*
D03*
X388607D02*
D03*
X378607D02*
D03*
X368607D02*
D03*
Y35925D02*
D03*
X378607D02*
D03*
X418607D02*
D03*
X408607D02*
D03*
X398607D02*
D03*
X388607D02*
D03*
X72500Y76000D02*
D03*
Y66158D02*
D03*
X12835Y46842D02*
D03*
Y37000D02*
D03*
X641440Y150218D02*
D03*
X651282D02*
D03*
X719282Y145218D02*
D03*
X709440D02*
D03*
X97800Y113842D02*
D03*
Y104000D02*
D03*
X81500Y141157D02*
D03*
Y151000D02*
D03*
D61*
X405512Y157362D02*
D03*
Y147362D02*
D03*
X509449Y181220D02*
D03*
Y191220D02*
D03*
X444488Y157362D02*
D03*
Y147362D02*
D03*
Y181220D02*
D03*
Y191220D02*
D03*
X580315Y191220D02*
D03*
Y181220D02*
D03*
X509449Y147362D02*
D03*
Y157362D02*
D03*
X273228D02*
D03*
Y147362D02*
D03*
X196850Y164291D02*
D03*
Y174291D02*
D03*
X215354D02*
D03*
Y164291D02*
D03*
X405512Y181220D02*
D03*
Y191220D02*
D03*
X340158D02*
D03*
Y181220D02*
D03*
Y147362D02*
D03*
Y157362D02*
D03*
X273228Y191220D02*
D03*
Y181220D02*
D03*
D62*
X685780Y106957D02*
D03*
X124000Y156218D02*
D03*
X623224Y189457D02*
D03*
X160940Y165718D02*
D03*
X91000Y48500D02*
D03*
X754940Y158718D02*
D03*
Y140957D02*
D03*
X685780Y91457D02*
D03*
X11000Y74500D02*
D03*
X268280Y9457D02*
D03*
X258280D02*
D03*
X248280D02*
D03*
X662343Y29000D02*
D03*
X652500D02*
D03*
X580000D02*
D03*
X589843D02*
D03*
X599685D02*
D03*
X609528D02*
D03*
X619370D02*
D03*
X225232D02*
D03*
X215390D02*
D03*
X205547D02*
D03*
X195705D02*
D03*
X126500Y29000D02*
D03*
X136343D02*
D03*
X146185D02*
D03*
X156027D02*
D03*
X165870D02*
D03*
X97780Y29000D02*
D03*
X87779D02*
D03*
X77780D02*
D03*
X27779D02*
D03*
X37622D02*
D03*
X47465D02*
D03*
X57307D02*
D03*
X67150D02*
D03*
D63*
X150940Y165718D02*
D03*
X278280Y9457D02*
D03*
D64*
X636779Y54257D02*
D03*
X626780Y64257D02*
D03*
X646779Y54257D02*
D03*
X626780D02*
D03*
X636779Y64257D02*
D03*
X646779D02*
D03*
D65*
X42421Y189600D02*
D03*
X12500D02*
D03*
D66*
X123500Y142600D02*
D03*
Y133600D02*
D03*
X116280Y40957D02*
D03*
X106780D02*
D03*
X114000Y107500D02*
D03*
X589205Y49718D02*
D03*
Y40718D02*
D03*
X598705Y59913D02*
D03*
Y68914D02*
D03*
X608205D02*
D03*
Y59913D02*
D03*
X159000Y138600D02*
D03*
Y147600D02*
D03*
X206280Y43957D02*
D03*
Y52957D02*
D03*
X215280D02*
D03*
Y43957D02*
D03*
X106780Y49957D02*
D03*
X116280D02*
D03*
X683280Y198457D02*
D03*
Y189457D02*
D03*
X781279Y93524D02*
D03*
Y84524D02*
D03*
X182000Y44500D02*
D03*
Y53500D02*
D03*
X122500Y116500D02*
D03*
Y107500D02*
D03*
X673780Y189457D02*
D03*
Y198457D02*
D03*
X80099Y175914D02*
D03*
Y166913D02*
D03*
X113799Y184913D02*
D03*
Y175913D02*
D03*
X373107Y100218D02*
D03*
Y91218D02*
D03*
X88599Y166718D02*
D03*
Y157718D02*
D03*
X114000Y116500D02*
D03*
X658280Y61757D02*
D03*
Y52757D02*
D03*
D67*
X704850Y119957D02*
D03*
Y116020D02*
D03*
Y92398D02*
D03*
Y80587D02*
D03*
Y76650D02*
D03*
Y64839D02*
D03*
Y60902D02*
D03*
Y45154D02*
D03*
X765479D02*
D03*
Y72713D02*
D03*
Y76650D02*
D03*
Y84524D02*
D03*
Y88461D02*
D03*
Y92398D02*
D03*
Y119957D02*
D03*
Y116020D02*
D03*
Y112083D02*
D03*
Y108146D02*
D03*
Y104209D02*
D03*
Y100272D02*
D03*
Y96335D02*
D03*
Y80587D02*
D03*
Y68776D02*
D03*
Y64839D02*
D03*
Y60902D02*
D03*
Y56965D02*
D03*
Y53028D02*
D03*
Y49091D02*
D03*
X704850D02*
D03*
Y53028D02*
D03*
Y56965D02*
D03*
Y68776D02*
D03*
Y72713D02*
D03*
Y84524D02*
D03*
Y88461D02*
D03*
Y96335D02*
D03*
Y100272D02*
D03*
Y104209D02*
D03*
Y108146D02*
D03*
Y112083D02*
D03*
Y41217D02*
D03*
D68*
X24378Y75000D02*
D03*
X48000D02*
D03*
D69*
X72500Y104030D02*
D03*
Y118400D02*
D03*
D70*
X53000Y104500D02*
D03*
X46307D02*
D03*
X32921D02*
D03*
X39614D02*
D03*
X26228D02*
D03*
D71*
X15500Y89500D02*
D03*
X6500D02*
D03*
X596315Y181220D02*
D03*
X619370Y40000D02*
D03*
X628370D02*
D03*
X648279Y168957D02*
D03*
X657279D02*
D03*
X619780Y112707D02*
D03*
X610780D02*
D03*
X619780Y95707D02*
D03*
X610780D02*
D03*
X652500Y40000D02*
D03*
X643500D02*
D03*
X237280Y103957D02*
D03*
X228280D02*
D03*
X237280Y93957D02*
D03*
X228280D02*
D03*
X356107Y99157D02*
D03*
X347107D02*
D03*
X463979Y108157D02*
D03*
X454980D02*
D03*
X347167Y72157D02*
D03*
X356168D02*
D03*
X347168Y90157D02*
D03*
X356168D02*
D03*
X356207Y108157D02*
D03*
X347207D02*
D03*
X356007Y117157D02*
D03*
X347007D02*
D03*
X237280Y83957D02*
D03*
X228280D02*
D03*
X122150Y194457D02*
D03*
X113149D02*
D03*
X85650Y205457D02*
D03*
X76649D02*
D03*
X655780Y99957D02*
D03*
X646780D02*
D03*
X655780Y108457D02*
D03*
X646780D02*
D03*
X655780Y91457D02*
D03*
X646780D02*
D03*
Y116957D02*
D03*
X655780D02*
D03*
Y125457D02*
D03*
X646780D02*
D03*
X655780Y133957D02*
D03*
X646780D02*
D03*
X761753Y167457D02*
D03*
X770753D02*
D03*
X739753Y158457D02*
D03*
X730753D02*
D03*
X605315Y181220D02*
D03*
X655780Y74457D02*
D03*
X646780D02*
D03*
X655780Y82957D02*
D03*
X646780D02*
D03*
X678000Y116457D02*
D03*
X687000D02*
D03*
X258280Y103957D02*
D03*
X249280D02*
D03*
X454700Y72157D02*
D03*
X463700D02*
D03*
X356007Y126157D02*
D03*
X347007D02*
D03*
X347168Y81157D02*
D03*
X356168D02*
D03*
Y63157D02*
D03*
X347168D02*
D03*
X463700Y81157D02*
D03*
X454700D02*
D03*
X463700Y63157D02*
D03*
X454700D02*
D03*
X402668Y49657D02*
D03*
X411667D02*
D03*
X454980Y90157D02*
D03*
X463980D02*
D03*
X463979Y99157D02*
D03*
X454980D02*
D03*
X258280Y83957D02*
D03*
X249280D02*
D03*
X258280Y93957D02*
D03*
X249280D02*
D03*
X623280Y74257D02*
D03*
X632280D02*
D03*
X739780Y167457D02*
D03*
X730780D02*
D03*
D72*
X45870Y49000D02*
D03*
X31500D02*
D03*
D73*
X39575Y143388D02*
D03*
D74*
X599465Y50000D02*
D03*
X606945D02*
D03*
X603205Y40914D02*
D03*
X589205Y59913D02*
D03*
X581725D02*
D03*
X585465Y69000D02*
D03*
X80039Y184827D02*
D03*
X83780Y193913D02*
D03*
X76299D02*
D03*
X100539Y166827D02*
D03*
X104279Y175914D02*
D03*
X96799D02*
D03*
X100539Y184827D02*
D03*
X104279Y193913D02*
D03*
X96799D02*
D03*
D75*
X174000Y123600D02*
D03*
X194000D02*
D03*
X199000D02*
D03*
Y86000D02*
D03*
X194000D02*
D03*
X189000D02*
D03*
X184000D02*
D03*
X179000D02*
D03*
X164000D02*
D03*
X159000D02*
D03*
X154000D02*
D03*
X149000D02*
D03*
X144000D02*
D03*
X139000D02*
D03*
Y123600D02*
D03*
X144000D02*
D03*
X149000D02*
D03*
X154000D02*
D03*
X159000D02*
D03*
X164000D02*
D03*
X169000D02*
D03*
X179000D02*
D03*
X184000D02*
D03*
X189000D02*
D03*
X134000Y86000D02*
D03*
X384107Y100217D02*
D03*
X389107D02*
D03*
X394107D02*
D03*
X399107D02*
D03*
X404107D02*
D03*
X409107D02*
D03*
X414107D02*
D03*
X419107D02*
D03*
X424107D02*
D03*
Y62617D02*
D03*
X414107D02*
D03*
X409107D02*
D03*
X404107D02*
D03*
X399107D02*
D03*
X394107D02*
D03*
X389107D02*
D03*
X384107D02*
D03*
X419107D02*
D03*
X429107Y100217D02*
D03*
Y62617D02*
D03*
X134000Y123600D02*
D03*
X169000Y86000D02*
D03*
X174000D02*
D03*
D76*
X657280Y198457D02*
D03*
Y180457D02*
D03*
Y189457D02*
D03*
D77*
X636280D02*
D03*
D78*
X629193Y95207D02*
D03*
X638280Y91467D02*
D03*
Y98947D02*
D03*
X629193Y112467D02*
D03*
X638280Y108727D02*
D03*
Y116207D02*
D03*
D79*
X136280Y66957D02*
D03*
D80*
X141280D02*
D03*
X146280D02*
D03*
X151280D02*
D03*
X156280D02*
D03*
X161280D02*
D03*
X166280D02*
D03*
X171280D02*
D03*
Y44457D02*
D03*
X166280D02*
D03*
X161280D02*
D03*
X156280D02*
D03*
X151280D02*
D03*
X146280D02*
D03*
X141280D02*
D03*
X136280D02*
D03*
M02*
