%FSLAX25Y25*%
%MOIN*%
G70*
G01*
G75*
G04 Layer_Physical_Order=2*
G04 Layer_Color=16711680*
%ADD10R,0.03937X0.03937*%
%ADD11R,0.03937X0.03937*%
%ADD12R,0.03937X0.03937*%
%ADD13R,0.03937X0.03937*%
%ADD14C,0.01000*%
%ADD15C,0.02000*%
%ADD16C,0.06000*%
%ADD17C,0.07000*%
%ADD18C,0.05000*%
%ADD19C,0.02500*%
%ADD20C,0.04000*%
%ADD21C,0.03000*%
%ADD22C,0.07087*%
%ADD23C,0.06300*%
%ADD24C,0.06000*%
%ADD25R,0.06000X0.06000*%
%ADD26C,0.05512*%
%ADD27C,0.08661*%
%ADD28C,0.02500*%
%ADD29C,0.05000*%
%ADD30R,0.05000X0.06000*%
%ADD31R,0.05709X0.02756*%
%ADD32R,0.15748X0.15748*%
%ADD33R,0.08071X0.08858*%
%ADD34R,0.04213X0.11811*%
%ADD35R,0.06000X0.05000*%
%ADD36R,0.08858X0.08071*%
%ADD37R,0.27559X0.37008*%
%ADD38R,0.02362X0.04299*%
%ADD39O,0.02400X0.07400*%
%ADD40R,0.15748X0.06000*%
%ADD41R,0.11811X0.23622*%
%ADD42R,0.04299X0.02362*%
%ADD43O,0.02400X0.07600*%
%ADD44R,0.02400X0.07600*%
G36*
X673500Y120457D02*
X673500D01*
Y119544D01*
X673124Y119214D01*
X673718Y119136D01*
X673750Y119123D01*
Y116456D01*
Y113791D01*
X673718Y113777D01*
X673124Y113699D01*
X673500Y113370D01*
Y112457D01*
X677250D01*
Y116458D01*
X678750D01*
Y112457D01*
X691500D01*
Y113683D01*
X698208D01*
X698293Y113618D01*
X698962Y113340D01*
Y113340D01*
X698962Y113340D01*
X698962D01*
Y113340D01*
X698962Y113340D01*
X698962Y113340D01*
X699680Y113246D01*
X700495D01*
Y113142D01*
Y109205D01*
Y105268D01*
Y101331D01*
Y97394D01*
Y95350D01*
X700079Y95072D01*
X700068Y95077D01*
X699350Y95171D01*
X698632Y95077D01*
X697963Y94800D01*
X697388Y94359D01*
X696947Y93784D01*
X696698Y93183D01*
X696208Y93280D01*
Y98568D01*
X696053Y99348D01*
X695611Y100010D01*
X695611Y100010D01*
X695611D01*
X695611Y100010D01*
Y100010D01*
X690068Y105552D01*
X690164Y105782D01*
X690318Y106957D01*
X690164Y108132D01*
X689710Y109226D01*
X688989Y110166D01*
X688049Y110888D01*
X686954Y111341D01*
X685780Y111496D01*
X684605Y111341D01*
X683510Y110888D01*
X682570Y110166D01*
X681849Y109226D01*
X681395Y108132D01*
X681241Y106957D01*
X681395Y105782D01*
X681849Y104688D01*
X682570Y103747D01*
X683510Y103026D01*
X684605Y102573D01*
X685780Y102418D01*
X686954Y102573D01*
X687185Y102668D01*
X692130Y97723D01*
Y87344D01*
X691668Y87153D01*
X689677Y89144D01*
X689710Y89187D01*
X690164Y90282D01*
X690318Y91457D01*
X690164Y92632D01*
X689710Y93726D01*
X688989Y94666D01*
X688049Y95388D01*
X686954Y95841D01*
X685780Y95996D01*
X684605Y95841D01*
X683510Y95388D01*
X682570Y94666D01*
X681849Y93726D01*
X681395Y92632D01*
X681241Y91457D01*
X681395Y90282D01*
X681849Y89187D01*
X682570Y88247D01*
X683510Y87526D01*
X684605Y87073D01*
X685780Y86918D01*
X686093Y86959D01*
X697845Y75208D01*
X698507Y74766D01*
X699287Y74610D01*
X699287Y74610D01*
X700495D01*
Y73772D01*
Y69835D01*
Y66878D01*
X696339D01*
X695558Y66723D01*
X694897Y66281D01*
X690950Y62334D01*
X690508Y61672D01*
X690352Y60892D01*
Y57562D01*
X687586Y54796D01*
X662280D01*
Y57257D01*
Y59208D01*
X664208D01*
X665183Y59402D01*
X666010Y59955D01*
X668971Y62915D01*
X669524Y63742D01*
X669718Y64718D01*
Y87068D01*
X669524Y88043D01*
X668971Y88870D01*
X664582Y93259D01*
X663755Y93812D01*
X662780Y94006D01*
X660280D01*
Y95457D01*
X658329D01*
Y95957D01*
X660280D01*
Y103957D01*
X658329D01*
Y104457D01*
X660280D01*
Y112457D01*
X658329D01*
Y112957D01*
X660280D01*
Y114408D01*
X663964D01*
X664939Y114602D01*
X665766Y115155D01*
X671496Y120884D01*
X673500D01*
Y120457D01*
D02*
G37*
G36*
X777279Y80024D02*
X785279D01*
X785370Y79933D01*
Y44337D01*
X769834D01*
Y44404D01*
X765478D01*
Y45904D01*
X769834D01*
Y46213D01*
Y50150D01*
Y54087D01*
Y58024D01*
Y61961D01*
Y65898D01*
Y69835D01*
Y73772D01*
Y77709D01*
Y81646D01*
Y81750D01*
X777279D01*
Y80024D01*
D02*
G37*
G36*
X740097Y98783D02*
X740318Y98495D01*
X756251Y82562D01*
X756826Y82121D01*
X757103Y82007D01*
X757495Y81844D01*
X758213Y81750D01*
X761125D01*
Y81646D01*
Y78689D01*
X759339D01*
X758866Y79052D01*
X758197Y79329D01*
X757479Y79423D01*
X756761Y79329D01*
X756092Y79052D01*
X755518Y78611D01*
X755077Y78037D01*
X754800Y77368D01*
X754706Y76650D01*
X754800Y75932D01*
X755077Y75263D01*
X755125Y75200D01*
X754904Y74752D01*
X741613D01*
X741140Y75115D01*
X740471Y75392D01*
X739753Y75486D01*
X739035Y75392D01*
X738366Y75115D01*
X737791Y74674D01*
X737351Y74099D01*
X737074Y73431D01*
X736979Y72713D01*
X737074Y71995D01*
X737351Y71326D01*
X737791Y70751D01*
X738366Y70310D01*
X739035Y70033D01*
X739753Y69939D01*
X740471Y70033D01*
X741140Y70310D01*
X741613Y70673D01*
X761125D01*
Y69835D01*
Y65898D01*
Y61961D01*
Y58024D01*
Y54087D01*
Y50150D01*
Y47899D01*
X760709Y47621D01*
X760229Y47820D01*
Y45153D01*
X759480D01*
Y44404D01*
X756813D01*
X756800Y44436D01*
X756764Y44713D01*
X756434Y44337D01*
X709204D01*
Y44404D01*
X704849D01*
Y45904D01*
X709204D01*
Y46213D01*
Y50150D01*
Y54087D01*
Y58024D01*
Y61961D01*
Y65898D01*
Y69835D01*
Y73772D01*
Y77709D01*
Y81646D01*
Y85583D01*
Y89520D01*
Y93457D01*
Y97394D01*
Y101331D01*
Y105268D01*
Y109205D01*
Y113142D01*
Y113246D01*
X711608D01*
X711706Y112756D01*
X711366Y112615D01*
X710791Y112174D01*
X710351Y111600D01*
X710087Y110963D01*
X715419D01*
X715155Y111600D01*
X714714Y112174D01*
X714140Y112615D01*
X713800Y112756D01*
X713897Y113246D01*
X725635D01*
X740097Y98783D01*
D02*
G37*
G36*
X777372Y214352D02*
X779245Y213783D01*
X780972Y212861D01*
X782485Y211619D01*
X783727Y210106D01*
X784650Y208379D01*
X785218Y206506D01*
X785410Y204558D01*
X785404Y204499D01*
X785370Y204331D01*
Y204328D01*
X785370Y204328D01*
X785370Y204327D01*
Y98024D01*
X785279D01*
Y98024D01*
X784367D01*
X784037Y98399D01*
X783959Y97806D01*
X783946Y97774D01*
X778613D01*
X778600Y97806D01*
X778522Y98399D01*
X778192Y98024D01*
X777292D01*
Y127439D01*
X777137Y128219D01*
X776695Y128881D01*
X776695Y128881D01*
X776695D01*
X776695Y128881D01*
Y128881D01*
X772792Y132784D01*
Y163457D01*
X775253D01*
Y171457D01*
X773558D01*
X773280Y171872D01*
X773432Y172239D01*
X773527Y172957D01*
X773432Y173675D01*
X773155Y174344D01*
X772714Y174918D01*
X772140Y175359D01*
X771471Y175636D01*
X770753Y175730D01*
X770035Y175636D01*
X769366Y175359D01*
X768791Y174918D01*
X768351Y174344D01*
X768074Y173675D01*
X767979Y172957D01*
X768074Y172239D01*
X768225Y171872D01*
X767948Y171457D01*
X762503D01*
Y167456D01*
Y163457D01*
X768714D01*
Y131939D01*
X768714Y131939D01*
X768714D01*
X768869Y131159D01*
X769311Y130497D01*
X773214Y126594D01*
Y92301D01*
X771412Y90500D01*
X769834D01*
Y93457D01*
Y97394D01*
Y101331D01*
Y105268D01*
Y109205D01*
Y113142D01*
Y117079D01*
Y122835D01*
X761125D01*
Y117079D01*
Y113142D01*
Y109205D01*
Y105268D01*
Y101331D01*
Y97394D01*
Y95275D01*
Y95148D01*
X760663Y94957D01*
X756979Y98641D01*
Y136931D01*
X757209Y137027D01*
X758149Y137748D01*
X758871Y138688D01*
X759324Y139783D01*
X759479Y140957D01*
X759324Y142132D01*
X758871Y143227D01*
X758149Y144167D01*
X757209Y144888D01*
X756115Y145341D01*
X754940Y145496D01*
X753765Y145341D01*
X752670Y144888D01*
X751730Y144167D01*
X751009Y143227D01*
X750556Y142132D01*
X750401Y140957D01*
X750556Y139783D01*
X751009Y138688D01*
X751730Y137748D01*
X752670Y137027D01*
X752901Y136931D01*
Y97796D01*
X752901Y97796D01*
X752901D01*
X753056Y97016D01*
X753498Y96354D01*
X758897Y90956D01*
X759558Y90514D01*
X760339Y90358D01*
X761125D01*
Y89520D01*
Y87297D01*
X759362D01*
X744495Y102163D01*
X744274Y102451D01*
X728745Y117981D01*
X728170Y118422D01*
X727893Y118536D01*
X727501Y118699D01*
X726784Y118793D01*
X709204D01*
Y118898D01*
Y122835D01*
X700970D01*
Y130755D01*
X710483Y140268D01*
X710756Y140304D01*
X711983Y140812D01*
X713037Y141621D01*
X713845Y142674D01*
X714111Y143316D01*
X714611D01*
X714877Y142674D01*
X715685Y141621D01*
X716739Y140812D01*
X717966Y140304D01*
X718532Y140229D01*
Y145217D01*
Y150206D01*
X717966Y150131D01*
X716739Y149623D01*
X715685Y148814D01*
X714877Y147761D01*
X714611Y147119D01*
X714111D01*
X713845Y147761D01*
X713037Y148814D01*
X712970Y148866D01*
Y155683D01*
X726253D01*
Y154457D01*
X744253D01*
Y162457D01*
X741792D01*
Y163457D01*
X744280D01*
Y171457D01*
X742558D01*
X742280Y171872D01*
X742432Y172239D01*
X742527Y172957D01*
X742432Y173675D01*
X742155Y174344D01*
X741714Y174918D01*
X741140Y175359D01*
X740471Y175636D01*
X739753Y175730D01*
X739035Y175636D01*
X738366Y175359D01*
X737791Y174918D01*
X737351Y174344D01*
X737074Y173675D01*
X736979Y172957D01*
X737074Y172239D01*
X737225Y171872D01*
X736948Y171457D01*
X731530D01*
Y167456D01*
Y163457D01*
X737714D01*
Y162457D01*
X726253D01*
Y161230D01*
X712970D01*
Y173718D01*
X712850Y174631D01*
X712497Y175483D01*
X711936Y176214D01*
X711936Y176214D01*
X711936Y176214D01*
X711936D01*
X695436Y192714D01*
X694705Y193275D01*
X693854Y193628D01*
X692940Y193748D01*
X687280D01*
Y193957D01*
Y197707D01*
X679280D01*
Y193957D01*
Y192987D01*
X677780D01*
Y193957D01*
Y197707D01*
X669780D01*
Y193957D01*
Y192987D01*
X666654D01*
Y193957D01*
Y197707D01*
X647906D01*
Y193995D01*
X643685D01*
Y202768D01*
X628874D01*
Y193995D01*
X623225D01*
X623224Y193996D01*
X622050Y193841D01*
X620955Y193387D01*
X620015Y192666D01*
X619294Y191726D01*
X619106Y191273D01*
X618840Y190631D01*
X618686Y189457D01*
X618685Y189457D01*
X618686D01*
X618685Y189457D01*
X618686D01*
X618840Y188282D01*
X619294Y187187D01*
X620015Y186247D01*
X620015Y186247D01*
X620015Y186247D01*
Y186247D01*
X620675Y185740D01*
Y184961D01*
X619484Y183770D01*
X609815D01*
Y185221D01*
X591815D01*
Y183770D01*
X584220D01*
X583631Y184537D01*
X582660Y185282D01*
X581529Y185751D01*
X580315Y185911D01*
X579101Y185751D01*
X577970Y185282D01*
X576999Y184537D01*
X576253Y183566D01*
X575785Y182434D01*
X575625Y181220D01*
X575785Y180007D01*
X576253Y178875D01*
X576999Y177904D01*
X577970Y177159D01*
X579101Y176690D01*
X580315Y176530D01*
X581529Y176690D01*
X582660Y177159D01*
X583631Y177904D01*
X584220Y178672D01*
X591815D01*
Y177220D01*
X609815D01*
Y178672D01*
X620540D01*
X621515Y178866D01*
X622342Y179418D01*
X625027Y182103D01*
X625579Y182930D01*
X625773Y183905D01*
Y184918D01*
X628874D01*
Y176146D01*
X643685D01*
Y184918D01*
X647906D01*
Y175957D01*
X652740D01*
Y172957D01*
X649029D01*
Y168956D01*
Y164957D01*
X652446D01*
X652564Y164672D01*
X652286Y164256D01*
X644440D01*
X643265Y164102D01*
X642170Y163648D01*
X641230Y162927D01*
X638230Y159927D01*
X637509Y158987D01*
X637321Y158534D01*
X637056Y157892D01*
X636901Y156718D01*
Y152439D01*
X636526Y151534D01*
X636353Y150218D01*
X636526Y148901D01*
X637035Y147674D01*
X637843Y146621D01*
X638896Y145812D01*
X640123Y145304D01*
X641440Y145131D01*
X642756Y145304D01*
X643983Y145812D01*
X645037Y146621D01*
X645845Y147674D01*
X646111Y148316D01*
X646611D01*
X646877Y147674D01*
X647685Y146621D01*
X648739Y145812D01*
X649966Y145304D01*
X650532Y145229D01*
Y150219D01*
X651281D01*
Y150968D01*
X656270D01*
X656196Y151534D01*
X655688Y152761D01*
X654879Y153814D01*
X653826Y154623D01*
X652599Y155131D01*
Y155131D01*
X652602Y155179D01*
X654279D01*
X655454Y155333D01*
X656095Y155599D01*
X656549Y155787D01*
X657489Y156508D01*
Y156508D01*
X657489D01*
Y156508D01*
Y156508D01*
Y156508D01*
X657489D01*
X660489Y159508D01*
Y159508D01*
X660489Y159508D01*
Y159508D01*
X660489D01*
Y159508D01*
X660489D01*
Y159508D01*
Y159508D01*
X660489D01*
X660489Y159508D01*
X661210Y160448D01*
X661664Y161543D01*
X661818Y162718D01*
Y175957D01*
X666654D01*
Y184957D01*
Y185926D01*
X669780D01*
Y184957D01*
X677780D01*
Y185927D01*
X679280D01*
Y184957D01*
X687280D01*
Y186687D01*
X691477D01*
X705910Y172255D01*
Y148866D01*
X705843Y148814D01*
X705034Y147761D01*
X704526Y146534D01*
X704353Y145218D01*
X704480Y144251D01*
X694944Y134714D01*
X694382Y133983D01*
X694030Y133131D01*
X693910Y132218D01*
Y119231D01*
X691500D01*
Y120457D01*
X689379D01*
X689355Y120577D01*
X688802Y121404D01*
X688802Y121404D01*
X688802D01*
X688802Y121404D01*
Y121404D01*
X684971Y125235D01*
X684949Y125250D01*
X684999Y125758D01*
X686624Y125918D01*
X688187Y126392D01*
X689628Y127162D01*
X690890Y128198D01*
X691926Y129461D01*
X692696Y130901D01*
X693170Y132464D01*
X693330Y134089D01*
X693170Y135715D01*
X692696Y137278D01*
X691926Y138718D01*
X690890Y139980D01*
X689628Y141017D01*
X688187Y141787D01*
X686624Y142261D01*
X684999Y142421D01*
X683374Y142261D01*
X681811Y141787D01*
X680370Y141017D01*
X679108Y139980D01*
X678072Y138718D01*
X677302Y137278D01*
X676828Y135715D01*
X676667Y134089D01*
X676828Y132464D01*
X677302Y130901D01*
X678072Y129461D01*
X679108Y128198D01*
X680370Y127162D01*
X681670Y126467D01*
X681549Y125982D01*
X670440D01*
X669464Y125788D01*
X668637Y125235D01*
X662908Y119506D01*
X660280D01*
Y120957D01*
X642280D01*
Y119315D01*
X641929Y118888D01*
X641929Y118888D01*
X634630D01*
Y113526D01*
X641929D01*
X642280Y113175D01*
Y112957D01*
X653231D01*
Y112457D01*
X642280D01*
Y111814D01*
X641904Y111484D01*
X641780Y111500D01*
X641076Y111408D01*
X634630D01*
Y106045D01*
X641076D01*
X641780Y105953D01*
X641904Y105969D01*
X642280Y105640D01*
Y104457D01*
X653231D01*
Y103957D01*
X642280D01*
Y101628D01*
X641929D01*
Y101628D01*
X634630D01*
Y96266D01*
X641929D01*
Y96266D01*
X641970D01*
X642280Y95957D01*
Y95957D01*
X653231D01*
Y95457D01*
X642280D01*
Y94544D01*
X641904Y94214D01*
X641780Y94231D01*
X641152Y94148D01*
X634630D01*
Y88786D01*
X641042D01*
X641062Y88778D01*
X641780Y88683D01*
X641904Y88699D01*
X642280Y88370D01*
Y87457D01*
X644740D01*
Y86957D01*
X642280D01*
Y78957D01*
X653741D01*
Y78457D01*
X647530D01*
Y74456D01*
Y70457D01*
X660280D01*
Y78457D01*
X657819D01*
Y78957D01*
X660280D01*
Y86957D01*
X648819D01*
Y87457D01*
X660280D01*
Y88908D01*
X661724D01*
X664620Y86012D01*
Y65773D01*
X663152Y64306D01*
X662280D01*
Y66257D01*
X654280D01*
Y64306D01*
X654280D01*
X653304Y64112D01*
X652477Y63559D01*
X651027Y62110D01*
X650612Y62387D01*
X650926Y63146D01*
X651072Y64257D01*
X650926Y65368D01*
X650497Y66403D01*
X649815Y67292D01*
X648926Y67974D01*
X647891Y68403D01*
X646779Y68550D01*
X645669Y68403D01*
X644633Y67974D01*
X643744Y67292D01*
X643062Y66403D01*
X642633Y65368D01*
X642487Y64257D01*
X642633Y63146D01*
X643062Y62111D01*
X643744Y61221D01*
X644633Y60539D01*
X645669Y60110D01*
X646779Y59964D01*
X647891Y60110D01*
X648649Y60425D01*
X648927Y60009D01*
X647387Y58469D01*
X646779Y58549D01*
X645669Y58403D01*
X644633Y57974D01*
X643744Y57292D01*
X643062Y56403D01*
X642633Y55368D01*
X642487Y54257D01*
X642633Y53146D01*
X643062Y52110D01*
X643343Y51745D01*
X643122Y51296D01*
X640437D01*
X640216Y51745D01*
X640497Y52110D01*
X640926Y53146D01*
X641072Y54257D01*
X640926Y55368D01*
X640497Y56403D01*
X639815Y57292D01*
X638926Y57974D01*
X637890Y58403D01*
X636779Y58549D01*
X635669Y58403D01*
X634633Y57974D01*
X633744Y57292D01*
X633062Y56403D01*
X632633Y55368D01*
X632487Y54257D01*
X632633Y53146D01*
X633062Y52110D01*
X633744Y51222D01*
X634633Y50539D01*
X634797Y50471D01*
X634851Y50200D01*
X634896Y49977D01*
X635338Y49315D01*
X636395Y48258D01*
X636203Y47796D01*
X633624D01*
X629982Y51439D01*
X630497Y52110D01*
X630926Y53146D01*
X631072Y54257D01*
X630926Y55368D01*
X630882Y55475D01*
X633182Y57775D01*
X633624Y58437D01*
X633779Y59217D01*
Y60630D01*
X634227Y60851D01*
X634633Y60539D01*
X635669Y60110D01*
X636779Y59964D01*
X637890Y60110D01*
X638926Y60539D01*
X639815Y61221D01*
X640497Y62111D01*
X640926Y63146D01*
X641072Y64257D01*
X640926Y65368D01*
X640497Y66403D01*
X639815Y67292D01*
X638926Y67974D01*
X637890Y68403D01*
X636779Y68550D01*
X635669Y68403D01*
X634633Y67974D01*
X634227Y67663D01*
X633779Y67884D01*
Y70257D01*
X636780D01*
Y78257D01*
X624030D01*
Y74256D01*
Y70257D01*
X629701D01*
Y67945D01*
X629252Y67724D01*
X628926Y67974D01*
X627890Y68403D01*
X627529Y68451D01*
Y64256D01*
Y60063D01*
X627890Y60110D01*
X628926Y60539D01*
X629252Y60790D01*
X629701Y60569D01*
Y60062D01*
X627998Y58359D01*
X627890Y58403D01*
X626780Y58549D01*
X625668Y58403D01*
X624633Y57974D01*
X623744Y57292D01*
X623062Y56403D01*
X622633Y55368D01*
X622487Y54257D01*
X622633Y53146D01*
X623062Y52110D01*
X623744Y51222D01*
X624633Y50539D01*
X625453Y50200D01*
X631191Y44462D01*
X630999Y44000D01*
X629120D01*
Y40750D01*
X632870D01*
Y43718D01*
X639000D01*
Y42039D01*
X638139D01*
X637666Y42402D01*
X636997Y42679D01*
X636279Y42774D01*
X635562Y42679D01*
X634893Y42402D01*
X634318Y41962D01*
X633877Y41387D01*
X633600Y40718D01*
X633506Y40000D01*
X633600Y39282D01*
X633877Y38613D01*
X634318Y38039D01*
X634893Y37598D01*
X635562Y37321D01*
X636279Y37226D01*
X636997Y37321D01*
X637666Y37598D01*
X638139Y37961D01*
X639000D01*
Y36000D01*
X650461D01*
Y33026D01*
X650231Y32931D01*
X649291Y32210D01*
X648569Y31269D01*
X648116Y30175D01*
X647961Y29000D01*
X648116Y27825D01*
X648569Y26731D01*
X649291Y25791D01*
X650231Y25069D01*
X651325Y24616D01*
X652500Y24461D01*
X653675Y24616D01*
X654770Y25069D01*
X655710Y25791D01*
X656431Y26731D01*
X656884Y27825D01*
X657039Y29000D01*
X656884Y30175D01*
X656431Y31269D01*
X655710Y32210D01*
X654770Y32931D01*
X654539Y33026D01*
Y36000D01*
X657000D01*
Y43718D01*
X670165D01*
X670401Y43277D01*
X670361Y43218D01*
X670310Y43141D01*
X670163Y42400D01*
Y2031D01*
X12652D01*
X2031Y12652D01*
Y85500D01*
X5750D01*
Y89499D01*
Y93500D01*
X2031D01*
Y205054D01*
X2172Y206484D01*
X2743Y208365D01*
X3669Y210099D01*
X4917Y211619D01*
X6436Y212866D01*
X8170Y213793D01*
X10051Y214363D01*
X11481Y214504D01*
X775194D01*
X775194Y214504D01*
X775194Y214504D01*
X775197D01*
X775365Y214538D01*
X775424Y214544D01*
X777372Y214352D01*
D02*
G37*
%LPC*%
G36*
X580974Y63563D02*
X579043D01*
Y60663D01*
X580974D01*
Y63563D01*
D02*
G37*
G36*
X584406D02*
X582475D01*
Y60663D01*
X584406D01*
Y63563D01*
D02*
G37*
G36*
X71750Y65408D02*
X67512D01*
X67586Y64841D01*
X68095Y63614D01*
X68903Y62561D01*
X69957Y61752D01*
X71183Y61244D01*
X71750Y61169D01*
Y65408D01*
D02*
G37*
G36*
X173980Y66207D02*
X172030D01*
Y61657D01*
X173980D01*
Y66207D01*
D02*
G37*
G36*
X684999Y83366D02*
X683374Y83205D01*
X681811Y82731D01*
X680370Y81962D01*
X679108Y80925D01*
X678072Y79663D01*
X677302Y78223D01*
X676828Y76660D01*
X676667Y75034D01*
X676828Y73409D01*
X677302Y71846D01*
X678072Y70405D01*
X679108Y69143D01*
X680370Y68107D01*
X681811Y67337D01*
X683374Y66863D01*
X684999Y66703D01*
X686624Y66863D01*
X688187Y67337D01*
X689628Y68107D01*
X690890Y69143D01*
X691926Y70405D01*
X692696Y71846D01*
X693170Y73409D01*
X693330Y75034D01*
X693170Y76660D01*
X692696Y78223D01*
X691926Y79663D01*
X690890Y80925D01*
X689628Y81962D01*
X688187Y82731D01*
X686624Y83205D01*
X684999Y83366D01*
D02*
G37*
G36*
X612205Y73413D02*
X604205D01*
Y68297D01*
X603167Y67259D01*
X602705Y67451D01*
Y73413D01*
X594705D01*
Y70953D01*
X588146D01*
Y72650D01*
X582784D01*
Y65351D01*
X588146D01*
Y66874D01*
X594705D01*
Y64413D01*
Y55414D01*
X597426D01*
Y53650D01*
X596783D01*
Y46350D01*
X602146D01*
Y53650D01*
X601504D01*
Y55414D01*
X602705D01*
Y61030D01*
X603743Y62068D01*
X604205Y61876D01*
Y55414D01*
X604396D01*
Y53650D01*
X604264D01*
Y46350D01*
X605183D01*
X605449Y46004D01*
X606180Y45443D01*
X607031Y45090D01*
X607945Y44970D01*
X611515D01*
X612401Y44603D01*
X613445Y44466D01*
X614489Y44603D01*
X615462Y45006D01*
X616298Y45647D01*
X616939Y46483D01*
X617342Y47456D01*
X617480Y48500D01*
X617342Y49544D01*
X616939Y50517D01*
X616298Y51353D01*
X615462Y51994D01*
X614489Y52397D01*
X613445Y52535D01*
X612401Y52397D01*
X611515Y52030D01*
X609626D01*
Y53650D01*
X609494D01*
Y55414D01*
X612205D01*
Y64413D01*
Y73413D01*
D02*
G37*
G36*
X102322Y87300D02*
X100403Y87149D01*
X98531Y86700D01*
X96753Y85963D01*
X95112Y84958D01*
X93648Y83708D01*
X92398Y82244D01*
X91393Y80603D01*
X90656Y78825D01*
X90207Y76953D01*
X90056Y75034D01*
X90207Y73115D01*
X90656Y71244D01*
X91393Y69465D01*
X92398Y67824D01*
X93648Y66361D01*
X95112Y65111D01*
X96753Y64105D01*
X98531Y63368D01*
X100403Y62919D01*
X102322Y62768D01*
X104241Y62919D01*
X106112Y63368D01*
X107890Y64105D01*
X109532Y65111D01*
X110995Y66361D01*
X112245Y67824D01*
X113251Y69465D01*
X113988Y71244D01*
X114437Y73115D01*
X114588Y75034D01*
X114437Y76953D01*
X113988Y78825D01*
X113251Y80603D01*
X112245Y82244D01*
X110995Y83708D01*
X109532Y84958D01*
X107890Y85963D01*
X106112Y86700D01*
X104241Y87149D01*
X102322Y87300D01*
D02*
G37*
G36*
X626029Y68451D02*
X625668Y68403D01*
X624633Y67974D01*
X623744Y67292D01*
X623062Y66403D01*
X622633Y65368D01*
X622586Y65007D01*
X626029D01*
Y68451D01*
D02*
G37*
G36*
X37429Y54535D02*
X32250D01*
Y49750D01*
X37429D01*
Y54535D01*
D02*
G37*
G36*
X181250Y58000D02*
X178000D01*
Y54250D01*
X181250D01*
Y58000D01*
D02*
G37*
G36*
X13585Y51831D02*
Y47592D01*
X17823D01*
X17748Y48159D01*
X17240Y49386D01*
X16432Y50439D01*
X15378Y51248D01*
X14151Y51756D01*
X13585Y51831D01*
D02*
G37*
G36*
X30750Y54535D02*
X25571D01*
Y49750D01*
X30750D01*
Y54535D01*
D02*
G37*
G36*
X584406Y59163D02*
X582475D01*
Y56264D01*
X584406D01*
Y59163D01*
D02*
G37*
G36*
X626029Y63507D02*
X622586D01*
X622633Y63146D01*
X623062Y62111D01*
X623744Y61221D01*
X624633Y60539D01*
X625668Y60110D01*
X626029Y60063D01*
Y63507D01*
D02*
G37*
G36*
X186000Y58000D02*
X182750D01*
Y54250D01*
X186000D01*
Y58000D01*
D02*
G37*
G36*
X580974Y59163D02*
X579043D01*
Y56264D01*
X580974D01*
Y59163D01*
D02*
G37*
G36*
X548788Y88579D02*
Y86664D01*
X550704D01*
X550440Y87300D01*
X549999Y87875D01*
X549425Y88316D01*
X548788Y88579D01*
D02*
G37*
G36*
X372357Y90468D02*
X369107D01*
Y86718D01*
X372357D01*
Y90468D01*
D02*
G37*
G36*
X550704Y85163D02*
X548788D01*
Y83248D01*
X549425Y83511D01*
X549999Y83952D01*
X550440Y84527D01*
X550704Y85163D01*
D02*
G37*
G36*
X547288Y88579D02*
X546651Y88316D01*
X546076Y87875D01*
X545636Y87300D01*
X545372Y86664D01*
X547288D01*
Y88579D01*
D02*
G37*
G36*
X25478Y103750D02*
X22622D01*
Y97095D01*
X25478D01*
Y103750D01*
D02*
G37*
G36*
X780529Y101190D02*
X779893Y100926D01*
X779318Y100485D01*
X778877Y99911D01*
X778614Y99274D01*
X780529D01*
Y101190D01*
D02*
G37*
G36*
X377107Y90468D02*
X373857D01*
Y86718D01*
X377107D01*
Y90468D01*
D02*
G37*
G36*
X38864Y111906D02*
X26978D01*
Y104499D01*
Y97095D01*
X29391D01*
Y95462D01*
X27458Y93529D01*
X12878D01*
X12730Y93500D01*
X7250D01*
Y89499D01*
Y85500D01*
X11349D01*
Y79345D01*
X11000Y79039D01*
X9825Y78884D01*
X8731Y78431D01*
X7791Y77710D01*
X7069Y76770D01*
X6616Y75675D01*
X6461Y74500D01*
X6616Y73325D01*
X7069Y72231D01*
X7791Y71291D01*
X8731Y70569D01*
X9825Y70116D01*
X11000Y69961D01*
X11444Y70020D01*
X11465Y69915D01*
X11796Y69419D01*
X15004Y66211D01*
Y65626D01*
X15734D01*
X15793Y65587D01*
X16378Y65471D01*
X30378D01*
X30963Y65587D01*
X31021Y65626D01*
X33752D01*
Y84374D01*
X32907D01*
Y88994D01*
X35418Y91504D01*
X35978Y92235D01*
X36331Y93086D01*
X36451Y94000D01*
D01*
D01*
D01*
D01*
D01*
X36451D01*
D01*
D01*
D01*
D01*
Y94000D01*
X36452D01*
D01*
Y94000D01*
D01*
D01*
D01*
D01*
D01*
D01*
D01*
D01*
D01*
D01*
D01*
D01*
Y94000D01*
D01*
X36451D01*
D01*
D01*
D01*
D01*
X36451Y94000D01*
Y97095D01*
X38864D01*
Y104499D01*
Y111906D01*
D02*
G37*
G36*
X547288Y85163D02*
X545372D01*
X545636Y84527D01*
X546076Y83952D01*
X546651Y83511D01*
X547288Y83248D01*
Y85163D01*
D02*
G37*
G36*
X163250Y74707D02*
X161334D01*
X161598Y74070D01*
X162039Y73496D01*
X162613Y73055D01*
X163250Y72791D01*
Y74707D01*
D02*
G37*
G36*
X166666D02*
X164750D01*
Y72791D01*
X165387Y73055D01*
X165961Y73496D01*
X166402Y74070D01*
X166666Y74707D01*
D02*
G37*
G36*
X622530Y73507D02*
X618780D01*
Y70257D01*
X622530D01*
Y73507D01*
D02*
G37*
G36*
X646030Y73707D02*
X642280D01*
Y70457D01*
X646030D01*
Y73707D01*
D02*
G37*
G36*
X163250Y78123D02*
X162613Y77859D01*
X162039Y77418D01*
X161598Y76844D01*
X161334Y76207D01*
X163250D01*
Y78123D01*
D02*
G37*
G36*
X164750D02*
Y76207D01*
X166666D01*
X166402Y76844D01*
X165961Y77418D01*
X165387Y77859D01*
X164750Y78123D01*
D02*
G37*
G36*
X646030Y78457D02*
X642280D01*
Y75207D01*
X646030D01*
Y78457D01*
D02*
G37*
G36*
X212850Y77566D02*
X212213Y77302D01*
X211639Y76861D01*
X211198Y76287D01*
X210934Y75650D01*
X212850D01*
Y77566D01*
D02*
G37*
G36*
X579250Y28250D02*
X575560D01*
X575616Y27825D01*
X576069Y26731D01*
X576791Y25791D01*
X577731Y25069D01*
X578825Y24616D01*
X579250Y24560D01*
Y28250D01*
D02*
G37*
G36*
X584440D02*
X580750D01*
Y24560D01*
X581175Y24616D01*
X582269Y25069D01*
X583210Y25791D01*
X583931Y26731D01*
X584384Y27825D01*
X584440Y28250D01*
D02*
G37*
G36*
X224482D02*
X220792D01*
X220848Y27825D01*
X221302Y26731D01*
X222023Y25791D01*
X222963Y25069D01*
X224058Y24616D01*
X224482Y24560D01*
Y28250D01*
D02*
G37*
G36*
X229672D02*
X225982D01*
Y24560D01*
X226407Y24616D01*
X227502Y25069D01*
X228442Y25791D01*
X229163Y26731D01*
X229616Y27825D01*
X229672Y28250D01*
D02*
G37*
G36*
X579250Y33440D02*
X578825Y33384D01*
X577731Y32931D01*
X576791Y32210D01*
X576069Y31269D01*
X575616Y30175D01*
X575560Y29750D01*
X579250D01*
Y33440D01*
D02*
G37*
G36*
X580750D02*
Y29750D01*
X584440D01*
X584384Y30175D01*
X583931Y31269D01*
X583210Y32210D01*
X582269Y32931D01*
X581175Y33384D01*
X580750Y33440D01*
D02*
G37*
G36*
X661593Y28250D02*
X657902D01*
X657958Y27825D01*
X658412Y26731D01*
X659133Y25791D01*
X660073Y25069D01*
X661168Y24616D01*
X661593Y24560D01*
Y28250D01*
D02*
G37*
G36*
X666783D02*
X663093D01*
Y24560D01*
X663517Y24616D01*
X664612Y25069D01*
X665552Y25791D01*
X666273Y26731D01*
X666727Y27825D01*
X666783Y28250D01*
D02*
G37*
G36*
X102220Y28250D02*
X98529D01*
Y24560D01*
X98954Y24616D01*
X100049Y25069D01*
X100989Y25791D01*
X101710Y26730D01*
X102164Y27825D01*
X102220Y28250D01*
D02*
G37*
G36*
X247530Y13897D02*
X247105Y13841D01*
X246010Y13387D01*
X245070Y12666D01*
X244349Y11726D01*
X243895Y10632D01*
X243840Y10207D01*
X247530D01*
Y13897D01*
D02*
G37*
G36*
X249030D02*
Y10207D01*
X252720D01*
X252664Y10632D01*
X252210Y11726D01*
X251489Y12666D01*
X250549Y13387D01*
X249454Y13841D01*
X249030Y13897D01*
D02*
G37*
G36*
X247530Y8707D02*
X243840D01*
X243895Y8282D01*
X244349Y7187D01*
X245070Y6247D01*
X246010Y5526D01*
X247105Y5073D01*
X247530Y5017D01*
Y8707D01*
D02*
G37*
G36*
X252720D02*
X249030D01*
Y5017D01*
X249454Y5073D01*
X250549Y5526D01*
X251489Y6247D01*
X252210Y7187D01*
X252664Y8282D01*
X252720Y8707D01*
D02*
G37*
G36*
X627620Y44000D02*
X614870D01*
Y36000D01*
X617331D01*
Y33026D01*
X617101Y32931D01*
X616161Y32210D01*
X615439Y31269D01*
X614986Y30175D01*
X614831Y29000D01*
X614986Y27825D01*
X615439Y26731D01*
X616161Y25791D01*
X617101Y25069D01*
X618195Y24616D01*
X619370Y24461D01*
X620545Y24616D01*
X621639Y25069D01*
X622580Y25791D01*
X623301Y26731D01*
X623754Y27825D01*
X623909Y29000D01*
X623754Y30175D01*
X623301Y31269D01*
X622580Y32210D01*
X621639Y32931D01*
X621409Y33026D01*
Y36000D01*
X627620D01*
Y39999D01*
Y44000D01*
D02*
G37*
G36*
X97030Y28250D02*
X93339D01*
X93395Y27825D01*
X93849Y26730D01*
X94570Y25791D01*
X95510Y25069D01*
X96605Y24616D01*
X97030Y24560D01*
Y28250D01*
D02*
G37*
G36*
X27779Y33539D02*
X26605Y33384D01*
X25510Y32931D01*
X24570Y32209D01*
X23849Y31269D01*
X23395Y30175D01*
X23241Y29000D01*
X23395Y27825D01*
X23849Y26730D01*
X24570Y25791D01*
X25510Y25069D01*
X26605Y24616D01*
X27779Y24461D01*
X28954Y24616D01*
X30049Y25069D01*
X30989Y25791D01*
X31710Y26730D01*
X32164Y27825D01*
X32318Y29000D01*
X32164Y30175D01*
X31710Y31269D01*
X30989Y32209D01*
X30049Y32931D01*
X28954Y33384D01*
X27779Y33539D01*
D02*
G37*
G36*
X605886Y44563D02*
X600524D01*
Y44409D01*
X599870Y44323D01*
X599018Y43971D01*
X598287Y43410D01*
X597189Y42311D01*
X596628Y41580D01*
X596275Y40729D01*
X596155Y39815D01*
Y31791D01*
X595754Y31269D01*
X595301Y30175D01*
X595146Y29000D01*
X595301Y27825D01*
X595754Y26731D01*
X596476Y25791D01*
X597416Y25069D01*
X598510Y24616D01*
X599685Y24461D01*
X600860Y24616D01*
X601955Y25069D01*
X602894Y25791D01*
X603616Y26731D01*
X604069Y27825D01*
X604224Y29000D01*
X604069Y30175D01*
X603616Y31269D01*
X603215Y31791D01*
Y37264D01*
X605886D01*
Y44563D01*
D02*
G37*
G36*
X661593Y33440D02*
X661168Y33384D01*
X660073Y32931D01*
X659133Y32210D01*
X658412Y31269D01*
X657958Y30175D01*
X657902Y29750D01*
X661593D01*
Y33440D01*
D02*
G37*
G36*
X91000Y53039D02*
X89825Y52884D01*
X88731Y52431D01*
X87791Y51710D01*
X87069Y50770D01*
X86616Y49675D01*
X86461Y48500D01*
X86616Y47325D01*
X87069Y46231D01*
X87791Y45291D01*
X88731Y44569D01*
X89825Y44116D01*
X91000Y43961D01*
X92175Y44116D01*
X93269Y44569D01*
X94209Y45291D01*
X94931Y46231D01*
X95384Y47325D01*
X95539Y48500D01*
X95384Y49675D01*
X94931Y50770D01*
X94209Y51710D01*
X93269Y52431D01*
X92175Y52884D01*
X91000Y53039D01*
D02*
G37*
G36*
X221030Y46623D02*
Y44707D01*
X222945D01*
X222682Y45344D01*
X222241Y45918D01*
X221666Y46359D01*
X221030Y46623D01*
D02*
G37*
G36*
X30750Y48250D02*
X25571D01*
Y43465D01*
X30750D01*
Y48250D01*
D02*
G37*
G36*
X37429D02*
X32250D01*
Y43465D01*
X37429D01*
Y48250D01*
D02*
G37*
G36*
X186000Y52750D02*
X178000D01*
Y49000D01*
Y47049D01*
X173980D01*
Y49757D01*
X133580D01*
Y39157D01*
X133580Y39157D01*
X133580D01*
X133636Y39020D01*
X127905Y33289D01*
X127675Y33384D01*
X126500Y33539D01*
X125325Y33384D01*
X124231Y32931D01*
X123291Y32209D01*
X122569Y31269D01*
X122116Y30175D01*
X121961Y29000D01*
X122116Y27825D01*
X122569Y26731D01*
X123291Y25791D01*
X124231Y25069D01*
X125325Y24616D01*
X126500Y24461D01*
X127675Y24616D01*
X128769Y25069D01*
X129709Y25791D01*
X130431Y26731D01*
X130884Y27825D01*
X131039Y29000D01*
X130884Y30175D01*
X130789Y30405D01*
X132210Y31827D01*
X132586Y31497D01*
X132412Y31269D01*
X131958Y30175D01*
X131804Y29000D01*
X131958Y27825D01*
X132412Y26731D01*
X133133Y25791D01*
X134073Y25069D01*
X135168Y24616D01*
X136343Y24461D01*
X137517Y24616D01*
X138612Y25069D01*
X139552Y25791D01*
X140273Y26731D01*
X140727Y27825D01*
X140881Y29000D01*
X140727Y30175D01*
X140631Y30405D01*
X142053Y31827D01*
X142429Y31497D01*
X142254Y31269D01*
X141801Y30175D01*
X141646Y29000D01*
X141801Y27825D01*
X142254Y26731D01*
X142975Y25791D01*
X143916Y25069D01*
X145010Y24616D01*
X146185Y24461D01*
X147360Y24616D01*
X148454Y25069D01*
X149394Y25791D01*
X150116Y26731D01*
X150569Y27825D01*
X150724Y29000D01*
X150569Y30175D01*
X150116Y31269D01*
X149941Y31497D01*
X150317Y31827D01*
X151739Y30405D01*
X151643Y30175D01*
X151489Y29000D01*
X151643Y27825D01*
X152097Y26731D01*
X152818Y25791D01*
X153758Y25069D01*
X154853Y24616D01*
X156027Y24461D01*
X157202Y24616D01*
X158297Y25069D01*
X159237Y25791D01*
X159958Y26731D01*
X160412Y27825D01*
X160566Y29000D01*
X160412Y30175D01*
X159958Y31269D01*
X159237Y32209D01*
X158297Y32931D01*
X157202Y33384D01*
X156027Y33539D01*
X154853Y33384D01*
X154622Y33289D01*
X153319Y34593D01*
Y39157D01*
X173980D01*
Y41951D01*
X178000D01*
Y41213D01*
X169317Y32530D01*
X168661D01*
X168139Y32931D01*
X167045Y33384D01*
X165870Y33539D01*
X164695Y33384D01*
X163601Y32931D01*
X162661Y32209D01*
X161939Y31269D01*
X161486Y30175D01*
X161331Y29000D01*
X161486Y27825D01*
X161939Y26731D01*
X162661Y25791D01*
X163601Y25069D01*
X164695Y24616D01*
X165870Y24461D01*
X167045Y24616D01*
X168139Y25069D01*
X168661Y25470D01*
X170780D01*
X171693Y25590D01*
X172545Y25943D01*
X173276Y26504D01*
X184496Y37724D01*
X185057Y38455D01*
X185410Y39307D01*
X185501Y40000D01*
X186000D01*
Y49000D01*
Y52750D01*
D02*
G37*
G36*
X12085Y51831D02*
X11518Y51756D01*
X10291Y51248D01*
X9238Y50439D01*
X8429Y49386D01*
X7921Y48159D01*
X7847Y47592D01*
X12085D01*
Y51831D01*
D02*
G37*
G36*
X758729Y47820D02*
X758092Y47556D01*
X757518Y47115D01*
X757077Y46540D01*
X756813Y45904D01*
X758729D01*
Y47820D01*
D02*
G37*
G36*
X81650Y48066D02*
Y46150D01*
X83566D01*
X83302Y46787D01*
X82861Y47361D01*
X82287Y47802D01*
X81650Y48066D01*
D02*
G37*
G36*
X251250Y45166D02*
Y43250D01*
X253166D01*
X252902Y43887D01*
X252461Y44461D01*
X251887Y44902D01*
X251250Y45166D01*
D02*
G37*
G36*
X632870Y39250D02*
X629120D01*
Y36000D01*
X632870D01*
Y39250D01*
D02*
G37*
G36*
X249750Y41750D02*
X247834D01*
X248098Y41113D01*
X248539Y40539D01*
X249113Y40098D01*
X249750Y39834D01*
Y41750D01*
D02*
G37*
G36*
X663093Y33440D02*
Y29750D01*
X666783D01*
X666727Y30175D01*
X666273Y31269D01*
X665552Y32210D01*
X664612Y32931D01*
X663517Y33384D01*
X663093Y33440D01*
D02*
G37*
G36*
X17823Y46092D02*
X7847D01*
X7921Y45526D01*
X8429Y44299D01*
X9238Y43246D01*
X10291Y42437D01*
X10933Y42171D01*
Y41671D01*
X10291Y41405D01*
X9238Y40597D01*
X8429Y39543D01*
X7921Y38317D01*
X7748Y37000D01*
X7921Y35683D01*
X8429Y34457D01*
X9238Y33403D01*
X10291Y32595D01*
X11518Y32087D01*
X12835Y31913D01*
X14151Y32087D01*
X15378Y32595D01*
X16432Y33403D01*
X17240Y34457D01*
X17748Y35683D01*
X17922Y37000D01*
X17748Y38317D01*
X17240Y39543D01*
X16432Y40597D01*
X15378Y41405D01*
X14151Y41914D01*
X15378Y42437D01*
X15378D01*
D01*
D01*
D01*
X15378Y42437D01*
X16432Y43246D01*
X17240Y44299D01*
X17748Y45526D01*
X17823Y46092D01*
D02*
G37*
G36*
X222945Y43207D02*
X221030D01*
Y41291D01*
X221666Y41555D01*
X222241Y41995D01*
X222682Y42570D01*
X222945Y43207D01*
D02*
G37*
G36*
X249750Y45166D02*
X249113Y44902D01*
X248539Y44461D01*
X248098Y43887D01*
X247834Y43250D01*
X249750D01*
Y45166D01*
D02*
G37*
G36*
X253166Y41750D02*
X251250D01*
Y39834D01*
X251887Y40098D01*
X252461Y40539D01*
X252902Y41113D01*
X253166Y41750D01*
D02*
G37*
G36*
X485393Y72621D02*
X484612Y72466D01*
X483951Y72024D01*
X483509Y71362D01*
X483353Y70582D01*
Y43023D01*
X483509Y42243D01*
X483951Y41581D01*
X484612Y41139D01*
X485393Y40984D01*
X485433Y40992D01*
X505078D01*
X505855Y41146D01*
X506514Y41587D01*
X506954Y42246D01*
X507109Y43023D01*
Y70582D01*
X506954Y71359D01*
X506514Y72018D01*
X505855Y72458D01*
X505078Y72613D01*
X485433D01*
X485393Y72621D01*
D02*
G37*
G36*
X782029Y101190D02*
Y99274D01*
X783945D01*
X783682Y99911D01*
X783241Y100485D01*
X782666Y100926D01*
X782029Y101190D01*
D02*
G37*
G36*
X647529Y168207D02*
X643779D01*
Y164957D01*
X647529D01*
Y168207D01*
D02*
G37*
G36*
X730030Y171457D02*
X726280D01*
Y168207D01*
X730030D01*
Y171457D01*
D02*
G37*
G36*
Y166707D02*
X726280D01*
Y163457D01*
X730030D01*
Y166707D01*
D02*
G37*
G36*
X761003Y166707D02*
X757253D01*
Y163457D01*
X761003D01*
Y166707D01*
D02*
G37*
G36*
Y171457D02*
X757253D01*
Y168207D01*
X761003D01*
Y171457D01*
D02*
G37*
G36*
X215354Y178981D02*
X214140Y178822D01*
X213009Y178353D01*
X212038Y177608D01*
X211293Y176636D01*
X210824Y175505D01*
X210664Y174291D01*
X210824Y173077D01*
X211293Y171946D01*
X212038Y170975D01*
X213009Y170230D01*
X214140Y169761D01*
X215354Y169601D01*
X216568Y169761D01*
X217699Y170230D01*
X218671Y170975D01*
X219416Y171946D01*
X219885Y173077D01*
X220044Y174291D01*
X219885Y175505D01*
X219416Y176636D01*
X218671Y177608D01*
X217699Y178353D01*
X216568Y178822D01*
X215354Y178981D01*
D02*
G37*
G36*
X647529Y172957D02*
X643779D01*
Y169707D01*
X647529D01*
Y172957D01*
D02*
G37*
G36*
X42421Y195459D02*
X41278Y195346D01*
X40179Y195013D01*
X39166Y194472D01*
X38278Y193743D01*
X37550Y192855D01*
X37008Y191842D01*
X36675Y190743D01*
X36562Y189600D01*
X36675Y188457D01*
X37008Y187358D01*
X37550Y186345D01*
X38278Y185457D01*
X39166Y184729D01*
X40179Y184187D01*
X41278Y183854D01*
X42421Y183741D01*
X43564Y183854D01*
X44663Y184187D01*
X44850Y184287D01*
X46166Y182972D01*
X46828Y182529D01*
X47608Y182374D01*
X77358D01*
Y181177D01*
X78060D01*
Y180413D01*
X76099D01*
Y171414D01*
Y168953D01*
X73931D01*
X67342Y175542D01*
X66680Y175984D01*
X65900Y176139D01*
X28845D01*
X17813Y187171D01*
X17913Y187358D01*
X18246Y188457D01*
X18359Y189600D01*
X18246Y190743D01*
X17913Y191842D01*
X17371Y192855D01*
X16643Y193743D01*
X15755Y194472D01*
X14742Y195013D01*
X13643Y195346D01*
X12500Y195459D01*
X11357Y195346D01*
X10258Y195013D01*
X9245Y194472D01*
X8357Y193743D01*
X7628Y192855D01*
X7087Y191842D01*
X6754Y190743D01*
X6641Y189600D01*
X6754Y188457D01*
X7087Y187358D01*
X7628Y186345D01*
X8357Y185457D01*
X9245Y184729D01*
X10258Y184187D01*
X11357Y183854D01*
X12500Y183741D01*
X13643Y183854D01*
X14742Y184187D01*
X14929Y184287D01*
X26558Y172658D01*
X26558Y172658D01*
X26558D01*
X26558D01*
Y172658D01*
D01*
X26558D01*
D01*
D01*
D01*
X26558Y172658D01*
Y172658D01*
X27220Y172216D01*
X28000Y172061D01*
X65055D01*
X71645Y165472D01*
X72306Y165030D01*
X73086Y164874D01*
X76099D01*
Y162414D01*
X84099D01*
Y164874D01*
X84599D01*
Y162218D01*
Y157323D01*
X83081Y155804D01*
X82816Y155913D01*
X81500Y156087D01*
X80183Y155913D01*
X78957Y155405D01*
X77903Y154597D01*
X77095Y153543D01*
X76587Y152317D01*
X76413Y151000D01*
X76587Y149683D01*
X77095Y148457D01*
X77903Y147403D01*
X78957Y146595D01*
X79599Y146329D01*
Y145829D01*
X78957Y145563D01*
X77903Y144754D01*
X77095Y143701D01*
X76587Y142474D01*
X76512Y141908D01*
X86488D01*
X86413Y142474D01*
X85905Y143701D01*
X85097Y144754D01*
X84043Y145563D01*
X82816Y146071D01*
X84043Y146595D01*
X84043D01*
D01*
D01*
D01*
X84043Y146595D01*
X85097Y147403D01*
X85905Y148457D01*
X86413Y149683D01*
X86587Y151000D01*
X86459Y151972D01*
X87704Y153218D01*
X92599D01*
Y162218D01*
Y164874D01*
X97858D01*
Y163177D01*
X103220D01*
Y170476D01*
X97858D01*
Y168953D01*
X92599D01*
Y171218D01*
X84599D01*
Y168953D01*
X84099D01*
Y171414D01*
Y180413D01*
X82138D01*
Y181177D01*
X82720D01*
Y188476D01*
X77358D01*
Y186453D01*
X48453D01*
X47734Y187171D01*
X47834Y187358D01*
X48168Y188457D01*
X48280Y189600D01*
X48168Y190743D01*
X47834Y191842D01*
X47293Y192855D01*
X46564Y193743D01*
X45676Y194472D01*
X44663Y195013D01*
X43564Y195346D01*
X42421Y195459D01*
D02*
G37*
G36*
X196850Y178981D02*
X195636Y178822D01*
X194505Y178353D01*
X193534Y177608D01*
X192789Y176636D01*
X192320Y175505D01*
X192160Y174291D01*
X192320Y173077D01*
X192789Y171946D01*
X193534Y170975D01*
X194505Y170230D01*
X195636Y169761D01*
X196850Y169601D01*
X198064Y169761D01*
X199195Y170230D01*
X200167Y170975D01*
X200912Y171946D01*
X201381Y173077D01*
X201540Y174291D01*
X201381Y175505D01*
X200912Y176636D01*
X200167Y177608D01*
X199195Y178353D01*
X198064Y178822D01*
X196850Y178981D01*
D02*
G37*
G36*
X155440Y170218D02*
X146440D01*
Y161218D01*
X155440D01*
Y170218D01*
D02*
G37*
G36*
X128440Y155468D02*
X124750D01*
Y151778D01*
X125175Y151833D01*
X126269Y152287D01*
X127209Y153008D01*
X127931Y153948D01*
X128384Y155043D01*
X128440Y155468D01*
D02*
G37*
G36*
X754940Y163257D02*
X753765Y163102D01*
X752670Y162648D01*
X751730Y161927D01*
X751009Y160987D01*
X750556Y159892D01*
X750401Y158718D01*
X750556Y157543D01*
X751009Y156448D01*
X751730Y155508D01*
X752670Y154787D01*
X753765Y154333D01*
X754940Y154179D01*
X756115Y154333D01*
X757209Y154787D01*
X758149Y155508D01*
X758871Y156448D01*
X759324Y157543D01*
X759479Y158718D01*
X759324Y159892D01*
X758871Y160987D01*
X758149Y161927D01*
X757209Y162648D01*
X756115Y163102D01*
X754940Y163257D01*
D02*
G37*
G36*
X163000Y152100D02*
X159750D01*
Y148350D01*
X163000D01*
Y152100D01*
D02*
G37*
G36*
X123250Y155468D02*
X119560D01*
X119616Y155043D01*
X120069Y153948D01*
X120791Y153008D01*
X121731Y152287D01*
X122825Y151833D01*
X123250Y151778D01*
Y155468D01*
D02*
G37*
G36*
Y160658D02*
X122825Y160602D01*
X121731Y160148D01*
X120791Y159427D01*
X120069Y158487D01*
X119616Y157392D01*
X119560Y156968D01*
X123250D01*
Y160658D01*
D02*
G37*
G36*
X196850Y168982D02*
X195636Y168822D01*
X194505Y168353D01*
X193534Y167608D01*
X192789Y166636D01*
X192320Y165505D01*
X192160Y164291D01*
X192320Y163077D01*
X192789Y161946D01*
X193091Y161552D01*
X192827Y161127D01*
X192086Y161275D01*
X172401D01*
X171623Y161120D01*
X170964Y160680D01*
X170524Y160021D01*
X170369Y159244D01*
Y131685D01*
X170524Y130907D01*
X170964Y130248D01*
X171623Y129808D01*
X172401Y129653D01*
X192086D01*
X192863Y129808D01*
X193522Y130248D01*
X193962Y130907D01*
X194117Y131685D01*
Y159244D01*
X193962Y160021D01*
X193957Y160028D01*
X194322Y160370D01*
X194505Y160230D01*
X195636Y159761D01*
X196850Y159601D01*
X198064Y159761D01*
X199195Y160230D01*
X200167Y160975D01*
X200912Y161946D01*
X201381Y163077D01*
X201540Y164291D01*
X201381Y165505D01*
X200912Y166636D01*
X200167Y167608D01*
X199195Y168353D01*
X198064Y168822D01*
X196850Y168982D01*
D02*
G37*
G36*
X160940Y170256D02*
X159765Y170102D01*
X158670Y169648D01*
X157730Y168927D01*
X157009Y167987D01*
X156556Y166892D01*
X156401Y165718D01*
X156556Y164543D01*
X157009Y163448D01*
X157730Y162508D01*
X158670Y161787D01*
X159765Y161333D01*
X160940Y161179D01*
X162115Y161333D01*
X163209Y161787D01*
X164149Y162508D01*
X164871Y163448D01*
X165324Y164543D01*
X165479Y165718D01*
X165324Y166892D01*
X164871Y167987D01*
X164149Y168927D01*
X163209Y169648D01*
X162115Y170102D01*
X160940Y170256D01*
D02*
G37*
G36*
X124750Y160658D02*
Y156968D01*
X128440D01*
X128384Y157392D01*
X127931Y158487D01*
X127209Y159427D01*
X126269Y160148D01*
X125175Y160602D01*
X124750Y160658D01*
D02*
G37*
G36*
X215354Y168982D02*
X214140Y168822D01*
X213009Y168353D01*
X212038Y167608D01*
X211293Y166636D01*
X210824Y165505D01*
X210664Y164291D01*
X210824Y163077D01*
X211293Y161946D01*
X212038Y160975D01*
X213009Y160230D01*
X214140Y159761D01*
X215354Y159601D01*
X216568Y159761D01*
X217699Y160230D01*
X218671Y160975D01*
X219416Y161946D01*
X219885Y163077D01*
X220044Y164291D01*
X219885Y165505D01*
X219416Y166636D01*
X218671Y167608D01*
X217699Y168353D01*
X216568Y168822D01*
X215354Y168982D01*
D02*
G37*
G36*
X121399Y198457D02*
X108650D01*
Y196496D01*
X106961D01*
Y197563D01*
X101598D01*
Y190264D01*
X106961D01*
Y192418D01*
X108650D01*
Y190457D01*
X121399D01*
Y194456D01*
Y198457D01*
D02*
G37*
G36*
X656530Y202957D02*
X647906D01*
Y199207D01*
X656530D01*
Y202957D01*
D02*
G37*
G36*
X86445Y198163D02*
X81114D01*
X81261Y197807D01*
X81098Y197563D01*
X81098D01*
Y194663D01*
X86461D01*
Y197563D01*
X86461D01*
X86298Y197807D01*
X86445Y198163D01*
D02*
G37*
G36*
X126649Y198457D02*
X122899D01*
Y195207D01*
X126649D01*
Y198457D01*
D02*
G37*
G36*
X666654Y202957D02*
X658030D01*
Y199207D01*
X666654D01*
Y202957D01*
D02*
G37*
G36*
X682530Y202957D02*
X679280D01*
Y199207D01*
X682530D01*
Y202957D01*
D02*
G37*
G36*
X687280D02*
X684030D01*
Y199207D01*
X687280D01*
Y202957D01*
D02*
G37*
G36*
X673030D02*
X669780D01*
Y199207D01*
X673030D01*
Y202957D01*
D02*
G37*
G36*
X677780D02*
X674530D01*
Y199207D01*
X677780D01*
Y202957D01*
D02*
G37*
G36*
X126649Y193707D02*
X122899D01*
Y190457D01*
X126649D01*
Y193707D01*
D02*
G37*
G36*
X340158Y195911D02*
X338944Y195751D01*
X337812Y195282D01*
X336841Y194537D01*
X336096Y193565D01*
X335627Y192434D01*
X335467Y191220D01*
X335627Y190007D01*
X336096Y188875D01*
X336841Y187904D01*
X337812Y187159D01*
X338944Y186690D01*
X340158Y186530D01*
X341371Y186690D01*
X341677Y186817D01*
X342848Y185646D01*
X342518Y185270D01*
X342502Y185282D01*
X341371Y185751D01*
X340158Y185911D01*
X338944Y185751D01*
X337812Y185282D01*
X336841Y184537D01*
X336096Y183565D01*
X335627Y182434D01*
X335467Y181220D01*
X335627Y180007D01*
X336096Y178875D01*
X336841Y177904D01*
X337812Y177159D01*
X338944Y176690D01*
X340158Y176530D01*
X341371Y176690D01*
X342502Y177159D01*
X343474Y177904D01*
X344219Y178875D01*
X344688Y180007D01*
X344848Y181220D01*
X344688Y182434D01*
X344219Y183565D01*
X344207Y183581D01*
X344583Y183911D01*
X346169Y182325D01*
Y166258D01*
X341677Y161766D01*
X341371Y161892D01*
X340158Y162052D01*
X338944Y161892D01*
X337812Y161424D01*
X336841Y160679D01*
X336096Y159707D01*
X335627Y158576D01*
X335467Y157362D01*
X335627Y156148D01*
X336096Y155017D01*
X336841Y154046D01*
X337812Y153300D01*
X338944Y152832D01*
X340158Y152672D01*
X341371Y152832D01*
X342502Y153300D01*
X343474Y154046D01*
X344219Y155017D01*
X344688Y156148D01*
X344848Y157362D01*
X344688Y158576D01*
X344561Y158882D01*
X349650Y163971D01*
X350093Y164633D01*
X350248Y165413D01*
Y183169D01*
X350093Y183950D01*
X349650Y184611D01*
X344561Y189701D01*
X344688Y190007D01*
X344848Y191220D01*
X344688Y192434D01*
X344219Y193565D01*
X343474Y194537D01*
X342502Y195282D01*
X341371Y195751D01*
X340158Y195911D01*
D02*
G37*
G36*
X318318Y210015D02*
X294696D01*
X293919Y209860D01*
X293260Y209420D01*
X292820Y208761D01*
X292665Y207984D01*
Y188299D01*
X292665Y188299D01*
X292665D01*
X292820Y187521D01*
X293260Y186862D01*
X293919Y186422D01*
X294696Y186267D01*
X318318D01*
X319095Y186422D01*
X319754Y186862D01*
X320195Y187521D01*
X320349Y188299D01*
Y207984D01*
X320195Y208761D01*
X319754Y209420D01*
X319095Y209860D01*
X318318Y210015D01*
D02*
G37*
G36*
X509449Y195911D02*
X508235Y195751D01*
X507104Y195282D01*
X506132Y194537D01*
X505387Y193565D01*
X504918Y192434D01*
X504759Y191220D01*
X504918Y190007D01*
X505387Y188875D01*
X506132Y187904D01*
X507104Y187159D01*
X508235Y186690D01*
X509449Y186530D01*
X510663Y186690D01*
X510969Y186817D01*
X512140Y185645D01*
X511810Y185270D01*
X511794Y185282D01*
X510663Y185751D01*
X509449Y185911D01*
X508235Y185751D01*
X507104Y185282D01*
X506132Y184537D01*
X505387Y183565D01*
X504918Y182434D01*
X504759Y181220D01*
X504918Y180007D01*
X505387Y178875D01*
X506132Y177904D01*
X507104Y177159D01*
X508235Y176690D01*
X509449Y176530D01*
X510663Y176690D01*
X511794Y177159D01*
X512765Y177904D01*
X513137Y178389D01*
X513610Y178228D01*
Y164408D01*
X510969Y161766D01*
X510663Y161892D01*
X509449Y162052D01*
X508235Y161892D01*
X507104Y161424D01*
X506132Y160679D01*
X505387Y159707D01*
X504918Y158576D01*
X504759Y157362D01*
X504918Y156148D01*
X505387Y155017D01*
X506132Y154046D01*
X507104Y153300D01*
X508235Y152832D01*
X509449Y152672D01*
X510663Y152832D01*
X511794Y153300D01*
X512765Y154046D01*
X513511Y155017D01*
X513979Y156148D01*
X514139Y157362D01*
X513979Y158576D01*
X513852Y158882D01*
X517092Y162121D01*
X517092Y162121D01*
X517533Y162783D01*
D01*
D01*
D01*
Y162783D01*
X517533D01*
D01*
D01*
D01*
D01*
X517534D01*
D01*
D01*
D01*
D01*
Y162783D01*
X517534D01*
D01*
Y162783D01*
D01*
D01*
D01*
D01*
D01*
D01*
D01*
D01*
D01*
D01*
D01*
D01*
Y162783D01*
D01*
X517534D01*
D01*
D01*
D01*
D01*
X517533Y162783D01*
X517689Y163563D01*
X517689Y163563D01*
Y185020D01*
X517533Y185800D01*
X517092Y186462D01*
X513852Y189701D01*
X513979Y190007D01*
X514139Y191220D01*
X513979Y192434D01*
X513511Y193565D01*
X512765Y194537D01*
X511794Y195282D01*
X510663Y195751D01*
X509449Y195911D01*
D02*
G37*
G36*
X444488D02*
X443274Y195751D01*
X442143Y195282D01*
X441172Y194537D01*
X440426Y193565D01*
X439958Y192434D01*
X439798Y191220D01*
X439958Y190007D01*
X440426Y188875D01*
X441172Y187904D01*
X442143Y187159D01*
X443274Y186690D01*
X444488Y186530D01*
X445702Y186690D01*
X446008Y186817D01*
X447179Y185646D01*
X446849Y185270D01*
X446833Y185282D01*
X445702Y185751D01*
X444488Y185911D01*
X443274Y185751D01*
X442143Y185282D01*
X441172Y184537D01*
X440426Y183565D01*
X439958Y182434D01*
X439798Y181220D01*
X439958Y180007D01*
X440426Y178875D01*
X441172Y177904D01*
X442143Y177159D01*
X443274Y176690D01*
X444488Y176530D01*
X445702Y176690D01*
X446833Y177159D01*
X447805Y177904D01*
X448267Y178507D01*
X448740Y178346D01*
Y164498D01*
X446008Y161766D01*
X445702Y161892D01*
X444488Y162052D01*
X443274Y161892D01*
X442143Y161424D01*
X441172Y160679D01*
X440426Y159707D01*
X439958Y158576D01*
X439798Y157362D01*
X439958Y156148D01*
X440426Y155017D01*
X441172Y154046D01*
X442143Y153300D01*
X443274Y152832D01*
X444488Y152672D01*
X445702Y152832D01*
X446833Y153300D01*
X447805Y154046D01*
X448550Y155017D01*
X449018Y156148D01*
X449178Y157362D01*
X449018Y158576D01*
X448892Y158882D01*
X452221Y162212D01*
X452664Y162873D01*
X452819Y163654D01*
D01*
D01*
D01*
D01*
D01*
X452819D01*
D01*
D01*
D01*
D01*
Y163654D01*
X452819D01*
D01*
Y163654D01*
D01*
D01*
D01*
D01*
D01*
D01*
D01*
D01*
D01*
D01*
D01*
D01*
Y163654D01*
D01*
X452819D01*
D01*
D01*
D01*
D01*
X452819Y163654D01*
Y184929D01*
X452664Y185709D01*
X452221Y186371D01*
X448892Y189701D01*
X449018Y190007D01*
X449178Y191220D01*
X449018Y192434D01*
X448550Y193565D01*
X447805Y194537D01*
X446833Y195282D01*
X445702Y195751D01*
X444488Y195911D01*
D02*
G37*
G36*
X487610Y210015D02*
X463988D01*
X463210Y209860D01*
X462551Y209420D01*
X462111Y208761D01*
X461956Y207984D01*
Y188299D01*
X461956Y188299D01*
X461956D01*
X462111Y187521D01*
X462551Y186862D01*
X463210Y186422D01*
X463988Y186267D01*
X487610D01*
X488387Y186422D01*
X489046Y186862D01*
X489486Y187521D01*
X489641Y188299D01*
Y207984D01*
X489486Y208761D01*
X489046Y209420D01*
X488387Y209860D01*
X487610Y210015D01*
D02*
G37*
G36*
X83030Y193163D02*
X81098D01*
Y190264D01*
X83030D01*
Y193163D01*
D02*
G37*
G36*
X86461D02*
X84530D01*
Y190264D01*
X86461D01*
Y193163D01*
D02*
G37*
G36*
X580315Y195911D02*
X579101Y195751D01*
X577970Y195282D01*
X576999Y194537D01*
X576253Y193566D01*
X575785Y192434D01*
X575625Y191220D01*
X575785Y190007D01*
X576253Y188875D01*
X576999Y187904D01*
X577970Y187159D01*
X579101Y186690D01*
X580315Y186530D01*
X581529Y186690D01*
X582660Y187159D01*
X583631Y187904D01*
X584377Y188875D01*
X584845Y190007D01*
X585005Y191220D01*
X584845Y192434D01*
X584377Y193566D01*
X583631Y194537D01*
X582660Y195282D01*
X581529Y195751D01*
X580315Y195911D01*
D02*
G37*
G36*
X117799Y189413D02*
X109799D01*
Y186953D01*
X103220D01*
Y188477D01*
X97858D01*
Y181856D01*
X95565Y179563D01*
X94118D01*
Y172264D01*
X99480D01*
Y177711D01*
X101136Y179367D01*
X101598Y179176D01*
Y172264D01*
X106961D01*
Y173364D01*
X109799D01*
Y171413D01*
X110269D01*
Y163761D01*
X86973Y140466D01*
X86525Y140687D01*
X86488Y140408D01*
X82250D01*
Y136169D01*
X81971Y136132D01*
X82192Y135684D01*
X81104Y134596D01*
X80543Y133865D01*
X80190Y133014D01*
X80070Y132100D01*
Y108762D01*
X78868Y107560D01*
X78035D01*
Y109959D01*
X66965D01*
Y107530D01*
X56606D01*
Y111906D01*
X40364D01*
Y104499D01*
Y97095D01*
X42777D01*
Y84374D01*
X38626D01*
Y65626D01*
X42777D01*
Y54535D01*
X39941D01*
Y43465D01*
X51799D01*
Y54535D01*
X49837D01*
Y65626D01*
X57374D01*
Y84374D01*
X49837D01*
Y97095D01*
X56606D01*
Y100470D01*
X66965D01*
Y98101D01*
X68970D01*
Y79648D01*
X68903Y79597D01*
X68095Y78543D01*
X67586Y77317D01*
X67413Y76000D01*
X67586Y74683D01*
X68095Y73457D01*
X68903Y72403D01*
X69957Y71595D01*
X70599Y71329D01*
Y70829D01*
X69957Y70563D01*
X68903Y69754D01*
X68095Y68701D01*
X67586Y67474D01*
X67512Y66908D01*
X77488D01*
X77413Y67474D01*
X76905Y68701D01*
X76097Y69754D01*
X75043Y70563D01*
X73817Y71071D01*
X75043Y71595D01*
X75043D01*
D01*
D01*
D01*
X75043Y71595D01*
X76097Y72403D01*
X76905Y73457D01*
X77413Y74683D01*
X77587Y76000D01*
X77413Y77317D01*
X76905Y78543D01*
X76097Y79597D01*
X76030Y79648D01*
Y98101D01*
X78035D01*
Y100500D01*
X80330D01*
X81244Y100620D01*
X82095Y100973D01*
X82826Y101534D01*
X86096Y104804D01*
X86657Y105535D01*
X87010Y106386D01*
X87130Y107300D01*
Y130638D01*
X94401Y137909D01*
X94803Y137611D01*
X94625Y137278D01*
X94150Y135715D01*
X93990Y134089D01*
X94150Y132464D01*
X94625Y130901D01*
X95394Y129461D01*
X96431Y128198D01*
X97693Y127162D01*
X99133Y126392D01*
X100696Y125918D01*
X102322Y125758D01*
X103947Y125918D01*
X105510Y126392D01*
X106950Y127162D01*
X108213Y128198D01*
X109249Y129461D01*
X110019Y130901D01*
X110493Y132464D01*
X110653Y134089D01*
X110493Y135715D01*
X110019Y137278D01*
X109249Y138718D01*
X108213Y139980D01*
X106950Y141017D01*
X105510Y141787D01*
X103947Y142261D01*
X102322Y142421D01*
X100696Y142261D01*
X99133Y141787D01*
X98800Y141608D01*
X98502Y142010D01*
X116295Y159803D01*
X116856Y160534D01*
X117209Y161385D01*
X117329Y162299D01*
D01*
D01*
D01*
D01*
D01*
X117329D01*
D01*
D01*
D01*
D01*
Y162299D01*
X117329D01*
D01*
Y162299D01*
D01*
D01*
D01*
D01*
D01*
D01*
D01*
D01*
D01*
D01*
D01*
D01*
Y162299D01*
D01*
X117329D01*
D01*
D01*
D01*
D01*
X117329Y162299D01*
Y171413D01*
X117799D01*
Y180413D01*
Y189413D01*
D02*
G37*
G36*
X158250Y152100D02*
X155000D01*
Y148350D01*
X158250D01*
Y152100D01*
D02*
G37*
G36*
X71750Y124329D02*
X66965D01*
Y119150D01*
X71750D01*
Y124329D01*
D02*
G37*
G36*
X78035D02*
X73250D01*
Y119150D01*
X78035D01*
Y124329D01*
D02*
G37*
G36*
X98550Y118831D02*
Y114593D01*
X102788D01*
X102713Y115159D01*
X102205Y116386D01*
X101397Y117439D01*
X100343Y118248D01*
X99116Y118756D01*
X98550Y118831D01*
D02*
G37*
G36*
X672250Y119123D02*
X671613Y118859D01*
X671038Y118418D01*
X670598Y117844D01*
X670334Y117207D01*
X672250D01*
Y119123D01*
D02*
G37*
G36*
X90149Y209457D02*
X72149D01*
Y201457D01*
X74260D01*
Y197563D01*
X73618D01*
Y190264D01*
X78980D01*
Y197563D01*
X78338D01*
Y201457D01*
X81799D01*
X81960Y200983D01*
X81818Y200875D01*
X81377Y200300D01*
X81114Y199663D01*
X86445D01*
X86182Y200300D01*
X85741Y200875D01*
X85166Y201316D01*
X85194Y201457D01*
X90149D01*
Y203418D01*
X98573D01*
X98765Y202956D01*
X95357Y199548D01*
X94915Y198887D01*
X94760Y198106D01*
Y197563D01*
X94118D01*
Y190264D01*
X99480D01*
Y197563D01*
X99480Y197563D01*
X99480D01*
X99380Y197804D01*
X101494Y199918D01*
X126595D01*
X132961Y193552D01*
Y147600D01*
X132961Y147600D01*
X132961D01*
X133116Y146820D01*
X133558Y146158D01*
X146961Y132755D01*
Y127878D01*
X146750Y127603D01*
X146250D01*
X146039Y127878D01*
Y130600D01*
X145884Y131380D01*
X145442Y132042D01*
X145442Y132042D01*
X145442D01*
D01*
X145442Y132042D01*
Y132042D01*
X142442Y135042D01*
X141780Y135484D01*
X141000Y135639D01*
X127500D01*
Y138100D01*
Y141850D01*
X119500D01*
Y138100D01*
Y134284D01*
X112558Y127342D01*
X112116Y126681D01*
X111961Y125900D01*
Y121000D01*
X110000D01*
Y112000D01*
Y103000D01*
X111961D01*
Y101845D01*
X109655Y99539D01*
X101049D01*
X100888Y100013D01*
X101397Y100403D01*
X102205Y101457D01*
X102713Y102683D01*
X102887Y104000D01*
X102713Y105317D01*
X102205Y106543D01*
X101397Y107597D01*
X100343Y108405D01*
X99116Y108914D01*
X100343Y109437D01*
X100343D01*
D01*
D01*
D01*
X100343Y109437D01*
X101397Y110246D01*
X102205Y111299D01*
X102713Y112526D01*
X102788Y113093D01*
X92812D01*
X92887Y112526D01*
X93395Y111299D01*
X94203Y110246D01*
X95257Y109437D01*
X95899Y109171D01*
Y108671D01*
X95257Y108405D01*
X94203Y107597D01*
X93395Y106543D01*
X92887Y105317D01*
X92713Y104000D01*
X92887Y102683D01*
X93395Y101457D01*
X94203Y100403D01*
X94712Y100013D01*
X94551Y99539D01*
X90000D01*
X89220Y99384D01*
X88558Y98942D01*
X79058Y89442D01*
X78616Y88780D01*
X78461Y88000D01*
Y66345D01*
X78033Y65917D01*
X77584Y66138D01*
X77488Y65408D01*
X73250D01*
Y61169D01*
X72520Y61073D01*
X72741Y60625D01*
X52655Y40539D01*
X47122D01*
X46342Y40384D01*
X45680Y39942D01*
X39027Y33289D01*
X38797Y33384D01*
X37622Y33539D01*
X36447Y33384D01*
X35353Y32931D01*
X34413Y32209D01*
X33691Y31269D01*
X33238Y30175D01*
X33083Y29000D01*
X33238Y27825D01*
X33691Y26730D01*
X34413Y25791D01*
X35353Y25069D01*
X36447Y24616D01*
X37622Y24461D01*
X38797Y24616D01*
X39891Y25069D01*
X40832Y25791D01*
X41553Y26730D01*
X42006Y27825D01*
X42161Y29000D01*
X42006Y30175D01*
X41911Y30405D01*
X43332Y31826D01*
X43708Y31497D01*
X43534Y31269D01*
X43080Y30175D01*
X42926Y29000D01*
X43080Y27825D01*
X43534Y26730D01*
X44255Y25791D01*
X45195Y25069D01*
X46290Y24616D01*
X47465Y24461D01*
X48639Y24616D01*
X49734Y25069D01*
X50674Y25791D01*
X51395Y26730D01*
X51849Y27825D01*
X52003Y29000D01*
X51849Y30175D01*
X51753Y30405D01*
X53175Y31826D01*
X53551Y31497D01*
X53376Y31269D01*
X52923Y30175D01*
X52768Y29000D01*
X52923Y27825D01*
X53376Y26730D01*
X54098Y25791D01*
X55038Y25069D01*
X56132Y24616D01*
X57307Y24461D01*
X58482Y24616D01*
X59576Y25069D01*
X60517Y25791D01*
X61238Y26730D01*
X61691Y27825D01*
X61846Y29000D01*
X61691Y30175D01*
X61596Y30405D01*
X63017Y31826D01*
X63393Y31497D01*
X63219Y31269D01*
X62765Y30175D01*
X62611Y29000D01*
X62765Y27825D01*
X63219Y26730D01*
X63940Y25791D01*
X64880Y25069D01*
X65975Y24616D01*
X67150Y24461D01*
X68324Y24616D01*
X69419Y25069D01*
X70359Y25791D01*
X71080Y26730D01*
X71534Y27825D01*
X71688Y29000D01*
X71534Y30175D01*
X71080Y31269D01*
X70479Y32052D01*
X77345Y38918D01*
X102780D01*
Y37039D01*
X80500D01*
X80500Y37039D01*
X79720Y36884D01*
X79058Y36442D01*
X76338Y33722D01*
X75924Y33102D01*
X75510Y32931D01*
X74570Y32209D01*
X73849Y31269D01*
X73395Y30175D01*
X73241Y29000D01*
X73395Y27825D01*
X73849Y26730D01*
X74570Y25791D01*
X75510Y25069D01*
X76605Y24616D01*
X77780Y24461D01*
X78954Y24616D01*
X80049Y25069D01*
X80989Y25791D01*
X81710Y26730D01*
X82164Y27825D01*
X82318Y29000D01*
X82164Y30175D01*
X81710Y31269D01*
X80989Y32209D01*
X80965Y32581D01*
X81345Y32961D01*
X84772D01*
X84932Y32487D01*
X84570Y32209D01*
X83849Y31269D01*
X83395Y30175D01*
X83241Y29000D01*
X83395Y27825D01*
X83849Y26730D01*
X84570Y25791D01*
X85510Y25069D01*
X86605Y24616D01*
X87779Y24461D01*
X88954Y24616D01*
X90049Y25069D01*
X90989Y25791D01*
X91710Y26730D01*
X92164Y27825D01*
X92318Y29000D01*
X92164Y30175D01*
X91710Y31269D01*
X90989Y32209D01*
X90049Y32931D01*
X90055Y32961D01*
X94772D01*
X94932Y32487D01*
X94570Y32209D01*
X93849Y31269D01*
X93395Y30175D01*
X93339Y29750D01*
X102220D01*
X102164Y30175D01*
X101710Y31269D01*
X100989Y32209D01*
X100049Y32931D01*
X100055Y32961D01*
X114400D01*
X115180Y33116D01*
X115842Y33558D01*
Y33558D01*
X115842D01*
D01*
D01*
D01*
D01*
D01*
D01*
X115842D01*
D01*
X115842D01*
Y33558D01*
D01*
D01*
D01*
D01*
Y33558D01*
D01*
D01*
D01*
D01*
D01*
D01*
Y33558D01*
D01*
D01*
X115842D01*
D01*
D01*
D01*
X117721Y35438D01*
X118164Y36099D01*
X118235Y36457D01*
X120280D01*
Y45457D01*
Y54457D01*
X118319D01*
Y57242D01*
X133779Y72702D01*
X134240Y72510D01*
Y71334D01*
X133921Y70918D01*
X133649Y70261D01*
X133556Y69557D01*
Y64357D01*
X133649Y63652D01*
X133921Y62995D01*
X134354Y62431D01*
X134918Y61998D01*
X135575Y61726D01*
X136280Y61633D01*
X136984Y61726D01*
X137641Y61998D01*
X138131Y62374D01*
X138580Y62153D01*
Y61657D01*
X170530D01*
Y66956D01*
Y72257D01*
X164583D01*
X164550Y72755D01*
X164000Y72683D01*
X163450Y72755D01*
X163417Y72257D01*
X154116D01*
X153925Y72719D01*
X160442Y79235D01*
X160884Y79897D01*
X161039Y80677D01*
D01*
D01*
D01*
D01*
D01*
X161039D01*
D01*
D01*
D01*
D01*
Y80677D01*
X161039D01*
D01*
Y80677D01*
D01*
D01*
D01*
D01*
D01*
D01*
D01*
D01*
D01*
D01*
D01*
D01*
Y80677D01*
D01*
X161039D01*
D01*
D01*
D01*
D01*
X161039Y80677D01*
Y81722D01*
X161250Y81997D01*
X161750D01*
X162074Y81574D01*
X162638Y81142D01*
X163250Y80888D01*
Y85999D01*
Y91112D01*
X162638Y90859D01*
X162074Y90426D01*
X161750Y90003D01*
X161250D01*
X160926Y90426D01*
X160362Y90859D01*
X159705Y91131D01*
X159000Y91223D01*
X158295Y91131D01*
X157638Y90859D01*
X157074Y90426D01*
X156750Y90003D01*
X156250D01*
X155926Y90426D01*
X155362Y90859D01*
X154705Y91131D01*
X154000Y91223D01*
X153295Y91131D01*
X152638Y90859D01*
X152074Y90426D01*
X151750Y90003D01*
X151250D01*
X150926Y90426D01*
X150362Y90859D01*
X149705Y91131D01*
X149000Y91223D01*
X148295Y91131D01*
X147638Y90859D01*
X147074Y90426D01*
X146750Y90003D01*
X146250D01*
X145926Y90426D01*
X145362Y90859D01*
X144705Y91131D01*
X144000Y91223D01*
X143295Y91131D01*
X142638Y90859D01*
X142074Y90426D01*
X141750Y90003D01*
X141250D01*
X140926Y90426D01*
X140362Y90859D01*
X139705Y91131D01*
X139000Y91223D01*
X138295Y91131D01*
X137638Y90859D01*
X137074Y90426D01*
X136750Y90003D01*
X136250D01*
X135926Y90426D01*
X135362Y90859D01*
X134705Y91131D01*
X134000Y91223D01*
X133295Y91131D01*
X132638Y90859D01*
X132074Y90426D01*
X131642Y89862D01*
X131369Y89205D01*
X131277Y88500D01*
Y83500D01*
X131369Y82795D01*
X131438Y82629D01*
X105338Y56529D01*
X104896Y55867D01*
X104740Y55087D01*
Y54457D01*
X102780D01*
Y45457D01*
Y42996D01*
X83201D01*
X82882Y43412D01*
X82866Y43444D01*
X83302Y44013D01*
X83566Y44650D01*
X80899D01*
Y45399D01*
X80150D01*
Y48066D01*
X79809Y47925D01*
X79532Y48341D01*
X87942Y56751D01*
X88384Y57412D01*
X88539Y58193D01*
D01*
D01*
D01*
D01*
D01*
X88539D01*
D01*
D01*
D01*
D01*
Y58193D01*
X88539D01*
D01*
Y58193D01*
D01*
D01*
D01*
D01*
D01*
D01*
D01*
D01*
D01*
D01*
D01*
D01*
Y58193D01*
D01*
X88539D01*
D01*
D01*
D01*
D01*
X88539Y58193D01*
Y83155D01*
X94845Y89461D01*
X124900D01*
X125680Y89616D01*
X126342Y90058D01*
X144345Y108061D01*
X161600D01*
X162380Y108216D01*
X163042Y108658D01*
X165442Y111058D01*
X165884Y111720D01*
X166039Y112500D01*
Y119322D01*
X166250Y119597D01*
X166750D01*
X166961Y119322D01*
Y112500D01*
X166961Y112500D01*
X166961D01*
X167116Y111720D01*
X167558Y111058D01*
X185558Y93058D01*
X186220Y92616D01*
X187000Y92461D01*
X199655D01*
X214020Y78096D01*
X213799Y77648D01*
X214318Y77579D01*
X214350Y77566D01*
Y74899D01*
X213601D01*
Y74150D01*
X210934D01*
X211198Y73513D01*
X211434Y73205D01*
X211213Y72757D01*
X207952D01*
X201039Y79669D01*
Y81722D01*
X201359Y82139D01*
X201630Y82795D01*
X201723Y83500D01*
Y88500D01*
X201630Y89205D01*
X201359Y89862D01*
X200926Y90426D01*
X200362Y90859D01*
X199705Y91131D01*
X199000Y91223D01*
X198295Y91131D01*
X197638Y90859D01*
X197074Y90426D01*
X196750Y90003D01*
X196250D01*
X195926Y90426D01*
X195362Y90859D01*
X194705Y91131D01*
X194000Y91223D01*
X193295Y91131D01*
X192638Y90859D01*
X192074Y90426D01*
X191750Y90003D01*
X191250D01*
X190926Y90426D01*
X190362Y90859D01*
X189705Y91131D01*
X189000Y91223D01*
X188295Y91131D01*
X187638Y90859D01*
X187074Y90426D01*
X186750Y90003D01*
X186250D01*
X185926Y90426D01*
X185362Y90859D01*
X184705Y91131D01*
X184000Y91223D01*
X183295Y91131D01*
X182638Y90859D01*
X182074Y90426D01*
X181750Y90003D01*
X181250D01*
X180926Y90426D01*
X180362Y90859D01*
X179705Y91131D01*
X179000Y91223D01*
X178295Y91131D01*
X177638Y90859D01*
X177074Y90426D01*
X176750Y90003D01*
X176250D01*
X175926Y90426D01*
X175362Y90859D01*
X174705Y91131D01*
X174000Y91223D01*
X173295Y91131D01*
X172638Y90859D01*
X172074Y90426D01*
X171750Y90003D01*
X171250D01*
X170926Y90426D01*
X170362Y90859D01*
X169705Y91131D01*
X169000Y91223D01*
X168295Y91131D01*
X167638Y90859D01*
X167074Y90426D01*
X166750Y90003D01*
X166250D01*
X165926Y90426D01*
X165362Y90859D01*
X164750Y91112D01*
Y85999D01*
Y80888D01*
X165362Y81142D01*
X165926Y81574D01*
X166250Y81997D01*
X166750D01*
X166961Y81722D01*
Y78500D01*
X166961Y78500D01*
X166961D01*
X167116Y77720D01*
X167558Y77058D01*
X171898Y72719D01*
X171706Y72257D01*
X172030D01*
Y67707D01*
X173980D01*
Y69983D01*
X174442Y70175D01*
X184341Y60276D01*
X184341Y60276D01*
X184737Y60011D01*
X185002Y59834D01*
X185783Y59678D01*
X242762D01*
X256068Y46373D01*
Y31218D01*
X256189Y30608D01*
X255748Y30372D01*
X247221Y38899D01*
X246560Y39341D01*
X245780Y39496D01*
X219280D01*
Y40936D01*
X219655Y41265D01*
X219562Y41277D01*
X219530Y41291D01*
Y43956D01*
Y46623D01*
X219562Y46636D01*
X219655Y46648D01*
X219280Y46978D01*
Y48457D01*
Y57457D01*
X211280D01*
Y54996D01*
X210280D01*
Y57457D01*
X202280D01*
Y54996D01*
X200549D01*
X200076Y55359D01*
X199407Y55636D01*
X198689Y55730D01*
X197971Y55636D01*
X197302Y55359D01*
X196728Y54918D01*
X196287Y54344D01*
X196010Y53675D01*
X195915Y52957D01*
X196010Y52239D01*
X196287Y51570D01*
X196728Y50995D01*
X197302Y50555D01*
X197971Y50278D01*
X198689Y50183D01*
X199407Y50278D01*
X200076Y50555D01*
X200549Y50918D01*
X202280D01*
Y48457D01*
Y46895D01*
X202161Y46880D01*
X201431Y46577D01*
X200804Y46096D01*
X193565Y38857D01*
X193084Y38230D01*
X192996Y38017D01*
X192782Y37501D01*
X192679Y36718D01*
Y32350D01*
X192495Y32210D01*
X191774Y31269D01*
X191321Y30175D01*
X191166Y29000D01*
X191321Y27825D01*
X191774Y26731D01*
X192495Y25791D01*
X193435Y25069D01*
X194530Y24616D01*
X195705Y24461D01*
X196879Y24616D01*
X197974Y25069D01*
X198914Y25791D01*
X199636Y26731D01*
X200089Y27825D01*
X200244Y29000D01*
X200089Y30175D01*
X199636Y31269D01*
X198914Y32210D01*
X198731Y32350D01*
Y35464D01*
X202723Y39457D01*
X208312D01*
X208457Y38978D01*
X208338Y38899D01*
X204105Y34666D01*
X203663Y34005D01*
X203508Y33224D01*
Y33026D01*
X203278Y32931D01*
X202338Y32210D01*
X201617Y31269D01*
X201163Y30175D01*
X201009Y29000D01*
X201163Y27825D01*
X201617Y26731D01*
X202338Y25791D01*
X203278Y25069D01*
X204373Y24616D01*
X205547Y24461D01*
X206722Y24616D01*
X207817Y25069D01*
X208757Y25791D01*
X209478Y26731D01*
X209931Y27825D01*
X210086Y29000D01*
X209931Y30175D01*
X209478Y31269D01*
X208757Y32210D01*
X208299Y32561D01*
X208266Y33060D01*
X210624Y35418D01*
X215203D01*
X215395Y34956D01*
X213948Y33509D01*
X213731Y33184D01*
X213120Y32931D01*
X212180Y32210D01*
X211459Y31269D01*
X211006Y30175D01*
X210851Y29000D01*
X211006Y27825D01*
X211459Y26731D01*
X212180Y25791D01*
X213120Y25069D01*
X214215Y24616D01*
X215390Y24461D01*
X216565Y24616D01*
X217659Y25069D01*
X218599Y25791D01*
X219321Y26731D01*
X219774Y27825D01*
X219929Y29000D01*
X219774Y30175D01*
X219321Y31269D01*
X218599Y32210D01*
X218588Y32381D01*
X219124Y32918D01*
X222168D01*
X222329Y32444D01*
X222023Y32210D01*
X221302Y31269D01*
X220848Y30175D01*
X220792Y29750D01*
X229672D01*
X229616Y30175D01*
X229163Y31269D01*
X228442Y32210D01*
X228136Y32444D01*
X228297Y32918D01*
X238435D01*
X256240Y15112D01*
Y13483D01*
X256010Y13387D01*
X255070Y12666D01*
X254349Y11726D01*
X253895Y10632D01*
X253741Y9457D01*
X253895Y8282D01*
X254349Y7187D01*
X255070Y6247D01*
X256010Y5526D01*
X257105Y5073D01*
X258280Y4918D01*
X259454Y5073D01*
X260549Y5526D01*
X261489Y6247D01*
X262210Y7187D01*
X262664Y8282D01*
X262818Y9457D01*
X262664Y10632D01*
X262210Y11726D01*
X261489Y12666D01*
X260549Y13387D01*
X260319Y13483D01*
Y15957D01*
X260163Y16737D01*
X259721Y17399D01*
X259721Y17399D01*
X259721D01*
D01*
X259721Y17399D01*
X259721Y17399D01*
X259721D01*
D01*
D01*
X259721Y17399D01*
X242164Y34956D01*
X242356Y35418D01*
X244935D01*
X266240Y14112D01*
Y13483D01*
X266010Y13387D01*
X265070Y12666D01*
X264349Y11726D01*
X263895Y10632D01*
X263741Y9457D01*
X263895Y8282D01*
X264349Y7187D01*
X265070Y6247D01*
X266010Y5526D01*
X267105Y5073D01*
X268280Y4918D01*
X269454Y5073D01*
X270549Y5526D01*
X271489Y6247D01*
X272210Y7187D01*
X272664Y8282D01*
X272818Y9457D01*
X272664Y10632D01*
X272210Y11726D01*
X271489Y12666D01*
X270549Y13387D01*
X270319Y13483D01*
Y14957D01*
X270319Y14957D01*
X270198Y15566D01*
X270638Y15802D01*
X272665Y13776D01*
X273327Y13334D01*
X273780Y13243D01*
Y4957D01*
X282780D01*
Y13178D01*
X605088D01*
X605868Y13334D01*
X606530Y13776D01*
Y13776D01*
X606530D01*
D01*
D01*
D01*
D01*
D01*
D01*
X606530D01*
D01*
X606530D01*
Y13776D01*
D01*
D01*
D01*
D01*
Y13776D01*
D01*
D01*
D01*
D01*
D01*
D01*
Y13776D01*
D01*
D01*
X606530D01*
D01*
D01*
D01*
D01*
D01*
X610969Y18216D01*
X611412Y18877D01*
X611567Y19658D01*
X611567Y19658D01*
Y24974D01*
X611797Y25069D01*
X612737Y25791D01*
X613458Y26731D01*
X613912Y27825D01*
X614066Y29000D01*
X613912Y30175D01*
X613458Y31269D01*
X612737Y32210D01*
X611797Y32931D01*
X610702Y33384D01*
X609528Y33539D01*
X608353Y33384D01*
X607258Y32931D01*
X606318Y32210D01*
X605597Y31269D01*
X605143Y30175D01*
X604989Y29000D01*
X605143Y27825D01*
X605597Y26731D01*
X606318Y25791D01*
X607258Y25069D01*
X607488Y24974D01*
Y20502D01*
X604243Y17257D01*
X587164D01*
X586973Y17719D01*
X591285Y22031D01*
X591726Y22692D01*
X591882Y23472D01*
D01*
D01*
D01*
D01*
D01*
X591882D01*
D01*
D01*
D01*
D01*
Y23472D01*
X591882D01*
D01*
Y23472D01*
D01*
D01*
D01*
D01*
D01*
D01*
D01*
D01*
D01*
D01*
D01*
D01*
Y23473D01*
D01*
X591882D01*
D01*
D01*
D01*
D01*
X591882Y23473D01*
Y24974D01*
X592112Y25069D01*
X593052Y25791D01*
X593773Y26731D01*
X594227Y27825D01*
X594381Y29000D01*
X594227Y30175D01*
X593773Y31269D01*
X593052Y32210D01*
X592112Y32931D01*
X591017Y33384D01*
X590960Y33598D01*
X591166Y33756D01*
X591607Y34331D01*
X591884Y35000D01*
X591979Y35718D01*
X591962Y35842D01*
X592292Y36218D01*
X593205D01*
Y45218D01*
Y54218D01*
X591244D01*
Y56264D01*
X591886D01*
Y63563D01*
X586524D01*
Y56264D01*
X587166D01*
Y54218D01*
X585205D01*
Y45218D01*
Y36218D01*
X586118D01*
X586447Y35842D01*
X586431Y35718D01*
X586526Y35000D01*
X586803Y34331D01*
X587244Y33756D01*
X587661Y33436D01*
X587596Y32940D01*
X587573Y32931D01*
X586633Y32210D01*
X585912Y31269D01*
X585458Y30175D01*
X585304Y29000D01*
X585458Y27825D01*
X585912Y26731D01*
X586633Y25791D01*
X587573Y25069D01*
X587803Y24974D01*
Y24317D01*
X583743Y20257D01*
X562281D01*
X562090Y20719D01*
X574147Y32776D01*
X574589Y33437D01*
X574744Y34218D01*
X574744Y34218D01*
Y65360D01*
X585456Y76072D01*
X616333D01*
X617114Y76227D01*
X617775Y76669D01*
X618318Y77212D01*
X618780Y77020D01*
Y75007D01*
X622530D01*
Y78257D01*
X620016D01*
X619825Y78719D01*
X630635Y89529D01*
X631077Y90191D01*
X631232Y90971D01*
D01*
D01*
D01*
D01*
D01*
X631232D01*
D01*
D01*
D01*
D01*
Y90971D01*
X631232D01*
D01*
Y90971D01*
D01*
D01*
D01*
D01*
D01*
D01*
D01*
D01*
D01*
D01*
D01*
D01*
Y90971D01*
D01*
X631232D01*
D01*
D01*
D01*
D01*
X631232Y90971D01*
Y92526D01*
X632843D01*
Y97888D01*
X625543D01*
Y97246D01*
X624280D01*
Y99707D01*
X614159D01*
X613805Y100061D01*
X613806Y104119D01*
X613959Y104489D01*
X614053Y105207D01*
X613959Y105925D01*
X613806Y106295D01*
X613806Y108707D01*
X624280D01*
Y109686D01*
X624656Y110015D01*
X625280Y109933D01*
X625363Y109944D01*
X625543Y109786D01*
Y109786D01*
X632843D01*
Y115148D01*
X626573D01*
X625997Y115386D01*
X625280Y115481D01*
X624656Y115399D01*
X624280Y115728D01*
Y116707D01*
X606280D01*
Y108707D01*
X607400D01*
X607754Y108353D01*
X607754Y105207D01*
X607754Y99707D01*
X606280D01*
Y91707D01*
X619854D01*
X620075Y91259D01*
X619691Y90757D01*
X619414Y90088D01*
X619336Y89497D01*
X613878Y84039D01*
X583000D01*
X582220Y83884D01*
X581558Y83442D01*
X568263Y70147D01*
X567821Y69485D01*
X567666Y68705D01*
Y42804D01*
X567250Y42526D01*
X566923Y42662D01*
X566205Y42756D01*
X565487Y42662D01*
X564818Y42385D01*
X564244Y41944D01*
X563803Y41369D01*
X563526Y40701D01*
X563448Y40109D01*
X560170Y36832D01*
X559680Y36929D01*
X559607Y37104D01*
X559166Y37679D01*
X558592Y38120D01*
X557923Y38397D01*
X557205Y38491D01*
X556487Y38397D01*
X555818Y38120D01*
X555243Y37679D01*
X554803Y37104D01*
X554526Y36435D01*
X554448Y35844D01*
X550860Y32257D01*
X422714D01*
X422493Y32705D01*
X423012Y33382D01*
X423521Y34609D01*
X423694Y35925D01*
X423521Y37242D01*
X423012Y38469D01*
X422204Y39522D01*
X421150Y40330D01*
X419924Y40839D01*
X418607Y41012D01*
X418713Y41118D01*
X450530D01*
X451310Y41273D01*
X451972Y41715D01*
Y41715D01*
X451972D01*
D01*
D01*
D01*
D01*
D01*
D01*
X451972D01*
D01*
X451972D01*
Y41715D01*
D01*
D01*
D01*
D01*
Y41715D01*
D01*
D01*
D01*
D01*
D01*
D01*
Y41715D01*
D01*
D01*
X451972D01*
D01*
D01*
D01*
X465142Y54885D01*
X465584Y55547D01*
X465739Y56327D01*
D01*
D01*
D01*
D01*
D01*
X465739D01*
D01*
D01*
D01*
D01*
Y56327D01*
X465739D01*
D01*
Y56327D01*
D01*
D01*
D01*
D01*
D01*
D01*
D01*
D01*
D01*
D01*
D01*
D01*
Y56327D01*
D01*
X465739D01*
D01*
D01*
D01*
D01*
X465739Y56327D01*
Y59157D01*
X468200D01*
Y67157D01*
X456739D01*
Y68157D01*
X468200D01*
Y70117D01*
X474568D01*
X475348Y70273D01*
X476009Y70715D01*
Y70715D01*
X476009D01*
D01*
D01*
D01*
D01*
D01*
D01*
X476009D01*
D01*
X476009D01*
Y70715D01*
D01*
D01*
D01*
D01*
Y70715D01*
D01*
D01*
D01*
D01*
D01*
D01*
Y70715D01*
D01*
D01*
X476009D01*
D01*
D01*
D01*
X490410Y85115D01*
X490851Y85776D01*
X491007Y86557D01*
D01*
D01*
D01*
D01*
D01*
X491007D01*
D01*
D01*
D01*
D01*
Y86557D01*
X491007D01*
D01*
Y86557D01*
D01*
D01*
D01*
D01*
D01*
D01*
D01*
D01*
D01*
D01*
D01*
D01*
Y86557D01*
D01*
X491007D01*
D01*
D01*
D01*
D01*
X491007Y86557D01*
Y177297D01*
X491370Y177770D01*
X491647Y178439D01*
X491741Y179157D01*
X491647Y179875D01*
X491370Y180544D01*
X490929Y181118D01*
X490354Y181559D01*
X489685Y181836D01*
X488968Y181930D01*
X488250Y181836D01*
X487581Y181559D01*
X487006Y181118D01*
X486565Y180544D01*
X486288Y179875D01*
X486194Y179157D01*
X486288Y178439D01*
X486565Y177770D01*
X486928Y177297D01*
Y87401D01*
X473723Y74196D01*
X468200D01*
Y76157D01*
X450200D01*
Y74949D01*
X449784Y74671D01*
X449385Y74836D01*
X448668Y74930D01*
X447950Y74836D01*
X447281Y74559D01*
X446706Y74118D01*
X446266Y73544D01*
X445988Y72874D01*
X445894Y72157D01*
X445988Y71439D01*
X446266Y70770D01*
X446706Y70195D01*
X447281Y69754D01*
X447950Y69477D01*
X448668Y69383D01*
X449385Y69477D01*
X449784Y69643D01*
X450200Y69365D01*
Y68157D01*
X452661D01*
Y67157D01*
X450200D01*
Y59157D01*
X461661D01*
Y57172D01*
X449685Y45196D01*
X416167D01*
Y45657D01*
X416167D01*
Y47618D01*
X431068D01*
X431848Y47773D01*
X432510Y48215D01*
X436010Y51715D01*
X436451Y52376D01*
X436607Y53157D01*
Y75257D01*
X436451Y76037D01*
X436010Y76699D01*
X436010Y76699D01*
X436010D01*
D01*
X436010Y76699D01*
Y76699D01*
X426146Y86562D01*
Y95940D01*
X426357Y96214D01*
X426857D01*
X427181Y95792D01*
X427745Y95359D01*
X428402Y95087D01*
X429107Y94994D01*
X429812Y95087D01*
X430469Y95359D01*
X431033Y95792D01*
X431465Y96356D01*
X431738Y97013D01*
X431800Y97487D01*
X431889Y97538D01*
X432607Y97444D01*
X433325Y97538D01*
X433994Y97815D01*
X434568Y98256D01*
X435009Y98831D01*
X435286Y99500D01*
X435381Y100217D01*
X435288Y100922D01*
X435463Y101009D01*
X435752Y101128D01*
X448165Y88715D01*
X448827Y88273D01*
X449607Y88117D01*
X450480D01*
Y86157D01*
X452940D01*
Y85157D01*
X450200D01*
Y77157D01*
X468200D01*
Y79118D01*
X475068D01*
X475848Y79273D01*
X476509Y79715D01*
X483109Y86315D01*
X483110Y86315D01*
X483374Y86711D01*
X483552Y86976D01*
X483707Y87757D01*
D01*
D01*
D01*
D01*
D01*
X483707D01*
D01*
D01*
D01*
D01*
Y87757D01*
X483707D01*
D01*
Y87757D01*
D01*
D01*
D01*
D01*
D01*
D01*
D01*
D01*
D01*
D01*
D01*
D01*
Y87757D01*
D01*
X483707D01*
D01*
D01*
D01*
D01*
X483707Y87757D01*
Y128697D01*
X484070Y129170D01*
X484347Y129839D01*
X484441Y130557D01*
X484347Y131275D01*
X484070Y131944D01*
X483629Y132518D01*
X483054Y132959D01*
X482385Y133236D01*
X481668Y133330D01*
X480950Y133236D01*
X480281Y132959D01*
X479706Y132518D01*
X479265Y131944D01*
X478988Y131275D01*
X478894Y130557D01*
X478988Y129839D01*
X479265Y129170D01*
X479628Y128697D01*
Y88601D01*
X474223Y83196D01*
X468200D01*
Y85157D01*
X457019D01*
Y86157D01*
X468480D01*
Y88117D01*
X472167D01*
X472948Y88273D01*
X473609Y88715D01*
Y88715D01*
X473609D01*
D01*
D01*
D01*
D01*
D01*
D01*
X473609D01*
D01*
X473609D01*
Y88715D01*
D01*
D01*
D01*
D01*
Y88715D01*
D01*
D01*
D01*
D01*
D01*
D01*
Y88715D01*
D01*
D01*
X473609D01*
D01*
D01*
D01*
X475609Y90715D01*
X476052Y91376D01*
X476207Y92157D01*
D01*
D01*
D01*
D01*
D01*
X476207D01*
D01*
D01*
D01*
D01*
Y92157D01*
X476207D01*
D01*
Y92157D01*
D01*
D01*
D01*
D01*
D01*
D01*
D01*
D01*
D01*
D01*
D01*
D01*
Y92157D01*
D01*
X476207D01*
D01*
D01*
D01*
D01*
X476207Y92157D01*
Y145357D01*
D01*
D01*
D01*
D01*
X476207D01*
D01*
D01*
D01*
D01*
D01*
X476207D01*
Y145357D01*
D01*
D01*
Y145357D01*
D01*
D01*
D01*
D01*
D01*
D01*
D01*
D01*
D01*
D01*
D01*
D01*
Y145357D01*
D01*
X476207D01*
D01*
D01*
D01*
D01*
D01*
D01*
D01*
X476207Y145357D01*
D01*
D01*
D01*
D01*
D01*
D01*
D01*
D01*
D01*
X476052Y146137D01*
X475874Y146402D01*
X475609Y146799D01*
X475609Y146799D01*
X469925Y152483D01*
X469847Y153075D01*
X469570Y153744D01*
X469129Y154318D01*
X468554Y154759D01*
X467885Y155036D01*
X467168Y155130D01*
X466450Y155036D01*
X465781Y154759D01*
X465206Y154318D01*
X464765Y153744D01*
X464488Y153075D01*
X464394Y152357D01*
X464488Y151639D01*
X464765Y150970D01*
X465206Y150395D01*
X465781Y149955D01*
X466450Y149678D01*
X467041Y149600D01*
X472128Y144512D01*
Y100984D01*
X471655Y100823D01*
X471429Y101118D01*
X470854Y101559D01*
X470185Y101836D01*
X469467Y101930D01*
X468855Y101850D01*
X468479Y102180D01*
Y103157D01*
X457019D01*
Y104157D01*
X468479D01*
Y112157D01*
X466019D01*
Y136197D01*
X466382Y136670D01*
X466659Y137339D01*
X466753Y138057D01*
X466659Y138775D01*
X466382Y139444D01*
X465941Y140018D01*
X465366Y140459D01*
X464697Y140736D01*
X464106Y140814D01*
X463844Y141076D01*
X463183Y141518D01*
X462402Y141673D01*
X443198D01*
X442227Y142644D01*
X442227Y142644D01*
X442072Y142799D01*
X442350Y143215D01*
X443274Y142832D01*
X444488Y142672D01*
X445702Y142832D01*
X446833Y143300D01*
X447805Y144046D01*
X448550Y145017D01*
X449018Y146148D01*
X449178Y147362D01*
X449018Y148576D01*
X448550Y149707D01*
X447805Y150679D01*
X446833Y151424D01*
X445702Y151892D01*
X444488Y152052D01*
X443274Y151892D01*
X442143Y151424D01*
X441172Y150679D01*
X440426Y149707D01*
X439958Y148576D01*
X439798Y147362D01*
X439958Y146148D01*
X440341Y145224D01*
X439925Y144947D01*
X438707Y146165D01*
Y171797D01*
X439070Y172270D01*
X439347Y172939D01*
X439441Y173657D01*
X439347Y174375D01*
X439070Y175044D01*
X438629Y175618D01*
X438054Y176059D01*
X437385Y176336D01*
X436667Y176430D01*
X435950Y176336D01*
X435281Y176059D01*
X434706Y175618D01*
X434265Y175044D01*
X433988Y174375D01*
X433894Y173657D01*
X433988Y172939D01*
X434265Y172270D01*
X434628Y171797D01*
Y145320D01*
X434628Y145320D01*
X434628D01*
X434784Y144540D01*
X435226Y143878D01*
X439344Y139760D01*
X439344Y139760D01*
X440912Y138192D01*
X440912D01*
Y138192D01*
X441573Y137750D01*
X442198Y137626D01*
X442353Y137595D01*
D01*
X442353D01*
X461267D01*
X461300Y137339D01*
X461577Y136670D01*
X461940Y136197D01*
Y112157D01*
X450480D01*
Y110916D01*
X450093Y110599D01*
X449607Y110696D01*
X439630D01*
X439409Y111144D01*
X439802Y111657D01*
X440079Y112326D01*
X440173Y113044D01*
X440079Y113761D01*
X439802Y114430D01*
X439439Y114903D01*
Y116218D01*
X439284Y116998D01*
X438842Y117659D01*
X431939Y124562D01*
Y149044D01*
D01*
D01*
D01*
D01*
X431939D01*
D01*
D01*
D01*
D01*
D01*
X431939D01*
Y149044D01*
D01*
D01*
Y149044D01*
D01*
D01*
D01*
D01*
D01*
D01*
D01*
D01*
D01*
D01*
D01*
D01*
Y149044D01*
D01*
X431939D01*
D01*
D01*
D01*
D01*
D01*
D01*
D01*
X431939Y149044D01*
D01*
D01*
D01*
D01*
D01*
D01*
D01*
D01*
D01*
X431784Y149824D01*
X431342Y150486D01*
X413939Y167888D01*
Y184833D01*
X413939Y184833D01*
X413784Y185613D01*
X413342Y186274D01*
X409915Y189701D01*
X410042Y190007D01*
X410202Y191220D01*
X410042Y192434D01*
X409574Y193565D01*
X408828Y194537D01*
X407857Y195282D01*
X406726Y195751D01*
X405512Y195911D01*
X404298Y195751D01*
X403167Y195282D01*
X402195Y194537D01*
X401450Y193565D01*
X400982Y192434D01*
X400822Y191220D01*
X400982Y190007D01*
X401450Y188875D01*
X402195Y187904D01*
X403167Y187159D01*
X404298Y186690D01*
X405512Y186530D01*
X406726Y186690D01*
X407031Y186817D01*
X408202Y185646D01*
X407873Y185270D01*
X407857Y185282D01*
X406726Y185751D01*
X405512Y185911D01*
X404298Y185751D01*
X403167Y185282D01*
X402195Y184537D01*
X401450Y183565D01*
X400982Y182434D01*
X400822Y181220D01*
X400982Y180007D01*
X401450Y178875D01*
X402195Y177904D01*
X403167Y177159D01*
X404298Y176690D01*
X405512Y176530D01*
X406726Y176690D01*
X407857Y177159D01*
X408828Y177904D01*
X409387Y178632D01*
X409861Y178472D01*
Y167044D01*
X409861Y167044D01*
X409861D01*
X410016Y166263D01*
X410458Y165602D01*
X427860Y148199D01*
Y123717D01*
X428016Y122937D01*
X428458Y122276D01*
X435360Y115373D01*
Y114903D01*
X435253Y114764D01*
X434753D01*
X434568Y115005D01*
X434400Y115134D01*
X434383Y115159D01*
X434049Y115659D01*
X426939Y122769D01*
Y144044D01*
D01*
D01*
D01*
D01*
X426939D01*
D01*
D01*
D01*
D01*
D01*
X426939D01*
Y144044D01*
D01*
D01*
Y144044D01*
D01*
D01*
D01*
D01*
D01*
D01*
D01*
D01*
D01*
D01*
D01*
D01*
Y144044D01*
D01*
X426939D01*
D01*
D01*
D01*
D01*
D01*
D01*
D01*
X426939Y144044D01*
D01*
D01*
D01*
D01*
D01*
D01*
D01*
D01*
D01*
X426784Y144824D01*
X426607Y145089D01*
X426342Y145485D01*
X426342Y145485D01*
X413023Y158804D01*
X412361Y159246D01*
X411581Y159401D01*
X409700D01*
X409574Y159707D01*
X408828Y160679D01*
X407857Y161424D01*
X406726Y161892D01*
X405512Y162052D01*
X404298Y161892D01*
X403167Y161424D01*
X402195Y160679D01*
X401450Y159707D01*
X400982Y158576D01*
X400822Y157362D01*
X400982Y156148D01*
X401450Y155017D01*
X402195Y154046D01*
X403167Y153300D01*
X404298Y152832D01*
X405512Y152672D01*
X406726Y152832D01*
X407857Y153300D01*
X408828Y154046D01*
X409574Y155017D01*
X409700Y155323D01*
X410736D01*
X422860Y143199D01*
Y127436D01*
X422387Y127276D01*
X422204Y127514D01*
X421150Y128323D01*
X420252Y128695D01*
X420049Y128999D01*
X420049Y128999D01*
X415949Y133099D01*
X415287Y133541D01*
X414507Y133696D01*
X365480D01*
X364699Y133541D01*
X364038Y133099D01*
X360923Y129984D01*
X360507Y130157D01*
Y130157D01*
X360507Y130157D01*
X342507D01*
Y122157D01*
X348123D01*
X348661Y121619D01*
X348470Y121157D01*
X342507D01*
Y119196D01*
X331622D01*
X328646Y122172D01*
Y168558D01*
X329009Y169030D01*
X329286Y169700D01*
X329381Y170417D01*
X329286Y171135D01*
X329009Y171804D01*
X328568Y172379D01*
X327994Y172819D01*
X327325Y173097D01*
X326607Y173191D01*
X325889Y173097D01*
X325220Y172819D01*
X324646Y172379D01*
X324205Y171804D01*
X323928Y171135D01*
X323833Y170417D01*
X323928Y169700D01*
X324205Y169030D01*
X324568Y168558D01*
Y121327D01*
X324568Y121327D01*
X324568D01*
X324723Y120547D01*
X325165Y119885D01*
X329335Y115715D01*
X329335Y115715D01*
X329335D01*
X329335Y115715D01*
X329335D01*
X329335Y115715D01*
Y115715D01*
Y115715D01*
D01*
D01*
X329335D01*
Y115715D01*
X329997Y115273D01*
X330777Y115118D01*
X342507D01*
Y113157D01*
X360507D01*
Y115118D01*
X362823D01*
X367283Y110658D01*
X367091Y110196D01*
X360707D01*
Y112157D01*
X342707D01*
Y110196D01*
X329534D01*
X322319Y117411D01*
Y150597D01*
X322682Y151070D01*
X322959Y151739D01*
X323053Y152457D01*
X322959Y153175D01*
X322682Y153844D01*
X322241Y154418D01*
X321666Y154859D01*
X320998Y155136D01*
X320280Y155230D01*
X319562Y155136D01*
X318893Y154859D01*
X318318Y154418D01*
X317878Y153844D01*
X317600Y153175D01*
X317506Y152457D01*
X317600Y151739D01*
X317878Y151070D01*
X318240Y150597D01*
Y120487D01*
X317741Y120455D01*
X317686Y120875D01*
X317409Y121544D01*
X316968Y122118D01*
X316394Y122559D01*
X315725Y122836D01*
X315007Y122930D01*
X314289Y122836D01*
X313620Y122559D01*
X313046Y122118D01*
X312605Y121544D01*
X312328Y120875D01*
X312233Y120157D01*
X312328Y119439D01*
X312605Y118770D01*
X312968Y118297D01*
Y107657D01*
X313123Y106876D01*
X313565Y106215D01*
X322065Y97715D01*
X322065Y97715D01*
X322727Y97273D01*
Y97273D01*
X322727Y97273D01*
D01*
D01*
D01*
X322727D01*
Y97273D01*
D01*
X322727Y97273D01*
X322727Y97273D01*
X323507Y97118D01*
X323507Y97118D01*
X342607D01*
Y95157D01*
X360607D01*
Y103157D01*
X358146D01*
Y104157D01*
X360707D01*
Y106117D01*
X384855D01*
X385294Y105679D01*
X385016Y105264D01*
X384812Y105348D01*
X384107Y105441D01*
X383402Y105348D01*
X382745Y105076D01*
X382181Y104643D01*
X381749Y104079D01*
X381476Y103422D01*
X381453Y103244D01*
X377107D01*
Y104718D01*
X369107D01*
Y104169D01*
X368691Y103891D01*
X368151Y104115D01*
X367107Y104252D01*
X366063Y104115D01*
X365090Y103712D01*
X364254Y103070D01*
X363613Y102235D01*
X363210Y101262D01*
X363072Y100218D01*
X363210Y99173D01*
X363613Y98200D01*
X364254Y97365D01*
X365090Y96724D01*
X366063Y96320D01*
X367107Y96183D01*
X368151Y96320D01*
X368691Y96544D01*
X369107Y96266D01*
Y95718D01*
Y91968D01*
X377107D01*
Y95718D01*
Y97192D01*
X381453D01*
X381476Y97013D01*
X381749Y96356D01*
X382181Y95792D01*
X382745Y95359D01*
X383402Y95087D01*
X384107Y94994D01*
X384812Y95087D01*
X385469Y95359D01*
X386033Y95792D01*
X386357Y96214D01*
X386857D01*
X387181Y95792D01*
X387745Y95359D01*
X388402Y95087D01*
X389107Y94994D01*
X389812Y95087D01*
X390469Y95359D01*
X391033Y95792D01*
X391357Y96214D01*
X391857D01*
X392181Y95792D01*
X392745Y95359D01*
X393402Y95087D01*
X394107Y94994D01*
X394812Y95087D01*
X395469Y95359D01*
X396033Y95792D01*
X396357Y96214D01*
X396857D01*
X397068Y95940D01*
Y87762D01*
X392435Y83129D01*
X360668D01*
Y85157D01*
X358207D01*
Y86157D01*
X360668D01*
Y94157D01*
X342668D01*
Y92196D01*
X324688D01*
X311546Y105338D01*
Y138797D01*
X311909Y139270D01*
X312186Y139939D01*
X312281Y140657D01*
X312186Y141375D01*
X311909Y142043D01*
X311546Y142517D01*
Y174158D01*
X311909Y174630D01*
X312186Y175300D01*
X312281Y176017D01*
X312186Y176735D01*
X311909Y177404D01*
X311468Y177979D01*
X310894Y178419D01*
X310225Y178697D01*
X309507Y178791D01*
X308789Y178697D01*
X308120Y178419D01*
X307546Y177979D01*
X307105Y177404D01*
X306828Y176735D01*
X306733Y176017D01*
X306828Y175300D01*
X307105Y174630D01*
X307468Y174158D01*
Y142517D01*
X307105Y142043D01*
X306828Y141375D01*
X306733Y140657D01*
X306828Y139939D01*
X307105Y139270D01*
X307468Y138797D01*
Y104493D01*
X307468Y104493D01*
X307468D01*
X307623Y103713D01*
X308065Y103051D01*
X322401Y88715D01*
X323063Y88273D01*
X323843Y88117D01*
X342668D01*
Y86157D01*
X354128D01*
Y85157D01*
X342668D01*
Y84178D01*
X342292Y83848D01*
X341668Y83930D01*
X340950Y83836D01*
X340281Y83559D01*
X339706Y83118D01*
X339265Y82544D01*
X338988Y81875D01*
X338894Y81157D01*
X338988Y80439D01*
X339265Y79770D01*
X339706Y79195D01*
X340281Y78755D01*
X340950Y78478D01*
X341668Y78383D01*
X342292Y78465D01*
X342668Y78136D01*
Y77157D01*
X360668D01*
Y79051D01*
X375203D01*
X375395Y78589D01*
X371002Y74196D01*
X360667D01*
Y76157D01*
X342668D01*
Y74196D01*
X332188D01*
X299546Y106838D01*
Y123083D01*
X299546Y123084D01*
X299391Y123864D01*
X299391D01*
D01*
D01*
X299391Y123864D01*
D01*
D01*
D01*
D01*
X299391Y123864D01*
D01*
D01*
Y123864D01*
D01*
X299391D01*
D01*
D01*
X299391D01*
D01*
D01*
X298949Y124525D01*
X298949Y124525D01*
X277632Y145843D01*
X277759Y146148D01*
X277918Y147362D01*
X277759Y148576D01*
X277632Y148882D01*
X290652Y161902D01*
X291225Y161977D01*
X291894Y162255D01*
X292468Y162695D01*
X292909Y163270D01*
X293186Y163939D01*
X293281Y164657D01*
X293186Y165375D01*
X292909Y166043D01*
X292468Y166618D01*
X291894Y167059D01*
X291225Y167336D01*
X290507Y167430D01*
X289789Y167336D01*
X289120Y167059D01*
X288546Y166618D01*
X288105Y166043D01*
X287828Y165375D01*
X287748Y164765D01*
X277654Y154671D01*
X277278Y155001D01*
X277290Y155017D01*
X277759Y156148D01*
X277918Y157362D01*
X277759Y158576D01*
X277632Y158882D01*
X282721Y163971D01*
X283163Y164633D01*
X283319Y165413D01*
Y183169D01*
X283163Y183950D01*
X282721Y184611D01*
X277632Y189701D01*
X277759Y190007D01*
X277918Y191220D01*
X277759Y192434D01*
X277290Y193565D01*
X276545Y194537D01*
X275573Y195282D01*
X274442Y195751D01*
X273228Y195911D01*
X272014Y195751D01*
X270883Y195282D01*
X269912Y194537D01*
X269167Y193565D01*
X268698Y192434D01*
X268538Y191220D01*
X268698Y190007D01*
X269167Y188875D01*
X269912Y187904D01*
X270883Y187159D01*
X272014Y186690D01*
X273228Y186530D01*
X274442Y186690D01*
X274748Y186817D01*
X275919Y185646D01*
X275589Y185270D01*
X275573Y185282D01*
X274442Y185751D01*
X273228Y185911D01*
X272014Y185751D01*
X270883Y185282D01*
X269912Y184537D01*
X269167Y183565D01*
X268698Y182434D01*
X268538Y181220D01*
X268698Y180007D01*
X269167Y178875D01*
X269912Y177904D01*
X270883Y177159D01*
X272014Y176690D01*
X273228Y176530D01*
X274442Y176690D01*
X275573Y177159D01*
X276545Y177904D01*
X277290Y178875D01*
X277759Y180007D01*
X277918Y181220D01*
X277759Y182434D01*
X277290Y183565D01*
X277278Y183581D01*
X277654Y183911D01*
X279240Y182325D01*
Y166258D01*
X274748Y161766D01*
X274442Y161892D01*
X273228Y162052D01*
X272014Y161892D01*
X270883Y161424D01*
X269912Y160679D01*
X269167Y159707D01*
X268698Y158576D01*
X268538Y157362D01*
X268698Y156148D01*
X269167Y155017D01*
X269912Y154046D01*
X270883Y153300D01*
X272014Y152832D01*
X273228Y152672D01*
X274442Y152832D01*
X275573Y153300D01*
X275590Y153313D01*
X275919Y152937D01*
X274748Y151766D01*
X274442Y151892D01*
X273228Y152052D01*
X272014Y151892D01*
X270883Y151424D01*
X269912Y150679D01*
X269167Y149707D01*
X268698Y148576D01*
X268538Y147362D01*
X268698Y146148D01*
X269167Y145017D01*
X269912Y144046D01*
X270883Y143300D01*
X272014Y142832D01*
X273228Y142672D01*
X274442Y142832D01*
X274748Y142959D01*
X295468Y122239D01*
Y105993D01*
X295468Y105993D01*
X295468D01*
X295623Y105213D01*
X296065Y104551D01*
X329901Y70715D01*
X329901Y70715D01*
X330298Y70450D01*
X330563Y70273D01*
X331343Y70117D01*
X342668D01*
Y68157D01*
X349230D01*
X349421Y67695D01*
X348883Y67157D01*
X342668D01*
Y59157D01*
X360668D01*
Y60301D01*
X361083Y60579D01*
X361328Y60477D01*
X362046Y60383D01*
X362764Y60477D01*
X363433Y60755D01*
X364007Y61195D01*
X364448Y61770D01*
X364725Y62439D01*
X364820Y63157D01*
X364725Y63875D01*
X364448Y64543D01*
X364007Y65118D01*
X363433Y65559D01*
X362764Y65836D01*
X362046Y65930D01*
X361328Y65836D01*
X361083Y65734D01*
X360668Y66012D01*
Y67157D01*
X355304D01*
X355112Y67619D01*
X355651Y68157D01*
X360667D01*
Y70117D01*
X371846D01*
X372627Y70273D01*
X373288Y70715D01*
X376556Y73983D01*
X377047Y73885D01*
X377178Y73570D01*
X377452Y73213D01*
X362735Y58496D01*
X338084D01*
X295776Y100804D01*
X295114Y101246D01*
X294334Y101401D01*
X274777D01*
X274753Y101901D01*
X275331Y101958D01*
X276634Y102353D01*
X277835Y102995D01*
X278888Y103859D01*
X279751Y104912D01*
X280393Y106113D01*
X280789Y107416D01*
X280922Y108771D01*
X280789Y110126D01*
X280393Y111430D01*
X279751Y112630D01*
X278888Y113683D01*
X277835Y114547D01*
X276634Y115189D01*
X275331Y115584D01*
X273975Y115718D01*
X272620Y115584D01*
X271317Y115189D01*
X270116Y114547D01*
X269063Y113683D01*
X268199Y112630D01*
X267557Y111430D01*
X267162Y110126D01*
X267028Y108771D01*
X267162Y107416D01*
X267557Y106113D01*
X268199Y104912D01*
X269063Y103859D01*
X270116Y102995D01*
X271317Y102353D01*
X272620Y101958D01*
X273198Y101901D01*
X273173Y101401D01*
X265744D01*
X265584Y101875D01*
X265741Y101996D01*
X266182Y102570D01*
X266446Y103207D01*
X263779D01*
Y103956D01*
X263030D01*
Y106623D01*
X263062Y106636D01*
X263155Y106649D01*
X262780Y106978D01*
Y107957D01*
X259030D01*
Y103956D01*
X257530D01*
Y107957D01*
X244780D01*
Y105996D01*
X241780D01*
Y107957D01*
X238866D01*
X238721Y108173D01*
X236191Y110704D01*
X235529Y111146D01*
X234749Y111301D01*
X197724D01*
X194562Y114463D01*
X194718Y114921D01*
X195387Y115198D01*
X195961Y115639D01*
X196250Y116015D01*
X196750D01*
X197039Y115639D01*
X197613Y115198D01*
X198282Y114921D01*
X199000Y114826D01*
X199718Y114921D01*
X200387Y115198D01*
X200961Y115639D01*
X201402Y116213D01*
X201679Y116882D01*
X201774Y117600D01*
X201679Y118318D01*
X201402Y118987D01*
X201092Y119391D01*
X201359Y119738D01*
X201630Y120395D01*
X201723Y121100D01*
Y126100D01*
X201630Y126805D01*
X201359Y127462D01*
X200926Y128026D01*
X200362Y128458D01*
X199705Y128731D01*
X199000Y128823D01*
X198295Y128731D01*
X197638Y128458D01*
X197074Y128026D01*
X196750Y127603D01*
X196250D01*
X195926Y128026D01*
X195362Y128458D01*
X194705Y128731D01*
X194000Y128823D01*
X193295Y128731D01*
X192638Y128458D01*
X192074Y128026D01*
X191750Y127603D01*
X191250D01*
X190926Y128026D01*
X190362Y128458D01*
X189705Y128731D01*
X189000Y128823D01*
X188295Y128731D01*
X187638Y128458D01*
X187074Y128026D01*
X186750Y127603D01*
X186250D01*
X185926Y128026D01*
X185362Y128458D01*
X184705Y128731D01*
X184000Y128823D01*
X183295Y128731D01*
X182638Y128458D01*
X182074Y128026D01*
X181750Y127603D01*
X181250D01*
X180926Y128026D01*
X180362Y128458D01*
X179705Y128731D01*
X179000Y128823D01*
X178295Y128731D01*
X177638Y128458D01*
X177074Y128026D01*
X176750Y127603D01*
X176250D01*
X175926Y128026D01*
X175362Y128458D01*
X174705Y128731D01*
X174000Y128823D01*
X173295Y128731D01*
X172638Y128458D01*
X172074Y128026D01*
X171750Y127603D01*
X171250D01*
X170926Y128026D01*
X170362Y128458D01*
X169705Y128731D01*
X169000Y128823D01*
X168295Y128731D01*
X167638Y128458D01*
X167074Y128026D01*
X166750Y127603D01*
X166250D01*
X165926Y128026D01*
X165362Y128458D01*
X164705Y128731D01*
X164000Y128823D01*
X163295Y128731D01*
X162638Y128458D01*
X162222Y128139D01*
X161774Y128360D01*
Y134100D01*
X163000D01*
Y143100D01*
Y146850D01*
X155000D01*
Y143100D01*
Y136537D01*
X154538Y136346D01*
X143050Y147834D01*
Y196886D01*
X142894Y197667D01*
X142717Y197932D01*
X142452Y198328D01*
X142452Y198328D01*
X133882Y206899D01*
X133220Y207341D01*
X132440Y207496D01*
X90149D01*
Y209457D01*
D02*
G37*
G36*
X660280Y137957D02*
X647530D01*
Y133956D01*
Y129957D01*
X653741D01*
Y129457D01*
X642280D01*
Y128544D01*
X641904Y128214D01*
X641780Y128231D01*
X641062Y128136D01*
X640393Y127859D01*
X639818Y127418D01*
X639377Y126844D01*
X639100Y126175D01*
X639006Y125457D01*
X639100Y124739D01*
X639377Y124070D01*
X639818Y123496D01*
X640393Y123055D01*
X641062Y122778D01*
X641780Y122683D01*
X641904Y122699D01*
X642280Y122370D01*
Y121457D01*
X660280D01*
Y129457D01*
X657819D01*
Y129957D01*
X660280D01*
Y137957D01*
D02*
G37*
G36*
X38825Y142638D02*
X24295D01*
Y123384D01*
X38825D01*
Y142638D01*
D02*
G37*
G36*
X54854D02*
X40325D01*
Y123384D01*
X54854D01*
Y142638D01*
D02*
G37*
G36*
X97050Y118831D02*
X96483Y118756D01*
X95257Y118248D01*
X94203Y117439D01*
X93395Y116386D01*
X92887Y115159D01*
X92812Y114593D01*
X97050D01*
Y118831D01*
D02*
G37*
G36*
X25478Y111906D02*
X22622D01*
Y105250D01*
X25478D01*
Y111906D01*
D02*
G37*
G36*
X712003Y109463D02*
X710087D01*
X710351Y108826D01*
X710791Y108251D01*
X711366Y107810D01*
X712003Y107547D01*
Y109463D01*
D02*
G37*
G36*
X513345Y115718D02*
X511990Y115584D01*
X510687Y115189D01*
X509486Y114547D01*
X508433Y113683D01*
X507569Y112630D01*
X506927Y111430D01*
X506532Y110126D01*
X506399Y108771D01*
X506532Y107416D01*
X506927Y106113D01*
X507569Y104912D01*
X508433Y103859D01*
X509486Y102995D01*
X510687Y102353D01*
X511990Y101958D01*
X513345Y101824D01*
X514701Y101958D01*
X516004Y102353D01*
X517205Y102995D01*
X518258Y103859D01*
X519122Y104912D01*
X519763Y106113D01*
X520159Y107416D01*
X520292Y108771D01*
X520159Y110126D01*
X519763Y111430D01*
X519122Y112630D01*
X518258Y113683D01*
X517205Y114547D01*
X516004Y115189D01*
X514701Y115584D01*
X513345Y115718D01*
D02*
G37*
G36*
X264530Y106623D02*
Y104707D01*
X266446D01*
X266182Y105344D01*
X265741Y105918D01*
X265166Y106359D01*
X264530Y106623D01*
D02*
G37*
G36*
X78035Y117650D02*
X73250D01*
Y112471D01*
X78035D01*
Y117650D01*
D02*
G37*
G36*
X672250Y115707D02*
X670334D01*
X670598Y115070D01*
X671038Y114496D01*
X671613Y114055D01*
X672250Y113791D01*
Y115707D01*
D02*
G37*
G36*
X715419Y109463D02*
X713503D01*
Y107547D01*
X714140Y107810D01*
X714714Y108251D01*
X715155Y108826D01*
X715419Y109463D01*
D02*
G37*
G36*
X71750Y117650D02*
X66965D01*
Y112471D01*
X71750D01*
Y117650D01*
D02*
G37*
G36*
X614920Y161275D02*
X595235D01*
X594458Y161120D01*
X593799Y160680D01*
X593359Y160021D01*
X593204Y159244D01*
Y131685D01*
X593204Y131685D01*
X593204D01*
X593359Y130907D01*
X593799Y130248D01*
X594458Y129808D01*
X595235Y129653D01*
X614920D01*
X615697Y129808D01*
X616356Y130248D01*
X616797Y130907D01*
X616951Y131685D01*
Y159244D01*
X616797Y160021D01*
X616356Y160680D01*
X615697Y161120D01*
X614920Y161275D01*
D02*
G37*
G36*
X127500Y147100D02*
X124250D01*
Y143350D01*
X127500D01*
Y147100D01*
D02*
G37*
G36*
X122750D02*
X119500D01*
Y143350D01*
X122750D01*
Y147100D01*
D02*
G37*
G36*
X509449Y152052D02*
X508235Y151892D01*
X507104Y151424D01*
X506132Y150679D01*
X505387Y149707D01*
X504918Y148576D01*
X504759Y147362D01*
X504918Y146148D01*
X505387Y145017D01*
X506132Y144046D01*
X507104Y143300D01*
X508235Y142832D01*
X509449Y142672D01*
X510663Y142832D01*
X511794Y143300D01*
X512765Y144046D01*
X513511Y145017D01*
X513979Y146148D01*
X514139Y147362D01*
X513979Y148576D01*
X513511Y149707D01*
X512765Y150679D01*
X511794Y151424D01*
X510663Y151892D01*
X509449Y152052D01*
D02*
G37*
G36*
X38825Y163392D02*
X24295D01*
Y144138D01*
X38825D01*
Y163392D01*
D02*
G37*
G36*
X656270Y149468D02*
X652032D01*
Y145229D01*
X652599Y145304D01*
X653826Y145812D01*
X654879Y146621D01*
X655688Y147674D01*
X656196Y148901D01*
X656270Y149468D01*
D02*
G37*
G36*
X720032Y150206D02*
Y145968D01*
X724270D01*
X724196Y146534D01*
X723688Y147761D01*
X722879Y148814D01*
X721826Y149623D01*
X720599Y150131D01*
X720032Y150206D01*
D02*
G37*
G36*
X54854Y163392D02*
X40325D01*
Y144138D01*
X54854D01*
Y163392D01*
D02*
G37*
G36*
X405512Y152052D02*
X404298Y151892D01*
X403167Y151424D01*
X402195Y150679D01*
X401450Y149707D01*
X400982Y148576D01*
X400822Y147362D01*
X400982Y146148D01*
X401450Y145017D01*
X402195Y144046D01*
X403167Y143300D01*
X404298Y142832D01*
X405512Y142672D01*
X406726Y142832D01*
X407857Y143300D01*
X408828Y144046D01*
X409574Y145017D01*
X410042Y146148D01*
X410202Y147362D01*
X410042Y148576D01*
X409574Y149707D01*
X408828Y150679D01*
X407857Y151424D01*
X406726Y151892D01*
X405512Y152052D01*
D02*
G37*
G36*
X80750Y140408D02*
X76512D01*
X76587Y139841D01*
X77095Y138614D01*
X77903Y137561D01*
X78957Y136752D01*
X80183Y136244D01*
X80750Y136169D01*
Y140408D01*
D02*
G37*
G36*
X646030Y137957D02*
X642280D01*
Y134707D01*
X646030D01*
Y137957D01*
D02*
G37*
G36*
Y133207D02*
X642280D01*
Y129957D01*
X646030D01*
Y133207D01*
D02*
G37*
G36*
X340158Y152052D02*
X338944Y151892D01*
X337812Y151424D01*
X336841Y150679D01*
X336096Y149707D01*
X335627Y148576D01*
X335467Y147362D01*
X335627Y146148D01*
X336096Y145017D01*
X336841Y144046D01*
X337812Y143300D01*
X338944Y142832D01*
X340158Y142672D01*
X341371Y142832D01*
X342502Y143300D01*
X343474Y144046D01*
X344219Y145017D01*
X344688Y146148D01*
X344848Y147362D01*
X344688Y148576D01*
X344219Y149707D01*
X343474Y150679D01*
X342502Y151424D01*
X341371Y151892D01*
X340158Y152052D01*
D02*
G37*
G36*
X724270Y144468D02*
X720032D01*
Y140229D01*
X720599Y140304D01*
X721826Y140812D01*
X722879Y141621D01*
X723688Y142674D01*
X724196Y143901D01*
X724270Y144468D01*
D02*
G37*
%LPD*%
G36*
X417068Y95940D02*
Y83217D01*
X417223Y82437D01*
X417665Y81775D01*
X424889Y74551D01*
X424791Y74061D01*
X424513Y73946D01*
X423938Y73505D01*
X423497Y72931D01*
X423220Y72262D01*
X423126Y71544D01*
X423220Y70826D01*
X423497Y70157D01*
X423938Y69582D01*
X423955Y69570D01*
X424016Y69263D01*
X424458Y68602D01*
X424837Y68222D01*
X424616Y67774D01*
X424812Y67748D01*
X424857Y67730D01*
Y62616D01*
Y57506D01*
X425469Y57759D01*
X426033Y58192D01*
X426357Y58614D01*
X426857D01*
X427181Y58192D01*
X427745Y57759D01*
X428402Y57487D01*
X429107Y57394D01*
X429812Y57487D01*
X430469Y57759D01*
X431033Y58192D01*
X431465Y58756D01*
X431738Y59413D01*
X431830Y60118D01*
Y65118D01*
X431738Y65822D01*
X431465Y66479D01*
X431130Y66916D01*
X430991Y67617D01*
X430549Y68278D01*
X429884Y68943D01*
X430106Y69391D01*
X430168Y69383D01*
X430886Y69477D01*
X431555Y69754D01*
X432080Y70158D01*
X432528Y69937D01*
Y54001D01*
X430223Y51696D01*
X416167D01*
Y53657D01*
X401887D01*
X401609Y54072D01*
X401786Y54500D01*
X401881Y55217D01*
X401786Y55935D01*
X401509Y56604D01*
X401146Y57077D01*
Y58340D01*
X401357Y58614D01*
X401857D01*
X402181Y58192D01*
X402745Y57759D01*
X403402Y57487D01*
X404107Y57394D01*
X404812Y57487D01*
X405469Y57759D01*
X406033Y58192D01*
X406357Y58614D01*
X406857D01*
X407181Y58192D01*
X407745Y57759D01*
X408357Y57506D01*
Y62618D01*
X409857D01*
Y57506D01*
X410469Y57759D01*
X411033Y58192D01*
X411357Y58614D01*
X411857D01*
X412181Y58192D01*
X412745Y57759D01*
X413402Y57487D01*
X414107Y57394D01*
X414812Y57487D01*
X415469Y57759D01*
X416033Y58192D01*
X416357Y58614D01*
X416857D01*
X417181Y58192D01*
X417745Y57759D01*
X418402Y57487D01*
X419107Y57394D01*
X419812Y57487D01*
X420469Y57759D01*
X421033Y58192D01*
X421357Y58614D01*
X421857D01*
X422181Y58192D01*
X422745Y57759D01*
X423357Y57506D01*
Y62616D01*
Y67729D01*
X422745Y67476D01*
X422181Y67043D01*
X421857Y66620D01*
X421357D01*
X421033Y67043D01*
X420469Y67476D01*
X419812Y67748D01*
X419107Y67841D01*
X418402Y67748D01*
X417745Y67476D01*
X417181Y67043D01*
X416857Y66620D01*
X416357D01*
X416207Y66816D01*
Y69657D01*
X416207D01*
Y69657D01*
Y69657D01*
Y69657D01*
X416207D01*
X416207Y69657D01*
X416051Y70437D01*
X415610Y71099D01*
X410309Y76399D01*
X409648Y76841D01*
X408867Y76996D01*
X401223D01*
X401031Y77458D01*
X405549Y81976D01*
X405991Y82637D01*
X406146Y83417D01*
X406146D01*
Y83417D01*
X406146D01*
Y83417D01*
Y83417D01*
X406146D01*
X406146Y83417D01*
Y95940D01*
X406357Y96214D01*
X406857D01*
X407181Y95792D01*
X407745Y95359D01*
X408402Y95087D01*
X409107Y94994D01*
X409812Y95087D01*
X410469Y95359D01*
X411033Y95792D01*
X411357Y96214D01*
X411857D01*
X412181Y95792D01*
X412745Y95359D01*
X413402Y95087D01*
X414107Y94994D01*
X414812Y95087D01*
X415469Y95359D01*
X416033Y95792D01*
X416357Y96214D01*
X416857D01*
X417068Y95940D01*
D02*
G37*
G36*
X409667Y71274D02*
X409445Y70826D01*
X409825Y70776D01*
X409857Y70762D01*
Y68095D01*
X408357D01*
Y70762D01*
X407720Y70498D01*
X407146Y70057D01*
X406857Y69681D01*
X406357D01*
X406068Y70057D01*
X405494Y70498D01*
X404825Y70775D01*
X404107Y70870D01*
X403389Y70775D01*
X402720Y70498D01*
X402146Y70057D01*
X401705Y69483D01*
X401428Y68814D01*
X401333Y68096D01*
X401428Y67378D01*
X401438Y67354D01*
X401033Y67043D01*
X400469Y67476D01*
X399812Y67748D01*
X399107Y67841D01*
X398402Y67748D01*
X397745Y67476D01*
X397181Y67043D01*
X396857Y66620D01*
X396357D01*
X396146Y66895D01*
Y69629D01*
X396146Y69629D01*
X395991Y70410D01*
X395549Y71071D01*
X395549Y71071D01*
X394164Y72456D01*
X394356Y72918D01*
X408023D01*
X409667Y71274D01*
D02*
G37*
G36*
X334855Y55958D02*
X334663Y55496D01*
X333342D01*
X298033Y90804D01*
X297372Y91246D01*
X296591Y91401D01*
X266294D01*
X265964Y91777D01*
X265959Y91739D01*
X265946Y91707D01*
X263279D01*
Y92456D01*
X262530D01*
Y95123D01*
X262562Y95136D01*
X263155Y95214D01*
X262780Y95544D01*
Y97323D01*
X293489D01*
X334855Y55958D01*
D02*
G37*
G36*
X31378Y90000D02*
Y68000D01*
X30378Y67000D01*
X16378D01*
X12878Y70500D01*
Y92000D01*
X29378D01*
X31378Y90000D01*
D02*
G37*
G36*
X330112Y52958D02*
X329921Y52496D01*
X328599D01*
X300291Y80804D01*
X299629Y81246D01*
X298849Y81401D01*
X265245D01*
X265084Y81875D01*
X265241Y81995D01*
X265682Y82570D01*
X265946Y83207D01*
X263279D01*
Y83956D01*
X262530D01*
Y86623D01*
X262562Y86636D01*
X263155Y86714D01*
X262780Y87044D01*
Y87323D01*
X295747D01*
X330112Y52958D01*
D02*
G37*
%LPC*%
G36*
X264030Y86623D02*
Y84707D01*
X265946D01*
X265682Y85344D01*
X265241Y85918D01*
X264667Y86359D01*
X264030Y86623D01*
D02*
G37*
G36*
Y95123D02*
Y93207D01*
X265946D01*
X265682Y93844D01*
X265241Y94418D01*
X264667Y94859D01*
X264030Y95123D01*
D02*
G37*
%LPD*%
D14*
X121700Y133600D02*
X141000D01*
X114000Y116500D02*
Y125900D01*
X121700Y133600D01*
X122500Y116500D02*
Y122600D01*
X130000Y130100D01*
X138000D01*
X474167Y92157D02*
Y145357D01*
X467168Y152357D02*
X474167Y145357D01*
X394107Y100217D02*
Y107750D01*
X330777Y117157D02*
X347007D01*
X328690Y108157D02*
X347207D01*
X424900Y121925D02*
Y144044D01*
Y121925D02*
X432607Y114217D01*
Y113044D02*
Y114217D01*
X429900Y123717D02*
Y149044D01*
X429107Y100217D02*
X432607D01*
X365480Y131657D02*
X414507D01*
X359980Y126157D02*
X365480Y131657D01*
X356007Y126157D02*
X359980D01*
X103780Y194457D02*
X113149D01*
X365880Y53457D02*
X381380Y68957D01*
X298849Y79362D02*
X327754Y50457D01*
X463979Y108157D02*
Y138057D01*
X463700Y56327D02*
Y63157D01*
X415838Y43157D02*
X450530D01*
X463700Y56327D01*
X315007Y107657D02*
X323507Y99157D01*
X347107D01*
X320280Y116567D02*
Y152457D01*
Y116567D02*
X328690Y108157D01*
X326607Y121327D02*
Y170417D01*
Y121327D02*
X330777Y117157D01*
X356007D02*
Y117157D01*
X347007Y126157D02*
X356007Y117157D01*
X411667Y49657D02*
X431068D01*
X395168D02*
X402668D01*
X80099Y175914D02*
Y184827D01*
X96799Y198106D02*
X100650Y201957D01*
X96799Y193913D02*
Y198106D01*
X139000Y80807D02*
Y86000D01*
X765479Y76650D02*
X765479Y76650D01*
X641780Y125457D02*
X646780D01*
X655780D02*
Y133957D01*
X638280Y91967D02*
X638790Y91457D01*
X646510Y108727D02*
X646780Y108457D01*
X638280Y116207D02*
X641780D01*
X642529Y116957D01*
X646780D01*
Y82957D02*
Y91457D01*
X655780Y74457D02*
Y82957D01*
X619780Y95707D02*
X619780Y95707D01*
X628953Y112707D02*
X629193Y112467D01*
X436667Y145320D02*
X440785Y141202D01*
X436667Y145320D02*
Y173657D01*
X411900Y167044D02*
X429900Y149044D01*
X425900Y70044D02*
Y71544D01*
Y70044D02*
X429107Y66836D01*
Y62617D02*
Y66836D01*
X411581Y157362D02*
X424900Y144044D01*
X411900Y167044D02*
Y184833D01*
X405512Y191220D02*
X411900Y184833D01*
X405512Y157362D02*
X411581D01*
X434567Y53157D02*
Y75257D01*
X424107Y85717D02*
X434567Y75257D01*
X424107Y85717D02*
Y100217D01*
X404107Y83417D02*
Y100217D01*
X431068Y49657D02*
X434567Y53157D01*
X179000Y115000D02*
Y123600D01*
X184000Y115000D02*
Y123600D01*
X189000Y117142D02*
Y123600D01*
X234849Y89162D02*
X237280Y86731D01*
X100539Y184827D02*
X100626Y184913D01*
X113799D01*
X100539Y181654D02*
Y184827D01*
X96799Y177913D02*
X100539Y181654D01*
X96799Y175914D02*
Y177913D01*
X76299Y193913D02*
Y203913D01*
X144000Y80677D02*
Y86000D01*
X154000Y80677D02*
Y86000D01*
X159000Y80677D02*
Y86000D01*
X444488Y191220D02*
X450779Y184929D01*
Y163654D02*
Y184929D01*
X444488Y157362D02*
X450779Y163654D01*
X340157Y157362D02*
X348208Y165413D01*
Y183169D01*
X340157Y191220D02*
X348208Y183169D01*
X273228Y191220D02*
X281279Y183169D01*
Y165413D02*
Y183169D01*
X273228Y157362D02*
X281279Y165413D01*
X399107Y86918D02*
Y100217D01*
X393280Y81090D02*
X399107Y86918D01*
X356168Y81090D02*
X393280D01*
X389107Y100217D02*
Y104750D01*
X356107Y99157D02*
Y108057D01*
X356207Y108157D01*
X353507Y119157D02*
X354007D01*
X356007Y117157D01*
X315007Y107657D02*
Y120157D01*
X414507Y131657D02*
X418607Y127557D01*
Y123917D02*
Y127557D01*
X356168Y81157D02*
Y90157D01*
X356447Y72157D02*
X356607Y71997D01*
X347168Y63157D02*
X347767D01*
X356607Y71997D01*
X356447Y72157D02*
X371846D01*
X341668Y81157D02*
X347168D01*
X414107Y100217D02*
Y104096D01*
X419107Y83217D02*
Y100217D01*
Y83217D02*
X430168Y72157D01*
X454980Y99157D02*
Y108157D01*
X448668Y72157D02*
X454700D01*
X414167Y62678D02*
Y69657D01*
X414107Y62617D02*
X414167Y62678D01*
X404107Y62617D02*
Y68096D01*
X463980Y90157D02*
X472167D01*
X474167Y92157D01*
X475068Y81157D02*
X481668Y87757D01*
Y130557D01*
X463700Y81157D02*
X475068D01*
X463979Y99157D02*
X469467D01*
X454980Y81436D02*
Y90157D01*
X454700Y81157D02*
X454980Y81436D01*
X454700Y63157D02*
Y72157D01*
X388607Y35925D02*
Y39296D01*
Y43096D02*
X395168Y49657D01*
X388607Y35925D02*
Y43096D01*
X408607Y35925D02*
X415838Y43157D01*
X463700Y72157D02*
X474568D01*
X488968Y86557D01*
Y179157D01*
X234749Y109262D02*
X237280Y106731D01*
Y103957D02*
Y106731D01*
Y103957D02*
X249280D01*
X237280Y93957D02*
X249280D01*
X237280D02*
Y96731D01*
Y83957D02*
X249280D01*
X237280D02*
Y86731D01*
X235149Y98862D02*
X237280Y96731D01*
X389107Y62617D02*
Y67729D01*
X394107Y62617D02*
Y69629D01*
X399107Y55217D02*
Y62617D01*
X356168Y63157D02*
X362046D01*
X699287Y76650D02*
X704850D01*
X599465Y50000D02*
Y60654D01*
X598705Y59913D02*
X607705Y68914D01*
X585551D02*
X598705D01*
X174000Y113638D02*
Y123600D01*
X243607Y61718D02*
X258107Y47218D01*
X249107Y73718D02*
X270107Y52718D01*
X589205Y49718D02*
Y59913D01*
X187053Y100585D02*
X189638Y98000D01*
X174000Y113638D02*
X187053Y100585D01*
X184000Y115000D02*
X193638Y105362D01*
X179000Y115000D02*
X192500Y101500D01*
X169000Y112500D02*
X187000Y94500D01*
X509449Y157362D02*
X515650Y163563D01*
Y185020D01*
X509449Y191220D02*
X515650Y185020D01*
X462402Y139634D02*
X463979Y138057D01*
X440785Y141202D02*
X442353Y139634D01*
X442353Y139634D02*
X462402D01*
X449607Y90157D02*
X454980D01*
X363668Y117157D02*
X369107Y111717D01*
X356007Y117157D02*
X363668D01*
X356207Y108157D02*
X385700D01*
X389107Y104750D01*
X390139Y111717D02*
X394107Y107750D01*
X369107Y111717D02*
X390139D01*
X454480Y108657D02*
X454980Y108157D01*
X409107Y100217D02*
Y106096D01*
X411667Y108657D01*
X416167Y106157D02*
X433607D01*
X414107Y104096D02*
X416167Y106157D01*
X433607D02*
X449607Y90157D01*
X450107Y108157D02*
X454980D01*
X449607Y108657D02*
X450107Y108157D01*
X411667Y108657D02*
X449607D01*
X273107Y38218D02*
Y53718D01*
Y38218D02*
X281107Y30218D01*
X261107Y32460D02*
Y48460D01*
Y32460D02*
X275350Y18218D01*
X264107Y33703D02*
Y49703D01*
Y33703D02*
X276592Y21218D01*
X267107Y34945D02*
Y50946D01*
Y34945D02*
X277835Y24218D01*
X270107Y36218D02*
Y52718D01*
Y36218D02*
X279107Y27218D01*
X268280Y9457D02*
Y14957D01*
X685780Y90157D02*
X699287Y76650D01*
X638790Y91457D02*
X646780D01*
X638280Y108727D02*
X646510D01*
X685780Y106957D02*
X694169Y98568D01*
X699350Y92398D02*
X704850D01*
X700669Y80587D02*
X704850D01*
X694169Y87087D02*
X700669Y80587D01*
X694169Y87087D02*
Y98568D01*
X620280Y95207D02*
X629193D01*
X619780Y95707D02*
X620280Y95207D01*
X638280Y98947D02*
X645770D01*
X646780Y99957D01*
X626780Y51757D02*
Y54257D01*
X636779Y50757D02*
Y54257D01*
Y50757D02*
X638280Y49257D01*
X699137Y60902D02*
X704850D01*
X697169Y58933D02*
X699137Y60902D01*
X629193Y90971D02*
Y95207D01*
X626780Y54257D02*
X631740Y59217D01*
X770753Y167457D02*
X770753Y167457D01*
X772257Y88461D02*
X775253Y91457D01*
X765479Y88461D02*
X772257D01*
X739753Y158457D02*
X739753Y158457D01*
X760339Y92398D02*
X765479D01*
X775253Y91457D02*
Y127439D01*
X770753Y131939D02*
Y172957D01*
Y131939D02*
X775253Y127439D01*
X85650Y205457D02*
X132440D01*
X757479Y76650D02*
X765479D01*
X739753Y72713D02*
X765479D01*
X754940Y97796D02*
Y140957D01*
Y97796D02*
X760339Y92398D01*
X739753Y158457D02*
Y172957D01*
X214465Y27500D02*
X214465Y27500D01*
X631740Y73717D02*
X632280Y74257D01*
X631740Y59217D02*
Y73717D01*
X692392Y60892D02*
X696339Y64839D01*
X704850D01*
X626780Y51757D02*
X632780Y45757D01*
X309507Y104493D02*
X323843Y90157D01*
X309507Y104493D02*
Y176017D01*
X323843Y90157D02*
X347168D01*
X297507Y105993D02*
X331343Y72157D01*
X347167D01*
X294334Y99362D02*
X337240Y56457D01*
X363580D01*
X296591Y89362D02*
X332497Y53457D01*
X365880D01*
X379957Y50457D02*
X384107Y54607D01*
Y62617D01*
X327754Y50457D02*
X379957D01*
X387880Y68957D02*
X389107Y67729D01*
X381380Y68957D02*
X387880D01*
X363580Y56457D02*
X379080Y71957D01*
X398607Y77917D02*
X404107Y83417D01*
X371846Y72157D02*
X377607Y77917D01*
X398607D01*
X408867Y74957D02*
X414167Y69657D01*
X391780Y71957D02*
X394107Y69629D01*
X379080Y71957D02*
X391780D01*
X379580Y74957D02*
X408867D01*
X437400Y113044D02*
Y116218D01*
X429900Y123717D02*
X437400Y116218D01*
X273228Y147362D02*
X297507Y123084D01*
Y105993D02*
Y123084D01*
X273228Y147362D02*
X290515Y164649D01*
X614722Y82000D02*
X622093Y89371D01*
X583000Y82000D02*
X614722D01*
X616333Y78111D02*
X629193Y90971D01*
X584611Y78111D02*
X616333D01*
X619370Y29000D02*
Y40000D01*
X589843Y23472D02*
Y29000D01*
X275350Y18218D02*
X584588D01*
X589843Y23472D01*
X605088Y15218D02*
X609528Y19658D01*
Y29000D01*
X652500Y29000D02*
Y40000D01*
Y29000D02*
X652500Y29000D01*
X636279Y40000D02*
X643500D01*
X589205Y35718D02*
Y40718D01*
X276592Y21218D02*
X559705D01*
X572705Y34218D01*
X277835Y24218D02*
X558462D01*
X569705Y35460D01*
X572705Y34218D02*
Y66205D01*
X584611Y78111D01*
X553440Y27218D02*
X566205Y39983D01*
X279107Y27218D02*
X553440D01*
X551705Y30218D02*
X557205Y35718D01*
X557455Y35468D02*
X557705Y35718D01*
X281107Y30218D02*
X551705D01*
X569705Y35460D02*
Y68705D01*
X583000Y82000D01*
X648705Y49218D02*
X652705D01*
X638280Y49257D02*
X648705D01*
X658280Y52757D02*
X688431D01*
X692392Y56718D02*
Y60892D01*
X652744Y49257D02*
X656244Y52757D01*
X688431D02*
X692392Y56718D01*
X174000Y78214D02*
Y86000D01*
X169000Y78500D02*
Y86000D01*
X141280Y72957D02*
X149000Y80677D01*
X141280Y66957D02*
Y72957D01*
X149000Y80677D02*
Y87100D01*
X146280Y66957D02*
Y72957D01*
X154000Y80677D01*
X151280Y66957D02*
Y72957D01*
X159000Y80677D01*
X136280Y72957D02*
X144000Y80677D01*
X136280Y66957D02*
Y72957D01*
X244850Y64718D02*
X261107Y48460D01*
X215390Y29000D02*
Y32067D01*
X218280Y34957D01*
X258107Y31218D02*
X274107Y15218D01*
X605088D01*
X258107Y31218D02*
Y47218D01*
X258280Y9457D02*
Y15957D01*
X205547Y29000D02*
Y33224D01*
X209780Y37457D01*
X219838Y89162D02*
X234849D01*
X192500Y101500D02*
X207500D01*
X219838Y89162D01*
X216780Y98862D02*
X235149D01*
X210280Y105362D02*
X216780Y98862D01*
X193638Y105362D02*
X210280D01*
X196880Y109262D02*
X234749D01*
X189000Y117142D02*
X196880Y109262D01*
X194000Y117600D02*
Y123600D01*
X199000Y117600D02*
Y123600D01*
X149000D02*
Y133600D01*
X132440Y205457D02*
X141010Y196886D01*
X169000Y112500D02*
Y123600D01*
X161600Y110100D02*
X164000Y112500D01*
X143500Y110100D02*
X161600D01*
X139000Y123600D02*
Y129100D01*
X246092Y67718D02*
X264107Y49703D01*
X247335Y70718D02*
X267107Y50946D01*
X250107Y76718D02*
X273107Y53718D01*
X146280Y29095D02*
Y44457D01*
X151280Y33748D02*
Y44457D01*
X42421Y189600D02*
X47608Y184414D01*
X80099D01*
X12500Y189600D02*
X28000Y174100D01*
X116280Y36880D02*
Y40957D01*
X114400Y35000D02*
X116280Y36880D01*
X124900Y91500D02*
X143500Y110100D01*
X144000Y123600D02*
Y130600D01*
X141000Y133600D02*
X144000Y130600D01*
X118500Y94500D02*
X122500Y98500D01*
Y107500D01*
X110500Y97500D02*
X114000Y101000D01*
Y107500D01*
X187000Y94500D02*
X200500D01*
X189638Y98000D02*
X201950D01*
X200500Y94500D02*
X221282Y73718D01*
X249107D01*
X201950Y98000D02*
X223232Y76718D01*
X250107D01*
X249280Y81082D02*
X251000Y79362D01*
X249280Y81082D02*
Y83957D01*
X251000Y79362D02*
X298849D01*
X249280Y91083D02*
Y93957D01*
Y91083D02*
X251000Y89362D01*
X296591D01*
X249280Y101583D02*
X251500Y99362D01*
X294334D01*
X249280Y101583D02*
Y103957D01*
X199000Y78825D02*
Y86000D01*
Y78825D02*
X207107Y70718D01*
X247335D01*
X621280Y112707D02*
X628953D01*
X174000Y78214D02*
X187496Y64718D01*
X244850D01*
X169000Y78500D02*
X185783Y61718D01*
X243607D01*
X184000Y78500D02*
Y86000D01*
X189000Y78500D02*
Y86000D01*
X179000Y78000D02*
Y86000D01*
X198689Y52957D02*
X215280D01*
X194000Y79000D02*
Y86000D01*
Y79000D02*
X205282Y67718D01*
X246092D01*
X126500Y29000D02*
X136280Y38780D01*
Y44457D01*
X136343Y29000D02*
X141280Y33937D01*
Y44457D01*
X151280Y33748D02*
X156027Y29000D01*
X154000Y123600D02*
Y134000D01*
X141010Y146990D02*
Y196886D01*
Y146990D02*
X154000Y134000D01*
X135000Y147600D02*
X149000Y133600D01*
X135000Y147600D02*
Y194396D01*
X138000Y130100D02*
X139000Y129100D01*
X134000Y82307D02*
Y86000D01*
X106780Y49957D02*
Y55087D01*
X134000Y82307D01*
X116280Y49957D02*
Y58087D01*
X139000Y80807D01*
X65900Y174100D02*
X73086Y166913D01*
X28000Y174100D02*
X65900D01*
X100453Y166913D02*
X100539Y166827D01*
X73086Y166913D02*
X100453D01*
X127440Y201957D02*
X135000Y194396D01*
X100650Y201957D02*
X127440D01*
X209780Y37457D02*
X245780D01*
X268280Y14957D01*
X218280Y34957D02*
X239280D01*
X258280Y15957D01*
X77780Y29000D02*
Y32280D01*
X80500Y35000D01*
X114400D01*
X164000Y112500D02*
Y124500D01*
X37622Y29000D02*
X47122Y38500D01*
X57307Y29000D02*
X86500Y58193D01*
X53465Y35000D02*
X56500D01*
X47465Y29000D02*
X53465Y35000D01*
X56500D02*
X83500Y62000D01*
X47122Y38500D02*
X53500D01*
X67150Y29000D02*
Y31607D01*
X76500Y40957D01*
X106780D01*
X690926Y45757D02*
X697169Y52000D01*
X632780Y45757D02*
X690926D01*
X697169Y52000D02*
Y58933D01*
X53500Y38500D02*
X80500Y65500D01*
X90000Y97500D02*
X110500D01*
X80500Y88000D02*
X90000Y97500D01*
X80500Y65500D02*
Y88000D01*
X92000Y94500D02*
X118500D01*
X83500Y86000D02*
X92000Y94500D01*
X83500Y62000D02*
Y86000D01*
X94000Y91500D02*
X124900D01*
X86500Y84000D02*
X94000Y91500D01*
X86500Y58193D02*
Y84000D01*
D15*
X261780Y93957D02*
X263280Y92457D01*
X258280Y93957D02*
X261780D01*
X605315Y181220D02*
X620540D01*
X623224Y183905D01*
X580315Y181220D02*
X580315Y181220D01*
X596315D01*
X623224Y183905D02*
Y189457D01*
X409107Y62617D02*
Y68096D01*
X80039Y184827D02*
X80099Y184767D01*
X657280Y198457D02*
X683280Y198457D01*
X258280Y83957D02*
X263457D01*
X258280Y103957D02*
X263457D01*
X104279Y175914D02*
X104280Y175913D01*
X83780Y193913D02*
Y198914D01*
X606945Y50000D02*
Y56458D01*
X581725Y54914D02*
Y59913D01*
X759479Y45154D02*
X765479D01*
X655780Y91457D02*
X662780D01*
X667169Y87068D01*
X781279Y93524D02*
Y98524D01*
X673000Y116457D02*
X678000D01*
X6500Y84500D02*
Y94500D01*
X655780Y91457D02*
Y116957D01*
X683169Y123433D02*
X687000Y119602D01*
Y116457D02*
Y119602D01*
X670440Y123433D02*
X683169D01*
X655780Y116957D02*
X663964D01*
X670440Y123433D01*
X646779Y54257D02*
X648780D01*
X646779D02*
X654280Y61757D01*
X664208D02*
X667169Y64718D01*
X654280Y61757D02*
X664208D01*
X667169Y64718D02*
Y87068D01*
X215280Y43957D02*
X220280D01*
X104280Y175913D02*
X113799D01*
X81500Y151000D02*
X81881D01*
X88599Y157718D01*
X180500Y44500D02*
X180500Y44500D01*
X171323Y44500D02*
X182000D01*
D16*
X623224Y189457D02*
X658279D01*
X623224Y189457D02*
X623224Y189457D01*
X657279Y180456D02*
X657280Y180457D01*
X641440Y156718D02*
X644440Y159718D01*
X654279D01*
X657279Y162718D01*
X641440Y150218D02*
Y156718D01*
X657279Y162718D02*
Y180456D01*
D19*
X704849Y119957D02*
X704850Y119957D01*
X159000Y123600D02*
X159000Y123600D01*
X222780Y83957D02*
X228280D01*
X222780Y93957D02*
X228280D01*
X222780Y103957D02*
X228280D01*
X699656Y119957D02*
X704850D01*
X698700Y119000D02*
X699656Y119957D01*
X781279Y84524D02*
X781279Y84524D01*
X698700Y117000D02*
X699680Y116020D01*
X698700Y117000D02*
Y119000D01*
X687000Y116457D02*
X698700D01*
X758213Y84524D02*
X781279D01*
X742280Y100457D02*
X758213Y84524D01*
X699680Y116020D02*
X726784D01*
X742313Y100490D01*
X709440Y160718D02*
X711701Y158457D01*
X730753D01*
X159000Y123600D02*
Y138600D01*
D20*
X24378Y75000D02*
Y85457D01*
X32921Y94000D01*
Y104500D01*
X46307Y48437D02*
Y104500D01*
X45870Y48000D02*
X46307Y48437D01*
X71870Y104000D02*
X72500Y104630D01*
X80330Y104030D02*
X83600Y107300D01*
X72500Y104030D02*
X80330D01*
X53500Y104000D02*
X71870D01*
X53000Y104500D02*
X53500Y104000D01*
X39614Y104500D02*
Y130114D01*
X47870Y48000D02*
X48000Y48130D01*
X683280Y189457D02*
X683280Y189457D01*
X657280D02*
X673779D01*
X673780Y189457D01*
X607945Y48500D02*
X613445D01*
X673780Y189457D02*
X683280D01*
X697440Y117718D02*
Y132218D01*
X692940Y190218D02*
X709440Y173718D01*
X697440Y132218D02*
X709440Y144218D01*
Y173718D01*
X682940Y190218D02*
X692940D01*
X599685Y29000D02*
Y39815D01*
X600783Y40914D01*
X602283D01*
X72500Y101130D02*
X73000Y100630D01*
X83600Y107300D02*
Y132100D01*
X113799Y162299D02*
Y175913D01*
X83600Y132100D02*
X113799Y162299D01*
X165870Y29000D02*
X170780D01*
X182000Y40220D02*
Y44500D01*
X170780Y29000D02*
X182000Y40220D01*
X181780Y44280D02*
X182000Y44500D01*
X72500Y77878D02*
Y104030D01*
D21*
X610780Y95457D02*
Y95707D01*
X610780Y105207D01*
X610780Y112707D01*
X202944Y43957D02*
X206280D01*
X195705Y36718D02*
X202944Y43957D01*
X195705Y30718D02*
Y36718D01*
X367107Y100218D02*
X383107D01*
D22*
X418607Y123917D02*
D03*
X408607D02*
D03*
X398607D02*
D03*
X388607D02*
D03*
X378607D02*
D03*
X368607D02*
D03*
Y35925D02*
D03*
X378607D02*
D03*
X418607D02*
D03*
X408607D02*
D03*
X398607D02*
D03*
X388607D02*
D03*
X72500Y76000D02*
D03*
Y66158D02*
D03*
X12835Y46842D02*
D03*
Y37000D02*
D03*
X641440Y150218D02*
D03*
X651282D02*
D03*
X719282Y145218D02*
D03*
X709440D02*
D03*
X97800Y113842D02*
D03*
Y104000D02*
D03*
X81500Y141157D02*
D03*
Y151000D02*
D03*
D23*
X405512Y157362D02*
D03*
Y147362D02*
D03*
X509449Y181220D02*
D03*
Y191220D02*
D03*
X444488Y157362D02*
D03*
Y147362D02*
D03*
Y181220D02*
D03*
Y191220D02*
D03*
X580315Y191220D02*
D03*
Y181220D02*
D03*
X509449Y147362D02*
D03*
Y157362D02*
D03*
X273228D02*
D03*
Y147362D02*
D03*
X196850Y164291D02*
D03*
Y174291D02*
D03*
X215354D02*
D03*
Y164291D02*
D03*
X405512Y181220D02*
D03*
Y191220D02*
D03*
X340158D02*
D03*
Y181220D02*
D03*
Y147362D02*
D03*
Y157362D02*
D03*
X273228Y191220D02*
D03*
Y181220D02*
D03*
D24*
X685780Y106957D02*
D03*
X124000Y156218D02*
D03*
X623224Y189457D02*
D03*
X160940Y165718D02*
D03*
X91000Y48500D02*
D03*
X754940Y158718D02*
D03*
Y140957D02*
D03*
X685780Y91457D02*
D03*
X11000Y74500D02*
D03*
X268280Y9457D02*
D03*
X258280D02*
D03*
X248280D02*
D03*
X662343Y29000D02*
D03*
X652500D02*
D03*
X580000D02*
D03*
X589843D02*
D03*
X599685D02*
D03*
X609528D02*
D03*
X619370D02*
D03*
X225232D02*
D03*
X215390D02*
D03*
X205547D02*
D03*
X195705D02*
D03*
X126500Y29000D02*
D03*
X136343D02*
D03*
X146185D02*
D03*
X156027D02*
D03*
X165870D02*
D03*
X97780Y29000D02*
D03*
X87779D02*
D03*
X77780D02*
D03*
X27779D02*
D03*
X37622D02*
D03*
X47465D02*
D03*
X57307D02*
D03*
X67150D02*
D03*
D25*
X150940Y165718D02*
D03*
X278280Y9457D02*
D03*
D26*
X636779Y54257D02*
D03*
X626780Y64257D02*
D03*
X646779Y54257D02*
D03*
X626780D02*
D03*
X636779Y64257D02*
D03*
X646779D02*
D03*
D27*
X42421Y189600D02*
D03*
X12500D02*
D03*
D28*
X213600Y74900D02*
D03*
X80900Y45400D02*
D03*
X697200Y45800D02*
D03*
X189000Y78500D02*
D03*
X699350Y92398D02*
D03*
X757479Y76650D02*
D03*
X781279Y98524D02*
D03*
X759479Y45154D02*
D03*
X409107Y68096D02*
D03*
X164000Y75457D02*
D03*
X641780Y91457D02*
D03*
X611280Y105207D02*
D03*
X739753Y172957D02*
D03*
X770753D02*
D03*
X179000Y78500D02*
D03*
X739753Y72713D02*
D03*
X641780Y125457D02*
D03*
Y108727D02*
D03*
X432607Y100217D02*
D03*
X425900Y71544D02*
D03*
X432607Y113044D02*
D03*
X437400D02*
D03*
X636279Y40000D02*
D03*
X566205Y39983D02*
D03*
X263280Y92457D02*
D03*
X263780Y103957D02*
D03*
X263280Y83957D02*
D03*
X184000Y78500D02*
D03*
X222780Y93957D02*
D03*
X222780Y103957D02*
D03*
X222780Y83957D02*
D03*
X320280Y152457D02*
D03*
X326607Y170417D02*
D03*
X315007Y120157D02*
D03*
X309507Y176017D02*
D03*
Y140657D02*
D03*
X290507Y164657D02*
D03*
X341668Y81157D02*
D03*
X436667Y173657D02*
D03*
X430168Y72157D02*
D03*
X448668D02*
D03*
X379580Y74957D02*
D03*
X404107Y68096D02*
D03*
X481668Y130557D02*
D03*
X469467Y99157D02*
D03*
X463979Y138057D02*
D03*
X488968Y179157D02*
D03*
X467168Y152357D02*
D03*
X399107Y55217D02*
D03*
X362046Y63157D02*
D03*
X83780Y198914D02*
D03*
X548038Y85913D02*
D03*
X589205Y35718D02*
D03*
X557205D02*
D03*
X250500Y42500D02*
D03*
X625280Y112707D02*
D03*
X622093Y89371D02*
D03*
X673000Y116457D02*
D03*
X712753Y110213D02*
D03*
X198689Y52957D02*
D03*
X199000Y117600D02*
D03*
X194000D02*
D03*
X159000Y131500D02*
D03*
X220280Y43957D02*
D03*
X22878Y90500D02*
D03*
Y87500D02*
D03*
X25878D02*
D03*
Y90500D02*
D03*
D29*
X367107Y100218D02*
D03*
X613445Y48500D02*
D03*
D30*
X123500Y142600D02*
D03*
Y133600D02*
D03*
X116280Y40957D02*
D03*
X106780D02*
D03*
X114000Y107500D02*
D03*
X589205Y49718D02*
D03*
Y40718D02*
D03*
X598705Y59913D02*
D03*
Y68914D02*
D03*
X608205D02*
D03*
Y59913D02*
D03*
X159000Y138600D02*
D03*
Y147600D02*
D03*
X206280Y43957D02*
D03*
Y52957D02*
D03*
X215280D02*
D03*
Y43957D02*
D03*
X106780Y49957D02*
D03*
X116280D02*
D03*
X683280Y198457D02*
D03*
Y189457D02*
D03*
X781279Y93524D02*
D03*
Y84524D02*
D03*
X182000Y44500D02*
D03*
Y53500D02*
D03*
X122500Y116500D02*
D03*
Y107500D02*
D03*
X673780Y189457D02*
D03*
Y198457D02*
D03*
X80099Y175914D02*
D03*
Y166913D02*
D03*
X113799Y184913D02*
D03*
Y175913D02*
D03*
X373107Y100218D02*
D03*
Y91218D02*
D03*
X88599Y166718D02*
D03*
Y157718D02*
D03*
X114000Y116500D02*
D03*
X658280Y61757D02*
D03*
Y52757D02*
D03*
D31*
X704850Y119957D02*
D03*
Y116020D02*
D03*
Y92398D02*
D03*
Y80587D02*
D03*
Y76650D02*
D03*
Y64839D02*
D03*
Y60902D02*
D03*
Y45154D02*
D03*
X765479D02*
D03*
Y72713D02*
D03*
Y76650D02*
D03*
Y84524D02*
D03*
Y88461D02*
D03*
Y92398D02*
D03*
Y119957D02*
D03*
Y116020D02*
D03*
Y112083D02*
D03*
Y108146D02*
D03*
Y104209D02*
D03*
Y100272D02*
D03*
Y96335D02*
D03*
Y80587D02*
D03*
Y68776D02*
D03*
Y64839D02*
D03*
Y60902D02*
D03*
Y56965D02*
D03*
Y53028D02*
D03*
Y49091D02*
D03*
X704850D02*
D03*
Y53028D02*
D03*
Y56965D02*
D03*
Y68776D02*
D03*
Y72713D02*
D03*
Y84524D02*
D03*
Y88461D02*
D03*
Y96335D02*
D03*
Y100272D02*
D03*
Y104209D02*
D03*
Y108146D02*
D03*
Y112083D02*
D03*
Y41217D02*
D03*
D32*
X24378Y75000D02*
D03*
X48000D02*
D03*
D33*
X72500Y104030D02*
D03*
Y118400D02*
D03*
D34*
X53000Y104500D02*
D03*
X46307D02*
D03*
X32921D02*
D03*
X39614D02*
D03*
X26228D02*
D03*
D35*
X15500Y89500D02*
D03*
X6500D02*
D03*
X596315Y181220D02*
D03*
X619370Y40000D02*
D03*
X628370D02*
D03*
X648279Y168957D02*
D03*
X657279D02*
D03*
X619780Y112707D02*
D03*
X610780D02*
D03*
X619780Y95707D02*
D03*
X610780D02*
D03*
X652500Y40000D02*
D03*
X643500D02*
D03*
X237280Y103957D02*
D03*
X228280D02*
D03*
X237280Y93957D02*
D03*
X228280D02*
D03*
X356107Y99157D02*
D03*
X347107D02*
D03*
X463979Y108157D02*
D03*
X454980D02*
D03*
X347167Y72157D02*
D03*
X356168D02*
D03*
X347168Y90157D02*
D03*
X356168D02*
D03*
X356207Y108157D02*
D03*
X347207D02*
D03*
X356007Y117157D02*
D03*
X347007D02*
D03*
X237280Y83957D02*
D03*
X228280D02*
D03*
X122150Y194457D02*
D03*
X113149D02*
D03*
X85650Y205457D02*
D03*
X76649D02*
D03*
X655780Y99957D02*
D03*
X646780D02*
D03*
X655780Y108457D02*
D03*
X646780D02*
D03*
X655780Y91457D02*
D03*
X646780D02*
D03*
Y116957D02*
D03*
X655780D02*
D03*
Y125457D02*
D03*
X646780D02*
D03*
X655780Y133957D02*
D03*
X646780D02*
D03*
X761753Y167457D02*
D03*
X770753D02*
D03*
X739753Y158457D02*
D03*
X730753D02*
D03*
X605315Y181220D02*
D03*
X655780Y74457D02*
D03*
X646780D02*
D03*
X655780Y82957D02*
D03*
X646780D02*
D03*
X678000Y116457D02*
D03*
X687000D02*
D03*
X258280Y103957D02*
D03*
X249280D02*
D03*
X454700Y72157D02*
D03*
X463700D02*
D03*
X356007Y126157D02*
D03*
X347007D02*
D03*
X347168Y81157D02*
D03*
X356168D02*
D03*
Y63157D02*
D03*
X347168D02*
D03*
X463700Y81157D02*
D03*
X454700D02*
D03*
X463700Y63157D02*
D03*
X454700D02*
D03*
X402668Y49657D02*
D03*
X411667D02*
D03*
X454980Y90157D02*
D03*
X463980D02*
D03*
X463979Y99157D02*
D03*
X454980D02*
D03*
X258280Y83957D02*
D03*
X249280D02*
D03*
X258280Y93957D02*
D03*
X249280D02*
D03*
X623280Y74257D02*
D03*
X632280D02*
D03*
X739780Y167457D02*
D03*
X730780D02*
D03*
D36*
X45870Y49000D02*
D03*
X31500D02*
D03*
D37*
X39575Y143388D02*
D03*
D38*
X599465Y50000D02*
D03*
X606945D02*
D03*
X603205Y40914D02*
D03*
X589205Y59913D02*
D03*
X581725D02*
D03*
X585465Y69000D02*
D03*
X80039Y184827D02*
D03*
X83780Y193913D02*
D03*
X76299D02*
D03*
X100539Y166827D02*
D03*
X104279Y175914D02*
D03*
X96799D02*
D03*
X100539Y184827D02*
D03*
X104279Y193913D02*
D03*
X96799D02*
D03*
D39*
X174000Y123600D02*
D03*
X194000D02*
D03*
X199000D02*
D03*
Y86000D02*
D03*
X194000D02*
D03*
X189000D02*
D03*
X184000D02*
D03*
X179000D02*
D03*
X164000D02*
D03*
X159000D02*
D03*
X154000D02*
D03*
X149000D02*
D03*
X144000D02*
D03*
X139000D02*
D03*
Y123600D02*
D03*
X144000D02*
D03*
X149000D02*
D03*
X154000D02*
D03*
X159000D02*
D03*
X164000D02*
D03*
X169000D02*
D03*
X179000D02*
D03*
X184000D02*
D03*
X189000D02*
D03*
X134000Y86000D02*
D03*
X384107Y100217D02*
D03*
X389107D02*
D03*
X394107D02*
D03*
X399107D02*
D03*
X404107D02*
D03*
X409107D02*
D03*
X414107D02*
D03*
X419107D02*
D03*
X424107D02*
D03*
Y62617D02*
D03*
X414107D02*
D03*
X409107D02*
D03*
X404107D02*
D03*
X399107D02*
D03*
X394107D02*
D03*
X389107D02*
D03*
X384107D02*
D03*
X419107D02*
D03*
X429107Y100217D02*
D03*
Y62617D02*
D03*
X134000Y123600D02*
D03*
X169000Y86000D02*
D03*
X174000D02*
D03*
D40*
X657280Y198457D02*
D03*
Y180457D02*
D03*
Y189457D02*
D03*
D41*
X636280D02*
D03*
D42*
X629193Y95207D02*
D03*
X638280Y91467D02*
D03*
Y98947D02*
D03*
X629193Y112467D02*
D03*
X638280Y108727D02*
D03*
Y116207D02*
D03*
D43*
X136280Y66957D02*
D03*
D44*
X141280D02*
D03*
X146280D02*
D03*
X151280D02*
D03*
X156280D02*
D03*
X161280D02*
D03*
X166280D02*
D03*
X171280D02*
D03*
Y44457D02*
D03*
X166280D02*
D03*
X161280D02*
D03*
X156280D02*
D03*
X151280D02*
D03*
X146280D02*
D03*
X141280D02*
D03*
X136280D02*
D03*
M02*
