%FSLAX25Y25*%
%MOIN*%
G70*
G01*
G75*
G04 Layer_Color=8388736*
%ADD10R,0.03937X0.03937*%
%ADD11R,0.03937X0.03937*%
%ADD12R,0.03937X0.03937*%
%ADD13R,0.03937X0.03937*%
%ADD14C,0.01000*%
%ADD15C,0.02000*%
%ADD16C,0.06000*%
%ADD17C,0.07000*%
%ADD18C,0.05000*%
%ADD19C,0.02500*%
%ADD20C,0.04000*%
%ADD21C,0.03000*%
%ADD22C,0.07087*%
%ADD23C,0.06300*%
%ADD24C,0.06000*%
%ADD25R,0.06000X0.06000*%
%ADD26C,0.05512*%
%ADD27C,0.08661*%
%ADD28C,0.02500*%
%ADD29C,0.05000*%
%ADD30R,0.05000X0.06000*%
%ADD31R,0.05709X0.02756*%
%ADD32R,0.15748X0.15748*%
%ADD33R,0.08071X0.08858*%
%ADD34R,0.04213X0.11811*%
%ADD35R,0.06000X0.05000*%
%ADD36R,0.08858X0.08071*%
%ADD37R,0.27559X0.37008*%
%ADD38R,0.02362X0.04299*%
%ADD39O,0.02400X0.07400*%
%ADD40R,0.15748X0.06000*%
%ADD41R,0.11811X0.23622*%
%ADD42R,0.04299X0.02362*%
%ADD43O,0.02400X0.07600*%
%ADD44R,0.02400X0.07600*%
%ADD45C,0.00500*%
%ADD46C,0.02362*%
%ADD47C,0.00787*%
%ADD48C,0.00984*%
%ADD49C,0.00600*%
%ADD50C,0.00200*%
%ADD51C,0.00800*%
%ADD52R,0.00446X0.00990*%
%ADD53R,0.00900X0.00700*%
%ADD54C,0.00400*%
%ADD55C,0.01500*%
%ADD56R,0.04737X0.04737*%
%ADD57R,0.04737X0.04737*%
%ADD58R,0.04737X0.04737*%
%ADD59R,0.04737X0.04737*%
%ADD60C,0.07887*%
%ADD61C,0.07100*%
%ADD62C,0.06800*%
%ADD63R,0.06800X0.06800*%
%ADD64C,0.06312*%
%ADD65C,0.09461*%
D56*
X725580Y177457D02*
D03*
Y203047D02*
D03*
X756579Y177457D02*
D03*
Y203047D02*
D03*
D57*
X739753Y177457D02*
D03*
Y203047D02*
D03*
X770753Y177457D02*
D03*
Y203047D02*
D03*
D58*
X224280Y44457D02*
D03*
X198689D02*
D03*
D59*
X224280Y58630D02*
D03*
X198689D02*
D03*
D60*
X418607Y123917D02*
D03*
X408607D02*
D03*
X398607D02*
D03*
X388607D02*
D03*
X378607D02*
D03*
X368607D02*
D03*
Y35925D02*
D03*
X378607D02*
D03*
X418607D02*
D03*
X408607D02*
D03*
X398607D02*
D03*
X388607D02*
D03*
X72500Y76000D02*
D03*
Y66158D02*
D03*
X12835Y46842D02*
D03*
Y37000D02*
D03*
X641440Y150218D02*
D03*
X651282D02*
D03*
X719282Y145218D02*
D03*
X709440D02*
D03*
X97800Y113842D02*
D03*
Y104000D02*
D03*
X81500Y141157D02*
D03*
Y151000D02*
D03*
D61*
X405512Y157362D02*
D03*
Y147362D02*
D03*
X509449Y181220D02*
D03*
Y191220D02*
D03*
X444488Y157362D02*
D03*
Y147362D02*
D03*
Y181220D02*
D03*
Y191220D02*
D03*
X580315Y191220D02*
D03*
Y181220D02*
D03*
X509449Y147362D02*
D03*
Y157362D02*
D03*
X273228D02*
D03*
Y147362D02*
D03*
X196850Y164291D02*
D03*
Y174291D02*
D03*
X215354D02*
D03*
Y164291D02*
D03*
X405512Y181220D02*
D03*
Y191220D02*
D03*
X340158D02*
D03*
Y181220D02*
D03*
Y147362D02*
D03*
Y157362D02*
D03*
X273228Y191220D02*
D03*
Y181220D02*
D03*
D62*
X685780Y106957D02*
D03*
X124000Y156218D02*
D03*
X623224Y189457D02*
D03*
X160940Y165718D02*
D03*
X91000Y48500D02*
D03*
X754940Y158718D02*
D03*
Y140957D02*
D03*
X685780Y91457D02*
D03*
X11000Y74500D02*
D03*
X268280Y9457D02*
D03*
X258280D02*
D03*
X248280D02*
D03*
X662343Y29000D02*
D03*
X652500D02*
D03*
X580000D02*
D03*
X589843D02*
D03*
X599685D02*
D03*
X609528D02*
D03*
X619370D02*
D03*
X225232D02*
D03*
X215390D02*
D03*
X205547D02*
D03*
X195705D02*
D03*
X126500Y29000D02*
D03*
X136343D02*
D03*
X146185D02*
D03*
X156027D02*
D03*
X165870D02*
D03*
X97780Y29000D02*
D03*
X87779D02*
D03*
X77780D02*
D03*
X27779D02*
D03*
X37622D02*
D03*
X47465D02*
D03*
X57307D02*
D03*
X67150D02*
D03*
D63*
X150940Y165718D02*
D03*
X278280Y9457D02*
D03*
D64*
X636779Y54257D02*
D03*
X626780Y64257D02*
D03*
X646779Y54257D02*
D03*
X626780D02*
D03*
X636779Y64257D02*
D03*
X646779D02*
D03*
D65*
X42421Y189600D02*
D03*
X12500D02*
D03*
M02*
