M48
;Layer_Color=9474304
;FILE_FORMAT=2:5
INCH,TZ
;TYPE=PLATED
T1F00S00C0.01200
T2F00S00C0.02559
T3F00S00C0.04000
T4F00S00C0.04724
%
T01
X126500Y4000
X147500
X161500Y7000
X162500Y21000
X172000Y22000
X171000Y34500
X162587Y33740
X151500Y37000
X162587Y48740
X172000Y49000
X163500Y65000
X162000Y82000
X161087Y95240
X150500Y89500
X148008Y80866
X146000Y68807
X129500Y60000
X132500Y56933
X122500Y35500
X100000Y31500
X88890Y33240
X77500Y41000
X82000Y52500
X101000Y53500
X97200Y66600
X81200Y73900
X81800Y89400
X104000Y94500
X102500Y109000
X103187Y113440
X109390Y118894
X112390
X115390
X132000Y108000
Y95500
X131500Y88000
X115000Y80500
X148487Y108740
X149500Y150000
X142500
X140087Y161240
Y164240
X137087
Y161240
X115500Y156500
X116000Y146000
X98161Y131831
X94224Y131894
X81390Y132866
X83008Y136866
X74539Y131894
X69508Y119366
X64390
X52390Y118937
X72067Y114366
X75626
X79185
X65000Y143000
Y150500
Y160500
X42000Y162000
X43000Y150500
X36972Y146240
X40200Y134800
X23500Y130500
X29087Y100740
X27090Y96366
Y92429
X47000Y94500
X57800Y65900
X58000Y54000
X57000Y41500
X45500Y37000
X45000Y56500
X27390Y49122
X26996Y64870
X30390Y28374
X27390Y21240
X60390Y15240
X78890Y14740
X94890
X109390Y13685
X112390
X115390
X137500Y18500
X146500Y16000
X156500Y150000
X12890Y134740
X4000Y119500
X3000Y39500
X14800Y37600
X15390Y33374
Y29437
X17500Y14000
X8008Y17366
X43000Y170500
X65000
X116000Y169000
X156890Y173484
X169000Y173500
T02
X31335Y156772
X12241
T03
X172000Y57000
Y67000
Y77000
Y87000
Y97000
Y107000
X5000
Y97000
Y87000
Y77000
Y67000
Y57000
Y47000
T04
X7320Y168190
X35666
M30
