%FSLAX25Y25*%
%MOIN*%
G70*
G01*
G75*
G04 Layer_Color=32896*
%ADD10R,0.03000X0.03500*%
%ADD11R,0.03500X0.03000*%
%ADD12R,0.02362X0.04299*%
%ADD13R,0.08661X0.04134*%
%ADD14R,0.04331X0.03937*%
%ADD15R,0.07874X0.07874*%
%ADD16R,0.02362X0.07874*%
%ADD17R,0.07874X0.02362*%
%ADD18R,0.03937X0.04331*%
%ADD19R,0.04134X0.08661*%
%ADD20R,0.11811X0.04213*%
%ADD21R,0.37008X0.27559*%
%ADD22R,0.01575X0.03937*%
%ADD23R,0.12992X0.07087*%
%ADD24C,0.01000*%
%ADD25C,0.01500*%
%ADD26C,0.02000*%
%ADD27C,0.04000*%
%ADD28C,0.03150*%
%ADD29C,0.07000*%
%ADD30C,0.06000*%
%ADD31R,0.06000X0.06000*%
%ADD32C,0.03150*%
%ADD33C,0.06299*%
%ADD34C,0.02500*%
%ADD35R,0.04299X0.02362*%
%ADD36R,0.04724X0.09843*%
%ADD37R,0.09843X0.04724*%
%ADD38R,0.09449X0.07087*%
%ADD39R,0.09449X0.10236*%
%ADD40R,0.05906X0.06693*%
%ADD41R,0.03150X0.05118*%
%ADD42R,0.04921X0.07874*%
%ADD43R,0.01181X0.04724*%
%ADD44O,0.01181X0.04724*%
%ADD45C,0.04000*%
%ADD46C,0.00500*%
%ADD47C,0.01600*%
%ADD48C,0.00787*%
%ADD49C,0.00800*%
%ADD50C,0.00600*%
%ADD51C,0.00700*%
%ADD52C,0.00100*%
%ADD53R,0.01300X0.11811*%
%ADD54R,0.11811X0.01300*%
%ADD55R,0.13988X0.01000*%
%ADD56R,0.01870X0.17323*%
%ADD57R,0.01181X0.08412*%
G36*
X133542Y86319D02*
X133658Y86306D01*
X133767Y86285D01*
X133870Y86258D01*
X133972Y86217D01*
X134061Y86183D01*
X134143Y86142D01*
X134218Y86101D01*
X134286Y86053D01*
X134341Y86012D01*
X134396Y85978D01*
X134437Y85944D01*
X134471Y85910D01*
X134491Y85889D01*
X134505Y85875D01*
X134512Y85869D01*
X134587Y85780D01*
X134649Y85684D01*
X134703Y85582D01*
X134751Y85479D01*
X134792Y85370D01*
X134826Y85268D01*
X134874Y85063D01*
X134894Y84967D01*
X134908Y84878D01*
X134915Y84796D01*
X134922Y84728D01*
X134929Y84673D01*
Y84626D01*
Y84598D01*
Y84591D01*
X134922Y84448D01*
X134908Y84311D01*
X134888Y84182D01*
X134860Y84066D01*
X134833Y83956D01*
X134799Y83854D01*
X134758Y83765D01*
X134717Y83683D01*
X134683Y83608D01*
X134642Y83540D01*
X134608Y83485D01*
X134573Y83444D01*
X134553Y83410D01*
X134532Y83382D01*
X134519Y83369D01*
X134512Y83362D01*
X134430Y83287D01*
X134341Y83219D01*
X134252Y83157D01*
X134157Y83109D01*
X134068Y83068D01*
X133972Y83034D01*
X133795Y82980D01*
X133706Y82959D01*
X133631Y82945D01*
X133563Y82938D01*
X133501Y82932D01*
X133453Y82925D01*
X133385D01*
X133180Y82938D01*
X133002Y82966D01*
X132838Y83014D01*
X132709Y83061D01*
X132647Y83089D01*
X132599Y83109D01*
X132559Y83137D01*
X132524Y83157D01*
X132490Y83171D01*
X132470Y83184D01*
X132463Y83198D01*
X132456D01*
X132333Y83307D01*
X132224Y83437D01*
X132142Y83567D01*
X132073Y83690D01*
X132019Y83806D01*
X131998Y83854D01*
X131985Y83895D01*
X131971Y83929D01*
X131964Y83956D01*
X131957Y83970D01*
Y83977D01*
X132524Y84052D01*
X132579Y83929D01*
X132634Y83820D01*
X132688Y83731D01*
X132743Y83662D01*
X132791Y83601D01*
X132832Y83567D01*
X132859Y83540D01*
X132866Y83533D01*
X132948Y83478D01*
X133037Y83444D01*
X133125Y83417D01*
X133207Y83396D01*
X133276Y83382D01*
X133330Y83376D01*
X133385D01*
X133528Y83389D01*
X133658Y83417D01*
X133774Y83464D01*
X133877Y83519D01*
X133952Y83567D01*
X134013Y83615D01*
X134047Y83642D01*
X134061Y83656D01*
X134150Y83772D01*
X134225Y83908D01*
X134273Y84045D01*
X134314Y84175D01*
X134341Y84298D01*
X134348Y84346D01*
X134355Y84393D01*
Y84427D01*
X134362Y84462D01*
Y84475D01*
Y84482D01*
X131944D01*
X131937Y84544D01*
Y84591D01*
Y84619D01*
Y84626D01*
X131944Y84776D01*
X131957Y84912D01*
X131978Y85042D01*
X131998Y85158D01*
X132033Y85274D01*
X132067Y85377D01*
X132108Y85466D01*
X132142Y85554D01*
X132183Y85629D01*
X132224Y85691D01*
X132258Y85746D01*
X132285Y85794D01*
X132313Y85828D01*
X132333Y85855D01*
X132347Y85869D01*
X132354Y85875D01*
X132436Y85957D01*
X132518Y86026D01*
X132606Y86087D01*
X132695Y86135D01*
X132784Y86183D01*
X132873Y86217D01*
X133037Y86272D01*
X133118Y86292D01*
X133187Y86306D01*
X133255Y86313D01*
X133310Y86319D01*
X133358Y86326D01*
X133419D01*
X133542Y86319D01*
D02*
G37*
G36*
X145385D02*
X145494Y86313D01*
X145693Y86272D01*
X145870Y86210D01*
X145945Y86176D01*
X146014Y86149D01*
X146082Y86115D01*
X146136Y86080D01*
X146184Y86046D01*
X146225Y86019D01*
X146259Y85998D01*
X146280Y85978D01*
X146294Y85971D01*
X146300Y85964D01*
X146389Y85875D01*
X146464Y85780D01*
X146533Y85677D01*
X146587Y85568D01*
X146635Y85459D01*
X146676Y85350D01*
X146710Y85240D01*
X146738Y85131D01*
X146758Y85028D01*
X146772Y84933D01*
X146785Y84851D01*
X146792Y84776D01*
Y84714D01*
X146799Y84667D01*
Y84639D01*
Y84626D01*
X146792Y84475D01*
X146779Y84332D01*
X146758Y84202D01*
X146731Y84079D01*
X146703Y83970D01*
X146669Y83861D01*
X146628Y83772D01*
X146587Y83683D01*
X146553Y83608D01*
X146512Y83546D01*
X146478Y83492D01*
X146444Y83444D01*
X146423Y83410D01*
X146403Y83382D01*
X146389Y83369D01*
X146382Y83362D01*
X146300Y83287D01*
X146212Y83219D01*
X146123Y83157D01*
X146027Y83109D01*
X145938Y83068D01*
X145843Y83034D01*
X145672Y82980D01*
X145590Y82959D01*
X145515Y82945D01*
X145447Y82938D01*
X145392Y82932D01*
X145344Y82925D01*
X145276D01*
X145119Y82932D01*
X144975Y82959D01*
X144846Y82986D01*
X144729Y83027D01*
X144634Y83061D01*
X144559Y83096D01*
X144532Y83102D01*
X144511Y83116D01*
X144504Y83123D01*
X144497D01*
X144368Y83205D01*
X144258Y83294D01*
X144163Y83382D01*
X144088Y83471D01*
X144026Y83553D01*
X143978Y83615D01*
X143951Y83662D01*
X143944Y83669D01*
Y83676D01*
X143883Y83820D01*
X143835Y83983D01*
X143801Y84147D01*
X143773Y84304D01*
X143766Y84380D01*
X143760Y84448D01*
Y84509D01*
X143753Y84564D01*
Y84605D01*
Y84639D01*
Y84660D01*
Y84667D01*
X143760Y84810D01*
X143773Y84940D01*
X143794Y85070D01*
X143821Y85186D01*
X143855Y85295D01*
X143889Y85391D01*
X143930Y85486D01*
X143965Y85568D01*
X144006Y85636D01*
X144046Y85705D01*
X144081Y85759D01*
X144115Y85800D01*
X144142Y85834D01*
X144163Y85862D01*
X144176Y85875D01*
X144183Y85882D01*
X144265Y85957D01*
X144354Y86026D01*
X144443Y86087D01*
X144532Y86142D01*
X144627Y86183D01*
X144716Y86217D01*
X144887Y86272D01*
X144969Y86292D01*
X145044Y86306D01*
X145105Y86313D01*
X145167Y86319D01*
X145214Y86326D01*
X145276D01*
X145385Y86319D01*
D02*
G37*
G36*
X141048Y85875D02*
X141103Y85944D01*
X141164Y86012D01*
X141233Y86067D01*
X141287Y86108D01*
X141342Y86149D01*
X141383Y86176D01*
X141410Y86190D01*
X141424Y86196D01*
X141513Y86237D01*
X141601Y86272D01*
X141690Y86292D01*
X141765Y86313D01*
X141840Y86319D01*
X141895Y86326D01*
X141943D01*
X142086Y86319D01*
X142223Y86292D01*
X142346Y86258D01*
X142455Y86224D01*
X142544Y86183D01*
X142612Y86149D01*
X142653Y86121D01*
X142660Y86115D01*
X142667D01*
X142783Y86026D01*
X142879Y85930D01*
X142961Y85828D01*
X143029Y85725D01*
X143084Y85636D01*
X143118Y85568D01*
X143131Y85541D01*
X143145Y85520D01*
X143152Y85507D01*
Y85500D01*
X143206Y85350D01*
X143241Y85192D01*
X143268Y85049D01*
X143288Y84912D01*
X143302Y84796D01*
Y84742D01*
X143309Y84701D01*
Y84667D01*
Y84639D01*
Y84626D01*
Y84619D01*
X143302Y84434D01*
X143282Y84270D01*
X143254Y84120D01*
X143220Y83990D01*
X143186Y83881D01*
X143172Y83833D01*
X143159Y83799D01*
X143145Y83772D01*
X143138Y83751D01*
X143131Y83738D01*
Y83731D01*
X143056Y83594D01*
X142981Y83478D01*
X142892Y83376D01*
X142817Y83294D01*
X142742Y83225D01*
X142687Y83178D01*
X142646Y83143D01*
X142640Y83137D01*
X142633D01*
X142510Y83068D01*
X142380Y83014D01*
X142264Y82980D01*
X142148Y82952D01*
X142059Y82938D01*
X141984Y82932D01*
X141956Y82925D01*
X141916D01*
X141806Y82932D01*
X141704Y82945D01*
X141608Y82966D01*
X141519Y83000D01*
X141444Y83034D01*
X141369Y83075D01*
X141301Y83123D01*
X141239Y83164D01*
X141185Y83212D01*
X141137Y83253D01*
X141096Y83294D01*
X141069Y83328D01*
X141041Y83362D01*
X141021Y83382D01*
X141014Y83396D01*
X141007Y83403D01*
Y83000D01*
X140495D01*
Y87487D01*
X141048D01*
Y85875D01*
D02*
G37*
G36*
X114739Y83000D02*
X114111D01*
Y83628D01*
X114739D01*
Y83000D01*
D02*
G37*
G36*
X119964D02*
X119336D01*
Y83628D01*
X119964D01*
Y83000D01*
D02*
G37*
G36*
X136151D02*
X135598D01*
Y87487D01*
X136151D01*
Y83000D01*
D02*
G37*
G36*
X160500Y84578D02*
Y84072D01*
X158553D01*
Y83000D01*
X158000D01*
Y84072D01*
X157392D01*
Y84578D01*
X158000D01*
Y87480D01*
X158451D01*
X160500Y84578D01*
D02*
G37*
G36*
X139634Y84229D02*
Y84106D01*
X139628Y84004D01*
Y83915D01*
X139621Y83840D01*
X139614Y83785D01*
Y83751D01*
X139607Y83724D01*
Y83717D01*
X139586Y83628D01*
X139559Y83553D01*
X139532Y83485D01*
X139498Y83424D01*
X139477Y83376D01*
X139457Y83335D01*
X139443Y83314D01*
X139436Y83307D01*
X139382Y83246D01*
X139327Y83198D01*
X139266Y83150D01*
X139204Y83109D01*
X139149Y83075D01*
X139108Y83055D01*
X139081Y83041D01*
X139067Y83034D01*
X138972Y83000D01*
X138876Y82973D01*
X138787Y82952D01*
X138706Y82938D01*
X138630Y82932D01*
X138576Y82925D01*
X138528D01*
X138412Y82932D01*
X138296Y82945D01*
X138193Y82973D01*
X138091Y83014D01*
X138002Y83055D01*
X137913Y83096D01*
X137838Y83150D01*
X137770Y83198D01*
X137708Y83246D01*
X137654Y83301D01*
X137606Y83341D01*
X137565Y83389D01*
X137538Y83424D01*
X137517Y83451D01*
X137503Y83464D01*
X137497Y83471D01*
Y83000D01*
X137005D01*
Y86251D01*
X137558D01*
Y84503D01*
X137565Y84359D01*
X137572Y84229D01*
X137585Y84120D01*
X137606Y84031D01*
X137626Y83956D01*
X137640Y83908D01*
X137647Y83881D01*
X137654Y83867D01*
X137695Y83792D01*
X137736Y83724D01*
X137790Y83662D01*
X137838Y83615D01*
X137886Y83574D01*
X137927Y83546D01*
X137954Y83526D01*
X137961Y83519D01*
X138043Y83478D01*
X138125Y83451D01*
X138200Y83424D01*
X138268Y83410D01*
X138330Y83403D01*
X138378Y83396D01*
X138419D01*
X138507Y83403D01*
X138589Y83417D01*
X138658Y83437D01*
X138719Y83458D01*
X138767Y83478D01*
X138801Y83499D01*
X138828Y83512D01*
X138835Y83519D01*
X138890Y83567D01*
X138938Y83622D01*
X138979Y83683D01*
X139006Y83738D01*
X139026Y83785D01*
X139040Y83826D01*
X139054Y83854D01*
Y83861D01*
X139061Y83929D01*
X139067Y84018D01*
X139074Y84113D01*
Y84209D01*
X139081Y84298D01*
Y84373D01*
Y84400D01*
Y84421D01*
Y84434D01*
Y84441D01*
Y86251D01*
X139634D01*
Y84229D01*
D02*
G37*
G36*
X131773Y81757D02*
X128126D01*
Y82153D01*
X131773D01*
Y81757D01*
D02*
G37*
G36*
X111652Y87398D02*
X111727Y87289D01*
X111809Y87187D01*
X111891Y87091D01*
X111966Y87016D01*
X112028Y86955D01*
X112068Y86914D01*
X112075Y86907D01*
X112082Y86900D01*
X112212Y86791D01*
X112348Y86688D01*
X112485Y86599D01*
X112608Y86524D01*
X112717Y86463D01*
X112765Y86442D01*
X112806Y86422D01*
X112833Y86401D01*
X112861Y86388D01*
X112874Y86381D01*
X112881D01*
Y85841D01*
X112786Y85882D01*
X112683Y85930D01*
X112588Y85971D01*
X112499Y86019D01*
X112424Y86060D01*
X112362Y86094D01*
X112321Y86121D01*
X112314Y86128D01*
X112308D01*
X112191Y86196D01*
X112089Y86272D01*
X112000Y86333D01*
X111925Y86395D01*
X111864Y86442D01*
X111816Y86476D01*
X111788Y86504D01*
X111782Y86511D01*
Y83000D01*
X111228D01*
Y87508D01*
X111590D01*
X111652Y87398D01*
D02*
G37*
G36*
X122102D02*
X122177Y87289D01*
X122259Y87187D01*
X122341Y87091D01*
X122416Y87016D01*
X122477Y86955D01*
X122518Y86914D01*
X122525Y86907D01*
X122532Y86900D01*
X122662Y86791D01*
X122798Y86688D01*
X122935Y86599D01*
X123058Y86524D01*
X123167Y86463D01*
X123215Y86442D01*
X123256Y86422D01*
X123283Y86401D01*
X123311Y86388D01*
X123324Y86381D01*
X123331D01*
Y85841D01*
X123235Y85882D01*
X123133Y85930D01*
X123037Y85971D01*
X122949Y86019D01*
X122873Y86060D01*
X122812Y86094D01*
X122771Y86121D01*
X122764Y86128D01*
X122757D01*
X122641Y86196D01*
X122539Y86272D01*
X122450Y86333D01*
X122375Y86395D01*
X122313Y86442D01*
X122266Y86476D01*
X122238Y86504D01*
X122231Y86511D01*
Y83000D01*
X121678D01*
Y87508D01*
X122040D01*
X122102Y87398D01*
D02*
G37*
G36*
X117246Y87494D02*
X117403Y87467D01*
X117546Y87426D01*
X117662Y87378D01*
X117758Y87323D01*
X117826Y87282D01*
X117853Y87269D01*
X117874Y87255D01*
X117881Y87241D01*
X117888D01*
X118004Y87132D01*
X118099Y87016D01*
X118181Y86893D01*
X118250Y86770D01*
X118304Y86661D01*
X118325Y86613D01*
X118338Y86572D01*
X118352Y86538D01*
X118366Y86511D01*
X118373Y86497D01*
Y86490D01*
X118400Y86395D01*
X118427Y86299D01*
X118461Y86087D01*
X118489Y85875D01*
X118509Y85671D01*
X118516Y85575D01*
X118523Y85486D01*
Y85411D01*
X118530Y85343D01*
Y85288D01*
Y85247D01*
Y85220D01*
Y85213D01*
X118523Y84987D01*
X118509Y84769D01*
X118489Y84578D01*
X118461Y84393D01*
X118427Y84229D01*
X118393Y84079D01*
X118352Y83943D01*
X118311Y83826D01*
X118270Y83717D01*
X118229Y83628D01*
X118195Y83553D01*
X118161Y83492D01*
X118133Y83444D01*
X118113Y83410D01*
X118099Y83389D01*
X118093Y83382D01*
X118017Y83301D01*
X117942Y83232D01*
X117860Y83171D01*
X117771Y83116D01*
X117690Y83075D01*
X117601Y83034D01*
X117437Y82980D01*
X117362Y82966D01*
X117293Y82952D01*
X117232Y82938D01*
X117177Y82932D01*
X117130Y82925D01*
X117068D01*
X116891Y82938D01*
X116733Y82966D01*
X116597Y83007D01*
X116474Y83055D01*
X116385Y83102D01*
X116310Y83143D01*
X116289Y83164D01*
X116269Y83171D01*
X116262Y83184D01*
X116255D01*
X116139Y83294D01*
X116043Y83417D01*
X115962Y83540D01*
X115893Y83662D01*
X115839Y83772D01*
X115818Y83813D01*
X115798Y83854D01*
X115784Y83888D01*
X115777Y83915D01*
X115770Y83929D01*
Y83936D01*
X115743Y84031D01*
X115716Y84127D01*
X115675Y84339D01*
X115647Y84550D01*
X115627Y84755D01*
X115620Y84851D01*
X115613Y84940D01*
Y85015D01*
X115606Y85083D01*
Y85138D01*
Y85179D01*
Y85206D01*
Y85213D01*
X115613Y85452D01*
Y85554D01*
X115620Y85657D01*
X115627Y85752D01*
X115641Y85841D01*
X115647Y85916D01*
X115654Y85992D01*
X115668Y86053D01*
X115675Y86115D01*
X115682Y86162D01*
X115695Y86196D01*
X115702Y86231D01*
Y86251D01*
X115709Y86265D01*
Y86272D01*
X115750Y86415D01*
X115798Y86545D01*
X115846Y86661D01*
X115886Y86756D01*
X115927Y86832D01*
X115962Y86893D01*
X115982Y86927D01*
X115989Y86941D01*
X116057Y87037D01*
X116132Y87119D01*
X116207Y87194D01*
X116276Y87255D01*
X116344Y87296D01*
X116392Y87330D01*
X116426Y87351D01*
X116440Y87357D01*
X116542Y87405D01*
X116651Y87446D01*
X116761Y87474D01*
X116856Y87487D01*
X116938Y87501D01*
X117007Y87508D01*
X117068D01*
X117246Y87494D01*
D02*
G37*
G36*
X154763Y87549D02*
X154981Y87521D01*
X155186Y87474D01*
X155275Y87446D01*
X155357Y87426D01*
X155432Y87398D01*
X155500Y87371D01*
X155562Y87351D01*
X155610Y87323D01*
X155644Y87310D01*
X155678Y87296D01*
X155692Y87282D01*
X155699D01*
X155794Y87228D01*
X155876Y87166D01*
X156040Y87037D01*
X156170Y86900D01*
X156286Y86763D01*
X156368Y86634D01*
X156402Y86586D01*
X156436Y86538D01*
X156457Y86497D01*
X156470Y86470D01*
X156484Y86449D01*
Y86442D01*
X156573Y86231D01*
X156641Y86012D01*
X156689Y85807D01*
X156723Y85616D01*
X156737Y85534D01*
X156744Y85459D01*
X156750Y85391D01*
Y85329D01*
X156757Y85281D01*
Y85247D01*
Y85227D01*
Y85220D01*
X156744Y84981D01*
X156716Y84755D01*
X156668Y84550D01*
X156648Y84455D01*
X156621Y84373D01*
X156593Y84291D01*
X156573Y84223D01*
X156545Y84161D01*
X156525Y84113D01*
X156511Y84072D01*
X156498Y84045D01*
X156484Y84025D01*
Y84018D01*
X156368Y83833D01*
X156238Y83669D01*
X156108Y83526D01*
X155972Y83410D01*
X155856Y83321D01*
X155808Y83287D01*
X155760Y83259D01*
X155726Y83232D01*
X155692Y83219D01*
X155678Y83212D01*
X155671Y83205D01*
X155466Y83109D01*
X155255Y83041D01*
X155057Y82993D01*
X154865Y82959D01*
X154783Y82945D01*
X154708Y82938D01*
X154640Y82932D01*
X154578D01*
X154531Y82925D01*
X154469D01*
X154291Y82932D01*
X154114Y82952D01*
X153957Y82980D01*
X153813Y83014D01*
X153752Y83027D01*
X153691Y83041D01*
X153643Y83055D01*
X153602Y83068D01*
X153568Y83082D01*
X153540Y83089D01*
X153527Y83096D01*
X153520D01*
X153349Y83171D01*
X153178Y83253D01*
X153028Y83341D01*
X152891Y83424D01*
X152775Y83505D01*
X152727Y83533D01*
X152687Y83567D01*
X152652Y83587D01*
X152632Y83608D01*
X152618Y83615D01*
X152611Y83622D01*
Y85288D01*
X154510D01*
Y84762D01*
X153192D01*
Y83915D01*
X153274Y83854D01*
X153363Y83792D01*
X153451Y83738D01*
X153540Y83690D01*
X153622Y83649D01*
X153691Y83622D01*
X153718Y83608D01*
X153738Y83601D01*
X153745Y83594D01*
X153752D01*
X153889Y83546D01*
X154025Y83512D01*
X154155Y83485D01*
X154264Y83471D01*
X154360Y83458D01*
X154435Y83451D01*
X154503D01*
X154667Y83458D01*
X154824Y83478D01*
X154961Y83512D01*
X155091Y83546D01*
X155193Y83581D01*
X155241Y83601D01*
X155275Y83615D01*
X155302Y83622D01*
X155323Y83635D01*
X155336Y83642D01*
X155343D01*
X155480Y83724D01*
X155603Y83820D01*
X155705Y83922D01*
X155787Y84018D01*
X155849Y84106D01*
X155897Y84175D01*
X155917Y84202D01*
X155931Y84223D01*
X155938Y84236D01*
Y84243D01*
X156006Y84407D01*
X156054Y84571D01*
X156095Y84742D01*
X156115Y84906D01*
X156122Y84974D01*
X156129Y85042D01*
X156136Y85104D01*
Y85151D01*
X156142Y85199D01*
Y85227D01*
Y85247D01*
Y85254D01*
X156136Y85431D01*
X156115Y85602D01*
X156088Y85752D01*
X156054Y85889D01*
X156026Y85998D01*
X156013Y86046D01*
X155999Y86080D01*
X155985Y86115D01*
X155979Y86135D01*
X155972Y86149D01*
Y86155D01*
X155931Y86244D01*
X155890Y86326D01*
X155842Y86401D01*
X155794Y86470D01*
X155753Y86524D01*
X155719Y86565D01*
X155699Y86593D01*
X155692Y86599D01*
X155617Y86674D01*
X155541Y86736D01*
X155459Y86791D01*
X155384Y86839D01*
X155316Y86879D01*
X155261Y86907D01*
X155227Y86920D01*
X155214Y86927D01*
X155097Y86968D01*
X154981Y87002D01*
X154858Y87023D01*
X154749Y87043D01*
X154654Y87050D01*
X154578Y87057D01*
X154510D01*
X154387Y87050D01*
X154271Y87037D01*
X154169Y87016D01*
X154080Y86996D01*
X154005Y86975D01*
X153943Y86955D01*
X153909Y86941D01*
X153895Y86934D01*
X153793Y86886D01*
X153711Y86839D01*
X153636Y86784D01*
X153574Y86736D01*
X153527Y86688D01*
X153492Y86654D01*
X153472Y86627D01*
X153465Y86620D01*
X153410Y86538D01*
X153363Y86449D01*
X153322Y86360D01*
X153287Y86278D01*
X153260Y86196D01*
X153233Y86135D01*
X153226Y86094D01*
X153219Y86087D01*
Y86080D01*
X152680Y86231D01*
X152727Y86395D01*
X152782Y86538D01*
X152837Y86661D01*
X152891Y86763D01*
X152946Y86852D01*
X152987Y86914D01*
X153014Y86948D01*
X153021Y86961D01*
X153110Y87064D01*
X153212Y87146D01*
X153315Y87221D01*
X153417Y87282D01*
X153506Y87337D01*
X153574Y87371D01*
X153602Y87385D01*
X153622Y87392D01*
X153636Y87398D01*
X153643D01*
X153793Y87453D01*
X153943Y87494D01*
X154094Y87521D01*
X154223Y87542D01*
X154339Y87556D01*
X154394D01*
X154435Y87562D01*
X154517D01*
X154763Y87549D01*
D02*
G37*
G36*
X126432Y83000D02*
X125824D01*
X124069Y87487D01*
X124670D01*
X125886Y84229D01*
X125933Y84093D01*
X125981Y83956D01*
X126022Y83833D01*
X126056Y83724D01*
X126084Y83628D01*
X126104Y83553D01*
X126111Y83526D01*
X126118Y83505D01*
X126125Y83499D01*
Y83492D01*
X126200Y83751D01*
X126241Y83874D01*
X126282Y83990D01*
X126316Y84086D01*
X126336Y84161D01*
X126350Y84188D01*
X126357Y84209D01*
X126364Y84223D01*
Y84229D01*
X127525Y87487D01*
X128174D01*
X126432Y83000D01*
D02*
G37*
G36*
X151758D02*
X151184D01*
Y86818D01*
X149893Y83000D01*
X149360D01*
X148049Y86756D01*
Y83000D01*
X147475D01*
Y87487D01*
X148281D01*
X149353Y84366D01*
X149408Y84195D01*
X149463Y84052D01*
X149504Y83929D01*
X149531Y83826D01*
X149558Y83751D01*
X149579Y83697D01*
X149586Y83662D01*
X149592Y83649D01*
X149620Y83738D01*
X149654Y83847D01*
X149688Y83956D01*
X149722Y84066D01*
X149756Y84161D01*
X149784Y84236D01*
X149791Y84270D01*
X149797Y84291D01*
X149804Y84304D01*
Y84311D01*
X150870Y87487D01*
X151758D01*
Y83000D01*
D02*
G37*
%LPC*%
G36*
X158553Y86586D02*
Y84578D01*
X159960D01*
X158553Y86586D01*
D02*
G37*
G36*
X133446Y85875D02*
X133412D01*
X133337Y85869D01*
X133262Y85862D01*
X133132Y85828D01*
X133016Y85773D01*
X132914Y85711D01*
X132838Y85650D01*
X132777Y85602D01*
X132743Y85561D01*
X132729Y85554D01*
Y85548D01*
X132668Y85466D01*
X132627Y85363D01*
X132586Y85261D01*
X132559Y85165D01*
X132538Y85076D01*
X132524Y85001D01*
Y84974D01*
X132518Y84953D01*
Y84940D01*
Y84933D01*
X134334D01*
X134314Y85083D01*
X134280Y85220D01*
X134232Y85336D01*
X134184Y85431D01*
X134136Y85513D01*
X134095Y85568D01*
X134068Y85602D01*
X134054Y85616D01*
X133952Y85705D01*
X133843Y85766D01*
X133740Y85814D01*
X133638Y85841D01*
X133549Y85862D01*
X133474Y85869D01*
X133446Y85875D01*
D02*
G37*
G36*
X145317Y85869D02*
X145201D01*
X145133Y85855D01*
X145003Y85821D01*
X144887Y85766D01*
X144784Y85711D01*
X144709Y85657D01*
X144648Y85602D01*
X144613Y85568D01*
X144600Y85561D01*
Y85554D01*
X144504Y85425D01*
X144436Y85281D01*
X144388Y85124D01*
X144354Y84981D01*
X144333Y84844D01*
X144327Y84790D01*
Y84742D01*
X144320Y84694D01*
Y84667D01*
Y84646D01*
Y84639D01*
Y84523D01*
X144333Y84414D01*
X144347Y84311D01*
X144361Y84223D01*
X144381Y84134D01*
X144409Y84052D01*
X144429Y83983D01*
X144456Y83922D01*
X144484Y83867D01*
X144504Y83820D01*
X144532Y83779D01*
X144552Y83745D01*
X144566Y83717D01*
X144579Y83697D01*
X144593Y83690D01*
Y83683D01*
X144648Y83628D01*
X144702Y83581D01*
X144811Y83505D01*
X144928Y83451D01*
X145037Y83417D01*
X145133Y83389D01*
X145208Y83382D01*
X145235Y83376D01*
X145276D01*
X145351Y83382D01*
X145426Y83389D01*
X145556Y83424D01*
X145679Y83471D01*
X145774Y83533D01*
X145856Y83587D01*
X145918Y83635D01*
X145952Y83669D01*
X145966Y83683D01*
X146014Y83745D01*
X146054Y83813D01*
X146123Y83963D01*
X146164Y84120D01*
X146198Y84270D01*
X146219Y84407D01*
X146225Y84468D01*
Y84516D01*
X146232Y84557D01*
Y84591D01*
Y84612D01*
Y84619D01*
Y84735D01*
X146219Y84837D01*
X146205Y84940D01*
X146191Y85028D01*
X146171Y85117D01*
X146150Y85192D01*
X146123Y85261D01*
X146096Y85322D01*
X146075Y85377D01*
X146048Y85425D01*
X146027Y85466D01*
X146007Y85500D01*
X145993Y85520D01*
X145979Y85541D01*
X145966Y85554D01*
X145911Y85609D01*
X145856Y85657D01*
X145740Y85739D01*
X145624Y85794D01*
X145515Y85828D01*
X145419Y85855D01*
X145344Y85862D01*
X145317Y85869D01*
D02*
G37*
G36*
X117109Y87050D02*
X117075D01*
X117007Y87043D01*
X116938Y87037D01*
X116815Y86996D01*
X116706Y86934D01*
X116610Y86866D01*
X116535Y86797D01*
X116481Y86736D01*
X116446Y86695D01*
X116433Y86688D01*
Y86681D01*
X116385Y86606D01*
X116344Y86517D01*
X116310Y86415D01*
X116283Y86299D01*
X116235Y86060D01*
X116207Y85814D01*
X116194Y85691D01*
X116187Y85582D01*
X116180Y85479D01*
Y85391D01*
X116173Y85315D01*
Y85261D01*
Y85227D01*
Y85213D01*
Y85015D01*
X116187Y84830D01*
X116194Y84667D01*
X116214Y84516D01*
X116235Y84380D01*
X116255Y84257D01*
X116276Y84154D01*
X116303Y84059D01*
X116330Y83983D01*
X116351Y83915D01*
X116371Y83854D01*
X116392Y83813D01*
X116405Y83779D01*
X116419Y83758D01*
X116433Y83745D01*
Y83738D01*
X116481Y83676D01*
X116535Y83622D01*
X116590Y83567D01*
X116645Y83526D01*
X116747Y83464D01*
X116850Y83424D01*
X116938Y83396D01*
X117007Y83382D01*
X117034Y83376D01*
X117068D01*
X117136Y83382D01*
X117205Y83389D01*
X117328Y83430D01*
X117437Y83492D01*
X117533Y83560D01*
X117608Y83622D01*
X117662Y83683D01*
X117696Y83724D01*
X117710Y83731D01*
Y83738D01*
X117751Y83813D01*
X117792Y83908D01*
X117826Y84011D01*
X117853Y84120D01*
X117901Y84366D01*
X117929Y84612D01*
X117942Y84728D01*
X117949Y84844D01*
X117956Y84947D01*
Y85035D01*
X117963Y85110D01*
Y85165D01*
Y85199D01*
Y85213D01*
Y85411D01*
X117949Y85595D01*
X117935Y85759D01*
X117922Y85910D01*
X117894Y86053D01*
X117874Y86176D01*
X117847Y86285D01*
X117819Y86381D01*
X117799Y86463D01*
X117771Y86538D01*
X117744Y86593D01*
X117724Y86640D01*
X117710Y86674D01*
X117696Y86702D01*
X117683Y86716D01*
Y86722D01*
X117642Y86777D01*
X117594Y86832D01*
X117491Y86914D01*
X117389Y86968D01*
X117293Y87009D01*
X117205Y87037D01*
X117136Y87043D01*
X117109Y87050D01*
D02*
G37*
G36*
X141922Y85869D02*
X141820D01*
X141752Y85855D01*
X141629Y85821D01*
X141519Y85766D01*
X141431Y85711D01*
X141356Y85657D01*
X141301Y85602D01*
X141267Y85568D01*
X141253Y85561D01*
Y85554D01*
X141205Y85493D01*
X141164Y85425D01*
X141103Y85268D01*
X141055Y85104D01*
X141028Y84947D01*
X141007Y84796D01*
X141000Y84735D01*
Y84680D01*
X140993Y84632D01*
Y84598D01*
Y84578D01*
Y84571D01*
Y84462D01*
X141007Y84359D01*
X141014Y84263D01*
X141034Y84175D01*
X141055Y84093D01*
X141076Y84018D01*
X141096Y83949D01*
X141116Y83895D01*
X141144Y83840D01*
X141164Y83792D01*
X141185Y83758D01*
X141205Y83724D01*
X141226Y83704D01*
X141233Y83683D01*
X141246Y83676D01*
Y83669D01*
X141294Y83615D01*
X141342Y83574D01*
X141451Y83499D01*
X141554Y83451D01*
X141649Y83410D01*
X141731Y83389D01*
X141799Y83382D01*
X141827Y83376D01*
X141861D01*
X141929Y83382D01*
X141991Y83389D01*
X142114Y83424D01*
X142216Y83471D01*
X142305Y83533D01*
X142380Y83587D01*
X142435Y83635D01*
X142469Y83669D01*
X142482Y83683D01*
X142530Y83745D01*
X142571Y83813D01*
X142633Y83956D01*
X142681Y84113D01*
X142708Y84263D01*
X142728Y84407D01*
X142735Y84462D01*
Y84516D01*
X142742Y84557D01*
Y84591D01*
Y84612D01*
Y84619D01*
Y84735D01*
X142728Y84844D01*
X142721Y84947D01*
X142701Y85042D01*
X142687Y85124D01*
X142667Y85206D01*
X142640Y85274D01*
X142619Y85336D01*
X142599Y85391D01*
X142571Y85438D01*
X142551Y85479D01*
X142537Y85513D01*
X142517Y85534D01*
X142510Y85554D01*
X142496Y85568D01*
X142448Y85623D01*
X142401Y85671D01*
X142298Y85739D01*
X142196Y85794D01*
X142100Y85834D01*
X142018Y85855D01*
X141950Y85862D01*
X141922Y85869D01*
D02*
G37*
%LPD*%
D24*
X176724Y52000D02*
Y112000D01*
X167276Y52000D02*
X176724D01*
X167276D02*
Y112000D01*
X176724D01*
X276D02*
X9724D01*
X276Y42000D02*
Y112000D01*
Y42000D02*
X9724D01*
Y112000D01*
D46*
X160043Y48500D02*
G03*
X160043Y48500I-500J0D01*
G01*
Y33500D02*
G03*
X160043Y33500I-500J0D01*
G01*
X39865Y62391D02*
G03*
X39865Y67341I-2475J2475D01*
G01*
X27915D02*
G03*
X27915Y62391I2475J-2475D01*
G01*
X21063Y100024D02*
G03*
X21063Y100024I-500J0D01*
G01*
X37063Y100024D02*
G03*
X37063Y100024I-500J0D01*
G01*
X123384Y15309D02*
G03*
X123384Y20258I-2475J2475D01*
G01*
X111435D02*
G03*
X111435Y15309I2475J-2475D01*
G01*
X106588Y104765D02*
G03*
X111538Y104765I2475J2475D01*
G01*
Y116715D02*
G03*
X106588Y116715I-2475J-2475D01*
G01*
X53415Y12765D02*
G03*
X58365Y12765I2475J2475D01*
G01*
Y24715D02*
G03*
X53415Y24715I-2475J-2475D01*
G01*
X36365Y42849D02*
G03*
X31415Y42849I-2475J-2475D01*
G01*
Y30899D02*
G03*
X36365Y30899I2475J2475D01*
G01*
X77365Y9265D02*
G03*
X77365Y14215I-2475J2475D01*
G01*
X65415D02*
G03*
X65415Y9265I2475J-2475D01*
G01*
X81415Y20215D02*
G03*
X81415Y15265I2475J-2475D01*
G01*
X93365D02*
G03*
X93365Y20215I-2475J2475D01*
G01*
X81415Y14215D02*
G03*
X81415Y9265I2475J-2475D01*
G01*
X93365D02*
G03*
X93365Y14215I-2475J2475D01*
G01*
X54112Y94265D02*
G03*
X59061Y94265I2475J2475D01*
G01*
Y106215D02*
G03*
X54112Y106215I-2475J-2475D01*
G01*
X140025Y136525D02*
G03*
X144975Y136525I2475J2475D01*
G01*
Y148475D02*
G03*
X140025Y148475I-2475J-2475D01*
G01*
X142025Y159294D02*
G03*
X142025Y154344I2475J-2475D01*
G01*
X153975D02*
G03*
X153975Y159294I-2475J2475D01*
G01*
X142025Y171294D02*
G03*
X142025Y166344I2475J-2475D01*
G01*
X153975D02*
G03*
X153975Y171294I-2475J2475D01*
G01*
X142025Y165294D02*
G03*
X142025Y160344I2475J-2475D01*
G01*
X153975D02*
G03*
X153975Y165294I-2475J2475D01*
G01*
X58865Y121412D02*
G03*
X53915Y121412I-2475J-2475D01*
G01*
Y109462D02*
G03*
X58865Y109462I2475J2475D01*
G01*
X160799Y54852D02*
Y58146D01*
X159224D02*
X160799D01*
Y46335D02*
Y49628D01*
X159224Y46335D02*
X160799D01*
X144500Y45500D02*
Y58500D01*
X149500Y45500D02*
Y58500D01*
X144500Y45500D02*
X149500D01*
X144500Y58500D02*
X149500D01*
X143000Y45500D02*
Y58500D01*
X138000Y45500D02*
Y58500D01*
X143000D01*
X138000Y45500D02*
X143000D01*
X16890Y30874D02*
Y35874D01*
X29890Y30874D02*
Y35874D01*
X16890D02*
X29890D01*
X16890Y30874D02*
X29890D01*
X143000Y30500D02*
Y43500D01*
X138000Y30500D02*
Y43500D01*
X143000D01*
X138000Y30500D02*
X143000D01*
X160799Y39852D02*
Y43146D01*
X159224D02*
X160799D01*
Y31335D02*
Y34628D01*
X159224Y31335D02*
X160799D01*
X144500Y30500D02*
Y43500D01*
X149500Y30500D02*
Y43500D01*
X144500Y30500D02*
X149500D01*
X144500Y43500D02*
X149500D01*
X27990Y62366D02*
X39790D01*
X27990Y67366D02*
X39790D01*
X26915Y98768D02*
X30209D01*
Y100343D01*
X18398Y98768D02*
X21691D01*
X18398D02*
Y100343D01*
X17563Y115740D02*
X30563D01*
X17563Y110740D02*
X30563D01*
X17563D02*
Y115740D01*
X30563Y110740D02*
Y115740D01*
X17563Y117240D02*
X30563D01*
X17563Y122240D02*
X30563D01*
Y117240D02*
Y122240D01*
X17563Y117240D02*
Y122240D01*
X42915Y98768D02*
X46209D01*
Y100343D01*
X34398Y98768D02*
X37691D01*
X34398D02*
Y100343D01*
X33563Y117240D02*
X46563D01*
X33563Y122240D02*
X46563D01*
Y117240D02*
Y122240D01*
X33563Y117240D02*
Y122240D01*
Y115740D02*
X46563D01*
X33563Y110740D02*
X46563D01*
X33563D02*
Y115740D01*
X46563Y110740D02*
Y115740D01*
X111510Y15283D02*
X123310D01*
X111510Y20283D02*
X123310D01*
X106563Y104840D02*
Y116640D01*
X111563Y104840D02*
Y116640D01*
X47390Y12240D02*
Y25240D01*
X52390Y12240D02*
Y25240D01*
X47390Y12240D02*
X52390D01*
X47390Y25240D02*
X52390D01*
X42890Y30374D02*
Y43374D01*
X37890Y30374D02*
Y43374D01*
X42890D01*
X37890Y30374D02*
X42890D01*
X53390Y12840D02*
Y24640D01*
X58390Y12840D02*
Y24640D01*
X36390Y30974D02*
Y42774D01*
X31390Y30974D02*
Y42774D01*
X65490Y9240D02*
X77290D01*
X65490Y14240D02*
X77290D01*
X64890Y15240D02*
X77890D01*
X64890Y20240D02*
X77890D01*
Y15240D02*
Y20240D01*
X64890Y15240D02*
Y20240D01*
X81490D02*
X93290D01*
X81490Y15240D02*
X93290D01*
X81490Y14240D02*
X93290D01*
X81490Y9240D02*
X93290D01*
X92087Y97240D02*
X105087D01*
X92087Y102240D02*
X105087D01*
Y97240D02*
Y102240D01*
X92087Y97240D02*
Y102240D01*
X54087Y94340D02*
Y106140D01*
X59087Y94340D02*
Y106140D01*
X140000Y136600D02*
Y148400D01*
X145000Y136600D02*
Y148400D01*
X161000Y147000D02*
Y148000D01*
X147000Y147000D02*
Y148000D01*
X161000Y139000D02*
Y143000D01*
X147000Y147000D02*
X160988D01*
X147000Y113000D02*
Y147000D01*
Y113000D02*
X161000D01*
Y147000D01*
X147000Y148000D02*
X161000D01*
X94609Y155902D02*
X135329D01*
X94609Y138579D02*
X135329D01*
Y155902D01*
X94609Y138579D02*
Y155902D01*
X137199Y138579D02*
Y155902D01*
X135329Y138579D02*
X137199D01*
X135329Y155902D02*
X137199D01*
X94609Y174902D02*
X135329D01*
X94609Y157579D02*
X135329D01*
Y174902D01*
X94609Y157579D02*
Y174902D01*
X137199Y157579D02*
Y174902D01*
X135329Y157579D02*
X137199D01*
X135329Y174902D02*
X137199D01*
X37390Y136240D02*
X42390D01*
X37390Y149240D02*
X42390D01*
X37390Y136240D02*
Y149240D01*
X42390Y136240D02*
Y149240D01*
X142100Y159319D02*
X153900D01*
X142100Y154319D02*
X153900D01*
X142100Y171319D02*
X153900D01*
X142100Y166319D02*
X153900D01*
X142100Y165319D02*
X153900D01*
X142100Y160319D02*
X153900D01*
X85508Y133366D02*
Y146366D01*
X90508Y133366D02*
Y146366D01*
X85508Y133366D02*
X90508D01*
X85508Y146366D02*
X90508D01*
X58890Y109537D02*
Y121337D01*
X53890Y109537D02*
Y121337D01*
D48*
X63012Y110012D02*
G03*
X63012Y115917I-2953J2953D01*
G01*
X68011Y138000D02*
G03*
X68011Y138000I-3000J0D01*
G01*
X83011Y148000D02*
G03*
X83011Y148000I-3000J0D01*
G01*
X96235Y126894D02*
G03*
X96235Y126894I-3000J0D01*
G01*
X73011Y148000D02*
G03*
X73011Y148000I-3000J0D01*
G01*
X78011Y138000D02*
G03*
X78011Y138000I-3000J0D01*
G01*
X63011Y148000D02*
G03*
X63011Y148000I-3000J0D01*
G01*
X105235Y126894D02*
G03*
X105235Y126894I-3000J0D01*
G01*
X63012Y104106D02*
X88996D01*
X63012Y121823D02*
X88996D01*
Y104106D02*
Y121823D01*
X63012Y115917D02*
Y121823D01*
Y104106D02*
Y110012D01*
D49*
X47039Y27362D02*
X103732D01*
X57276Y84055D02*
Y91732D01*
X47039D02*
X57276D01*
Y84055D02*
X93496D01*
Y91732D01*
X103732D01*
Y27362D02*
Y91732D01*
X47039Y27362D02*
Y91732D01*
X132253Y126319D02*
X133674Y127740D01*
X132253Y136161D02*
X133614Y134800D01*
X132193Y136161D02*
X132253D01*
X133614Y133800D02*
Y134740D01*
X130063Y126319D02*
X132253D01*
X133674Y127740D02*
Y134740D01*
X132193Y126319D02*
Y136161D01*
X110933Y126319D02*
Y136140D01*
Y136161D02*
X132193D01*
X110933Y126319D02*
X132193D01*
D50*
X109590Y48146D02*
X131690D01*
Y36335D02*
Y48146D01*
X109590Y36335D02*
X131690D01*
X110990D02*
Y48146D01*
X109590Y36335D02*
Y48146D01*
X124669Y96783D02*
Y118883D01*
X112858Y96783D02*
X124669D01*
X112858D02*
Y118883D01*
Y117483D02*
X124669D01*
X112858Y118883D02*
X124669D01*
X137795Y96840D02*
Y118940D01*
X125984Y96840D02*
X137795D01*
X125984D02*
Y118940D01*
Y117540D02*
X137795D01*
X125984Y118940D02*
X137795D01*
X109590Y22835D02*
Y34646D01*
X110990Y22835D02*
Y34646D01*
X109590Y22835D02*
X131690D01*
Y34646D01*
X109590D02*
X131690D01*
X89000Y157000D02*
X85501D01*
Y155251D01*
X86084Y154667D01*
X87251D01*
X87834Y155251D01*
Y157000D01*
Y155834D02*
X89000Y154667D01*
Y151169D02*
Y153501D01*
X86667Y151169D01*
X86084D01*
X85501Y151752D01*
Y152918D01*
X86084Y153501D01*
Y150002D02*
X85501Y149419D01*
Y148253D01*
X86084Y147670D01*
X88417D01*
X89000Y148253D01*
Y149419D01*
X88417Y150002D01*
X86084D01*
X172667Y117499D02*
X173834D01*
X173251D01*
Y114583D01*
X173834Y114000D01*
X174417D01*
X175000Y114583D01*
X169169Y117499D02*
X170335Y116916D01*
X171501Y115749D01*
Y114583D01*
X170918Y114000D01*
X169752D01*
X169169Y114583D01*
Y115166D01*
X169752Y115749D01*
X171501D01*
X5675Y36999D02*
X6842D01*
X6258D01*
Y34083D01*
X6842Y33500D01*
X7425D01*
X8008Y34083D01*
X2760Y33500D02*
Y36999D01*
X4509Y35249D01*
X2176D01*
X55124Y130061D02*
X54540Y130644D01*
Y131811D01*
X55124Y132394D01*
X57456D01*
X58039Y131811D01*
Y130644D01*
X57456Y130061D01*
X58039Y128895D02*
Y127728D01*
Y128312D01*
X54540D01*
X55124Y128895D01*
X54540Y125979D02*
Y123646D01*
X55124D01*
X57456Y125979D01*
X58039D01*
X41439Y159494D02*
X37940D01*
Y157744D01*
X38524Y157161D01*
X39690D01*
X40273Y157744D01*
Y159494D01*
Y158327D02*
X41439Y157161D01*
Y153662D02*
Y155995D01*
X39107Y153662D01*
X38524D01*
X37940Y154245D01*
Y155412D01*
X38524Y155995D01*
X41439Y150163D02*
Y152496D01*
X39107Y150163D01*
X38524D01*
X37940Y150747D01*
Y151913D01*
X38524Y152496D01*
X139000Y133499D02*
Y130000D01*
X137251D01*
X136667Y130583D01*
Y132916D01*
X137251Y133499D01*
X139000D01*
X135501Y130000D02*
X134335D01*
X134918D01*
Y133499D01*
X135501Y132916D01*
X159467Y157828D02*
X160051Y158411D01*
X161217D01*
X161800Y157828D01*
Y155495D01*
X161217Y154912D01*
X160051D01*
X159467Y155495D01*
X158301Y158411D02*
X155969D01*
Y157828D01*
X158301Y155495D01*
Y154912D01*
X159767Y164228D02*
X160351Y164811D01*
X161517D01*
X162100Y164228D01*
Y161895D01*
X161517Y161312D01*
X160351D01*
X159767Y161895D01*
X156269Y164811D02*
X157435Y164228D01*
X158601Y163061D01*
Y161895D01*
X158018Y161312D01*
X156852D01*
X156269Y161895D01*
Y162478D01*
X156852Y163061D01*
X158601D01*
X159667Y170416D02*
X160251Y170999D01*
X161417D01*
X162000Y170416D01*
Y168083D01*
X161417Y167500D01*
X160251D01*
X159667Y168083D01*
X156169Y170999D02*
X158501D01*
Y169249D01*
X157335Y169833D01*
X156752D01*
X156169Y169249D01*
Y168083D01*
X156752Y167500D01*
X157918D01*
X158501Y168083D01*
X59001Y130000D02*
X61917D01*
X62500Y129417D01*
Y128251D01*
X61917Y127667D01*
X59001D01*
X59584Y126501D02*
X59001Y125918D01*
Y124752D01*
X59584Y124169D01*
X60167D01*
X60751Y124752D01*
Y125335D01*
Y124752D01*
X61334Y124169D01*
X61917D01*
X62500Y124752D01*
Y125918D01*
X61917Y126501D01*
X101987Y103440D02*
Y106939D01*
X100237D01*
X99654Y106356D01*
Y105190D01*
X100237Y104606D01*
X101987D01*
X100820D02*
X99654Y103440D01*
X96155D02*
X98488D01*
X96155Y105773D01*
Y106356D01*
X96738Y106939D01*
X97905D01*
X98488Y106356D01*
X94989Y103440D02*
X93823D01*
X94406D01*
Y106939D01*
X94989Y106356D01*
X51003Y116535D02*
X47504D01*
Y114786D01*
X48087Y114202D01*
X49253D01*
X49837Y114786D01*
Y116535D01*
Y115369D02*
X51003Y114202D01*
Y113036D02*
Y111870D01*
Y112453D01*
X47504D01*
X48087Y113036D01*
Y110120D02*
X47504Y109537D01*
Y108371D01*
X48087Y107788D01*
X48670D01*
X49253Y108371D01*
X49837Y107788D01*
X50420D01*
X51003Y108371D01*
Y109537D01*
X50420Y110120D01*
X49837D01*
X49253Y109537D01*
X48670Y110120D01*
X48087D01*
X49253Y109537D02*
Y108371D01*
X44000Y123500D02*
Y126999D01*
X42251D01*
X41667Y126416D01*
Y125249D01*
X42251Y124666D01*
X44000D01*
X42834D02*
X41667Y123500D01*
X40501D02*
X39335D01*
X39918D01*
Y126999D01*
X40501Y126416D01*
X37585Y126999D02*
X35253D01*
Y126416D01*
X37585Y124083D01*
Y123500D01*
X27890Y36874D02*
Y40373D01*
X26140D01*
X25557Y39790D01*
Y38623D01*
X26140Y38040D01*
X27890D01*
X26724D02*
X25557Y36874D01*
X24391D02*
X23225D01*
X23808D01*
Y40373D01*
X24391Y39790D01*
X19143Y40373D02*
X20309Y39790D01*
X21475Y38623D01*
Y37457D01*
X20892Y36874D01*
X19726D01*
X19143Y37457D01*
Y38040D01*
X19726Y38623D01*
X21475D01*
X16063Y115500D02*
X12564D01*
Y113751D01*
X13147Y113167D01*
X14314D01*
X14897Y113751D01*
Y115500D01*
Y114334D02*
X16063Y113167D01*
Y112001D02*
Y110835D01*
Y111418D01*
X12564D01*
X13147Y112001D01*
X12564Y106753D02*
Y109085D01*
X14314D01*
X13730Y107919D01*
Y107336D01*
X14314Y106753D01*
X15480D01*
X16063Y107336D01*
Y108502D01*
X15480Y109085D01*
X28500Y123500D02*
Y126999D01*
X26751D01*
X26167Y126416D01*
Y125249D01*
X26751Y124666D01*
X28500D01*
X27334D02*
X26167Y123500D01*
X25001D02*
X23835D01*
X24418D01*
Y126999D01*
X25001Y126416D01*
X20336Y123500D02*
Y126999D01*
X22085Y125249D01*
X19753D01*
X40207Y90477D02*
Y92809D01*
X40790Y93393D01*
X41956D01*
X42539Y92809D01*
Y90477D01*
X41956Y89894D01*
X40790D01*
X41373Y91060D02*
X40207Y89894D01*
X40790D02*
X40207Y90477D01*
X36708Y93393D02*
X39040D01*
Y91643D01*
X37874Y92226D01*
X37291D01*
X36708Y91643D01*
Y90477D01*
X37291Y89894D01*
X38457D01*
X39040Y90477D01*
X22707D02*
Y92809D01*
X23290Y93393D01*
X24456D01*
X25039Y92809D01*
Y90477D01*
X24456Y89894D01*
X23290D01*
X23873Y91060D02*
X22707Y89894D01*
X23290D02*
X22707Y90477D01*
X19791Y89894D02*
Y93393D01*
X21541Y91643D01*
X19208D01*
X109667Y62499D02*
X110834D01*
X110251D01*
Y59583D01*
X110834Y59000D01*
X111417D01*
X112000Y59583D01*
X108501Y59000D02*
X107335D01*
X107918D01*
Y62499D01*
X108501Y61916D01*
X47501Y11000D02*
X51000D01*
Y9251D01*
X50417Y8667D01*
X48084D01*
X47501Y9251D01*
Y11000D01*
X51000Y5752D02*
X47501D01*
X49251Y7501D01*
Y5169D01*
X39040Y52394D02*
X42539D01*
Y50644D01*
X41956Y50061D01*
X39624D01*
X39040Y50644D01*
Y52394D01*
X39624Y48895D02*
X39040Y48312D01*
Y47145D01*
X39624Y46562D01*
X40207D01*
X40790Y47145D01*
Y47729D01*
Y47145D01*
X41373Y46562D01*
X41956D01*
X42539Y47145D01*
Y48312D01*
X41956Y48895D01*
X75390Y24739D02*
Y21240D01*
X73640D01*
X73057Y21823D01*
Y24156D01*
X73640Y24739D01*
X75390D01*
X69558Y21240D02*
X71891D01*
X69558Y23573D01*
Y24156D01*
X70142Y24739D01*
X71308D01*
X71891Y24156D01*
X132207Y19309D02*
X132790Y19893D01*
X133956D01*
X134539Y19309D01*
Y16977D01*
X133956Y16394D01*
X132790D01*
X132207Y16977D01*
X128708Y16394D02*
X131041D01*
X128708Y18726D01*
Y19309D01*
X129291Y19893D01*
X130457D01*
X131041Y19309D01*
X125792Y16394D02*
Y19893D01*
X127542Y18143D01*
X125209D01*
X108171Y99908D02*
X107588Y100491D01*
Y101657D01*
X108171Y102240D01*
X110503D01*
X111087Y101657D01*
Y100491D01*
X110503Y99908D01*
X111087Y96409D02*
Y98741D01*
X108754Y96409D01*
X108171D01*
X107588Y96992D01*
Y98158D01*
X108171Y98741D01*
Y95242D02*
X107588Y94659D01*
Y93493D01*
X108171Y92910D01*
X108754D01*
X109337Y93493D01*
Y94076D01*
Y93493D01*
X109920Y92910D01*
X110503D01*
X111087Y93493D01*
Y94659D01*
X110503Y95242D01*
X133667Y93416D02*
X134251Y93999D01*
X135417D01*
X136000Y93416D01*
Y91083D01*
X135417Y90500D01*
X134251D01*
X133667Y91083D01*
X130169Y90500D02*
X132501D01*
X130169Y92833D01*
Y93416D01*
X130752Y93999D01*
X131918D01*
X132501Y93416D01*
X126670Y90500D02*
X129002D01*
X126670Y92833D01*
Y93416D01*
X127253Y93999D01*
X128419D01*
X129002Y93416D01*
X121167Y93428D02*
X121751Y94011D01*
X122917D01*
X123500Y93428D01*
Y91095D01*
X122917Y90512D01*
X121751D01*
X121167Y91095D01*
X117669Y90512D02*
X120001D01*
X117669Y92844D01*
Y93428D01*
X118252Y94011D01*
X119418D01*
X120001Y93428D01*
X116502Y90512D02*
X115336D01*
X115919D01*
Y94011D01*
X116502Y93428D01*
X122167Y52416D02*
X122751Y52999D01*
X123917D01*
X124500Y52416D01*
Y50083D01*
X123917Y49500D01*
X122751D01*
X122167Y50083D01*
X118669Y49500D02*
X121001D01*
X118669Y51833D01*
Y52416D01*
X119252Y52999D01*
X120418D01*
X121001Y52416D01*
X117502D02*
X116919Y52999D01*
X115753D01*
X115170Y52416D01*
Y50083D01*
X115753Y49500D01*
X116919D01*
X117502Y50083D01*
Y52416D01*
X105584Y30667D02*
X105001Y31251D01*
Y32417D01*
X105584Y33000D01*
X107917D01*
X108500Y32417D01*
Y31251D01*
X107917Y30667D01*
X108500Y29501D02*
Y28335D01*
Y28918D01*
X105001D01*
X105584Y29501D01*
X107917Y26585D02*
X108500Y26002D01*
Y24836D01*
X107917Y24253D01*
X105584D01*
X105001Y24836D01*
Y26002D01*
X105584Y26585D01*
X106167D01*
X106751Y26002D01*
Y24253D01*
X49584Y102667D02*
X49001Y103251D01*
Y104417D01*
X49584Y105000D01*
X51917D01*
X52500Y104417D01*
Y103251D01*
X51917Y102667D01*
X52500Y101501D02*
Y100335D01*
Y100918D01*
X49001D01*
X49584Y101501D01*
Y98585D02*
X49001Y98002D01*
Y96836D01*
X49584Y96253D01*
X50167D01*
X50751Y96836D01*
X51334Y96253D01*
X51917D01*
X52500Y96836D01*
Y98002D01*
X51917Y98585D01*
X51334D01*
X50751Y98002D01*
X50167Y98585D01*
X49584D01*
X50751Y98002D02*
Y96836D01*
X54584Y8667D02*
X54001Y9251D01*
Y10417D01*
X54584Y11000D01*
X56917D01*
X57500Y10417D01*
Y9251D01*
X56917Y8667D01*
X57500Y7501D02*
Y6335D01*
Y6918D01*
X54001D01*
X54584Y7501D01*
X57500Y2253D02*
Y4585D01*
X55167Y2253D01*
X54584D01*
X54001Y2836D01*
Y4002D01*
X54584Y4585D01*
X32749Y50231D02*
X32166Y50814D01*
Y51980D01*
X32749Y52564D01*
X35082D01*
X35665Y51980D01*
Y50814D01*
X35082Y50231D01*
X35665Y49065D02*
Y47898D01*
Y48482D01*
X32166D01*
X32749Y49065D01*
X35665Y46149D02*
Y44983D01*
Y45566D01*
X32166D01*
X32749Y46149D01*
X73557Y7656D02*
X74140Y8239D01*
X75307D01*
X75890Y7656D01*
Y5323D01*
X75307Y4740D01*
X74140D01*
X73557Y5323D01*
X72391Y4740D02*
X71225D01*
X71808D01*
Y8239D01*
X72391Y7656D01*
X69475D02*
X68892Y8239D01*
X67726D01*
X67143Y7656D01*
Y5323D01*
X67726Y4740D01*
X68892D01*
X69475Y5323D01*
Y7656D01*
X99667Y19416D02*
X100251Y19999D01*
X101417D01*
X102000Y19416D01*
Y17083D01*
X101417Y16500D01*
X100251D01*
X99667Y17083D01*
X98501D02*
X97918Y16500D01*
X96752D01*
X96169Y17083D01*
Y19416D01*
X96752Y19999D01*
X97918D01*
X98501Y19416D01*
Y18833D01*
X97918Y18249D01*
X96169D01*
X142084Y132167D02*
X141501Y132751D01*
Y133917D01*
X142084Y134500D01*
X144417D01*
X145000Y133917D01*
Y132751D01*
X144417Y132167D01*
X142084Y131001D02*
X141501Y130418D01*
Y129252D01*
X142084Y128669D01*
X142667D01*
X143251Y129252D01*
X143834Y128669D01*
X144417D01*
X145000Y129252D01*
Y130418D01*
X144417Y131001D01*
X143834D01*
X143251Y130418D01*
X142667Y131001D01*
X142084D01*
X143251Y130418D02*
Y129252D01*
X90667Y167416D02*
X91251Y167999D01*
X92417D01*
X93000Y167416D01*
Y165083D01*
X92417Y164500D01*
X91251D01*
X90667Y165083D01*
X87752Y164500D02*
Y167999D01*
X89501Y166249D01*
X87169D01*
X90584Y151667D02*
X90001Y152251D01*
Y153417D01*
X90584Y154000D01*
X92917D01*
X93500Y153417D01*
Y152251D01*
X92917Y151667D01*
X90584Y150501D02*
X90001Y149918D01*
Y148752D01*
X90584Y148169D01*
X91167D01*
X91751Y148752D01*
Y149335D01*
Y148752D01*
X92334Y148169D01*
X92917D01*
X93500Y148752D01*
Y149918D01*
X92917Y150501D01*
X99557Y13156D02*
X100140Y13739D01*
X101307D01*
X101890Y13156D01*
Y10823D01*
X101307Y10240D01*
X100140D01*
X99557Y10823D01*
X96058Y10240D02*
X98391D01*
X96058Y12573D01*
Y13156D01*
X96641Y13739D01*
X97808D01*
X98391Y13156D01*
X165167Y137916D02*
X165751Y138499D01*
X166917D01*
X167500Y137916D01*
Y135583D01*
X166917Y135000D01*
X165751D01*
X165167Y135583D01*
X164001Y135000D02*
X162835D01*
X163418D01*
Y138499D01*
X164001Y137916D01*
X101500Y122500D02*
X98001D01*
Y120751D01*
X98584Y120167D01*
X99751D01*
X100334Y120751D01*
Y122500D01*
Y121334D02*
X101500Y120167D01*
X98001Y119001D02*
Y116669D01*
Y117835D01*
X101500D01*
X98584Y113170D02*
X98001Y113753D01*
Y114919D01*
X98584Y115502D01*
X99167D01*
X99751Y114919D01*
Y113753D01*
X100334Y113170D01*
X100917D01*
X101500Y113753D01*
Y114919D01*
X100917Y115502D01*
X58001Y162000D02*
Y159667D01*
Y160834D01*
X61500D01*
X58001Y158501D02*
X61500Y156169D01*
X58001D02*
X61500Y158501D01*
X58001Y155002D02*
X61500D01*
Y153253D01*
X60917Y152670D01*
X58584D01*
X58001Y153253D01*
Y155002D01*
X79500Y133699D02*
Y130200D01*
X77751D01*
X77167Y130783D01*
Y133116D01*
X77751Y133699D01*
X79500D01*
X73669Y133116D02*
X74252Y133699D01*
X75418D01*
X76001Y133116D01*
Y130783D01*
X75418Y130200D01*
X74252D01*
X73669Y130783D01*
X72502Y133699D02*
Y130200D01*
X70753D01*
X70170Y130783D01*
Y133116D01*
X70753Y133699D01*
X72502D01*
X68501Y161500D02*
X72000D01*
Y159751D01*
X71417Y159167D01*
X69084D01*
X68501Y159751D01*
Y161500D01*
Y158001D02*
Y155669D01*
Y156835D01*
X72000D01*
Y154502D02*
X68501D01*
Y152753D01*
X69084Y152170D01*
X70251D01*
X70834Y152753D01*
Y154502D01*
Y153336D02*
X72000Y152170D01*
X92084Y120167D02*
X91501Y120751D01*
Y121917D01*
X92084Y122500D01*
X94417D01*
X95000Y121917D01*
Y120751D01*
X94417Y120167D01*
X91501Y119001D02*
Y116669D01*
Y117835D01*
X95000D01*
X92084Y113170D02*
X91501Y113753D01*
Y114919D01*
X92084Y115502D01*
X92667D01*
X93251Y114919D01*
Y113753D01*
X93834Y113170D01*
X94417D01*
X95000Y113753D01*
Y114919D01*
X94417Y115502D01*
X81500Y158000D02*
X78001D01*
Y156251D01*
X78584Y155667D01*
X79751D01*
X80334Y156251D01*
Y158000D01*
Y156834D02*
X81500Y155667D01*
X78001Y154501D02*
Y153335D01*
Y153918D01*
X81500D01*
Y154501D01*
Y153335D01*
X59500Y136500D02*
Y139999D01*
X57751D01*
X57167Y139416D01*
Y138249D01*
X57751Y137666D01*
X59500D01*
X58334D02*
X57167Y136500D01*
X56001Y139999D02*
X53669Y136500D01*
Y139999D02*
X56001Y136500D01*
X52502Y139999D02*
Y136500D01*
X50753D01*
X50170Y137083D01*
Y139416D01*
X50753Y139999D01*
X52502D01*
X150500Y68000D02*
X147001D01*
Y66251D01*
X147584Y65667D01*
X148751D01*
X149334Y66251D01*
Y68000D01*
Y66834D02*
X150500Y65667D01*
Y64501D02*
Y63335D01*
Y63918D01*
X147001D01*
X147584Y64501D01*
X150500Y59253D02*
Y61585D01*
X148167Y59253D01*
X147584D01*
X147001Y59836D01*
Y61002D01*
X147584Y61585D01*
X149000Y29000D02*
X145501D01*
Y27251D01*
X146084Y26667D01*
X147251D01*
X147834Y27251D01*
Y29000D01*
Y27834D02*
X149000Y26667D01*
Y25501D02*
Y24335D01*
Y24918D01*
X145501D01*
X146084Y25501D01*
X149000Y22585D02*
Y21419D01*
Y22002D01*
X145501D01*
X146084Y22585D01*
X142039Y65394D02*
X138540D01*
Y63644D01*
X139124Y63061D01*
X140290D01*
X140873Y63644D01*
Y65394D01*
Y64227D02*
X142039Y63061D01*
X141456Y61895D02*
X142039Y61312D01*
Y60145D01*
X141456Y59562D01*
X139124D01*
X138540Y60145D01*
Y61312D01*
X139124Y61895D01*
X139707D01*
X140290Y61312D01*
Y59562D01*
X142500Y29000D02*
X139001D01*
Y27251D01*
X139584Y26667D01*
X140751D01*
X141334Y27251D01*
Y29000D01*
Y27834D02*
X142500Y26667D01*
X139584Y25501D02*
X139001Y24918D01*
Y23752D01*
X139584Y23168D01*
X140167D01*
X140751Y23752D01*
X141334Y23168D01*
X141917D01*
X142500Y23752D01*
Y24918D01*
X141917Y25501D01*
X141334D01*
X140751Y24918D01*
X140167Y25501D01*
X139584D01*
X140751Y24918D02*
Y23752D01*
X155707Y61477D02*
Y63809D01*
X156290Y64393D01*
X157456D01*
X158039Y63809D01*
Y61477D01*
X157456Y60894D01*
X156290D01*
X156873Y62060D02*
X155707Y60894D01*
X156290D02*
X155707Y61477D01*
X152208Y60894D02*
X154541D01*
X152208Y63226D01*
Y63809D01*
X152791Y64393D01*
X153957D01*
X154541Y63809D01*
X156207Y26977D02*
Y29309D01*
X156790Y29893D01*
X157956D01*
X158539Y29309D01*
Y26977D01*
X157956Y26394D01*
X156790D01*
X157373Y27560D02*
X156207Y26394D01*
X156790D02*
X156207Y26977D01*
X155041Y26394D02*
X153874D01*
X154457D01*
Y29893D01*
X155041Y29309D01*
X38167Y71916D02*
X38751Y72499D01*
X39917D01*
X40500Y71916D01*
Y69583D01*
X39917Y69000D01*
X38751D01*
X38167Y69583D01*
X34668Y69000D02*
X37001D01*
X34668Y71333D01*
Y71916D01*
X35252Y72499D01*
X36418D01*
X37001Y71916D01*
X31170Y72499D02*
X33502D01*
Y70749D01*
X32336Y71333D01*
X31753D01*
X31170Y70749D01*
Y69583D01*
X31753Y69000D01*
X32919D01*
X33502Y69583D01*
X11026Y57474D02*
X13500Y55000D01*
Y56649D01*
X15149D01*
X12675Y59123D01*
X13500Y59948D02*
X15974Y57474D01*
X15149Y58299D01*
Y61598D01*
Y59123D01*
X17624Y59123D01*
X18860Y59536D02*
X20510Y61185D01*
X19685Y66133D02*
X18860Y65309D01*
X18860Y64484D01*
X20510Y62835D01*
X21335D01*
X22159Y63659D01*
Y64484D01*
X20510Y66133D01*
X19685D01*
X20922Y67370D02*
X22984Y65309D01*
X23809D01*
X24633Y66133D01*
X24633Y66958D01*
X22572Y69020D01*
X23396Y69844D02*
X25046Y71494D01*
X24221Y70669D01*
X26695Y68195D01*
X10526Y67474D02*
X13000Y65000D01*
Y66649D01*
X14649D01*
X12175Y69124D01*
X13000Y69948D02*
X15474Y67474D01*
X14649Y68299D01*
Y71597D01*
Y69124D01*
X17123Y69124D01*
X18361Y69536D02*
X20010Y71185D01*
X17948Y74896D02*
X18773Y75721D01*
X18361Y75309D01*
X20835Y72835D01*
X20422Y72422D01*
X21247Y73247D01*
X22484Y74484D02*
X20010Y76958D01*
X24133Y76133D01*
X21659Y78607D01*
X12675Y49123D02*
X11026Y47474D01*
X12263Y46237D01*
X13088Y47062D01*
X12263Y46237D01*
X13500Y45000D01*
Y49948D02*
X15974Y47474D01*
X17624Y49123D01*
X15974Y52422D02*
X16799Y53247D01*
X16386Y52835D01*
X18860Y50361D01*
X18448Y49948D01*
X19273Y50773D01*
X20098Y55721D02*
X19273D01*
X18448Y54896D01*
X18448Y54072D01*
X20098Y52422D01*
X20922D01*
X21747Y53247D01*
X21747Y54072D01*
X20922Y54896D01*
X20098Y54072D01*
X20510Y56958D02*
X22984Y54484D01*
X21747Y55721D01*
X23396Y57370D01*
X22159Y58607D01*
X24633Y56133D01*
X22984Y59432D02*
X24633Y61081D01*
X23809Y60257D01*
X26283Y57783D01*
D52*
X158700Y68500D02*
X160300D01*
X158100Y68600D02*
X160900D01*
X157700Y68700D02*
X161200D01*
X157400Y68800D02*
X161600D01*
X157100Y68900D02*
X161800D01*
X156900Y69000D02*
X158600D01*
X160400D02*
X162100D01*
X156700Y69100D02*
X158100D01*
X160900D02*
X162300D01*
X156500Y69200D02*
X157700D01*
X161200D02*
X162500D01*
X156300Y69300D02*
X157400D01*
X161500D02*
X162700D01*
X156200Y69400D02*
X157200D01*
X161800D02*
X162800D01*
X156000Y69500D02*
X157000D01*
X162000D02*
X163000D01*
X155800Y69600D02*
X156800D01*
X162200D02*
X163100D01*
X155700Y69700D02*
X156600D01*
X162400D02*
X163300D01*
X155600Y69800D02*
X156400D01*
X162500D02*
X163400D01*
X155500Y69900D02*
X156300D01*
X162700D02*
X163500D01*
X155300Y70000D02*
X156100D01*
X162900D02*
X163600D01*
X155200Y70100D02*
X156000D01*
X163000D02*
X163800D01*
X155100Y70200D02*
X155900D01*
X163100D02*
X163900D01*
X155000Y70300D02*
X155700D01*
X159900D02*
X160900D01*
X163200D02*
X164000D01*
X154900Y70400D02*
X155600D01*
X159400D02*
X161300D01*
X163400D02*
X164100D01*
X109800Y70500D02*
X110200D01*
X130400D02*
X130700D01*
X154800D02*
X155500D01*
X159100D02*
X161500D01*
X163500D02*
X164200D01*
X109700Y70600D02*
X110200D01*
X130300D02*
X130800D01*
X139500D02*
X140000D01*
X154700D02*
X155400D01*
X158900D02*
X161700D01*
X163600D02*
X164200D01*
X109600Y70700D02*
X110200D01*
X130200D02*
X130800D01*
X139300D02*
X140100D01*
X154600D02*
X155300D01*
X158600D02*
X161900D01*
X163700D02*
X164300D01*
X109600Y70800D02*
X110300D01*
X112400D02*
X112600D01*
X130100D02*
X130900D01*
X139100D02*
X140100D01*
X154600D02*
X155200D01*
X158500D02*
X162000D01*
X163800D02*
X164400D01*
X109500Y70900D02*
X110300D01*
X112300D02*
X112700D01*
X130000D02*
X130900D01*
X139000D02*
X140100D01*
X154500D02*
X155100D01*
X158300D02*
X162100D01*
X163900D02*
X164500D01*
X109500Y71000D02*
X110300D01*
X112300D02*
X112700D01*
X129900D02*
X131000D01*
X138900D02*
X140200D01*
X154400D02*
X155000D01*
X158200D02*
X162200D01*
X163900D02*
X164600D01*
X109500Y71100D02*
X110400D01*
X112200D02*
X112700D01*
X129900D02*
X131100D01*
X138800D02*
X140200D01*
X154300D02*
X155000D01*
X158100D02*
X162300D01*
X164000D02*
X164600D01*
X109500Y71200D02*
X110400D01*
X112200D02*
X112700D01*
X129800D02*
X131200D01*
X138700D02*
X140300D01*
X154300D02*
X154900D01*
X158000D02*
X161100D01*
X161900D02*
X162400D01*
X164100D02*
X164700D01*
X109400Y71300D02*
X110400D01*
X112100D02*
X112700D01*
X123300D02*
X123700D01*
X129800D02*
X131400D01*
X138600D02*
X140400D01*
X143000D02*
X143500D01*
X154200D02*
X154800D01*
X157900D02*
X160700D01*
X162100D02*
X162500D01*
X164200D02*
X164800D01*
X109400Y71400D02*
X110500D01*
X111200D02*
X112700D01*
X118300D02*
X119200D01*
X123200D02*
X123700D01*
X129800D02*
X131500D01*
X138500D02*
X140500D01*
X142700D02*
X143500D01*
X154100D02*
X154700D01*
X157800D02*
X160500D01*
X161000D02*
X161900D01*
X162300D02*
X162500D01*
X164300D02*
X164800D01*
X109400Y71500D02*
X112700D01*
X117800D02*
X119700D01*
X123200D02*
X123800D01*
X129800D02*
X131500D01*
X138400D02*
X140600D01*
X142500D02*
X143400D01*
X154100D02*
X154700D01*
X157800D02*
X160300D01*
X160700D02*
X162100D01*
X162500D02*
X162600D01*
X164300D02*
X164900D01*
X109400Y71600D02*
X112700D01*
X117500D02*
X119900D01*
X123200D02*
X123800D01*
X129800D02*
X130600D01*
X131200D02*
X131500D01*
X138400D02*
X139500D01*
X140000D02*
X140700D01*
X142300D02*
X143200D01*
X154000D02*
X154600D01*
X157700D02*
X160200D01*
X160500D02*
X162300D01*
X164400D02*
X165000D01*
X109400Y71700D02*
X112700D01*
X117300D02*
X120000D01*
X123200D02*
X123800D01*
X129700D02*
X130500D01*
X138300D02*
X139400D01*
X140200D02*
X140800D01*
X142100D02*
X143000D01*
X154000D02*
X154500D01*
X157700D02*
X160100D01*
X160300D02*
X162400D01*
X162600D02*
X162700D01*
X164500D02*
X165000D01*
X109400Y71800D02*
X110200D01*
X110400D02*
X111300D01*
X112200D02*
X112700D01*
X117100D02*
X120100D01*
X122800D02*
X123000D01*
X123200D02*
X123900D01*
X129700D02*
X130500D01*
X138300D02*
X139200D01*
X140500D02*
X140800D01*
X142000D02*
X142900D01*
X153900D02*
X154500D01*
X157600D02*
X160000D01*
X160700D02*
X162500D01*
X164500D02*
X165100D01*
X109400Y71900D02*
X110100D01*
X110600D02*
X110900D01*
X112200D02*
X112700D01*
X117000D02*
X120200D01*
X122500D02*
X123000D01*
X123200D02*
X123900D01*
X129700D02*
X130500D01*
X138200D02*
X139100D01*
X141800D02*
X142700D01*
X153900D02*
X154400D01*
X157600D02*
X159900D01*
X160900D02*
X162600D01*
X164600D02*
X165100D01*
X109400Y72000D02*
X110100D01*
X112200D02*
X112700D01*
X117000D02*
X120200D01*
X122300D02*
X122900D01*
X123100D02*
X123900D01*
X129700D02*
X130500D01*
X138200D02*
X139100D01*
X141700D02*
X142600D01*
X153800D02*
X154400D01*
X157500D02*
X159900D01*
X161100D02*
X162600D01*
X164600D02*
X165200D01*
X109400Y72100D02*
X110100D01*
X112200D02*
X112700D01*
X117000D02*
X118400D01*
X119300D02*
X120300D01*
X122200D02*
X122800D01*
X123100D02*
X123900D01*
X129700D02*
X130400D01*
X138100D02*
X139000D01*
X141500D02*
X142500D01*
X153800D02*
X154300D01*
X157500D02*
X159800D01*
X161200D02*
X162700D01*
X164700D02*
X165200D01*
X109400Y72200D02*
X110100D01*
X112200D02*
X112700D01*
X117000D02*
X118000D01*
X119500D02*
X120300D01*
X122000D02*
X122700D01*
X123100D02*
X123900D01*
X129700D02*
X130400D01*
X138100D02*
X138900D01*
X141400D02*
X142300D01*
X153700D02*
X154200D01*
X157500D02*
X159700D01*
X161300D02*
X162800D01*
X164700D02*
X165300D01*
X109400Y72300D02*
X110100D01*
X112200D02*
X112700D01*
X117100D02*
X117900D01*
X119700D02*
X120300D01*
X121900D02*
X122600D01*
X123100D02*
X123800D01*
X129700D02*
X130400D01*
X134000D02*
X134200D01*
X138100D02*
X138900D01*
X141300D02*
X142200D01*
X153700D02*
X154200D01*
X157400D02*
X159700D01*
X161300D02*
X162800D01*
X164800D02*
X165300D01*
X109400Y72400D02*
X110100D01*
X112200D02*
X112700D01*
X117100D02*
X117800D01*
X119800D02*
X120300D01*
X121800D02*
X122500D01*
X123100D02*
X123800D01*
X129700D02*
X130400D01*
X134000D02*
X134300D01*
X138000D02*
X138800D01*
X141100D02*
X142100D01*
X153600D02*
X154200D01*
X157400D02*
X159600D01*
X161400D02*
X162900D01*
X164800D02*
X165400D01*
X109400Y72500D02*
X110100D01*
X112200D02*
X112700D01*
X117200D02*
X117800D01*
X119800D02*
X120400D01*
X121700D02*
X122400D01*
X123100D02*
X123800D01*
X129700D02*
X130400D01*
X133900D02*
X134400D01*
X138000D02*
X138800D01*
X141000D02*
X141900D01*
X153600D02*
X154100D01*
X157400D02*
X159600D01*
X161400D02*
X162900D01*
X164900D02*
X165400D01*
X109400Y72600D02*
X110100D01*
X112200D02*
X112700D01*
X117200D02*
X117700D01*
X119900D02*
X120400D01*
X121600D02*
X122300D01*
X123100D02*
X123700D01*
X129700D02*
X130400D01*
X133900D02*
X134500D01*
X138000D02*
X138700D01*
X140900D02*
X141800D01*
X153600D02*
X154100D01*
X157400D02*
X159600D01*
X161500D02*
X163000D01*
X164900D02*
X165400D01*
X109400Y72700D02*
X110100D01*
X112200D02*
X112700D01*
X117200D02*
X117700D01*
X119900D02*
X120400D01*
X121500D02*
X122300D01*
X123100D02*
X123700D01*
X129800D02*
X130400D01*
X133900D02*
X134500D01*
X137900D02*
X138700D01*
X140800D02*
X141700D01*
X153500D02*
X154000D01*
X157400D02*
X159500D01*
X161500D02*
X163000D01*
X165000D02*
X165500D01*
X109400Y72800D02*
X110100D01*
X110900D02*
X112700D01*
X117200D02*
X117600D01*
X119900D02*
X120400D01*
X121500D02*
X122200D01*
X123100D02*
X123700D01*
X129800D02*
X130400D01*
X133900D02*
X134600D01*
X137900D02*
X138700D01*
X140700D02*
X141600D01*
X143000D02*
X143400D01*
X153500D02*
X154000D01*
X157300D02*
X159500D01*
X161600D02*
X163000D01*
X165000D02*
X165500D01*
X109400Y72900D02*
X110100D01*
X110500D02*
X112700D01*
X117200D02*
X117600D01*
X119900D02*
X120400D01*
X121400D02*
X122100D01*
X123100D02*
X123700D01*
X129800D02*
X130400D01*
X133800D02*
X134600D01*
X137900D02*
X138600D01*
X140600D02*
X141500D01*
X142700D02*
X143400D01*
X153500D02*
X154000D01*
X157300D02*
X159500D01*
X161600D02*
X163000D01*
X165000D02*
X165500D01*
X109400Y73000D02*
X110100D01*
X110400D02*
X112700D01*
X117200D02*
X117600D01*
X119900D02*
X120400D01*
X121300D02*
X122000D01*
X123100D02*
X123600D01*
X129800D02*
X130400D01*
X133800D02*
X134600D01*
X137800D02*
X138600D01*
X140500D02*
X141400D01*
X142400D02*
X143200D01*
X153400D02*
X153900D01*
X157300D02*
X159500D01*
X161600D02*
X163000D01*
X165100D02*
X165600D01*
X109400Y73100D02*
X110100D01*
X110400D02*
X111700D01*
X112200D02*
X112700D01*
X117300D02*
X117600D01*
X119900D02*
X120400D01*
X121300D02*
X122000D01*
X123100D02*
X123600D01*
X129800D02*
X130400D01*
X133700D02*
X134700D01*
X137800D02*
X138600D01*
X140400D02*
X141300D01*
X142200D02*
X143100D01*
X153400D02*
X153900D01*
X157300D02*
X159400D01*
X161600D02*
X163000D01*
X165100D02*
X165600D01*
X109400Y73200D02*
X110100D01*
X110400D02*
X111300D01*
X112200D02*
X112700D01*
X117300D02*
X117500D01*
X119900D02*
X120400D01*
X121200D02*
X121900D01*
X123100D02*
X123600D01*
X129800D02*
X130400D01*
X131300D02*
X131500D01*
X133700D02*
X134700D01*
X137800D02*
X138500D01*
X140300D02*
X141200D01*
X142100D02*
X142900D01*
X153400D02*
X153900D01*
X157300D02*
X159400D01*
X161600D02*
X163000D01*
X165100D02*
X165600D01*
X109400Y73300D02*
X110100D01*
X112200D02*
X112700D01*
X117300D02*
X117500D01*
X119900D02*
X120400D01*
X121100D02*
X121800D01*
X123100D02*
X123600D01*
X129800D02*
X130400D01*
X130900D02*
X131800D01*
X133600D02*
X134700D01*
X137700D02*
X138500D01*
X140200D02*
X141100D01*
X141900D02*
X142700D01*
X153300D02*
X153800D01*
X157300D02*
X159400D01*
X161600D02*
X163000D01*
X165100D02*
X165600D01*
X109300Y73400D02*
X110100D01*
X112200D02*
X112800D01*
X114600D02*
X114800D01*
X117300D02*
X117500D01*
X119900D02*
X120400D01*
X121100D02*
X121800D01*
X123100D02*
X123600D01*
X129800D02*
X131900D01*
X133600D02*
X134700D01*
X137700D02*
X138500D01*
X140100D02*
X141000D01*
X141800D02*
X142600D01*
X153300D02*
X153800D01*
X157300D02*
X159400D01*
X161600D02*
X162900D01*
X165200D02*
X165700D01*
X109300Y73500D02*
X110100D01*
X112200D02*
X112800D01*
X114300D02*
X114800D01*
X117300D02*
X117500D01*
X119900D02*
X120400D01*
X121000D02*
X121700D01*
X123100D02*
X123600D01*
X129800D02*
X132000D01*
X133600D02*
X134700D01*
X137700D02*
X138400D01*
X140000D02*
X140900D01*
X141700D02*
X142500D01*
X153300D02*
X153800D01*
X157300D02*
X159400D01*
X161600D02*
X162900D01*
X165200D02*
X165700D01*
X109300Y73600D02*
X110100D01*
X112200D02*
X112800D01*
X114100D02*
X114700D01*
X119900D02*
X120400D01*
X121000D02*
X121700D01*
X123100D02*
X123600D01*
X129300D02*
X132000D01*
X133500D02*
X134600D01*
X137600D02*
X138400D01*
X139900D02*
X140800D01*
X141600D02*
X142400D01*
X143600D02*
X144000D01*
X153300D02*
X153800D01*
X157300D02*
X159400D01*
X161500D02*
X162800D01*
X165200D02*
X165700D01*
X109300Y73700D02*
X110100D01*
X112200D02*
X112800D01*
X113900D02*
X114600D01*
X119900D02*
X120400D01*
X120900D02*
X121600D01*
X123100D02*
X123600D01*
X128600D02*
X131600D01*
X133500D02*
X134400D01*
X137600D02*
X138400D01*
X139800D02*
X140700D01*
X141400D02*
X142200D01*
X143300D02*
X144000D01*
X153300D02*
X153700D01*
X157300D02*
X159300D01*
X161500D02*
X162800D01*
X165200D02*
X165700D01*
X109200Y73800D02*
X110200D01*
X112200D02*
X112900D01*
X113800D02*
X114500D01*
X119900D02*
X120400D01*
X120900D02*
X121600D01*
X123100D02*
X123600D01*
X128400D02*
X130900D01*
X133400D02*
X134200D01*
X137600D02*
X138400D01*
X139700D02*
X140600D01*
X141300D02*
X142100D01*
X143100D02*
X143800D01*
X153200D02*
X153700D01*
X157300D02*
X159300D01*
X161400D02*
X162700D01*
X165200D02*
X165700D01*
X109100Y73900D02*
X110200D01*
X112200D02*
X112900D01*
X113700D02*
X114400D01*
X119900D02*
X120400D01*
X120900D02*
X121500D01*
X123100D02*
X123600D01*
X128400D02*
X130400D01*
X133300D02*
X134100D01*
X137500D02*
X138400D01*
X139600D02*
X140600D01*
X141100D02*
X142000D01*
X142900D02*
X143600D01*
X153200D02*
X153700D01*
X157300D02*
X159300D01*
X161400D02*
X162600D01*
X165300D02*
X165700D01*
X109100Y74000D02*
X110200D01*
X111600D02*
X113000D01*
X113500D02*
X114200D01*
X119900D02*
X120400D01*
X120800D02*
X121500D01*
X123000D02*
X123600D01*
X128400D02*
X130400D01*
X133300D02*
X134000D01*
X137500D02*
X138400D01*
X139500D02*
X140500D01*
X141000D02*
X141900D01*
X142700D02*
X143500D01*
X153200D02*
X153700D01*
X157300D02*
X159300D01*
X161300D02*
X162500D01*
X165300D02*
X165800D01*
X109100Y74100D02*
X110300D01*
X111000D02*
X113000D01*
X113400D02*
X114100D01*
X119900D02*
X120400D01*
X120800D02*
X121500D01*
X123000D02*
X123600D01*
X128500D02*
X129100D01*
X129800D02*
X130400D01*
X133200D02*
X134000D01*
X137400D02*
X138400D01*
X139500D02*
X140500D01*
X141000D02*
X141900D01*
X142500D02*
X143300D01*
X153200D02*
X153700D01*
X157200D02*
X159300D01*
X161200D02*
X162400D01*
X165300D02*
X165800D01*
X109200Y74200D02*
X113000D01*
X113300D02*
X114000D01*
X119900D02*
X120400D01*
X120800D02*
X121400D01*
X123000D02*
X123600D01*
X125100D02*
X125400D01*
X128600D02*
X129100D01*
X129800D02*
X130400D01*
X133200D02*
X133900D01*
X137300D02*
X138400D01*
X139500D02*
X140400D01*
X141000D02*
X141800D01*
X142400D02*
X143200D01*
X153200D02*
X153700D01*
X157200D02*
X159300D01*
X161100D02*
X162200D01*
X165300D02*
X165800D01*
X109300Y74300D02*
X111700D01*
X113200D02*
X114000D01*
X119800D02*
X120400D01*
X120700D02*
X121400D01*
X123000D02*
X123500D01*
X124900D02*
X125400D01*
X128600D02*
X129100D01*
X129800D02*
X130400D01*
X131500D02*
X132400D01*
X133100D02*
X133800D01*
X137300D02*
X138400D01*
X139600D02*
X140400D01*
X141100D02*
X141700D01*
X142200D02*
X143000D01*
X153200D02*
X153700D01*
X157200D02*
X159300D01*
X161000D02*
X162000D01*
X165300D02*
X165800D01*
X109400Y74400D02*
X111200D01*
X113200D02*
X113900D01*
X119800D02*
X120400D01*
X120700D02*
X121300D01*
X123000D02*
X123500D01*
X124800D02*
X125300D01*
X128600D02*
X129100D01*
X129800D02*
X130400D01*
X131000D02*
X132600D01*
X133100D02*
X133700D01*
X137300D02*
X138400D01*
X139600D02*
X140400D01*
X141200D02*
X141700D01*
X142100D02*
X142900D01*
X153200D02*
X153700D01*
X157200D02*
X159300D01*
X160800D02*
X161800D01*
X165300D02*
X165800D01*
X109500Y74500D02*
X110800D01*
X113100D02*
X113800D01*
X119800D02*
X120400D01*
X120700D02*
X121300D01*
X123000D02*
X123500D01*
X124600D02*
X125200D01*
X128600D02*
X129100D01*
X129800D02*
X132600D01*
X133000D02*
X133600D01*
X137300D02*
X138500D01*
X139700D02*
X140300D01*
X141000D02*
X142800D01*
X153200D02*
X153700D01*
X157200D02*
X159300D01*
X160700D02*
X161600D01*
X165300D02*
X165800D01*
X109700Y74600D02*
X110500D01*
X113000D02*
X113700D01*
X119800D02*
X120400D01*
X120600D02*
X121300D01*
X123000D02*
X123500D01*
X124500D02*
X125200D01*
X128500D02*
X129100D01*
X129800D02*
X132600D01*
X133000D02*
X133600D01*
X137400D02*
X138600D01*
X139700D02*
X142700D01*
X145700D02*
X150100D01*
X153200D02*
X153700D01*
X157200D02*
X159300D01*
X160400D02*
X161300D01*
X165300D02*
X165800D01*
X111300Y74700D02*
X111600D01*
X112900D02*
X113600D01*
X119800D02*
X120400D01*
X120600D02*
X121300D01*
X123000D02*
X123500D01*
X124400D02*
X125100D01*
X128500D02*
X129100D01*
X129500D02*
X132600D01*
X132900D02*
X133500D01*
X137500D02*
X142600D01*
X145700D02*
X150100D01*
X153200D02*
X153700D01*
X157200D02*
X159300D01*
X160600D02*
X161500D01*
X165300D02*
X165800D01*
X111200Y74800D02*
X111800D01*
X112900D02*
X113600D01*
X119800D02*
X120400D01*
X120600D02*
X121200D01*
X123000D02*
X123600D01*
X124300D02*
X125000D01*
X128500D02*
X131600D01*
X132900D02*
X133400D01*
X137600D02*
X142500D01*
X145700D02*
X150100D01*
X153200D02*
X153700D01*
X157200D02*
X159300D01*
X160800D02*
X161700D01*
X165300D02*
X165800D01*
X111200Y74900D02*
X111900D01*
X112800D02*
X113500D01*
X119800D02*
X120400D01*
X120600D02*
X121200D01*
X123000D02*
X123600D01*
X124200D02*
X124900D01*
X127200D02*
X130900D01*
X132900D02*
X133300D01*
X137700D02*
X140900D01*
X141400D02*
X142400D01*
X145700D02*
X150100D01*
X153200D02*
X153700D01*
X157200D02*
X159300D01*
X161000D02*
X162000D01*
X165300D02*
X165800D01*
X110100Y75000D02*
X110300D01*
X111200D02*
X112000D01*
X112800D02*
X113400D01*
X119800D02*
X121200D01*
X123000D02*
X123600D01*
X124100D02*
X124800D01*
X126800D02*
X130500D01*
X132800D02*
X133300D01*
X137900D02*
X139900D01*
X141400D02*
X142300D01*
X145700D02*
X150100D01*
X153200D02*
X153700D01*
X157200D02*
X159300D01*
X161200D02*
X162100D01*
X165300D02*
X165800D01*
X110100Y75100D02*
X110400D01*
X111200D02*
X112100D01*
X112700D02*
X113400D01*
X119800D02*
X121200D01*
X123000D02*
X123600D01*
X124000D02*
X124700D01*
X126800D02*
X130500D01*
X132800D02*
X133200D01*
X138000D02*
X139100D01*
X141400D02*
X142200D01*
X145700D02*
X150100D01*
X153200D02*
X153700D01*
X157200D02*
X159300D01*
X161300D02*
X162300D01*
X165300D02*
X165800D01*
X110000Y75200D02*
X110400D01*
X111200D02*
X112200D01*
X112700D02*
X113300D01*
X119900D02*
X121100D01*
X121700D02*
X122500D01*
X123000D02*
X123600D01*
X123900D02*
X124600D01*
X126800D02*
X129200D01*
X129800D02*
X130500D01*
X132700D02*
X133100D01*
X138200D02*
X138600D01*
X141500D02*
X142100D01*
X153200D02*
X153700D01*
X157200D02*
X159300D01*
X161400D02*
X162400D01*
X165300D02*
X165800D01*
X110000Y75300D02*
X110400D01*
X111200D02*
X112300D01*
X112600D02*
X113300D01*
X114500D02*
X115100D01*
X120100D02*
X122700D01*
X123000D02*
X123600D01*
X123800D02*
X124500D01*
X126800D02*
X129000D01*
X129800D02*
X130600D01*
X132700D02*
X133000D01*
X141500D02*
X142000D01*
X153200D02*
X153700D01*
X157200D02*
X159300D01*
X161500D02*
X162500D01*
X165300D02*
X165800D01*
X109700Y75400D02*
X110500D01*
X111300D02*
X112300D01*
X112600D02*
X113200D01*
X114300D02*
X115300D01*
X120400D02*
X122800D01*
X123000D02*
X123600D01*
X123700D02*
X124500D01*
X127000D02*
X128100D01*
X128300D02*
X129000D01*
X129800D02*
X130600D01*
X132600D02*
X133000D01*
X139700D02*
X140000D01*
X141600D02*
X142000D01*
X153200D02*
X153700D01*
X157100D02*
X159300D01*
X161600D02*
X162600D01*
X165300D02*
X165800D01*
X108700Y75500D02*
X110500D01*
X111500D02*
X113200D01*
X114000D02*
X115400D01*
X120000D02*
X122800D01*
X123000D02*
X124400D01*
X127200D02*
X127600D01*
X128300D02*
X129000D01*
X129800D02*
X130600D01*
X132600D02*
X132900D01*
X139600D02*
X140000D01*
X141600D02*
X142000D01*
X153200D02*
X153700D01*
X157100D02*
X159300D01*
X161700D02*
X162600D01*
X165300D02*
X165800D01*
X108100Y75600D02*
X110500D01*
X111700D02*
X113200D01*
X113600D02*
X115500D01*
X119500D02*
X122700D01*
X123100D02*
X124300D01*
X128200D02*
X129000D01*
X129800D02*
X130700D01*
X131000D02*
X131700D01*
X139600D02*
X140100D01*
X141500D02*
X142000D01*
X153200D02*
X153700D01*
X157100D02*
X159300D01*
X161700D02*
X162700D01*
X165300D02*
X165700D01*
X108100Y75700D02*
X110500D01*
X112500D02*
X115500D01*
X118900D02*
X122000D01*
X123100D02*
X124200D01*
X128200D02*
X129000D01*
X129900D02*
X131900D01*
X139500D02*
X140100D01*
X141200D02*
X142000D01*
X153200D02*
X153700D01*
X157100D02*
X159300D01*
X161800D02*
X162800D01*
X165300D02*
X165700D01*
X108100Y75800D02*
X109500D01*
X110000D02*
X110500D01*
X112400D02*
X114800D01*
X118400D02*
X121500D01*
X123200D02*
X124200D01*
X128100D02*
X129000D01*
X130000D02*
X132000D01*
X139500D02*
X142000D01*
X153300D02*
X153700D01*
X157100D02*
X159300D01*
X161800D02*
X162800D01*
X165200D02*
X165700D01*
X108200Y75900D02*
X108900D01*
X110000D02*
X110500D01*
X112400D02*
X114300D01*
X118200D02*
X121000D01*
X123300D02*
X124100D01*
X128000D02*
X129000D01*
X129700D02*
X132000D01*
X139400D02*
X142000D01*
X153300D02*
X153800D01*
X157100D02*
X159200D01*
X161800D02*
X162800D01*
X165200D02*
X165700D01*
X108200Y76000D02*
X108700D01*
X110000D02*
X110500D01*
X112100D02*
X113800D01*
X118200D02*
X121000D01*
X123300D02*
X124000D01*
X127900D02*
X131500D01*
X139400D02*
X142000D01*
X153300D02*
X153800D01*
X157000D02*
X159200D01*
X161800D02*
X162800D01*
X165200D02*
X165700D01*
X108200Y76100D02*
X108700D01*
X110000D02*
X110600D01*
X111700D02*
X113400D01*
X118200D02*
X120000D01*
X120400D02*
X121000D01*
X123300D02*
X124000D01*
X127900D02*
X130800D01*
X139400D02*
X142000D01*
X153300D02*
X153800D01*
X157000D02*
X159200D01*
X161800D02*
X162800D01*
X165200D02*
X165700D01*
X108100Y76200D02*
X108700D01*
X110100D02*
X110600D01*
X111200D02*
X113100D01*
X118300D02*
X119600D01*
X120400D02*
X121000D01*
X123200D02*
X123900D01*
X127900D02*
X130300D01*
X139400D02*
X140000D01*
X140200D02*
X140800D01*
X141500D02*
X142000D01*
X153300D02*
X153800D01*
X157000D02*
X159200D01*
X161800D02*
X162800D01*
X165100D02*
X165600D01*
X108000Y76300D02*
X108700D01*
X110100D02*
X110600D01*
X110900D02*
X112900D01*
X118500D02*
X119300D01*
X120300D02*
X121000D01*
X123100D02*
X123800D01*
X128000D02*
X130200D01*
X131500D02*
X131800D01*
X132700D02*
X133200D01*
X139400D02*
X140000D01*
X141500D02*
X142000D01*
X153400D02*
X153900D01*
X156900D02*
X159200D01*
X161800D02*
X162800D01*
X165100D02*
X165600D01*
X108000Y76400D02*
X108700D01*
X110100D02*
X110600D01*
X110900D02*
X112900D01*
X114100D02*
X114400D01*
X120300D02*
X121000D01*
X123100D02*
X123800D01*
X128100D02*
X129500D01*
X129600D02*
X130200D01*
X131400D02*
X131800D01*
X132700D02*
X133400D01*
X139400D02*
X140000D01*
X141500D02*
X142000D01*
X153400D02*
X153900D01*
X156900D02*
X159200D01*
X161800D02*
X162800D01*
X165100D02*
X165600D01*
X107900Y76500D02*
X108600D01*
X110100D02*
X110600D01*
X110900D02*
X111900D01*
X112300D02*
X112900D01*
X113900D02*
X114400D01*
X120300D02*
X121000D01*
X123000D02*
X123700D01*
X128300D02*
X129200D01*
X129600D02*
X130200D01*
X131300D02*
X131800D01*
X132700D02*
X133500D01*
X139300D02*
X140000D01*
X141500D02*
X142000D01*
X153400D02*
X153900D01*
X156900D02*
X159200D01*
X161800D02*
X162800D01*
X165100D02*
X165600D01*
X107800Y76600D02*
X108600D01*
X110100D02*
X110700D01*
X111100D02*
X111400D01*
X112300D02*
X112900D01*
X113800D02*
X114400D01*
X120300D02*
X121000D01*
X123000D02*
X123700D01*
X128600D02*
X129000D01*
X129500D02*
X130100D01*
X131200D02*
X131700D01*
X132700D02*
X133600D01*
X139300D02*
X140000D01*
X141500D02*
X142000D01*
X153400D02*
X153900D01*
X156800D02*
X159200D01*
X161800D02*
X162800D01*
X165000D02*
X165500D01*
X107700Y76700D02*
X108600D01*
X110100D02*
X110700D01*
X112200D02*
X112900D01*
X113700D02*
X114300D01*
X120300D02*
X120900D01*
X122900D02*
X123600D01*
X129400D02*
X130100D01*
X131100D02*
X131700D01*
X132700D02*
X133800D01*
X139300D02*
X139900D01*
X141500D02*
X142000D01*
X153500D02*
X154000D01*
X156800D02*
X159200D01*
X161700D02*
X162800D01*
X165000D02*
X165500D01*
X107600Y76800D02*
X108600D01*
X110100D02*
X110700D01*
X112200D02*
X112900D01*
X113600D02*
X114200D01*
X120300D02*
X120900D01*
X122900D02*
X123600D01*
X129400D02*
X130000D01*
X131000D02*
X131600D01*
X132700D02*
X133900D01*
X139300D02*
X139900D01*
X141500D02*
X142100D01*
X153500D02*
X154000D01*
X156800D02*
X159100D01*
X161700D02*
X162700D01*
X165000D02*
X165500D01*
X107500Y76900D02*
X108600D01*
X109700D02*
X110800D01*
X112200D02*
X112900D01*
X113500D02*
X114100D01*
X120300D02*
X120900D01*
X122800D02*
X123500D01*
X129300D02*
X130000D01*
X130900D02*
X131500D01*
X132700D02*
X134000D01*
X139300D02*
X139900D01*
X141500D02*
X142100D01*
X153500D02*
X154100D01*
X156700D02*
X159100D01*
X161700D02*
X162700D01*
X164900D02*
X165400D01*
X107500Y77000D02*
X108600D01*
X109200D02*
X110800D01*
X112200D02*
X112900D01*
X113400D02*
X114000D01*
X118400D02*
X118900D01*
X120300D02*
X120900D01*
X122700D02*
X123500D01*
X129200D02*
X129900D01*
X130800D02*
X131500D01*
X132700D02*
X134100D01*
X139300D02*
X139900D01*
X140500D02*
X142100D01*
X153600D02*
X154100D01*
X156700D02*
X159100D01*
X161600D02*
X162700D01*
X164900D02*
X165400D01*
X107500Y77100D02*
X110900D01*
X112200D02*
X113900D01*
X118300D02*
X119000D01*
X120300D02*
X120900D01*
X122700D02*
X123400D01*
X129100D02*
X129900D01*
X130800D02*
X131400D01*
X132800D02*
X134200D01*
X139300D02*
X139900D01*
X140300D02*
X142100D01*
X153600D02*
X154100D01*
X156600D02*
X159100D01*
X161500D02*
X162600D01*
X164800D02*
X165400D01*
X107600Y77200D02*
X110900D01*
X112200D02*
X113900D01*
X118300D02*
X119200D01*
X120200D02*
X120900D01*
X122600D02*
X123400D01*
X129000D02*
X129900D01*
X130700D02*
X131400D01*
X132900D02*
X134200D01*
X139300D02*
X139900D01*
X140300D02*
X142100D01*
X153700D02*
X154200D01*
X156600D02*
X159100D01*
X161500D02*
X162600D01*
X164800D02*
X165300D01*
X107700Y77300D02*
X109600D01*
X110500D02*
X110900D01*
X111900D02*
X113800D01*
X118300D02*
X119300D01*
X120200D02*
X120900D01*
X122600D02*
X123300D01*
X128900D02*
X129800D01*
X130100D02*
X131300D01*
X133100D02*
X134300D01*
X139300D02*
X139900D01*
X140300D02*
X141400D01*
X141500D02*
X142100D01*
X153700D02*
X154200D01*
X156500D02*
X159100D01*
X161400D02*
X162500D01*
X164700D02*
X165300D01*
X107900Y77400D02*
X109200D01*
X111600D02*
X113700D01*
X118400D02*
X119400D01*
X120200D02*
X120900D01*
X122500D02*
X123300D01*
X128700D02*
X131300D01*
X133300D02*
X134300D01*
X139300D02*
X139900D01*
X140400D02*
X141000D01*
X141500D02*
X142100D01*
X153700D02*
X154300D01*
X156400D02*
X159000D01*
X161300D02*
X162400D01*
X164700D02*
X165200D01*
X108000Y77500D02*
X108900D01*
X111200D02*
X112900D01*
X113000D02*
X113700D01*
X118400D02*
X119500D01*
X120200D02*
X120900D01*
X122400D02*
X123200D01*
X128600D02*
X131200D01*
X133700D02*
X134200D01*
X139300D02*
X139900D01*
X141500D02*
X142100D01*
X153800D02*
X154300D01*
X156300D02*
X159000D01*
X161100D02*
X162400D01*
X164600D02*
X165200D01*
X108300Y77600D02*
X108700D01*
X111000D02*
X112500D01*
X112900D02*
X113600D01*
X118500D02*
X119600D01*
X120200D02*
X120900D01*
X122400D02*
X123200D01*
X128600D02*
X131200D01*
X139300D02*
X139900D01*
X141500D02*
X142100D01*
X153800D02*
X154400D01*
X156200D02*
X159000D01*
X160900D02*
X162300D01*
X164600D02*
X165100D01*
X111000Y77700D02*
X112200D01*
X112900D02*
X113600D01*
X118600D02*
X119700D01*
X120100D02*
X120900D01*
X122300D02*
X123200D01*
X128600D02*
X131100D01*
X139200D02*
X139900D01*
X141500D02*
X142200D01*
X153900D02*
X154500D01*
X156100D02*
X158900D01*
X160500D02*
X162100D01*
X164500D02*
X165100D01*
X111000Y77800D02*
X111900D01*
X112800D02*
X113500D01*
X118900D02*
X119700D01*
X120100D02*
X120900D01*
X122200D02*
X123100D01*
X128600D02*
X130100D01*
X130400D02*
X131100D01*
X139200D02*
X139900D01*
X141600D02*
X142200D01*
X153900D02*
X154500D01*
X156000D02*
X158900D01*
X160300D02*
X161900D01*
X164500D02*
X165000D01*
X111200Y77900D02*
X111600D01*
X112800D02*
X113500D01*
X120100D02*
X121000D01*
X122100D02*
X123100D01*
X128800D02*
X129900D01*
X130300D02*
X131100D01*
X139200D02*
X139900D01*
X141600D02*
X142200D01*
X154000D02*
X154600D01*
X156000D02*
X158900D01*
X160800D02*
X161600D01*
X164400D02*
X165000D01*
X112700Y78000D02*
X113400D01*
X120100D02*
X121000D01*
X122100D02*
X123100D01*
X129000D02*
X129700D01*
X130200D02*
X131000D01*
X139100D02*
X139900D01*
X141600D02*
X142300D01*
X154100D02*
X154600D01*
X156000D02*
X158800D01*
X164300D02*
X164900D01*
X112600Y78100D02*
X113400D01*
X120100D02*
X121100D01*
X122100D02*
X123000D01*
X129300D02*
X129500D01*
X130200D02*
X131000D01*
X139100D02*
X140000D01*
X141400D02*
X142300D01*
X154100D02*
X154700D01*
X156000D02*
X158800D01*
X164300D02*
X164900D01*
X112600Y78200D02*
X113300D01*
X120100D02*
X121100D01*
X122200D02*
X123000D01*
X130100D02*
X131000D01*
X139000D02*
X140000D01*
X140800D02*
X142400D01*
X154200D02*
X154800D01*
X156000D02*
X158800D01*
X164200D02*
X164800D01*
X112500Y78300D02*
X113300D01*
X120300D02*
X121100D01*
X122200D02*
X123000D01*
X130000D02*
X130900D01*
X139000D02*
X140100D01*
X140300D02*
X142400D01*
X154300D02*
X154900D01*
X156100D02*
X158700D01*
X164100D02*
X164700D01*
X112400Y78400D02*
X113300D01*
X120500D02*
X121100D01*
X122300D02*
X123000D01*
X129900D02*
X130900D01*
X139000D02*
X142400D01*
X154300D02*
X154900D01*
X156100D02*
X158700D01*
X164000D02*
X164700D01*
X112300Y78500D02*
X113200D01*
X122500D02*
X123000D01*
X129800D02*
X130900D01*
X139000D02*
X141400D01*
X142100D02*
X142400D01*
X154400D02*
X155000D01*
X156200D02*
X158600D01*
X164000D02*
X164600D01*
X112300Y78600D02*
X113200D01*
X122700D02*
X123000D01*
X129800D02*
X130900D01*
X139200D02*
X140800D01*
X154500D02*
X155100D01*
X156200D02*
X158600D01*
X163900D02*
X164500D01*
X112300Y78700D02*
X113200D01*
X129800D02*
X130800D01*
X139400D02*
X140400D01*
X154500D02*
X155200D01*
X156300D02*
X158500D01*
X163800D02*
X164400D01*
X112400Y78800D02*
X113200D01*
X129900D02*
X130800D01*
X139600D02*
X140100D01*
X154600D02*
X155300D01*
X156300D02*
X158400D01*
X163700D02*
X164300D01*
X112500Y78900D02*
X113200D01*
X130000D02*
X130900D01*
X154700D02*
X155400D01*
X156400D02*
X158300D01*
X163600D02*
X164300D01*
X112800Y79000D02*
X113200D01*
X130100D02*
X130900D01*
X154800D02*
X155500D01*
X156500D02*
X158200D01*
X163500D02*
X164200D01*
X130400Y79100D02*
X130900D01*
X154900D02*
X155600D01*
X156700D02*
X158100D01*
X163400D02*
X164100D01*
X155000Y79200D02*
X155700D01*
X156900D02*
X157800D01*
X163300D02*
X164000D01*
X155100Y79300D02*
X155800D01*
X163100D02*
X163900D01*
X155200Y79400D02*
X156000D01*
X163000D02*
X163800D01*
X155300Y79500D02*
X156100D01*
X162900D02*
X163700D01*
X155400Y79600D02*
X156200D01*
X162700D02*
X163500D01*
X155500Y79700D02*
X156400D01*
X162600D02*
X163400D01*
X155700Y79800D02*
X156600D01*
X162400D02*
X163300D01*
X155800Y79900D02*
X156700D01*
X162200D02*
X163200D01*
X156000Y80000D02*
X156900D01*
X162000D02*
X163000D01*
X156100Y80100D02*
X157200D01*
X161800D02*
X162900D01*
X156300Y80200D02*
X157400D01*
X161600D02*
X162700D01*
X156500Y80300D02*
X157700D01*
X161300D02*
X162500D01*
X156600Y80400D02*
X158000D01*
X161000D02*
X162300D01*
X156900Y80500D02*
X158500D01*
X160500D02*
X162100D01*
X157100Y80600D02*
X161900D01*
X157400Y80700D02*
X161600D01*
X157700Y80800D02*
X161300D01*
X158000Y80900D02*
X160900D01*
X158600Y81000D02*
X160400D01*
D53*
X110316Y42239D02*
D03*
X110310Y28739D02*
D03*
D54*
X118752Y118146D02*
D03*
X131878Y118198D02*
D03*
D55*
X153994Y147500D02*
D03*
D56*
X136264Y147240D02*
D03*
X136264Y166240D02*
D03*
D57*
X132820Y131034D02*
D03*
M02*
