%FSLAX25Y25*%
%MOIN*%
G70*
G01*
G75*
G04 Layer_Physical_Order=2*
G04 Layer_Color=16711680*
%ADD10R,0.03000X0.03500*%
%ADD11R,0.03500X0.03000*%
%ADD12R,0.02362X0.04299*%
%ADD13R,0.08661X0.04134*%
%ADD14R,0.04331X0.03937*%
%ADD15R,0.07874X0.07874*%
%ADD16R,0.02362X0.07874*%
%ADD17R,0.07874X0.02362*%
%ADD18R,0.03937X0.04331*%
%ADD19R,0.04134X0.08661*%
%ADD20R,0.11811X0.04213*%
%ADD21R,0.37008X0.27559*%
%ADD22R,0.01575X0.03937*%
%ADD23R,0.12992X0.07087*%
%ADD24C,0.01000*%
%ADD25C,0.01500*%
%ADD26C,0.02000*%
%ADD27C,0.04000*%
%ADD28C,0.03150*%
%ADD29C,0.07000*%
%ADD30C,0.06000*%
%ADD31R,0.06000X0.06000*%
%ADD32C,0.03150*%
%ADD33C,0.06299*%
%ADD34C,0.02500*%
%ADD35R,0.04299X0.02362*%
%ADD36R,0.04724X0.09843*%
%ADD37R,0.09843X0.04724*%
%ADD38R,0.09449X0.07087*%
%ADD39R,0.09449X0.10236*%
%ADD40R,0.05906X0.06693*%
%ADD41R,0.03150X0.05118*%
%ADD42R,0.04921X0.07874*%
%ADD43R,0.01181X0.04724*%
%ADD44O,0.01181X0.04724*%
%ADD45C,0.04000*%
G36*
X145587Y169740D02*
Y155740D01*
X140087D01*
X137087Y152740D01*
X133587Y149240D01*
Y124240D01*
X135961Y121866D01*
X144508D01*
X146508Y119866D01*
Y81366D01*
X138508Y73366D01*
X118276Y53135D01*
Y46868D01*
Y20868D01*
X117776Y20368D01*
X116776Y19368D01*
Y13868D01*
Y12368D01*
X116276Y11868D01*
X108776D01*
X108276Y12368D01*
Y21368D01*
Y41098D01*
Y43444D01*
Y44868D01*
Y58135D01*
X110508Y60366D01*
X139087Y88945D01*
Y111240D01*
X108087D01*
X107587Y111740D01*
Y118240D01*
X109087Y119740D01*
X117087D01*
X123087Y125740D01*
Y171740D01*
X143587D01*
X145587Y169740D01*
D02*
G37*
G36*
X105698Y112008D02*
X106057Y111859D01*
Y111740D01*
X106063Y111711D01*
Y110990D01*
X106063D01*
X106323Y110931D01*
X106087Y110490D01*
X106063D01*
Y107990D01*
X112063D01*
Y109711D01*
X137557D01*
Y104223D01*
X132640D01*
Y100360D01*
Y96498D01*
X137557D01*
Y89578D01*
X109426Y61448D01*
X109426Y61448D01*
X107195Y59216D01*
X106863Y58720D01*
X106747Y58135D01*
Y44868D01*
Y43444D01*
Y41098D01*
Y21368D01*
Y14491D01*
X106711Y14403D01*
X106616Y13685D01*
X106711Y12967D01*
X106747Y12879D01*
Y12368D01*
X106863Y11783D01*
X107195Y11287D01*
X107695Y10787D01*
X108191Y10455D01*
X108776Y10339D01*
X116276D01*
X116862Y10455D01*
X117358Y10787D01*
X117858Y11287D01*
X118189Y11783D01*
X118306Y12368D01*
Y13868D01*
Y14784D01*
X120159D01*
Y17783D01*
Y20784D01*
X119875D01*
X119806Y20868D01*
Y46868D01*
Y52501D01*
X126434Y59129D01*
X126924Y59032D01*
X127098Y58613D01*
X127539Y58039D01*
X128113Y57598D01*
X128782Y57321D01*
X129500Y57226D01*
X129734Y56992D01*
X129726Y56933D01*
X129821Y56215D01*
X130098Y55546D01*
X130539Y54972D01*
X131113Y54531D01*
X131782Y54254D01*
X132373Y54176D01*
X133461Y53088D01*
Y42000D01*
X133616Y41220D01*
X134058Y40558D01*
X135558Y39058D01*
X135558Y39058D01*
X135558D01*
X135558Y39058D01*
X135558D01*
X135558Y39058D01*
X135558D01*
Y39058D01*
X136220Y38616D01*
X137000Y38461D01*
X137500D01*
Y37250D01*
X143500D01*
Y43750D01*
X137539D01*
Y45250D01*
X143500D01*
Y46461D01*
X144000D01*
Y45250D01*
X150000D01*
Y45819D01*
X157150D01*
Y51181D01*
X150000D01*
Y51750D01*
X144000D01*
Y50539D01*
X143500D01*
Y51750D01*
X137539D01*
Y52250D01*
X143500D01*
Y58220D01*
X143916Y58498D01*
X144000Y58463D01*
Y56250D01*
X146250D01*
Y58750D01*
X144287D01*
X144240Y58863D01*
X144096Y59212D01*
X147442Y62558D01*
X147442Y62558D01*
X147707Y62955D01*
X147884Y63220D01*
X148039Y64000D01*
X148039D01*
Y64000D01*
X148039D01*
Y64000D01*
Y64000D01*
X148039D01*
X148039Y64000D01*
Y66947D01*
X148402Y67420D01*
X148679Y68089D01*
X148774Y68807D01*
X148679Y69525D01*
X148402Y70194D01*
X147961Y70768D01*
X147387Y71209D01*
X147375Y71270D01*
X162889Y86784D01*
X163442Y87611D01*
X163636Y88587D01*
Y94208D01*
X163766Y94522D01*
X163860Y95240D01*
X163766Y95958D01*
X163489Y96627D01*
X163048Y97202D01*
X162473Y97642D01*
X161804Y97919D01*
X161087Y98014D01*
X160369Y97919D01*
X159700Y97642D01*
X159125Y97202D01*
X158685Y96627D01*
X158407Y95958D01*
X158313Y95240D01*
X158407Y94522D01*
X158538Y94208D01*
Y89642D01*
X150944Y82049D01*
X150454Y82147D01*
X150410Y82253D01*
X149969Y82828D01*
X149395Y83268D01*
X149080Y83398D01*
X148037Y84442D01*
Y104926D01*
X148478Y105162D01*
X149251Y104645D01*
X150227Y104451D01*
X167500D01*
Y102500D01*
X175228D01*
Y100760D01*
X174780Y100539D01*
X174269Y100931D01*
X173175Y101384D01*
X172750Y101440D01*
Y96999D01*
Y92560D01*
X173175Y92616D01*
X174269Y93069D01*
X174780Y93461D01*
X175228Y93240D01*
Y90760D01*
X174780Y90539D01*
X174269Y90931D01*
X173175Y91384D01*
X172000Y91539D01*
X170825Y91384D01*
X169731Y90931D01*
X168791Y90209D01*
X168069Y89269D01*
X167616Y88175D01*
X167461Y87000D01*
X167616Y85825D01*
X168069Y84731D01*
X168791Y83791D01*
X169731Y83069D01*
X170825Y82616D01*
X172000Y82461D01*
X173175Y82616D01*
X174269Y83069D01*
X174780Y83461D01*
X175228Y83240D01*
Y80760D01*
X174780Y80539D01*
X174269Y80931D01*
X173175Y81384D01*
X172750Y81440D01*
Y76999D01*
Y72560D01*
X173175Y72616D01*
X174269Y73069D01*
X174780Y73461D01*
X175228Y73240D01*
Y70760D01*
X174780Y70539D01*
X174269Y70931D01*
X173175Y71384D01*
X172750Y71440D01*
Y66999D01*
Y62560D01*
X173175Y62616D01*
X174269Y63069D01*
X174780Y63461D01*
X175228Y63240D01*
Y60760D01*
X174780Y60539D01*
X174269Y60931D01*
X173175Y61384D01*
X172750Y61440D01*
Y56999D01*
Y52560D01*
X173175Y52616D01*
X174269Y53069D01*
X174780Y53461D01*
X175228Y53240D01*
Y25215D01*
X176146Y24297D01*
Y7874D01*
X176147Y7865D01*
X176017Y6536D01*
X175626Y5250D01*
X174993Y4064D01*
X174140Y3025D01*
X173101Y2173D01*
X172657Y1936D01*
X169436D01*
X169345Y1927D01*
X169300Y1936D01*
X149007D01*
X149006Y1937D01*
X7874D01*
X7821Y1927D01*
X6713Y2036D01*
X5596Y2375D01*
X4567Y2925D01*
X3665Y3665D01*
X2925Y4567D01*
X2375Y5596D01*
X2036Y6713D01*
X1927Y7821D01*
X1937Y7874D01*
Y43113D01*
X2386Y43334D01*
X2731Y43069D01*
X3825Y42616D01*
X5000Y42461D01*
X6175Y42616D01*
X7269Y43069D01*
X8209Y43791D01*
X8931Y44731D01*
X9384Y45825D01*
X9539Y47000D01*
X9384Y48175D01*
X9289Y48405D01*
X24227Y63344D01*
X24726Y63311D01*
X25035Y62909D01*
X25609Y62468D01*
X26278Y62191D01*
X26996Y62096D01*
X27140Y61970D01*
Y61866D01*
X33640D01*
Y67866D01*
X29403D01*
X29212Y68328D01*
X36345Y75461D01*
X42587D01*
Y66807D01*
X51492D01*
Y75461D01*
X63500D01*
X64280Y75616D01*
X64942Y76058D01*
X78627Y89743D01*
X79069Y90405D01*
X79224Y91185D01*
Y93929D01*
X79665Y94164D01*
X79720Y94128D01*
X80500Y93973D01*
X80500Y93973D01*
X93258D01*
X94039Y94128D01*
X94700Y94570D01*
X96529Y96398D01*
X96757Y96740D01*
X98337D01*
Y102740D01*
X91837D01*
Y98051D01*
X89512D01*
Y99813D01*
X87420D01*
Y101313D01*
X89512D01*
Y103635D01*
X89762Y103685D01*
X90589Y104238D01*
Y104238D01*
X90589D01*
Y104238D01*
Y104238D01*
Y104238D01*
X90589D01*
X97242Y110891D01*
X102154D01*
X102469Y110761D01*
X103187Y110666D01*
X103904Y110761D01*
X104574Y111038D01*
X105148Y111479D01*
X105584Y112047D01*
X105698Y112008D01*
D02*
G37*
G36*
X7874Y175228D02*
X169291D01*
X169345Y175239D01*
X170453Y175130D01*
X171569Y174791D01*
X172599Y174241D01*
X173501Y173501D01*
X174241Y172599D01*
X174791Y171569D01*
X175130Y170453D01*
X175239Y169345D01*
X175228Y169291D01*
Y111500D01*
X167500D01*
Y109549D01*
X151283D01*
X151019Y109813D01*
X150889Y110127D01*
X150448Y110702D01*
X149873Y111142D01*
X149205Y111419D01*
X148487Y111514D01*
X148413Y111504D01*
X148037Y111834D01*
Y113146D01*
X153250D01*
Y118188D01*
Y123232D01*
X147776D01*
Y121415D01*
X147314Y121223D01*
X145589Y122948D01*
X145093Y123279D01*
X144508Y123396D01*
X136594D01*
X135116Y124874D01*
Y140622D01*
X135287D01*
Y148778D01*
X138168Y151659D01*
X140720Y154211D01*
X141250D01*
Y153819D01*
X147750D01*
Y159819D01*
Y165819D01*
Y171819D01*
X145671D01*
X144668Y172822D01*
X144172Y173153D01*
X143587Y173270D01*
X123087D01*
X122501Y173153D01*
X122005Y172822D01*
X121674Y172325D01*
X121557Y171740D01*
Y126374D01*
X116567Y121383D01*
X116108Y121573D01*
X115390Y121667D01*
X114672Y121573D01*
X114003Y121296D01*
X113969Y121270D01*
X113811D01*
X113777Y121296D01*
X113108Y121573D01*
X112390Y121667D01*
X111672Y121573D01*
X111003Y121296D01*
X110969Y121270D01*
X110811D01*
X110777Y121296D01*
X110108Y121573D01*
X109390Y121667D01*
X108672Y121573D01*
X108003Y121296D01*
X107428Y120855D01*
X106988Y120281D01*
X106711Y119612D01*
X106698Y119514D01*
X106505Y119322D01*
X106174Y118825D01*
X106057Y118240D01*
Y115021D01*
X105698Y114872D01*
X105584Y114833D01*
X105148Y115401D01*
X104574Y115842D01*
X103904Y116119D01*
X103187Y116214D01*
X102469Y116119D01*
X102154Y115989D01*
X96187D01*
X95211Y115795D01*
X94384Y115243D01*
X87731Y108589D01*
X84253D01*
X84108Y109068D01*
X84302Y109198D01*
X89224Y114119D01*
X89776Y114946D01*
X89970Y115921D01*
X89970D01*
Y115921D01*
X89970D01*
Y115921D01*
Y115921D01*
X89970D01*
X89970Y115921D01*
Y121071D01*
X89776Y122046D01*
X89512Y122442D01*
Y125429D01*
X90002Y125527D01*
X90167Y125129D01*
X90728Y124398D01*
X91459Y123837D01*
X92311Y123484D01*
X93224Y123363D01*
X94138Y123484D01*
X94990Y123837D01*
X95721Y124398D01*
X96282Y125129D01*
X96634Y125980D01*
X96755Y126894D01*
X96634Y127807D01*
X96282Y128659D01*
X96264Y128682D01*
Y129255D01*
X96712Y129477D01*
X96775Y129429D01*
X97443Y129151D01*
X98035Y129074D01*
X98957Y128151D01*
X98814Y127807D01*
X98694Y126894D01*
X98814Y125980D01*
X99167Y125129D01*
X99728Y124398D01*
X100459Y123837D01*
X101311Y123484D01*
X102224Y123363D01*
X103138Y123484D01*
X103990Y123837D01*
X104721Y124398D01*
X105282Y125129D01*
X105634Y125980D01*
X105755Y126894D01*
X105634Y127807D01*
X105282Y128659D01*
X104721Y129390D01*
X103990Y129951D01*
X103138Y130304D01*
X102487Y130389D01*
X100918Y131957D01*
X100841Y132549D01*
X100564Y133218D01*
X100123Y133792D01*
X99548Y134233D01*
X98879Y134510D01*
X98161Y134604D01*
X97443Y134510D01*
X96775Y134233D01*
X96268Y133844D01*
X96186Y133855D01*
X95611Y134296D01*
X94942Y134573D01*
X94224Y134667D01*
X93506Y134573D01*
X92838Y134296D01*
X92263Y133855D01*
X91822Y133281D01*
X91545Y132612D01*
X91451Y131894D01*
X91545Y131176D01*
X91822Y130507D01*
X91700Y130051D01*
X91459Y129951D01*
X90728Y129390D01*
X90167Y128659D01*
X90002Y128261D01*
X89512Y128358D01*
Y129228D01*
X87907D01*
X87716Y129690D01*
X89450Y131424D01*
X89892Y132086D01*
X90047Y132866D01*
Y133116D01*
X91008D01*
Y139616D01*
X85008D01*
Y139363D01*
X84559Y139142D01*
X84395Y139268D01*
X83726Y139545D01*
X83135Y139623D01*
X82039Y140719D01*
Y145153D01*
X82496Y145504D01*
X83057Y146235D01*
X83410Y147086D01*
X83530Y148000D01*
X83410Y148914D01*
X83057Y149765D01*
X82496Y150496D01*
X81765Y151057D01*
X80914Y151410D01*
X80000Y151530D01*
X79086Y151410D01*
X78235Y151057D01*
X77504Y150496D01*
X76943Y149765D01*
X76590Y148914D01*
X76470Y148000D01*
X76590Y147086D01*
X76943Y146235D01*
X77504Y145504D01*
X77961Y145153D01*
Y140654D01*
X77496Y140496D01*
X76765Y141057D01*
X75914Y141410D01*
X75000Y141530D01*
X74086Y141410D01*
X73235Y141057D01*
X72504Y140496D01*
X72039Y140654D01*
Y145153D01*
X72496Y145504D01*
X73057Y146235D01*
X73410Y147086D01*
X73530Y148000D01*
X73410Y148914D01*
X73057Y149765D01*
X72496Y150496D01*
X71765Y151057D01*
X70914Y151410D01*
X70000Y151530D01*
X69086Y151410D01*
X68235Y151057D01*
X67504Y150496D01*
X66943Y149765D01*
X66590Y148914D01*
X66470Y148000D01*
X66590Y147086D01*
X66943Y146235D01*
X67504Y145504D01*
X67961Y145153D01*
Y140654D01*
X67496Y140496D01*
X66765Y141057D01*
X65914Y141410D01*
X65000Y141530D01*
X64086Y141410D01*
X63235Y141057D01*
X62504Y140496D01*
X62039Y140654D01*
Y145153D01*
X62496Y145504D01*
X63057Y146235D01*
X63410Y147086D01*
X63530Y148000D01*
X63410Y148914D01*
X63057Y149765D01*
X62496Y150496D01*
X61765Y151057D01*
X60914Y151410D01*
X60000Y151530D01*
X59086Y151410D01*
X58235Y151057D01*
X57504Y150496D01*
X56943Y149765D01*
X56590Y148914D01*
X56470Y148000D01*
X56590Y147086D01*
X56943Y146235D01*
X57504Y145504D01*
X57961Y145153D01*
Y134756D01*
X57961Y134756D01*
X57961D01*
X58116Y133976D01*
X58558Y133314D01*
X62351Y129522D01*
Y127602D01*
X62258Y127138D01*
Y123594D01*
X62351Y123130D01*
Y121226D01*
X61988Y120753D01*
X61790Y120276D01*
X61300Y120179D01*
X60739Y120739D01*
X59913Y121292D01*
X59390Y121396D01*
Y122187D01*
X53390D01*
Y121958D01*
X53014Y121629D01*
X52390Y121711D01*
X51672Y121616D01*
X51003Y121339D01*
X50428Y120898D01*
X49988Y120324D01*
X49711Y119655D01*
X49616Y118937D01*
X49711Y118219D01*
X49988Y117550D01*
X50428Y116976D01*
X51003Y116535D01*
X51672Y116258D01*
X52390Y116163D01*
X53014Y116245D01*
X53390Y115916D01*
Y115687D01*
X58186D01*
X58464Y115271D01*
X58429Y115187D01*
X57140D01*
Y112687D01*
X59390D01*
Y114226D01*
X59852Y114418D01*
X60612Y113657D01*
X60612D01*
X60612Y113657D01*
X60612Y113657D01*
X60612D01*
X60612Y113657D01*
Y113657D01*
X60612Y113657D01*
Y113657D01*
X61439Y113104D01*
X62415Y112910D01*
X65045D01*
X68758Y109198D01*
X68952Y109068D01*
X68807Y108589D01*
X62387D01*
X61411Y108395D01*
X60584Y107843D01*
X59689Y106948D01*
X59587Y106990D01*
Y106990D01*
X59587Y106990D01*
X53587D01*
Y100490D01*
X59587D01*
Y101191D01*
X60087D01*
X61062Y101385D01*
X61858Y101917D01*
X62299Y101681D01*
Y96701D01*
X62351D01*
Y96205D01*
X60049Y93903D01*
X59587Y94094D01*
Y95990D01*
X57337D01*
Y93490D01*
X58982D01*
X59174Y93028D01*
X57685Y91539D01*
X40600D01*
X40409Y92001D01*
X41738Y93331D01*
X42984D01*
Y100630D01*
X37622D01*
Y94982D01*
X37108Y94468D01*
X29665D01*
X29444Y94917D01*
X29492Y94979D01*
X29769Y95648D01*
X29864Y96366D01*
X29769Y97084D01*
X29492Y97753D01*
X29051Y98327D01*
X28477Y98768D01*
X27808Y99045D01*
X27090Y99140D01*
X26984Y99232D01*
Y100630D01*
X21622D01*
Y93331D01*
X24056D01*
X24385Y92955D01*
X24316Y92429D01*
X24384Y91915D01*
X24054Y91539D01*
X7500D01*
X6720Y91384D01*
X6511Y91245D01*
X6175Y91384D01*
X5000Y91539D01*
X3825Y91384D01*
X2731Y90931D01*
X2386Y90666D01*
X1937Y90887D01*
Y93113D01*
X2386Y93334D01*
X2731Y93069D01*
X3825Y92616D01*
X5000Y92461D01*
X6175Y92616D01*
X7269Y93069D01*
X8209Y93791D01*
X8931Y94731D01*
X9384Y95825D01*
X9539Y97000D01*
X9384Y98175D01*
X9289Y98405D01*
X17226Y106342D01*
X17724Y106293D01*
X17882Y106055D01*
Y102417D01*
X23244D01*
Y109716D01*
X22602D01*
Y110240D01*
X23813D01*
Y116240D01*
X22602D01*
Y116740D01*
X23813D01*
Y122201D01*
X24313D01*
Y116740D01*
X30813D01*
Y122740D01*
X29602D01*
X29447Y123521D01*
X29005Y124182D01*
X28948Y124239D01*
X29139Y124701D01*
X38718D01*
X40420Y122999D01*
X40313Y122740D01*
X40313D01*
X40313Y122740D01*
Y116740D01*
X46813D01*
Y122740D01*
X45602D01*
X45447Y123521D01*
X45005Y124182D01*
X41005Y128182D01*
X40343Y128624D01*
X39563Y128779D01*
X16000D01*
X15220Y128624D01*
X14558Y128182D01*
X3558Y117182D01*
X3116Y116521D01*
X2961Y115740D01*
Y111500D01*
X1937D01*
Y169291D01*
X1927Y169345D01*
X2036Y170453D01*
X2375Y171569D01*
X2925Y172599D01*
X3665Y173501D01*
X4567Y174241D01*
X5596Y174791D01*
X6713Y175130D01*
X7821Y175239D01*
X7874Y175228D01*
D02*
G37*
%LPC*%
G36*
X36640Y64116D02*
X34140D01*
Y61866D01*
X36640D01*
Y64116D01*
D02*
G37*
G36*
X40640D02*
X38140D01*
Y61866D01*
X40640D01*
Y64116D01*
D02*
G37*
G36*
X171250Y66250D02*
X167560D01*
X167616Y65825D01*
X168069Y64731D01*
X168791Y63791D01*
X169731Y63069D01*
X170825Y62616D01*
X171250Y62560D01*
Y66250D01*
D02*
G37*
G36*
X108185Y76500D02*
X99279D01*
Y66807D01*
X108185D01*
Y76500D01*
D02*
G37*
G36*
X171250Y71440D02*
X170825Y71384D01*
X169731Y70931D01*
X168791Y70209D01*
X168069Y69269D01*
X167616Y68175D01*
X167560Y67750D01*
X171250D01*
Y71440D01*
D02*
G37*
G36*
X36640Y67866D02*
X34140D01*
Y65616D01*
X36640D01*
Y67866D01*
D02*
G37*
G36*
X40640D02*
X38140D01*
Y65616D01*
X40640D01*
Y67866D01*
D02*
G37*
G36*
X27390Y51896D02*
X26672Y51801D01*
X26357Y51671D01*
X20264D01*
X19288Y51477D01*
X18461Y50924D01*
X6205Y38669D01*
X5653Y37842D01*
X5459Y36866D01*
Y18398D01*
X5329Y18084D01*
X5234Y17366D01*
X5329Y16648D01*
X5606Y15979D01*
X6047Y15405D01*
X6621Y14964D01*
X7290Y14687D01*
X8008Y14592D01*
X8726Y14687D01*
X9395Y14964D01*
X9969Y15405D01*
X10410Y15979D01*
X10687Y16648D01*
X10782Y17366D01*
X10687Y18084D01*
X10557Y18398D01*
Y35810D01*
X21320Y46573D01*
X26357D01*
X26672Y46443D01*
X27390Y46348D01*
X28108Y46443D01*
X28777Y46720D01*
X29351Y47161D01*
X29792Y47735D01*
X30069Y48404D01*
X30163Y49122D01*
X30069Y49840D01*
X29792Y50509D01*
X29351Y51083D01*
X28777Y51524D01*
X28108Y51801D01*
X27390Y51896D01*
D02*
G37*
G36*
X146250Y54750D02*
X144000D01*
Y52250D01*
X146250D01*
Y54750D01*
D02*
G37*
G36*
X132032Y48661D02*
X128919D01*
Y42990D01*
X132032D01*
Y48661D01*
D02*
G37*
G36*
X166236Y54921D02*
X158937D01*
Y49559D01*
X159541D01*
X159871Y49183D01*
X159813Y48740D01*
X159907Y48022D01*
X160185Y47353D01*
X160625Y46779D01*
X161200Y46338D01*
X161869Y46061D01*
X162587Y45966D01*
X163304Y46061D01*
X163973Y46338D01*
X164548Y46779D01*
X164989Y47353D01*
X165266Y48022D01*
X165360Y48740D01*
X165266Y49458D01*
X165333Y49559D01*
X166236D01*
Y54921D01*
D02*
G37*
G36*
X150000Y58750D02*
X147750D01*
Y55499D01*
Y52250D01*
X150000D01*
Y53299D01*
X152750D01*
Y55979D01*
Y58661D01*
X150000D01*
Y58750D01*
D02*
G37*
G36*
X157150Y58661D02*
X154250D01*
Y56730D01*
X157150D01*
Y58661D01*
D02*
G37*
G36*
X171250Y61440D02*
X170825Y61384D01*
X169731Y60931D01*
X168791Y60209D01*
X168069Y59269D01*
X167616Y58175D01*
X167560Y57750D01*
X171250D01*
Y61440D01*
D02*
G37*
G36*
Y56250D02*
X167560D01*
X167616Y55825D01*
X168069Y54731D01*
X168791Y53791D01*
X169731Y53069D01*
X170825Y52616D01*
X171250Y52560D01*
Y56250D01*
D02*
G37*
G36*
X157150Y55230D02*
X154250D01*
Y53299D01*
X157150D01*
Y55230D01*
D02*
G37*
G36*
X105337Y102740D02*
X102837D01*
Y100490D01*
X105337D01*
Y102740D01*
D02*
G37*
G36*
X112063Y106490D02*
X109813D01*
Y103990D01*
X111989D01*
X112343Y103637D01*
Y101053D01*
X118014D01*
Y104165D01*
X112343D01*
D01*
X112343D01*
X112063Y104445D01*
Y106490D01*
D02*
G37*
G36*
X171250Y101440D02*
X170825Y101384D01*
X169731Y100931D01*
X168791Y100209D01*
X168069Y99269D01*
X167616Y98175D01*
X167560Y97750D01*
X171250D01*
Y101440D01*
D02*
G37*
G36*
X101337Y102740D02*
X98837D01*
Y100490D01*
X101337D01*
Y102740D01*
D02*
G37*
G36*
X39813Y122740D02*
X33313D01*
Y116740D01*
X34524D01*
Y116240D01*
X33313D01*
Y110240D01*
X34524D01*
Y109717D01*
X33882D01*
Y102417D01*
X39244D01*
Y109717D01*
X38602D01*
Y110240D01*
X39813D01*
Y116240D01*
X38602D01*
Y116740D01*
X39813D01*
Y122740D01*
D02*
G37*
G36*
X43293Y105317D02*
X41362D01*
Y102417D01*
X43293D01*
Y105317D01*
D02*
G37*
G36*
X27293Y105317D02*
X25362D01*
Y102417D01*
X27293D01*
Y105317D01*
D02*
G37*
G36*
X30724D02*
X28793D01*
Y102417D01*
X30724D01*
Y105317D01*
D02*
G37*
G36*
X59587Y99990D02*
X57337D01*
Y97490D01*
X59587D01*
Y99990D01*
D02*
G37*
G36*
X171250Y96250D02*
X167560D01*
X167616Y95825D01*
X168069Y94731D01*
X168791Y93791D01*
X169731Y93069D01*
X170825Y92616D01*
X171250Y92560D01*
Y96250D01*
D02*
G37*
G36*
X55837Y95990D02*
X53587D01*
Y93490D01*
X55837D01*
Y95990D01*
D02*
G37*
G36*
X171250Y76250D02*
X167560D01*
X167616Y75825D01*
X168069Y74731D01*
X168791Y73791D01*
X169731Y73069D01*
X170825Y72616D01*
X171250Y72560D01*
Y76250D01*
D02*
G37*
G36*
Y81440D02*
X170825Y81384D01*
X169731Y80931D01*
X168791Y80209D01*
X168069Y79269D01*
X167616Y78175D01*
X167560Y77750D01*
X171250D01*
Y81440D01*
D02*
G37*
G36*
X105337Y98990D02*
X102837D01*
Y96740D01*
X105337D01*
Y98990D01*
D02*
G37*
G36*
X55837Y99990D02*
X53587D01*
Y97490D01*
X55837D01*
Y99990D01*
D02*
G37*
G36*
X118014Y99553D02*
X112343D01*
Y96441D01*
X118014D01*
Y99553D01*
D02*
G37*
G36*
X101337Y98990D02*
X98837D01*
Y96740D01*
X101337D01*
Y98990D01*
D02*
G37*
G36*
X127419Y48661D02*
X124307D01*
Y42990D01*
X127419D01*
Y48661D01*
D02*
G37*
G36*
X132032Y27990D02*
X128919D01*
Y22319D01*
X132032D01*
Y27990D01*
D02*
G37*
G36*
X91965D02*
X89640D01*
Y24681D01*
X91965D01*
Y27990D01*
D02*
G37*
G36*
X124160Y20784D02*
X121660D01*
Y18533D01*
X124160D01*
Y20784D01*
D02*
G37*
G36*
X127419Y27990D02*
X124307D01*
Y22319D01*
X127419D01*
Y27990D01*
D02*
G37*
G36*
X132032Y35161D02*
X128919D01*
Y29490D01*
X132032D01*
Y35161D01*
D02*
G37*
G36*
X166236Y39921D02*
X158937D01*
Y34559D01*
X159541D01*
X159871Y34183D01*
X159813Y33740D01*
X159907Y33022D01*
X160185Y32353D01*
X160625Y31779D01*
X161200Y31338D01*
X161869Y31061D01*
X162587Y30966D01*
X163304Y31061D01*
X163973Y31338D01*
X164548Y31779D01*
X164989Y32353D01*
X165266Y33022D01*
X165360Y33740D01*
X165266Y34458D01*
X165333Y34559D01*
X166236D01*
Y39921D01*
D02*
G37*
G36*
X91965Y32799D02*
X89640D01*
Y29490D01*
X91965D01*
Y32799D01*
D02*
G37*
G36*
X127419Y35161D02*
X124307D01*
Y29490D01*
X127419D01*
Y35161D01*
D02*
G37*
G36*
X94140Y20740D02*
X91640D01*
Y18490D01*
X94140D01*
Y20740D01*
D02*
G37*
G36*
Y10990D02*
X91640D01*
Y8740D01*
X94140D01*
Y10990D01*
D02*
G37*
G36*
Y16990D02*
X87640D01*
Y14740D01*
Y12490D01*
X94140D01*
Y14740D01*
Y16990D01*
D02*
G37*
G36*
X169500Y17148D02*
X168038Y16956D01*
X166676Y16392D01*
X165506Y15494D01*
X164608Y14324D01*
X164044Y12962D01*
X163852Y11500D01*
X164044Y10038D01*
X164608Y8676D01*
X165506Y7506D01*
X166676Y6608D01*
X168038Y6044D01*
X169500Y5852D01*
X170962Y6044D01*
X172324Y6608D01*
X173494Y7506D01*
X174392Y8676D01*
X174956Y10038D01*
X175148Y11500D01*
X174956Y12962D01*
X174392Y14324D01*
X173494Y15494D01*
X172324Y16392D01*
X170962Y16956D01*
X169500Y17148D01*
D02*
G37*
G36*
X90140Y10990D02*
X87640D01*
Y8740D01*
X90140D01*
Y10990D01*
D02*
G37*
G36*
X58890Y18490D02*
X56640D01*
Y15990D01*
X58890D01*
Y18490D01*
D02*
G37*
G36*
X90140Y20740D02*
X87640D01*
Y18490D01*
X90140D01*
Y20740D01*
D02*
G37*
G36*
X124160Y17033D02*
X121660D01*
Y14784D01*
X124160D01*
Y17033D01*
D02*
G37*
G36*
X49140Y18490D02*
X46890D01*
Y15990D01*
X49140D01*
Y18490D01*
D02*
G37*
G36*
X33140Y43624D02*
X30890D01*
Y41124D01*
X33140D01*
Y43624D01*
D02*
G37*
G36*
X36890D02*
X34640D01*
Y41124D01*
X36890D01*
Y43624D01*
D02*
G37*
G36*
X150000Y43750D02*
X147750D01*
Y40499D01*
Y37250D01*
X150000D01*
Y38299D01*
X152750D01*
Y40979D01*
Y43661D01*
X150000D01*
Y43750D01*
D02*
G37*
G36*
X157150Y40230D02*
X154250D01*
Y38299D01*
X157150D01*
Y40230D01*
D02*
G37*
G36*
X146250Y43750D02*
X144000D01*
Y41250D01*
X146250D01*
Y43750D01*
D02*
G37*
G36*
X157150Y43661D02*
X154250D01*
Y41730D01*
X157150D01*
Y43661D01*
D02*
G37*
G36*
X39640Y43624D02*
X37390D01*
Y41124D01*
X39640D01*
Y43624D01*
D02*
G37*
G36*
X43390D02*
X41140D01*
Y41124D01*
X43390D01*
Y43624D01*
D02*
G37*
G36*
X146250Y39750D02*
X144000D01*
Y37250D01*
X146250D01*
Y39750D01*
D02*
G37*
G36*
X127419Y41490D02*
X124307D01*
Y35819D01*
X127419D01*
Y41490D01*
D02*
G37*
G36*
X132032D02*
X128919D01*
Y35819D01*
X132032D01*
Y41490D01*
D02*
G37*
G36*
X43390Y36624D02*
X37390D01*
Y35413D01*
X36890D01*
Y36624D01*
X30890D01*
Y35413D01*
X30140D01*
Y36374D01*
X23640D01*
Y30374D01*
X27893D01*
X28114Y29926D01*
X27988Y29761D01*
X27711Y29092D01*
X27616Y28374D01*
X27711Y27656D01*
X27988Y26987D01*
X28428Y26413D01*
X29003Y25972D01*
X29672Y25695D01*
X30263Y25617D01*
X35082Y20798D01*
D01*
X35082Y20798D01*
X35082Y20798D01*
D01*
D01*
D01*
X35082Y20798D01*
Y20798D01*
X35743Y20356D01*
X36524Y20201D01*
X46890D01*
Y18990D01*
X58890D01*
Y20201D01*
X64640D01*
Y14740D01*
Y13779D01*
X58890D01*
Y14490D01*
X55889D01*
Y15239D01*
X55140D01*
Y18490D01*
X50640D01*
Y15239D01*
X49891D01*
Y14490D01*
X46890D01*
Y13779D01*
X37734D01*
X30147Y21367D01*
X30069Y21958D01*
X29792Y22627D01*
X29351Y23201D01*
X28777Y23642D01*
X28108Y23919D01*
X27390Y24014D01*
X26672Y23919D01*
X26003Y23642D01*
X25429Y23201D01*
X24988Y22627D01*
X24711Y21958D01*
X24616Y21240D01*
X24711Y20522D01*
X24988Y19853D01*
X25429Y19279D01*
X26003Y18838D01*
X26672Y18561D01*
X27263Y18483D01*
X35448Y10298D01*
X36109Y9856D01*
X36890Y9701D01*
X64640D01*
Y8740D01*
D01*
Y8740D01*
X64540Y8640D01*
X35222D01*
X17939Y25924D01*
Y28405D01*
X18069Y28719D01*
X18164Y29437D01*
X18069Y30155D01*
X18215Y30374D01*
X23140D01*
Y36374D01*
X16640D01*
Y36283D01*
X16224Y36005D01*
X16108Y36053D01*
X15390Y36148D01*
X14672Y36053D01*
X14003Y35776D01*
X13429Y35335D01*
X12988Y34761D01*
X12711Y34092D01*
X12616Y33374D01*
X12711Y32656D01*
X12988Y31987D01*
X13429Y31413D01*
Y31398D01*
X12988Y30824D01*
X12711Y30155D01*
X12616Y29437D01*
X12711Y28719D01*
X12841Y28405D01*
Y24868D01*
X12841Y24868D01*
X12841D01*
X13035Y23892D01*
X13587Y23065D01*
X32364Y4289D01*
X33191Y3736D01*
X34166Y3542D01*
X80741D01*
X81716Y3736D01*
X82543Y4289D01*
X85692Y7438D01*
X86245Y8265D01*
X86339Y8740D01*
X87140D01*
Y14740D01*
Y20740D01*
X86439D01*
Y24681D01*
X88140D01*
Y28739D01*
Y32799D01*
X64715D01*
X62698Y34816D01*
X62036Y35258D01*
X61256Y35413D01*
X43390D01*
Y36624D01*
D02*
G37*
G36*
X150000Y36750D02*
X144000D01*
Y35539D01*
X143500D01*
Y36750D01*
X137500D01*
Y30250D01*
X143500D01*
Y31461D01*
X144000D01*
Y30250D01*
X150000D01*
Y30819D01*
X157150D01*
Y36181D01*
X150000D01*
Y36750D01*
D02*
G37*
G36*
X39640Y39624D02*
X37390D01*
Y37124D01*
X39640D01*
Y39624D01*
D02*
G37*
G36*
X43390D02*
X41140D01*
Y37124D01*
X43390D01*
Y39624D01*
D02*
G37*
G36*
X33140D02*
X30890D01*
Y37124D01*
X33140D01*
Y39624D01*
D02*
G37*
G36*
X36890D02*
X34640D01*
Y37124D01*
X36890D01*
Y39624D01*
D02*
G37*
G36*
X46724Y105317D02*
X44793D01*
Y102417D01*
X46724D01*
Y105317D01*
D02*
G37*
G36*
X150750Y156069D02*
X148250D01*
Y153819D01*
X150750D01*
Y156069D01*
D02*
G37*
G36*
X154750D02*
X152250D01*
Y153819D01*
X154750D01*
Y156069D01*
D02*
G37*
G36*
X30585Y156023D02*
X28333D01*
X28340Y155970D01*
X28650Y155222D01*
X29142Y154579D01*
X29785Y154087D01*
X30533Y153777D01*
X30585Y153770D01*
Y156023D01*
D02*
G37*
G36*
X34338D02*
X32085D01*
Y153770D01*
X32138Y153777D01*
X32886Y154087D01*
X33528Y154579D01*
X34021Y155222D01*
X34331Y155970D01*
X34338Y156023D01*
D02*
G37*
G36*
X30585Y159775D02*
X30533Y159768D01*
X29785Y159458D01*
X29142Y158965D01*
X28650Y158323D01*
X28340Y157575D01*
X28333Y157522D01*
X30585D01*
Y159775D01*
D02*
G37*
G36*
X32085D02*
Y157522D01*
X34338D01*
X34331Y157575D01*
X34021Y158323D01*
X33528Y158965D01*
X32886Y159458D01*
X32138Y159768D01*
X32085Y159775D01*
D02*
G37*
G36*
X11491D02*
X11438Y159768D01*
X10690Y159458D01*
X10048Y158965D01*
X9555Y158323D01*
X9245Y157575D01*
X9238Y157522D01*
X11491D01*
Y159775D01*
D02*
G37*
G36*
X12991D02*
Y157522D01*
X15244D01*
X15237Y157575D01*
X14927Y158323D01*
X14434Y158965D01*
X13792Y159458D01*
X13044Y159768D01*
X12991Y159775D01*
D02*
G37*
G36*
X15244Y156023D02*
X12991D01*
Y153770D01*
X13044Y153777D01*
X13792Y154087D01*
X14434Y154579D01*
X14927Y155222D01*
X15237Y155970D01*
X15244Y156023D01*
D02*
G37*
G36*
X42890Y149490D02*
X36890D01*
Y149003D01*
X36255Y148919D01*
X35586Y148642D01*
X35011Y148202D01*
X34570Y147627D01*
X34293Y146958D01*
X34199Y146240D01*
X34293Y145522D01*
X34570Y144853D01*
X35011Y144279D01*
X35586Y143838D01*
X36255Y143561D01*
X36890Y143477D01*
Y142990D01*
X42890D01*
Y149490D01*
D02*
G37*
G36*
X87258Y146616D02*
X85008D01*
Y144116D01*
X87258D01*
Y146616D01*
D02*
G37*
G36*
X99967Y146490D02*
X94492D01*
Y140622D01*
X99967D01*
Y146490D01*
D02*
G37*
G36*
X106941D02*
X101467D01*
Y140622D01*
X106941D01*
Y146490D01*
D02*
G37*
G36*
Y153858D02*
X101467D01*
Y147990D01*
X106941D01*
Y153858D01*
D02*
G37*
G36*
X11491Y156023D02*
X9238D01*
X9245Y155970D01*
X9555Y155222D01*
X10048Y154579D01*
X10690Y154087D01*
X11438Y153777D01*
X11491Y153770D01*
Y156023D01*
D02*
G37*
G36*
X91008Y146616D02*
X88758D01*
Y144116D01*
X91008D01*
Y146616D01*
D02*
G37*
G36*
X99967Y153858D02*
X94492D01*
Y147990D01*
X99967D01*
Y153858D01*
D02*
G37*
G36*
X6570Y172781D02*
X6106Y172720D01*
X4975Y172251D01*
X4004Y171506D01*
X3258Y170535D01*
X2790Y169404D01*
X2729Y168940D01*
X6570D01*
Y172781D01*
D02*
G37*
G36*
X8070D02*
Y168940D01*
X11911D01*
X11850Y169404D01*
X11381Y170535D01*
X10636Y171506D01*
X9665Y172251D01*
X8534Y172720D01*
X8070Y172781D01*
D02*
G37*
G36*
X99967Y172858D02*
X94492D01*
Y166990D01*
X99967D01*
Y172858D01*
D02*
G37*
G36*
X106941D02*
X101467D01*
Y166990D01*
X106941D01*
Y172858D01*
D02*
G37*
G36*
X150750Y171819D02*
X148250D01*
Y169569D01*
X150750D01*
Y171819D01*
D02*
G37*
G36*
X154750D02*
X152250D01*
Y169569D01*
X154750D01*
Y171819D01*
D02*
G37*
G36*
X34916Y172781D02*
X34452Y172720D01*
X33321Y172251D01*
X32350Y171506D01*
X31605Y170535D01*
X31136Y169404D01*
X31075Y168940D01*
X34916D01*
Y172781D01*
D02*
G37*
G36*
X36416D02*
Y168940D01*
X40257D01*
X40196Y169404D01*
X39728Y170535D01*
X38982Y171506D01*
X38011Y172251D01*
X36880Y172720D01*
X36416Y172781D01*
D02*
G37*
G36*
X40257Y167440D02*
X36416D01*
Y163599D01*
X36880Y163660D01*
X38011Y164128D01*
X38982Y164874D01*
X39728Y165845D01*
X40196Y166976D01*
X40257Y167440D01*
D02*
G37*
G36*
X106941Y165490D02*
X101467D01*
Y159622D01*
X106941D01*
Y165490D01*
D02*
G37*
G36*
X54000Y171648D02*
X52538Y171456D01*
X51176Y170892D01*
X50006Y169994D01*
X49108Y168824D01*
X48544Y167462D01*
X48352Y166000D01*
X48544Y164538D01*
X49108Y163176D01*
X50006Y162006D01*
X51176Y161108D01*
X52538Y160544D01*
X54000Y160352D01*
X55462Y160544D01*
X56824Y161108D01*
X57994Y162006D01*
X58892Y163176D01*
X59456Y164538D01*
X59648Y166000D01*
X59456Y167462D01*
X58892Y168824D01*
X57994Y169994D01*
X56824Y170892D01*
X55462Y171456D01*
X54000Y171648D01*
D02*
G37*
G36*
X154750Y162069D02*
X148250D01*
Y159819D01*
Y157569D01*
X154750D01*
Y159819D01*
Y162069D01*
D02*
G37*
G36*
X99967Y165490D02*
X94492D01*
Y159622D01*
X99967D01*
Y165490D01*
D02*
G37*
G36*
X11911Y167440D02*
X8070D01*
Y163599D01*
X8534Y163660D01*
X9665Y164128D01*
X10636Y164874D01*
X11381Y165845D01*
X11850Y166976D01*
X11911Y167440D01*
D02*
G37*
G36*
X34916D02*
X31075D01*
X31136Y166976D01*
X31605Y165845D01*
X32350Y164874D01*
X33321Y164128D01*
X34452Y163660D01*
X34916Y163599D01*
Y167440D01*
D02*
G37*
G36*
X154750Y168069D02*
X148250D01*
Y165819D01*
Y163569D01*
X154750D01*
Y165819D01*
Y168069D01*
D02*
G37*
G36*
X6570Y167440D02*
X2729D01*
X2790Y166976D01*
X3258Y165845D01*
X4004Y164874D01*
X4975Y164128D01*
X6106Y163660D01*
X6570Y163599D01*
Y167440D01*
D02*
G37*
G36*
X46813Y112490D02*
X44313D01*
Y110240D01*
X46813D01*
Y112490D01*
D02*
G37*
G36*
X55640Y115187D02*
X53390D01*
Y112687D01*
X55640D01*
Y115187D01*
D02*
G37*
G36*
X30813Y112490D02*
X28313D01*
Y110240D01*
X30813D01*
Y112490D01*
D02*
G37*
G36*
X42813D02*
X40313D01*
Y110240D01*
X42813D01*
Y112490D01*
D02*
G37*
G36*
X30813Y116240D02*
X28313D01*
Y113990D01*
X30813D01*
Y116240D01*
D02*
G37*
G36*
X42813D02*
X40313D01*
Y113990D01*
X42813D01*
Y116240D01*
D02*
G37*
G36*
X160224Y117439D02*
X154750D01*
Y113146D01*
X160224D01*
Y117439D01*
D02*
G37*
G36*
X26813Y116240D02*
X24313D01*
Y113990D01*
X26813D01*
Y116240D01*
D02*
G37*
G36*
Y112490D02*
X24313D01*
Y110240D01*
X26813D01*
Y112490D01*
D02*
G37*
G36*
X27293Y109716D02*
X25362D01*
Y106817D01*
X27293D01*
Y109716D01*
D02*
G37*
G36*
X30724D02*
X28793D01*
Y106817D01*
X30724D01*
Y109716D01*
D02*
G37*
G36*
X108313Y106490D02*
X106063D01*
Y103990D01*
X108313D01*
Y106490D01*
D02*
G37*
G36*
X125539Y104223D02*
D01*
D01*
X125539Y104223D01*
X125469Y104223D01*
X125185Y104165D01*
X125185D01*
X125115Y104165D01*
X125115Y104165D01*
Y104165D01*
X119514D01*
Y100302D01*
Y96441D01*
X125185D01*
Y96441D01*
X125242Y96498D01*
X125539Y96498D01*
X125539D01*
Y96498D01*
D01*
D01*
D01*
X131140D01*
Y100360D01*
Y104223D01*
X125539D01*
X125539Y104223D01*
D02*
G37*
G36*
X55640Y111187D02*
X53390D01*
Y108687D01*
X55640D01*
Y111187D01*
D02*
G37*
G36*
X59390D02*
X57140D01*
Y108687D01*
X59390D01*
Y111187D01*
D02*
G37*
G36*
X43293Y109717D02*
X41362D01*
Y106817D01*
X43293D01*
Y109717D01*
D02*
G37*
G36*
X46724D02*
X44793D01*
Y106817D01*
X46724D01*
Y109717D01*
D02*
G37*
G36*
X46813Y116240D02*
X44313D01*
Y113990D01*
X46813D01*
Y116240D01*
D02*
G37*
G36*
X158008Y152796D02*
X142008D01*
X141423Y152679D01*
X140926Y152348D01*
X140826Y152248D01*
X140545Y151966D01*
X140539Y151961D01*
X140534Y151955D01*
X140026Y151448D01*
X139695Y150951D01*
X139578Y150366D01*
Y149250D01*
X139500D01*
Y142750D01*
X145500D01*
Y143437D01*
X147776D01*
Y136768D01*
X160224D01*
Y146854D01*
X160137D01*
Y150666D01*
X160021Y151251D01*
X159689Y151748D01*
X159089Y152348D01*
X158593Y152679D01*
X158008Y152796D01*
D02*
G37*
G36*
X141750Y142250D02*
X139500D01*
Y139750D01*
X141750D01*
Y142250D01*
D02*
G37*
G36*
X42890Y138490D02*
X40640D01*
Y135990D01*
X42890D01*
Y138490D01*
D02*
G37*
G36*
X91008Y142616D02*
X88758D01*
Y140116D01*
X91008D01*
Y142616D01*
D02*
G37*
G36*
X42890Y142490D02*
X40640D01*
Y139990D01*
X42890D01*
Y142490D01*
D02*
G37*
G36*
X87258Y142616D02*
X85008D01*
Y140116D01*
X87258D01*
Y142616D01*
D02*
G37*
G36*
X145500Y142250D02*
X143250D01*
Y139750D01*
X145500D01*
Y142250D01*
D02*
G37*
G36*
X39140Y142490D02*
X36890D01*
Y139990D01*
X39140D01*
Y142490D01*
D02*
G37*
G36*
X113431Y136677D02*
X110221D01*
Y131990D01*
X113431D01*
Y136677D01*
D02*
G37*
G36*
X160224Y123232D02*
X154750D01*
Y118939D01*
X160224D01*
Y123232D01*
D02*
G37*
G36*
X113431Y130490D02*
X110221D01*
Y125803D01*
X113431D01*
Y130490D01*
D02*
G37*
G36*
X118142D02*
X114931D01*
Y125803D01*
X118142D01*
Y130490D01*
D02*
G37*
G36*
X145500Y138250D02*
X143250D01*
Y135750D01*
X145500D01*
Y138250D01*
D02*
G37*
G36*
X39140Y138490D02*
X36890D01*
Y135990D01*
X39140D01*
Y138490D01*
D02*
G37*
G36*
X118142Y136677D02*
X114931D01*
Y131990D01*
X118142D01*
Y136677D01*
D02*
G37*
G36*
X141750Y138250D02*
X139500D01*
Y135750D01*
X141750D01*
Y138250D01*
D02*
G37*
%LPD*%
G36*
X81341Y20740D02*
X80640D01*
Y14740D01*
Y9595D01*
X79685Y8640D01*
X78140D01*
Y8740D01*
X78140D01*
Y10990D01*
X74889D01*
Y12490D01*
X78140D01*
Y14740D01*
Y16990D01*
X74889D01*
Y17739D01*
X74140D01*
Y20740D01*
X73427D01*
X73236Y21202D01*
X75332Y23298D01*
X75774Y23960D01*
X75917Y24681D01*
X81341D01*
Y20740D01*
D02*
G37*
G36*
X158608Y150666D02*
Y144966D01*
X141308D01*
X141108Y145166D01*
Y148666D01*
Y150366D01*
X141908Y151166D01*
X142008Y151266D01*
X158008D01*
X158608Y150666D01*
D02*
G37*
%LPC*%
G36*
X78140Y20740D02*
X75640D01*
Y18490D01*
X78140D01*
Y20740D01*
D02*
G37*
%LPD*%
D10*
X147000Y48500D02*
D03*
Y55500D02*
D03*
X140500D02*
D03*
Y48500D02*
D03*
Y40500D02*
D03*
Y33500D02*
D03*
X147000D02*
D03*
Y40500D02*
D03*
X109063Y107240D02*
D03*
Y114240D02*
D03*
X49890Y15240D02*
D03*
Y22240D02*
D03*
X40390Y40374D02*
D03*
Y33374D02*
D03*
X55890Y15240D02*
D03*
Y22240D02*
D03*
X33890Y40374D02*
D03*
Y33374D02*
D03*
X56587Y96740D02*
D03*
Y103740D02*
D03*
X142500Y139000D02*
D03*
Y146000D02*
D03*
X39890Y139240D02*
D03*
Y146240D02*
D03*
X88008Y136366D02*
D03*
Y143366D02*
D03*
X56390Y118937D02*
D03*
Y111937D02*
D03*
D11*
X19890Y33374D02*
D03*
X26890D02*
D03*
X37390Y64866D02*
D03*
X30390D02*
D03*
X20563Y113240D02*
D03*
X27563D02*
D03*
Y119740D02*
D03*
X20563D02*
D03*
X43563D02*
D03*
X36563D02*
D03*
Y113240D02*
D03*
X43563D02*
D03*
X120910Y17784D02*
D03*
X113909D02*
D03*
X74890Y11740D02*
D03*
X67890D02*
D03*
X74890Y17740D02*
D03*
X67890D02*
D03*
X83890D02*
D03*
X90890D02*
D03*
X83890Y11740D02*
D03*
X90890D02*
D03*
X144500Y156819D02*
D03*
X151500D02*
D03*
X144500Y168819D02*
D03*
X151500D02*
D03*
X144500Y162819D02*
D03*
X151500D02*
D03*
X102087Y99740D02*
D03*
X95087D02*
D03*
D12*
X24303Y96980D02*
D03*
X28043Y106067D02*
D03*
X20563D02*
D03*
X40303Y96980D02*
D03*
X44043Y106067D02*
D03*
X36563D02*
D03*
D24*
X26996Y64870D02*
X30390D01*
X96000Y99740D02*
Y100512D01*
X84087Y129740D02*
X84862Y128965D01*
X82303Y125366D02*
Y129740D01*
X84087D02*
X84882D01*
X82303D02*
X84087D01*
X80087D02*
X82303D01*
X67890Y17740D02*
Y18740D01*
Y11740D02*
Y17740D01*
X55890Y22240D02*
X66890D01*
X49890D02*
X55890D01*
X36524D02*
X49890D01*
X40390Y33374D02*
X61256D01*
X33890D02*
X40390D01*
X26890D02*
X33890D01*
X147000Y33500D02*
X153500D01*
X140500D02*
X147000D01*
X20563Y113240D02*
Y119740D01*
Y106067D02*
Y113240D01*
X36563D02*
Y119740D01*
Y106067D02*
Y113240D01*
X69508Y125366D02*
Y133492D01*
Y119366D02*
Y125366D01*
X64390D02*
Y130366D01*
Y119366D02*
Y125366D01*
X147000Y48500D02*
X153500D01*
X140500D02*
X147000D01*
X36972Y146240D02*
X39890D01*
X39836Y146294D02*
X39890Y146240D01*
X67890Y18740D02*
X73890Y24740D01*
Y28740D01*
X162587Y33740D02*
Y37240D01*
X146000Y64000D02*
Y68807D01*
X140500Y58500D02*
X146000Y64000D01*
X140500Y55500D02*
Y58500D01*
X137000Y40500D02*
X140500D01*
X135500Y42000D02*
Y53933D01*
Y42000D02*
X137000Y40500D01*
X132500Y56933D02*
X135500Y53933D01*
X102224Y126894D02*
Y127768D01*
X98161Y131831D02*
X102224Y127768D01*
X77185Y91185D02*
Y100563D01*
X63500Y77500D02*
X77185Y91185D01*
X74626Y92869D02*
Y100563D01*
X62257Y80500D02*
X74626Y92869D01*
X72067Y94552D02*
Y100563D01*
X61015Y83500D02*
X72067Y94552D01*
X69508Y96236D02*
Y100563D01*
X59772Y86500D02*
X69508Y96236D01*
X64390Y95360D02*
Y100563D01*
X58529Y89500D02*
X64390Y95360D01*
X28500Y80500D02*
X62257D01*
X21500Y83500D02*
X61015D01*
X14500Y86500D02*
X59772D01*
X7500Y89500D02*
X58529D01*
X35500Y77500D02*
X63500D01*
X5000Y87000D02*
X7500Y89500D01*
X5000Y77000D02*
X14500Y86500D01*
X5000Y67000D02*
X21500Y83500D01*
X5000Y57000D02*
X28500Y80500D01*
X5000Y47000D02*
X35500Y77500D01*
X16063Y108063D02*
Y121240D01*
X19063Y124240D01*
X26063D01*
X5000Y97000D02*
X16063Y108063D01*
X16000Y126740D02*
X39563D01*
X5000Y115740D02*
X16000Y126740D01*
X5000Y107000D02*
Y115740D01*
X162587Y48740D02*
Y52240D01*
X84862Y96150D02*
Y100563D01*
X82303Y96209D02*
Y100563D01*
X79744Y96768D02*
X80500Y96012D01*
X79744Y96768D02*
Y100563D01*
X68890Y24240D02*
Y28740D01*
X66890Y22240D02*
X68890Y24240D01*
X61256Y33374D02*
X63890Y30740D01*
X15390Y33374D02*
X19890D01*
X43563Y119740D02*
Y122740D01*
X39563Y126740D02*
X43563Y122740D01*
X26063Y124240D02*
X27563Y122740D01*
Y119740D02*
Y122740D01*
X24303Y96980D02*
X24917Y96366D01*
X27390D01*
Y92429D02*
X37953D01*
X40390Y94866D01*
Y96894D01*
X40303Y96980D02*
X40390Y96894D01*
X27390Y21240D02*
X36890Y11740D01*
X67890D01*
X30390Y28374D02*
X36524Y22240D01*
X87421Y121071D02*
Y125366D01*
X84862D02*
Y128965D01*
X79744Y129398D02*
X80087Y129740D01*
X79744Y125366D02*
Y129398D01*
X66949Y117425D02*
Y125366D01*
X72067Y114366D02*
Y125366D01*
X74626Y115366D02*
Y125366D01*
Y115366D02*
X75626Y114366D01*
X77185Y118489D02*
X79185Y116489D01*
Y114366D02*
Y116489D01*
X77185Y118489D02*
Y125366D01*
X84882Y129740D02*
X88008Y132866D01*
Y136366D01*
X94224Y127894D02*
Y131894D01*
X93224Y126894D02*
X94224Y127894D01*
X60000Y134756D02*
Y148000D01*
Y134756D02*
X64390Y130366D01*
X65000Y138000D02*
X69508Y133492D01*
X70000Y136433D02*
X74539Y131894D01*
X70000Y136433D02*
Y148000D01*
X75000Y138000D02*
X75256D01*
X80000Y139874D02*
Y148000D01*
Y139874D02*
X83008Y136866D01*
X95087Y97840D02*
Y99740D01*
X93258Y96012D02*
X95087Y97840D01*
X80500Y96012D02*
X93258D01*
X66949Y104802D02*
X67387Y105240D01*
X66949Y100563D02*
Y104802D01*
X78650Y134606D02*
X80390Y132866D01*
X81390D01*
X75256Y138000D02*
X78650Y134606D01*
D26*
X86224Y33990D02*
X86974Y33240D01*
X88890D01*
X83890Y17740D02*
Y27740D01*
Y11740D02*
Y17740D01*
Y9240D02*
Y11740D01*
X151390Y163760D02*
Y168819D01*
X55890Y15240D02*
X60390D01*
X49890D02*
X55890D01*
X56390Y118937D02*
X58937D01*
X52390D02*
X56390D01*
X93890Y14740D02*
X94890D01*
X90890Y11740D02*
X93890Y14740D01*
X90890Y17740D02*
X93890Y14740D01*
X77890D02*
X78890D01*
X74890Y11740D02*
X77890Y14740D01*
X74890Y17740D02*
X77890Y14740D01*
X80741Y6091D02*
X83890Y9240D01*
X15390Y24868D02*
X34166Y6091D01*
X80741D01*
X15390Y24868D02*
Y29437D01*
X28043Y101784D02*
X29087Y100740D01*
X28043Y101784D02*
Y106067D01*
X66101Y115459D02*
X67008Y116366D01*
X66101Y115459D02*
X70560Y111000D01*
X62415Y115459D02*
X66101D01*
X161087Y88587D02*
Y95240D01*
X132500Y60000D02*
X161087Y88587D01*
X129500Y60000D02*
X132500D01*
X150827Y40980D02*
X153500D01*
X151500Y168819D02*
X156390D01*
X88890Y28740D02*
Y33240D01*
X43563Y108740D02*
Y113240D01*
Y108740D02*
X44063Y108240D01*
Y106087D02*
Y108240D01*
X44043Y106067D02*
X44063Y106087D01*
X27563Y108740D02*
Y113240D01*
Y108740D02*
X28063Y108240D01*
Y106087D02*
Y108240D01*
X28043Y106067D02*
X28063Y106087D01*
X147000Y55500D02*
X149346D01*
X149827Y55980D01*
X153500D01*
X147000Y40500D02*
X150346D01*
X150827Y40980D01*
X145508Y83366D02*
X148008Y80866D01*
X20264Y49122D02*
X27390D01*
X8008Y36866D02*
X20264Y49122D01*
X67008Y116366D02*
Y117366D01*
X58937Y118937D02*
X62415Y115459D01*
X8008Y17366D02*
Y36866D01*
X82500Y111000D02*
X87421Y115921D01*
X70560Y111000D02*
X82500D01*
X87421Y115921D02*
Y121071D01*
X148487Y108740D02*
X150227Y107000D01*
X172000D01*
X56587Y103740D02*
X60087D01*
X62387Y106040D01*
X96187Y113440D02*
X103187D01*
X62387Y106040D02*
X88787D01*
X96187Y113440D01*
D30*
X172000Y77000D02*
D03*
Y57000D02*
D03*
Y67000D02*
D03*
Y87000D02*
D03*
Y97000D02*
D03*
X5000Y47000D02*
D03*
Y57000D02*
D03*
Y67000D02*
D03*
Y77000D02*
D03*
Y87000D02*
D03*
Y97000D02*
D03*
D31*
X172000Y107000D02*
D03*
X5000D02*
D03*
D32*
X31335Y156772D02*
D03*
X12241D02*
D03*
D33*
X35666Y168190D02*
D03*
X7320D02*
D03*
D34*
X45500Y37000D02*
D03*
X122500Y35500D02*
D03*
X132000Y95500D02*
D03*
Y108000D02*
D03*
X102500Y109000D02*
D03*
X4000Y119500D02*
D03*
X3000Y39500D02*
D03*
X17500Y14000D02*
D03*
X101000Y53500D02*
D03*
X100000Y31500D02*
D03*
X77500Y41000D02*
D03*
X82000Y52500D02*
D03*
X57000Y41500D02*
D03*
X58000Y54000D02*
D03*
X116000Y146000D02*
D03*
X115500Y156500D02*
D03*
X116000Y169000D02*
D03*
X169000Y173500D02*
D03*
X172000Y22000D02*
D03*
X126500Y4000D02*
D03*
X137500Y18500D02*
D03*
X171000Y34500D02*
D03*
X146500Y16000D02*
D03*
X147500Y4000D02*
D03*
X65000Y170500D02*
D03*
X43000D02*
D03*
X40200Y134800D02*
D03*
X43000Y150500D02*
D03*
X42000Y162000D02*
D03*
X65000Y143000D02*
D03*
Y150500D02*
D03*
Y160500D02*
D03*
X163500Y65000D02*
D03*
X172000Y49000D02*
D03*
X162000Y82000D02*
D03*
X150500Y89500D02*
D03*
X131500Y88000D02*
D03*
X104000Y94500D02*
D03*
X115000Y80500D02*
D03*
X81200Y73900D02*
D03*
X81800Y89400D02*
D03*
X97200Y66600D02*
D03*
X57800Y65900D02*
D03*
X36972Y146240D02*
D03*
X161500Y7000D02*
D03*
X23500Y130500D02*
D03*
X29087Y100740D02*
D03*
X161087Y95240D02*
D03*
X129500Y60000D02*
D03*
X162587Y48740D02*
D03*
X156890Y173484D02*
D03*
X88890Y33240D02*
D03*
X27390Y49122D02*
D03*
X115390Y13685D02*
D03*
X112390D02*
D03*
X109390D02*
D03*
X12890Y134740D02*
D03*
X26996Y64870D02*
D03*
X94890Y14740D02*
D03*
X78890D02*
D03*
X60390Y15240D02*
D03*
X30390Y28374D02*
D03*
X15390Y33374D02*
D03*
X27390Y21240D02*
D03*
X27090Y96366D02*
D03*
Y92429D02*
D03*
X72067Y114366D02*
D03*
X75626D02*
D03*
X79185D02*
D03*
X15390Y29437D02*
D03*
X52390Y118937D02*
D03*
X132500Y56933D02*
D03*
X146000Y68807D02*
D03*
X162587Y33740D02*
D03*
X137087Y164240D02*
D03*
X140087D02*
D03*
Y161240D02*
D03*
X137087D02*
D03*
X64390Y119366D02*
D03*
X83008Y136866D02*
D03*
X69508Y119366D02*
D03*
X148008Y80866D02*
D03*
X8008Y17366D02*
D03*
X142500Y150000D02*
D03*
X149500D02*
D03*
X156500D02*
D03*
X94224Y131894D02*
D03*
X98161Y131831D02*
D03*
X74539Y131894D02*
D03*
X81390Y132866D02*
D03*
X103187Y113440D02*
D03*
X148487Y108740D02*
D03*
X109390Y118894D02*
D03*
X112390D02*
D03*
X115390D02*
D03*
X47000Y94500D02*
D03*
X45000Y56500D02*
D03*
X162500Y21000D02*
D03*
X151500Y37000D02*
D03*
X14800Y37600D02*
D03*
D35*
X162587Y52240D02*
D03*
X153500Y55980D02*
D03*
Y48500D02*
D03*
X162587Y37240D02*
D03*
X153500Y40980D02*
D03*
Y33500D02*
D03*
D36*
X114390Y42240D02*
D03*
X128169D02*
D03*
Y28740D02*
D03*
X114390D02*
D03*
D37*
X118764Y114083D02*
D03*
Y100303D02*
D03*
X131890Y114140D02*
D03*
Y100361D02*
D03*
D38*
X154000Y141811D02*
D03*
Y118189D02*
D03*
D39*
X129063Y147240D02*
D03*
X100716D02*
D03*
X129063Y166240D02*
D03*
X100716D02*
D03*
D40*
X47039Y71654D02*
D03*
X103732D02*
D03*
D41*
X68890Y28740D02*
D03*
X88890D02*
D03*
X78890D02*
D03*
X63890D02*
D03*
X73890D02*
D03*
X83890D02*
D03*
D42*
X128945Y131240D02*
D03*
X114181D02*
D03*
D43*
X66949Y125366D02*
D03*
X87421D02*
D03*
X66949Y100563D02*
D03*
X87421D02*
D03*
X69508Y125366D02*
D03*
X72067Y100563D02*
D03*
X69508D02*
D03*
X64390D02*
D03*
X77185D02*
D03*
X74626D02*
D03*
Y125366D02*
D03*
X79744D02*
D03*
X82303D02*
D03*
X84862D02*
D03*
Y100563D02*
D03*
X82303D02*
D03*
X79744D02*
D03*
X72067Y125366D02*
D03*
X77185D02*
D03*
D44*
X64390D02*
D03*
D45*
X65000Y138000D02*
D03*
X80000Y148000D02*
D03*
X93224Y126894D02*
D03*
X70000Y148000D02*
D03*
X75000Y138000D02*
D03*
X60000Y148000D02*
D03*
X102224Y126894D02*
D03*
M02*
