%FSLAX25Y25*%
%MOIN*%
G70*
G01*
G75*
%ADD10C,0.01000*%
%ADD11C,0.00667*%
D10*
X0Y0D02*
X200787D01*
X0Y212598D02*
X200787D01*
X0Y0D02*
Y212598D01*
X200787Y0D02*
Y212598D01*
D11*
X63815Y11000D02*
X67815D01*
X65815Y9000D02*
Y13000D01*
X185925Y9000D02*
X189075D01*
X187500Y7425D02*
Y10575D01*
X185925Y18843D02*
X189075D01*
X187500Y17268D02*
Y20417D01*
X7850Y41098D02*
X15724D01*
X11787Y37161D02*
Y45035D01*
X185016Y41098D02*
X192890D01*
X188953Y37161D02*
Y45035D01*
X185016Y171020D02*
X192890D01*
X188953Y167083D02*
Y174957D01*
X7850Y171020D02*
X15724D01*
X11787Y167083D02*
Y174957D01*
X130819Y9437D02*
X133181D01*
X132000Y8256D02*
Y10618D01*
X135819Y9437D02*
X138181D01*
X137000Y8256D02*
Y10618D01*
X140819Y9437D02*
X143181D01*
X142000Y8256D02*
Y10618D01*
X155819Y9437D02*
X158181D01*
X157000Y8256D02*
Y10618D01*
X160819Y9437D02*
X163181D01*
X162000Y8256D02*
Y10618D01*
X165819Y9437D02*
X168181D01*
X167000Y8256D02*
Y10618D01*
X68898Y195866D02*
X86614D01*
X77756Y187008D02*
Y204724D01*
X53972Y11000D02*
X57972D01*
X55972Y9000D02*
Y13000D01*
X44130Y11000D02*
X48130D01*
X46130Y9000D02*
Y13000D01*
X83500Y11000D02*
X87500D01*
X85500Y9000D02*
Y13000D01*
X145819Y9437D02*
X148181D01*
X147000Y8256D02*
Y10618D01*
X73658Y11000D02*
X77658D01*
X75657Y9000D02*
Y13000D01*
X150819Y9437D02*
X153181D01*
X152000Y8256D02*
Y10618D01*
M02*
