%FSLAX25Y25*%
%MOIN*%
G70*
G01*
G75*
G04 Layer_Color=65535*
%ADD10C,0.03000*%
%ADD11C,0.01500*%
%ADD12C,0.06000*%
%ADD13C,0.07087*%
%ADD14C,0.15748*%
%ADD15O,0.03150X0.05118*%
%ADD16R,0.03150X0.05118*%
%ADD17C,0.27559*%
%ADD18R,0.05000X0.06000*%
%ADD19C,0.01000*%
%ADD20C,0.02362*%
%ADD21C,0.00984*%
%ADD22C,0.00800*%
%ADD23C,0.00787*%
%ADD24C,0.00600*%
D19*
X200098Y13921D02*
G03*
X200098Y13921I-12598J0D01*
G01*
X1945Y35193D02*
G03*
X5882Y31256I3937J0D01*
G01*
Y180862D02*
G03*
X1945Y176925I0J-3937D01*
G01*
X198795D02*
G03*
X194858Y180862I-3937J0D01*
G01*
Y31256D02*
G03*
X198795Y35193I0J3937D01*
G01*
X87468Y1811D02*
Y5811D01*
X79594D02*
X87468D01*
X79594Y1811D02*
Y5811D01*
X52035Y1811D02*
Y5811D01*
X44161D02*
X52035D01*
X44161Y1811D02*
Y5811D01*
X36287Y1748D02*
X95342D01*
X36287Y24386D02*
X95342D01*
Y1748D02*
Y24386D01*
X36287Y1748D02*
Y24386D01*
X198795Y35193D02*
Y176925D01*
X5882Y180862D02*
X194858D01*
X1945Y35193D02*
Y176925D01*
X5882Y31256D02*
X194858D01*
X127087D02*
Y41098D01*
X172087D01*
Y31256D02*
Y41098D01*
D20*
X197736Y22670D02*
G03*
X177264Y22670I-10236J-8961D01*
G01*
D21*
X175295Y13921D02*
X199705D01*
X175295Y15890D02*
X199705D01*
X175689Y17858D02*
X199311D01*
X176870Y20221D02*
X198130D01*
X178445Y22189D02*
X196949D01*
X180807Y24158D02*
X194193D01*
D22*
X134500Y2437D02*
Y4437D01*
Y2437D02*
X139500D01*
Y4437D01*
X159500Y2437D02*
Y4437D01*
Y2437D02*
X164500D01*
Y4437D01*
D23*
X172000D02*
Y16437D01*
X127000Y4437D02*
X172000D01*
X127000D02*
Y16437D01*
X172000D01*
D24*
X171166Y25832D02*
X170499Y26499D01*
X169167D01*
X168500Y25832D01*
Y23167D01*
X169167Y22500D01*
X170499D01*
X171166Y23167D01*
X172499Y22500D02*
X173832D01*
X173165D01*
Y26499D01*
X172499Y25832D01*
X117666Y12769D02*
X116999Y13436D01*
X115666D01*
X115000Y12769D01*
Y12103D01*
X115666Y11436D01*
X116999D01*
X117666Y10770D01*
Y10103D01*
X116999Y9437D01*
X115666D01*
X115000Y10103D01*
X118999Y9437D02*
X120332D01*
X119665D01*
Y13436D01*
X118999Y12769D01*
X101666Y13999D02*
X100333D01*
X100999D01*
Y10667D01*
X100333Y10000D01*
X99666D01*
X99000Y10667D01*
X102999Y10000D02*
X104332D01*
X103665D01*
Y13999D01*
X102999Y13332D01*
M02*
