M48
;Layer_Color=9474304
;FILE_FORMAT=2:5
INCH,TZ
;TYPE=PLATED
T1F00S00C0.01200
T2F00S00C0.04000
%
T01
X23610Y17000
Y24000
X29892Y36535
X31292Y42435
X40110Y32400
X58749Y34399
X53200Y41100
X75100Y44100
X86410Y35757
X73610Y17300
X68810Y18100
X68510Y12815
X39200Y5400
X45910Y61257
X58749Y59503
X58000Y85700
X95028Y91342
Y99216
Y107090
Y114964
X98965Y122838
X114713
X114928Y105742
X115028Y96942
Y90742
X89700Y72700
X47749Y122658
Y125657
Y128657
X33100Y134600
X17249Y124158
T02
X7580Y5757
Y15757
Y25758
Y35757
Y45757
Y55757
X111910
Y45757
Y35757
Y25758
Y15757
Y5757
Y65758
Y75757
X7580Y65758
M30
