%FSLAX25Y25*%
%MOIN*%
G70*
G01*
G75*
G04 Layer_Color=16711935*
%ADD10C,0.07000*%
%ADD11C,0.06000*%
%ADD12C,0.01000*%
%ADD13C,0.04000*%
%ADD14C,0.03000*%
%ADD15C,0.02000*%
%ADD16C,0.02500*%
%ADD17C,0.08661*%
%ADD18C,0.07087*%
%ADD19C,0.06000*%
%ADD20R,0.06000X0.06000*%
%ADD21C,0.06300*%
%ADD22C,0.02500*%
%ADD23C,0.05000*%
%ADD24R,0.05000X0.06000*%
%ADD25O,0.01969X0.05906*%
%ADD26O,0.05906X0.01969*%
%ADD27R,0.02362X0.04299*%
%ADD28R,0.06000X0.05000*%
%ADD29O,0.02400X0.07400*%
%ADD30R,0.04213X0.11811*%
%ADD31R,0.27559X0.37008*%
%ADD32R,0.08858X0.08071*%
%ADD33R,0.08071X0.08858*%
%ADD34R,0.15748X0.15748*%
%ADD35O,0.02400X0.07600*%
%ADD36R,0.02400X0.07600*%
%ADD37C,0.02362*%
%ADD38C,0.00787*%
%ADD39C,0.00984*%
%ADD40C,0.00500*%
%ADD41C,0.00800*%
%ADD42C,0.00600*%
%ADD43C,0.00200*%
%ADD44R,0.00446X0.00990*%
%ADD45R,0.00900X0.00700*%
%ADD46C,0.01969*%
%ADD47C,0.00400*%
%ADD48C,0.09461*%
%ADD49C,0.07887*%
%ADD50C,0.06800*%
%ADD51R,0.06800X0.06800*%
%ADD52C,0.07100*%
%ADD53R,0.05800X0.06800*%
%ADD54O,0.02769X0.06706*%
%ADD55O,0.06706X0.02769*%
%ADD56R,0.03162X0.05099*%
%ADD57R,0.06800X0.05800*%
%ADD58O,0.03200X0.08200*%
%ADD59R,0.05013X0.12611*%
%ADD60R,0.28359X0.37808*%
%ADD61R,0.09658X0.08871*%
%ADD62R,0.08871X0.09658*%
%ADD63R,0.16548X0.16548*%
%ADD64O,0.03200X0.08400*%
%ADD65R,0.03200X0.08400*%
D12*
X485393Y43023D02*
Y70582D01*
D39*
X691298Y75034D02*
G03*
X691298Y75034I-6299J0D01*
G01*
Y134089D02*
G03*
X691298Y134089I-6299J0D01*
G01*
X112558Y75034D02*
G03*
X112558Y75034I-10236J0D01*
G01*
X108621Y134089D02*
G03*
X108621Y134089I-6299J0D01*
G01*
X775591Y-0D02*
G03*
X787402Y11811I0J11811D01*
G01*
X787401Y204328D02*
G03*
X775194Y216535I-11977J230D01*
G01*
X11421Y216536D02*
G03*
X-0Y205115I587J-12008D01*
G01*
X278897Y108771D02*
G03*
X278897Y108771I-4921J0D01*
G01*
X518267D02*
G03*
X518267Y108771I-4921J0D01*
G01*
X11811Y-0D02*
X775591D01*
X787402Y11811D02*
Y204331D01*
X11417Y216535D02*
X775197D01*
X0Y11811D02*
Y205118D01*
Y11811D02*
X11811Y-0D01*
X172401Y159244D02*
X192086D01*
Y131685D02*
Y159244D01*
X172401Y131685D02*
Y159244D01*
Y131685D02*
X192086D01*
X294696Y207984D02*
X318318D01*
X294696Y188299D02*
Y207984D01*
X318318Y188299D02*
Y207984D01*
X294696Y188299D02*
X318318D01*
X282243Y70582D02*
X301928D01*
X282243Y43023D02*
Y70582D01*
X301928Y43023D02*
Y70582D01*
X282243Y43023D02*
X301928D01*
X463988Y207984D02*
X487610D01*
X463988Y188299D02*
Y207984D01*
X487610Y188299D02*
Y207984D01*
X463988Y188299D02*
X487610D01*
X485393Y70582D02*
X505078D01*
Y43023D02*
Y70582D01*
X485393Y43023D02*
X505078D01*
X595235Y159244D02*
X614920D01*
Y131685D02*
Y159244D01*
X595235Y131685D02*
Y159244D01*
Y131685D02*
X614920D01*
M02*
