M48
;Layer_Color=9474304
;FILE_FORMAT=2:5
INCH,TZ
;TYPE=PLATED
T1F00S00C0.01200
T2F00S00C0.02800
T3F00S00C0.03150
T4F00S00C0.03200
T5F00S00C0.03543
T6F00S00C0.03937
T7F00S00C0.04000
T8F00S00C0.04724
%
T01
X570835Y8557
Y24057
X448668Y72157
X430168
X425900Y71544
X423500Y55000
X399107Y55217
X404107Y68096
X409107
X379580Y74957
X365000Y87500
X362046Y63157
X339000Y68000
X341668Y81157
X432607Y100217
Y113044
X437400
X469467Y99157
X481668Y130557
X463979Y138057
X474168Y152357
X320280Y152457
X309507Y140657
X315007Y120157
X292049Y88957
X290335Y79500
X267457Y80457
Y89157
Y101857
X226780Y100457
X226780Y90457
Y80457
X226249Y71407
X234949Y68407
X189080Y78757
X184502Y81520
X182417Y99540
X181498Y113214
X166917Y112390
X163478
X160458Y95865
Y92316
X171903Y80020
X158978Y127668
X162417Y131168
X128435Y50900
X27457Y90559
Y93559
X23957
Y90559
X83780Y198914
X290507Y164657
X326607Y170417
X436668Y173657
X488968Y179157
T02
X613878Y50857
X367107Y100218
T03
X87500Y50000
X73400Y67158
Y77000
X101800Y104000
Y113842
X81500Y140157
Y150000
X11000Y74500
X13335Y46842
Y37000
X124000Y156218
X756592Y193937
X766435
T04
X706435Y63675
X716435
X726435
X736435
X746435
X756435
X766435
X776435
X766435Y168005
X756435
X746435
X736435
X726435
X716435
X706435
T05
X509449Y147362
X444488
X405512
X340158
X273228
Y157362
Y181220
Y191220
X215354Y174291
Y164291
X196850
Y174291
X340158Y181220
Y191220
Y157362
X405512
Y181220
Y191220
X444488
Y181220
Y157362
X509449
Y181220
Y191220
X580500Y191220
Y181220
T06
X22343Y187000
X52264
T07
X650913Y13000
X660913
X670913
X680913
X624205Y29000
X614362
X604520
X594677
X584835
X558177
X548335
X226307
X216465
X206622
X196780
X171650
X161807
X151965
X142122
X132280
X92780
X82780
X72780
X62150
X52307
X42465
X32622
X22780
X150940Y156218
X160940
X718935Y190905
X728935
T08
X368607Y35925
X378607
X388607
X398607
X408607
X418607
Y123917
X408607
X398607
X388607
X378607
X368607
M30
