%FSLAX25Y25*%
%MOIN*%
G70*
G01*
G75*
G04 Layer_Color=2752767*
%ADD10C,0.00984*%
%ADD11C,0.01000*%
%ADD12C,0.00667*%
D10*
X691298Y75034D02*
G03*
X691298Y75034I-6299J0D01*
G01*
Y134089D02*
G03*
X691298Y134089I-6299J0D01*
G01*
X518267Y108771D02*
G03*
X518267Y108771I-4921J0D01*
G01*
X112558Y75034D02*
G03*
X112558Y75034I-10236J0D01*
G01*
X108621Y134089D02*
G03*
X108621Y134089I-6299J0D01*
G01*
X11421Y216536D02*
G03*
X-0Y205115I587J-12008D01*
G01*
X787401Y204328D02*
G03*
X775194Y216535I-11977J230D01*
G01*
X775591Y-0D02*
G03*
X787402Y11811I0J11811D01*
G01*
X278897Y108771D02*
G03*
X278897Y108771I-4921J0D01*
G01*
X485393Y43023D02*
X505078D01*
Y70582D01*
X485393D02*
X505078D01*
X463988Y188299D02*
X487610D01*
X463988D02*
Y207984D01*
X487610D01*
X318318Y188299D02*
Y207984D01*
X294696Y188299D02*
Y207984D01*
X318318D01*
X294696Y188299D02*
X318318D01*
X192086Y131685D02*
Y159244D01*
X172401D02*
X192086D01*
X172401Y131685D02*
Y159244D01*
Y131685D02*
X192086D01*
X282243Y70582D02*
X301928D01*
Y43023D02*
Y70582D01*
X282243Y43023D02*
Y70582D01*
Y43023D02*
X301928D01*
X595235Y131685D02*
X614920D01*
X11811Y-0D02*
X775591D01*
X0Y11811D02*
X11811Y-0D01*
X0Y11811D02*
Y205118D01*
X11417Y216535D02*
X775197D01*
X787402Y11811D02*
Y204331D01*
X595235Y131685D02*
Y159244D01*
X614920D01*
X487610Y188299D02*
Y207984D01*
X614920Y131685D02*
Y159244D01*
X172401Y131685D02*
X173188D01*
X614133Y159244D02*
X614920D01*
X612133Y131685D02*
X612920D01*
X487610Y207196D02*
Y207984D01*
X463988Y207196D02*
Y207984D01*
X294696Y207196D02*
Y207984D01*
X172401Y159244D02*
X173188D01*
X50264Y185000D02*
Y189000D01*
X54264D01*
Y185000D01*
X50264D01*
X20343D02*
Y189000D01*
X24342D01*
Y185000D01*
X20343D01*
D11*
X485393Y43023D02*
Y70582D01*
D12*
X83500Y140157D02*
G03*
X83500Y140157I-2000J0D01*
G01*
Y150000D02*
G03*
X83500Y150000I-2000J0D01*
G01*
X756435Y166005D02*
X754435Y170005D01*
X758435D01*
X756435Y166005D01*
X766435D02*
X764435Y170005D01*
X768435D01*
X766435Y166005D01*
X746435D02*
X744435Y170005D01*
X748435D01*
X746435Y166005D01*
X736435D02*
X734435Y170005D01*
X738435D01*
X736435Y166005D01*
X726435D02*
X724435Y170005D01*
X728435D01*
X726435Y166005D01*
X716435D02*
X714435Y170005D01*
X718435D01*
X716435Y166005D01*
X706435D02*
X704435Y170005D01*
X708435D01*
X706435Y166005D01*
X716435Y61675D02*
X714435Y65675D01*
X718435D01*
X716435Y61675D01*
X726435D02*
X724435Y65675D01*
X728435D01*
X726435Y61675D01*
X736435D02*
X734435Y65675D01*
X738435D01*
X736435Y61675D01*
X756435D02*
X754435Y65675D01*
X758435D01*
X756435Y61675D01*
X776435D02*
X774435Y65675D01*
X778435D01*
X776435Y61675D01*
X706435D02*
X704435Y65675D01*
X708435D01*
X706435Y61675D01*
X766435D02*
X764435Y65675D01*
X768435D01*
X766435Y61675D01*
X746435D02*
X744435Y65675D01*
X748435D01*
X746435Y61675D01*
X89500Y50000D02*
G03*
X89500Y50000I-2000J0D01*
G01*
X718935Y188905D02*
X719935Y189905D01*
X720935D01*
X719935Y190905D01*
X720935Y191905D01*
X719935D01*
X718935Y192905D01*
X717935Y191905D01*
X716935D01*
X717935Y190905D01*
X716935Y189905D01*
X717935D01*
X718935Y188905D01*
X728935D02*
X729935Y189905D01*
X730935D01*
X729935Y190905D01*
X730935Y191905D01*
X729935D01*
X728935Y192905D01*
X727935Y191905D01*
X726935D01*
X727935Y190905D01*
X726935Y189905D01*
X727935D01*
X728935Y188905D01*
X650913Y11000D02*
X651913Y12000D01*
X652913D01*
X651913Y13000D01*
X652913Y14000D01*
X651913D01*
X650913Y15000D01*
X649913Y14000D01*
X648913D01*
X649913Y13000D01*
X648913Y12000D01*
X649913D01*
X650913Y11000D01*
X680913D02*
X681913Y12000D01*
X682913D01*
X681913Y13000D01*
X682913Y14000D01*
X681913D01*
X680913Y15000D01*
X679913Y14000D01*
X678913D01*
X679913Y13000D01*
X678913Y12000D01*
X679913D01*
X680913Y11000D01*
X13000Y74500D02*
G03*
X13000Y74500I-2000J0D01*
G01*
X150940Y154218D02*
X151940Y155218D01*
X152940D01*
X151940Y156218D01*
X152940Y157218D01*
X151940D01*
X150940Y158218D01*
X149940Y157218D01*
X148940D01*
X149940Y156218D01*
X148940Y155218D01*
X149940D01*
X150940Y154218D01*
X160940D02*
X161940Y155218D01*
X162940D01*
X161940Y156218D01*
X162940Y157218D01*
X161940D01*
X160940Y158218D01*
X159940Y157218D01*
X158940D01*
X159940Y156218D01*
X158940Y155218D01*
X159940D01*
X160940Y154218D01*
X15335Y37000D02*
G03*
X15335Y37000I-2000J0D01*
G01*
Y46842D02*
G03*
X15335Y46842I-2000J0D01*
G01*
X75400Y67158D02*
G03*
X75400Y67158I-2000J0D01*
G01*
Y77000D02*
G03*
X75400Y77000I-2000J0D01*
G01*
X768435Y193937D02*
G03*
X768435Y193937I-2000J0D01*
G01*
X758592D02*
G03*
X758592Y193937I-2000J0D01*
G01*
X670913Y11000D02*
X671913Y12000D01*
X672913D01*
X671913Y13000D01*
X672913Y14000D01*
X671913D01*
X670913Y15000D01*
X669913Y14000D01*
X668913D01*
X669913Y13000D01*
X668913Y12000D01*
X669913D01*
X670913Y11000D01*
X660913D02*
X661913Y12000D01*
X662913D01*
X661913Y13000D01*
X662913Y14000D01*
X661913D01*
X660913Y15000D01*
X659913Y14000D01*
X658913D01*
X659913Y13000D01*
X658913Y12000D01*
X659913D01*
X660913Y11000D01*
X558177Y27000D02*
X559177Y28000D01*
X560177D01*
X559177Y29000D01*
X560177Y30000D01*
X559177D01*
X558177Y31000D01*
X557177Y30000D01*
X556177D01*
X557177Y29000D01*
X556177Y28000D01*
X557177D01*
X558177Y27000D01*
X548335D02*
X549335Y28000D01*
X550335D01*
X549335Y29000D01*
X550335Y30000D01*
X549335D01*
X548335Y31000D01*
X547335Y30000D01*
X546335D01*
X547335Y29000D01*
X546335Y28000D01*
X547335D01*
X548335Y27000D01*
X584835D02*
X585835Y28000D01*
X586835D01*
X585835Y29000D01*
X586835Y30000D01*
X585835D01*
X584835Y31000D01*
X583835Y30000D01*
X582835D01*
X583835Y29000D01*
X582835Y28000D01*
X583835D01*
X584835Y27000D01*
X594677D02*
X595677Y28000D01*
X596677D01*
X595677Y29000D01*
X596677Y30000D01*
X595677D01*
X594677Y31000D01*
X593677Y30000D01*
X592677D01*
X593677Y29000D01*
X592677Y28000D01*
X593677D01*
X594677Y27000D01*
X604520D02*
X605520Y28000D01*
X606520D01*
X605520Y29000D01*
X606520Y30000D01*
X605520D01*
X604520Y31000D01*
X603520Y30000D01*
X602520D01*
X603520Y29000D01*
X602520Y28000D01*
X603520D01*
X604520Y27000D01*
X614362D02*
X615362Y28000D01*
X616362D01*
X615362Y29000D01*
X616362Y30000D01*
X615362D01*
X614362Y31000D01*
X613362Y30000D01*
X612362D01*
X613362Y29000D01*
X612362Y28000D01*
X613362D01*
X614362Y27000D01*
X624205D02*
X625205Y28000D01*
X626205D01*
X625205Y29000D01*
X626205Y30000D01*
X625205D01*
X624205Y31000D01*
X623205Y30000D01*
X622205D01*
X623205Y29000D01*
X622205Y28000D01*
X623205D01*
X624205Y27000D01*
X92780D02*
X93780Y28000D01*
X94780D01*
X93780Y29000D01*
X94780Y30000D01*
X93780D01*
X92780Y31000D01*
X91780Y30000D01*
X90780D01*
X91780Y29000D01*
X90780Y28000D01*
X91780D01*
X92780Y27000D01*
X82780D02*
X83780Y28000D01*
X84780D01*
X83780Y29000D01*
X84780Y30000D01*
X83780D01*
X82780Y31000D01*
X81780Y30000D01*
X80780D01*
X81780Y29000D01*
X80780Y28000D01*
X81780D01*
X82780Y27000D01*
X72780D02*
X73780Y28000D01*
X74780D01*
X73780Y29000D01*
X74780Y30000D01*
X73780D01*
X72780Y31000D01*
X71780Y30000D01*
X70780D01*
X71780Y29000D01*
X70780Y28000D01*
X71780D01*
X72780Y27000D01*
X22780D02*
X23780Y28000D01*
X24780D01*
X23780Y29000D01*
X24780Y30000D01*
X23780D01*
X22780Y31000D01*
X21780Y30000D01*
X20780D01*
X21780Y29000D01*
X20780Y28000D01*
X21780D01*
X22780Y27000D01*
X32622D02*
X33622Y28000D01*
X34622D01*
X33622Y29000D01*
X34622Y30000D01*
X33622D01*
X32622Y31000D01*
X31622Y30000D01*
X30622D01*
X31622Y29000D01*
X30622Y28000D01*
X31622D01*
X32622Y27000D01*
X42465D02*
X43465Y28000D01*
X44465D01*
X43465Y29000D01*
X44465Y30000D01*
X43465D01*
X42465Y31000D01*
X41465Y30000D01*
X40465D01*
X41465Y29000D01*
X40465Y28000D01*
X41465D01*
X42465Y27000D01*
X52307D02*
X53307Y28000D01*
X54307D01*
X53307Y29000D01*
X54307Y30000D01*
X53307D01*
X52307Y31000D01*
X51307Y30000D01*
X50307D01*
X51307Y29000D01*
X50307Y28000D01*
X51307D01*
X52307Y27000D01*
X62150D02*
X63150Y28000D01*
X64150D01*
X63150Y29000D01*
X64150Y30000D01*
X63150D01*
X62150Y31000D01*
X61150Y30000D01*
X60150D01*
X61150Y29000D01*
X60150Y28000D01*
X61150D01*
X62150Y27000D01*
X132280D02*
X133280Y28000D01*
X134280D01*
X133280Y29000D01*
X134280Y30000D01*
X133280D01*
X132280Y31000D01*
X131280Y30000D01*
X130280D01*
X131280Y29000D01*
X130280Y28000D01*
X131280D01*
X132280Y27000D01*
X142122D02*
X143122Y28000D01*
X144122D01*
X143122Y29000D01*
X144122Y30000D01*
X143122D01*
X142122Y31000D01*
X141122Y30000D01*
X140122D01*
X141122Y29000D01*
X140122Y28000D01*
X141122D01*
X142122Y27000D01*
X151965D02*
X152965Y28000D01*
X153965D01*
X152965Y29000D01*
X153965Y30000D01*
X152965D01*
X151965Y31000D01*
X150965Y30000D01*
X149965D01*
X150965Y29000D01*
X149965Y28000D01*
X150965D01*
X151965Y27000D01*
X161807D02*
X162807Y28000D01*
X163807D01*
X162807Y29000D01*
X163807Y30000D01*
X162807D01*
X161807Y31000D01*
X160807Y30000D01*
X159807D01*
X160807Y29000D01*
X159807Y28000D01*
X160807D01*
X161807Y27000D01*
X171650D02*
X172650Y28000D01*
X173650D01*
X172650Y29000D01*
X173650Y30000D01*
X172650D01*
X171650Y31000D01*
X170650Y30000D01*
X169650D01*
X170650Y29000D01*
X169650Y28000D01*
X170650D01*
X171650Y27000D01*
X103800Y113842D02*
G03*
X103800Y113842I-2000J0D01*
G01*
Y104000D02*
G03*
X103800Y104000I-2000J0D01*
G01*
X126000Y156218D02*
G03*
X126000Y156218I-2000J0D01*
G01*
X196780Y27000D02*
X197780Y28000D01*
X198780D01*
X197780Y29000D01*
X198780Y30000D01*
X197780D01*
X196780Y31000D01*
X195780Y30000D01*
X194780D01*
X195780Y29000D01*
X194780Y28000D01*
X195780D01*
X196780Y27000D01*
X206622D02*
X207622Y28000D01*
X208622D01*
X207622Y29000D01*
X208622Y30000D01*
X207622D01*
X206622Y31000D01*
X205622Y30000D01*
X204622D01*
X205622Y29000D01*
X204622Y28000D01*
X205622D01*
X206622Y27000D01*
X216465D02*
X217465Y28000D01*
X218465D01*
X217465Y29000D01*
X218465Y30000D01*
X217465D01*
X216465Y31000D01*
X215465Y30000D01*
X214465D01*
X215465Y29000D01*
X214465Y28000D01*
X215465D01*
X216465Y27000D01*
X226307D02*
X227307Y28000D01*
X228307D01*
X227307Y29000D01*
X228307Y30000D01*
X227307D01*
X226307Y31000D01*
X225307Y30000D01*
X224307D01*
X225307Y29000D01*
X224307Y28000D01*
X225307D01*
X226307Y27000D01*
X271228Y189220D02*
X272228Y191220D01*
X271228Y193220D01*
X273228Y192220D01*
X275228Y193220D01*
X274228Y191220D01*
X275228Y189220D01*
X273228Y190220D01*
X271228Y189220D01*
Y179220D02*
X272228Y181220D01*
X271228Y183221D01*
X273228Y182220D01*
X275228Y183221D01*
X274228Y181220D01*
X275228Y179220D01*
X273228Y180220D01*
X271228Y179220D01*
X338158Y145362D02*
X339158Y147362D01*
X338158Y149362D01*
X340158Y148362D01*
X342158Y149362D01*
X341158Y147362D01*
X342158Y145362D01*
X340158Y146362D01*
X338158Y145362D01*
Y155362D02*
X339158Y157362D01*
X338158Y159362D01*
X340158Y158362D01*
X342158Y159362D01*
X341158Y157362D01*
X342158Y155362D01*
X340158Y156362D01*
X338158Y155362D01*
Y189220D02*
X339158Y191220D01*
X338158Y193220D01*
X340158Y192220D01*
X342158Y193220D01*
X341158Y191220D01*
X342158Y189220D01*
X340158Y190220D01*
X338158Y189220D01*
Y179220D02*
X339158Y181220D01*
X338158Y183221D01*
X340158Y182220D01*
X342158Y183221D01*
X341158Y181220D01*
X342158Y179220D01*
X340158Y180220D01*
X338158Y179220D01*
X403512D02*
X404512Y181220D01*
X403512Y183221D01*
X405512Y182220D01*
X407512Y183221D01*
X406512Y181220D01*
X407512Y179220D01*
X405512Y180220D01*
X403512Y179220D01*
Y189220D02*
X404512Y191220D01*
X403512Y193220D01*
X405512Y192220D01*
X407512Y193220D01*
X406512Y191220D01*
X407512Y189220D01*
X405512Y190220D01*
X403512Y189220D01*
X213354Y172291D02*
X214354Y174291D01*
X213354Y176291D01*
X215354Y175291D01*
X217354Y176291D01*
X216354Y174291D01*
X217354Y172291D01*
X215354Y173291D01*
X213354Y172291D01*
Y162291D02*
X214354Y164291D01*
X213354Y166291D01*
X215354Y165291D01*
X217354Y166291D01*
X216354Y164291D01*
X217354Y162291D01*
X215354Y163291D01*
X213354Y162291D01*
X194850D02*
X195850Y164291D01*
X194850Y166291D01*
X196850Y165291D01*
X198850Y166291D01*
X197850Y164291D01*
X198850Y162291D01*
X196850Y163291D01*
X194850Y162291D01*
Y172291D02*
X195850Y174291D01*
X194850Y176291D01*
X196850Y175291D01*
X198850Y176291D01*
X197850Y174291D01*
X198850Y172291D01*
X196850Y173291D01*
X194850Y172291D01*
X271228Y155362D02*
X272228Y157362D01*
X271228Y159362D01*
X273228Y158362D01*
X275228Y159362D01*
X274228Y157362D01*
X275228Y155362D01*
X273228Y156362D01*
X271228Y155362D01*
Y145362D02*
X272228Y147362D01*
X271228Y149362D01*
X273228Y148362D01*
X275228Y149362D01*
X274228Y147362D01*
X275228Y145362D01*
X273228Y146362D01*
X271228Y145362D01*
X507449D02*
X508449Y147362D01*
X507449Y149362D01*
X509449Y148362D01*
X511449Y149362D01*
X510449Y147362D01*
X511449Y145362D01*
X509449Y146362D01*
X507449Y145362D01*
Y155362D02*
X508449Y157362D01*
X507449Y159362D01*
X509449Y158362D01*
X511449Y159362D01*
X510449Y157362D01*
X511449Y155362D01*
X509449Y156362D01*
X507449Y155362D01*
X442488Y189220D02*
X443488Y191220D01*
X442488Y193220D01*
X444488Y192220D01*
X446488Y193220D01*
X445488Y191220D01*
X446488Y189220D01*
X444488Y190220D01*
X442488Y189220D01*
Y179220D02*
X443488Y181220D01*
X442488Y183221D01*
X444488Y182220D01*
X446488Y183221D01*
X445488Y181220D01*
X446488Y179220D01*
X444488Y180220D01*
X442488Y179220D01*
Y145362D02*
X443488Y147362D01*
X442488Y149362D01*
X444488Y148362D01*
X446488Y149362D01*
X445488Y147362D01*
X446488Y145362D01*
X444488Y146362D01*
X442488Y145362D01*
Y155362D02*
X443488Y157362D01*
X442488Y159362D01*
X444488Y158362D01*
X446488Y159362D01*
X445488Y157362D01*
X446488Y155362D01*
X444488Y156362D01*
X442488Y155362D01*
X507449Y189220D02*
X508449Y191220D01*
X507449Y193220D01*
X509449Y192220D01*
X511449Y193220D01*
X510449Y191220D01*
X511449Y189220D01*
X509449Y190220D01*
X507449Y189220D01*
Y179220D02*
X508449Y181220D01*
X507449Y183221D01*
X509449Y182220D01*
X511449Y183221D01*
X510449Y181220D01*
X511449Y179220D01*
X509449Y180220D01*
X507449Y179220D01*
X403512Y145362D02*
X404512Y147362D01*
X403512Y149362D01*
X405512Y148362D01*
X407512Y149362D01*
X406512Y147362D01*
X407512Y145362D01*
X405512Y146362D01*
X403512Y145362D01*
Y155362D02*
X404512Y157362D01*
X403512Y159362D01*
X405512Y158362D01*
X407512Y159362D01*
X406512Y157362D01*
X407512Y155362D01*
X405512Y156362D01*
X403512Y155362D01*
X578500Y189220D02*
X579500Y191220D01*
X578500Y193220D01*
X580500Y192220D01*
X582500Y193220D01*
X581500Y191220D01*
X582500Y189220D01*
X580500Y190220D01*
X578500Y189220D01*
Y179220D02*
X579500Y181220D01*
X578500Y183221D01*
X580500Y182220D01*
X582500Y183221D01*
X581500Y181220D01*
X582500Y179220D01*
X580500Y180220D01*
X578500Y179220D01*
X417607Y122917D02*
Y121917D01*
X419607D01*
Y122917D01*
X420607D01*
Y124917D01*
X419607D01*
Y125917D01*
X417607D01*
Y124917D01*
X416607D01*
Y122917D01*
X417607D01*
X407607D02*
Y121917D01*
X409607D01*
Y122917D01*
X410607D01*
Y124917D01*
X409607D01*
Y125917D01*
X407607D01*
Y124917D01*
X406607D01*
Y122917D01*
X407607D01*
X397607D02*
Y121917D01*
X399607D01*
Y122917D01*
X400607D01*
Y124917D01*
X399607D01*
Y125917D01*
X397607D01*
Y124917D01*
X396607D01*
Y122917D01*
X397607D01*
X387607D02*
Y121917D01*
X389607D01*
Y122917D01*
X390607D01*
Y124917D01*
X389607D01*
Y125917D01*
X387607D01*
Y124917D01*
X386607D01*
Y122917D01*
X387607D01*
X377607D02*
Y121917D01*
X379607D01*
Y122917D01*
X380607D01*
Y124917D01*
X379607D01*
Y125917D01*
X377607D01*
Y124917D01*
X376607D01*
Y122917D01*
X377607D01*
X367607D02*
Y121917D01*
X369607D01*
Y122917D01*
X370607D01*
Y124917D01*
X369607D01*
Y125917D01*
X367607D01*
Y124917D01*
X366607D01*
Y122917D01*
X367607D01*
Y34925D02*
Y33925D01*
X369607D01*
Y34925D01*
X370607D01*
Y36925D01*
X369607D01*
Y37925D01*
X367607D01*
Y36925D01*
X366607D01*
Y34925D01*
X367607D01*
X377607D02*
Y33925D01*
X379607D01*
Y34925D01*
X380607D01*
Y36925D01*
X379607D01*
Y37925D01*
X377607D01*
Y36925D01*
X376607D01*
Y34925D01*
X377607D01*
X417607D02*
Y33925D01*
X419607D01*
Y34925D01*
X420607D01*
Y36925D01*
X419607D01*
Y37925D01*
X417607D01*
Y36925D01*
X416607D01*
Y34925D01*
X417607D01*
X407607D02*
Y33925D01*
X409607D01*
Y34925D01*
X410607D01*
Y36925D01*
X409607D01*
Y37925D01*
X407607D01*
Y36925D01*
X406607D01*
Y34925D01*
X407607D01*
X397607D02*
Y33925D01*
X399607D01*
Y34925D01*
X400607D01*
Y36925D01*
X399607D01*
Y37925D01*
X397607D01*
Y36925D01*
X396607D01*
Y34925D01*
X397607D01*
X387607D02*
Y33925D01*
X389607D01*
Y34925D01*
X390607D01*
Y36925D01*
X389607D01*
Y37925D01*
X387607D01*
Y36925D01*
X386607D01*
Y34925D01*
X387607D01*
X265457Y78457D02*
X266457D01*
X267457Y79457D01*
X268457Y78457D01*
X269457D01*
Y79457D01*
X268457Y80457D01*
X269457Y81457D01*
Y82457D01*
X268457D01*
X267457Y81457D01*
X266457Y82457D01*
X265457D01*
Y81457D01*
X266457Y80457D01*
X265457Y79457D01*
Y78457D01*
X25457Y91559D02*
X26457D01*
X27457Y92559D01*
X28457Y91559D01*
X29457D01*
Y92559D01*
X28457Y93559D01*
X29457Y94559D01*
Y95559D01*
X28457D01*
X27457Y94559D01*
X26457Y95559D01*
X25457D01*
Y94559D01*
X26457Y93559D01*
X25457Y92559D01*
Y91559D01*
X21957Y88559D02*
X22957D01*
X23957Y89559D01*
X24957Y88559D01*
X25957D01*
Y89559D01*
X24957Y90559D01*
X25957Y91559D01*
Y92559D01*
X24957D01*
X23957Y91559D01*
X22957Y92559D01*
X21957D01*
Y91559D01*
X22957Y90559D01*
X21957Y89559D01*
Y88559D01*
X224249Y69407D02*
X225249D01*
X226249Y70407D01*
X227249Y69407D01*
X228249D01*
Y70407D01*
X227249Y71407D01*
X228249Y72407D01*
Y73407D01*
X227249D01*
X226249Y72407D01*
X225249Y73407D01*
X224249D01*
Y72407D01*
X225249Y71407D01*
X224249Y70407D01*
Y69407D01*
X179498Y111214D02*
X180498D01*
X181498Y112214D01*
X182498Y111214D01*
X183498D01*
Y112214D01*
X182498Y113214D01*
X183498Y114214D01*
Y115214D01*
X182498D01*
X181498Y114214D01*
X180498Y115214D01*
X179498D01*
Y114214D01*
X180498Y113214D01*
X179498Y112214D01*
Y111214D01*
X232949Y66407D02*
X233949D01*
X234949Y67407D01*
X235949Y66407D01*
X236949D01*
Y67407D01*
X235949Y68407D01*
X236949Y69407D01*
Y70407D01*
X235949D01*
X234949Y69407D01*
X233949Y70407D01*
X232949D01*
Y69407D01*
X233949Y68407D01*
X232949Y67407D01*
Y66407D01*
X568835Y22057D02*
X569835D01*
X570835Y23057D01*
X571835Y22057D01*
X572835D01*
Y23057D01*
X571835Y24057D01*
X572835Y25057D01*
Y26057D01*
X571835D01*
X570835Y25057D01*
X569835Y26057D01*
X568835D01*
Y25057D01*
X569835Y24057D01*
X568835Y23057D01*
Y22057D01*
X160417Y129168D02*
X161417D01*
X162417Y130168D01*
X163417Y129168D01*
X164417D01*
Y130168D01*
X163417Y131168D01*
X164417Y132168D01*
Y133168D01*
X163417D01*
X162417Y132168D01*
X161417Y133168D01*
X160417D01*
Y132168D01*
X161417Y131168D01*
X160417Y130168D01*
Y129168D01*
X164917Y110390D02*
X165917D01*
X166917Y111390D01*
X167917Y110390D01*
X168917D01*
Y111390D01*
X167917Y112390D01*
X168917Y113390D01*
Y114390D01*
X167917D01*
X166917Y113390D01*
X165917Y114390D01*
X164917D01*
Y113390D01*
X165917Y112390D01*
X164917Y111390D01*
Y110390D01*
X161478D02*
X162478D01*
X163478Y111390D01*
X164478Y110390D01*
X165478D01*
Y111390D01*
X164478Y112390D01*
X165478Y113390D01*
Y114390D01*
X164478D01*
X163478Y113390D01*
X162478Y114390D01*
X161478D01*
Y113390D01*
X162478Y112390D01*
X161478Y111390D01*
Y110390D01*
X180417Y97540D02*
X181417D01*
X182417Y98540D01*
X183417Y97540D01*
X184417D01*
Y98540D01*
X183417Y99540D01*
X184417Y100540D01*
Y101540D01*
X183417D01*
X182417Y100540D01*
X181417Y101540D01*
X180417D01*
Y100540D01*
X181417Y99540D01*
X180417Y98540D01*
Y97540D01*
X182502Y79520D02*
X183502D01*
X184502Y80520D01*
X185502Y79520D01*
X186502D01*
Y80520D01*
X185502Y81520D01*
X186502Y82520D01*
Y83520D01*
X185502D01*
X184502Y82520D01*
X183502Y83520D01*
X182502D01*
Y82520D01*
X183502Y81520D01*
X182502Y80520D01*
Y79520D01*
X187080Y76757D02*
X188080D01*
X189080Y77757D01*
X190080Y76757D01*
X191080D01*
Y77757D01*
X190080Y78757D01*
X191080Y79757D01*
Y80757D01*
X190080D01*
X189080Y79757D01*
X188080Y80757D01*
X187080D01*
Y79757D01*
X188080Y78757D01*
X187080Y77757D01*
Y76757D01*
X158458Y93865D02*
X159458D01*
X160458Y94865D01*
X161458Y93865D01*
X162458D01*
Y94865D01*
X161458Y95865D01*
X162458Y96865D01*
Y97865D01*
X161458D01*
X160458Y96865D01*
X159458Y97865D01*
X158458D01*
Y96865D01*
X159458Y95865D01*
X158458Y94865D01*
Y93865D01*
X81779Y196914D02*
X82780D01*
X83780Y197914D01*
X84780Y196914D01*
X85780D01*
Y197914D01*
X84780Y198914D01*
X85780Y199914D01*
Y200914D01*
X84780D01*
X83780Y199914D01*
X82780Y200914D01*
X81779D01*
Y199914D01*
X82780Y198914D01*
X81779Y197914D01*
Y196914D01*
X360046Y61157D02*
X361046D01*
X362046Y62157D01*
X363046Y61157D01*
X364046D01*
Y62157D01*
X363046Y63157D01*
X364046Y64157D01*
Y65157D01*
X363046D01*
X362046Y64157D01*
X361046Y65157D01*
X360046D01*
Y64157D01*
X361046Y63157D01*
X360046Y62157D01*
Y61157D01*
X397107Y53218D02*
X398107D01*
X399107Y54217D01*
X400107Y53218D01*
X401107D01*
Y54217D01*
X400107Y55217D01*
X401107Y56217D01*
Y57218D01*
X400107D01*
X399107Y56217D01*
X398107Y57218D01*
X397107D01*
Y56217D01*
X398107Y55217D01*
X397107Y54217D01*
Y53218D01*
X472168Y150357D02*
X473168D01*
X474168Y151357D01*
X475168Y150357D01*
X476168D01*
Y151357D01*
X475168Y152357D01*
X476168Y153357D01*
Y154357D01*
X475168D01*
X474168Y153357D01*
X473168Y154357D01*
X472168D01*
Y153357D01*
X473168Y152357D01*
X472168Y151357D01*
Y150357D01*
X486968Y177157D02*
X487968D01*
X488968Y178157D01*
X489968Y177157D01*
X490968D01*
Y178157D01*
X489968Y179157D01*
X490968Y180157D01*
Y181157D01*
X489968D01*
X488968Y180157D01*
X487968Y181157D01*
X486968D01*
Y180157D01*
X487968Y179157D01*
X486968Y178157D01*
Y177157D01*
X461979Y136057D02*
X462980D01*
X463979Y137057D01*
X464980Y136057D01*
X465979D01*
Y137057D01*
X464980Y138057D01*
X465979Y139057D01*
Y140057D01*
X464980D01*
X463979Y139057D01*
X462980Y140057D01*
X461979D01*
Y139057D01*
X462980Y138057D01*
X461979Y137057D01*
Y136057D01*
X467467Y97157D02*
X468468D01*
X469467Y98157D01*
X470468Y97157D01*
X471467D01*
Y98157D01*
X470468Y99157D01*
X471467Y100157D01*
Y101157D01*
X470468D01*
X469467Y100157D01*
X468468Y101157D01*
X467467D01*
Y100157D01*
X468468Y99157D01*
X467467Y98157D01*
Y97157D01*
X479668Y128557D02*
X480668D01*
X481668Y129557D01*
X482668Y128557D01*
X483668D01*
Y129557D01*
X482668Y130557D01*
X483668Y131557D01*
Y132557D01*
X482668D01*
X481668Y131557D01*
X480668Y132557D01*
X479668D01*
Y131557D01*
X480668Y130557D01*
X479668Y129557D01*
Y128557D01*
X402107Y66096D02*
X403107D01*
X404107Y67096D01*
X405107Y66096D01*
X406107D01*
Y67096D01*
X405107Y68096D01*
X406107Y69096D01*
Y70096D01*
X405107D01*
X404107Y69096D01*
X403107Y70096D01*
X402107D01*
Y69096D01*
X403107Y68096D01*
X402107Y67096D01*
Y66096D01*
X377580Y72957D02*
X378580D01*
X379580Y73957D01*
X380580Y72957D01*
X381580D01*
Y73957D01*
X380580Y74957D01*
X381580Y75957D01*
Y76957D01*
X380580D01*
X379580Y75957D01*
X378580Y76957D01*
X377580D01*
Y75957D01*
X378580Y74957D01*
X377580Y73957D01*
Y72957D01*
X446668Y70157D02*
X447668D01*
X448668Y71157D01*
X449668Y70157D01*
X450668D01*
Y71157D01*
X449668Y72157D01*
X450668Y73157D01*
Y74157D01*
X449668D01*
X448668Y73157D01*
X447668Y74157D01*
X446668D01*
Y73157D01*
X447668Y72157D01*
X446668Y71157D01*
Y70157D01*
X428168D02*
X429168D01*
X430168Y71157D01*
X431168Y70157D01*
X432168D01*
Y71157D01*
X431168Y72157D01*
X432168Y73157D01*
Y74157D01*
X431168D01*
X430168Y73157D01*
X429168Y74157D01*
X428168D01*
Y73157D01*
X429168Y72157D01*
X428168Y71157D01*
Y70157D01*
X434668Y171657D02*
X435668D01*
X436668Y172657D01*
X437668Y171657D01*
X438668D01*
Y172657D01*
X437668Y173657D01*
X438668Y174657D01*
Y175657D01*
X437668D01*
X436668Y174657D01*
X435668Y175657D01*
X434668D01*
Y174657D01*
X435668Y173657D01*
X434668Y172657D01*
Y171657D01*
X339668Y79157D02*
X340668D01*
X341668Y80157D01*
X342668Y79157D01*
X343668D01*
Y80157D01*
X342668Y81157D01*
X343668Y82157D01*
Y83157D01*
X342668D01*
X341668Y82157D01*
X340668Y83157D01*
X339668D01*
Y82157D01*
X340668Y81157D01*
X339668Y80157D01*
Y79157D01*
X288507Y162657D02*
X289507D01*
X290507Y163657D01*
X291507Y162657D01*
X292507D01*
Y163657D01*
X291507Y164657D01*
X292507Y165657D01*
Y166657D01*
X291507D01*
X290507Y165657D01*
X289507Y166657D01*
X288507D01*
Y165657D01*
X289507Y164657D01*
X288507Y163657D01*
Y162657D01*
X307507Y138657D02*
X308507D01*
X309507Y139657D01*
X310507Y138657D01*
X311507D01*
Y139657D01*
X310507Y140657D01*
X311507Y141657D01*
Y142657D01*
X310507D01*
X309507Y141657D01*
X308507Y142657D01*
X307507D01*
Y141657D01*
X308507Y140657D01*
X307507Y139657D01*
Y138657D01*
X313007Y118157D02*
X314007D01*
X315007Y119157D01*
X316007Y118157D01*
X317007D01*
Y119157D01*
X316007Y120157D01*
X317007Y121157D01*
Y122157D01*
X316007D01*
X315007Y121157D01*
X314007Y122157D01*
X313007D01*
Y121157D01*
X314007Y120157D01*
X313007Y119157D01*
Y118157D01*
X324607Y168417D02*
X325607D01*
X326607Y169417D01*
X327607Y168417D01*
X328607D01*
Y169417D01*
X327607Y170417D01*
X328607Y171417D01*
Y172417D01*
X327607D01*
X326607Y171417D01*
X325607Y172417D01*
X324607D01*
Y171417D01*
X325607Y170417D01*
X324607Y169417D01*
Y168417D01*
X318280Y150457D02*
X319280D01*
X320280Y151457D01*
X321280Y150457D01*
X322280D01*
Y151457D01*
X321280Y152457D01*
X322280Y153457D01*
Y154457D01*
X321280D01*
X320280Y153457D01*
X319280Y154457D01*
X318280D01*
Y153457D01*
X319280Y152457D01*
X318280Y151457D01*
Y150457D01*
X224780Y88457D02*
X225780D01*
X226780Y89457D01*
X227780Y88457D01*
X228780D01*
Y89457D01*
X227780Y90457D01*
X228780Y91457D01*
Y92457D01*
X227780D01*
X226780Y91457D01*
X225780Y92457D01*
X224780D01*
Y91457D01*
X225780Y90457D01*
X224780Y89457D01*
Y88457D01*
Y78457D02*
X225780D01*
X226780Y79457D01*
X227780Y78457D01*
X228780D01*
Y79457D01*
X227780Y80457D01*
X228780Y81457D01*
Y82457D01*
X227780D01*
X226780Y81457D01*
X225780Y82457D01*
X224780D01*
Y81457D01*
X225780Y80457D01*
X224780Y79457D01*
Y78457D01*
X224780Y98457D02*
X225780D01*
X226780Y99457D01*
X227780Y98457D01*
X228780D01*
Y99457D01*
X227780Y100457D01*
X228780Y101457D01*
Y102457D01*
X227780D01*
X226780Y101457D01*
X225780Y102457D01*
X224780D01*
Y101457D01*
X225780Y100457D01*
X224780Y99457D01*
Y98457D01*
X365107Y100218D02*
X367107Y102218D01*
X369107Y100218D01*
X367107Y98218D01*
X365107Y100218D01*
X265457Y99857D02*
X266457D01*
X267457Y100857D01*
X268457Y99857D01*
X269457D01*
Y100857D01*
X268457Y101857D01*
X269457Y102857D01*
Y103857D01*
X268457D01*
X267457Y102857D01*
X266457Y103857D01*
X265457D01*
Y102857D01*
X266457Y101857D01*
X265457Y100857D01*
Y99857D01*
Y87157D02*
X266457D01*
X267457Y88157D01*
X268457Y87157D01*
X269457D01*
Y88157D01*
X268457Y89157D01*
X269457Y90157D01*
Y91157D01*
X268457D01*
X267457Y90157D01*
X266457Y91157D01*
X265457D01*
Y90157D01*
X266457Y89157D01*
X265457Y88157D01*
Y87157D01*
X435400Y111044D02*
X436400D01*
X437400Y112044D01*
X438400Y111044D01*
X439400D01*
Y112044D01*
X438400Y113044D01*
X439400Y114044D01*
Y115044D01*
X438400D01*
X437400Y114044D01*
X436400Y115044D01*
X435400D01*
Y114044D01*
X436400Y113044D01*
X435400Y112044D01*
Y111044D01*
X430607D02*
X431607D01*
X432607Y112044D01*
X433607Y111044D01*
X434607D01*
Y112044D01*
X433607Y113044D01*
X434607Y114044D01*
Y115044D01*
X433607D01*
X432607Y114044D01*
X431607Y115044D01*
X430607D01*
Y114044D01*
X431607Y113044D01*
X430607Y112044D01*
Y111044D01*
X423900Y69544D02*
X424900D01*
X425900Y70544D01*
X426900Y69544D01*
X427900D01*
Y70544D01*
X426900Y71544D01*
X427900Y72544D01*
Y73544D01*
X426900D01*
X425900Y72544D01*
X424900Y73544D01*
X423900D01*
Y72544D01*
X424900Y71544D01*
X423900Y70544D01*
Y69544D01*
X430607Y98217D02*
X431607D01*
X432607Y99217D01*
X433607Y98217D01*
X434607D01*
Y99217D01*
X433607Y100217D01*
X434607Y101217D01*
Y102217D01*
X433607D01*
X432607Y101217D01*
X431607Y102217D01*
X430607D01*
Y101217D01*
X431607Y100217D01*
X430607Y99217D01*
Y98217D01*
X407107Y66096D02*
X408107D01*
X409107Y67096D01*
X410107Y66096D01*
X411107D01*
Y67096D01*
X410107Y68096D01*
X411107Y69096D01*
Y70096D01*
X410107D01*
X409107Y69096D01*
X408107Y70096D01*
X407107D01*
Y69096D01*
X408107Y68096D01*
X407107Y67096D01*
Y66096D01*
X158458Y90316D02*
X159458D01*
X160458Y91316D01*
X161458Y90316D01*
X162458D01*
Y91316D01*
X161458Y92316D01*
X162458Y93316D01*
Y94316D01*
X161458D01*
X160458Y93316D01*
X159458Y94316D01*
X158458D01*
Y93316D01*
X159458Y92316D01*
X158458Y91316D01*
Y90316D01*
X288335Y77500D02*
X289335D01*
X290335Y78500D01*
X291335Y77500D01*
X292335D01*
Y78500D01*
X291335Y79500D01*
X292335Y80500D01*
Y81500D01*
X291335D01*
X290335Y80500D01*
X289335Y81500D01*
X288335D01*
Y80500D01*
X289335Y79500D01*
X288335Y78500D01*
Y77500D01*
X337000Y66000D02*
X338000D01*
X339000Y67000D01*
X340000Y66000D01*
X341000D01*
Y67000D01*
X340000Y68000D01*
X341000Y69000D01*
Y70000D01*
X340000D01*
X339000Y69000D01*
X338000Y70000D01*
X337000D01*
Y69000D01*
X338000Y68000D01*
X337000Y67000D01*
Y66000D01*
X421500Y53000D02*
X422500D01*
X423500Y54000D01*
X424500Y53000D01*
X425500D01*
Y54000D01*
X424500Y55000D01*
X425500Y56000D01*
Y57000D01*
X424500D01*
X423500Y56000D01*
X422500Y57000D01*
X421500D01*
Y56000D01*
X422500Y55000D01*
X421500Y54000D01*
Y53000D01*
X363000Y85500D02*
X364000D01*
X365000Y86500D01*
X366000Y85500D01*
X367000D01*
Y86500D01*
X366000Y87500D01*
X367000Y88500D01*
Y89500D01*
X366000D01*
X365000Y88500D01*
X364000Y89500D01*
X363000D01*
Y88500D01*
X364000Y87500D01*
X363000Y86500D01*
Y85500D01*
X611878Y50857D02*
X613878Y52857D01*
X615878Y50857D01*
X613878Y48857D01*
X611878Y50857D01*
X568835Y6557D02*
X569835D01*
X570835Y7557D01*
X571835Y6557D01*
X572835D01*
Y7557D01*
X571835Y8557D01*
X572835Y9557D01*
Y10557D01*
X571835D01*
X570835Y9557D01*
X569835Y10557D01*
X568835D01*
Y9557D01*
X569835Y8557D01*
X568835Y7557D01*
Y6557D01*
X156978Y125668D02*
X157978D01*
X158978Y126668D01*
X159978Y125668D01*
X160978D01*
Y126668D01*
X159978Y127668D01*
X160978Y128668D01*
Y129668D01*
X159978D01*
X158978Y128668D01*
X157978Y129668D01*
X156978D01*
Y128668D01*
X157978Y127668D01*
X156978Y126668D01*
Y125668D01*
X126435Y48900D02*
X127435D01*
X128435Y49900D01*
X129435Y48900D01*
X130435D01*
Y49900D01*
X129435Y50900D01*
X130435Y51900D01*
Y52900D01*
X129435D01*
X128435Y51900D01*
X127435Y52900D01*
X126435D01*
Y51900D01*
X127435Y50900D01*
X126435Y49900D01*
Y48900D01*
X169903Y78020D02*
X170903D01*
X171903Y79020D01*
X172903Y78020D01*
X173903D01*
Y79020D01*
X172903Y80020D01*
X173903Y81020D01*
Y82020D01*
X172903D01*
X171903Y81020D01*
X170903Y82020D01*
X169903D01*
Y81020D01*
X170903Y80020D01*
X169903Y79020D01*
Y78020D01*
X290049Y86957D02*
X291049D01*
X292049Y87957D01*
X293049Y86957D01*
X294049D01*
Y87957D01*
X293049Y88957D01*
X294049Y89957D01*
Y90957D01*
X293049D01*
X292049Y89957D01*
X291049Y90957D01*
X290049D01*
Y89957D01*
X291049Y88957D01*
X290049Y87957D01*
Y86957D01*
X21957Y91559D02*
X22957D01*
X23957Y92559D01*
X24957Y91559D01*
X25957D01*
Y92559D01*
X24957Y93559D01*
X25957Y94559D01*
Y95559D01*
X24957D01*
X23957Y94559D01*
X22957Y95559D01*
X21957D01*
Y94559D01*
X22957Y93559D01*
X21957Y92559D01*
Y91559D01*
X25457Y88559D02*
X26457D01*
X27457Y89559D01*
X28457Y88559D01*
X29457D01*
Y89559D01*
X28457Y90559D01*
X29457Y91559D01*
Y92559D01*
X28457D01*
X27457Y91559D01*
X26457Y92559D01*
X25457D01*
Y91559D01*
X26457Y90559D01*
X25457Y89559D01*
Y88559D01*
M02*
