%FSLAX25Y25*%
%MOIN*%
G70*
G01*
G75*
G04 Layer_Color=128*
%ADD10C,0.07000*%
%ADD11C,0.06000*%
%ADD12C,0.01000*%
%ADD13C,0.04000*%
%ADD14C,0.03000*%
%ADD15C,0.02000*%
%ADD16C,0.02500*%
%ADD17C,0.08661*%
%ADD18C,0.07087*%
%ADD19C,0.06000*%
%ADD20R,0.06000X0.06000*%
%ADD21C,0.06300*%
%ADD22C,0.02500*%
%ADD23C,0.05000*%
%ADD24R,0.05000X0.06000*%
%ADD25O,0.01969X0.05906*%
%ADD26O,0.05906X0.01969*%
%ADD27R,0.02362X0.04299*%
%ADD28R,0.06000X0.05000*%
%ADD29O,0.02400X0.07400*%
%ADD30R,0.04213X0.11811*%
%ADD31R,0.27559X0.37008*%
%ADD32R,0.08858X0.08071*%
%ADD33R,0.08071X0.08858*%
%ADD34R,0.15748X0.15748*%
%ADD35O,0.02400X0.07600*%
%ADD36R,0.02400X0.07600*%
%ADD37C,0.02362*%
%ADD38C,0.00787*%
%ADD39C,0.00984*%
%ADD40C,0.00500*%
%ADD41C,0.00800*%
%ADD42C,0.00600*%
%ADD43C,0.00200*%
%ADD44R,0.00446X0.00990*%
%ADD45R,0.00900X0.00700*%
%ADD46C,0.01969*%
%ADD47C,0.00400*%
D24*
X123435Y41900D02*
D03*
Y50900D02*
D03*
X114935Y41900D02*
D03*
Y50900D02*
D03*
X373107Y91218D02*
D03*
Y100218D02*
D03*
X113799Y175913D02*
D03*
Y184913D02*
D03*
X80099Y166827D02*
D03*
Y175827D02*
D03*
X180500Y54957D02*
D03*
Y45957D02*
D03*
X106100Y50857D02*
D03*
X97600D02*
D03*
X204918Y95666D02*
D03*
Y86665D02*
D03*
X611705Y59413D02*
D03*
Y68414D02*
D03*
X602205D02*
D03*
Y59413D02*
D03*
X592705Y40218D02*
D03*
Y49218D02*
D03*
X624205Y49218D02*
D03*
Y40218D02*
D03*
X97600Y41857D02*
D03*
X106100D02*
D03*
X88599Y166827D02*
D03*
Y157827D02*
D03*
D25*
X171903Y86020D02*
D03*
X175053D02*
D03*
X168754D02*
D03*
X165604Y121059D02*
D03*
X175053D02*
D03*
X171903D02*
D03*
X184502D02*
D03*
X181352D02*
D03*
X178202D02*
D03*
X168754D02*
D03*
X165604Y86020D02*
D03*
X162454D02*
D03*
Y121059D02*
D03*
X184502Y86020D02*
D03*
X181352D02*
D03*
X178202D02*
D03*
D26*
X155958Y114563D02*
D03*
Y111414D02*
D03*
Y108264D02*
D03*
Y105114D02*
D03*
Y101965D02*
D03*
Y98815D02*
D03*
X190998Y108264D02*
D03*
Y111414D02*
D03*
Y114563D02*
D03*
X155958Y95665D02*
D03*
Y92516D02*
D03*
X190998D02*
D03*
Y95665D02*
D03*
Y98815D02*
D03*
Y105114D02*
D03*
Y101965D02*
D03*
D27*
X95799Y193913D02*
D03*
X103279D02*
D03*
X99539Y184827D02*
D03*
X96799Y175914D02*
D03*
X104279D02*
D03*
X100539Y166827D02*
D03*
X76299Y193913D02*
D03*
X83780D02*
D03*
X80039Y184827D02*
D03*
X588965Y68500D02*
D03*
X585224Y59413D02*
D03*
X592705D02*
D03*
X606705Y40413D02*
D03*
X610445Y49500D02*
D03*
X602965D02*
D03*
D28*
X253280Y90457D02*
D03*
X262280D02*
D03*
X253280Y80457D02*
D03*
X262280D02*
D03*
X454980Y99157D02*
D03*
X463979D02*
D03*
X463980Y90157D02*
D03*
X454980D02*
D03*
X411667Y49657D02*
D03*
X402668D02*
D03*
X454700Y63157D02*
D03*
X463700D02*
D03*
X454700Y81157D02*
D03*
X463700D02*
D03*
X347168Y63157D02*
D03*
X356168D02*
D03*
Y81157D02*
D03*
X347168D02*
D03*
X347007Y126157D02*
D03*
X356007D02*
D03*
X463700Y72157D02*
D03*
X454700D02*
D03*
X253280Y100457D02*
D03*
X262280D02*
D03*
X76649Y205457D02*
D03*
X85650D02*
D03*
X113149Y194457D02*
D03*
X122150D02*
D03*
X232280Y80457D02*
D03*
X241280D02*
D03*
X347007Y117157D02*
D03*
X356007D02*
D03*
X347207Y108157D02*
D03*
X356207D02*
D03*
X356168Y90157D02*
D03*
X347168D02*
D03*
X356168Y72157D02*
D03*
X347168D02*
D03*
X454980Y108157D02*
D03*
X463979D02*
D03*
X347107Y99157D02*
D03*
X356107D02*
D03*
X123457Y121059D02*
D03*
X132457D02*
D03*
X232280Y90457D02*
D03*
X241280D02*
D03*
X232280Y100457D02*
D03*
X241280D02*
D03*
X6500Y89500D02*
D03*
X15500D02*
D03*
X528335Y29000D02*
D03*
X537335D02*
D03*
D29*
X429107Y62617D02*
D03*
Y100217D02*
D03*
X419107Y62617D02*
D03*
X384107D02*
D03*
X389107D02*
D03*
X394107D02*
D03*
X399107D02*
D03*
X404107D02*
D03*
X409107D02*
D03*
X414107D02*
D03*
X424107D02*
D03*
Y100217D02*
D03*
X419107D02*
D03*
X414107D02*
D03*
X409107D02*
D03*
X404107D02*
D03*
X399107D02*
D03*
X394107D02*
D03*
X389107D02*
D03*
X384107D02*
D03*
D30*
X26228Y104500D02*
D03*
X39614D02*
D03*
X32921D02*
D03*
X46307D02*
D03*
X53000D02*
D03*
D31*
X39575Y143388D02*
D03*
D32*
X31500Y49000D02*
D03*
X45870D02*
D03*
D33*
X72500Y118400D02*
D03*
Y104030D02*
D03*
D34*
X48000Y75000D02*
D03*
X24378D02*
D03*
D35*
X134780Y68457D02*
D03*
D36*
X139780D02*
D03*
X144780D02*
D03*
X149780D02*
D03*
X154780D02*
D03*
X159780D02*
D03*
X164780D02*
D03*
X169780D02*
D03*
Y45957D02*
D03*
X164780D02*
D03*
X159780D02*
D03*
X154780D02*
D03*
X149780D02*
D03*
X144780D02*
D03*
X139780D02*
D03*
X134780D02*
D03*
M02*
