%FSLAX25Y25*%
%MOIN*%
G70*
G01*
G75*
G04 Layer_Physical_Order=2*
G04 Layer_Color=16711680*
%ADD10C,0.07000*%
%ADD11C,0.06000*%
%ADD12C,0.01000*%
%ADD13C,0.04000*%
%ADD14C,0.03000*%
%ADD15C,0.02000*%
%ADD16C,0.02500*%
%ADD17C,0.08661*%
%ADD18C,0.07087*%
%ADD19C,0.06000*%
%ADD20R,0.06000X0.06000*%
%ADD21C,0.06300*%
%ADD22C,0.02500*%
%ADD23C,0.05000*%
%ADD24R,0.05000X0.06000*%
%ADD25O,0.01969X0.05906*%
%ADD26O,0.05906X0.01969*%
%ADD27R,0.02362X0.04299*%
%ADD28R,0.06000X0.05000*%
%ADD29O,0.02400X0.07400*%
%ADD30R,0.04213X0.11811*%
%ADD31R,0.27559X0.37008*%
%ADD32R,0.08858X0.08071*%
%ADD33R,0.08071X0.08858*%
%ADD34R,0.15748X0.15748*%
%ADD35O,0.02400X0.07600*%
%ADD36R,0.02400X0.07600*%
G36*
X777372Y214352D02*
X779245Y213783D01*
X780972Y212861D01*
X782485Y211619D01*
X783727Y210106D01*
X784650Y208379D01*
X785218Y206506D01*
X785410Y204558D01*
X785404Y204499D01*
X785370Y204331D01*
Y204328D01*
X785370Y204328D01*
X785370Y204327D01*
Y11811D01*
X785370Y11811D01*
X785370D01*
Y11811D01*
X785395Y11689D01*
X785218Y9896D01*
X784659Y8055D01*
X783752Y6357D01*
X782532Y4870D01*
X781044Y3649D01*
X779347Y2742D01*
X777506Y2183D01*
X775713Y2007D01*
X775591Y2031D01*
X12652D01*
X2031Y12652D01*
Y85500D01*
X5750D01*
Y89499D01*
Y93500D01*
X2031D01*
Y205054D01*
X2172Y206484D01*
X2743Y208365D01*
X3669Y210099D01*
X4917Y211619D01*
X6436Y212866D01*
X8170Y213793D01*
X10051Y214363D01*
X11481Y214504D01*
X775194D01*
X775194Y214504D01*
X775194Y214504D01*
X775197D01*
X775365Y214538D01*
X775424Y214544D01*
X777372Y214352D01*
D02*
G37*
%LPC*%
G36*
X745685Y62925D02*
X741995D01*
X742051Y62500D01*
X742504Y61405D01*
X743225Y60465D01*
X744165Y59744D01*
X745260Y59290D01*
X745685Y59235D01*
Y62925D01*
D02*
G37*
G36*
X750875D02*
X747185D01*
Y59235D01*
X747610Y59290D01*
X748704Y59744D01*
X749644Y60465D01*
X750365Y61405D01*
X750819Y62500D01*
X750875Y62925D01*
D02*
G37*
G36*
X740875D02*
X737185D01*
Y59235D01*
X737609Y59290D01*
X738704Y59744D01*
X739644Y60465D01*
X740366Y61405D01*
X740819Y62500D01*
X740875Y62925D01*
D02*
G37*
G36*
X730875D02*
X727185D01*
Y59235D01*
X727609Y59290D01*
X728704Y59744D01*
X729644Y60465D01*
X730366Y61405D01*
X730819Y62500D01*
X730875Y62925D01*
D02*
G37*
G36*
X735685D02*
X731995D01*
X732051Y62500D01*
X732504Y61405D01*
X733225Y60465D01*
X734165Y59744D01*
X735260Y59290D01*
X735685Y59235D01*
Y62925D01*
D02*
G37*
G36*
X770875D02*
X767185D01*
Y59235D01*
X767610Y59290D01*
X768704Y59744D01*
X769644Y60465D01*
X770365Y61405D01*
X770819Y62500D01*
X770875Y62925D01*
D02*
G37*
G36*
X584475Y63063D02*
X582543D01*
Y60163D01*
X584475D01*
Y63063D01*
D02*
G37*
G36*
X765685Y62925D02*
X761995D01*
X762051Y62500D01*
X762504Y61405D01*
X763225Y60465D01*
X764165Y59744D01*
X765260Y59290D01*
X765685Y59235D01*
Y62925D01*
D02*
G37*
G36*
X755685D02*
X751995D01*
X752051Y62500D01*
X752504Y61405D01*
X753225Y60465D01*
X754165Y59744D01*
X755260Y59290D01*
X755685Y59235D01*
Y62925D01*
D02*
G37*
G36*
X760875D02*
X757185D01*
Y59235D01*
X757610Y59290D01*
X758704Y59744D01*
X759644Y60465D01*
X760365Y61405D01*
X760819Y62500D01*
X760875Y62925D01*
D02*
G37*
G36*
X775685D02*
X771935D01*
Y59175D01*
X775685D01*
Y62925D01*
D02*
G37*
G36*
X780935D02*
X777185D01*
Y59175D01*
X780935D01*
Y62925D01*
D02*
G37*
G36*
X587906Y58663D02*
X585975D01*
Y55764D01*
X587906D01*
Y58663D01*
D02*
G37*
G36*
X184500Y59457D02*
X181250D01*
Y55707D01*
X184500D01*
Y59457D01*
D02*
G37*
G36*
X584475Y58663D02*
X582543D01*
Y55764D01*
X584475D01*
Y58663D01*
D02*
G37*
G36*
X720875Y62925D02*
X717185D01*
Y59235D01*
X717610Y59290D01*
X718704Y59744D01*
X719644Y60465D01*
X720365Y61405D01*
X720819Y62500D01*
X720875Y62925D01*
D02*
G37*
G36*
X725685D02*
X721995D01*
X722051Y62500D01*
X722504Y61405D01*
X723225Y60465D01*
X724165Y59744D01*
X725260Y59290D01*
X725685Y59235D01*
Y62925D01*
D02*
G37*
G36*
X715685D02*
X711995D01*
X712051Y62500D01*
X712504Y61405D01*
X713225Y60465D01*
X714165Y59744D01*
X715260Y59290D01*
X715685Y59235D01*
Y62925D01*
D02*
G37*
G36*
X705685D02*
X701995D01*
X702051Y62500D01*
X702504Y61405D01*
X703225Y60465D01*
X704165Y59744D01*
X705260Y59290D01*
X705685Y59235D01*
Y62925D01*
D02*
G37*
G36*
X710875D02*
X707185D01*
Y59235D01*
X707610Y59290D01*
X708704Y59744D01*
X709644Y60465D01*
X710365Y61405D01*
X710819Y62500D01*
X710875Y62925D01*
D02*
G37*
G36*
X755685Y68115D02*
X755260Y68059D01*
X754165Y67605D01*
X753225Y66884D01*
X752504Y65944D01*
X752051Y64849D01*
X751995Y64425D01*
X755685D01*
Y68115D01*
D02*
G37*
G36*
X757185D02*
Y64425D01*
X760875D01*
X760819Y64849D01*
X760365Y65944D01*
X759644Y66884D01*
X758704Y67605D01*
X757610Y68059D01*
X757185Y68115D01*
D02*
G37*
G36*
X747185D02*
Y64425D01*
X750875D01*
X750819Y64849D01*
X750365Y65944D01*
X749644Y66884D01*
X748704Y67605D01*
X747610Y68059D01*
X747185Y68115D01*
D02*
G37*
G36*
X737185D02*
Y64425D01*
X740875D01*
X740819Y64849D01*
X740366Y65944D01*
X739644Y66884D01*
X738704Y67605D01*
X737609Y68059D01*
X737185Y68115D01*
D02*
G37*
G36*
X745685D02*
X745260Y68059D01*
X744165Y67605D01*
X743225Y66884D01*
X742504Y65944D01*
X742051Y64849D01*
X741995Y64425D01*
X745685D01*
Y68115D01*
D02*
G37*
G36*
X780935Y68175D02*
X777185D01*
Y64425D01*
X780935D01*
Y68175D01*
D02*
G37*
G36*
X338250Y67250D02*
X336334D01*
X336598Y66613D01*
X337039Y66039D01*
X337613Y65598D01*
X338250Y65334D01*
Y67250D01*
D02*
G37*
G36*
X775685Y68175D02*
X771935D01*
Y64425D01*
X775685D01*
Y68175D01*
D02*
G37*
G36*
X765685Y68115D02*
X765260Y68059D01*
X764165Y67605D01*
X763225Y66884D01*
X762504Y65944D01*
X762051Y64849D01*
X761995Y64425D01*
X765685D01*
Y68115D01*
D02*
G37*
G36*
X767185D02*
Y64425D01*
X770875D01*
X770819Y64849D01*
X770365Y65944D01*
X769644Y66884D01*
X768704Y67605D01*
X767610Y68059D01*
X767185Y68115D01*
D02*
G37*
G36*
X705685D02*
X705260Y68059D01*
X704165Y67605D01*
X703225Y66884D01*
X702504Y65944D01*
X702051Y64849D01*
X701995Y64425D01*
X705685D01*
Y68115D01*
D02*
G37*
G36*
X707185D02*
Y64425D01*
X710875D01*
X710819Y64849D01*
X710365Y65944D01*
X709644Y66884D01*
X708704Y67605D01*
X707610Y68059D01*
X707185Y68115D01*
D02*
G37*
G36*
X172480Y67707D02*
X170530D01*
Y63157D01*
X172480D01*
Y67707D01*
D02*
G37*
G36*
X587906Y63063D02*
X585975D01*
Y60163D01*
X587906D01*
Y63063D01*
D02*
G37*
G36*
X72650Y66408D02*
X68412D01*
X68486Y65841D01*
X68995Y64614D01*
X69803Y63561D01*
X70857Y62752D01*
X72083Y62244D01*
X72650Y62169D01*
Y66408D01*
D02*
G37*
G36*
X727185Y68115D02*
Y64425D01*
X730875D01*
X730819Y64849D01*
X730366Y65944D01*
X729644Y66884D01*
X728704Y67605D01*
X727609Y68059D01*
X727185Y68115D01*
D02*
G37*
G36*
X735685D02*
X735260Y68059D01*
X734165Y67605D01*
X733225Y66884D01*
X732504Y65944D01*
X732051Y64849D01*
X731995Y64425D01*
X735685D01*
Y68115D01*
D02*
G37*
G36*
X725685D02*
X725260Y68059D01*
X724165Y67605D01*
X723225Y66884D01*
X722504Y65944D01*
X722051Y64849D01*
X721995Y64425D01*
X725685D01*
Y68115D01*
D02*
G37*
G36*
X715685D02*
X715260Y68059D01*
X714165Y67605D01*
X713225Y66884D01*
X712504Y65944D01*
X712051Y64849D01*
X711995Y64425D01*
X715685D01*
Y68115D01*
D02*
G37*
G36*
X717185D02*
Y64425D01*
X720875D01*
X720819Y64849D01*
X720365Y65944D01*
X719644Y66884D01*
X718704Y67605D01*
X717610Y68059D01*
X717185Y68115D01*
D02*
G37*
G36*
X92030Y28250D02*
X88340D01*
X88395Y27825D01*
X88849Y26730D01*
X89570Y25790D01*
X90510Y25069D01*
X91605Y24616D01*
X92030Y24560D01*
Y28250D01*
D02*
G37*
G36*
X97220D02*
X93530D01*
Y24560D01*
X93954Y24616D01*
X95049Y25069D01*
X95989Y25790D01*
X96710Y26730D01*
X97164Y27825D01*
X97220Y28250D01*
D02*
G37*
G36*
X628205Y48468D02*
X620205D01*
Y44718D01*
Y35718D01*
X622166D01*
Y33026D01*
X621935Y32931D01*
X620995Y32209D01*
X620274Y31269D01*
X619821Y30175D01*
X619666Y29000D01*
X619821Y27825D01*
X620274Y26730D01*
X620995Y25790D01*
X621935Y25069D01*
X623030Y24616D01*
X624205Y24461D01*
X625380Y24616D01*
X626474Y25069D01*
X627414Y25790D01*
X628135Y26730D01*
X628589Y27825D01*
X628744Y29000D01*
X628589Y30175D01*
X628135Y31269D01*
X627414Y32209D01*
X626474Y32931D01*
X626244Y33026D01*
Y35718D01*
X628205D01*
Y44718D01*
Y48468D01*
D02*
G37*
G36*
X216465Y33539D02*
X215290Y33384D01*
X214195Y32931D01*
X213255Y32209D01*
X212534Y31269D01*
X212081Y30175D01*
X211926Y29000D01*
X212081Y27825D01*
X212534Y26730D01*
X213255Y25790D01*
X214195Y25069D01*
X215290Y24616D01*
X216465Y24461D01*
X217639Y24616D01*
X218734Y25069D01*
X219674Y25790D01*
X220395Y26730D01*
X220849Y27825D01*
X221004Y29000D01*
X220849Y30175D01*
X220395Y31269D01*
X219674Y32209D01*
X218734Y32931D01*
X217639Y33384D01*
X216465Y33539D01*
D02*
G37*
G36*
X609386Y44063D02*
X604024D01*
Y43626D01*
X603648Y43471D01*
X602917Y42910D01*
X602024Y42016D01*
X601463Y41285D01*
X601110Y40433D01*
X600990Y39520D01*
Y31791D01*
X600589Y31269D01*
X600136Y30175D01*
X599981Y29000D01*
X600136Y27825D01*
X600589Y26730D01*
X601310Y25790D01*
X602250Y25069D01*
X603345Y24616D01*
X604520Y24461D01*
X605694Y24616D01*
X606789Y25069D01*
X607729Y25790D01*
X608451Y26730D01*
X608904Y27825D01*
X609059Y29000D01*
X608904Y30175D01*
X608451Y31269D01*
X608050Y31791D01*
Y36764D01*
X609386D01*
Y44063D01*
D02*
G37*
G36*
X562617Y28250D02*
X558927D01*
Y24560D01*
X559352Y24616D01*
X560447Y25069D01*
X561387Y25790D01*
X562108Y26730D01*
X562561Y27825D01*
X562617Y28250D01*
D02*
G37*
G36*
X584085D02*
X580395D01*
X580451Y27825D01*
X580904Y26730D01*
X581625Y25790D01*
X582565Y25069D01*
X583660Y24616D01*
X584085Y24560D01*
Y28250D01*
D02*
G37*
G36*
X557427D02*
X553737D01*
X553793Y27825D01*
X554247Y26730D01*
X554968Y25790D01*
X555908Y25069D01*
X557002Y24616D01*
X557427Y24560D01*
Y28250D01*
D02*
G37*
G36*
X225557D02*
X221867D01*
X221923Y27825D01*
X222376Y26730D01*
X223098Y25790D01*
X224038Y25069D01*
X225132Y24616D01*
X225557Y24560D01*
Y28250D01*
D02*
G37*
G36*
X230747D02*
X227057D01*
Y24560D01*
X227482Y24616D01*
X228577Y25069D01*
X229517Y25790D01*
X230238Y26730D01*
X230691Y27825D01*
X230747Y28250D01*
D02*
G37*
G36*
X650163Y12250D02*
X646473D01*
X646529Y11825D01*
X646983Y10731D01*
X647704Y9791D01*
X648644Y9069D01*
X649739Y8616D01*
X650163Y8560D01*
Y12250D01*
D02*
G37*
G36*
X655353D02*
X651663D01*
Y8560D01*
X652088Y8616D01*
X653183Y9069D01*
X654123Y9791D01*
X654844Y10731D01*
X655298Y11825D01*
X655353Y12250D01*
D02*
G37*
G36*
X685413Y17500D02*
X676413D01*
Y8500D01*
X685413D01*
Y17500D01*
D02*
G37*
G36*
X660913Y17539D02*
X659739Y17384D01*
X658644Y16931D01*
X657704Y16209D01*
X656983Y15269D01*
X656529Y14175D01*
X656375Y13000D01*
X656529Y11825D01*
X656983Y10731D01*
X657704Y9791D01*
X658644Y9069D01*
X659739Y8616D01*
X660913Y8461D01*
X662088Y8616D01*
X663183Y9069D01*
X664123Y9791D01*
X664844Y10731D01*
X665298Y11825D01*
X665452Y13000D01*
X665298Y14175D01*
X664844Y15269D01*
X664123Y16209D01*
X663183Y16931D01*
X662088Y17384D01*
X660913Y17539D01*
D02*
G37*
G36*
X670913D02*
X669739Y17384D01*
X668644Y16931D01*
X667704Y16209D01*
X666983Y15269D01*
X666529Y14175D01*
X666374Y13000D01*
X666529Y11825D01*
X666983Y10731D01*
X667704Y9791D01*
X668644Y9069D01*
X669739Y8616D01*
X670913Y8461D01*
X672088Y8616D01*
X673183Y9069D01*
X674123Y9791D01*
X674844Y10731D01*
X675297Y11825D01*
X675452Y13000D01*
X675297Y14175D01*
X674844Y15269D01*
X674123Y16209D01*
X673183Y16931D01*
X672088Y17384D01*
X670913Y17539D01*
D02*
G37*
G36*
X196780Y33539D02*
X195605Y33384D01*
X194510Y32931D01*
X193570Y32209D01*
X192849Y31269D01*
X192395Y30175D01*
X192241Y29000D01*
X192395Y27825D01*
X192849Y26730D01*
X193570Y25790D01*
X194510Y25069D01*
X195605Y24616D01*
X196780Y24461D01*
X197954Y24616D01*
X199049Y25069D01*
X199989Y25790D01*
X200710Y26730D01*
X201164Y27825D01*
X201319Y29000D01*
X201164Y30175D01*
X200710Y31269D01*
X199989Y32209D01*
X199049Y32931D01*
X197954Y33384D01*
X196780Y33539D01*
D02*
G37*
G36*
X206622D02*
X205447Y33384D01*
X204353Y32931D01*
X203413Y32209D01*
X202691Y31269D01*
X202238Y30175D01*
X202083Y29000D01*
X202238Y27825D01*
X202691Y26730D01*
X203413Y25790D01*
X204353Y25069D01*
X205447Y24616D01*
X206622Y24461D01*
X207797Y24616D01*
X208892Y25069D01*
X209832Y25790D01*
X210553Y26730D01*
X211006Y27825D01*
X211161Y29000D01*
X211006Y30175D01*
X210553Y31269D01*
X209832Y32209D01*
X208892Y32931D01*
X207797Y33384D01*
X206622Y33539D01*
D02*
G37*
G36*
X22780D02*
X21605Y33384D01*
X20510Y32931D01*
X19570Y32209D01*
X18849Y31269D01*
X18395Y30175D01*
X18241Y29000D01*
X18395Y27825D01*
X18849Y26730D01*
X19570Y25790D01*
X20510Y25069D01*
X21605Y24616D01*
X22780Y24461D01*
X23954Y24616D01*
X25049Y25069D01*
X25989Y25790D01*
X26710Y26730D01*
X27164Y27825D01*
X27318Y29000D01*
X27164Y30175D01*
X26710Y31269D01*
X25989Y32209D01*
X25049Y32931D01*
X23954Y33384D01*
X22780Y33539D01*
D02*
G37*
G36*
X650163Y17440D02*
X649739Y17384D01*
X648644Y16931D01*
X647704Y16209D01*
X646983Y15269D01*
X646529Y14175D01*
X646473Y13750D01*
X650163D01*
Y17440D01*
D02*
G37*
G36*
X651663D02*
Y13750D01*
X655353D01*
X655298Y14175D01*
X654844Y15269D01*
X654123Y16209D01*
X653183Y16931D01*
X652088Y17384D01*
X651663Y17440D01*
D02*
G37*
G36*
X14085Y51831D02*
Y47592D01*
X18323D01*
X18248Y48159D01*
X17740Y49386D01*
X16932Y50439D01*
X15878Y51248D01*
X14651Y51756D01*
X14085Y51831D01*
D02*
G37*
G36*
X184500Y54207D02*
X176500D01*
Y50457D01*
Y48549D01*
X172480D01*
Y51257D01*
X132080D01*
Y40657D01*
X132560D01*
Y34991D01*
X130845Y33277D01*
X130010Y32931D01*
X129070Y32209D01*
X128349Y31269D01*
X127895Y30175D01*
X127741Y29000D01*
X127895Y27825D01*
X128349Y26730D01*
X129070Y25790D01*
X130010Y25069D01*
X131105Y24616D01*
X132280Y24461D01*
X133454Y24616D01*
X134549Y25069D01*
X135489Y25790D01*
X136210Y26730D01*
X136664Y27825D01*
X136819Y29000D01*
X136664Y30175D01*
X136210Y31269D01*
X135514Y32177D01*
X136041Y32704D01*
X136483Y33366D01*
X136638Y34146D01*
Y40657D01*
X137740D01*
Y35646D01*
X137896Y34866D01*
X138338Y34205D01*
X139448Y33094D01*
X139416Y32595D01*
X138913Y32209D01*
X138191Y31269D01*
X137738Y30175D01*
X137583Y29000D01*
X137738Y27825D01*
X138191Y26730D01*
X138913Y25790D01*
X139853Y25069D01*
X140947Y24616D01*
X142122Y24461D01*
X143297Y24616D01*
X144392Y25069D01*
X145332Y25790D01*
X146053Y26730D01*
X146506Y27825D01*
X146661Y29000D01*
X146506Y30175D01*
X146053Y31269D01*
X145332Y32209D01*
X144392Y32931D01*
X144161Y33026D01*
Y33304D01*
X144006Y34084D01*
X143564Y34746D01*
X143564Y34746D01*
X143564D01*
D01*
X143564Y34746D01*
Y34746D01*
X141819Y36491D01*
Y40657D01*
X142740D01*
Y38646D01*
X142740Y38646D01*
X142740D01*
X142896Y37866D01*
X143338Y37205D01*
X148572Y31970D01*
X148034Y31269D01*
X147581Y30175D01*
X147426Y29000D01*
X147581Y27825D01*
X148034Y26730D01*
X148755Y25790D01*
X149695Y25069D01*
X150790Y24616D01*
X151965Y24461D01*
X153139Y24616D01*
X154234Y25069D01*
X155174Y25790D01*
X155895Y26730D01*
X156349Y27825D01*
X156503Y29000D01*
X156372Y30001D01*
X156820Y30222D01*
X157358Y29684D01*
X157268Y29000D01*
X157423Y27825D01*
X157877Y26730D01*
X158598Y25790D01*
X159538Y25069D01*
X160633Y24616D01*
X161807Y24461D01*
X162982Y24616D01*
X164077Y25069D01*
X165017Y25790D01*
X165738Y26730D01*
X166191Y27825D01*
X166346Y29000D01*
X166191Y30175D01*
X165738Y31269D01*
X165017Y32209D01*
X164077Y32931D01*
X162982Y33384D01*
X161807Y33539D01*
X160633Y33384D01*
X159779Y33031D01*
X152615Y40195D01*
X152807Y40657D01*
X172480D01*
Y43451D01*
X176500D01*
Y41457D01*
X176970D01*
Y40883D01*
X176970Y40883D01*
Y39312D01*
X171127Y33470D01*
X170475Y33384D01*
X169380Y32931D01*
X168440Y32209D01*
X167719Y31269D01*
X167266Y30175D01*
X167111Y29000D01*
X167266Y27825D01*
X167719Y26730D01*
X168440Y25790D01*
X169380Y25069D01*
X170475Y24616D01*
X171650Y24461D01*
X172825Y24616D01*
X173919Y25069D01*
X174859Y25790D01*
X175581Y26730D01*
X176034Y27825D01*
X176120Y28477D01*
X182996Y35354D01*
X183557Y36085D01*
X183910Y36937D01*
X184030Y37850D01*
Y40883D01*
X184030Y40883D01*
Y41457D01*
X184500D01*
Y50457D01*
Y54207D01*
D02*
G37*
G36*
X12585Y51831D02*
X12018Y51756D01*
X10791Y51248D01*
X9738Y50439D01*
X8929Y49386D01*
X8421Y48159D01*
X8347Y47592D01*
X12585D01*
Y51831D01*
D02*
G37*
G36*
X30750Y48250D02*
X25571D01*
Y43464D01*
X30750D01*
Y48250D01*
D02*
G37*
G36*
X37429D02*
X32250D01*
Y43464D01*
X37429D01*
Y48250D01*
D02*
G37*
G36*
X628205Y53718D02*
X624955D01*
Y49968D01*
X628205D01*
Y53718D01*
D02*
G37*
G36*
X179750Y59457D02*
X176500D01*
Y55707D01*
X179750D01*
Y59457D01*
D02*
G37*
G36*
X623455Y53718D02*
X620205D01*
Y49968D01*
X623455D01*
Y53718D01*
D02*
G37*
G36*
X30750Y54535D02*
X25571D01*
Y49750D01*
X30750D01*
Y54535D01*
D02*
G37*
G36*
X37429D02*
X32250D01*
Y49750D01*
X37429D01*
Y54535D01*
D02*
G37*
G36*
X557427Y33440D02*
X557002Y33384D01*
X555908Y32931D01*
X554968Y32209D01*
X554247Y31269D01*
X553793Y30175D01*
X553737Y29750D01*
X557427D01*
Y33440D01*
D02*
G37*
G36*
X558927D02*
Y29750D01*
X562617D01*
X562561Y30175D01*
X562108Y31269D01*
X561387Y32209D01*
X560447Y32931D01*
X559352Y33384D01*
X558927Y33440D01*
D02*
G37*
G36*
X227057D02*
Y29750D01*
X230747D01*
X230691Y30175D01*
X230238Y31269D01*
X229517Y32209D01*
X228577Y32931D01*
X227482Y33384D01*
X227057Y33440D01*
D02*
G37*
G36*
X589275Y28250D02*
X585585D01*
Y24560D01*
X586010Y24616D01*
X587104Y25069D01*
X588044Y25790D01*
X588765Y26730D01*
X589219Y27825D01*
X589275Y28250D01*
D02*
G37*
G36*
X225557Y33440D02*
X225132Y33384D01*
X224038Y32931D01*
X223098Y32209D01*
X222376Y31269D01*
X221923Y30175D01*
X221867Y29750D01*
X225557D01*
Y33440D01*
D02*
G37*
G36*
X127435Y41150D02*
X124185D01*
Y37400D01*
X127435D01*
Y41150D01*
D02*
G37*
G36*
X485393Y72621D02*
X484612Y72466D01*
X483951Y72024D01*
X483509Y71362D01*
X483353Y70582D01*
Y43023D01*
X483509Y42243D01*
X483951Y41581D01*
X484612Y41139D01*
X485393Y40984D01*
X485433Y40992D01*
X505078D01*
X505855Y41146D01*
X506514Y41587D01*
X506954Y42246D01*
X507109Y43023D01*
Y70582D01*
X506954Y71359D01*
X506514Y72018D01*
X505855Y72458D01*
X505078Y72613D01*
X485433D01*
X485393Y72621D01*
D02*
G37*
G36*
X122685Y41150D02*
X119435D01*
Y37400D01*
X122685D01*
Y41150D01*
D02*
G37*
G36*
X585585Y33440D02*
Y29750D01*
X589275D01*
X589219Y30175D01*
X588765Y31269D01*
X588044Y32209D01*
X587104Y32931D01*
X586010Y33384D01*
X585585Y33440D01*
D02*
G37*
G36*
X18323Y46092D02*
X8347D01*
X8421Y45526D01*
X8929Y44299D01*
X9738Y43246D01*
X10791Y42437D01*
X11433Y42171D01*
Y41671D01*
X10791Y41405D01*
X9738Y40597D01*
X8929Y39543D01*
X8421Y38317D01*
X8248Y37000D01*
X8421Y35683D01*
X8929Y34457D01*
X9738Y33403D01*
X10791Y32595D01*
X12018Y32087D01*
X13335Y31913D01*
X14651Y32087D01*
X15878Y32595D01*
X16932Y33403D01*
X17740Y34457D01*
X18248Y35683D01*
X18422Y37000D01*
X18248Y38317D01*
X17740Y39543D01*
X16932Y40597D01*
X15878Y41405D01*
X14651Y41914D01*
X15878Y42437D01*
X15878D01*
D01*
D01*
D01*
X15878Y42437D01*
X16932Y43246D01*
X17740Y44299D01*
X18248Y45526D01*
X18323Y46092D01*
D02*
G37*
G36*
X580500Y185911D02*
X579286Y185751D01*
X578155Y185282D01*
X577183Y184537D01*
X576438Y183566D01*
X575970Y182434D01*
X575810Y181220D01*
X575970Y180007D01*
X576438Y178875D01*
X577183Y177904D01*
X578155Y177159D01*
X579286Y176690D01*
X580500Y176530D01*
X581714Y176690D01*
X582845Y177159D01*
X583816Y177904D01*
X584562Y178875D01*
X585030Y180007D01*
X585190Y181220D01*
X585030Y182434D01*
X584562Y183566D01*
X583816Y184537D01*
X582845Y185282D01*
X581714Y185751D01*
X580500Y185911D01*
D02*
G37*
G36*
X215354Y178981D02*
X214140Y178822D01*
X213009Y178353D01*
X212038Y177608D01*
X211293Y176636D01*
X210824Y175505D01*
X210664Y174291D01*
X210824Y173077D01*
X211293Y171946D01*
X212038Y170975D01*
X213009Y170230D01*
X214140Y169761D01*
X215354Y169601D01*
X216568Y169761D01*
X217699Y170230D01*
X218671Y170975D01*
X219416Y171946D01*
X219885Y173077D01*
X220044Y174291D01*
X219885Y175505D01*
X219416Y176636D01*
X218671Y177608D01*
X217699Y178353D01*
X216568Y178822D01*
X215354Y178981D01*
D02*
G37*
G36*
X444488Y195911D02*
X443274Y195751D01*
X442143Y195282D01*
X441172Y194537D01*
X440426Y193565D01*
X439958Y192434D01*
X439798Y191220D01*
X439958Y190007D01*
X440426Y188875D01*
X441172Y187904D01*
X442143Y187159D01*
X443274Y186690D01*
X444488Y186530D01*
X445702Y186690D01*
X446008Y186817D01*
X447179Y185646D01*
X446849Y185270D01*
X446833Y185282D01*
X445702Y185751D01*
X444488Y185911D01*
X443274Y185751D01*
X442143Y185282D01*
X441172Y184537D01*
X440426Y183565D01*
X439958Y182434D01*
X439798Y181220D01*
X439958Y180007D01*
X440426Y178875D01*
X441172Y177904D01*
X442143Y177159D01*
X443274Y176690D01*
X444488Y176530D01*
X445702Y176690D01*
X446833Y177159D01*
X447805Y177904D01*
X448267Y178507D01*
X448740Y178346D01*
Y164498D01*
X446008Y161766D01*
X445702Y161892D01*
X444488Y162052D01*
X443274Y161892D01*
X442143Y161424D01*
X441172Y160679D01*
X440426Y159707D01*
X439958Y158576D01*
X439798Y157362D01*
X439958Y156148D01*
X440426Y155017D01*
X441172Y154046D01*
X442143Y153300D01*
X443274Y152832D01*
X444488Y152672D01*
X445702Y152832D01*
X446833Y153300D01*
X447805Y154046D01*
X448550Y155017D01*
X449018Y156148D01*
X449178Y157362D01*
X449018Y158576D01*
X448892Y158882D01*
X452221Y162212D01*
X452664Y162873D01*
X452819Y163654D01*
D01*
D01*
D01*
D01*
D01*
X452819D01*
D01*
D01*
D01*
D01*
Y163654D01*
X452819D01*
D01*
Y163654D01*
D01*
D01*
D01*
D01*
D01*
D01*
D01*
D01*
D01*
D01*
D01*
D01*
Y163654D01*
D01*
X452819D01*
D01*
D01*
D01*
D01*
X452819Y163654D01*
Y184929D01*
X452664Y185709D01*
X452221Y186371D01*
X452221Y186371D01*
D01*
X452221D01*
D01*
D01*
X452221Y186371D01*
Y186371D01*
X448892Y189701D01*
X449018Y190007D01*
X449178Y191220D01*
X449018Y192434D01*
X448550Y193565D01*
X447805Y194537D01*
X446833Y195282D01*
X445702Y195751D01*
X444488Y195911D01*
D02*
G37*
G36*
X509449D02*
X508235Y195751D01*
X507104Y195282D01*
X506132Y194537D01*
X505387Y193565D01*
X504918Y192434D01*
X504759Y191220D01*
X504918Y190007D01*
X505387Y188875D01*
X506132Y187904D01*
X507104Y187159D01*
X508235Y186690D01*
X509449Y186530D01*
X510663Y186690D01*
X510969Y186817D01*
X512140Y185645D01*
X511810Y185270D01*
X511794Y185282D01*
X510663Y185751D01*
X509449Y185911D01*
X508235Y185751D01*
X507104Y185282D01*
X506132Y184537D01*
X505387Y183565D01*
X504918Y182434D01*
X504759Y181220D01*
X504918Y180007D01*
X505387Y178875D01*
X506132Y177904D01*
X507104Y177159D01*
X508235Y176690D01*
X509449Y176530D01*
X510663Y176690D01*
X511794Y177159D01*
X512765Y177904D01*
X513137Y178389D01*
X513610Y178228D01*
Y164408D01*
X510969Y161766D01*
X510663Y161892D01*
X509449Y162052D01*
X508235Y161892D01*
X507104Y161424D01*
X506132Y160679D01*
X505387Y159707D01*
X504918Y158576D01*
X504759Y157362D01*
X504918Y156148D01*
X505387Y155017D01*
X506132Y154046D01*
X507104Y153300D01*
X508235Y152832D01*
X509449Y152672D01*
X510663Y152832D01*
X511794Y153300D01*
X512765Y154046D01*
X513511Y155017D01*
X513979Y156148D01*
X514139Y157362D01*
X513979Y158576D01*
X513852Y158882D01*
X517092Y162121D01*
X517092Y162121D01*
X517534Y162783D01*
D01*
D01*
D01*
Y162783D01*
X517534D01*
D01*
D01*
D01*
D01*
X517534D01*
D01*
D01*
D01*
D01*
Y162783D01*
X517534D01*
D01*
Y162783D01*
D01*
D01*
D01*
D01*
D01*
D01*
D01*
D01*
D01*
D01*
D01*
D01*
Y162783D01*
D01*
X517534D01*
D01*
D01*
D01*
D01*
X517534Y162783D01*
X517689Y163563D01*
X517689Y163563D01*
Y185020D01*
X517534Y185800D01*
X517092Y186462D01*
X513853Y189701D01*
X513979Y190007D01*
X514139Y191220D01*
X513979Y192434D01*
X513511Y193565D01*
X512765Y194537D01*
X511794Y195282D01*
X510663Y195751D01*
X509449Y195911D01*
D02*
G37*
G36*
Y152052D02*
X508235Y151892D01*
X507104Y151424D01*
X506132Y150679D01*
X505387Y149707D01*
X504918Y148576D01*
X504759Y147362D01*
X504918Y146148D01*
X505387Y145017D01*
X506132Y144046D01*
X507104Y143300D01*
X508235Y142832D01*
X509449Y142672D01*
X510663Y142832D01*
X511794Y143300D01*
X512765Y144046D01*
X513511Y145017D01*
X513979Y146148D01*
X514139Y147362D01*
X513979Y148576D01*
X513511Y149707D01*
X512765Y150679D01*
X511794Y151424D01*
X510663Y151892D01*
X509449Y152052D01*
D02*
G37*
G36*
X38825Y163392D02*
X24295D01*
Y144138D01*
X38825D01*
Y163392D01*
D02*
G37*
G36*
X340158Y152052D02*
X338944Y151892D01*
X337812Y151424D01*
X336841Y150679D01*
X336096Y149707D01*
X335627Y148576D01*
X335467Y147362D01*
X335627Y146148D01*
X336096Y145017D01*
X336841Y144046D01*
X337812Y143300D01*
X338944Y142832D01*
X340158Y142672D01*
X341371Y142832D01*
X342502Y143300D01*
X343474Y144046D01*
X344219Y145017D01*
X344688Y146148D01*
X344848Y147362D01*
X344688Y148576D01*
X344219Y149707D01*
X343474Y150679D01*
X342502Y151424D01*
X341371Y151892D01*
X340158Y152052D01*
D02*
G37*
G36*
X405512D02*
X404298Y151892D01*
X403167Y151424D01*
X402195Y150679D01*
X401450Y149707D01*
X400982Y148576D01*
X400822Y147362D01*
X400982Y146148D01*
X401450Y145017D01*
X402195Y144046D01*
X403167Y143300D01*
X404298Y142832D01*
X405512Y142672D01*
X406726Y142832D01*
X407857Y143300D01*
X408828Y144046D01*
X409574Y145017D01*
X410042Y146148D01*
X410202Y147362D01*
X410042Y148576D01*
X409574Y149707D01*
X408828Y150679D01*
X407857Y151424D01*
X406726Y151892D01*
X405512Y152052D01*
D02*
G37*
G36*
X38825Y142638D02*
X24295D01*
Y123384D01*
X38825D01*
Y142638D01*
D02*
G37*
G36*
X54854D02*
X40325D01*
Y123384D01*
X54854D01*
Y142638D01*
D02*
G37*
G36*
X71750Y124329D02*
X66965D01*
Y119150D01*
X71750D01*
Y124329D01*
D02*
G37*
G36*
X78035D02*
X73250D01*
Y119150D01*
X78035D01*
Y124329D01*
D02*
G37*
G36*
X614920Y161275D02*
X595235D01*
X594458Y161120D01*
X593799Y160680D01*
X593359Y160021D01*
X593204Y159244D01*
Y131685D01*
X593204Y131685D01*
X593204D01*
X593359Y130907D01*
X593799Y130248D01*
X594458Y129808D01*
X595235Y129653D01*
X614920D01*
X615697Y129808D01*
X616356Y130248D01*
X616797Y130907D01*
X616951Y131685D01*
Y159244D01*
X616797Y160021D01*
X616356Y160680D01*
X615697Y161120D01*
X614920Y161275D01*
D02*
G37*
G36*
X80750Y139408D02*
X76512D01*
X76587Y138841D01*
X77095Y137614D01*
X77903Y136560D01*
X78957Y135752D01*
X80183Y135244D01*
X80750Y135169D01*
Y139408D01*
D02*
G37*
G36*
X102322Y142421D02*
X100696Y142261D01*
X99133Y141787D01*
X97693Y141017D01*
X96431Y139980D01*
X95394Y138718D01*
X94625Y137278D01*
X94151Y135715D01*
X93990Y134089D01*
X94151Y132464D01*
X94625Y130901D01*
X95394Y129461D01*
X96431Y128198D01*
X97693Y127162D01*
X99133Y126392D01*
X100696Y125918D01*
X102322Y125758D01*
X103947Y125918D01*
X105510Y126392D01*
X106950Y127162D01*
X108213Y128198D01*
X109249Y129461D01*
X110019Y130901D01*
X110493Y132464D01*
X110653Y134089D01*
X110493Y135715D01*
X110019Y137278D01*
X109249Y138718D01*
X108213Y139980D01*
X106950Y141017D01*
X105510Y141787D01*
X103947Y142261D01*
X102322Y142421D01*
D02*
G37*
G36*
X684999D02*
X683374Y142261D01*
X681811Y141787D01*
X680370Y141017D01*
X679108Y139980D01*
X678072Y138718D01*
X677302Y137278D01*
X676828Y135715D01*
X676667Y134089D01*
X676828Y132464D01*
X677302Y130901D01*
X678072Y129461D01*
X679108Y128198D01*
X680370Y127162D01*
X681811Y126392D01*
X683374Y125918D01*
X684999Y125758D01*
X686624Y125918D01*
X688187Y126392D01*
X689628Y127162D01*
X690890Y128198D01*
X691926Y129461D01*
X692696Y130901D01*
X693170Y132464D01*
X693330Y134089D01*
X693170Y135715D01*
X692696Y137278D01*
X691926Y138718D01*
X690890Y139980D01*
X689628Y141017D01*
X688187Y141787D01*
X686624Y142261D01*
X684999Y142421D01*
D02*
G37*
G36*
X740875Y167255D02*
X737185D01*
Y163565D01*
X737609Y163621D01*
X738704Y164075D01*
X739644Y164796D01*
X740366Y165736D01*
X740819Y166831D01*
X740875Y167255D01*
D02*
G37*
G36*
X705685Y172445D02*
X705260Y172390D01*
X704165Y171936D01*
X703225Y171215D01*
X702504Y170275D01*
X702051Y169180D01*
X701995Y168755D01*
X705685D01*
Y172445D01*
D02*
G37*
G36*
X710875Y167255D02*
X707185D01*
Y163565D01*
X707610Y163621D01*
X708704Y164075D01*
X709644Y164796D01*
X710365Y165736D01*
X710819Y166831D01*
X710875Y167255D01*
D02*
G37*
G36*
X735685D02*
X731995D01*
X732051Y166831D01*
X732504Y165736D01*
X733225Y164796D01*
X734165Y164075D01*
X735260Y163621D01*
X735685Y163565D01*
Y167255D01*
D02*
G37*
G36*
X737185Y172445D02*
Y168755D01*
X740875D01*
X740819Y169180D01*
X740366Y170275D01*
X739644Y171215D01*
X738704Y171936D01*
X737609Y172390D01*
X737185Y172445D01*
D02*
G37*
G36*
X196850Y178981D02*
X195636Y178822D01*
X194505Y178353D01*
X193534Y177608D01*
X192789Y176636D01*
X192320Y175505D01*
X192160Y174291D01*
X192320Y173077D01*
X192789Y171946D01*
X193534Y170975D01*
X194505Y170230D01*
X195636Y169761D01*
X196850Y169601D01*
X198064Y169761D01*
X199196Y170230D01*
X200167Y170975D01*
X200912Y171946D01*
X201381Y173077D01*
X201540Y174291D01*
X201381Y175505D01*
X200912Y176636D01*
X200167Y177608D01*
X199196Y178353D01*
X198064Y178822D01*
X196850Y178981D01*
D02*
G37*
G36*
X707185Y172445D02*
Y168755D01*
X710875D01*
X710819Y169180D01*
X710365Y170275D01*
X709644Y171215D01*
X708704Y171936D01*
X707610Y172390D01*
X707185Y172445D01*
D02*
G37*
G36*
X735685D02*
X735260Y172390D01*
X734165Y171936D01*
X733225Y171215D01*
X732504Y170275D01*
X732051Y169180D01*
X731995Y168755D01*
X735685D01*
Y172445D01*
D02*
G37*
G36*
X128440Y155468D02*
X124750D01*
Y151778D01*
X125175Y151833D01*
X126269Y152287D01*
X127209Y153008D01*
X127931Y153948D01*
X128384Y155043D01*
X128440Y155468D01*
D02*
G37*
G36*
X123250Y160658D02*
X122825Y160602D01*
X121731Y160148D01*
X120791Y159427D01*
X120069Y158487D01*
X119616Y157392D01*
X119560Y156968D01*
X123250D01*
Y160658D01*
D02*
G37*
G36*
X54854Y163392D02*
X40325D01*
Y144138D01*
X54854D01*
Y163392D01*
D02*
G37*
G36*
X123250Y155468D02*
X119560D01*
X119616Y155043D01*
X120069Y153948D01*
X120791Y153008D01*
X121731Y152287D01*
X122825Y151833D01*
X123250Y151778D01*
Y155468D01*
D02*
G37*
G36*
X770935Y172505D02*
X761935D01*
Y163505D01*
X770935D01*
Y172505D01*
D02*
G37*
G36*
X705685Y167255D02*
X701995D01*
X702051Y166831D01*
X702504Y165736D01*
X703225Y164796D01*
X704165Y164075D01*
X705260Y163621D01*
X705685Y163565D01*
Y167255D01*
D02*
G37*
G36*
X124750Y160658D02*
Y156968D01*
X128440D01*
X128384Y157392D01*
X127931Y158487D01*
X127209Y159427D01*
X126269Y160148D01*
X125175Y160602D01*
X124750Y160658D01*
D02*
G37*
G36*
X215354Y168981D02*
X214140Y168822D01*
X213009Y168353D01*
X212038Y167608D01*
X211293Y166636D01*
X210824Y165505D01*
X210664Y164291D01*
X210824Y163077D01*
X211293Y161946D01*
X212038Y160975D01*
X213009Y160230D01*
X214140Y159761D01*
X215354Y159601D01*
X216568Y159761D01*
X217699Y160230D01*
X218671Y160975D01*
X219416Y161946D01*
X219885Y163077D01*
X220044Y164291D01*
X219885Y165505D01*
X219416Y166636D01*
X218671Y167608D01*
X217699Y168353D01*
X216568Y168822D01*
X215354Y168981D01*
D02*
G37*
G36*
X340158Y195911D02*
X338944Y195751D01*
X337812Y195282D01*
X336841Y194537D01*
X336096Y193565D01*
X335627Y192434D01*
X335467Y191220D01*
X335627Y190007D01*
X336096Y188875D01*
X336841Y187904D01*
X337812Y187159D01*
X338944Y186690D01*
X340158Y186530D01*
X341371Y186690D01*
X341677Y186817D01*
X342848Y185646D01*
X342518Y185270D01*
X342502Y185282D01*
X341371Y185751D01*
X340158Y185911D01*
X338944Y185751D01*
X337812Y185282D01*
X336841Y184537D01*
X336096Y183565D01*
X335627Y182434D01*
X335467Y181220D01*
X335627Y180007D01*
X336096Y178875D01*
X336841Y177904D01*
X337812Y177159D01*
X338944Y176690D01*
X340158Y176530D01*
X341371Y176690D01*
X342502Y177159D01*
X343474Y177904D01*
X344219Y178875D01*
X344688Y180007D01*
X344848Y181220D01*
X344688Y182434D01*
X344219Y183565D01*
X344207Y183581D01*
X344583Y183911D01*
X346169Y182325D01*
Y166258D01*
X341677Y161766D01*
X341371Y161892D01*
X340158Y162052D01*
X338944Y161892D01*
X337812Y161424D01*
X336841Y160679D01*
X336096Y159707D01*
X335627Y158576D01*
X335467Y157362D01*
X335627Y156148D01*
X336096Y155017D01*
X336841Y154046D01*
X337812Y153300D01*
X338944Y152832D01*
X340158Y152672D01*
X341371Y152832D01*
X342502Y153300D01*
X343474Y154046D01*
X344219Y155017D01*
X344688Y156148D01*
X344848Y157362D01*
X344688Y158576D01*
X344561Y158882D01*
X349651Y163971D01*
X350093Y164633D01*
X350248Y165413D01*
D01*
D01*
D01*
D01*
D01*
X350248D01*
D01*
D01*
D01*
D01*
Y165413D01*
X350248D01*
D01*
Y165413D01*
D01*
D01*
D01*
D01*
D01*
D01*
D01*
D01*
D01*
D01*
D01*
D01*
Y165413D01*
D01*
X350248D01*
D01*
D01*
D01*
D01*
X350248Y165413D01*
Y183169D01*
X350093Y183950D01*
X349651Y184611D01*
X344561Y189701D01*
X344688Y190007D01*
X344848Y191220D01*
X344688Y192434D01*
X344219Y193565D01*
X343474Y194537D01*
X342502Y195282D01*
X341371Y195751D01*
X340158Y195911D01*
D02*
G37*
G36*
X372357Y90468D02*
X369107D01*
Y86718D01*
X372357D01*
Y90468D01*
D02*
G37*
G36*
X377107D02*
X373857D01*
Y86718D01*
X377107D01*
Y90468D01*
D02*
G37*
G36*
X364250Y86750D02*
X362334D01*
X362598Y86113D01*
X363039Y85539D01*
X363613Y85098D01*
X364250Y84834D01*
Y86750D01*
D02*
G37*
G36*
X367666D02*
X365750D01*
Y84834D01*
X366387Y85098D01*
X366961Y85539D01*
X367402Y86113D01*
X367666Y86750D01*
D02*
G37*
G36*
X126649Y193707D02*
X122899D01*
Y190457D01*
X126649D01*
Y193707D01*
D02*
G37*
G36*
X86461Y193163D02*
X84530D01*
Y190264D01*
X86461D01*
Y193163D01*
D02*
G37*
G36*
X364250Y90166D02*
X363613Y89902D01*
X363039Y89461D01*
X362598Y88887D01*
X362334Y88250D01*
X364250D01*
Y90166D01*
D02*
G37*
G36*
X365750D02*
Y88250D01*
X367666D01*
X367402Y88887D01*
X366961Y89461D01*
X366387Y89902D01*
X365750Y90166D01*
D02*
G37*
G36*
X121399Y198457D02*
X108650D01*
Y196496D01*
X105961D01*
Y197563D01*
X100598D01*
Y190264D01*
X105961D01*
Y192418D01*
X108650D01*
Y190457D01*
X121399D01*
Y194456D01*
Y198457D01*
D02*
G37*
G36*
X90149Y209457D02*
X72149D01*
Y201457D01*
X74260D01*
Y197563D01*
X73618D01*
Y190264D01*
X78980D01*
Y197563D01*
X78338D01*
Y201457D01*
X81799D01*
X81960Y200983D01*
X81818Y200875D01*
X81377Y200300D01*
X81114Y199663D01*
X86445D01*
X86182Y200300D01*
X85741Y200875D01*
X85166Y201316D01*
X85194Y201457D01*
X90149D01*
Y203418D01*
X98573D01*
X98765Y202956D01*
X94357Y198548D01*
X93915Y197887D01*
X93851Y197563D01*
X93118D01*
Y190264D01*
X98480D01*
Y196904D01*
X101494Y199918D01*
X126595D01*
X134839Y191674D01*
Y149768D01*
X134839Y149768D01*
X134839D01*
X134994Y148987D01*
X135436Y148326D01*
X156221Y127541D01*
X156299Y126950D01*
X156576Y126281D01*
X157017Y125707D01*
X157591Y125266D01*
X158260Y124989D01*
X158978Y124894D01*
X159696Y124989D01*
X160365Y125266D01*
X160939Y125707D01*
X161380Y126281D01*
X161657Y126950D01*
X161752Y127668D01*
X161696Y128089D01*
X162050Y128443D01*
X162417Y128394D01*
X163135Y128489D01*
X163502Y128640D01*
X163918Y128363D01*
Y128357D01*
X164073Y127576D01*
X164515Y126915D01*
X165450Y125980D01*
X165305Y125501D01*
X164635Y125368D01*
X164029Y124963D01*
X163424Y125368D01*
X162454Y125561D01*
X161485Y125368D01*
X160663Y124819D01*
X160114Y123997D01*
X159935Y123098D01*
X136957D01*
Y125059D01*
X118957D01*
Y117059D01*
X121418D01*
Y106467D01*
X113490Y98539D01*
X102783D01*
X102750Y99038D01*
X103117Y99086D01*
X104343Y99595D01*
X105397Y100403D01*
X106205Y101456D01*
X106713Y102683D01*
X106887Y104000D01*
X106713Y105316D01*
X106205Y106543D01*
X105397Y107597D01*
X104343Y108405D01*
X103117Y108913D01*
X104343Y109437D01*
X104343D01*
D01*
D01*
D01*
X104343Y109437D01*
X105397Y110246D01*
X106205Y111299D01*
X106713Y112526D01*
X106788Y113093D01*
X96812D01*
X96886Y112526D01*
X97395Y111299D01*
X98203Y110246D01*
X99257Y109437D01*
X99899Y109171D01*
Y108671D01*
X99257Y108405D01*
X98203Y107597D01*
X97395Y106543D01*
X96886Y105316D01*
X96713Y104000D01*
X96886Y102683D01*
X97395Y101456D01*
X98203Y100403D01*
X99257Y99595D01*
X100483Y99086D01*
X100850Y99038D01*
X100817Y98539D01*
X93000D01*
X92220Y98384D01*
X91558Y97942D01*
X78058Y84442D01*
X77616Y83780D01*
X77461Y83000D01*
Y80754D01*
X77337Y80712D01*
X76930Y81003D01*
Y98101D01*
X78035D01*
Y100500D01*
X83335D01*
X84249Y100620D01*
X85100Y100973D01*
X85831Y101534D01*
Y101534D01*
X85831D01*
D01*
D01*
D01*
D01*
D01*
D01*
X85831D01*
D01*
X85831D01*
Y101534D01*
D01*
D01*
D01*
D01*
Y101534D01*
D01*
D01*
D01*
D01*
D01*
D01*
Y101534D01*
D01*
D01*
X85831D01*
D01*
D01*
D01*
X92331Y108034D01*
X92892Y108765D01*
X93245Y109616D01*
X93365Y110530D01*
D01*
D01*
D01*
D01*
D01*
X93365D01*
D01*
D01*
D01*
D01*
Y110530D01*
X93365D01*
D01*
Y110530D01*
D01*
D01*
D01*
D01*
D01*
D01*
D01*
D01*
D01*
D01*
D01*
D01*
Y110530D01*
D01*
X93365D01*
D01*
D01*
D01*
D01*
X93365Y110530D01*
Y141038D01*
X116295Y163968D01*
X116856Y164699D01*
X117209Y165551D01*
X117329Y166464D01*
D01*
D01*
D01*
D01*
D01*
X117329D01*
D01*
D01*
D01*
D01*
Y166464D01*
X117329D01*
D01*
Y166464D01*
D01*
D01*
D01*
D01*
D01*
D01*
D01*
D01*
D01*
D01*
D01*
D01*
Y166464D01*
D01*
X117329D01*
D01*
D01*
D01*
D01*
X117329Y166464D01*
Y171413D01*
X117799D01*
Y180413D01*
Y189413D01*
X109799D01*
Y186953D01*
X102220D01*
Y188477D01*
X96858D01*
Y181242D01*
X95357Y179741D01*
X95238Y179563D01*
X94118D01*
Y172264D01*
X99480D01*
Y178096D01*
X100981Y179597D01*
X101423Y180259D01*
X101578Y181039D01*
Y181177D01*
X102220D01*
Y182874D01*
X109799D01*
Y180413D01*
Y178462D01*
X106961D01*
Y179563D01*
X101598D01*
Y172264D01*
X106961D01*
Y173364D01*
X109799D01*
Y171413D01*
X110269D01*
Y167927D01*
X87339Y144996D01*
X86778Y144265D01*
X86425Y143414D01*
X86356Y142887D01*
X86274Y142853D01*
X85871Y142746D01*
X85097Y143754D01*
X84043Y144563D01*
X82816Y145071D01*
X84043Y145595D01*
X84043D01*
D01*
D01*
D01*
X84043Y145595D01*
X85097Y146403D01*
X85905Y147457D01*
X86414Y148683D01*
X86587Y150000D01*
X86414Y151310D01*
X88432Y153327D01*
X92599D01*
Y162327D01*
Y164788D01*
X97858D01*
Y163177D01*
X103220D01*
Y170476D01*
X97858D01*
Y168866D01*
X92599D01*
Y171327D01*
X84599D01*
Y168866D01*
X84099D01*
Y171327D01*
Y180327D01*
X82078D01*
Y181177D01*
X82720D01*
Y188476D01*
X77358D01*
Y181177D01*
X78000D01*
Y180327D01*
X76099D01*
Y177926D01*
X71884D01*
X61368Y188442D01*
X60706Y188884D01*
X59926Y189039D01*
X57738D01*
X57677Y189242D01*
X57135Y190255D01*
X56407Y191143D01*
X55519Y191872D01*
X54506Y192413D01*
X53407Y192746D01*
X52264Y192859D01*
X51121Y192746D01*
X50022Y192413D01*
X49009Y191872D01*
X48121Y191143D01*
X47392Y190255D01*
X46851Y189242D01*
X46517Y188143D01*
X46405Y187000D01*
X46517Y185857D01*
X46851Y184758D01*
X47392Y183745D01*
X48121Y182857D01*
X49009Y182129D01*
X50022Y181587D01*
X51121Y181254D01*
X52264Y181141D01*
X53407Y181254D01*
X54506Y181587D01*
X55519Y182129D01*
X56407Y182857D01*
X57135Y183745D01*
X57677Y184758D01*
X57738Y184961D01*
X59081D01*
X69598Y174445D01*
X70259Y174003D01*
X71039Y173847D01*
X71039Y173847D01*
X76099D01*
Y171327D01*
Y168866D01*
X66534D01*
X60399Y175001D01*
X59737Y175443D01*
X58957Y175598D01*
X36628D01*
X27656Y184571D01*
X27755Y184758D01*
X28089Y185857D01*
X28201Y187000D01*
X28089Y188143D01*
X27755Y189242D01*
X27214Y190255D01*
X26485Y191143D01*
X25598Y191872D01*
X24585Y192413D01*
X23485Y192746D01*
X22343Y192859D01*
X21200Y192746D01*
X20100Y192413D01*
X19087Y191872D01*
X18200Y191143D01*
X17471Y190255D01*
X16930Y189242D01*
X16596Y188143D01*
X16484Y187000D01*
X16596Y185857D01*
X16930Y184758D01*
X17471Y183745D01*
X18200Y182857D01*
X19087Y182129D01*
X20100Y181587D01*
X21200Y181254D01*
X22343Y181141D01*
X23485Y181254D01*
X24585Y181587D01*
X24772Y181687D01*
X34341Y172117D01*
X34341Y172117D01*
X34341D01*
X34341D01*
Y172117D01*
D01*
X34341D01*
D01*
D01*
D01*
X34341Y172117D01*
Y172117D01*
X35003Y171675D01*
X35783Y171520D01*
X58112D01*
X64247Y165385D01*
X64909Y164943D01*
X65689Y164788D01*
X76099D01*
Y162327D01*
X84099D01*
Y164788D01*
X84599D01*
Y162327D01*
Y156704D01*
X82810Y154914D01*
X81500Y155087D01*
X80183Y154913D01*
X78957Y154405D01*
X77903Y153597D01*
X77095Y152543D01*
X76587Y151317D01*
X76413Y150000D01*
X76587Y148683D01*
X77095Y147457D01*
X77903Y146403D01*
X78957Y145595D01*
X79599Y145329D01*
Y144829D01*
X78957Y144563D01*
X77903Y143754D01*
X77095Y142701D01*
X76587Y141474D01*
X76512Y140908D01*
X81501D01*
Y140158D01*
X82250D01*
Y135169D01*
X82816Y135244D01*
X84043Y135752D01*
X85097Y136560D01*
X85831Y137517D01*
X86305Y137357D01*
Y111992D01*
X81872Y107560D01*
X78035D01*
Y109959D01*
X66965D01*
Y107530D01*
X56606D01*
Y111905D01*
X40364D01*
Y104499D01*
Y97094D01*
X42777D01*
Y84374D01*
X38626D01*
Y65626D01*
X42777D01*
Y54535D01*
X39941D01*
Y43464D01*
X51799D01*
Y54535D01*
X49837D01*
Y65626D01*
X57374D01*
Y84374D01*
X49837D01*
Y97094D01*
X56606D01*
Y100470D01*
X66965D01*
Y98101D01*
X69870D01*
Y80648D01*
X69803Y80597D01*
X68995Y79543D01*
X68486Y78317D01*
X68313Y77000D01*
X68486Y75683D01*
X68995Y74457D01*
X69803Y73403D01*
X70857Y72595D01*
X71499Y72329D01*
Y71829D01*
X70857Y71563D01*
X69803Y70754D01*
X68995Y69701D01*
X68486Y68474D01*
X68412Y67908D01*
X73401D01*
Y67159D01*
X74150D01*
Y62169D01*
X74717Y62244D01*
X75943Y62752D01*
X76176Y62931D01*
X76506Y62555D01*
X51990Y38039D01*
X49465D01*
X48684Y37884D01*
X48419Y37707D01*
X48023Y37442D01*
X48023Y37442D01*
X43870Y33289D01*
X43639Y33384D01*
X42465Y33539D01*
X41290Y33384D01*
X40195Y32931D01*
X39255Y32209D01*
X38534Y31269D01*
X38080Y30175D01*
X37926Y29000D01*
X38080Y27825D01*
X38534Y26730D01*
X39255Y25790D01*
X40195Y25069D01*
X41290Y24616D01*
X42465Y24461D01*
X43639Y24616D01*
X44734Y25069D01*
X45674Y25790D01*
X46395Y26730D01*
X46849Y27825D01*
X47003Y29000D01*
X46849Y30175D01*
X46753Y30405D01*
X48175Y31826D01*
X48551Y31497D01*
X48376Y31269D01*
X47923Y30175D01*
X47768Y29000D01*
X47923Y27825D01*
X48376Y26730D01*
X49098Y25790D01*
X50038Y25069D01*
X51132Y24616D01*
X52307Y24461D01*
X53482Y24616D01*
X54577Y25069D01*
X55517Y25790D01*
X56238Y26730D01*
X56691Y27825D01*
X56846Y29000D01*
X56691Y30175D01*
X56596Y30405D01*
X58018Y31826D01*
X58394Y31497D01*
X58219Y31269D01*
X57766Y30175D01*
X57611Y29000D01*
X57766Y27825D01*
X58219Y26730D01*
X58940Y25790D01*
X59880Y25069D01*
X60975Y24616D01*
X62150Y24461D01*
X63324Y24616D01*
X64419Y25069D01*
X65359Y25790D01*
X66080Y26730D01*
X66534Y27825D01*
X66689Y29000D01*
X66534Y30175D01*
X66439Y30405D01*
X75851Y39818D01*
X93600D01*
Y37539D01*
X79280D01*
X78499Y37384D01*
X77838Y36942D01*
X74185Y33289D01*
X73954Y33384D01*
X72780Y33539D01*
X71605Y33384D01*
X70510Y32931D01*
X69570Y32209D01*
X68849Y31269D01*
X68395Y30175D01*
X68241Y29000D01*
X68395Y27825D01*
X68849Y26730D01*
X69570Y25790D01*
X70510Y25069D01*
X71605Y24616D01*
X72780Y24461D01*
X73954Y24616D01*
X75049Y25069D01*
X75989Y25790D01*
X76710Y26730D01*
X77164Y27825D01*
X77318Y29000D01*
X77164Y30175D01*
X77068Y30405D01*
X79167Y32503D01*
X79543Y32174D01*
X78849Y31269D01*
X78395Y30175D01*
X78241Y29000D01*
X78395Y27825D01*
X78849Y26730D01*
X79570Y25790D01*
X80510Y25069D01*
X81605Y24616D01*
X82780Y24461D01*
X83954Y24616D01*
X85049Y25069D01*
X85989Y25790D01*
X86710Y26730D01*
X87164Y27825D01*
X87318Y29000D01*
X87164Y30175D01*
X86710Y31269D01*
X85989Y32209D01*
X85049Y32931D01*
X84005Y33363D01*
Y33363D01*
X84005D01*
D01*
D01*
X84005D01*
X83954Y33384D01*
Y33384D01*
X83959Y33461D01*
X90508D01*
X90606Y32970D01*
X90510Y32931D01*
X89570Y32209D01*
X88849Y31269D01*
X88395Y30175D01*
X88340Y29750D01*
X97220D01*
X97164Y30175D01*
X96710Y31269D01*
X95989Y32209D01*
X95049Y32931D01*
X94005Y33363D01*
Y33363D01*
X94005D01*
D01*
D01*
X94005D01*
X93954Y33384D01*
Y33384D01*
X93959Y33461D01*
X104435D01*
X105215Y33616D01*
X105877Y34058D01*
Y34058D01*
X105877D01*
D01*
D01*
D01*
D01*
D01*
D01*
X105877D01*
D01*
X105877D01*
Y34058D01*
D01*
D01*
D01*
D01*
Y34058D01*
D01*
D01*
D01*
D01*
D01*
D01*
Y34058D01*
D01*
D01*
X105877D01*
D01*
D01*
D01*
X107542Y35723D01*
X107984Y36385D01*
X108139Y37165D01*
D01*
D01*
D01*
D01*
D01*
D01*
X108139D01*
D01*
D01*
D01*
Y37165D01*
X108139Y37165D01*
D01*
D01*
D01*
D01*
D01*
D01*
D01*
D01*
D01*
D01*
D01*
D01*
X108331Y37357D01*
X110100D01*
Y46357D01*
Y51973D01*
X110473Y52346D01*
X110935Y52154D01*
Y46400D01*
Y37400D01*
X112896D01*
Y34245D01*
X101190Y22539D01*
X36754D01*
X34661Y24632D01*
Y24974D01*
X34892Y25069D01*
X35832Y25790D01*
X36553Y26730D01*
X37006Y27825D01*
X37161Y29000D01*
X37006Y30175D01*
X36553Y31269D01*
X35832Y32209D01*
X34892Y32931D01*
X33797Y33384D01*
X32622Y33539D01*
X31447Y33384D01*
X30353Y32931D01*
X29413Y32209D01*
X28691Y31269D01*
X28238Y30175D01*
X28083Y29000D01*
X28238Y27825D01*
X28691Y26730D01*
X29413Y25790D01*
X30353Y25069D01*
X30583Y24974D01*
Y23787D01*
X30583Y23787D01*
X30583D01*
X30738Y23007D01*
X31180Y22345D01*
X34468Y19058D01*
X34468Y19058D01*
X35129Y18616D01*
Y18616D01*
X35129Y18616D01*
D01*
D01*
D01*
X35129D01*
Y18616D01*
D01*
X35129Y18616D01*
X35129Y18616D01*
X35910Y18461D01*
X35910Y18461D01*
X102035D01*
X102815Y18616D01*
X103477Y19058D01*
Y19058D01*
X103477D01*
D01*
D01*
D01*
D01*
D01*
D01*
X103477D01*
D01*
X103477D01*
Y19058D01*
D01*
D01*
D01*
D01*
Y19058D01*
D01*
D01*
D01*
D01*
D01*
D01*
Y19058D01*
D01*
D01*
X103477D01*
D01*
D01*
D01*
X116377Y31958D01*
X116819Y32620D01*
X116974Y33400D01*
X116974Y33400D01*
Y37400D01*
X118935D01*
Y46400D01*
Y48861D01*
X119435D01*
Y46400D01*
Y42650D01*
X127435D01*
Y46400D01*
Y47879D01*
X127811Y48208D01*
X128435Y48126D01*
X129153Y48221D01*
X129822Y48498D01*
X130396Y48939D01*
X130837Y49513D01*
X131114Y50182D01*
X131209Y50900D01*
X131114Y51618D01*
X130837Y52287D01*
X130396Y52861D01*
X129822Y53302D01*
X129153Y53579D01*
X128435Y53674D01*
X127811Y53592D01*
X127435Y53921D01*
Y55400D01*
X119435D01*
Y52939D01*
X118935D01*
Y55400D01*
X118772D01*
X118581Y55862D01*
X130942Y68223D01*
X131384Y68885D01*
X131539Y69665D01*
Y94016D01*
X132279Y94756D01*
X132740Y94564D01*
Y72834D01*
X132421Y72418D01*
X132149Y71761D01*
X132056Y71057D01*
Y65857D01*
X132149Y65152D01*
X132421Y64495D01*
X132854Y63931D01*
X133418Y63498D01*
X134075Y63226D01*
X134780Y63133D01*
X135484Y63226D01*
X136141Y63498D01*
X136631Y63874D01*
X137080Y63653D01*
Y63157D01*
X169030D01*
Y68456D01*
Y73757D01*
X151874D01*
Y90412D01*
X152315Y90647D01*
X153021Y90176D01*
X153990Y89983D01*
X157927D01*
X158764Y90149D01*
X159072Y89914D01*
X159740Y89637D01*
X160032Y89598D01*
X160238Y89143D01*
X160114Y88958D01*
X159922Y87988D01*
Y84051D01*
X160114Y83082D01*
X160663Y82260D01*
X161485Y81711D01*
X162454Y81518D01*
X163424Y81711D01*
X164029Y82116D01*
X164635Y81711D01*
X165604Y81518D01*
X166328Y81662D01*
X166714Y81345D01*
Y78802D01*
X166714Y78802D01*
X166714D01*
X166870Y78022D01*
X167312Y77360D01*
X170454Y74218D01*
X170262Y73757D01*
X170530D01*
Y69207D01*
X172480D01*
Y71539D01*
X172942Y71731D01*
X177007Y67665D01*
X177669Y67223D01*
X178449Y67068D01*
X202104D01*
X220207Y48965D01*
X220869Y48523D01*
X221649Y48368D01*
X235898D01*
X269651Y14615D01*
X269651Y14615D01*
X270047Y14350D01*
X270312Y14173D01*
X271093Y14018D01*
X339748D01*
X346651Y7115D01*
X347312Y6673D01*
X348093Y6518D01*
X568975D01*
X569448Y6155D01*
X570117Y5878D01*
X570835Y5783D01*
X571553Y5878D01*
X572222Y6155D01*
X572796Y6596D01*
X573237Y7170D01*
X573514Y7839D01*
X573608Y8557D01*
X573514Y9275D01*
X573676Y9518D01*
X626713D01*
X627494Y9673D01*
X628155Y10115D01*
Y10115D01*
X628155D01*
D01*
D01*
D01*
D01*
D01*
D01*
X628155D01*
D01*
X628155D01*
Y10115D01*
D01*
D01*
D01*
D01*
Y10115D01*
D01*
D01*
D01*
D01*
D01*
D01*
Y10115D01*
D01*
D01*
X628155D01*
D01*
D01*
D01*
D01*
D01*
X647355Y29315D01*
X647797Y29976D01*
X647953Y30757D01*
D01*
D01*
D01*
D01*
D01*
X647953D01*
D01*
D01*
D01*
D01*
Y30757D01*
X647953D01*
D01*
Y30757D01*
D01*
D01*
D01*
D01*
D01*
D01*
D01*
D01*
D01*
D01*
D01*
D01*
Y30757D01*
D01*
X647953D01*
D01*
D01*
D01*
D01*
X647953Y30757D01*
Y64170D01*
X677001Y93218D01*
X725435D01*
X726215Y93373D01*
X726877Y93815D01*
Y93815D01*
X726877D01*
D01*
D01*
D01*
D01*
D01*
D01*
X726877D01*
D01*
X726877D01*
Y93815D01*
D01*
D01*
D01*
D01*
Y93815D01*
D01*
D01*
D01*
D01*
D01*
D01*
Y93815D01*
D01*
D01*
X726877D01*
D01*
D01*
D01*
D01*
D01*
X757877Y124815D01*
X758319Y125477D01*
X758474Y126257D01*
D01*
D01*
D01*
D01*
D01*
X758474D01*
D01*
D01*
D01*
D01*
Y126257D01*
X758474D01*
D01*
Y126257D01*
D01*
D01*
D01*
D01*
D01*
D01*
D01*
D01*
D01*
D01*
D01*
D01*
Y126257D01*
D01*
X758474D01*
D01*
D01*
D01*
D01*
X758474Y126257D01*
Y163979D01*
X758704Y164075D01*
X759644Y164796D01*
X760365Y165736D01*
X760819Y166831D01*
X760974Y168005D01*
X760819Y169180D01*
X760365Y170275D01*
X759644Y171215D01*
X758704Y171936D01*
X757610Y172390D01*
X756435Y172544D01*
X755260Y172390D01*
X754165Y171936D01*
X753225Y171215D01*
X752504Y170275D01*
X752051Y169180D01*
X751896Y168005D01*
X752051Y166831D01*
X752504Y165736D01*
X753225Y164796D01*
X754165Y164075D01*
X754395Y163979D01*
Y127102D01*
X748878Y121584D01*
X748437Y121820D01*
X748474Y122005D01*
Y163979D01*
X748704Y164075D01*
X749644Y164796D01*
X750365Y165736D01*
X750819Y166831D01*
X750974Y168005D01*
X750819Y169180D01*
X750365Y170275D01*
X749644Y171215D01*
X748704Y171936D01*
X747610Y172390D01*
X746435Y172544D01*
X745260Y172390D01*
X744165Y171936D01*
X743225Y171215D01*
X742504Y170275D01*
X742051Y169180D01*
X741896Y168005D01*
X742051Y166831D01*
X742504Y165736D01*
X743225Y164796D01*
X744165Y164075D01*
X744395Y163979D01*
Y122850D01*
X721842Y100296D01*
X674913D01*
X674133Y100141D01*
X673471Y99699D01*
X641471Y67699D01*
X641029Y67037D01*
X640874Y66257D01*
Y33101D01*
X624369Y16596D01*
X615069D01*
X614877Y17058D01*
X615804Y17985D01*
X616246Y18646D01*
X616401Y19427D01*
D01*
D01*
D01*
D01*
D01*
X616401D01*
D01*
D01*
D01*
D01*
Y19427D01*
X616401D01*
D01*
Y19427D01*
D01*
D01*
D01*
D01*
D01*
D01*
D01*
D01*
D01*
D01*
D01*
D01*
Y19427D01*
D01*
X616401D01*
D01*
D01*
D01*
D01*
X616401Y19427D01*
Y24974D01*
X616632Y25069D01*
X617572Y25790D01*
X618293Y26730D01*
X618747Y27825D01*
X618901Y29000D01*
X618747Y30175D01*
X618293Y31269D01*
X617572Y32209D01*
X616632Y32931D01*
X615537Y33384D01*
X614362Y33539D01*
X613188Y33384D01*
X612093Y32931D01*
X611153Y32209D01*
X610431Y31269D01*
X609978Y30175D01*
X609823Y29000D01*
X609978Y27825D01*
X610431Y26730D01*
X611153Y25790D01*
X612093Y25069D01*
X612323Y24974D01*
Y20271D01*
X611648Y19596D01*
X594883D01*
X594692Y20058D01*
X596119Y21485D01*
X596561Y22147D01*
X596716Y22927D01*
X596716Y22927D01*
Y24974D01*
X596947Y25069D01*
X597887Y25790D01*
X598608Y26730D01*
X599061Y27825D01*
X599216Y29000D01*
X599061Y30175D01*
X598608Y31269D01*
X597887Y32209D01*
X596947Y32931D01*
X595852Y33384D01*
X594677Y33539D01*
X593503Y33384D01*
X592408Y32931D01*
X591468Y32209D01*
X590746Y31269D01*
X590293Y30175D01*
X590138Y29000D01*
X590293Y27825D01*
X590746Y26730D01*
X591468Y25790D01*
X592408Y25069D01*
X592638Y24974D01*
Y23772D01*
X591463Y22596D01*
X573656D01*
X573378Y23012D01*
X573514Y23339D01*
X573592Y23930D01*
X579994Y30332D01*
X580442Y30111D01*
X580395Y29750D01*
X584085D01*
Y33440D01*
X583724Y33393D01*
X583502Y33841D01*
X587840Y38178D01*
X588705D01*
Y35717D01*
X596705D01*
Y44717D01*
Y53718D01*
X594744D01*
Y55764D01*
X595386D01*
Y63063D01*
X590024D01*
Y55764D01*
X590666D01*
Y53718D01*
X588705D01*
Y44717D01*
Y42257D01*
X586995D01*
X586215Y42101D01*
X585950Y41925D01*
X585554Y41660D01*
X585553Y41659D01*
X570708Y26814D01*
X570117Y26736D01*
X569448Y26459D01*
X568873Y26018D01*
X568433Y25444D01*
X568155Y24775D01*
X568061Y24057D01*
X568155Y23339D01*
X568291Y23012D01*
X568013Y22596D01*
X527338D01*
X527147Y23058D01*
X529089Y25000D01*
X541835D01*
Y26961D01*
X544309D01*
X544404Y26730D01*
X545125Y25790D01*
X546065Y25069D01*
X547160Y24616D01*
X548335Y24461D01*
X549509Y24616D01*
X550604Y25069D01*
X551544Y25790D01*
X552266Y26730D01*
X552719Y27825D01*
X552874Y29000D01*
X552719Y30175D01*
X552266Y31269D01*
X551544Y32209D01*
X550604Y32931D01*
X549509Y33384D01*
X548335Y33539D01*
X547160Y33384D01*
X546065Y32931D01*
X545125Y32209D01*
X544404Y31269D01*
X544309Y31039D01*
X541835D01*
Y33000D01*
X524714D01*
X524523Y33462D01*
X525522Y34461D01*
X549121D01*
X549901Y34616D01*
X550563Y35058D01*
Y35058D01*
X550563D01*
D01*
D01*
D01*
D01*
D01*
D01*
X550563D01*
D01*
X550563D01*
Y35058D01*
D01*
D01*
D01*
D01*
Y35058D01*
D01*
D01*
D01*
D01*
D01*
D01*
Y35058D01*
D01*
D01*
X550563D01*
D01*
D01*
D01*
D01*
D01*
X585822Y70317D01*
X586284Y70125D01*
Y64850D01*
X591646D01*
Y66374D01*
X598205D01*
Y63914D01*
Y54914D01*
X600925D01*
Y53150D01*
X600284D01*
Y45851D01*
X605646D01*
Y53150D01*
X605004D01*
Y54914D01*
X606205D01*
Y60530D01*
X607243Y61568D01*
X607705Y61376D01*
Y54914D01*
X607896D01*
Y53150D01*
X607764D01*
Y45851D01*
X613126D01*
Y46099D01*
X613492Y46147D01*
X614343Y46500D01*
X614967Y46978D01*
X615895Y47363D01*
X616731Y48004D01*
X617372Y48840D01*
X617775Y49813D01*
X617912Y50857D01*
X617775Y51901D01*
X617372Y52874D01*
X616731Y53710D01*
X615895Y54351D01*
X614922Y54754D01*
X613959Y54881D01*
Y54881D01*
X613959Y54881D01*
X613878Y54891D01*
Y54911D01*
X613880Y54914D01*
X615705D01*
Y63914D01*
Y72913D01*
X607705D01*
Y67797D01*
X606667Y66759D01*
X606205Y66951D01*
Y72913D01*
X598205D01*
Y70453D01*
X591646D01*
Y72150D01*
X588308D01*
X588117Y72612D01*
X589986Y74481D01*
X629641D01*
X630421Y74636D01*
X631083Y75078D01*
Y75078D01*
X631083D01*
D01*
D01*
D01*
D01*
D01*
D01*
X631083D01*
D01*
X631083D01*
Y75078D01*
D01*
D01*
D01*
D01*
Y75078D01*
D01*
D01*
D01*
D01*
D01*
D01*
Y75078D01*
D01*
D01*
X631083D01*
D01*
D01*
D01*
D01*
D01*
X669523Y113518D01*
X705892D01*
X706672Y113673D01*
X707334Y114115D01*
X727877Y134658D01*
X728319Y135319D01*
X728474Y136100D01*
Y163979D01*
X728704Y164075D01*
X729644Y164796D01*
X730366Y165736D01*
X730819Y166831D01*
X730973Y168005D01*
X730819Y169180D01*
X730366Y170275D01*
X729644Y171215D01*
X729439Y171372D01*
X729407Y171871D01*
X730377Y172841D01*
X730819Y173502D01*
X730974Y174283D01*
Y186405D01*
X733435D01*
Y195405D01*
X724435D01*
Y186405D01*
X726896D01*
Y175127D01*
X724993Y173225D01*
X724551Y172563D01*
X724449Y172054D01*
X724165Y171936D01*
X723225Y171215D01*
X722504Y170275D01*
X722051Y169180D01*
X721896Y168005D01*
X722051Y166831D01*
X722504Y165736D01*
X723225Y164796D01*
X724165Y164075D01*
X724396Y163979D01*
Y136945D01*
X718936Y131485D01*
X718474Y131676D01*
Y163979D01*
X718704Y164075D01*
X719644Y164796D01*
X720365Y165736D01*
X720819Y166831D01*
X720973Y168005D01*
X720819Y169180D01*
X720365Y170275D01*
X719644Y171215D01*
X718704Y171936D01*
X718474Y172031D01*
Y175080D01*
X720377Y176983D01*
X720819Y177645D01*
X720974Y178425D01*
D01*
D01*
D01*
D01*
D01*
X720974D01*
D01*
D01*
D01*
D01*
Y178425D01*
X720974D01*
D01*
Y178425D01*
D01*
D01*
D01*
D01*
D01*
D01*
D01*
D01*
D01*
D01*
D01*
D01*
Y178425D01*
D01*
X720974D01*
D01*
D01*
D01*
D01*
X720974Y178425D01*
Y186879D01*
X721204Y186975D01*
X722144Y187696D01*
X722865Y188636D01*
X723319Y189731D01*
X723474Y190905D01*
X723319Y192080D01*
X722865Y193175D01*
X722144Y194115D01*
X721204Y194836D01*
X720110Y195290D01*
X718935Y195444D01*
X717760Y195290D01*
X716665Y194836D01*
X715725Y194115D01*
X715004Y193175D01*
X714551Y192080D01*
X714396Y190905D01*
X714551Y189731D01*
X715004Y188636D01*
X715725Y187696D01*
X716665Y186975D01*
X716895Y186879D01*
Y179270D01*
X714993Y177367D01*
X714551Y176705D01*
X714396Y175925D01*
Y172031D01*
X714165Y171936D01*
X713225Y171215D01*
X712504Y170275D01*
X712051Y169180D01*
X711896Y168005D01*
X712051Y166831D01*
X712504Y165736D01*
X713225Y164796D01*
X714165Y164075D01*
X714396Y163979D01*
Y132401D01*
X702591Y120596D01*
X667435D01*
X666655Y120441D01*
X666390Y120264D01*
X665993Y119999D01*
X665993Y119999D01*
X627554Y81559D01*
X587898D01*
X587118Y81404D01*
X586456Y80962D01*
X547034Y41539D01*
X523434D01*
X523434Y41539D01*
X522654Y41384D01*
X521992Y40942D01*
X521992Y40942D01*
X512647Y31596D01*
X422027D01*
X421867Y32070D01*
X422204Y32328D01*
X423012Y33382D01*
X423521Y34609D01*
X423694Y35925D01*
X423521Y37242D01*
X423012Y38469D01*
X422204Y39522D01*
X421150Y40330D01*
X419924Y40839D01*
X418607Y41012D01*
X418713Y41118D01*
X450530D01*
X451310Y41273D01*
X451972Y41715D01*
X465142Y54885D01*
X465584Y55547D01*
X465739Y56327D01*
D01*
D01*
D01*
D01*
D01*
X465739D01*
D01*
D01*
D01*
D01*
Y56327D01*
X465739D01*
D01*
Y56327D01*
D01*
D01*
D01*
D01*
D01*
D01*
D01*
D01*
D01*
D01*
D01*
D01*
Y56327D01*
D01*
X465739D01*
D01*
D01*
D01*
D01*
X465739Y56327D01*
Y59157D01*
X468200D01*
Y67157D01*
X456739D01*
Y68157D01*
X468200D01*
Y70117D01*
X470867D01*
X471648Y70273D01*
X472309Y70715D01*
X490410Y88815D01*
X490851Y89477D01*
X491007Y90257D01*
D01*
D01*
D01*
D01*
D01*
X491007D01*
D01*
D01*
D01*
D01*
Y90257D01*
X491007D01*
D01*
Y90257D01*
D01*
D01*
D01*
D01*
D01*
D01*
D01*
D01*
D01*
D01*
D01*
D01*
Y90257D01*
D01*
X491007D01*
D01*
D01*
D01*
D01*
X491007Y90257D01*
Y177297D01*
X491370Y177770D01*
X491647Y178439D01*
X491741Y179157D01*
X491647Y179875D01*
X491370Y180544D01*
X490929Y181118D01*
X490354Y181559D01*
X489685Y181836D01*
X488968Y181930D01*
X488250Y181836D01*
X487581Y181559D01*
X487006Y181118D01*
X486565Y180544D01*
X486288Y179875D01*
X486194Y179157D01*
X486288Y178439D01*
X486565Y177770D01*
X486928Y177297D01*
Y91101D01*
X470023Y74196D01*
X468200D01*
Y76157D01*
X450200D01*
Y74949D01*
X449784Y74671D01*
X449385Y74836D01*
X448668Y74930D01*
X447950Y74836D01*
X447281Y74559D01*
X446706Y74118D01*
X446266Y73544D01*
X445988Y72874D01*
X445894Y72157D01*
X445988Y71439D01*
X446266Y70770D01*
X446706Y70195D01*
X447281Y69754D01*
X447950Y69477D01*
X448668Y69383D01*
X449385Y69477D01*
X449784Y69643D01*
X450200Y69365D01*
Y68157D01*
X452661D01*
Y67157D01*
X450200D01*
Y59157D01*
X461661D01*
Y57172D01*
X449685Y45196D01*
X416167D01*
Y45657D01*
X416167D01*
Y47618D01*
X431068D01*
X431848Y47773D01*
X432510Y48215D01*
X436010Y51715D01*
X436451Y52376D01*
X436607Y53157D01*
Y75257D01*
X436451Y76037D01*
X436010Y76699D01*
X436010Y76699D01*
X436010D01*
D01*
X436010Y76699D01*
Y76699D01*
X426146Y86562D01*
Y95940D01*
X426357Y96214D01*
X426857D01*
X427181Y95792D01*
X427745Y95359D01*
X428402Y95087D01*
X429107Y94994D01*
X429812Y95087D01*
X430469Y95359D01*
X431033Y95792D01*
X431465Y96356D01*
X431738Y97013D01*
X431800Y97487D01*
X431889Y97538D01*
X432607Y97444D01*
X433325Y97538D01*
X433994Y97815D01*
X434568Y98256D01*
X435009Y98831D01*
X435286Y99500D01*
X435381Y100217D01*
X435288Y100922D01*
X435463Y101009D01*
X435752Y101128D01*
X448165Y88715D01*
D01*
X448165Y88715D01*
X448165Y88715D01*
D01*
D01*
D01*
X448165Y88715D01*
Y88715D01*
X448827Y88273D01*
X449607Y88117D01*
X450480D01*
Y86157D01*
X452940D01*
Y85157D01*
X450200D01*
Y77157D01*
X468200D01*
Y79117D01*
X472007D01*
X472787Y79273D01*
X473449Y79715D01*
X483110Y89376D01*
X483552Y90037D01*
X483707Y90817D01*
D01*
D01*
D01*
D01*
D01*
X483707D01*
D01*
D01*
D01*
D01*
Y90817D01*
X483707D01*
D01*
Y90817D01*
D01*
D01*
D01*
D01*
D01*
D01*
D01*
D01*
D01*
D01*
D01*
D01*
Y90817D01*
D01*
X483707D01*
D01*
D01*
D01*
D01*
X483707Y90817D01*
Y128697D01*
X484070Y129170D01*
X484347Y129839D01*
X484441Y130557D01*
X484347Y131275D01*
X484070Y131944D01*
X483629Y132518D01*
X483054Y132959D01*
X482385Y133236D01*
X481668Y133330D01*
X480950Y133236D01*
X480281Y132959D01*
X479706Y132518D01*
X479265Y131944D01*
X478988Y131275D01*
X478894Y130557D01*
X478988Y129839D01*
X479265Y129170D01*
X479628Y128697D01*
Y91662D01*
X471162Y83196D01*
X468200D01*
Y85157D01*
X457019D01*
Y86157D01*
X468480D01*
Y88117D01*
X472167D01*
X472948Y88273D01*
X473609Y88715D01*
X475609Y90715D01*
X476052Y91376D01*
X476207Y92157D01*
Y150497D01*
X476570Y150970D01*
X476847Y151639D01*
X476941Y152357D01*
X476847Y153075D01*
X476570Y153744D01*
X476129Y154318D01*
X475554Y154759D01*
X474886Y155036D01*
X474168Y155130D01*
X473450Y155036D01*
X472781Y154759D01*
X472206Y154318D01*
X471765Y153744D01*
X471488Y153075D01*
X471394Y152357D01*
X471488Y151639D01*
X471765Y150970D01*
X472128Y150497D01*
Y100984D01*
X471655Y100823D01*
X471429Y101118D01*
X470854Y101559D01*
X470185Y101836D01*
X469467Y101930D01*
X468855Y101850D01*
X468479Y102180D01*
Y103157D01*
X457019D01*
Y104157D01*
X468479D01*
Y112157D01*
X466019D01*
Y136197D01*
X466382Y136670D01*
X466659Y137339D01*
X466753Y138057D01*
X466659Y138775D01*
X466382Y139444D01*
X465941Y140018D01*
X465366Y140459D01*
X464697Y140736D01*
X464106Y140814D01*
X463844Y141076D01*
X463183Y141518D01*
X462402Y141673D01*
X443198D01*
X442227Y142644D01*
X442227Y142644D01*
X442072Y142799D01*
X442350Y143215D01*
X443274Y142832D01*
X444488Y142672D01*
X445702Y142832D01*
X446833Y143300D01*
X447805Y144046D01*
X448550Y145017D01*
X449018Y146148D01*
X449178Y147362D01*
X449018Y148576D01*
X448550Y149707D01*
X447805Y150679D01*
X446833Y151424D01*
X445702Y151892D01*
X444488Y152052D01*
X443274Y151892D01*
X442143Y151424D01*
X441172Y150679D01*
X440426Y149707D01*
X439958Y148576D01*
X439798Y147362D01*
X439958Y146148D01*
X440341Y145224D01*
X439925Y144947D01*
X438707Y146165D01*
Y171797D01*
X439070Y172270D01*
X439347Y172939D01*
X439441Y173657D01*
X439347Y174375D01*
X439070Y175044D01*
X438629Y175618D01*
X438054Y176059D01*
X437386Y176336D01*
X436668Y176430D01*
X435950Y176336D01*
X435281Y176059D01*
X434706Y175618D01*
X434265Y175044D01*
X433988Y174375D01*
X433894Y173657D01*
X433988Y172939D01*
X434265Y172270D01*
X434628Y171797D01*
Y145320D01*
X434628Y145320D01*
X434628D01*
X434784Y144540D01*
X435226Y143878D01*
X439344Y139760D01*
X439344Y139760D01*
X440912Y138192D01*
X440912D01*
Y138192D01*
X441573Y137750D01*
X442198Y137626D01*
X442353Y137595D01*
D01*
X442353D01*
X461267D01*
X461300Y137339D01*
X461577Y136670D01*
X461940Y136197D01*
Y112157D01*
X450480D01*
Y110916D01*
X450093Y110599D01*
X449607Y110696D01*
X439630D01*
X439409Y111144D01*
X439802Y111657D01*
X440079Y112326D01*
X440173Y113044D01*
X440079Y113761D01*
X439802Y114430D01*
X439439Y114903D01*
Y116218D01*
X439284Y116998D01*
X438842Y117659D01*
X431939Y124562D01*
Y149044D01*
X431784Y149824D01*
X431342Y150486D01*
X413939Y167888D01*
Y184833D01*
X413939Y184833D01*
X413784Y185613D01*
X413342Y186274D01*
X409915Y189701D01*
X410042Y190007D01*
X410202Y191220D01*
X410042Y192434D01*
X409574Y193565D01*
X408828Y194537D01*
X407857Y195282D01*
X406726Y195751D01*
X405512Y195911D01*
X404298Y195751D01*
X403167Y195282D01*
X402195Y194537D01*
X401450Y193565D01*
X400982Y192434D01*
X400822Y191220D01*
X400982Y190007D01*
X401450Y188875D01*
X402195Y187904D01*
X403167Y187159D01*
X404298Y186690D01*
X405512Y186530D01*
X406726Y186690D01*
X407031Y186817D01*
X408202Y185646D01*
X407873Y185270D01*
X407857Y185282D01*
X406726Y185751D01*
X405512Y185911D01*
X404298Y185751D01*
X403167Y185282D01*
X402195Y184537D01*
X401450Y183565D01*
X400982Y182434D01*
X400822Y181220D01*
X400982Y180007D01*
X401450Y178875D01*
X402195Y177904D01*
X403167Y177159D01*
X404298Y176690D01*
X405512Y176530D01*
X406726Y176690D01*
X407857Y177159D01*
X408828Y177904D01*
X409387Y178632D01*
X409861Y178472D01*
Y167044D01*
X409861Y167044D01*
X409861D01*
X410016Y166263D01*
X410458Y165602D01*
X427860Y148199D01*
Y123717D01*
X428016Y122937D01*
X428458Y122276D01*
X435360Y115373D01*
Y114903D01*
X435253Y114764D01*
X434753D01*
X434568Y115005D01*
X434400Y115134D01*
X434049Y115659D01*
X426939Y122769D01*
Y144044D01*
D01*
D01*
D01*
D01*
X426939D01*
D01*
D01*
D01*
D01*
D01*
X426939D01*
Y144044D01*
D01*
D01*
Y144044D01*
D01*
D01*
D01*
D01*
D01*
D01*
D01*
D01*
D01*
D01*
D01*
D01*
Y144044D01*
D01*
X426939D01*
D01*
D01*
D01*
D01*
D01*
D01*
D01*
X426939Y144044D01*
D01*
D01*
D01*
D01*
D01*
D01*
D01*
D01*
D01*
X426784Y144824D01*
X426607Y145089D01*
X426342Y145485D01*
X426342Y145485D01*
X413023Y158804D01*
X412361Y159246D01*
X411581Y159401D01*
X409700D01*
X409574Y159707D01*
X408828Y160679D01*
X407857Y161424D01*
X406726Y161892D01*
X405512Y162052D01*
X404298Y161892D01*
X403167Y161424D01*
X402195Y160679D01*
X401450Y159707D01*
X400982Y158576D01*
X400822Y157362D01*
X400982Y156148D01*
X401450Y155017D01*
X402195Y154046D01*
X403167Y153300D01*
X404298Y152832D01*
X405512Y152672D01*
X406726Y152832D01*
X407857Y153300D01*
X408828Y154046D01*
X409574Y155017D01*
X409700Y155323D01*
X410736D01*
X422860Y143199D01*
Y127436D01*
X422387Y127276D01*
X422204Y127514D01*
X421150Y128323D01*
X420252Y128695D01*
X420049Y128999D01*
X420049Y128999D01*
X415949Y133099D01*
X415287Y133541D01*
X414507Y133696D01*
X365480D01*
X364699Y133541D01*
X364038Y133099D01*
X360923Y129984D01*
X360507Y130157D01*
Y130157D01*
X360507Y130157D01*
X342507D01*
Y122157D01*
X348123D01*
X348661Y121619D01*
X348470Y121157D01*
X342507D01*
Y119196D01*
X331622D01*
X328646Y122172D01*
Y168558D01*
X329009Y169030D01*
X329286Y169700D01*
X329381Y170417D01*
X329286Y171135D01*
X329009Y171804D01*
X328568Y172379D01*
X327994Y172819D01*
X327325Y173097D01*
X326607Y173191D01*
X325889Y173097D01*
X325220Y172819D01*
X324646Y172379D01*
X324205Y171804D01*
X323928Y171135D01*
X323833Y170417D01*
X323928Y169700D01*
X324205Y169030D01*
X324568Y168558D01*
Y121327D01*
X324723Y120547D01*
X325165Y119885D01*
X329335Y115715D01*
X329335Y115715D01*
X329335D01*
X329335Y115715D01*
X329335D01*
X329335Y115715D01*
Y115715D01*
Y115715D01*
D01*
D01*
X329335D01*
Y115715D01*
X329997Y115273D01*
X330777Y115118D01*
X342507D01*
Y113157D01*
X360507D01*
Y115118D01*
X362823D01*
X367283Y110658D01*
X367092Y110196D01*
X360707D01*
Y112157D01*
X342707D01*
Y110196D01*
X329534D01*
X322319Y117411D01*
Y150597D01*
X322682Y151070D01*
X322959Y151739D01*
X323053Y152457D01*
X322959Y153175D01*
X322682Y153844D01*
X322241Y154418D01*
X321667Y154859D01*
X320998Y155136D01*
X320280Y155230D01*
X319562Y155136D01*
X318893Y154859D01*
X318318Y154418D01*
X317878Y153844D01*
X317600Y153175D01*
X317506Y152457D01*
X317600Y151739D01*
X317878Y151070D01*
X318240Y150597D01*
Y120487D01*
X317741Y120455D01*
X317686Y120875D01*
X317409Y121544D01*
X316968Y122118D01*
X316394Y122559D01*
X315725Y122836D01*
X315007Y122930D01*
X314289Y122836D01*
X313620Y122559D01*
X313046Y122118D01*
X312605Y121544D01*
X312328Y120875D01*
X312233Y120157D01*
X312328Y119439D01*
X312605Y118770D01*
X312968Y118297D01*
Y107657D01*
X313123Y106876D01*
X313565Y106215D01*
X322065Y97715D01*
X322065Y97715D01*
X322727Y97273D01*
Y97273D01*
X322727Y97273D01*
D01*
D01*
D01*
X322727D01*
Y97273D01*
D01*
X322727Y97273D01*
X322727Y97273D01*
X323507Y97117D01*
X323507Y97118D01*
X342607D01*
Y95157D01*
X360607D01*
Y103157D01*
X358146D01*
Y104157D01*
X360707D01*
Y106117D01*
X384855D01*
X385294Y105679D01*
X385016Y105264D01*
X384812Y105348D01*
X384107Y105441D01*
X383402Y105348D01*
X382745Y105076D01*
X382181Y104643D01*
X381749Y104079D01*
X381476Y103422D01*
X381453Y103243D01*
X377107D01*
Y104718D01*
X369107D01*
Y104169D01*
X368691Y103891D01*
X368151Y104115D01*
X367107Y104252D01*
X366063Y104115D01*
X365090Y103712D01*
X364254Y103070D01*
X363613Y102235D01*
X363210Y101262D01*
X363072Y100218D01*
X363210Y99173D01*
X363613Y98200D01*
X364254Y97365D01*
X365090Y96724D01*
X366063Y96320D01*
X367107Y96183D01*
X368151Y96320D01*
X368691Y96544D01*
X369107Y96266D01*
Y95718D01*
Y91968D01*
X377107D01*
Y95718D01*
Y97192D01*
X381453D01*
X381476Y97013D01*
X381749Y96356D01*
X382181Y95792D01*
X382745Y95359D01*
X383402Y95087D01*
X384107Y94994D01*
X384812Y95087D01*
X385469Y95359D01*
X386033Y95792D01*
X386357Y96214D01*
X386857D01*
X387181Y95792D01*
X387745Y95359D01*
X388402Y95087D01*
X389107Y94994D01*
X389812Y95087D01*
X390469Y95359D01*
X391033Y95792D01*
X391357Y96214D01*
X391857D01*
X392181Y95792D01*
X392745Y95359D01*
X393402Y95087D01*
X394107Y94994D01*
X394812Y95087D01*
X395469Y95359D01*
X396033Y95792D01*
X396357Y96214D01*
X396857D01*
X397068Y95940D01*
Y87762D01*
X392435Y83129D01*
X360668D01*
Y85157D01*
X358207D01*
Y86157D01*
X360668D01*
Y94157D01*
X342668D01*
Y92196D01*
X324688D01*
X311546Y105338D01*
Y138797D01*
X311909Y139270D01*
X312186Y139939D01*
X312281Y140657D01*
X312186Y141375D01*
X311909Y142043D01*
X311546Y142517D01*
Y171163D01*
X311391Y171944D01*
X310949Y172605D01*
X310949Y172605D01*
D01*
X310949D01*
D01*
D01*
X310949Y172605D01*
Y172605D01*
X304855Y178699D01*
X304194Y179141D01*
X303413Y179296D01*
X278036D01*
X277632Y179701D01*
X277759Y180007D01*
X277919Y181220D01*
X277759Y182434D01*
X277290Y183565D01*
X276545Y184537D01*
X275573Y185282D01*
X274442Y185751D01*
X273228Y185911D01*
X272014Y185751D01*
X270883Y185282D01*
X269912Y184537D01*
X269167Y183565D01*
X268698Y182434D01*
X268538Y181220D01*
X268698Y180007D01*
X269167Y178875D01*
X269912Y177904D01*
X270883Y177159D01*
X272014Y176690D01*
X273228Y176530D01*
X274442Y176690D01*
X274748Y176817D01*
X275750Y175815D01*
X276412Y175373D01*
X277192Y175218D01*
X302569D01*
X307468Y170319D01*
Y142517D01*
X307105Y142043D01*
X306828Y141375D01*
X306733Y140657D01*
X306828Y139939D01*
X307105Y139270D01*
X307468Y138797D01*
Y104493D01*
X307468Y104493D01*
X307468D01*
X307623Y103713D01*
X308065Y103051D01*
X322401Y88715D01*
D01*
X322401Y88715D01*
X322401Y88715D01*
D01*
D01*
D01*
X322401Y88715D01*
Y88715D01*
X323063Y88273D01*
X323843Y88117D01*
X342668D01*
Y86157D01*
X354128D01*
Y85157D01*
X342668D01*
Y84178D01*
X342292Y83848D01*
X341668Y83930D01*
X340950Y83836D01*
X340281Y83559D01*
X339706Y83118D01*
X339265Y82544D01*
X338988Y81875D01*
X338894Y81157D01*
X338988Y80439D01*
X339265Y79770D01*
X339706Y79195D01*
X340281Y78755D01*
X340950Y78478D01*
X341668Y78383D01*
X342292Y78465D01*
X342668Y78136D01*
Y77157D01*
X360668D01*
Y79051D01*
X375203D01*
X375395Y78589D01*
X371002Y74196D01*
X360668D01*
Y76157D01*
X342668D01*
Y74196D01*
X332188D01*
X299546Y106838D01*
Y123083D01*
X299546Y123084D01*
X299391Y123864D01*
X299391D01*
D01*
D01*
X299391Y123864D01*
D01*
D01*
D01*
D01*
X299391Y123864D01*
D01*
D01*
Y123864D01*
D01*
X299391D01*
D01*
D01*
X299391D01*
D01*
D01*
X298949Y124525D01*
X298949Y124525D01*
X277632Y145843D01*
X277759Y146148D01*
X277919Y147362D01*
X277759Y148576D01*
X277632Y148882D01*
X290652Y161902D01*
X291225Y161977D01*
X291894Y162255D01*
X292468Y162695D01*
X292909Y163270D01*
X293186Y163939D01*
X293281Y164657D01*
X293186Y165375D01*
X292909Y166043D01*
X292468Y166618D01*
X291894Y167059D01*
X291225Y167336D01*
X290507Y167430D01*
X289789Y167336D01*
X289120Y167059D01*
X288546Y166618D01*
X288105Y166043D01*
X287828Y165375D01*
X287748Y164765D01*
X277654Y154671D01*
X277278Y155001D01*
X277290Y155017D01*
X277759Y156148D01*
X277919Y157362D01*
X277759Y158576D01*
X277290Y159707D01*
X276545Y160679D01*
X275573Y161424D01*
X274442Y161892D01*
X273228Y162052D01*
X272014Y161892D01*
X270883Y161424D01*
X269912Y160679D01*
X269167Y159707D01*
X268698Y158576D01*
X268538Y157362D01*
X268698Y156148D01*
X269167Y155017D01*
X269912Y154046D01*
X270883Y153300D01*
X272014Y152832D01*
X273228Y152672D01*
X274442Y152832D01*
X275573Y153300D01*
X275590Y153313D01*
X275919Y152937D01*
X274748Y151766D01*
X274442Y151892D01*
X273228Y152052D01*
X272014Y151892D01*
X270883Y151424D01*
X269912Y150679D01*
X269167Y149707D01*
X268698Y148576D01*
X268538Y147362D01*
X268698Y146148D01*
X269167Y145017D01*
X269912Y144046D01*
X270883Y143300D01*
X272014Y142832D01*
X273228Y142672D01*
X274442Y142832D01*
X274748Y142959D01*
X295468Y122239D01*
Y105993D01*
X295468Y105993D01*
X295468D01*
X295623Y105213D01*
X296065Y104551D01*
X329901Y70715D01*
X329901Y70715D01*
X330298Y70450D01*
X330563Y70273D01*
X331343Y70117D01*
X336593D01*
X336814Y69669D01*
X336598Y69387D01*
X336334Y68750D01*
X341666D01*
X341402Y69387D01*
X340961Y69961D01*
X341014Y70117D01*
X342668D01*
Y68157D01*
X349230D01*
X349421Y67695D01*
X348883Y67157D01*
X342668D01*
Y59157D01*
X360668D01*
Y60301D01*
X361083Y60579D01*
X361328Y60477D01*
X362046Y60383D01*
X362764Y60477D01*
X363433Y60755D01*
X364007Y61195D01*
X364448Y61770D01*
X364725Y62439D01*
X364820Y63157D01*
X364725Y63875D01*
X364448Y64543D01*
X364007Y65118D01*
X363433Y65559D01*
X362764Y65836D01*
X362046Y65930D01*
X361328Y65836D01*
X361083Y65734D01*
X360668Y66012D01*
Y67157D01*
X355304D01*
X355112Y67619D01*
X355651Y68157D01*
X360668D01*
Y70117D01*
X371846D01*
X372627Y70273D01*
X373288Y70715D01*
X376556Y73983D01*
X377047Y73885D01*
X377178Y73570D01*
X377452Y73213D01*
X362735Y58496D01*
X338084D01*
X299276Y97304D01*
X298614Y97746D01*
X297834Y97901D01*
X266780D01*
Y98793D01*
X267155Y99123D01*
X266739Y99177D01*
X266707Y99191D01*
Y101856D01*
Y104523D01*
X266548Y104457D01*
X263030D01*
Y100456D01*
X261530D01*
Y104457D01*
X248780D01*
Y102496D01*
X245780D01*
Y104457D01*
X243256D01*
X243249Y104493D01*
X243164Y104924D01*
X242722Y105585D01*
X225806Y122501D01*
X225144Y122943D01*
X224364Y123098D01*
X187021D01*
X186842Y123997D01*
X186293Y124819D01*
X185471Y125368D01*
X184502Y125561D01*
X183778Y125417D01*
X183391Y125734D01*
Y126857D01*
X183236Y127637D01*
X182794Y128299D01*
X181901Y129192D01*
X182092Y129653D01*
X192086D01*
X192863Y129808D01*
X193522Y130248D01*
X193962Y130907D01*
X194117Y131685D01*
Y159244D01*
X193962Y160021D01*
X193957Y160028D01*
X194322Y160370D01*
X194505Y160230D01*
X195636Y159761D01*
X196850Y159601D01*
X198064Y159761D01*
X199196Y160230D01*
X200167Y160975D01*
X200912Y161946D01*
X201381Y163077D01*
X201540Y164291D01*
X201381Y165505D01*
X200912Y166636D01*
X200167Y167608D01*
X199196Y168353D01*
X198064Y168822D01*
X196850Y168981D01*
X195636Y168822D01*
X194505Y168353D01*
X193534Y167608D01*
X192789Y166636D01*
X192320Y165505D01*
X192160Y164291D01*
X192320Y163077D01*
X192789Y161946D01*
X193091Y161552D01*
X192827Y161127D01*
X192086Y161275D01*
X172401D01*
X171623Y161120D01*
X170964Y160680D01*
X170524Y160021D01*
X170370Y159244D01*
Y139381D01*
X169907Y139190D01*
X162979Y146118D01*
Y152191D01*
X163209Y152287D01*
X164149Y153008D01*
X164871Y153948D01*
X165324Y155043D01*
X165479Y156218D01*
X165324Y157392D01*
X164871Y158487D01*
X164149Y159427D01*
X163209Y160148D01*
X162115Y160602D01*
X160940Y160756D01*
X159765Y160602D01*
X158670Y160148D01*
X157730Y159427D01*
X157009Y158487D01*
X156556Y157392D01*
X156401Y156218D01*
X156556Y155043D01*
X157009Y153948D01*
X157730Y153008D01*
X158670Y152287D01*
X158901Y152191D01*
Y145274D01*
X158901Y145274D01*
X158901D01*
X158925Y145149D01*
X158485Y144913D01*
X152979Y150418D01*
Y151718D01*
X155440D01*
Y160718D01*
X146440D01*
Y151718D01*
X148901D01*
Y149574D01*
X148901Y149574D01*
X148901D01*
X149056Y148793D01*
X149498Y148132D01*
X163325Y134305D01*
X163278Y134192D01*
X163110Y133850D01*
X162544Y133925D01*
X144039Y152430D01*
Y196335D01*
D01*
D01*
D01*
D01*
X144039D01*
D01*
D01*
D01*
D01*
D01*
X144039D01*
Y196335D01*
D01*
D01*
Y196335D01*
D01*
D01*
D01*
D01*
D01*
D01*
D01*
D01*
D01*
D01*
D01*
D01*
Y196335D01*
D01*
X144039D01*
D01*
D01*
D01*
D01*
D01*
D01*
D01*
X144039Y196335D01*
D01*
D01*
D01*
D01*
D01*
D01*
D01*
D01*
X143884Y197115D01*
X143442Y197777D01*
X134277Y206942D01*
X133615Y207384D01*
X132835Y207539D01*
X123835D01*
X123618Y207496D01*
X90149D01*
Y209457D01*
D02*
G37*
G36*
X341666Y67250D02*
X339750D01*
Y65334D01*
X340387Y65598D01*
X340961Y66039D01*
X341402Y66613D01*
X341666Y67250D01*
D02*
G37*
G36*
X684999Y83366D02*
X683374Y83205D01*
X681811Y82731D01*
X680370Y81962D01*
X679108Y80925D01*
X678072Y79663D01*
X677302Y78222D01*
X676828Y76660D01*
X676667Y75034D01*
X676828Y73409D01*
X677302Y71846D01*
X678072Y70405D01*
X679108Y69143D01*
X680370Y68107D01*
X681811Y67337D01*
X683374Y66863D01*
X684999Y66703D01*
X686624Y66863D01*
X688187Y67337D01*
X689628Y68107D01*
X690890Y69143D01*
X691926Y70405D01*
X692696Y71846D01*
X693170Y73409D01*
X693330Y75034D01*
X693170Y76660D01*
X692696Y78222D01*
X691926Y79663D01*
X690890Y80925D01*
X689628Y81962D01*
X688187Y82731D01*
X686624Y83205D01*
X684999Y83366D01*
D02*
G37*
G36*
X755842Y198925D02*
X755276Y198850D01*
X754049Y198342D01*
X752995Y197534D01*
X752187Y196480D01*
X751679Y195254D01*
X751604Y194687D01*
X755842D01*
Y198925D01*
D02*
G37*
G36*
X86445Y198163D02*
X81114D01*
X81261Y197807D01*
X81098Y197563D01*
X81098D01*
Y194663D01*
X86461D01*
Y197563D01*
X86461D01*
X86298Y197807D01*
X86445Y198163D01*
D02*
G37*
G36*
X766435Y199024D02*
X765118Y198850D01*
X763891Y198342D01*
X762838Y197534D01*
X762029Y196480D01*
X761763Y195838D01*
X761264D01*
X760997Y196480D01*
X760189Y197534D01*
X759136Y198342D01*
X757909Y198850D01*
X757342Y198925D01*
Y193936D01*
Y188949D01*
X757909Y189023D01*
X759136Y189532D01*
X760189Y190340D01*
X760997Y191393D01*
X761264Y192035D01*
X761763D01*
X762029Y191393D01*
X762838Y190340D01*
X763891Y189532D01*
X765118Y189023D01*
X766435Y188850D01*
X767751Y189023D01*
X768978Y189532D01*
X770032Y190340D01*
X770840Y191393D01*
X771348Y192620D01*
X771522Y193937D01*
X771348Y195254D01*
X770840Y196480D01*
X770032Y197534D01*
X768978Y198342D01*
X767751Y198850D01*
X766435Y199024D01*
D02*
G37*
G36*
X126649Y198457D02*
X122899D01*
Y195207D01*
X126649D01*
Y198457D01*
D02*
G37*
G36*
X71750Y117650D02*
X66965D01*
Y112471D01*
X71750D01*
Y117650D01*
D02*
G37*
G36*
X78035D02*
X73250D01*
Y112471D01*
X78035D01*
Y117650D01*
D02*
G37*
G36*
X487610Y210015D02*
X463988D01*
X463210Y209860D01*
X462551Y209420D01*
X462111Y208761D01*
X461957Y207984D01*
Y188299D01*
X462111Y187521D01*
X462551Y186862D01*
X463210Y186422D01*
X463988Y186267D01*
X487610D01*
X488387Y186422D01*
X489046Y186862D01*
X489486Y187521D01*
X489641Y188299D01*
D01*
D01*
D01*
D01*
D01*
X489641D01*
D01*
D01*
D01*
D01*
Y188299D01*
X489641D01*
D01*
Y188299D01*
D01*
D01*
D01*
D01*
D01*
D01*
D01*
D01*
D01*
D01*
D01*
D01*
Y188299D01*
D01*
X489641D01*
D01*
D01*
D01*
D01*
X489641Y188299D01*
Y207984D01*
X489486Y208761D01*
X489046Y209420D01*
X488387Y209860D01*
X487610Y210015D01*
D02*
G37*
G36*
X318318D02*
X294696D01*
X293919Y209860D01*
X293260Y209420D01*
X292820Y208761D01*
X292665Y207984D01*
Y188299D01*
X292820Y187521D01*
X293260Y186862D01*
X293919Y186422D01*
X294696Y186267D01*
X318318D01*
X319095Y186422D01*
X319754Y186862D01*
X320195Y187521D01*
X320349Y188299D01*
D01*
D01*
D01*
D01*
D01*
X320349D01*
D01*
D01*
D01*
D01*
Y188299D01*
X320349D01*
D01*
Y188299D01*
D01*
D01*
D01*
D01*
D01*
D01*
D01*
D01*
D01*
D01*
D01*
D01*
Y188299D01*
D01*
X320349D01*
D01*
D01*
D01*
D01*
X320349Y188299D01*
Y207984D01*
X320195Y208761D01*
X319754Y209420D01*
X319095Y209860D01*
X318318Y210015D01*
D02*
G37*
G36*
X101050Y118831D02*
X100483Y118756D01*
X99257Y118248D01*
X98203Y117439D01*
X97395Y116386D01*
X96886Y115159D01*
X96812Y114593D01*
X101050D01*
Y118831D01*
D02*
G37*
G36*
X102550D02*
Y114593D01*
X106788D01*
X106713Y115159D01*
X106205Y116386D01*
X105397Y117439D01*
X104343Y118248D01*
X103117Y118756D01*
X102550Y118831D01*
D02*
G37*
G36*
X580500Y195911D02*
X579286Y195751D01*
X578155Y195282D01*
X577183Y194537D01*
X576438Y193566D01*
X575970Y192434D01*
X575810Y191220D01*
X575970Y190007D01*
X576438Y188875D01*
X577183Y187904D01*
X578155Y187159D01*
X579286Y186690D01*
X580500Y186530D01*
X581714Y186690D01*
X582845Y187159D01*
X583816Y187904D01*
X584562Y188875D01*
X585030Y190007D01*
X585190Y191220D01*
X585030Y192434D01*
X584562Y193566D01*
X583816Y194537D01*
X582845Y195282D01*
X581714Y195751D01*
X580500Y195911D01*
D02*
G37*
G36*
X273228Y195911D02*
X272014Y195751D01*
X270883Y195282D01*
X269912Y194537D01*
X269167Y193565D01*
X268698Y192434D01*
X268538Y191220D01*
X268698Y190007D01*
X269167Y188875D01*
X269912Y187904D01*
X270883Y187159D01*
X272014Y186690D01*
X273228Y186530D01*
X274442Y186690D01*
X275573Y187159D01*
X276545Y187904D01*
X277290Y188875D01*
X277759Y190007D01*
X277919Y191220D01*
X277759Y192434D01*
X277290Y193565D01*
X276545Y194537D01*
X275573Y195282D01*
X274442Y195751D01*
X273228Y195911D01*
D02*
G37*
G36*
X38864Y111905D02*
X26978D01*
Y104499D01*
Y97094D01*
X28449D01*
X28486Y97004D01*
X28208Y96588D01*
X15033D01*
X14754Y96533D01*
X14474Y96483D01*
X14462Y96475D01*
X14448Y96472D01*
X14212Y96314D01*
X13972Y96161D01*
X11896Y94161D01*
X11887Y94149D01*
X11875Y94141D01*
X11717Y93904D01*
X11555Y93671D01*
X11552Y93656D01*
X11544Y93644D01*
X11515Y93500D01*
X7250D01*
Y89499D01*
Y85500D01*
X11427D01*
Y79362D01*
X11051Y79032D01*
X11000Y79039D01*
X9825Y78884D01*
X8731Y78431D01*
X7791Y77710D01*
X7069Y76770D01*
X6616Y75675D01*
X6461Y74500D01*
X6616Y73325D01*
X7069Y72231D01*
X7791Y71291D01*
X8731Y70569D01*
X9825Y70116D01*
X11000Y69961D01*
X12175Y70116D01*
X12954Y70439D01*
X15004Y68464D01*
Y65626D01*
X33752D01*
Y84374D01*
X33529D01*
Y91537D01*
X35418Y93425D01*
X35978Y94156D01*
X36331Y95008D01*
X36452Y95921D01*
D01*
D01*
D01*
D01*
D01*
X36452D01*
D01*
D01*
D01*
D01*
Y95921D01*
X36452D01*
D01*
Y95921D01*
D01*
D01*
D01*
D01*
D01*
D01*
D01*
D01*
D01*
D01*
D01*
D01*
Y95921D01*
D01*
X36452D01*
D01*
D01*
D01*
D01*
X36452Y95921D01*
Y97094D01*
X38864D01*
Y104499D01*
Y111905D01*
D02*
G37*
G36*
X25478Y103750D02*
X22622D01*
Y97094D01*
X25478D01*
Y103750D01*
D02*
G37*
G36*
X83030Y193163D02*
X81098D01*
Y190264D01*
X83030D01*
Y193163D01*
D02*
G37*
G36*
X755842Y193187D02*
X751604D01*
X751679Y192620D01*
X752187Y191393D01*
X752995Y190340D01*
X754049Y189532D01*
X755276Y189023D01*
X755842Y188949D01*
Y193187D01*
D02*
G37*
G36*
X513345Y115718D02*
X511990Y115584D01*
X510687Y115189D01*
X509486Y114547D01*
X508433Y113683D01*
X507569Y112630D01*
X506927Y111430D01*
X506532Y110126D01*
X506399Y108771D01*
X506532Y107416D01*
X506927Y106113D01*
X507569Y104912D01*
X508433Y103859D01*
X509486Y102995D01*
X510687Y102353D01*
X511990Y101958D01*
X513345Y101824D01*
X514701Y101958D01*
X516004Y102353D01*
X517205Y102995D01*
X518258Y103859D01*
X519122Y104912D01*
X519764Y106113D01*
X520159Y107416D01*
X520292Y108771D01*
X520159Y110126D01*
X519764Y111430D01*
X519122Y112630D01*
X518258Y113683D01*
X517205Y114547D01*
X516004Y115189D01*
X514701Y115584D01*
X513345Y115718D01*
D02*
G37*
G36*
X25478Y111905D02*
X22622D01*
Y105250D01*
X25478D01*
Y111905D01*
D02*
G37*
G36*
X270123Y101107D02*
X268207D01*
Y99191D01*
X268844Y99455D01*
X269418Y99896D01*
X269859Y100470D01*
X270123Y101107D01*
D02*
G37*
G36*
X273975Y115718D02*
X272620Y115584D01*
X271317Y115189D01*
X270116Y114547D01*
X269063Y113683D01*
X268199Y112630D01*
X267557Y111430D01*
X267162Y110126D01*
X267028Y108771D01*
X267162Y107416D01*
X267557Y106113D01*
X268159Y104987D01*
X267986Y104737D01*
X267802Y104585D01*
X268175Y104536D01*
X268207Y104523D01*
Y102607D01*
X270123D01*
X270136Y102575D01*
X270150Y102473D01*
X270536Y102741D01*
X270568Y102753D01*
X271317Y102353D01*
X272620Y101958D01*
X273975Y101824D01*
X275331Y101958D01*
X276634Y102353D01*
X277835Y102995D01*
X278888Y103859D01*
X279751Y104912D01*
X280393Y106113D01*
X280789Y107416D01*
X280922Y108771D01*
X280789Y110126D01*
X280393Y111430D01*
X279751Y112630D01*
X278888Y113683D01*
X277835Y114547D01*
X276634Y115189D01*
X275331Y115584D01*
X273975Y115718D01*
D02*
G37*
%LPD*%
G36*
X417068Y95940D02*
Y83217D01*
X417223Y82437D01*
X417665Y81775D01*
X424889Y74551D01*
X424791Y74061D01*
X424513Y73946D01*
X423938Y73505D01*
X423498Y72930D01*
X423220Y72262D01*
X423126Y71544D01*
X423220Y70826D01*
X423498Y70157D01*
X423938Y69582D01*
X423955Y69570D01*
X424016Y69263D01*
X424458Y68602D01*
X424837Y68222D01*
X424616Y67774D01*
X424812Y67748D01*
X424857Y67730D01*
Y62616D01*
Y57506D01*
X425469Y57759D01*
X426033Y58192D01*
X426357Y58614D01*
X426857D01*
X427181Y58192D01*
X427745Y57759D01*
X428402Y57487D01*
X429107Y57394D01*
X429812Y57487D01*
X430469Y57759D01*
X431033Y58192D01*
X431465Y58756D01*
X431738Y59413D01*
X431830Y60118D01*
Y65118D01*
X431738Y65822D01*
X431465Y66479D01*
X431130Y66916D01*
X430991Y67617D01*
X430549Y68278D01*
X429884Y68943D01*
X430106Y69391D01*
X430168Y69383D01*
X430886Y69477D01*
X431555Y69754D01*
X432080Y70158D01*
X432528Y69937D01*
Y54001D01*
X430223Y51696D01*
X416167D01*
Y53657D01*
X401887D01*
X401609Y54072D01*
X401786Y54500D01*
X401881Y55217D01*
X401786Y55935D01*
X401509Y56604D01*
X401146Y57077D01*
Y58340D01*
X401357Y58614D01*
X401857D01*
X402181Y58192D01*
X402745Y57759D01*
X403402Y57487D01*
X404107Y57394D01*
X404812Y57487D01*
X405469Y57759D01*
X406033Y58192D01*
X406357Y58614D01*
X406857D01*
X407181Y58192D01*
X407745Y57759D01*
X408357Y57506D01*
Y62618D01*
X409857D01*
Y57506D01*
X410469Y57759D01*
X411033Y58192D01*
X411357Y58614D01*
X411857D01*
X412181Y58192D01*
X412745Y57759D01*
X413402Y57487D01*
X414107Y57394D01*
X414812Y57487D01*
X415469Y57759D01*
X416033Y58192D01*
X416357Y58614D01*
X416857D01*
X417181Y58192D01*
X417745Y57759D01*
X418402Y57487D01*
X419107Y57394D01*
X419812Y57487D01*
X420469Y57759D01*
X421033Y58192D01*
X421357Y58614D01*
X421857D01*
X422181Y58192D01*
X422429Y58002D01*
X422364Y57506D01*
X422113Y57402D01*
X421539Y56961D01*
X421098Y56387D01*
X420834Y55750D01*
X426166D01*
X425902Y56387D01*
X425461Y56961D01*
X424887Y57402D01*
X424805Y57436D01*
X424812Y57487D01*
X424107Y57394D01*
X423402Y57487D01*
X423357Y57506D01*
Y62616D01*
Y67729D01*
X422745Y67476D01*
X422181Y67043D01*
X421857Y66620D01*
X421357D01*
X421033Y67043D01*
X420469Y67476D01*
X419812Y67748D01*
X419107Y67841D01*
X418402Y67748D01*
X417745Y67476D01*
X417181Y67043D01*
X416857Y66620D01*
X416357D01*
X416207Y66816D01*
Y69657D01*
X416051Y70437D01*
X415610Y71099D01*
X410309Y76399D01*
X409648Y76841D01*
X408868Y76996D01*
X401223D01*
X401031Y77458D01*
X405549Y81976D01*
X405991Y82637D01*
X406146Y83417D01*
D01*
D01*
D01*
D01*
D01*
X406146D01*
D01*
D01*
D01*
D01*
Y83417D01*
X406146D01*
D01*
Y83417D01*
D01*
D01*
D01*
D01*
D01*
D01*
D01*
D01*
D01*
D01*
D01*
D01*
Y83417D01*
D01*
X406146D01*
D01*
D01*
D01*
D01*
X406146Y83417D01*
Y95940D01*
X406357Y96214D01*
X406857D01*
X407181Y95792D01*
X407745Y95359D01*
X408402Y95087D01*
X409107Y94994D01*
X409812Y95087D01*
X410469Y95359D01*
X411033Y95792D01*
X411357Y96214D01*
X411857D01*
X412181Y95792D01*
X412745Y95359D01*
X413402Y95087D01*
X414107Y94994D01*
X414812Y95087D01*
X415469Y95359D01*
X416033Y95792D01*
X416357Y96214D01*
X416857D01*
X417068Y95940D01*
D02*
G37*
G36*
X237620Y104919D02*
X237429Y104457D01*
X227780D01*
Y103231D01*
X226780D01*
X226164Y103149D01*
X225788Y103479D01*
Y105427D01*
D01*
D01*
D01*
D01*
X225788D01*
D01*
D01*
D01*
D01*
D01*
X225788D01*
Y105427D01*
D01*
D01*
Y105427D01*
D01*
D01*
D01*
D01*
D01*
D01*
D01*
D01*
D01*
D01*
D01*
D01*
Y105427D01*
D01*
X225788D01*
D01*
D01*
D01*
D01*
D01*
D01*
D01*
X225788Y105427D01*
D01*
D01*
D01*
D01*
D01*
D01*
D01*
D01*
D01*
X225633Y106208D01*
X225191Y106869D01*
X218150Y113910D01*
X218091Y113999D01*
X216085Y116005D01*
X215423Y116447D01*
X214643Y116602D01*
X194386D01*
X193936Y116903D01*
X192966Y117096D01*
X189029D01*
X188060Y116903D01*
X187238Y116354D01*
X186689Y115532D01*
X186496Y114563D01*
X186689Y113594D01*
X187094Y112988D01*
X186689Y112383D01*
X186496Y111414D01*
X186689Y110444D01*
X187094Y109839D01*
X186689Y109233D01*
X186496Y108264D01*
X186689Y107295D01*
X187094Y106689D01*
X186689Y106084D01*
X186496Y105114D01*
X186689Y104145D01*
X187094Y103540D01*
X186689Y102934D01*
X186496Y101965D01*
X186689Y100995D01*
X187094Y100390D01*
X186689Y99784D01*
X186645Y99565D01*
X188358D01*
X189029Y99432D01*
X190999D01*
Y98215D01*
X187347D01*
X186538Y99024D01*
X186641Y99544D01*
X186163Y99399D01*
X184950Y100612D01*
X184819Y100926D01*
X184379Y101501D01*
X183804Y101942D01*
X183135Y102219D01*
X182417Y102313D01*
X181700Y102219D01*
X181030Y101942D01*
X180456Y101501D01*
X180015Y100926D01*
X179738Y100257D01*
X179644Y99540D01*
X179738Y98822D01*
X180015Y98153D01*
X180456Y97578D01*
X181030Y97137D01*
X181345Y97007D01*
X184489Y93863D01*
D01*
X184489D01*
X184489Y93863D01*
X184489Y93863D01*
X184489D01*
D01*
X184489D01*
X184489Y93863D01*
Y93863D01*
X184489Y93863D01*
Y93863D01*
X185316Y93310D01*
X186291Y93116D01*
X186553Y92798D01*
X186496Y92516D01*
X186689Y91546D01*
X187238Y90725D01*
X188060Y90176D01*
X189029Y89983D01*
X192966D01*
X193936Y90176D01*
X194757Y90725D01*
X195171Y91344D01*
X195669Y91394D01*
X200918Y86145D01*
Y82165D01*
X208917D01*
Y91166D01*
Y94915D01*
X204917D01*
Y96416D01*
X208917D01*
Y99926D01*
X209397D01*
X209710Y99612D01*
Y74369D01*
X209248Y74177D01*
X206876Y76549D01*
X206215Y76991D01*
X205434Y77146D01*
X191839D01*
X191561Y77562D01*
X191759Y78039D01*
X191853Y78757D01*
X191759Y79475D01*
X191482Y80144D01*
X191041Y80718D01*
X190466Y81159D01*
X189798Y81436D01*
X189080Y81531D01*
X188362Y81436D01*
X187693Y81159D01*
Y81159D01*
X187693Y81159D01*
D01*
X187689Y81156D01*
X187262Y81416D01*
X187275Y81520D01*
X187181Y82238D01*
X186904Y82907D01*
X186808Y83031D01*
X186842Y83082D01*
X187035Y84051D01*
Y87988D01*
X186842Y88958D01*
X186293Y89779D01*
X185471Y90328D01*
X184502Y90521D01*
X183532Y90328D01*
X182927Y89924D01*
X182321Y90328D01*
X181352Y90521D01*
X180383Y90328D01*
X179777Y89924D01*
X179172Y90328D01*
X178202Y90521D01*
X177233Y90328D01*
X176628Y89924D01*
X176022Y90328D01*
X175053Y90521D01*
X174083Y90328D01*
X173478Y89924D01*
X172872Y90328D01*
X171903Y90521D01*
X170934Y90328D01*
X170328Y89924D01*
X169723Y90328D01*
X168957Y90481D01*
Y110530D01*
X169319Y111003D01*
X169597Y111672D01*
X169691Y112390D01*
X169597Y113108D01*
X169319Y113777D01*
X168879Y114351D01*
X168872Y114460D01*
X170195Y115784D01*
X170195Y115784D01*
X170638Y116446D01*
X170638Y116449D01*
X171054Y116727D01*
X171903Y116558D01*
X172872Y116751D01*
X173478Y117155D01*
X174083Y116751D01*
X175053Y116558D01*
X176022Y116751D01*
X176628Y117155D01*
X177233Y116751D01*
X178202Y116558D01*
X179172Y116751D01*
X179777Y117155D01*
X180383Y116751D01*
X181352Y116558D01*
X182321Y116751D01*
X182927Y117155D01*
X183532Y116751D01*
X184502Y116558D01*
X185471Y116751D01*
X186293Y117300D01*
X186842Y118121D01*
X187021Y119020D01*
X223519D01*
X237620Y104919D01*
D02*
G37*
G36*
X409667Y71274D02*
X409446Y70826D01*
X409825Y70776D01*
X409857Y70762D01*
Y68095D01*
X408357D01*
Y70762D01*
X407720Y70498D01*
X407146Y70057D01*
X406857Y69681D01*
X406357D01*
X406068Y70057D01*
X405494Y70498D01*
X404825Y70775D01*
X404107Y70870D01*
X403389Y70775D01*
X402720Y70498D01*
X402146Y70057D01*
X401705Y69483D01*
X401428Y68814D01*
X401333Y68096D01*
X401428Y67378D01*
X401438Y67354D01*
X401033Y67043D01*
X400469Y67476D01*
X399812Y67748D01*
X399107Y67841D01*
X398402Y67748D01*
X397745Y67476D01*
X397181Y67043D01*
X396857Y66620D01*
X396357D01*
X396146Y66895D01*
Y69629D01*
X396146Y69629D01*
X395991Y70410D01*
X395549Y71071D01*
X395549Y71071D01*
X394165Y72456D01*
X394356Y72918D01*
X408023D01*
X409667Y71274D01*
D02*
G37*
G36*
X32000Y92379D02*
Y72402D01*
X29048Y69559D01*
X16071D01*
X12957Y72559D01*
Y90559D01*
Y93059D01*
X15033Y95059D01*
X29217D01*
X32000Y92379D01*
D02*
G37*
G36*
X330112Y52958D02*
X329921Y52496D01*
X328599D01*
X305153Y75942D01*
X304491Y76384D01*
X303711Y76539D01*
X291654D01*
X291557Y77030D01*
X291722Y77098D01*
X292296Y77539D01*
X292737Y78113D01*
X293001Y78750D01*
X287669D01*
X287933Y78113D01*
X288373Y77539D01*
X288948Y77098D01*
X289113Y77030D01*
X289015Y76539D01*
X266780D01*
Y77393D01*
X267155Y77723D01*
X266739Y77777D01*
X266707Y77791D01*
Y80456D01*
Y83123D01*
X266739Y83136D01*
X267155Y83191D01*
X266780Y83521D01*
Y83961D01*
X299109D01*
X330112Y52958D01*
D02*
G37*
G36*
X334855Y55958D02*
X334663Y55496D01*
X333342D01*
X301396Y87442D01*
X300734Y87884D01*
X299954Y88039D01*
X295081D01*
X294752Y88415D01*
X294728Y88239D01*
X294715Y88207D01*
X289383D01*
X289370Y88239D01*
X289346Y88415D01*
X289017Y88039D01*
X270403D01*
X270136Y88439D01*
X270123Y88407D01*
X267456D01*
Y89156D01*
X266707D01*
Y91823D01*
X266739Y91836D01*
X267155Y91891D01*
X266780Y92221D01*
Y93823D01*
X296989D01*
X334855Y55958D01*
D02*
G37*
%LPC*%
G36*
X291085Y82166D02*
Y80250D01*
X293001D01*
X292737Y80887D01*
X292296Y81461D01*
X291722Y81902D01*
X291085Y82166D01*
D02*
G37*
G36*
X268207Y83123D02*
Y81207D01*
X270123D01*
X269859Y81844D01*
X269418Y82418D01*
X268844Y82859D01*
X268207Y83123D01*
D02*
G37*
G36*
X289585Y82166D02*
X288948Y81902D01*
X288373Y81461D01*
X287933Y80887D01*
X287669Y80250D01*
X289585D01*
Y82166D01*
D02*
G37*
G36*
X422750Y54250D02*
X420834D01*
X421098Y53613D01*
X421539Y53039D01*
X422113Y52598D01*
X422750Y52334D01*
Y54250D01*
D02*
G37*
G36*
X426166D02*
X424250D01*
Y52334D01*
X424887Y52598D01*
X425461Y53039D01*
X425902Y53613D01*
X426166Y54250D01*
D02*
G37*
G36*
X270123Y79707D02*
X268207D01*
Y77791D01*
X268844Y78055D01*
X269418Y78496D01*
X269859Y79070D01*
X270123Y79707D01*
D02*
G37*
G36*
X291299Y91623D02*
X290662Y91359D01*
X290088Y90918D01*
X289647Y90344D01*
X289383Y89707D01*
X291299D01*
Y91623D01*
D02*
G37*
G36*
X184164Y112463D02*
X182248D01*
Y110548D01*
X182885Y110811D01*
X183459Y111252D01*
X183900Y111827D01*
X184164Y112463D01*
D02*
G37*
G36*
X180748Y115879D02*
X180111Y115616D01*
X179536Y115175D01*
X179096Y114600D01*
X178832Y113963D01*
X180748D01*
Y115879D01*
D02*
G37*
G36*
X182248D02*
Y113963D01*
X184164D01*
X183900Y114600D01*
X183459Y115175D01*
X182885Y115616D01*
X182248Y115879D01*
D02*
G37*
G36*
X292799Y91623D02*
Y89707D01*
X294715D01*
X294451Y90344D01*
X294010Y90918D01*
X293436Y91359D01*
X292799Y91623D01*
D02*
G37*
G36*
X268207Y91823D02*
Y89907D01*
X270123D01*
X269859Y90544D01*
X269418Y91118D01*
X268844Y91559D01*
X268207Y91823D01*
D02*
G37*
G36*
X180748Y112463D02*
X178832D01*
X179096Y111827D01*
X179536Y111252D01*
X180111Y110811D01*
X180748Y110548D01*
Y112463D01*
D02*
G37*
%LPD*%
D12*
X726435Y171783D02*
X728935Y174283D01*
X746435Y122005D02*
Y168005D01*
X674913Y98257D02*
X722686D01*
X746435Y122005D01*
X676156Y95257D02*
X725435D01*
X756435Y126257D01*
Y168005D01*
X726435Y136100D02*
Y171783D01*
X716435Y131556D02*
Y175925D01*
X728935Y174283D02*
Y190905D01*
X718935Y178425D02*
Y190905D01*
X716435Y175925D02*
X718935Y178425D01*
X705892Y115557D02*
X726435Y136100D01*
X703435Y118557D02*
X716435Y131556D01*
X114935Y50900D02*
X128435D01*
X114935Y33400D02*
Y41900D01*
X35910Y20500D02*
X102035D01*
X114935Y33400D01*
X79280Y35500D02*
X104435D01*
X106100Y37165D01*
Y41857D01*
X62150Y29000D02*
X75007Y41857D01*
X97600D01*
X111881Y56637D02*
X116472D01*
X106100Y50857D02*
X111881Y56637D01*
X106274Y59531D02*
X113366D01*
X97600Y50857D02*
X106274Y59531D01*
X474168Y92157D02*
Y152357D01*
X118474Y93000D02*
X143368Y117894D01*
X96000Y93000D02*
X118474D01*
X125257Y71422D02*
Y95073D01*
X133546Y103361D01*
X129500Y94861D02*
X146052Y111414D01*
X129500Y69665D02*
Y94861D01*
X113366Y59531D02*
X125257Y71422D01*
X116472Y56637D02*
X129500Y69665D01*
X134780Y95687D02*
X147357Y108264D01*
X134780Y68457D02*
Y95687D01*
X143368Y117894D02*
X158921D01*
X133546Y103361D02*
X144748Y114563D01*
X155958D01*
X146052Y111414D02*
X155958D01*
X147357Y108264D02*
X155958D01*
X139780Y96187D02*
X148707Y105114D01*
X155958D01*
X149835Y68512D02*
Y97333D01*
X151317Y98815D01*
X144780Y68457D02*
Y96732D01*
X146918Y98870D02*
X150012Y101965D01*
X144780Y96732D02*
X146918Y98870D01*
X139780Y68457D02*
Y96187D01*
X150012Y101965D02*
X155958D01*
X151317Y98815D02*
X155958D01*
X226249Y71407D02*
X245855D01*
X83500Y60193D02*
Y80500D01*
X96000Y93000D01*
X79500Y62665D02*
Y83000D01*
X93000Y96500D01*
X52307Y29000D02*
X83500Y60193D01*
X52835Y36000D02*
X79500Y62665D01*
X93000Y96500D02*
X114335D01*
X95799Y197106D02*
X100650Y201957D01*
X95799Y193913D02*
Y197106D01*
X85650Y205457D02*
X123835D01*
X96799Y175914D02*
Y178299D01*
X99539Y181039D02*
Y184827D01*
X96799Y178299D02*
X99539Y181039D01*
X253280Y97555D02*
X254973Y95862D01*
X253280Y97555D02*
Y100457D01*
X249599Y90862D02*
X253280D01*
Y88182D02*
X255461Y86000D01*
X253280Y88182D02*
Y90457D01*
X303711Y74500D02*
X327754Y50457D01*
X253280Y78555D02*
Y80457D01*
X238849Y85662D02*
X241280Y83231D01*
Y100457D02*
Y103055D01*
X149780Y68457D02*
X149835Y68512D01*
X42465Y29000D02*
X49465Y36000D01*
X52835D01*
X72780Y29000D02*
X79280Y35500D01*
X32622Y23787D02*
X35910Y20500D01*
X32622Y23787D02*
Y29000D01*
X668678Y115557D02*
X705892D01*
X182100Y104500D02*
X187785Y98815D01*
X190998D01*
X488968Y90257D02*
Y179157D01*
X589141Y76520D02*
X629641D01*
X470867Y72157D02*
X488968Y90257D01*
X463700Y72157D02*
X470867D01*
X481668Y90817D02*
Y130557D01*
X463700Y81157D02*
X472007D01*
X481668Y90817D01*
X278963Y34057D02*
X347763D01*
X277720Y31057D02*
X346520D01*
X276478Y28057D02*
X345278D01*
X275235Y25057D02*
X344035D01*
X424107Y85717D02*
X434568Y75257D01*
X424107Y85717D02*
Y100217D01*
X419107Y83217D02*
Y100217D01*
Y83217D02*
X430168Y72157D01*
X309507Y104493D02*
Y171163D01*
X303413Y177257D02*
X309507Y171163D01*
X277192Y177257D02*
X303413D01*
X273228Y181220D02*
X277192Y177257D01*
X158921Y117894D02*
X161421Y115394D01*
X365880Y53457D02*
X381380Y68957D01*
X332497Y53457D02*
X365880D01*
X472167Y90157D02*
X474168Y92157D01*
X450530Y43157D02*
X463700Y56327D01*
Y63157D01*
X415838Y43157D02*
X450530D01*
X273228Y147362D02*
X290515Y164649D01*
X297507Y105993D02*
Y123084D01*
X273228Y147362D02*
X297507Y123084D01*
X429900Y123717D02*
X437400Y116218D01*
Y113044D02*
Y116218D01*
X379580Y74957D02*
X408868D01*
X379080Y71957D02*
X391780D01*
X394107Y69629D01*
X408868Y74957D02*
X414168Y69657D01*
X377607Y77917D02*
X398607D01*
X371846Y72157D02*
X377607Y77917D01*
X398607D02*
X404107Y83417D01*
X363580Y56457D02*
X379080Y71957D01*
X381380Y68957D02*
X387880D01*
X389107Y67729D01*
X337240Y56457D02*
X363580D01*
X331343Y72157D02*
X347168D01*
X297507Y105993D02*
X331343Y72157D01*
X323843Y90157D02*
X347168D01*
X309507Y104493D02*
X323843Y90157D01*
X100453Y166913D02*
X100539Y166827D01*
X411668Y108657D02*
X449607D01*
X450107Y108157D01*
X454980D01*
X433607Y106157D02*
X449607Y90157D01*
X414107Y104096D02*
X416168Y106157D01*
X433607D01*
X409107Y106096D02*
X411668Y108657D01*
X409107Y100217D02*
Y106096D01*
X454480Y108657D02*
X454980Y108157D01*
X369107Y111717D02*
X390139D01*
X394107Y107750D01*
X385700Y108157D02*
X389107Y104750D01*
X356207Y108157D02*
X385700D01*
X356007Y117157D02*
X363668D01*
X369107Y111717D01*
X449607Y90157D02*
X454980D01*
X442353Y139634D02*
X462402D01*
X440786Y141202D02*
X442353Y139634D01*
X462402Y139634D02*
X463979Y138057D01*
X509449Y191220D02*
X515650Y185020D01*
Y163563D02*
Y185020D01*
X509449Y157362D02*
X515650Y163563D01*
X592705Y49218D02*
Y59413D01*
X588965Y68500D02*
X589051Y68414D01*
X602205D01*
Y59413D02*
X611205Y68414D01*
X602965Y49500D02*
Y60154D01*
X356168Y63157D02*
X362046D01*
X399107Y55217D02*
Y62617D01*
X394107D02*
Y69629D01*
X389107Y62617D02*
Y67729D01*
X239149Y95362D02*
X241280Y93231D01*
Y80457D02*
Y83231D01*
Y80457D02*
X253280D01*
X241280Y90457D02*
Y93231D01*
Y90457D02*
X253280D01*
X241280Y100457D02*
X253280D01*
X408607Y35925D02*
X415838Y43157D01*
X388607Y35925D02*
Y43096D01*
X395168Y49657D01*
X388607Y35925D02*
Y39296D01*
X454700Y63157D02*
Y72157D01*
Y81157D02*
X454980Y81436D01*
Y90157D01*
X463979Y99157D02*
X469467D01*
X463980Y90157D02*
X472167D01*
X404107Y62617D02*
Y68096D01*
X414107Y62617D02*
X414168Y62678D01*
Y69657D01*
X448668Y72157D02*
X454700D01*
X454980Y99157D02*
Y108157D01*
X414107Y100217D02*
Y104096D01*
X341668Y81157D02*
X347168D01*
X356447Y72157D02*
X371846D01*
X347767Y63157D02*
X356607Y71997D01*
X347168Y63157D02*
X347767D01*
X356447Y72157D02*
X356607Y71997D01*
X356168Y81157D02*
Y90157D01*
X418607Y123917D02*
Y127557D01*
X414507Y131657D02*
X418607Y127557D01*
X315007Y107657D02*
Y120157D01*
X354007Y119157D02*
X356007Y117157D01*
X353507Y119157D02*
X354007D01*
X356107Y108057D02*
X356207Y108157D01*
X356107Y99157D02*
Y108057D01*
X389107Y100217D02*
Y104750D01*
X356168Y81090D02*
X393280D01*
X399107Y86917D01*
Y100217D01*
X340157Y191220D02*
X348208Y183169D01*
Y165413D02*
Y183169D01*
X340157Y157362D02*
X348208Y165413D01*
X444488Y157362D02*
X450779Y163654D01*
Y184929D01*
X444488Y191220D02*
X450779Y184929D01*
X76299Y193913D02*
Y203913D01*
X100626Y184913D02*
X113799D01*
X100539Y184827D02*
X100626Y184913D01*
X431068Y49657D02*
X434568Y53157D01*
X404107Y83417D02*
Y100217D01*
X434568Y53157D02*
Y75257D01*
X405512Y157362D02*
X411581D01*
X405512Y191220D02*
X411900Y184833D01*
Y167044D02*
Y184833D01*
X411581Y157362D02*
X424900Y144044D01*
X429107Y62617D02*
Y66836D01*
X425900Y70044D02*
X429107Y66836D01*
X425900Y70044D02*
Y71544D01*
X411900Y167044D02*
X429900Y149044D01*
X436668Y145320D02*
Y173657D01*
Y145320D02*
X440786Y141202D01*
X395168Y49657D02*
X402668D01*
X411667D02*
X431068D01*
X347007Y126157D02*
X356007Y117157D01*
Y117157D02*
Y117157D01*
X326607Y121327D02*
X330777Y117157D01*
X326607Y121327D02*
Y170417D01*
X320280Y116567D02*
X328690Y108157D01*
X320280Y116567D02*
Y152457D01*
X323507Y99157D02*
X347107D01*
X315007Y107657D02*
X323507Y99157D01*
X463979Y108157D02*
Y138057D01*
X103780Y194457D02*
X113149D01*
X356007Y126157D02*
X359980D01*
X365480Y131657D01*
X414507D01*
X429107Y100217D02*
X432607D01*
X429900Y123717D02*
Y149044D01*
X432607Y113044D02*
Y114217D01*
X424900Y121925D02*
X432607Y114217D01*
X424900Y121925D02*
Y144044D01*
X328690Y108157D02*
X347207D01*
X330777Y117157D02*
X347007D01*
X394107Y100217D02*
Y107750D01*
X155958Y95665D02*
X160258D01*
X155958Y92516D02*
X160258D01*
X163478Y90600D02*
Y112390D01*
X161421Y115394D02*
X166921D01*
X166917Y90327D02*
Y112390D01*
X273578Y22057D02*
X343078D01*
X350578Y14557D01*
X272335Y19057D02*
X341835D01*
X349335Y11557D01*
X271093Y16057D02*
X340593D01*
X348093Y8557D01*
X162454Y86020D02*
Y89577D01*
X163478Y90600D01*
X165604Y86020D02*
Y89013D01*
X166917Y90327D01*
X184502Y81520D02*
Y86020D01*
X168754Y117226D02*
Y121059D01*
X166921Y115394D02*
X168754Y117226D01*
X384107Y56500D02*
Y62617D01*
X378064Y50457D02*
X384107Y56500D01*
X327754Y50457D02*
X378064D01*
X614362Y19427D02*
Y29000D01*
X587898Y79520D02*
X628398D01*
X629641Y76520D02*
X668678Y115557D01*
X628398Y79520D02*
X667435Y118557D01*
X703435D01*
X594677Y22927D02*
Y29000D01*
X642913Y66257D02*
X674913Y98257D01*
X645913Y65014D02*
X676156Y95257D01*
X642913Y32257D02*
Y66257D01*
X645913Y30757D02*
Y65014D01*
X624205Y29000D02*
Y40218D01*
X625213Y14557D02*
X642913Y32257D01*
X626713Y11557D02*
X645913Y30757D01*
X592307Y20557D02*
X594677Y22927D01*
X612492Y17557D02*
X614362Y19427D01*
X344035Y25057D02*
X351535Y17557D01*
X345278Y28057D02*
X352778Y20557D01*
X349006Y37057D02*
X356505Y29557D01*
X347763Y34057D02*
X355263Y26557D01*
X346520Y31057D02*
X354020Y23557D01*
X351535Y17557D02*
X612492D01*
X350578Y14557D02*
X625213D01*
X349335Y11557D02*
X626713D01*
X352778Y20557D02*
X592307D01*
X528335Y27130D02*
Y29000D01*
X524762Y23557D02*
X528335Y27130D01*
X354020Y23557D02*
X524762D01*
X528705Y27130D02*
Y29057D01*
X537335Y29000D02*
X548335D01*
X548335Y29000D01*
X549121Y36500D02*
X589141Y76520D01*
X547878Y39500D02*
X587898Y79520D01*
X524677Y36500D02*
X549121D01*
X523434Y39500D02*
X547878D01*
X356505Y29557D02*
X513491D01*
X523434Y39500D01*
X514734Y26557D02*
X524677Y36500D01*
X355263Y26557D02*
X514734D01*
X348093Y8557D02*
X570835D01*
Y24057D02*
X586995Y40218D01*
X592705D01*
X80039Y175886D02*
X80099Y175827D01*
X80039Y184414D02*
X80099D01*
X80039Y175886D02*
Y184827D01*
X52264Y187000D02*
X59926D01*
X71039Y175886D01*
X80039D01*
Y175827D02*
X80099D01*
X132280Y29000D02*
Y31827D01*
X134599Y34146D01*
Y46827D01*
X139780Y35646D02*
Y45957D01*
Y35646D02*
X142122Y33304D01*
Y29000D02*
Y33304D01*
X144780Y38646D02*
Y45957D01*
Y38646D02*
X151965Y31461D01*
Y29000D02*
Y31461D01*
X149780Y40146D02*
Y45957D01*
Y40146D02*
X160926Y29000D01*
X161807D01*
X178202Y121059D02*
Y124957D01*
X181352Y79984D02*
Y86020D01*
X127440Y201957D02*
X136878Y192519D01*
X100650Y201957D02*
X127440D01*
X158568Y127668D02*
X158978D01*
X162068Y131168D02*
X162417D01*
X123835Y205500D02*
X132835D01*
X142000Y196335D01*
X171903Y80020D02*
Y86020D01*
X227061Y95362D02*
X239149D01*
X241280Y100457D02*
Y104143D01*
X184502Y121059D02*
X224364D01*
X241280Y104143D01*
X210241Y101965D02*
X211749Y100457D01*
X190998Y101965D02*
X210241D01*
X223749Y98674D02*
X227061Y95362D01*
X223749Y98674D02*
Y105427D01*
X214643Y114563D02*
X216649Y112557D01*
X216634Y112542D02*
X223749Y105427D01*
X190998Y114563D02*
X214643D01*
X190998Y111414D02*
X213520D01*
X220749Y104185D01*
X190998Y108264D02*
X212427D01*
X217749Y102942D01*
X190998Y105114D02*
X211334D01*
X214749Y101699D01*
X220749Y90662D02*
X225749Y85662D01*
X220749Y90662D02*
Y104185D01*
X225749Y85662D02*
X238849D01*
X254973Y95862D02*
X297834D01*
X337240Y56457D01*
X255461Y86000D02*
X299954D01*
X332497Y53457D01*
X245855Y71407D02*
X280205Y37057D01*
X349006D01*
X252056Y60964D02*
X278963Y34057D01*
X244599Y68407D02*
X252049Y60957D01*
X234949Y68407D02*
X244599D01*
X243370Y65407D02*
X277720Y31057D01*
X242128Y62407D02*
X276478Y28057D01*
X240885Y59407D02*
X275235Y25057D01*
X239228Y56407D02*
X273578Y22057D01*
X237985Y53407D02*
X272335Y19057D01*
X236849Y50407D02*
X239149Y48107D01*
X237036Y50114D02*
X271093Y16057D01*
X221649Y50407D02*
X236849D01*
X227862Y65407D02*
X243370D01*
X222892Y53407D02*
X237985D01*
X224134Y56407D02*
X239228D01*
X225377Y59407D02*
X240885D01*
X226620Y62407D02*
X242128D01*
X217749Y75507D02*
X221049Y72207D01*
X217749Y75507D02*
Y102942D01*
X218049Y75220D02*
X227862Y65407D01*
X214749Y74277D02*
Y101699D01*
Y74277D02*
X226620Y62407D01*
X211749Y73035D02*
Y100457D01*
Y73035D02*
X225377Y59407D01*
X202949Y69107D02*
X221649Y50407D01*
X205434Y75107D02*
X224134Y56407D01*
X204192Y72107D02*
X222892Y53407D01*
X178202Y77839D02*
Y86020D01*
X175053Y76746D02*
Y86020D01*
X168754Y78802D02*
Y86020D01*
X181352Y79984D02*
X182580Y78757D01*
X168754Y78802D02*
X178449Y69107D01*
X175053Y76746D02*
X179692Y72107D01*
X182580Y78757D02*
X189080D01*
X180934Y75107D02*
X205434D01*
X178202Y77839D02*
X180934Y75107D01*
X179692Y72107D02*
X204192D01*
X178449Y69107D02*
X202949D01*
X257335Y74500D02*
X303711D01*
X253280Y78555D02*
X257335Y74500D01*
X136878Y149768D02*
Y192519D01*
Y149768D02*
X158978Y127668D01*
X142000Y151585D02*
Y196335D01*
Y151585D02*
X162417Y131168D01*
X150940Y149574D02*
Y156218D01*
Y149574D02*
X165957Y134557D01*
Y128357D02*
Y134557D01*
Y128357D02*
X167857Y126457D01*
X176702D02*
X178202Y124957D01*
X167857Y126457D02*
X176702D01*
X168957Y130357D02*
X170357Y128957D01*
X160940Y145274D02*
X168957Y137257D01*
X160940Y145274D02*
Y156218D01*
X168957Y130357D02*
Y137257D01*
X179252Y128957D02*
X181352Y126857D01*
X170357Y128957D02*
X179252D01*
X181352Y121059D02*
Y126857D01*
X123457Y105622D02*
Y121059D01*
X114335Y96500D02*
X123457Y105622D01*
X132457Y121059D02*
X162454D01*
X22343Y187000D02*
X35783Y173559D01*
X58957D02*
X65689Y166827D01*
X35783Y173559D02*
X58957D01*
X65689Y166827D02*
X100539D01*
X717335Y190405D02*
X717835Y190905D01*
D13*
X736435Y168005D02*
Y173779D01*
X756592Y193937D01*
X757447D02*
X757492D01*
X73400Y77000D02*
Y103730D01*
X71870Y104000D02*
X72500Y104630D01*
X73400Y103730D01*
X73100Y104030D02*
X83335D01*
X72500Y77900D02*
X73400Y77000D01*
X180500Y37850D02*
Y40883D01*
X180500D02*
Y45957D01*
X171650Y29000D02*
X180500Y37850D01*
X32921Y95921D02*
Y104500D01*
X24378Y87378D02*
X32921Y95921D01*
X24378Y75000D02*
Y87378D01*
X113799Y166464D02*
Y175913D01*
X89835Y142500D02*
X113799Y166464D01*
X83335Y104030D02*
X89835Y110530D01*
Y142500D01*
X39614Y104500D02*
Y130114D01*
X53000Y104500D02*
X53500Y104000D01*
X71870D01*
X46307Y48437D02*
Y104500D01*
X612578Y49557D02*
X613878Y50857D01*
X611678Y49557D02*
X612578D01*
X604520Y39520D02*
X605413Y40413D01*
X604520Y29000D02*
Y39520D01*
D14*
X367107Y100218D02*
X383107D01*
D15*
X88599Y157099D02*
Y157827D01*
X81500Y150000D02*
X88599Y157099D01*
X180500Y45957D02*
Y46000D01*
Y45957D02*
X180500Y40883D01*
Y40667D02*
Y40883D01*
X195002Y95665D02*
X204002Y86665D01*
X186291Y95665D02*
X195002D01*
X204002Y86665D02*
X204918D01*
X201768Y98815D02*
X204918Y95666D01*
X190998Y98815D02*
X201768D01*
X169823Y46000D02*
X180500D01*
X6500Y84500D02*
Y94500D01*
X611705Y57218D02*
Y59413D01*
X610445Y55958D02*
X611705Y57218D01*
X610445Y49500D02*
Y55958D01*
X83780Y193913D02*
Y198914D01*
X104280Y175913D02*
X113799D01*
X104279Y175914D02*
X104280Y175913D01*
X262280Y80457D02*
X267457D01*
X409107Y62617D02*
Y68096D01*
X182417Y99540D02*
X186291Y95665D01*
X262280Y100457D02*
X266057D01*
X267457Y101857D01*
X262280Y90457D02*
X266157D01*
X267457Y89157D01*
X88284Y157827D02*
X88599D01*
X26228Y104500D02*
Y113468D01*
D16*
X226780Y100457D02*
X232280D01*
X226780Y90457D02*
X232280D01*
X226780Y80457D02*
X232280D01*
D17*
X52264Y187000D02*
D03*
X22343D02*
D03*
D18*
X81500Y140157D02*
D03*
Y150000D02*
D03*
X13335Y37000D02*
D03*
Y46842D02*
D03*
X73400Y67158D02*
D03*
Y77000D02*
D03*
X766435Y193937D02*
D03*
X756592D02*
D03*
X101800Y113842D02*
D03*
Y104000D02*
D03*
X418607Y123917D02*
D03*
X408607D02*
D03*
X398607D02*
D03*
X388607D02*
D03*
X378607D02*
D03*
X368607D02*
D03*
Y35925D02*
D03*
X378607D02*
D03*
X418607D02*
D03*
X408607D02*
D03*
X398607D02*
D03*
X388607D02*
D03*
D19*
X756435Y168005D02*
D03*
X746435D02*
D03*
X736435D02*
D03*
X726435D02*
D03*
X716435D02*
D03*
X706435D02*
D03*
X716435Y63675D02*
D03*
X726435D02*
D03*
X736435D02*
D03*
X756435D02*
D03*
X706435D02*
D03*
X766435D02*
D03*
X746435D02*
D03*
X87500Y50000D02*
D03*
X718935Y190905D02*
D03*
X650913Y13000D02*
D03*
X11000Y74500D02*
D03*
X160940Y156218D02*
D03*
X670913Y13000D02*
D03*
X660913D02*
D03*
X558177Y29000D02*
D03*
X548335D02*
D03*
X584835D02*
D03*
X594677D02*
D03*
X604520D02*
D03*
X614362D02*
D03*
X624205D02*
D03*
X92780D02*
D03*
X82780D02*
D03*
X72780D02*
D03*
X22780D02*
D03*
X32622D02*
D03*
X42465D02*
D03*
X52307D02*
D03*
X62150D02*
D03*
X132280D02*
D03*
X142122D02*
D03*
X151965D02*
D03*
X161807D02*
D03*
X171650D02*
D03*
X124000Y156218D02*
D03*
X196780Y29000D02*
D03*
X206622D02*
D03*
X216465D02*
D03*
X226307D02*
D03*
D20*
X766435Y168005D02*
D03*
X776435Y63675D02*
D03*
X728935Y190905D02*
D03*
X680913Y13000D02*
D03*
X150940Y156218D02*
D03*
D21*
X273228Y191220D02*
D03*
Y181220D02*
D03*
X340158Y147362D02*
D03*
Y157362D02*
D03*
Y191220D02*
D03*
Y181220D02*
D03*
X405512D02*
D03*
Y191220D02*
D03*
X215354Y174291D02*
D03*
Y164291D02*
D03*
X196850D02*
D03*
Y174291D02*
D03*
X273228Y157362D02*
D03*
Y147362D02*
D03*
X509449D02*
D03*
Y157362D02*
D03*
X444488Y191220D02*
D03*
Y181220D02*
D03*
Y147362D02*
D03*
Y157362D02*
D03*
X509449Y191220D02*
D03*
Y181220D02*
D03*
X405512Y147362D02*
D03*
Y157362D02*
D03*
X580500Y191220D02*
D03*
Y181220D02*
D03*
D22*
X267457Y80457D02*
D03*
X27457Y93559D02*
D03*
X23957Y90559D02*
D03*
X226249Y71407D02*
D03*
X181498Y113214D02*
D03*
X234949Y68407D02*
D03*
X570835Y24057D02*
D03*
X162417Y131168D02*
D03*
X166917Y112390D02*
D03*
X163478D02*
D03*
X182417Y99540D02*
D03*
X184502Y81520D02*
D03*
X189080Y78757D02*
D03*
X160458Y95865D02*
D03*
X83780Y198914D02*
D03*
X362046Y63157D02*
D03*
X399107Y55217D02*
D03*
X474168Y152357D02*
D03*
X488968Y179157D02*
D03*
X463979Y138057D02*
D03*
X469467Y99157D02*
D03*
X481668Y130557D02*
D03*
X404107Y68096D02*
D03*
X379580Y74957D02*
D03*
X448668Y72157D02*
D03*
X430168D02*
D03*
X436668Y173657D02*
D03*
X341668Y81157D02*
D03*
X290507Y164657D02*
D03*
X309507Y140657D02*
D03*
X315007Y120157D02*
D03*
X326607Y170417D02*
D03*
X320280Y152457D02*
D03*
X226780Y90457D02*
D03*
Y80457D02*
D03*
X226780Y100457D02*
D03*
X267457Y101857D02*
D03*
Y89157D02*
D03*
X437400Y113044D02*
D03*
X432607D02*
D03*
X425900Y71544D02*
D03*
X432607Y100217D02*
D03*
X409107Y68096D02*
D03*
X160458Y92316D02*
D03*
X290335Y79500D02*
D03*
X339000Y68000D02*
D03*
X423500Y55000D02*
D03*
X365000Y87500D02*
D03*
X570835Y8557D02*
D03*
X158978Y127668D02*
D03*
X128435Y50900D02*
D03*
X171903Y80020D02*
D03*
X292049Y88957D02*
D03*
X23957Y93559D02*
D03*
X27457Y90559D02*
D03*
D23*
X367107Y100218D02*
D03*
X613878Y50857D02*
D03*
D24*
X123435Y41900D02*
D03*
Y50900D02*
D03*
X114935Y41900D02*
D03*
Y50900D02*
D03*
X373107Y91218D02*
D03*
Y100218D02*
D03*
X113799Y175913D02*
D03*
Y184913D02*
D03*
X80099Y166827D02*
D03*
Y175827D02*
D03*
X180500Y54957D02*
D03*
Y45957D02*
D03*
X106100Y50857D02*
D03*
X97600D02*
D03*
X204918Y95666D02*
D03*
Y86665D02*
D03*
X611705Y59413D02*
D03*
Y68414D02*
D03*
X602205D02*
D03*
Y59413D02*
D03*
X592705Y40218D02*
D03*
Y49218D02*
D03*
X624205Y49218D02*
D03*
Y40218D02*
D03*
X97600Y41857D02*
D03*
X106100D02*
D03*
X88599Y166827D02*
D03*
Y157827D02*
D03*
D25*
X171903Y86020D02*
D03*
X175053D02*
D03*
X168754D02*
D03*
X165604Y121059D02*
D03*
X175053D02*
D03*
X171903D02*
D03*
X184502D02*
D03*
X181352D02*
D03*
X178202D02*
D03*
X168754D02*
D03*
X165604Y86020D02*
D03*
X162454D02*
D03*
Y121059D02*
D03*
X184502Y86020D02*
D03*
X181352D02*
D03*
X178202D02*
D03*
D26*
X155958Y114563D02*
D03*
Y111414D02*
D03*
Y108264D02*
D03*
Y105114D02*
D03*
Y101965D02*
D03*
Y98815D02*
D03*
X190998Y108264D02*
D03*
Y111414D02*
D03*
Y114563D02*
D03*
X155958Y95665D02*
D03*
Y92516D02*
D03*
X190998D02*
D03*
Y95665D02*
D03*
Y98815D02*
D03*
Y105114D02*
D03*
Y101965D02*
D03*
D27*
X95799Y193913D02*
D03*
X103279D02*
D03*
X99539Y184827D02*
D03*
X96799Y175914D02*
D03*
X104279D02*
D03*
X100539Y166827D02*
D03*
X76299Y193913D02*
D03*
X83780D02*
D03*
X80039Y184827D02*
D03*
X588965Y68500D02*
D03*
X585224Y59413D02*
D03*
X592705D02*
D03*
X606705Y40413D02*
D03*
X610445Y49500D02*
D03*
X602965D02*
D03*
D28*
X253280Y90457D02*
D03*
X262280D02*
D03*
X253280Y80457D02*
D03*
X262280D02*
D03*
X454980Y99157D02*
D03*
X463979D02*
D03*
X463980Y90157D02*
D03*
X454980D02*
D03*
X411667Y49657D02*
D03*
X402668D02*
D03*
X454700Y63157D02*
D03*
X463700D02*
D03*
X454700Y81157D02*
D03*
X463700D02*
D03*
X347168Y63157D02*
D03*
X356168D02*
D03*
Y81157D02*
D03*
X347168D02*
D03*
X347007Y126157D02*
D03*
X356007D02*
D03*
X463700Y72157D02*
D03*
X454700D02*
D03*
X253280Y100457D02*
D03*
X262280D02*
D03*
X76649Y205457D02*
D03*
X85650D02*
D03*
X113149Y194457D02*
D03*
X122150D02*
D03*
X232280Y80457D02*
D03*
X241280D02*
D03*
X347007Y117157D02*
D03*
X356007D02*
D03*
X347207Y108157D02*
D03*
X356207D02*
D03*
X356168Y90157D02*
D03*
X347168D02*
D03*
X356168Y72157D02*
D03*
X347168D02*
D03*
X454980Y108157D02*
D03*
X463979D02*
D03*
X347107Y99157D02*
D03*
X356107D02*
D03*
X123457Y121059D02*
D03*
X132457D02*
D03*
X232280Y90457D02*
D03*
X241280D02*
D03*
X232280Y100457D02*
D03*
X241280D02*
D03*
X6500Y89500D02*
D03*
X15500D02*
D03*
X528335Y29000D02*
D03*
X537335D02*
D03*
D29*
X429107Y62617D02*
D03*
Y100217D02*
D03*
X419107Y62617D02*
D03*
X384107D02*
D03*
X389107D02*
D03*
X394107D02*
D03*
X399107D02*
D03*
X404107D02*
D03*
X409107D02*
D03*
X414107D02*
D03*
X424107D02*
D03*
Y100217D02*
D03*
X419107D02*
D03*
X414107D02*
D03*
X409107D02*
D03*
X404107D02*
D03*
X399107D02*
D03*
X394107D02*
D03*
X389107D02*
D03*
X384107D02*
D03*
D30*
X26228Y104500D02*
D03*
X39614D02*
D03*
X32921D02*
D03*
X46307D02*
D03*
X53000D02*
D03*
D31*
X39575Y143388D02*
D03*
D32*
X31500Y49000D02*
D03*
X45870D02*
D03*
D33*
X72500Y118400D02*
D03*
Y104030D02*
D03*
D34*
X48000Y75000D02*
D03*
X24378D02*
D03*
D35*
X134780Y68457D02*
D03*
D36*
X139780D02*
D03*
X144780D02*
D03*
X149780D02*
D03*
X154780D02*
D03*
X159780D02*
D03*
X164780D02*
D03*
X169780D02*
D03*
Y45957D02*
D03*
X164780D02*
D03*
X159780D02*
D03*
X154780D02*
D03*
X149780D02*
D03*
X144780D02*
D03*
X139780D02*
D03*
X134780D02*
D03*
M02*
