%FSLAX25Y25*%
%MOIN*%
G70*
G01*
G75*
G04 Layer_Physical_Order=2*
G04 Layer_Color=16711680*
%ADD10R,0.03937X0.03937*%
%ADD11R,0.03937X0.03937*%
%ADD12C,0.01000*%
%ADD13C,0.02500*%
%ADD14C,0.04000*%
%ADD15C,0.07000*%
%ADD16C,0.06000*%
%ADD17C,0.02000*%
%ADD18C,0.03000*%
%ADD19C,0.06000*%
%ADD20C,0.05512*%
%ADD21C,0.06300*%
%ADD22C,0.07087*%
%ADD23C,0.08661*%
%ADD24R,0.06000X0.06000*%
%ADD25C,0.02500*%
%ADD26C,0.05000*%
%ADD27O,0.05906X0.01969*%
%ADD28R,0.05000X0.06000*%
%ADD29O,0.01969X0.05906*%
%ADD30R,0.02362X0.04299*%
%ADD31R,0.06000X0.05000*%
%ADD32R,0.04213X0.11811*%
%ADD33R,0.27559X0.37008*%
%ADD34R,0.08858X0.08071*%
%ADD35R,0.08071X0.08858*%
%ADD36R,0.15748X0.15748*%
%ADD37O,0.02400X0.07600*%
%ADD38R,0.02400X0.07600*%
%ADD39R,0.05709X0.02756*%
%ADD40R,0.04299X0.02362*%
%ADD41R,0.15748X0.06000*%
%ADD42R,0.11811X0.23622*%
%ADD43O,0.02400X0.07400*%
G36*
X673500Y120457D02*
X673500D01*
Y117207D01*
X678001D01*
Y116458D01*
X678750D01*
Y112457D01*
X691500D01*
Y113683D01*
X698208D01*
X698293Y113617D01*
X698962Y113340D01*
Y113340D01*
X698962Y113340D01*
X698962D01*
Y113340D01*
X698962Y113340D01*
X698962Y113340D01*
X699680Y113246D01*
X700495D01*
Y113142D01*
Y109205D01*
Y105268D01*
Y101331D01*
Y97394D01*
Y95350D01*
X700079Y95072D01*
X700068Y95077D01*
X699350Y95171D01*
X698632Y95077D01*
X697963Y94800D01*
X697388Y94359D01*
X696947Y93784D01*
X696698Y93183D01*
X696208Y93281D01*
Y98568D01*
X696053Y99348D01*
X695611Y100010D01*
X695611Y100010D01*
X695611D01*
X695611Y100010D01*
Y100010D01*
X690068Y105552D01*
X690164Y105782D01*
X690318Y106957D01*
X690164Y108132D01*
X689710Y109226D01*
X688989Y110166D01*
X688049Y110888D01*
X686954Y111341D01*
X685780Y111496D01*
X684605Y111341D01*
X683510Y110888D01*
X682570Y110166D01*
X681849Y109226D01*
X681395Y108132D01*
X681241Y106957D01*
X681395Y105782D01*
X681849Y104687D01*
X682570Y103747D01*
X683510Y103026D01*
X684605Y102573D01*
X685780Y102418D01*
X686954Y102573D01*
X687185Y102668D01*
X692130Y97723D01*
Y87344D01*
X691668Y87153D01*
X689677Y89144D01*
X689710Y89187D01*
X690164Y90282D01*
X690318Y91457D01*
X690164Y92632D01*
X689710Y93726D01*
X688989Y94666D01*
X688049Y95388D01*
X686954Y95841D01*
X685780Y95996D01*
X684605Y95841D01*
X683510Y95388D01*
X682570Y94666D01*
X681849Y93726D01*
X681395Y92632D01*
X681241Y91457D01*
X681395Y90282D01*
X681849Y89187D01*
X682570Y88247D01*
X683510Y87526D01*
X684605Y87073D01*
X685780Y86918D01*
X686093Y86959D01*
X697845Y75208D01*
X698507Y74766D01*
X699287Y74610D01*
X700495D01*
Y73772D01*
Y69835D01*
Y67716D01*
Y66878D01*
X696339D01*
X695558Y66723D01*
X694897Y66281D01*
X683412Y54796D01*
X662280D01*
Y57257D01*
Y59208D01*
X664208D01*
X665183Y59402D01*
X666010Y59955D01*
Y59955D01*
X666011D01*
Y59955D01*
Y59955D01*
Y59955D01*
X666011D01*
X668971Y62915D01*
X669524Y63742D01*
X669718Y64718D01*
X669718D01*
Y64718D01*
X669718D01*
Y64718D01*
Y64718D01*
X669718D01*
X669718Y64718D01*
Y87068D01*
X669524Y88043D01*
X668971Y88870D01*
X664582Y93259D01*
X663755Y93812D01*
X662780Y94006D01*
X660280D01*
Y95457D01*
X658329D01*
Y95957D01*
X660280D01*
Y103957D01*
X658329D01*
Y104457D01*
X660280D01*
Y112457D01*
X658329D01*
Y112957D01*
X660280D01*
Y114408D01*
X663964D01*
X664939Y114602D01*
X665766Y115154D01*
X671496Y120884D01*
X673500D01*
Y120457D01*
D02*
G37*
G36*
X777372Y214352D02*
X779245Y213783D01*
X780972Y212861D01*
X782485Y211619D01*
X783727Y210106D01*
X784650Y208379D01*
X785218Y206506D01*
X785410Y204558D01*
X785404Y204499D01*
X785370Y204331D01*
Y204328D01*
X785370Y204328D01*
X785370Y204327D01*
Y98024D01*
X785279D01*
Y98024D01*
X782029D01*
Y93523D01*
X780529D01*
Y98024D01*
X777292D01*
Y127439D01*
X777137Y128219D01*
X776695Y128881D01*
Y128881D01*
X776695D01*
X776695Y128881D01*
X776695Y128881D01*
X776695D01*
Y128881D01*
X772792Y132784D01*
Y163457D01*
X775253D01*
Y171457D01*
X773558D01*
X773280Y171872D01*
X773432Y172239D01*
X773527Y172957D01*
X773432Y173675D01*
X773155Y174344D01*
X772714Y174918D01*
X772140Y175359D01*
X771471Y175636D01*
X770753Y175731D01*
X770035Y175636D01*
X769366Y175359D01*
X768792Y174918D01*
X768351Y174344D01*
X768074Y173675D01*
X767979Y172957D01*
X768074Y172239D01*
X768225Y171872D01*
X767948Y171457D01*
X762503D01*
Y167456D01*
Y163457D01*
X768714D01*
Y131939D01*
X768714Y131939D01*
X768714D01*
X768869Y131159D01*
X769311Y130497D01*
X773214Y126594D01*
Y92301D01*
X771412Y90500D01*
X769834D01*
Y93457D01*
Y97394D01*
Y101331D01*
Y105268D01*
Y109205D01*
Y113142D01*
Y117079D01*
Y122835D01*
X761125D01*
Y117079D01*
Y113142D01*
Y109205D01*
Y105268D01*
Y101331D01*
Y97394D01*
Y95276D01*
Y95148D01*
X760663Y94957D01*
X756979Y98641D01*
Y136931D01*
X757209Y137026D01*
X758149Y137748D01*
X758871Y138688D01*
X759324Y139782D01*
X759479Y140957D01*
X759324Y142132D01*
X758871Y143227D01*
X758149Y144167D01*
X757209Y144888D01*
X756114Y145341D01*
X754940Y145496D01*
X753765Y145341D01*
X752670Y144888D01*
X751730Y144167D01*
X751009Y143227D01*
X750556Y142132D01*
X750401Y140957D01*
X750556Y139782D01*
X751009Y138688D01*
X751730Y137748D01*
X752670Y137026D01*
X752901Y136931D01*
Y97796D01*
X752901Y97796D01*
X752901D01*
X753056Y97016D01*
X753498Y96355D01*
X758897Y90956D01*
X759558Y90514D01*
X760339Y90359D01*
X761125D01*
Y89520D01*
Y87297D01*
X759429D01*
X728745Y117981D01*
X728170Y118422D01*
X727893Y118536D01*
X727501Y118699D01*
X726784Y118793D01*
X709204D01*
Y118898D01*
Y122835D01*
X701470D01*
Y132255D01*
X709356Y140142D01*
X709440Y140131D01*
X710756Y140304D01*
X711983Y140812D01*
X713037Y141621D01*
X713845Y142674D01*
X714111Y143316D01*
X714611D01*
X714877Y142674D01*
X715685Y141621D01*
X716739Y140812D01*
X717966Y140304D01*
X718532Y140229D01*
Y145217D01*
Y150206D01*
X717966Y150131D01*
X716739Y149623D01*
X715685Y148814D01*
X714877Y147761D01*
X714611Y147119D01*
X714111D01*
X713979Y147439D01*
Y155683D01*
X726253D01*
Y154457D01*
X744253D01*
Y162457D01*
X741792D01*
Y163457D01*
X744253D01*
Y171457D01*
X742558D01*
X742280Y171872D01*
X742432Y172239D01*
X742527Y172957D01*
X742432Y173675D01*
X742155Y174344D01*
X741714Y174918D01*
X741140Y175359D01*
X740471Y175636D01*
X739753Y175730D01*
X739035Y175636D01*
X738366Y175359D01*
X737792Y174918D01*
X737351Y174344D01*
X737074Y173675D01*
X736979Y172957D01*
X737074Y172239D01*
X737225Y171872D01*
X736948Y171457D01*
X731503D01*
Y167456D01*
Y163457D01*
X737714D01*
Y162457D01*
X726253D01*
Y161230D01*
X713979D01*
Y171580D01*
X713979Y171580D01*
X713824Y172755D01*
X713371Y173849D01*
X712649Y174789D01*
X694772Y192666D01*
X693832Y193387D01*
X692738Y193841D01*
X691563Y193995D01*
X687280D01*
Y197707D01*
X679280D01*
Y193995D01*
X677779D01*
Y197707D01*
X669779D01*
Y193995D01*
X666654D01*
Y197707D01*
X647906D01*
Y193995D01*
X643685D01*
Y202768D01*
X628874D01*
Y193995D01*
X623224D01*
X622050Y193841D01*
X620955Y193387D01*
X620015Y192666D01*
X619294Y191726D01*
X618840Y190631D01*
X618686Y189457D01*
X618840Y188282D01*
X619294Y187187D01*
X620015Y186247D01*
X620955Y185526D01*
X622050Y185073D01*
X623224Y184918D01*
X628874D01*
Y176146D01*
X643685D01*
Y184918D01*
X647906D01*
Y175957D01*
X652741D01*
Y172957D01*
X649030D01*
Y168956D01*
Y164957D01*
X650865D01*
X651056Y164495D01*
X641816Y155255D01*
X641440Y155304D01*
X640123Y155131D01*
X638896Y154623D01*
X637843Y153814D01*
X637035Y152761D01*
X636768Y152119D01*
X636269D01*
X636003Y152761D01*
X635194Y153814D01*
X634141Y154623D01*
X632914Y155131D01*
X632347Y155206D01*
Y150217D01*
Y145229D01*
X632914Y145304D01*
X634141Y145812D01*
X635194Y146621D01*
X636003Y147674D01*
X636269Y148316D01*
X636768D01*
X637035Y147674D01*
X637843Y146621D01*
X638896Y145812D01*
X640123Y145304D01*
X641440Y145131D01*
X642756Y145304D01*
X643877Y145768D01*
X644373Y145834D01*
X645467Y146287D01*
X646407Y147008D01*
Y147008D01*
X646408D01*
Y147008D01*
Y147008D01*
Y147008D01*
X646408D01*
X660489Y161090D01*
Y161090D01*
X660489Y161090D01*
Y161090D01*
X660489D01*
Y161090D01*
X660489D01*
Y161090D01*
Y161090D01*
X660489D01*
X660489Y161090D01*
X661210Y162030D01*
X661398Y162483D01*
X661664Y163125D01*
X661818Y164299D01*
X661818Y164299D01*
Y175957D01*
X666654D01*
Y184918D01*
X689683D01*
X704901Y169700D01*
Y147439D01*
X704526Y146534D01*
X704353Y145218D01*
X704364Y145134D01*
X695444Y136214D01*
X694883Y135483D01*
X694530Y134631D01*
X694410Y133718D01*
Y119230D01*
X691500D01*
Y120457D01*
X689379D01*
X689355Y120577D01*
X688802Y121404D01*
Y121404D01*
X688802D01*
X688802Y121404D01*
X688802Y121404D01*
X688802D01*
Y121404D01*
X684971Y125235D01*
X684949Y125250D01*
X684999Y125758D01*
X686624Y125918D01*
X688187Y126392D01*
X689628Y127162D01*
X690890Y128198D01*
X691926Y129461D01*
X692696Y130901D01*
X693170Y132464D01*
X693330Y134089D01*
X693170Y135715D01*
X692696Y137278D01*
X691926Y138718D01*
X690890Y139980D01*
X689628Y141017D01*
X688187Y141787D01*
X686624Y142261D01*
X684999Y142421D01*
X683374Y142261D01*
X681811Y141787D01*
X680370Y141017D01*
X679108Y139980D01*
X678072Y138718D01*
X677302Y137278D01*
X676828Y135715D01*
X676667Y134089D01*
X676828Y132464D01*
X677302Y130901D01*
X678072Y129461D01*
X679108Y128198D01*
X680370Y127162D01*
X681670Y126467D01*
X681549Y125982D01*
X670440D01*
X669464Y125788D01*
X668637Y125235D01*
X662908Y119506D01*
X660280D01*
Y120957D01*
X642280D01*
Y118888D01*
X641929D01*
Y118888D01*
X634630D01*
Y113526D01*
X641929D01*
X642280Y113175D01*
Y112957D01*
X653231D01*
Y112457D01*
X642280D01*
Y111814D01*
X641904Y111484D01*
X641780Y111500D01*
X641076Y111408D01*
X634630D01*
Y106045D01*
X641076D01*
X641780Y105953D01*
X641904Y105969D01*
X642280Y105640D01*
Y104457D01*
X653231D01*
Y103957D01*
X642280D01*
Y101628D01*
X641929D01*
Y101628D01*
X634630D01*
Y96266D01*
X641929D01*
Y96266D01*
X641970D01*
X642280Y95957D01*
Y95957D01*
X653231D01*
Y95457D01*
X642280D01*
Y94544D01*
X641904Y94214D01*
X641780Y94231D01*
X641152Y94148D01*
X634630D01*
Y88786D01*
X641042D01*
X641062Y88778D01*
X641780Y88683D01*
X641904Y88699D01*
X642280Y88370D01*
Y87457D01*
X644740D01*
Y86957D01*
X642280D01*
Y78957D01*
X653740D01*
Y78457D01*
X647530D01*
Y74456D01*
Y70457D01*
X660280D01*
Y78457D01*
X657819D01*
Y78957D01*
X660280D01*
Y86957D01*
X648819D01*
Y87457D01*
X660280D01*
Y88908D01*
X661724D01*
X664620Y86012D01*
Y65773D01*
X663152Y64306D01*
X662280D01*
Y66257D01*
X654280D01*
Y64306D01*
X653304Y64112D01*
X652477Y63559D01*
X651027Y62110D01*
X650612Y62387D01*
X650926Y63146D01*
X651072Y64257D01*
X650926Y65368D01*
X650497Y66403D01*
X649815Y67292D01*
X648926Y67974D01*
X647891Y68403D01*
X646780Y68550D01*
X645669Y68403D01*
X644633Y67974D01*
X643744Y67292D01*
X643062Y66403D01*
X642633Y65368D01*
X642487Y64257D01*
X642633Y63146D01*
X643062Y62111D01*
X643744Y61222D01*
X644633Y60539D01*
X645669Y60111D01*
X646780Y59964D01*
X647891Y60111D01*
X648649Y60425D01*
X648927Y60009D01*
X647387Y58469D01*
X646780Y58549D01*
X645669Y58403D01*
X644633Y57974D01*
X643744Y57292D01*
X643062Y56403D01*
X642633Y55368D01*
X642487Y54257D01*
X642633Y53146D01*
X643062Y52111D01*
X643343Y51745D01*
X643122Y51296D01*
X640437D01*
X640216Y51745D01*
X640497Y52111D01*
X640926Y53146D01*
X641072Y54257D01*
X640926Y55368D01*
X640497Y56403D01*
X639815Y57292D01*
X638926Y57974D01*
X637891Y58403D01*
X636780Y58549D01*
X635669Y58403D01*
X634633Y57974D01*
X633744Y57292D01*
X633062Y56403D01*
X632633Y55368D01*
X632487Y54257D01*
X632633Y53146D01*
X633062Y52111D01*
X633744Y51222D01*
X634633Y50539D01*
X634789Y50475D01*
X634896Y49940D01*
X635338Y49279D01*
X636358Y48258D01*
X636167Y47796D01*
X632588D01*
X629714Y50670D01*
X629746Y51169D01*
X629815Y51222D01*
X630497Y52111D01*
X630926Y53146D01*
X631072Y54257D01*
X630926Y55368D01*
X630882Y55475D01*
X633182Y57775D01*
X633624Y58437D01*
X633779Y59217D01*
Y60630D01*
X634227Y60851D01*
X634633Y60539D01*
X635669Y60111D01*
X636780Y59964D01*
X637891Y60111D01*
X638926Y60539D01*
X639815Y61222D01*
X640497Y62111D01*
X640926Y63146D01*
X641072Y64257D01*
X640926Y65368D01*
X640497Y66403D01*
X639815Y67292D01*
X638926Y67974D01*
X637891Y68403D01*
X636780Y68550D01*
X635669Y68403D01*
X634633Y67974D01*
X634227Y67663D01*
X633779Y67884D01*
Y70257D01*
X636780D01*
Y78257D01*
X624030D01*
Y74256D01*
Y70257D01*
X629701D01*
Y67945D01*
X629252Y67724D01*
X628926Y67974D01*
X627891Y68403D01*
X627530Y68451D01*
Y64256D01*
Y60063D01*
X627891Y60111D01*
X628926Y60539D01*
X629252Y60790D01*
X629701Y60569D01*
Y60062D01*
X627998Y58359D01*
X627891Y58403D01*
X626780Y58549D01*
X625669Y58403D01*
X624633Y57974D01*
X623744Y57292D01*
X623062Y56403D01*
X622633Y55368D01*
X622487Y54257D01*
X622633Y53146D01*
X623062Y52111D01*
X623744Y51222D01*
X624633Y50539D01*
X624789Y50475D01*
X624896Y49940D01*
X625338Y49279D01*
X630301Y44315D01*
X630963Y43873D01*
X631743Y43718D01*
X683993D01*
X684773Y43873D01*
X685434Y44315D01*
Y44315D01*
X685434D01*
Y44315D01*
Y44315D01*
Y44315D01*
X685434D01*
X699982Y58862D01*
X700495D01*
Y58024D01*
Y54087D01*
Y50150D01*
Y46213D01*
Y45904D01*
X709204D01*
Y46213D01*
Y50150D01*
Y54087D01*
Y58024D01*
Y61961D01*
Y65898D01*
Y69835D01*
Y73772D01*
Y77709D01*
Y81646D01*
Y85583D01*
Y89520D01*
Y93457D01*
Y97394D01*
Y101331D01*
Y105268D01*
Y109205D01*
Y113142D01*
Y113246D01*
X725635D01*
X756318Y82562D01*
X756893Y82121D01*
Y82121D01*
X756893Y82121D01*
X756893D01*
Y82121D01*
X756893Y82121D01*
X756893Y82121D01*
X757562Y81844D01*
X758280Y81750D01*
X761125D01*
Y81646D01*
Y78689D01*
X759339D01*
X758866Y79052D01*
X758197Y79329D01*
X757479Y79423D01*
X756762Y79329D01*
X756093Y79052D01*
X755518Y78611D01*
X755077Y78037D01*
X754800Y77368D01*
X754706Y76650D01*
X754800Y75932D01*
X755077Y75263D01*
X755125Y75200D01*
X754904Y74752D01*
X741613D01*
X741140Y75115D01*
X740471Y75392D01*
X739753Y75486D01*
X739035Y75392D01*
X738366Y75115D01*
X737792Y74674D01*
X737351Y74099D01*
X737074Y73431D01*
X736979Y72713D01*
X737074Y71995D01*
X737351Y71326D01*
X737792Y70751D01*
X738366Y70310D01*
X739035Y70033D01*
X739753Y69939D01*
X740471Y70033D01*
X741140Y70310D01*
X741613Y70673D01*
X761125D01*
Y69835D01*
Y65898D01*
Y61961D01*
Y58024D01*
Y54087D01*
Y50150D01*
Y46213D01*
Y45904D01*
X769834D01*
Y46213D01*
Y50150D01*
Y54087D01*
Y58024D01*
Y61961D01*
Y65898D01*
Y69835D01*
Y73772D01*
Y77709D01*
Y81646D01*
Y81750D01*
X777279D01*
Y80024D01*
X785279D01*
X785370Y79932D01*
Y40937D01*
X709204D01*
Y42276D01*
Y44404D01*
X700495D01*
Y42276D01*
Y40937D01*
X674000D01*
X673259Y40790D01*
X672630Y40370D01*
X672210Y39741D01*
X672063Y39000D01*
Y2031D01*
X12652D01*
X2031Y12652D01*
Y85500D01*
X5750D01*
Y89499D01*
Y93500D01*
X2031D01*
Y205054D01*
X2172Y206484D01*
X2743Y208365D01*
X3669Y210099D01*
X4917Y211619D01*
X6436Y212866D01*
X8170Y213793D01*
X10051Y214363D01*
X11481Y214504D01*
X775194D01*
X775194Y214504D01*
X775194Y214504D01*
X775197D01*
X775365Y214538D01*
X775424Y214544D01*
X777372Y214352D01*
D02*
G37*
%LPC*%
G36*
X78388Y66408D02*
X74150D01*
Y62169D01*
X74717Y62244D01*
X75943Y62752D01*
X76997Y63561D01*
X77805Y64614D01*
X78313Y65841D01*
X78388Y66408D01*
D02*
G37*
G36*
X72650D02*
X68412D01*
X68486Y65841D01*
X68995Y64614D01*
X69803Y63561D01*
X70857Y62752D01*
X72083Y62244D01*
X72650Y62169D01*
Y66408D01*
D02*
G37*
G36*
X626030Y63507D02*
X622586D01*
X622633Y63146D01*
X623062Y62111D01*
X623744Y61222D01*
X624633Y60539D01*
X625669Y60111D01*
X626030Y60063D01*
Y63507D01*
D02*
G37*
G36*
X102322Y87300D02*
X100403Y87149D01*
X98531Y86700D01*
X96753Y85963D01*
X95112Y84958D01*
X93648Y83708D01*
X92398Y82244D01*
X91393Y80603D01*
X90656Y78825D01*
X90207Y76953D01*
X90056Y75034D01*
X90207Y73115D01*
X90656Y71244D01*
X91393Y69465D01*
X92398Y67824D01*
X93648Y66361D01*
X95112Y65111D01*
X96753Y64105D01*
X98531Y63368D01*
X100403Y62919D01*
X102322Y62768D01*
X104241Y62919D01*
X106112Y63368D01*
X107890Y64105D01*
X109532Y65111D01*
X110995Y66361D01*
X112245Y67824D01*
X113251Y69465D01*
X113988Y71244D01*
X114437Y73115D01*
X114588Y75034D01*
X114437Y76953D01*
X113988Y78825D01*
X113251Y80603D01*
X112245Y82244D01*
X110995Y83708D01*
X109532Y84958D01*
X107890Y85963D01*
X106112Y86700D01*
X104241Y87149D01*
X102322Y87300D01*
D02*
G37*
G36*
X684999Y83366D02*
X683374Y83205D01*
X681811Y82731D01*
X680370Y81962D01*
X679108Y80925D01*
X678072Y79663D01*
X677302Y78222D01*
X676828Y76660D01*
X676667Y75034D01*
X676828Y73409D01*
X677302Y71846D01*
X678072Y70405D01*
X679108Y69143D01*
X680370Y68107D01*
X681811Y67337D01*
X683374Y66863D01*
X684999Y66703D01*
X686624Y66863D01*
X688187Y67337D01*
X689628Y68107D01*
X690890Y69143D01*
X691926Y70405D01*
X692696Y71846D01*
X693170Y73409D01*
X693330Y75034D01*
X693170Y76660D01*
X692696Y78222D01*
X691926Y79663D01*
X690890Y80925D01*
X689628Y81962D01*
X688187Y82731D01*
X686624Y83205D01*
X684999Y83366D01*
D02*
G37*
G36*
X626030Y68451D02*
X625669Y68403D01*
X624633Y67974D01*
X623744Y67292D01*
X623062Y66403D01*
X622633Y65368D01*
X622586Y65007D01*
X626030D01*
Y68451D01*
D02*
G37*
G36*
X172480Y67707D02*
X170530D01*
Y63157D01*
X172480D01*
Y67707D01*
D02*
G37*
G36*
X37429Y54535D02*
X32250D01*
Y49750D01*
X37429D01*
Y54535D01*
D02*
G37*
G36*
X194000Y49957D02*
X190250D01*
Y46707D01*
X194000D01*
Y49957D01*
D02*
G37*
G36*
X37429Y48250D02*
X32250D01*
Y43464D01*
X37429D01*
Y48250D01*
D02*
G37*
G36*
X30750D02*
X25571D01*
Y43464D01*
X30750D01*
Y48250D01*
D02*
G37*
G36*
X12585Y51831D02*
X12018Y51756D01*
X10791Y51248D01*
X9738Y50439D01*
X8929Y49386D01*
X8421Y48159D01*
X8347Y47592D01*
X12585D01*
Y51831D01*
D02*
G37*
G36*
X614541Y62150D02*
X609179D01*
Y54850D01*
X609821D01*
Y54000D01*
X608370D01*
Y45000D01*
Y43049D01*
X607870D01*
Y45000D01*
Y54000D01*
X606957D01*
X606627Y54376D01*
X606644Y54500D01*
X606951Y54850D01*
X607061D01*
Y62150D01*
X601699D01*
Y56188D01*
X601468Y55887D01*
X601191Y55218D01*
X601096Y54500D01*
X601113Y54376D01*
X600783Y54000D01*
X599870D01*
Y45000D01*
Y43049D01*
X599370D01*
Y45000D01*
Y54000D01*
X596899D01*
Y54850D01*
X597541D01*
Y62150D01*
X592179D01*
Y54850D01*
X592821D01*
Y54000D01*
X591370D01*
Y45000D01*
Y43049D01*
X590870D01*
Y45000D01*
Y54000D01*
X589957D01*
X589627Y54376D01*
X589644Y54500D01*
X589951Y54850D01*
X590061D01*
Y62150D01*
X584699D01*
Y56188D01*
X584468Y55887D01*
X584191Y55218D01*
X584096Y54500D01*
X584113Y54376D01*
X583783Y54000D01*
X582870D01*
Y45000D01*
Y43049D01*
X582370D01*
Y45000D01*
Y54000D01*
X579899D01*
Y54850D01*
X580541D01*
Y62150D01*
X575179D01*
Y54850D01*
X575821D01*
Y54000D01*
X574370D01*
Y45000D01*
Y43049D01*
X573870D01*
Y45000D01*
Y54000D01*
X573467D01*
X573137Y54376D01*
X573154Y54500D01*
X573061Y55204D01*
Y62150D01*
X567699D01*
Y55204D01*
X567606Y54500D01*
X567623Y54376D01*
X567293Y54000D01*
X565870D01*
Y45000D01*
Y36000D01*
X573870D01*
Y37951D01*
X574370D01*
Y36000D01*
X582370D01*
Y37951D01*
X582870D01*
Y36000D01*
X590870D01*
Y37951D01*
X591370D01*
Y36000D01*
X599370D01*
Y37951D01*
X599870D01*
Y36000D01*
X607870D01*
Y37951D01*
X608370D01*
Y36000D01*
X616370D01*
Y37479D01*
X616746Y37808D01*
X617370Y37726D01*
X618088Y37821D01*
X618757Y38098D01*
X619331Y38539D01*
X619772Y39113D01*
X620049Y39782D01*
X620144Y40500D01*
X620049Y41218D01*
X619772Y41887D01*
X619331Y42461D01*
X618757Y42902D01*
X618088Y43179D01*
X617370Y43274D01*
X616746Y43192D01*
X616370Y43521D01*
Y45000D01*
Y54000D01*
X613899D01*
Y54850D01*
X614541D01*
Y62150D01*
D02*
G37*
G36*
X30750Y54535D02*
X25571D01*
Y49750D01*
X30750D01*
Y54535D01*
D02*
G37*
G36*
X14085Y51831D02*
Y47592D01*
X18323D01*
X18248Y48159D01*
X17740Y49386D01*
X16932Y50439D01*
X15878Y51248D01*
X14651Y51756D01*
X14085Y51831D01*
D02*
G37*
G36*
X270123Y101107D02*
X268207D01*
Y99191D01*
X268844Y99455D01*
X269418Y99896D01*
X269859Y100470D01*
X270123Y101107D01*
D02*
G37*
G36*
X106788Y113093D02*
X96812D01*
X96886Y112526D01*
X97395Y111299D01*
X98203Y110246D01*
X99257Y109437D01*
X99899Y109171D01*
Y108671D01*
X99257Y108405D01*
X98203Y107597D01*
X97395Y106543D01*
X96886Y105316D01*
X96713Y104000D01*
X96886Y102683D01*
X97395Y101456D01*
X98203Y100403D01*
X99257Y99595D01*
X100483Y99086D01*
X101800Y98913D01*
X103117Y99086D01*
X104343Y99595D01*
X105397Y100403D01*
X106205Y101456D01*
X106713Y102683D01*
X106887Y104000D01*
X106713Y105316D01*
X106205Y106543D01*
X105397Y107597D01*
X104343Y108405D01*
X103117Y108913D01*
X104343Y109437D01*
X104343D01*
D01*
D01*
D01*
X104343Y109437D01*
X105397Y110246D01*
X106205Y111299D01*
X106713Y112526D01*
X106788Y113093D01*
D02*
G37*
G36*
X25478Y103750D02*
X22622D01*
Y97094D01*
X25478D01*
Y103750D01*
D02*
G37*
G36*
X273975Y115718D02*
X272620Y115584D01*
X271317Y115189D01*
X270116Y114547D01*
X269063Y113683D01*
X268199Y112630D01*
X267557Y111430D01*
X267162Y110126D01*
X267028Y108771D01*
X267162Y107416D01*
X267557Y106113D01*
X268159Y104987D01*
X267986Y104737D01*
X267802Y104585D01*
X268175Y104536D01*
X268207Y104523D01*
Y102607D01*
X270123D01*
X270136Y102575D01*
X270150Y102473D01*
X270536Y102741D01*
X270568Y102753D01*
X271317Y102353D01*
X272620Y101958D01*
X273975Y101824D01*
X275331Y101958D01*
X276634Y102353D01*
X277835Y102995D01*
X278888Y103859D01*
X279751Y104912D01*
X280393Y106113D01*
X280789Y107416D01*
X280922Y108771D01*
X280789Y110126D01*
X280393Y111430D01*
X279751Y112630D01*
X278888Y113683D01*
X277835Y114547D01*
X276634Y115189D01*
X275331Y115584D01*
X273975Y115718D01*
D02*
G37*
G36*
X677250Y115707D02*
X673500D01*
Y112457D01*
X677250D01*
Y115707D01*
D02*
G37*
G36*
X25478Y111905D02*
X22622D01*
Y105250D01*
X25478D01*
Y111905D01*
D02*
G37*
G36*
X513345Y115718D02*
X511990Y115584D01*
X510687Y115189D01*
X509486Y114547D01*
X508433Y113683D01*
X507569Y112630D01*
X506927Y111430D01*
X506532Y110126D01*
X506399Y108771D01*
X506532Y107416D01*
X506927Y106113D01*
X507569Y104912D01*
X508433Y103859D01*
X509486Y102995D01*
X510687Y102353D01*
X511990Y101958D01*
X513345Y101824D01*
X514701Y101958D01*
X516004Y102353D01*
X517205Y102995D01*
X518258Y103859D01*
X519122Y104912D01*
X519764Y106113D01*
X520159Y107416D01*
X520292Y108771D01*
X520159Y110126D01*
X519764Y111430D01*
X519122Y112630D01*
X518258Y113683D01*
X517205Y114547D01*
X516004Y115189D01*
X514701Y115584D01*
X513345Y115718D01*
D02*
G37*
G36*
X377107Y90468D02*
X373857D01*
Y86718D01*
X377107D01*
Y90468D01*
D02*
G37*
G36*
X646030Y73707D02*
X642280D01*
Y70457D01*
X646030D01*
Y73707D01*
D02*
G37*
G36*
X622530Y73507D02*
X618780D01*
Y70257D01*
X622530D01*
Y73507D01*
D02*
G37*
G36*
X172480Y73757D02*
X170530D01*
Y69207D01*
X172480D01*
Y73757D01*
D02*
G37*
G36*
X622530Y78257D02*
X618780D01*
Y75007D01*
X622530D01*
Y78257D01*
D02*
G37*
G36*
X372357Y90468D02*
X369107D01*
Y86718D01*
X372357D01*
Y90468D01*
D02*
G37*
G36*
X38864Y111905D02*
X26978D01*
Y104499D01*
Y97094D01*
X28449D01*
X28486Y97004D01*
X28208Y96588D01*
X15033D01*
X14754Y96533D01*
X14474Y96483D01*
X14462Y96475D01*
X14448Y96472D01*
X14212Y96314D01*
X13972Y96161D01*
X11896Y94161D01*
X11887Y94149D01*
X11875Y94141D01*
X11717Y93904D01*
X11555Y93671D01*
X11552Y93656D01*
X11544Y93644D01*
X11515Y93500D01*
X7250D01*
Y89499D01*
Y85500D01*
X11427D01*
Y79362D01*
X11051Y79032D01*
X11000Y79039D01*
X9825Y78884D01*
X8731Y78431D01*
X7791Y77710D01*
X7069Y76770D01*
X6616Y75675D01*
X6461Y74500D01*
X6616Y73325D01*
X7069Y72231D01*
X7791Y71291D01*
X8731Y70569D01*
X9825Y70116D01*
X11000Y69961D01*
X12175Y70116D01*
X12954Y70439D01*
X15004Y68464D01*
Y65626D01*
X33752D01*
Y84374D01*
X33529D01*
Y91537D01*
X35418Y93425D01*
X35978Y94156D01*
X36331Y95008D01*
X36452Y95921D01*
Y97094D01*
X38864D01*
Y104499D01*
Y111905D01*
D02*
G37*
G36*
X646030Y78457D02*
X642280D01*
Y75207D01*
X646030D01*
Y78457D01*
D02*
G37*
G36*
X769834Y44404D02*
X766229D01*
Y42276D01*
X769834D01*
Y44404D01*
D02*
G37*
G36*
X589283Y27750D02*
X585593D01*
Y24060D01*
X586017Y24116D01*
X587112Y24569D01*
X588052Y25291D01*
X588773Y26231D01*
X589227Y27325D01*
X589283Y27750D01*
D02*
G37*
G36*
X584093D02*
X580402D01*
X580458Y27325D01*
X580912Y26231D01*
X581633Y25291D01*
X582573Y24569D01*
X583668Y24116D01*
X584093Y24060D01*
Y27750D01*
D02*
G37*
G36*
X666783Y27750D02*
X663093D01*
Y24060D01*
X663517Y24116D01*
X664612Y24569D01*
X665552Y25291D01*
X666273Y26231D01*
X666727Y27325D01*
X666783Y27750D01*
D02*
G37*
G36*
X22780Y33539D02*
X21605Y33384D01*
X20510Y32931D01*
X19570Y32209D01*
X18849Y31269D01*
X18395Y30175D01*
X18241Y29000D01*
X18395Y27825D01*
X18849Y26730D01*
X19570Y25790D01*
X20510Y25069D01*
X21605Y24616D01*
X22780Y24461D01*
X23954Y24616D01*
X25049Y25069D01*
X25989Y25790D01*
X26710Y26730D01*
X27164Y27825D01*
X27318Y29000D01*
X27164Y30175D01*
X26710Y31269D01*
X25989Y32209D01*
X25049Y32931D01*
X23954Y33384D01*
X22780Y33539D01*
D02*
G37*
G36*
X92030Y28250D02*
X88340D01*
X88395Y27825D01*
X88849Y26730D01*
X89570Y25790D01*
X90510Y25069D01*
X91605Y24616D01*
X92030Y24560D01*
Y28250D01*
D02*
G37*
G36*
X196780Y33539D02*
X195605Y33384D01*
X194510Y32931D01*
X193570Y32209D01*
X192849Y31269D01*
X192395Y30175D01*
X192241Y29000D01*
X192395Y27825D01*
X192849Y26730D01*
X193570Y25790D01*
X194510Y25069D01*
X195605Y24616D01*
X196780Y24461D01*
X197954Y24616D01*
X199049Y25069D01*
X199989Y25790D01*
X200710Y26730D01*
X201164Y27825D01*
X201319Y29000D01*
X201164Y30175D01*
X200710Y31269D01*
X199989Y32209D01*
X199049Y32931D01*
X197954Y33384D01*
X196780Y33539D01*
D02*
G37*
G36*
X82780D02*
X81605Y33384D01*
X80510Y32931D01*
X79570Y32209D01*
X78849Y31269D01*
X78395Y30175D01*
X78241Y29000D01*
X78395Y27825D01*
X78849Y26730D01*
X79570Y25790D01*
X80510Y25069D01*
X81605Y24616D01*
X82780Y24461D01*
X83954Y24616D01*
X85049Y25069D01*
X85989Y25790D01*
X86710Y26730D01*
X87164Y27825D01*
X87318Y29000D01*
X87164Y30175D01*
X86710Y31269D01*
X85989Y32209D01*
X85049Y32931D01*
X83954Y33384D01*
X82780Y33539D01*
D02*
G37*
G36*
X661592Y27750D02*
X657902D01*
X657958Y27325D01*
X658412Y26231D01*
X659133Y25291D01*
X660073Y24569D01*
X661168Y24116D01*
X661592Y24060D01*
Y27750D01*
D02*
G37*
G36*
X527810Y11250D02*
X524120D01*
Y7560D01*
X524545Y7616D01*
X525639Y8069D01*
X526580Y8791D01*
X527301Y9731D01*
X527754Y10825D01*
X527810Y11250D01*
D02*
G37*
G36*
X522620D02*
X518930D01*
X518986Y10825D01*
X519439Y9731D01*
X520161Y8791D01*
X521101Y8069D01*
X522195Y7616D01*
X522620Y7560D01*
Y11250D01*
D02*
G37*
G36*
X557870Y16500D02*
X548870D01*
Y7500D01*
X557870D01*
Y16500D01*
D02*
G37*
G36*
X575000Y33039D02*
X573825Y32884D01*
X572731Y32431D01*
X571791Y31709D01*
X571069Y30769D01*
X570616Y29675D01*
X570461Y28500D01*
X570616Y27325D01*
X571069Y26231D01*
X571791Y25291D01*
X572731Y24569D01*
X573825Y24116D01*
X575000Y23961D01*
X576175Y24116D01*
X577269Y24569D01*
X578209Y25291D01*
X578931Y26231D01*
X579384Y27325D01*
X579539Y28500D01*
X579384Y29675D01*
X578931Y30769D01*
X578209Y31709D01*
X577269Y32431D01*
X576175Y32884D01*
X575000Y33039D01*
D02*
G37*
G36*
X614370D02*
X613195Y32884D01*
X612101Y32431D01*
X611161Y31709D01*
X610439Y30769D01*
X609986Y29675D01*
X609831Y28500D01*
X609986Y27325D01*
X610439Y26231D01*
X611161Y25291D01*
X612101Y24569D01*
X613195Y24116D01*
X614370Y23961D01*
X615545Y24116D01*
X616640Y24569D01*
X617580Y25291D01*
X618301Y26231D01*
X618754Y27325D01*
X618909Y28500D01*
X618754Y29675D01*
X618301Y30769D01*
X617580Y31709D01*
X616640Y32431D01*
X615545Y32884D01*
X614370Y33039D01*
D02*
G37*
G36*
X604528D02*
X603353Y32884D01*
X602258Y32431D01*
X601318Y31709D01*
X600597Y30769D01*
X600143Y29675D01*
X599989Y28500D01*
X600143Y27325D01*
X600597Y26231D01*
X601318Y25291D01*
X602258Y24569D01*
X603353Y24116D01*
X604528Y23961D01*
X605702Y24116D01*
X606797Y24569D01*
X607737Y25291D01*
X608458Y26231D01*
X608912Y27325D01*
X609066Y28500D01*
X608912Y29675D01*
X608458Y30769D01*
X607737Y31709D01*
X606797Y32431D01*
X605702Y32884D01*
X604528Y33039D01*
D02*
G37*
G36*
X594685D02*
X593510Y32884D01*
X592416Y32431D01*
X591476Y31709D01*
X590754Y30769D01*
X590301Y29675D01*
X590146Y28500D01*
X590301Y27325D01*
X590754Y26231D01*
X591476Y25291D01*
X592416Y24569D01*
X593510Y24116D01*
X594685Y23961D01*
X595860Y24116D01*
X596954Y24569D01*
X597894Y25291D01*
X598616Y26231D01*
X599069Y27325D01*
X599224Y28500D01*
X599069Y29675D01*
X598616Y30769D01*
X597894Y31709D01*
X596954Y32431D01*
X595860Y32884D01*
X594685Y33039D01*
D02*
G37*
G36*
X97220Y28250D02*
X93530D01*
Y24560D01*
X93954Y24616D01*
X95049Y25069D01*
X95989Y25790D01*
X96710Y26730D01*
X97164Y27825D01*
X97220Y28250D01*
D02*
G37*
G36*
X227057Y33440D02*
Y29750D01*
X230747D01*
X230691Y30175D01*
X230238Y31269D01*
X229517Y32209D01*
X228577Y32931D01*
X227482Y33384D01*
X227057Y33440D01*
D02*
G37*
G36*
X225557D02*
X225132Y33384D01*
X224038Y32931D01*
X223098Y32209D01*
X222376Y31269D01*
X221923Y30175D01*
X221867Y29750D01*
X225557D01*
Y33440D01*
D02*
G37*
G36*
X93530D02*
Y29750D01*
X97220D01*
X97164Y30175D01*
X96710Y31269D01*
X95989Y32209D01*
X95049Y32931D01*
X93954Y33384D01*
X93530Y33440D01*
D02*
G37*
G36*
X18323Y46092D02*
X8347D01*
X8421Y45526D01*
X8929Y44299D01*
X9738Y43246D01*
X10791Y42437D01*
X11433Y42171D01*
Y41671D01*
X10791Y41405D01*
X9738Y40597D01*
X8929Y39543D01*
X8421Y38317D01*
X8248Y37000D01*
X8421Y35683D01*
X8929Y34457D01*
X9738Y33403D01*
X10791Y32595D01*
X12018Y32087D01*
X13335Y31913D01*
X14651Y32087D01*
X15878Y32595D01*
X16932Y33403D01*
X17740Y34457D01*
X18248Y35683D01*
X18422Y37000D01*
X18248Y38317D01*
X17740Y39543D01*
X16932Y40597D01*
X15878Y41405D01*
X14651Y41914D01*
X15878Y42437D01*
X15878D01*
D01*
D01*
D01*
X15878Y42437D01*
X16932Y43246D01*
X17740Y44299D01*
X18248Y45526D01*
X18323Y46092D01*
D02*
G37*
G36*
X764729Y44404D02*
X761125D01*
Y42276D01*
X764729D01*
Y44404D01*
D02*
G37*
G36*
X194000Y45207D02*
X190250D01*
Y41957D01*
X194000D01*
Y45207D01*
D02*
G37*
G36*
X485393Y72621D02*
X484612Y72466D01*
X483951Y72024D01*
X483509Y71362D01*
X483353Y70582D01*
Y43023D01*
X483509Y42243D01*
X483951Y41581D01*
X484612Y41139D01*
X485393Y40984D01*
X485433Y40992D01*
X505078D01*
X505855Y41146D01*
X506514Y41587D01*
X506954Y42246D01*
X507109Y43023D01*
Y70582D01*
X506954Y71359D01*
X506514Y72018D01*
X505855Y72458D01*
X505078Y72613D01*
X485433D01*
X485393Y72621D01*
D02*
G37*
G36*
X92030Y33440D02*
X91605Y33384D01*
X90510Y32931D01*
X89570Y32209D01*
X88849Y31269D01*
X88395Y30175D01*
X88340Y29750D01*
X92030D01*
Y33440D01*
D02*
G37*
G36*
X118000Y38039D02*
X116825Y37884D01*
X115731Y37431D01*
X114791Y36709D01*
X114069Y35770D01*
X113616Y34675D01*
X113461Y33500D01*
X113616Y32325D01*
X114069Y31231D01*
X114791Y30291D01*
X115731Y29569D01*
X116825Y29116D01*
X118000Y28961D01*
X119175Y29116D01*
X120270Y29569D01*
X121210Y30291D01*
X121931Y31231D01*
X122384Y32325D01*
X122539Y33500D01*
X122384Y34675D01*
X121931Y35770D01*
X121210Y36709D01*
X120270Y37431D01*
X119175Y37884D01*
X118000Y38039D01*
D02*
G37*
G36*
X230747Y28250D02*
X227057D01*
Y24560D01*
X227482Y24616D01*
X228577Y25069D01*
X229517Y25790D01*
X230238Y26730D01*
X230691Y27825D01*
X230747Y28250D01*
D02*
G37*
G36*
X225557D02*
X221867D01*
X221923Y27825D01*
X222376Y26730D01*
X223098Y25790D01*
X224038Y25069D01*
X225132Y24616D01*
X225557Y24560D01*
Y28250D01*
D02*
G37*
G36*
X661592Y32940D02*
X661168Y32884D01*
X660073Y32431D01*
X659133Y31709D01*
X658412Y30769D01*
X657958Y29675D01*
X657902Y29250D01*
X661592D01*
Y32940D01*
D02*
G37*
G36*
X585593Y32940D02*
Y29250D01*
X589283D01*
X589227Y29675D01*
X588773Y30769D01*
X588052Y31709D01*
X587112Y32431D01*
X586017Y32884D01*
X585593Y32940D01*
D02*
G37*
G36*
X584093D02*
X583668Y32884D01*
X582573Y32431D01*
X581633Y31709D01*
X580912Y30769D01*
X580458Y29675D01*
X580402Y29250D01*
X584093D01*
Y32940D01*
D02*
G37*
G36*
X663093Y32940D02*
Y29250D01*
X666783D01*
X666727Y29675D01*
X666273Y30769D01*
X665552Y31709D01*
X664612Y32431D01*
X663517Y32884D01*
X663093Y32940D01*
D02*
G37*
G36*
X215354Y178981D02*
X214140Y178822D01*
X213009Y178353D01*
X212038Y177608D01*
X211293Y176636D01*
X210824Y175505D01*
X210664Y174291D01*
X210824Y173077D01*
X211293Y171946D01*
X212038Y170975D01*
X213009Y170230D01*
X214140Y169761D01*
X215354Y169601D01*
X216568Y169761D01*
X217699Y170230D01*
X218671Y170975D01*
X219416Y171946D01*
X219885Y173077D01*
X220044Y174291D01*
X219885Y175505D01*
X219416Y176636D01*
X218671Y177608D01*
X217699Y178353D01*
X216568Y178822D01*
X215354Y178981D01*
D02*
G37*
G36*
X647530Y172957D02*
X643780D01*
Y169707D01*
X647530D01*
Y172957D01*
D02*
G37*
G36*
X52264Y192859D02*
X51121Y192746D01*
X50022Y192413D01*
X49009Y191872D01*
X48121Y191143D01*
X47392Y190255D01*
X46851Y189242D01*
X46517Y188143D01*
X46405Y187000D01*
X46517Y185857D01*
X46851Y184758D01*
X47392Y183745D01*
X48121Y182857D01*
X49009Y182129D01*
X50022Y181587D01*
X51121Y181254D01*
X52264Y181141D01*
X53407Y181254D01*
X54506Y181587D01*
X55519Y182129D01*
X56407Y182857D01*
X57135Y183745D01*
X57677Y184758D01*
X57738Y184961D01*
X59081D01*
X69598Y174445D01*
X70259Y174003D01*
X71039Y173847D01*
X71039Y173847D01*
X76099D01*
Y171327D01*
Y168866D01*
X66534D01*
X60399Y175001D01*
X59737Y175443D01*
X58957Y175598D01*
X36628D01*
X27656Y184571D01*
X27755Y184758D01*
X28089Y185857D01*
X28201Y187000D01*
X28089Y188143D01*
X27755Y189242D01*
X27214Y190255D01*
X26485Y191143D01*
X25598Y191872D01*
X24585Y192413D01*
X23485Y192746D01*
X22343Y192859D01*
X21200Y192746D01*
X20100Y192413D01*
X19087Y191872D01*
X18200Y191143D01*
X17471Y190255D01*
X16930Y189242D01*
X16596Y188143D01*
X16484Y187000D01*
X16596Y185857D01*
X16930Y184758D01*
X17471Y183745D01*
X18200Y182857D01*
X19087Y182129D01*
X20100Y181587D01*
X21200Y181254D01*
X22343Y181141D01*
X23485Y181254D01*
X24585Y181587D01*
X24772Y181687D01*
X34341Y172117D01*
X34341Y172117D01*
X34341D01*
X34341D01*
Y172117D01*
D01*
X34341D01*
D01*
D01*
D01*
X34341Y172117D01*
Y172117D01*
X35003Y171675D01*
X35783Y171520D01*
X58112D01*
X64247Y165385D01*
X64909Y164943D01*
X65689Y164788D01*
X76099D01*
Y162327D01*
X84099D01*
Y164788D01*
X84599D01*
Y162327D01*
Y156704D01*
X82810Y154914D01*
X81500Y155087D01*
X80183Y154913D01*
X78957Y154405D01*
X77903Y153597D01*
X77095Y152543D01*
X76587Y151317D01*
X76413Y150000D01*
X76587Y148683D01*
X77095Y147457D01*
X77903Y146403D01*
X78957Y145595D01*
X79599Y145329D01*
Y144829D01*
X78957Y144563D01*
X77903Y143754D01*
X77095Y142701D01*
X76587Y141474D01*
X76512Y140908D01*
X81501D01*
Y140158D01*
X82250D01*
Y135169D01*
X82816Y135244D01*
X84043Y135752D01*
X85097Y136560D01*
X85831Y137517D01*
X86305Y137357D01*
Y111992D01*
X81872Y107560D01*
X78035D01*
Y109959D01*
X66965D01*
Y107530D01*
X56606D01*
Y111905D01*
X40364D01*
Y104499D01*
Y97094D01*
X42777D01*
Y84374D01*
X38626D01*
Y65626D01*
X42777D01*
Y54535D01*
X39941D01*
Y43464D01*
X51799D01*
Y54535D01*
X49837D01*
Y65626D01*
X57374D01*
Y84374D01*
X49837D01*
Y97094D01*
X56606D01*
Y100470D01*
X66965D01*
Y98101D01*
X69870D01*
Y80648D01*
X69803Y80597D01*
X68995Y79543D01*
X68486Y78317D01*
X68313Y77000D01*
X68486Y75683D01*
X68995Y74457D01*
X69803Y73403D01*
X70857Y72595D01*
X71499Y72329D01*
Y71829D01*
X70857Y71563D01*
X69803Y70754D01*
X68995Y69701D01*
X68486Y68474D01*
X68412Y67908D01*
X78388D01*
X78313Y68474D01*
X77805Y69701D01*
X76997Y70754D01*
X75943Y71563D01*
X74717Y72071D01*
X75943Y72595D01*
X75943D01*
D01*
D01*
D01*
X75943Y72595D01*
X76997Y73403D01*
X77805Y74457D01*
X78313Y75683D01*
X78487Y77000D01*
X78313Y78317D01*
X77805Y79543D01*
X76997Y80597D01*
X76930Y80648D01*
Y98101D01*
X78035D01*
Y100500D01*
X83335D01*
X84249Y100620D01*
X85100Y100973D01*
X85831Y101534D01*
X92331Y108034D01*
X92892Y108765D01*
X93245Y109616D01*
X93365Y110530D01*
D01*
D01*
D01*
D01*
D01*
X93365D01*
D01*
D01*
D01*
D01*
Y110530D01*
X93365D01*
D01*
Y110530D01*
D01*
D01*
D01*
D01*
D01*
D01*
D01*
D01*
D01*
D01*
D01*
D01*
Y110530D01*
D01*
X93365D01*
D01*
D01*
D01*
D01*
X93365Y110530D01*
Y141038D01*
X116295Y163968D01*
X116856Y164699D01*
X117209Y165551D01*
X117329Y166464D01*
Y171413D01*
X117799D01*
Y180413D01*
Y189413D01*
X109799D01*
Y186953D01*
X102220D01*
Y188477D01*
X96858D01*
Y181242D01*
X95357Y179741D01*
X95238Y179563D01*
X94118D01*
Y172264D01*
X99480D01*
Y178096D01*
X100981Y179597D01*
X101423Y180259D01*
X101578Y181039D01*
Y181177D01*
X102220D01*
Y182874D01*
X109799D01*
Y180413D01*
Y178462D01*
X106961D01*
Y179563D01*
X101598D01*
Y172264D01*
X106961D01*
Y173364D01*
X109799D01*
Y171413D01*
X110269D01*
Y167927D01*
X87339Y144996D01*
X86778Y144265D01*
X86425Y143414D01*
X86356Y142887D01*
X86274Y142853D01*
X85871Y142746D01*
X85097Y143754D01*
X84043Y144563D01*
X82816Y145071D01*
X84043Y145595D01*
X84043D01*
D01*
D01*
D01*
X84043Y145595D01*
X85097Y146403D01*
X85905Y147457D01*
X86414Y148683D01*
X86587Y150000D01*
X86414Y151310D01*
X88432Y153327D01*
X92599D01*
Y162327D01*
Y164788D01*
X97858D01*
Y163177D01*
X103220D01*
Y170476D01*
X97858D01*
Y168866D01*
X92599D01*
Y171327D01*
X84599D01*
Y168866D01*
X84099D01*
Y171327D01*
Y180327D01*
X82078D01*
Y181177D01*
X82720D01*
Y188476D01*
X77358D01*
Y181177D01*
X78000D01*
Y180327D01*
X76099D01*
Y177926D01*
X71884D01*
X61368Y188442D01*
X60706Y188884D01*
X59926Y189039D01*
X57738D01*
X57677Y189242D01*
X57135Y190255D01*
X56407Y191143D01*
X55519Y191872D01*
X54506Y192413D01*
X53407Y192746D01*
X52264Y192859D01*
D02*
G37*
G36*
X196850Y178981D02*
X195636Y178822D01*
X194505Y178353D01*
X193534Y177608D01*
X192789Y176636D01*
X192320Y175505D01*
X192160Y174291D01*
X192320Y173077D01*
X192789Y171946D01*
X193534Y170975D01*
X194505Y170230D01*
X195636Y169761D01*
X196850Y169601D01*
X198064Y169761D01*
X199196Y170230D01*
X200167Y170975D01*
X200912Y171946D01*
X201381Y173077D01*
X201540Y174291D01*
X201381Y175505D01*
X200912Y176636D01*
X200167Y177608D01*
X199196Y178353D01*
X198064Y178822D01*
X196850Y178981D01*
D02*
G37*
G36*
X340158Y195911D02*
X338944Y195751D01*
X337812Y195282D01*
X336841Y194537D01*
X336096Y193565D01*
X335627Y192434D01*
X335467Y191220D01*
X335627Y190007D01*
X336096Y188875D01*
X336841Y187904D01*
X337812Y187159D01*
X338944Y186690D01*
X340158Y186530D01*
X341371Y186690D01*
X341677Y186817D01*
X342848Y185646D01*
X342518Y185270D01*
X342502Y185282D01*
X341371Y185751D01*
X340158Y185911D01*
X338944Y185751D01*
X337812Y185282D01*
X336841Y184537D01*
X336096Y183565D01*
X335627Y182434D01*
X335467Y181220D01*
X335627Y180007D01*
X336096Y178875D01*
X336841Y177904D01*
X337812Y177159D01*
X338944Y176690D01*
X340158Y176530D01*
X341371Y176690D01*
X342502Y177159D01*
X343474Y177904D01*
X344219Y178875D01*
X344688Y180007D01*
X344848Y181220D01*
X344688Y182434D01*
X344219Y183565D01*
X344207Y183581D01*
X344583Y183911D01*
X346169Y182325D01*
Y166258D01*
X341677Y161766D01*
X341371Y161892D01*
X340158Y162052D01*
X338944Y161892D01*
X337812Y161424D01*
X336841Y160679D01*
X336096Y159707D01*
X335627Y158576D01*
X335467Y157362D01*
X335627Y156148D01*
X336096Y155017D01*
X336841Y154046D01*
X337812Y153300D01*
X338944Y152832D01*
X340158Y152672D01*
X341371Y152832D01*
X342502Y153300D01*
X343474Y154046D01*
X344219Y155017D01*
X344688Y156148D01*
X344848Y157362D01*
X344688Y158576D01*
X344561Y158882D01*
X349651Y163971D01*
X350093Y164633D01*
X350248Y165413D01*
D01*
D01*
D01*
D01*
D01*
X350248D01*
D01*
D01*
D01*
D01*
Y165413D01*
X350248D01*
D01*
Y165413D01*
D01*
D01*
D01*
D01*
D01*
D01*
D01*
D01*
D01*
D01*
D01*
D01*
Y165413D01*
D01*
X350248D01*
D01*
D01*
D01*
D01*
X350248Y165413D01*
Y183169D01*
X350093Y183950D01*
X349651Y184611D01*
X344561Y189701D01*
X344688Y190007D01*
X344848Y191220D01*
X344688Y192434D01*
X344219Y193565D01*
X343474Y194537D01*
X342502Y195282D01*
X341371Y195751D01*
X340158Y195911D01*
D02*
G37*
G36*
X318318Y210015D02*
X294696D01*
X293919Y209860D01*
X293260Y209420D01*
X292820Y208761D01*
X292665Y207984D01*
Y188299D01*
X292665Y188299D01*
X292665D01*
X292820Y187521D01*
X293260Y186862D01*
X293919Y186422D01*
X294696Y186267D01*
X318318D01*
X319095Y186422D01*
X319754Y186862D01*
X320195Y187521D01*
X320349Y188299D01*
Y207984D01*
X320195Y208761D01*
X319754Y209420D01*
X319095Y209860D01*
X318318Y210015D01*
D02*
G37*
G36*
X509449Y195911D02*
X508235Y195751D01*
X507104Y195282D01*
X506132Y194537D01*
X505387Y193565D01*
X504918Y192434D01*
X504759Y191220D01*
X504918Y190007D01*
X505387Y188875D01*
X506132Y187904D01*
X507104Y187159D01*
X508235Y186690D01*
X509449Y186530D01*
X510663Y186690D01*
X510969Y186817D01*
X512140Y185645D01*
X511810Y185270D01*
X511794Y185282D01*
X510663Y185751D01*
X509449Y185911D01*
X508235Y185751D01*
X507104Y185282D01*
X506132Y184537D01*
X505387Y183565D01*
X504918Y182434D01*
X504759Y181220D01*
X504918Y180007D01*
X505387Y178875D01*
X506132Y177904D01*
X507104Y177159D01*
X508235Y176690D01*
X509449Y176530D01*
X510663Y176690D01*
X511794Y177159D01*
X512765Y177904D01*
X513137Y178389D01*
X513610Y178228D01*
Y164408D01*
X510969Y161766D01*
X510663Y161892D01*
X509449Y162052D01*
X508235Y161892D01*
X507104Y161424D01*
X506132Y160679D01*
X505387Y159707D01*
X504918Y158576D01*
X504759Y157362D01*
X504918Y156148D01*
X505387Y155017D01*
X506132Y154046D01*
X507104Y153300D01*
X508235Y152832D01*
X509449Y152672D01*
X510663Y152832D01*
X511794Y153300D01*
X512765Y154046D01*
X513511Y155017D01*
X513979Y156148D01*
X514139Y157362D01*
X513979Y158576D01*
X513852Y158882D01*
X517092Y162121D01*
X517092Y162121D01*
X517534Y162783D01*
D01*
D01*
D01*
Y162783D01*
X517534D01*
D01*
D01*
D01*
D01*
X517534D01*
D01*
D01*
D01*
D01*
Y162783D01*
X517534D01*
D01*
Y162783D01*
D01*
D01*
D01*
D01*
D01*
D01*
D01*
D01*
D01*
D01*
D01*
D01*
Y162783D01*
D01*
X517534D01*
D01*
D01*
D01*
D01*
X517534Y162783D01*
X517689Y163563D01*
X517689Y163563D01*
Y185020D01*
X517534Y185800D01*
X517092Y186462D01*
X513853Y189701D01*
X513979Y190007D01*
X514139Y191220D01*
X513979Y192434D01*
X513511Y193565D01*
X512765Y194537D01*
X511794Y195282D01*
X510663Y195751D01*
X509449Y195911D01*
D02*
G37*
G36*
X444488D02*
X443274Y195751D01*
X442143Y195282D01*
X441172Y194537D01*
X440426Y193565D01*
X439958Y192434D01*
X439798Y191220D01*
X439958Y190007D01*
X440426Y188875D01*
X441172Y187904D01*
X442143Y187159D01*
X443274Y186690D01*
X444488Y186530D01*
X445702Y186690D01*
X446008Y186817D01*
X447179Y185646D01*
X446849Y185270D01*
X446833Y185282D01*
X445702Y185751D01*
X444488Y185911D01*
X443274Y185751D01*
X442143Y185282D01*
X441172Y184537D01*
X440426Y183565D01*
X439958Y182434D01*
X439798Y181220D01*
X439958Y180007D01*
X440426Y178875D01*
X441172Y177904D01*
X442143Y177159D01*
X443274Y176690D01*
X444488Y176530D01*
X445702Y176690D01*
X446833Y177159D01*
X447805Y177904D01*
X448267Y178507D01*
X448740Y178346D01*
Y164498D01*
X446008Y161766D01*
X445702Y161892D01*
X444488Y162052D01*
X443274Y161892D01*
X442143Y161424D01*
X441172Y160679D01*
X440426Y159707D01*
X439958Y158576D01*
X439798Y157362D01*
X439958Y156148D01*
X440426Y155017D01*
X441172Y154046D01*
X442143Y153300D01*
X443274Y152832D01*
X444488Y152672D01*
X445702Y152832D01*
X446833Y153300D01*
X447805Y154046D01*
X448550Y155017D01*
X449018Y156148D01*
X449178Y157362D01*
X449018Y158576D01*
X448892Y158882D01*
X452221Y162212D01*
X452664Y162873D01*
X452819Y163654D01*
Y184929D01*
X452664Y185709D01*
X452221Y186371D01*
X448892Y189701D01*
X449018Y190007D01*
X449178Y191220D01*
X449018Y192434D01*
X448550Y193565D01*
X447805Y194537D01*
X446833Y195282D01*
X445702Y195751D01*
X444488Y195911D01*
D02*
G37*
G36*
X761003Y171457D02*
X757253D01*
Y168207D01*
X761003D01*
Y171457D01*
D02*
G37*
G36*
X625500Y179000D02*
X609500D01*
Y176681D01*
X602350D01*
Y171319D01*
X603319D01*
X603596Y170903D01*
X603321Y170238D01*
X603226Y169520D01*
Y169201D01*
X602350D01*
Y163839D01*
X605296D01*
X606000Y163746D01*
X609500D01*
Y161275D01*
X595235D01*
X594458Y161120D01*
X593799Y160680D01*
X593359Y160021D01*
X593204Y159244D01*
Y131685D01*
X593359Y130907D01*
X593799Y130248D01*
X594458Y129808D01*
X595235Y129653D01*
X614920D01*
X615697Y129808D01*
X616356Y130248D01*
X616797Y130907D01*
X616951Y131685D01*
D01*
D01*
D01*
D01*
D01*
X616951D01*
D01*
D01*
D01*
D01*
Y131685D01*
X616951D01*
D01*
Y131685D01*
D01*
D01*
D01*
D01*
D01*
D01*
D01*
D01*
D01*
D01*
D01*
D01*
Y131685D01*
D01*
X616951D01*
D01*
D01*
D01*
D01*
X616951Y131685D01*
Y159244D01*
X616797Y160021D01*
X616356Y160680D01*
X616454Y161000D01*
X625500D01*
Y163003D01*
X625948Y163224D01*
X626113Y163098D01*
X626782Y162821D01*
X627500Y162726D01*
X628218Y162821D01*
X628887Y163098D01*
X629461Y163539D01*
X629902Y164113D01*
X630179Y164782D01*
X630274Y165500D01*
X630179Y166218D01*
X629902Y166887D01*
X629461Y167461D01*
X628887Y167902D01*
X628218Y168179D01*
X627500Y168274D01*
X626782Y168179D01*
X626113Y167902D01*
X625948Y167776D01*
X625500Y167997D01*
Y170000D01*
Y179000D01*
D02*
G37*
G36*
X730003Y166707D02*
X726253D01*
Y163457D01*
X730003D01*
Y166707D01*
D02*
G37*
G36*
X124750Y160658D02*
Y156968D01*
X128440D01*
X128384Y157392D01*
X127931Y158487D01*
X127209Y159427D01*
X126269Y160148D01*
X125175Y160602D01*
X124750Y160658D01*
D02*
G37*
G36*
X215354Y168981D02*
X214140Y168822D01*
X213009Y168353D01*
X212038Y167608D01*
X211293Y166636D01*
X210824Y165505D01*
X210664Y164291D01*
X210824Y163077D01*
X211293Y161946D01*
X212038Y160975D01*
X213009Y160230D01*
X214140Y159761D01*
X215354Y159601D01*
X216568Y159761D01*
X217699Y160230D01*
X218671Y160975D01*
X219416Y161946D01*
X219885Y163077D01*
X220044Y164291D01*
X219885Y165505D01*
X219416Y166636D01*
X218671Y167608D01*
X217699Y168353D01*
X216568Y168822D01*
X215354Y168981D01*
D02*
G37*
G36*
X580500Y185911D02*
X579286Y185751D01*
X578155Y185282D01*
X577183Y184537D01*
X576438Y183566D01*
X575970Y182434D01*
X575810Y181220D01*
X575970Y180007D01*
X576438Y178875D01*
X577183Y177904D01*
X578155Y177159D01*
X578461Y177032D01*
Y174260D01*
X576000D01*
Y166260D01*
X594000D01*
Y167579D01*
X600563D01*
Y172941D01*
X594000D01*
Y174260D01*
X582539D01*
Y177032D01*
X582845Y177159D01*
X583816Y177904D01*
X584562Y178875D01*
X585030Y180007D01*
X585190Y181220D01*
X585030Y182434D01*
X584562Y183566D01*
X583816Y184537D01*
X582845Y185282D01*
X581714Y185751D01*
X580500Y185911D01*
D02*
G37*
G36*
X730003Y171457D02*
X726253D01*
Y168207D01*
X730003D01*
Y171457D01*
D02*
G37*
G36*
X761003Y166707D02*
X757253D01*
Y163457D01*
X761003D01*
Y166707D01*
D02*
G37*
G36*
X647530Y168207D02*
X643780D01*
Y164957D01*
X647530D01*
Y168207D01*
D02*
G37*
G36*
X487610Y210015D02*
X463988D01*
X463210Y209860D01*
X462551Y209420D01*
X462111Y208761D01*
X461957Y207984D01*
Y188299D01*
X461956Y188299D01*
X461957D01*
X462111Y187521D01*
X462551Y186862D01*
X463210Y186422D01*
X463988Y186267D01*
X487610D01*
X488387Y186422D01*
X489046Y186862D01*
X489486Y187521D01*
X489641Y188299D01*
Y207984D01*
X489486Y208761D01*
X489046Y209420D01*
X488387Y209860D01*
X487610Y210015D01*
D02*
G37*
G36*
X656530Y202957D02*
X647906D01*
Y199207D01*
X656530D01*
Y202957D01*
D02*
G37*
G36*
X666654D02*
X658030D01*
Y199207D01*
X666654D01*
Y202957D01*
D02*
G37*
G36*
X126649Y198457D02*
X122899D01*
Y195207D01*
X126649D01*
Y198457D01*
D02*
G37*
G36*
X121399D02*
X108650D01*
Y196496D01*
X105961D01*
Y197563D01*
X100598D01*
Y190264D01*
X105961D01*
Y192418D01*
X108650D01*
Y190457D01*
X121399D01*
Y194456D01*
Y198457D01*
D02*
G37*
G36*
X682529Y202957D02*
X679280D01*
Y199207D01*
X682529D01*
Y202957D01*
D02*
G37*
G36*
X687280D02*
X684029D01*
Y199207D01*
X687280D01*
Y202957D01*
D02*
G37*
G36*
X673030D02*
X669779D01*
Y199207D01*
X673030D01*
Y202957D01*
D02*
G37*
G36*
X677779D02*
X674530D01*
Y199207D01*
X677779D01*
Y202957D01*
D02*
G37*
G36*
X86445Y198163D02*
X81114D01*
X81261Y197807D01*
X81098Y197563D01*
X81098D01*
Y194663D01*
X86461D01*
Y197563D01*
X86461D01*
X86298Y197807D01*
X86445Y198163D01*
D02*
G37*
G36*
X585091Y190471D02*
X581250D01*
Y186629D01*
X581714Y186690D01*
X582845Y187159D01*
X583816Y187904D01*
X584562Y188875D01*
X585030Y190007D01*
X585091Y190471D01*
D02*
G37*
G36*
X83030Y193163D02*
X81098D01*
Y190264D01*
X83030D01*
Y193163D01*
D02*
G37*
G36*
X273228Y195911D02*
X272014Y195751D01*
X270883Y195282D01*
X269912Y194537D01*
X269167Y193565D01*
X268698Y192434D01*
X268538Y191220D01*
X268698Y190007D01*
X269167Y188875D01*
X269912Y187904D01*
X270883Y187159D01*
X272014Y186690D01*
X273228Y186530D01*
X274442Y186690D01*
X275573Y187159D01*
X276545Y187904D01*
X277290Y188875D01*
X277759Y190007D01*
X277919Y191220D01*
X277759Y192434D01*
X277290Y193565D01*
X276545Y194537D01*
X275573Y195282D01*
X274442Y195751D01*
X273228Y195911D01*
D02*
G37*
G36*
X579750Y190471D02*
X575909D01*
X575970Y190007D01*
X576438Y188875D01*
X577183Y187904D01*
X578155Y187159D01*
X579286Y186690D01*
X579750Y186629D01*
Y190471D01*
D02*
G37*
G36*
Y195812D02*
X579286Y195751D01*
X578155Y195282D01*
X577183Y194537D01*
X576438Y193566D01*
X575970Y192434D01*
X575909Y191971D01*
X579750D01*
Y195812D01*
D02*
G37*
G36*
X581250D02*
Y191971D01*
X585091D01*
X585030Y192434D01*
X584562Y193566D01*
X583816Y194537D01*
X582845Y195282D01*
X581714Y195751D01*
X581250Y195812D01*
D02*
G37*
G36*
X86461Y193163D02*
X84530D01*
Y190264D01*
X86461D01*
Y193163D01*
D02*
G37*
G36*
X126649Y193707D02*
X122899D01*
Y190457D01*
X126649D01*
Y193707D01*
D02*
G37*
G36*
X123250Y160658D02*
X122825Y160602D01*
X121731Y160148D01*
X120791Y159427D01*
X120069Y158487D01*
X119616Y157392D01*
X119560Y156968D01*
X123250D01*
Y160658D01*
D02*
G37*
G36*
X102322Y142421D02*
X100696Y142261D01*
X99133Y141787D01*
X97693Y141017D01*
X96431Y139980D01*
X95394Y138718D01*
X94625Y137278D01*
X94151Y135715D01*
X93990Y134089D01*
X94151Y132464D01*
X94625Y130901D01*
X95394Y129461D01*
X96431Y128198D01*
X97693Y127162D01*
X99133Y126392D01*
X100696Y125918D01*
X102322Y125758D01*
X103947Y125918D01*
X105510Y126392D01*
X106950Y127162D01*
X108213Y128198D01*
X109249Y129461D01*
X110019Y130901D01*
X110493Y132464D01*
X110653Y134089D01*
X110493Y135715D01*
X110019Y137278D01*
X109249Y138718D01*
X108213Y139980D01*
X106950Y141017D01*
X105510Y141787D01*
X103947Y142261D01*
X102322Y142421D01*
D02*
G37*
G36*
X90149Y209457D02*
X72149D01*
Y201457D01*
X74260D01*
Y197563D01*
X73618D01*
Y190264D01*
X78980D01*
Y197563D01*
X78338D01*
Y201457D01*
X81799D01*
X81960Y200983D01*
X81818Y200875D01*
X81377Y200300D01*
X81114Y199663D01*
X86445D01*
X86182Y200300D01*
X85741Y200875D01*
X85166Y201316D01*
X85194Y201457D01*
X90149D01*
Y203418D01*
X98573D01*
X98765Y202956D01*
X94357Y198548D01*
X93915Y197887D01*
X93851Y197563D01*
X93118D01*
Y190264D01*
X98480D01*
Y196904D01*
X101494Y199918D01*
X126595D01*
X134839Y191674D01*
Y149768D01*
X134839Y149768D01*
X134839D01*
X134994Y148987D01*
X135436Y148326D01*
X156221Y127541D01*
X156299Y126950D01*
X156576Y126281D01*
X157017Y125707D01*
X157591Y125266D01*
X158260Y124989D01*
X158978Y124894D01*
X159696Y124989D01*
X160365Y125266D01*
X160939Y125707D01*
X161380Y126281D01*
X161657Y126950D01*
X161752Y127668D01*
X161696Y128089D01*
X162050Y128443D01*
X162417Y128394D01*
X163135Y128489D01*
X163502Y128640D01*
X163918Y128363D01*
Y128357D01*
X164073Y127576D01*
X164515Y126915D01*
X165450Y125980D01*
X165305Y125501D01*
X164635Y125368D01*
X164029Y124963D01*
X163424Y125368D01*
X162454Y125561D01*
X161485Y125368D01*
X160663Y124819D01*
X160114Y123997D01*
X159935Y123098D01*
X136957D01*
Y125059D01*
X118957D01*
Y117059D01*
X121418D01*
Y106467D01*
X117558Y102607D01*
X117116Y101945D01*
X116961Y101165D01*
Y67334D01*
X111743Y62116D01*
X76912D01*
X76131Y61961D01*
X75470Y61519D01*
X51990Y38039D01*
X49465D01*
X48684Y37884D01*
X48419Y37707D01*
X48023Y37442D01*
X48023Y37442D01*
X43870Y33289D01*
X43639Y33384D01*
X42465Y33539D01*
X41290Y33384D01*
X40195Y32931D01*
X39255Y32209D01*
X38534Y31269D01*
X38080Y30175D01*
X37926Y29000D01*
X38080Y27825D01*
X38534Y26730D01*
X39255Y25790D01*
X40195Y25069D01*
X41290Y24616D01*
X42465Y24461D01*
X43639Y24616D01*
X44734Y25069D01*
X45674Y25790D01*
X46395Y26730D01*
X46849Y27825D01*
X47003Y29000D01*
X46849Y30175D01*
X46753Y30405D01*
X48175Y31826D01*
X48551Y31497D01*
X48376Y31269D01*
X47923Y30175D01*
X47768Y29000D01*
X47923Y27825D01*
X48376Y26730D01*
X49098Y25790D01*
X50038Y25069D01*
X51132Y24616D01*
X52307Y24461D01*
X53482Y24616D01*
X54577Y25069D01*
X55517Y25790D01*
X56238Y26730D01*
X56691Y27825D01*
X56846Y29000D01*
X56691Y30175D01*
X56596Y30405D01*
X58018Y31826D01*
X58394Y31497D01*
X58219Y31269D01*
X57766Y30175D01*
X57611Y29000D01*
X57766Y27825D01*
X58219Y26730D01*
X58940Y25790D01*
X59880Y25069D01*
X60975Y24616D01*
X62150Y24461D01*
X63324Y24616D01*
X64419Y25069D01*
X65359Y25790D01*
X66080Y26730D01*
X66534Y27825D01*
X66689Y29000D01*
X66534Y30175D01*
X66080Y31269D01*
X65461Y32077D01*
X82345Y48961D01*
X88600D01*
Y47000D01*
X88500D01*
Y45039D01*
X83000D01*
X83000Y45039D01*
X82219Y44884D01*
X81558Y44442D01*
X71338Y34222D01*
X70896Y33560D01*
X70794Y33048D01*
X70510Y32931D01*
X69570Y32209D01*
X68849Y31269D01*
X68395Y30175D01*
X68241Y29000D01*
X68395Y27825D01*
X68849Y26730D01*
X69570Y25790D01*
X70510Y25069D01*
X71605Y24616D01*
X72780Y24461D01*
X73954Y24616D01*
X75049Y25069D01*
X75989Y25790D01*
X76710Y26730D01*
X77164Y27825D01*
X77318Y29000D01*
X77164Y30175D01*
X76710Y31269D01*
X75989Y32209D01*
X75783Y32368D01*
X75750Y32866D01*
X83845Y40961D01*
X88500D01*
Y39000D01*
X106500D01*
Y41461D01*
X110860D01*
X111640Y41616D01*
X112302Y42058D01*
X130942Y60698D01*
X131384Y61360D01*
X131539Y62140D01*
Y94016D01*
X132279Y94756D01*
X132740Y94564D01*
Y72834D01*
X132421Y72418D01*
X132149Y71761D01*
X132056Y71057D01*
Y65857D01*
X132149Y65152D01*
X132421Y64495D01*
X132854Y63931D01*
X133418Y63498D01*
X134075Y63226D01*
X134780Y63133D01*
X135484Y63226D01*
X136141Y63498D01*
X136631Y63874D01*
X137080Y63653D01*
Y63157D01*
X169030D01*
Y68456D01*
Y73757D01*
X151874D01*
Y90412D01*
X152315Y90647D01*
X153021Y90176D01*
X153990Y89983D01*
X157927D01*
X158764Y90149D01*
X159072Y89914D01*
X159740Y89637D01*
X160032Y89598D01*
X160238Y89143D01*
X160114Y88958D01*
X159922Y87988D01*
Y84051D01*
X160114Y83082D01*
X160663Y82260D01*
X161485Y81711D01*
X162454Y81518D01*
X163424Y81711D01*
X164029Y82116D01*
X164635Y81711D01*
X165604Y81518D01*
X166573Y81711D01*
X167179Y82116D01*
X167784Y81711D01*
X168754Y81518D01*
X169477Y81662D01*
X169864Y81345D01*
Y79116D01*
X169864Y79116D01*
X169864D01*
X170019Y78336D01*
X170461Y77675D01*
X176500Y71636D01*
Y63957D01*
Y60207D01*
X180501D01*
Y58707D01*
X176500D01*
Y55059D01*
X127020D01*
X127020Y55059D01*
X126239Y54904D01*
X125578Y54462D01*
X125578Y54462D01*
X95028Y23912D01*
X35381D01*
X34661Y24632D01*
Y24974D01*
X34892Y25069D01*
X35832Y25790D01*
X36553Y26730D01*
X37006Y27825D01*
X37161Y29000D01*
X37006Y30175D01*
X36553Y31269D01*
X35832Y32209D01*
X34892Y32931D01*
X33797Y33384D01*
X32622Y33539D01*
X31447Y33384D01*
X30353Y32931D01*
X29413Y32209D01*
X28691Y31269D01*
X28238Y30175D01*
X28083Y29000D01*
X28238Y27825D01*
X28691Y26730D01*
X29413Y25790D01*
X30353Y25069D01*
X30583Y24974D01*
Y23787D01*
X30583Y23787D01*
X30583D01*
X30738Y23007D01*
X31180Y22345D01*
X33095Y20431D01*
X33757Y19989D01*
X34537Y19833D01*
X95873D01*
X96653Y19989D01*
X97315Y20431D01*
Y20431D01*
X97315D01*
D01*
D01*
D01*
D01*
D01*
D01*
X97315D01*
D01*
X97315D01*
Y20431D01*
D01*
D01*
D01*
D01*
Y20431D01*
D01*
D01*
D01*
D01*
D01*
D01*
Y20431D01*
D01*
D01*
X97315D01*
D01*
D01*
D01*
D01*
D01*
X127864Y50981D01*
X132080D01*
Y40657D01*
X132560D01*
Y34991D01*
X130845Y33277D01*
X130010Y32931D01*
X129070Y32209D01*
X128349Y31269D01*
X127895Y30175D01*
X127741Y29000D01*
X127895Y27825D01*
X128349Y26730D01*
X129070Y25790D01*
X130010Y25069D01*
X131105Y24616D01*
X132280Y24461D01*
X133454Y24616D01*
X134549Y25069D01*
X135489Y25790D01*
X136210Y26730D01*
X136664Y27825D01*
X136819Y29000D01*
X136664Y30175D01*
X136210Y31269D01*
X135514Y32177D01*
X136041Y32704D01*
X136483Y33366D01*
X136638Y34146D01*
Y40657D01*
X137740D01*
Y35646D01*
X137896Y34866D01*
X138338Y34205D01*
X139448Y33094D01*
X139416Y32595D01*
X138913Y32209D01*
X138191Y31269D01*
X137738Y30175D01*
X137583Y29000D01*
X137738Y27825D01*
X138191Y26730D01*
X138913Y25790D01*
X139853Y25069D01*
X140947Y24616D01*
X142122Y24461D01*
X143297Y24616D01*
X144392Y25069D01*
X145332Y25790D01*
X146053Y26730D01*
X146506Y27825D01*
X146661Y29000D01*
X146506Y30175D01*
X146053Y31269D01*
X145332Y32209D01*
X144392Y32931D01*
X144161Y33026D01*
Y33304D01*
X144006Y34084D01*
X143564Y34746D01*
X143564Y34746D01*
X143564D01*
D01*
X143564Y34746D01*
Y34746D01*
X141819Y36491D01*
Y40657D01*
X142740D01*
Y38646D01*
X142740Y38646D01*
X142740D01*
X142896Y37866D01*
X143338Y37205D01*
X148572Y31970D01*
X148034Y31269D01*
X147581Y30175D01*
X147426Y29000D01*
X147581Y27825D01*
X148034Y26730D01*
X148755Y25790D01*
X149695Y25069D01*
X150790Y24616D01*
X151965Y24461D01*
X153139Y24616D01*
X154234Y25069D01*
X155174Y25790D01*
X155895Y26730D01*
X156349Y27825D01*
X156503Y29000D01*
X156372Y30001D01*
X156820Y30222D01*
X157358Y29684D01*
X157268Y29000D01*
X157423Y27825D01*
X157877Y26730D01*
X158598Y25790D01*
X159538Y25069D01*
X160633Y24616D01*
X161807Y24461D01*
X162982Y24616D01*
X164077Y25069D01*
X165017Y25790D01*
X165738Y26730D01*
X166191Y27825D01*
X166346Y29000D01*
X166191Y30175D01*
X165738Y31269D01*
X165017Y32209D01*
X164077Y32931D01*
X162982Y33384D01*
X161807Y33539D01*
X160633Y33384D01*
X159779Y33031D01*
X152615Y40195D01*
X152807Y40657D01*
X172480D01*
Y43451D01*
X176000D01*
Y41957D01*
X176970D01*
Y40883D01*
X176970Y40883D01*
Y39312D01*
X171127Y33470D01*
X170475Y33384D01*
X169380Y32931D01*
X168440Y32209D01*
X167719Y31269D01*
X167266Y30175D01*
X167111Y29000D01*
X167266Y27825D01*
X167719Y26730D01*
X168440Y25790D01*
X169380Y25069D01*
X170475Y24616D01*
X171650Y24461D01*
X172825Y24616D01*
X173919Y25069D01*
X174859Y25790D01*
X175581Y26730D01*
X176034Y27825D01*
X176120Y28477D01*
X182996Y35354D01*
X183557Y36085D01*
X183910Y36937D01*
X184030Y37850D01*
D01*
D01*
D01*
D01*
D01*
X184030D01*
D01*
D01*
D01*
D01*
Y37850D01*
X184030D01*
D01*
Y37850D01*
D01*
D01*
D01*
D01*
D01*
D01*
D01*
D01*
D01*
D01*
D01*
D01*
Y37850D01*
D01*
X184030D01*
D01*
D01*
D01*
D01*
X184030Y37850D01*
Y40883D01*
X184030Y40883D01*
Y41957D01*
X188750D01*
Y45956D01*
Y49957D01*
X176000D01*
Y48549D01*
X172480D01*
Y50981D01*
X186500D01*
X187280Y51136D01*
X187942Y51578D01*
X190442Y54078D01*
X190884Y54739D01*
X190913Y54885D01*
X190927Y54957D01*
X193000D01*
Y63957D01*
Y71008D01*
X193462Y71200D01*
X204583Y60079D01*
Y33026D01*
X204353Y32931D01*
X203413Y32209D01*
X202691Y31269D01*
X202238Y30175D01*
X202083Y29000D01*
X202238Y27825D01*
X202691Y26730D01*
X203413Y25790D01*
X204353Y25069D01*
X205447Y24616D01*
X206622Y24461D01*
X207797Y24616D01*
X208892Y25069D01*
X209832Y25790D01*
X210553Y26730D01*
X211006Y27825D01*
X211161Y29000D01*
X211006Y30175D01*
X210553Y31269D01*
X209832Y32209D01*
X208892Y32931D01*
X208661Y33026D01*
Y59802D01*
X209123Y59993D01*
X214425Y54691D01*
Y33026D01*
X214195Y32931D01*
X213255Y32209D01*
X212534Y31269D01*
X212081Y30175D01*
X211926Y29000D01*
X212081Y27825D01*
X212534Y26730D01*
X213255Y25790D01*
X214195Y25069D01*
X215290Y24616D01*
X216465Y24461D01*
X217639Y24616D01*
X218734Y25069D01*
X219674Y25790D01*
X220395Y26730D01*
X220849Y27825D01*
X221004Y29000D01*
X220849Y30175D01*
X220395Y31269D01*
X219674Y32209D01*
X218734Y32931D01*
X218504Y33026D01*
Y54959D01*
X218966Y55150D01*
X219151Y54965D01*
X219813Y54523D01*
X220593Y54368D01*
X238383D01*
X272136Y20615D01*
X272798Y20173D01*
X273578Y20018D01*
X273578Y20018D01*
X342233D01*
X349136Y13115D01*
X349798Y12673D01*
X350578Y12518D01*
X513963D01*
X514436Y12155D01*
X515105Y11878D01*
X515823Y11783D01*
X516541Y11878D01*
X517210Y12155D01*
X517784Y12596D01*
X518225Y13170D01*
X518502Y13839D01*
X518597Y14557D01*
X518502Y15275D01*
X518665Y15518D01*
X519832D01*
X520053Y15069D01*
X519439Y14269D01*
X518986Y13175D01*
X518930Y12750D01*
X527810D01*
X527754Y13175D01*
X527301Y14269D01*
X526580Y15209D01*
X526684Y15518D01*
X527510D01*
X527983Y15155D01*
X528652Y14878D01*
X529243Y14800D01*
X529585Y14459D01*
X529439Y14269D01*
X528986Y13175D01*
X528831Y12000D01*
X528986Y10825D01*
X529439Y9731D01*
X530161Y8791D01*
X531101Y8069D01*
X532195Y7616D01*
X533370Y7461D01*
X534545Y7616D01*
X535639Y8069D01*
X536580Y8791D01*
X537301Y9731D01*
X537754Y10825D01*
X537909Y12000D01*
X537754Y13175D01*
X537301Y14269D01*
X536580Y15209D01*
X535639Y15931D01*
X534545Y16384D01*
X533370Y16539D01*
X533283Y16527D01*
X532127Y17684D01*
X532049Y18275D01*
X532212Y18518D01*
X536845D01*
X540157Y15205D01*
X539439Y14269D01*
X538986Y13175D01*
X538831Y12000D01*
X538986Y10825D01*
X539439Y9731D01*
X540161Y8791D01*
X541101Y8069D01*
X542195Y7616D01*
X543370Y7461D01*
X544545Y7616D01*
X545640Y8069D01*
X546580Y8791D01*
X547301Y9731D01*
X547754Y10825D01*
X547909Y12000D01*
X547754Y13175D01*
X547301Y14269D01*
X546580Y15209D01*
X545640Y15931D01*
X544853Y16256D01*
X544812Y16318D01*
X540074Y21056D01*
X540266Y21518D01*
X559099D01*
X562558Y18058D01*
X562558Y18058D01*
X562955Y17793D01*
X563220Y17616D01*
X564000Y17461D01*
X629500D01*
Y15000D01*
X637500D01*
Y24000D01*
Y26461D01*
X648474D01*
X648569Y26231D01*
X649291Y25291D01*
X650231Y24569D01*
X651325Y24116D01*
X652500Y23961D01*
X653675Y24116D01*
X654769Y24569D01*
X655709Y25291D01*
X656431Y26231D01*
X656884Y27325D01*
X657039Y28500D01*
X656884Y29675D01*
X656431Y30769D01*
X655709Y31709D01*
X654769Y32431D01*
X653675Y32884D01*
X652500Y33039D01*
X651325Y32884D01*
X650231Y32431D01*
X649291Y31709D01*
X648569Y30769D01*
X648474Y30539D01*
X637500D01*
Y33000D01*
X629500D01*
Y24000D01*
Y21539D01*
X564845D01*
X561385Y24999D01*
X560724Y25441D01*
X559943Y25596D01*
X508167D01*
X507975Y26058D01*
X569658Y87741D01*
X570120Y87549D01*
Y81087D01*
Y72087D01*
X572081D01*
Y71236D01*
X571439D01*
Y69626D01*
X570713D01*
X570240Y69989D01*
X569571Y70266D01*
X568853Y70360D01*
X568135Y70266D01*
X567466Y69989D01*
X566891Y69548D01*
X566451Y68973D01*
X566174Y68305D01*
X566079Y67587D01*
X566174Y66869D01*
X566451Y66200D01*
X566891Y65625D01*
X567466Y65184D01*
X568135Y64907D01*
X568853Y64813D01*
X569571Y64907D01*
X570240Y65184D01*
X570713Y65547D01*
X571439D01*
Y63937D01*
X576801D01*
Y71236D01*
X576159D01*
Y72087D01*
X578120D01*
Y81087D01*
Y82813D01*
X587120D01*
Y81087D01*
Y72087D01*
X588033D01*
X588363Y71711D01*
X588346Y71586D01*
X588439Y70882D01*
Y63937D01*
X593801D01*
Y70883D01*
X593894Y71586D01*
X593877Y71711D01*
X594207Y72087D01*
X595120D01*
Y81087D01*
Y82813D01*
X604120D01*
Y81087D01*
Y72087D01*
X605033D01*
X605363Y71711D01*
X605346Y71587D01*
X605439Y70883D01*
Y63937D01*
X610801D01*
Y70883D01*
X610894Y71587D01*
X610877Y71711D01*
X611207Y72087D01*
X612120D01*
Y81087D01*
Y90087D01*
X610894D01*
Y91207D01*
X624280D01*
Y93168D01*
X625543D01*
Y92526D01*
X632843D01*
Y97888D01*
X625543D01*
Y97246D01*
X624280D01*
Y99207D01*
X621763D01*
X621664Y99707D01*
X621221Y100369D01*
X619062Y102529D01*
X619020Y102556D01*
X618971Y103054D01*
X621221Y105304D01*
X621664Y105966D01*
X621819Y106746D01*
D01*
D01*
D01*
D01*
D01*
X621819D01*
D01*
D01*
D01*
D01*
Y106746D01*
X621819D01*
D01*
Y106746D01*
D01*
D01*
D01*
D01*
D01*
D01*
D01*
D01*
D01*
D01*
D01*
D01*
Y106746D01*
D01*
X621819D01*
D01*
D01*
D01*
D01*
X621819Y106746D01*
Y108467D01*
X624280D01*
Y110428D01*
X625543D01*
Y109786D01*
X632843D01*
Y115148D01*
X625543D01*
Y114506D01*
X624280D01*
Y116467D01*
X606280D01*
Y108467D01*
X608006D01*
Y107707D01*
X608006Y107707D01*
X608006D01*
X608100Y106989D01*
X608286Y106542D01*
X608008Y106126D01*
X578877D01*
X578877Y106126D01*
X578097Y105971D01*
X577435Y105528D01*
X503503Y31596D01*
X422027D01*
X421867Y32070D01*
X422204Y32328D01*
X423012Y33382D01*
X423521Y34609D01*
X423694Y35925D01*
X423521Y37242D01*
X423012Y38469D01*
X422204Y39522D01*
X421150Y40330D01*
X419924Y40839D01*
X418607Y41012D01*
X418713Y41118D01*
X450530D01*
X451310Y41273D01*
X451972Y41715D01*
Y41715D01*
X451972D01*
D01*
D01*
D01*
D01*
D01*
D01*
X451972D01*
D01*
X451972D01*
Y41715D01*
D01*
D01*
D01*
D01*
Y41715D01*
D01*
D01*
D01*
D01*
D01*
D01*
Y41715D01*
D01*
D01*
X451972D01*
D01*
D01*
D01*
X465142Y54885D01*
X465584Y55547D01*
X465739Y56327D01*
D01*
D01*
D01*
D01*
D01*
X465739D01*
D01*
D01*
D01*
D01*
Y56327D01*
X465739D01*
D01*
Y56327D01*
D01*
D01*
D01*
D01*
D01*
D01*
D01*
D01*
D01*
D01*
D01*
D01*
Y56327D01*
D01*
X465739D01*
D01*
D01*
D01*
D01*
X465739Y56327D01*
Y59157D01*
X468200D01*
Y67157D01*
X456739D01*
Y68157D01*
X468200D01*
Y70117D01*
X470867D01*
X471648Y70273D01*
X472309Y70715D01*
X490410Y88815D01*
X490851Y89477D01*
X491007Y90257D01*
D01*
D01*
D01*
D01*
D01*
X491007D01*
D01*
D01*
D01*
D01*
Y90257D01*
X491007D01*
D01*
Y90257D01*
D01*
D01*
D01*
D01*
D01*
D01*
D01*
D01*
D01*
D01*
D01*
D01*
Y90257D01*
D01*
X491007D01*
D01*
D01*
D01*
D01*
X491007Y90257D01*
Y177297D01*
X491370Y177770D01*
X491647Y178439D01*
X491741Y179157D01*
X491647Y179875D01*
X491370Y180544D01*
X490929Y181118D01*
X490354Y181559D01*
X489685Y181836D01*
X488968Y181930D01*
X488250Y181836D01*
X487581Y181559D01*
X487006Y181118D01*
X486565Y180544D01*
X486288Y179875D01*
X486194Y179157D01*
X486288Y178439D01*
X486565Y177770D01*
X486928Y177297D01*
Y91101D01*
X470023Y74196D01*
X468200D01*
Y76157D01*
X450200D01*
Y74949D01*
X449784Y74671D01*
X449385Y74836D01*
X448668Y74930D01*
X447950Y74836D01*
X447281Y74559D01*
X446706Y74118D01*
X446266Y73544D01*
X445988Y72874D01*
X445894Y72157D01*
X445988Y71439D01*
X446266Y70770D01*
X446706Y70195D01*
X447281Y69754D01*
X447950Y69477D01*
X448668Y69383D01*
X449385Y69477D01*
X449784Y69643D01*
X450200Y69365D01*
Y68157D01*
X452661D01*
Y67157D01*
X450200D01*
Y59157D01*
X461661D01*
Y57172D01*
X449685Y45196D01*
X416167D01*
Y45657D01*
X416167D01*
Y47618D01*
X431068D01*
X431848Y47773D01*
X432510Y48215D01*
Y48215D01*
X432510D01*
D01*
D01*
D01*
D01*
D01*
D01*
X432510D01*
D01*
X432510D01*
Y48215D01*
D01*
D01*
D01*
D01*
Y48215D01*
D01*
D01*
D01*
D01*
D01*
D01*
Y48215D01*
D01*
D01*
X432510D01*
D01*
D01*
D01*
X436010Y51715D01*
X436451Y52376D01*
X436607Y53157D01*
D01*
D01*
D01*
D01*
D01*
X436607D01*
D01*
D01*
D01*
D01*
Y53157D01*
X436607D01*
D01*
Y53157D01*
D01*
D01*
D01*
D01*
D01*
D01*
D01*
D01*
D01*
D01*
D01*
D01*
Y53157D01*
D01*
X436607D01*
D01*
D01*
D01*
D01*
X436607Y53157D01*
Y75257D01*
X436451Y76037D01*
X436010Y76699D01*
X426146Y86562D01*
Y95940D01*
X426357Y96214D01*
X426857D01*
X427181Y95792D01*
X427745Y95359D01*
X428402Y95087D01*
X429107Y94994D01*
X429812Y95087D01*
X430469Y95359D01*
X431033Y95792D01*
X431465Y96356D01*
X431738Y97013D01*
X431800Y97487D01*
X431889Y97538D01*
X432607Y97444D01*
X433325Y97538D01*
X433994Y97815D01*
X434568Y98256D01*
X435009Y98831D01*
X435286Y99500D01*
X435381Y100217D01*
X435288Y100922D01*
X435463Y101009D01*
X435752Y101128D01*
X448165Y88715D01*
D01*
X448165Y88715D01*
X448165Y88715D01*
D01*
D01*
D01*
X448165Y88715D01*
Y88715D01*
X448827Y88273D01*
X449607Y88117D01*
X450480D01*
Y86157D01*
X452940D01*
Y85157D01*
X450200D01*
Y77157D01*
X468200D01*
Y79117D01*
X472007D01*
X472787Y79273D01*
X473449Y79715D01*
X483110Y89376D01*
X483552Y90037D01*
X483707Y90817D01*
D01*
D01*
D01*
D01*
D01*
X483707D01*
D01*
D01*
D01*
D01*
Y90817D01*
X483707D01*
D01*
Y90817D01*
D01*
D01*
D01*
D01*
D01*
D01*
D01*
D01*
D01*
D01*
D01*
D01*
Y90817D01*
D01*
X483707D01*
D01*
D01*
D01*
D01*
X483707Y90817D01*
Y128697D01*
X484070Y129170D01*
X484347Y129839D01*
X484441Y130557D01*
X484347Y131275D01*
X484070Y131944D01*
X483629Y132518D01*
X483054Y132959D01*
X482385Y133236D01*
X481668Y133330D01*
X480950Y133236D01*
X480281Y132959D01*
X479706Y132518D01*
X479265Y131944D01*
X478988Y131275D01*
X478894Y130557D01*
X478988Y129839D01*
X479265Y129170D01*
X479628Y128697D01*
Y91662D01*
X471162Y83196D01*
X468200D01*
Y85157D01*
X457019D01*
Y86157D01*
X468480D01*
Y88117D01*
X472167D01*
X472948Y88273D01*
X473609Y88715D01*
Y88715D01*
X473609D01*
D01*
D01*
D01*
D01*
D01*
D01*
X473609D01*
D01*
X473609D01*
Y88715D01*
D01*
D01*
D01*
D01*
Y88715D01*
D01*
D01*
D01*
D01*
D01*
D01*
Y88715D01*
D01*
D01*
X473609D01*
D01*
D01*
D01*
X475609Y90715D01*
X476052Y91376D01*
X476207Y92157D01*
D01*
D01*
D01*
D01*
D01*
X476207D01*
D01*
D01*
D01*
D01*
Y92157D01*
X476207D01*
D01*
Y92157D01*
D01*
D01*
D01*
D01*
D01*
D01*
D01*
D01*
D01*
D01*
D01*
D01*
Y92157D01*
D01*
X476207D01*
D01*
D01*
D01*
D01*
X476207Y92157D01*
Y145757D01*
X476052Y146537D01*
X475609Y147199D01*
X475609Y147199D01*
D01*
X475609D01*
D01*
D01*
X475609Y147199D01*
Y147199D01*
X470325Y152483D01*
X470247Y153075D01*
X469970Y153744D01*
X469529Y154318D01*
X468954Y154759D01*
X468286Y155036D01*
X467568Y155130D01*
X466850Y155036D01*
X466181Y154759D01*
X465606Y154318D01*
X465165Y153744D01*
X464888Y153075D01*
X464794Y152357D01*
X464888Y151639D01*
X465165Y150970D01*
X465606Y150395D01*
X466181Y149955D01*
X466850Y149678D01*
X467441Y149600D01*
X472128Y144912D01*
Y100984D01*
X471655Y100823D01*
X471429Y101118D01*
X470854Y101559D01*
X470185Y101836D01*
X469467Y101930D01*
X468855Y101850D01*
X468479Y102180D01*
Y103157D01*
X457019D01*
Y104157D01*
X468479D01*
Y112157D01*
X466019D01*
Y136197D01*
X466382Y136670D01*
X466659Y137339D01*
X466753Y138057D01*
X466659Y138775D01*
X466382Y139444D01*
X465941Y140018D01*
X465366Y140459D01*
X464697Y140736D01*
X464106Y140814D01*
X463844Y141076D01*
X463183Y141518D01*
X462402Y141673D01*
X443198D01*
X442227Y142644D01*
X442227Y142644D01*
X442072Y142799D01*
X442350Y143215D01*
X443274Y142832D01*
X444488Y142672D01*
X445702Y142832D01*
X446833Y143300D01*
X447805Y144046D01*
X448550Y145017D01*
X449018Y146148D01*
X449178Y147362D01*
X449018Y148576D01*
X448550Y149707D01*
X447805Y150679D01*
X446833Y151424D01*
X445702Y151892D01*
X444488Y152052D01*
X443274Y151892D01*
X442143Y151424D01*
X441172Y150679D01*
X440426Y149707D01*
X439958Y148576D01*
X439798Y147362D01*
X439958Y146148D01*
X440341Y145224D01*
X439925Y144947D01*
X438707Y146165D01*
Y171797D01*
X439070Y172270D01*
X439347Y172939D01*
X439441Y173657D01*
X439347Y174375D01*
X439070Y175044D01*
X438629Y175618D01*
X438054Y176059D01*
X437386Y176336D01*
X436668Y176430D01*
X435950Y176336D01*
X435281Y176059D01*
X434706Y175618D01*
X434265Y175044D01*
X433988Y174375D01*
X433894Y173657D01*
X433988Y172939D01*
X434265Y172270D01*
X434628Y171797D01*
Y145320D01*
X434628Y145320D01*
X434628D01*
X434784Y144540D01*
X435226Y143878D01*
X439344Y139760D01*
X439344Y139760D01*
X440912Y138192D01*
X440912D01*
Y138192D01*
X441573Y137750D01*
X442198Y137626D01*
X442353Y137595D01*
D01*
X442353D01*
X461267D01*
X461300Y137339D01*
X461577Y136670D01*
X461940Y136197D01*
Y112157D01*
X450480D01*
Y110916D01*
X450093Y110599D01*
X449607Y110696D01*
X439630D01*
X439409Y111144D01*
X439802Y111657D01*
X440079Y112326D01*
X440173Y113044D01*
X440079Y113761D01*
X439802Y114430D01*
X439439Y114903D01*
Y116218D01*
X439284Y116998D01*
X438842Y117659D01*
X431939Y124562D01*
Y149044D01*
X431939Y149044D01*
Y149044D01*
X431939D01*
X431939Y149044D01*
D01*
D01*
D01*
D01*
X431939Y149044D01*
D01*
X431784Y149824D01*
X431342Y150486D01*
X413939Y167888D01*
Y184833D01*
X413939Y184833D01*
X413784Y185613D01*
X413342Y186274D01*
X409915Y189701D01*
X410042Y190007D01*
X410202Y191220D01*
X410042Y192434D01*
X409574Y193565D01*
X408828Y194537D01*
X407857Y195282D01*
X406726Y195751D01*
X405512Y195911D01*
X404298Y195751D01*
X403167Y195282D01*
X402195Y194537D01*
X401450Y193565D01*
X400982Y192434D01*
X400822Y191220D01*
X400982Y190007D01*
X401450Y188875D01*
X402195Y187904D01*
X403167Y187159D01*
X404298Y186690D01*
X405512Y186530D01*
X406726Y186690D01*
X407031Y186817D01*
X408202Y185646D01*
X407873Y185270D01*
X407857Y185282D01*
X406726Y185751D01*
X405512Y185911D01*
X404298Y185751D01*
X403167Y185282D01*
X402195Y184537D01*
X401450Y183565D01*
X400982Y182434D01*
X400822Y181220D01*
X400982Y180007D01*
X401450Y178875D01*
X402195Y177904D01*
X403167Y177159D01*
X404298Y176690D01*
X405512Y176530D01*
X406726Y176690D01*
X407857Y177159D01*
X408828Y177904D01*
X409387Y178632D01*
X409861Y178472D01*
Y167044D01*
X410016Y166263D01*
X410458Y165602D01*
X427860Y148199D01*
Y123717D01*
X427860Y123717D01*
X427860D01*
X428016Y122937D01*
X428458Y122276D01*
X435360Y115373D01*
Y114903D01*
X435253Y114764D01*
X434753D01*
X434568Y115005D01*
X434400Y115134D01*
X434049Y115659D01*
X426939Y122769D01*
Y144044D01*
X426784Y144824D01*
X426607Y145089D01*
X426342Y145485D01*
X426342Y145485D01*
X413023Y158804D01*
X412361Y159246D01*
X411581Y159401D01*
X409700D01*
X409574Y159707D01*
X408828Y160679D01*
X407857Y161424D01*
X406726Y161892D01*
X405512Y162052D01*
X404298Y161892D01*
X403167Y161424D01*
X402195Y160679D01*
X401450Y159707D01*
X400982Y158576D01*
X400822Y157362D01*
X400982Y156148D01*
X401450Y155017D01*
X402195Y154046D01*
X403167Y153300D01*
X404298Y152832D01*
X405512Y152672D01*
X406726Y152832D01*
X407857Y153300D01*
X408828Y154046D01*
X409574Y155017D01*
X409700Y155323D01*
X410736D01*
X422860Y143199D01*
Y127436D01*
X422387Y127276D01*
X422204Y127514D01*
X421150Y128323D01*
X420252Y128695D01*
X420049Y128999D01*
X420049Y128999D01*
X415949Y133099D01*
X415287Y133541D01*
X414507Y133696D01*
X365480D01*
X364699Y133541D01*
X364038Y133099D01*
X360923Y129984D01*
X360507Y130157D01*
Y130157D01*
X360507Y130157D01*
X342507D01*
Y122157D01*
X348123D01*
X348661Y121619D01*
X348470Y121157D01*
X342507D01*
Y119196D01*
X335872D01*
X328646Y126421D01*
Y168558D01*
X329009Y169030D01*
X329286Y169700D01*
X329381Y170417D01*
X329286Y171135D01*
X329009Y171804D01*
X328568Y172379D01*
X327994Y172819D01*
X327325Y173097D01*
X326607Y173191D01*
X325889Y173097D01*
X325220Y172819D01*
X324646Y172379D01*
X324205Y171804D01*
X323928Y171135D01*
X323833Y170417D01*
X323928Y169700D01*
X324205Y169030D01*
X324568Y168558D01*
Y125577D01*
X324723Y124796D01*
X325165Y124135D01*
X333585Y115715D01*
X333585Y115715D01*
X333585D01*
X333585Y115715D01*
X333585D01*
X333585Y115715D01*
Y115715D01*
Y115715D01*
D01*
D01*
X333585D01*
Y115715D01*
X334247Y115273D01*
X335027Y115118D01*
X342507D01*
Y113157D01*
X360507D01*
Y115118D01*
X362823D01*
X367283Y110658D01*
X367092Y110196D01*
X360707D01*
Y112157D01*
X342707D01*
Y110196D01*
X332144D01*
X322319Y120021D01*
Y150597D01*
X322682Y151070D01*
X322959Y151739D01*
X323053Y152457D01*
X322959Y153175D01*
X322682Y153844D01*
X322241Y154418D01*
X321667Y154859D01*
X320998Y155136D01*
X320280Y155230D01*
X319562Y155136D01*
X318893Y154859D01*
X318318Y154418D01*
X317878Y153844D01*
X317600Y153175D01*
X317506Y152457D01*
X317600Y151739D01*
X317878Y151070D01*
X318240Y150597D01*
Y120487D01*
X317741Y120455D01*
X317686Y120875D01*
X317409Y121544D01*
X316968Y122118D01*
X316394Y122559D01*
X315725Y122836D01*
X315007Y122930D01*
X314289Y122836D01*
X313620Y122559D01*
X313046Y122118D01*
X312605Y121544D01*
X312328Y120875D01*
X312233Y120157D01*
X312328Y119439D01*
X312605Y118770D01*
X312968Y118297D01*
Y111721D01*
X313123Y110941D01*
X313565Y110279D01*
X326129Y97715D01*
D01*
X326129D01*
X326129Y97715D01*
X326129Y97715D01*
X326129D01*
D01*
X326129D01*
X326129Y97715D01*
Y97715D01*
X326129Y97715D01*
Y97715D01*
X326791Y97273D01*
X327571Y97118D01*
X342607D01*
Y95157D01*
X360607D01*
Y103157D01*
X358146D01*
Y104157D01*
X360707D01*
Y106117D01*
X384855D01*
X385294Y105679D01*
X385016Y105264D01*
X384812Y105348D01*
X384107Y105441D01*
X383402Y105348D01*
X382745Y105076D01*
X382181Y104643D01*
X381749Y104079D01*
X381476Y103422D01*
X381453Y103243D01*
X377107D01*
Y104718D01*
X369107D01*
Y104169D01*
X368691Y103891D01*
X368151Y104115D01*
X367107Y104252D01*
X366063Y104115D01*
X365090Y103712D01*
X364254Y103070D01*
X363613Y102235D01*
X363210Y101262D01*
X363072Y100218D01*
X363210Y99173D01*
X363613Y98200D01*
X364254Y97365D01*
X365090Y96724D01*
X366063Y96320D01*
X367107Y96183D01*
X368151Y96320D01*
X368691Y96544D01*
X369107Y96266D01*
Y95718D01*
Y91968D01*
X377107D01*
Y95718D01*
Y97192D01*
X381453D01*
X381476Y97013D01*
X381749Y96356D01*
X382181Y95792D01*
X382745Y95359D01*
X383402Y95087D01*
X384107Y94994D01*
X384812Y95087D01*
X385469Y95359D01*
X386033Y95792D01*
X386357Y96214D01*
X386857D01*
X387181Y95792D01*
X387745Y95359D01*
X388402Y95087D01*
X389107Y94994D01*
X389812Y95087D01*
X390469Y95359D01*
X391033Y95792D01*
X391357Y96214D01*
X391857D01*
X392181Y95792D01*
X392745Y95359D01*
X393402Y95087D01*
X394107Y94994D01*
X394812Y95087D01*
X395469Y95359D01*
X396033Y95792D01*
X396357Y96214D01*
X396857D01*
X397068Y95940D01*
Y87762D01*
X392435Y83129D01*
X360668D01*
Y85157D01*
X358207D01*
Y86157D01*
X360668D01*
Y94157D01*
X342668D01*
Y92196D01*
X324688D01*
X311546Y105338D01*
Y138797D01*
X311909Y139270D01*
X312186Y139939D01*
X312281Y140657D01*
X312186Y141375D01*
X311909Y142043D01*
X311546Y142517D01*
Y171163D01*
X311391Y171944D01*
X310949Y172605D01*
X304855Y178699D01*
X304194Y179141D01*
X303413Y179296D01*
X278036D01*
X277632Y179701D01*
X277759Y180007D01*
X277919Y181220D01*
X277759Y182434D01*
X277290Y183565D01*
X276545Y184537D01*
X275573Y185282D01*
X274442Y185751D01*
X273228Y185911D01*
X272014Y185751D01*
X270883Y185282D01*
X269912Y184537D01*
X269167Y183565D01*
X268698Y182434D01*
X268538Y181220D01*
X268698Y180007D01*
X269167Y178875D01*
X269912Y177904D01*
X270883Y177159D01*
X272014Y176690D01*
X273228Y176530D01*
X274442Y176690D01*
X274748Y176817D01*
X275750Y175815D01*
D01*
X275750Y175815D01*
X275750Y175815D01*
D01*
D01*
D01*
X275750Y175815D01*
Y175815D01*
X276412Y175373D01*
X277192Y175218D01*
X302569D01*
X307468Y170319D01*
Y142517D01*
X307105Y142043D01*
X306828Y141375D01*
X306733Y140657D01*
X306828Y139939D01*
X307105Y139270D01*
X307468Y138797D01*
Y104493D01*
X307623Y103713D01*
X308065Y103051D01*
X322401Y88715D01*
D01*
X322401Y88715D01*
X322401Y88715D01*
D01*
D01*
D01*
X322401Y88715D01*
Y88715D01*
X323063Y88273D01*
X323843Y88117D01*
X342668D01*
Y86157D01*
X354128D01*
Y85157D01*
X342668D01*
Y84178D01*
X342292Y83848D01*
X341668Y83930D01*
X340950Y83836D01*
X340281Y83559D01*
X339706Y83118D01*
X339265Y82544D01*
X338988Y81875D01*
X338894Y81157D01*
X338988Y80439D01*
X339265Y79770D01*
X339706Y79195D01*
X340281Y78755D01*
X340950Y78478D01*
X341668Y78383D01*
X342292Y78465D01*
X342668Y78136D01*
Y77157D01*
X360668D01*
Y79051D01*
X375203D01*
X375395Y78589D01*
X371002Y74196D01*
X360668D01*
Y76157D01*
X342668D01*
Y74196D01*
X332188D01*
X299546Y106838D01*
Y123083D01*
X299546Y123084D01*
X299391Y123864D01*
X299391D01*
D01*
D01*
X299391Y123864D01*
D01*
D01*
D01*
D01*
X299391Y123864D01*
D01*
D01*
Y123864D01*
D01*
X299391D01*
D01*
D01*
X299391D01*
D01*
D01*
X298949Y124525D01*
X298949Y124525D01*
X277632Y145843D01*
X277759Y146148D01*
X277919Y147362D01*
X277759Y148576D01*
X277632Y148882D01*
X290652Y161902D01*
X291225Y161977D01*
X291894Y162255D01*
X292468Y162695D01*
X292909Y163270D01*
X293186Y163939D01*
X293281Y164657D01*
X293186Y165375D01*
X292909Y166043D01*
X292468Y166618D01*
X291894Y167059D01*
X291225Y167336D01*
X290507Y167430D01*
X289789Y167336D01*
X289120Y167059D01*
X288546Y166618D01*
X288105Y166043D01*
X287828Y165375D01*
X287748Y164765D01*
X277654Y154671D01*
X277278Y155001D01*
X277290Y155017D01*
X277759Y156148D01*
X277919Y157362D01*
X277759Y158576D01*
X277290Y159707D01*
X276545Y160679D01*
X275573Y161424D01*
X274442Y161892D01*
X273228Y162052D01*
X272014Y161892D01*
X270883Y161424D01*
X269912Y160679D01*
X269167Y159707D01*
X268698Y158576D01*
X268538Y157362D01*
X268698Y156148D01*
X269167Y155017D01*
X269912Y154046D01*
X270883Y153300D01*
X272014Y152832D01*
X273228Y152672D01*
X274442Y152832D01*
X275573Y153300D01*
X275590Y153313D01*
X275919Y152937D01*
X274748Y151766D01*
X274442Y151892D01*
X273228Y152052D01*
X272014Y151892D01*
X270883Y151424D01*
X269912Y150679D01*
X269167Y149707D01*
X268698Y148576D01*
X268538Y147362D01*
X268698Y146148D01*
X269167Y145017D01*
X269912Y144046D01*
X270883Y143300D01*
X272014Y142832D01*
X273228Y142672D01*
X274442Y142832D01*
X274748Y142959D01*
X295468Y122239D01*
Y105993D01*
X295468Y105993D01*
X295468D01*
X295623Y105213D01*
X296065Y104551D01*
X329901Y70715D01*
X329901Y70715D01*
X330298Y70450D01*
X330563Y70273D01*
X331343Y70117D01*
X342668D01*
Y68157D01*
X349230D01*
X349421Y67695D01*
X348883Y67157D01*
X342668D01*
Y59157D01*
X360668D01*
Y60301D01*
X361083Y60579D01*
X361328Y60477D01*
X362046Y60383D01*
X362764Y60477D01*
X363433Y60755D01*
X364007Y61195D01*
X364448Y61770D01*
X364725Y62439D01*
X364820Y63157D01*
X364725Y63875D01*
X364448Y64543D01*
X364007Y65118D01*
X363433Y65559D01*
X362764Y65836D01*
X362046Y65930D01*
X361328Y65836D01*
X361083Y65734D01*
X360668Y66012D01*
Y67157D01*
X355304D01*
X355112Y67619D01*
X355651Y68157D01*
X360668D01*
Y70117D01*
X371846D01*
X372627Y70273D01*
X373288Y70715D01*
Y70715D01*
X373288D01*
D01*
D01*
D01*
D01*
D01*
D01*
X373288D01*
D01*
X373288D01*
Y70715D01*
D01*
D01*
D01*
D01*
Y70715D01*
D01*
D01*
D01*
D01*
D01*
D01*
Y70715D01*
D01*
D01*
X373288D01*
D01*
D01*
D01*
D01*
X376556Y73983D01*
X377047Y73885D01*
X377178Y73570D01*
X377452Y73213D01*
X362735Y58496D01*
X338084D01*
X299276Y97304D01*
X298614Y97746D01*
X297834Y97901D01*
X266780D01*
Y98793D01*
X267155Y99123D01*
X266739Y99177D01*
X266707Y99191D01*
Y101856D01*
Y104523D01*
X266548Y104457D01*
X263030D01*
Y100456D01*
X261530D01*
Y104457D01*
X248780D01*
Y102496D01*
X245780D01*
Y104457D01*
X243256D01*
X243249Y104495D01*
X243164Y104924D01*
X242722Y105585D01*
X225806Y122501D01*
X225144Y122943D01*
X224364Y123098D01*
X187021D01*
X186842Y123997D01*
X186293Y124819D01*
X185471Y125368D01*
X184502Y125561D01*
X183778Y125417D01*
X183391Y125734D01*
Y126857D01*
X183236Y127637D01*
X182794Y128299D01*
X181901Y129192D01*
X182092Y129653D01*
X192086D01*
X192863Y129808D01*
X193522Y130248D01*
X193962Y130907D01*
X194117Y131685D01*
Y159244D01*
X193962Y160021D01*
X193957Y160028D01*
X194322Y160370D01*
X194505Y160230D01*
X195636Y159761D01*
X196850Y159601D01*
X198064Y159761D01*
X199196Y160230D01*
X200167Y160975D01*
X200912Y161946D01*
X201381Y163077D01*
X201540Y164291D01*
X201381Y165505D01*
X200912Y166636D01*
X200167Y167608D01*
X199196Y168353D01*
X198064Y168822D01*
X196850Y168981D01*
X195636Y168822D01*
X194505Y168353D01*
X193534Y167608D01*
X192789Y166636D01*
X192320Y165505D01*
X192160Y164291D01*
X192320Y163077D01*
X192789Y161946D01*
X193091Y161552D01*
X192827Y161127D01*
X192086Y161275D01*
X172401D01*
X171623Y161120D01*
X170964Y160680D01*
X170524Y160021D01*
X170370Y159244D01*
Y139381D01*
X169907Y139190D01*
X162979Y146118D01*
Y152191D01*
X163209Y152287D01*
X164149Y153008D01*
X164871Y153948D01*
X165324Y155043D01*
X165479Y156218D01*
X165324Y157392D01*
X164871Y158487D01*
X164149Y159427D01*
X163209Y160148D01*
X162115Y160602D01*
X160940Y160756D01*
X159765Y160602D01*
X158670Y160148D01*
X157730Y159427D01*
X157009Y158487D01*
X156556Y157392D01*
X156401Y156218D01*
X156556Y155043D01*
X157009Y153948D01*
X157730Y153008D01*
X158670Y152287D01*
X158901Y152191D01*
Y145274D01*
X158925Y145149D01*
X158485Y144913D01*
X152979Y150418D01*
Y151718D01*
X155440D01*
Y160718D01*
X146440D01*
Y151718D01*
X148901D01*
Y149574D01*
X148901Y149574D01*
X148901D01*
X149056Y148793D01*
X149498Y148132D01*
X163325Y134305D01*
X163278Y134192D01*
X163110Y133850D01*
X162544Y133925D01*
X144039Y152430D01*
Y196335D01*
X143884Y197115D01*
X143442Y197777D01*
X134320Y206899D01*
X133658Y207341D01*
X132878Y207496D01*
X90149D01*
Y209457D01*
D02*
G37*
G36*
X54854Y142638D02*
X40325D01*
Y123384D01*
X54854D01*
Y142638D01*
D02*
G37*
G36*
X660280Y137957D02*
X647530D01*
Y133956D01*
Y129957D01*
X653740D01*
Y129457D01*
X642280D01*
Y128544D01*
X641904Y128214D01*
X641780Y128231D01*
X641062Y128136D01*
X640393Y127859D01*
X639818Y127418D01*
X639377Y126844D01*
X639100Y126175D01*
X639006Y125457D01*
X639100Y124739D01*
X639377Y124070D01*
X639818Y123496D01*
X640393Y123055D01*
X641062Y122778D01*
X641780Y122683D01*
X641904Y122699D01*
X642280Y122370D01*
Y121457D01*
X660280D01*
Y129457D01*
X657819D01*
Y129957D01*
X660280D01*
Y137957D01*
D02*
G37*
G36*
X80750Y139408D02*
X76512D01*
X76587Y138841D01*
X77095Y137614D01*
X77903Y136560D01*
X78957Y135752D01*
X80183Y135244D01*
X80750Y135169D01*
Y139408D01*
D02*
G37*
G36*
X646030Y137957D02*
X642280D01*
Y134707D01*
X646030D01*
Y137957D01*
D02*
G37*
G36*
Y133207D02*
X642280D01*
Y129957D01*
X646030D01*
Y133207D01*
D02*
G37*
G36*
X101050Y118831D02*
X100483Y118756D01*
X99257Y118248D01*
X98203Y117439D01*
X97395Y116386D01*
X96886Y115159D01*
X96812Y114593D01*
X101050D01*
Y118831D01*
D02*
G37*
G36*
X78035Y117650D02*
X73250D01*
Y112471D01*
X78035D01*
Y117650D01*
D02*
G37*
G36*
X71750D02*
X66965D01*
Y112471D01*
X71750D01*
Y117650D01*
D02*
G37*
G36*
X102550Y118831D02*
Y114593D01*
X106788D01*
X106713Y115159D01*
X106205Y116386D01*
X105397Y117439D01*
X104343Y118248D01*
X103117Y118756D01*
X102550Y118831D01*
D02*
G37*
G36*
X38825Y142638D02*
X24295D01*
Y123384D01*
X38825D01*
Y142638D01*
D02*
G37*
G36*
X78035Y124329D02*
X73250D01*
Y119150D01*
X78035D01*
Y124329D01*
D02*
G37*
G36*
X71750D02*
X66965D01*
Y119150D01*
X71750D01*
Y124329D01*
D02*
G37*
G36*
X720032Y150206D02*
Y145968D01*
X724270D01*
X724196Y146534D01*
X723688Y147761D01*
X722879Y148814D01*
X721826Y149623D01*
X720599Y150131D01*
X720032Y150206D01*
D02*
G37*
G36*
X630847Y149468D02*
X626609D01*
X626684Y148901D01*
X627192Y147674D01*
X628000Y146621D01*
X629054Y145812D01*
X630281Y145304D01*
X630847Y145229D01*
Y149468D01*
D02*
G37*
G36*
X54854Y163392D02*
X40325D01*
Y144138D01*
X54854D01*
Y163392D01*
D02*
G37*
G36*
X630847Y155206D02*
X630281Y155131D01*
X629054Y154623D01*
X628000Y153814D01*
X627192Y152761D01*
X626684Y151534D01*
X626609Y150968D01*
X630847D01*
Y155206D01*
D02*
G37*
G36*
X754940Y163256D02*
X753765Y163102D01*
X752670Y162648D01*
X751730Y161927D01*
X751009Y160987D01*
X750556Y159892D01*
X750401Y158718D01*
X750556Y157543D01*
X751009Y156448D01*
X751730Y155508D01*
X752670Y154787D01*
X753765Y154333D01*
X754940Y154179D01*
X756114Y154333D01*
X757209Y154787D01*
X758149Y155508D01*
X758871Y156448D01*
X759324Y157543D01*
X759479Y158718D01*
X759324Y159892D01*
X758871Y160987D01*
X758149Y161927D01*
X757209Y162648D01*
X756114Y163102D01*
X754940Y163256D01*
D02*
G37*
G36*
X128440Y155468D02*
X124750D01*
Y151778D01*
X125175Y151833D01*
X126269Y152287D01*
X127209Y153008D01*
X127931Y153948D01*
X128384Y155043D01*
X128440Y155468D01*
D02*
G37*
G36*
X123250D02*
X119560D01*
X119616Y155043D01*
X120069Y153948D01*
X120791Y153008D01*
X121731Y152287D01*
X122825Y151833D01*
X123250Y151778D01*
Y155468D01*
D02*
G37*
G36*
X405512Y152052D02*
X404298Y151892D01*
X403167Y151424D01*
X402195Y150679D01*
X401450Y149707D01*
X400982Y148576D01*
X400822Y147362D01*
X400982Y146148D01*
X401450Y145017D01*
X402195Y144046D01*
X403167Y143300D01*
X404298Y142832D01*
X405512Y142672D01*
X406726Y142832D01*
X407857Y143300D01*
X408828Y144046D01*
X409574Y145017D01*
X410042Y146148D01*
X410202Y147362D01*
X410042Y148576D01*
X409574Y149707D01*
X408828Y150679D01*
X407857Y151424D01*
X406726Y151892D01*
X405512Y152052D01*
D02*
G37*
G36*
X509449D02*
X508235Y151892D01*
X507104Y151424D01*
X506132Y150679D01*
X505387Y149707D01*
X504918Y148576D01*
X504759Y147362D01*
X504918Y146148D01*
X505387Y145017D01*
X506132Y144046D01*
X507104Y143300D01*
X508235Y142832D01*
X509449Y142672D01*
X510663Y142832D01*
X511794Y143300D01*
X512765Y144046D01*
X513511Y145017D01*
X513979Y146148D01*
X514139Y147362D01*
X513979Y148576D01*
X513511Y149707D01*
X512765Y150679D01*
X511794Y151424D01*
X510663Y151892D01*
X509449Y152052D01*
D02*
G37*
G36*
X724270Y144468D02*
X720032D01*
Y140229D01*
X720599Y140304D01*
X721826Y140812D01*
X722879Y141621D01*
X723688Y142674D01*
X724196Y143901D01*
X724270Y144468D01*
D02*
G37*
G36*
X340158Y152052D02*
X338944Y151892D01*
X337812Y151424D01*
X336841Y150679D01*
X336096Y149707D01*
X335627Y148576D01*
X335467Y147362D01*
X335627Y146148D01*
X336096Y145017D01*
X336841Y144046D01*
X337812Y143300D01*
X338944Y142832D01*
X340158Y142672D01*
X341371Y142832D01*
X342502Y143300D01*
X343474Y144046D01*
X344219Y145017D01*
X344688Y146148D01*
X344848Y147362D01*
X344688Y148576D01*
X344219Y149707D01*
X343474Y150679D01*
X342502Y151424D01*
X341371Y151892D01*
X340158Y152052D01*
D02*
G37*
G36*
X38825Y163392D02*
X24295D01*
Y144138D01*
X38825D01*
Y163392D01*
D02*
G37*
%LPD*%
G36*
X237620Y104919D02*
X237429Y104457D01*
X227780D01*
Y103231D01*
X226780D01*
X226164Y103149D01*
X225788Y103479D01*
Y105457D01*
X225633Y106237D01*
X225191Y106899D01*
X216085Y116005D01*
X215423Y116447D01*
X214643Y116602D01*
X194386D01*
X193936Y116903D01*
X192966Y117096D01*
X189029D01*
X188060Y116903D01*
X187238Y116354D01*
X186689Y115532D01*
X186496Y114563D01*
X186689Y113594D01*
X187094Y112988D01*
X186689Y112383D01*
X186496Y111414D01*
X186689Y110444D01*
X187094Y109839D01*
X186689Y109233D01*
X186496Y108264D01*
X186689Y107295D01*
X187094Y106689D01*
X186689Y106084D01*
X186496Y105114D01*
X186689Y104145D01*
X187094Y103540D01*
X186689Y102934D01*
X186496Y101965D01*
X186689Y100995D01*
X187094Y100390D01*
X186689Y99784D01*
X186645Y99565D01*
X188358D01*
X189029Y99432D01*
X190999D01*
Y98215D01*
X187347D01*
X186538Y99024D01*
X186641Y99544D01*
X186163Y99399D01*
X184950Y100612D01*
X184819Y100926D01*
X184379Y101501D01*
X183804Y101942D01*
X183135Y102219D01*
X182417Y102313D01*
X181700Y102219D01*
X181030Y101942D01*
X180456Y101501D01*
X180015Y100926D01*
X179738Y100257D01*
X179644Y99540D01*
X179738Y98822D01*
X180015Y98153D01*
X180456Y97578D01*
X181030Y97137D01*
X181345Y97007D01*
X184351Y94001D01*
X184160Y93539D01*
X179500D01*
X178720Y93384D01*
X178058Y92942D01*
X176760Y91644D01*
X176319Y90983D01*
X176251Y90643D01*
X175835Y90366D01*
X175053Y90521D01*
X174083Y90328D01*
X173478Y89924D01*
X172872Y90328D01*
X171903Y90521D01*
X170934Y90328D01*
X170328Y89924D01*
X169723Y90328D01*
X168957Y90481D01*
Y110530D01*
X169319Y111003D01*
X169597Y111672D01*
X169691Y112390D01*
X169597Y113108D01*
X169319Y113777D01*
X168879Y114351D01*
X168872Y114460D01*
X170195Y115784D01*
X170195Y115784D01*
X170638Y116446D01*
X170638Y116449D01*
X171054Y116727D01*
X171903Y116558D01*
X172872Y116751D01*
X173478Y117155D01*
X174083Y116751D01*
X175053Y116558D01*
X176022Y116751D01*
X176628Y117155D01*
X177233Y116751D01*
X178202Y116558D01*
X179172Y116751D01*
X179777Y117155D01*
X180383Y116751D01*
X181352Y116558D01*
X182321Y116751D01*
X182927Y117155D01*
X183532Y116751D01*
X184502Y116558D01*
X185471Y116751D01*
X186293Y117300D01*
X186842Y118121D01*
X187021Y119020D01*
X223519D01*
X237620Y104919D01*
D02*
G37*
G36*
X32000Y92379D02*
Y72402D01*
X29048Y69559D01*
X16071D01*
X12957Y72559D01*
Y90559D01*
Y93059D01*
X15033Y95059D01*
X29217D01*
X32000Y92379D01*
D02*
G37*
G36*
X209710Y99612D02*
Y73035D01*
X209710Y73035D01*
X209710D01*
X209865Y72254D01*
X210307Y71593D01*
X222992Y58908D01*
X222801Y58446D01*
X221438D01*
X190363Y89521D01*
X190554Y89983D01*
X192966D01*
X193936Y90176D01*
X194757Y90725D01*
X195171Y91344D01*
X195669Y91394D01*
X200918Y86145D01*
Y82165D01*
X208917D01*
Y91166D01*
Y94915D01*
X204917D01*
Y96416D01*
X208917D01*
Y99926D01*
X209397D01*
X209710Y99612D01*
D02*
G37*
G36*
X330112Y52958D02*
X329921Y52496D01*
X328599D01*
X305153Y75942D01*
X304491Y76384D01*
X303711Y76539D01*
X266780D01*
Y77393D01*
X267155Y77723D01*
X266739Y77777D01*
X266707Y77791D01*
Y80456D01*
Y83123D01*
X266739Y83136D01*
X267155Y83191D01*
X266780Y83521D01*
Y83961D01*
X299109D01*
X330112Y52958D01*
D02*
G37*
G36*
X417068Y95940D02*
Y83217D01*
X417068Y83217D01*
X417068D01*
X417223Y82437D01*
X417665Y81775D01*
X424889Y74551D01*
X424791Y74061D01*
X424513Y73946D01*
X423938Y73505D01*
X423498Y72930D01*
X423220Y72262D01*
X423126Y71544D01*
X423220Y70826D01*
X423498Y70157D01*
X423938Y69582D01*
X423955Y69570D01*
X423995Y69368D01*
X424016Y69263D01*
X424458Y68602D01*
X424837Y68222D01*
X424616Y67774D01*
X424812Y67748D01*
X424857Y67730D01*
Y62616D01*
Y57506D01*
X425469Y57759D01*
X426033Y58192D01*
X426357Y58614D01*
X426857D01*
X427181Y58192D01*
X427745Y57759D01*
X428402Y57487D01*
X429107Y57394D01*
X429812Y57487D01*
X430469Y57759D01*
X431033Y58192D01*
X431465Y58756D01*
X431738Y59413D01*
X431830Y60118D01*
Y65118D01*
X431738Y65822D01*
X431465Y66479D01*
X431130Y66916D01*
X430991Y67617D01*
X430549Y68278D01*
X429884Y68943D01*
X430106Y69391D01*
X430168Y69383D01*
X430886Y69477D01*
X431555Y69754D01*
X432080Y70158D01*
X432528Y69937D01*
Y54001D01*
X430223Y51696D01*
X416167D01*
Y53657D01*
X401887D01*
X401609Y54072D01*
X401786Y54500D01*
X401881Y55217D01*
X401786Y55935D01*
X401509Y56604D01*
X401146Y57077D01*
Y58340D01*
X401357Y58614D01*
X401857D01*
X402181Y58192D01*
X402745Y57759D01*
X403402Y57487D01*
X404107Y57394D01*
X404812Y57487D01*
X405469Y57759D01*
X406033Y58192D01*
X406357Y58614D01*
X406857D01*
X407181Y58192D01*
X407745Y57759D01*
X408357Y57506D01*
Y62616D01*
Y67729D01*
X407745Y67476D01*
X407181Y67043D01*
X406776Y67354D01*
X406786Y67378D01*
X406881Y68096D01*
X406786Y68814D01*
X406509Y69483D01*
X406068Y70057D01*
X405494Y70498D01*
X404825Y70775D01*
X404107Y70870D01*
X403389Y70775D01*
X402720Y70498D01*
X402146Y70057D01*
X401705Y69483D01*
X401428Y68814D01*
X401333Y68096D01*
X401428Y67378D01*
X401438Y67354D01*
X401033Y67043D01*
X400469Y67476D01*
X399812Y67748D01*
X399107Y67841D01*
X398402Y67748D01*
X397745Y67476D01*
X397181Y67043D01*
X396857Y66620D01*
X396357D01*
X396146Y66895D01*
Y69629D01*
X396146Y69629D01*
X395991Y70410D01*
X395991D01*
X395991Y70410D01*
X395991Y70410D01*
Y70410D01*
X395991D01*
X395549Y71071D01*
X395549Y71071D01*
X394165Y72456D01*
X394356Y72918D01*
X408023D01*
X412128Y68812D01*
Y66974D01*
X411775Y66620D01*
X411357Y66620D01*
X411033Y67043D01*
X410469Y67476D01*
X409857Y67729D01*
Y62616D01*
Y57506D01*
X410469Y57759D01*
X411033Y58192D01*
X411357Y58614D01*
X411857D01*
X412181Y58192D01*
X412745Y57759D01*
X413402Y57487D01*
X414107Y57394D01*
X414812Y57487D01*
X415469Y57759D01*
X416033Y58192D01*
X416357Y58614D01*
X416857D01*
X417181Y58192D01*
X417745Y57759D01*
X418402Y57487D01*
X419107Y57394D01*
X419812Y57487D01*
X420469Y57759D01*
X421033Y58192D01*
X421357Y58614D01*
X421857D01*
X422181Y58192D01*
X422745Y57759D01*
X423357Y57506D01*
Y62616D01*
Y67729D01*
X422745Y67476D01*
X422181Y67043D01*
X421857Y66620D01*
X421357D01*
X421033Y67043D01*
X420469Y67476D01*
X419812Y67748D01*
X419107Y67841D01*
X418402Y67748D01*
X417745Y67476D01*
X417181Y67043D01*
X416857Y66620D01*
X416357D01*
X416207Y66816D01*
Y69657D01*
X416207D01*
Y69657D01*
Y69657D01*
Y69657D01*
X416207D01*
X416207Y69657D01*
X416051Y70437D01*
X415610Y71099D01*
X410309Y76399D01*
X409648Y76841D01*
X408868Y76996D01*
X401223D01*
X401031Y77458D01*
X405549Y81976D01*
X405991Y82637D01*
X406146Y83417D01*
X406146D01*
Y83417D01*
X406146D01*
Y83417D01*
Y83417D01*
X406146D01*
X406146Y83417D01*
Y95940D01*
X406357Y96214D01*
X406857D01*
X407181Y95792D01*
X407745Y95359D01*
X408402Y95087D01*
X409107Y94994D01*
X409812Y95087D01*
X410469Y95359D01*
X411033Y95792D01*
X411357Y96214D01*
X411857D01*
X412181Y95792D01*
X412745Y95359D01*
X413402Y95087D01*
X414107Y94994D01*
X414812Y95087D01*
X415469Y95359D01*
X416033Y95792D01*
X416357Y96214D01*
X416857D01*
X417068Y95940D01*
D02*
G37*
G36*
X334855Y55958D02*
X334663Y55496D01*
X333342D01*
X301396Y87442D01*
X300734Y87884D01*
X299954Y88039D01*
X270403D01*
X270136Y88439D01*
X270123Y88407D01*
X267456D01*
Y89156D01*
X266707D01*
Y91823D01*
X266739Y91836D01*
X267155Y91891D01*
X266780Y92221D01*
Y93823D01*
X296989D01*
X334855Y55958D01*
D02*
G37*
%LPC*%
G36*
X268207Y91823D02*
Y89907D01*
X270123D01*
X269859Y90544D01*
X269418Y91118D01*
X268844Y91559D01*
X268207Y91823D01*
D02*
G37*
G36*
Y83123D02*
Y81207D01*
X270123D01*
X269859Y81844D01*
X269418Y82418D01*
X268844Y82859D01*
X268207Y83123D01*
D02*
G37*
G36*
X270123Y79707D02*
X268207D01*
Y77791D01*
X268844Y78055D01*
X269418Y78496D01*
X269859Y79070D01*
X270123Y79707D01*
D02*
G37*
%LPD*%
D12*
X76912Y60077D02*
X112587D01*
X52835Y36000D02*
X76912Y60077D01*
X81500Y51000D02*
X93100D01*
X62150Y31650D02*
X81500Y51000D01*
X52307Y29000D02*
X79808Y56500D01*
X113961D01*
X122500Y65040D01*
X115062Y57602D02*
X117498Y60038D01*
X49465Y36000D02*
X52835D01*
X350578Y14557D02*
X515823D01*
X568853Y67587D02*
X574120D01*
X543370Y12000D02*
Y14876D01*
X537689Y20557D02*
X543370Y14876D01*
X351535Y17557D02*
X529370D01*
X533370Y12000D02*
Y13557D01*
X529370Y17557D02*
X533370Y13557D01*
X354020Y23557D02*
X559943D01*
X569870Y49500D02*
Y53990D01*
X570380Y54500D01*
X619780Y106746D02*
Y112707D01*
X620539Y112467D02*
X629193D01*
X617620Y101087D02*
X619780Y98927D01*
Y95207D02*
Y98927D01*
Y95207D02*
X629193D01*
X578877Y104087D02*
X617120D01*
X504348Y29557D02*
X578877Y104087D01*
X580120Y101087D02*
X617620D01*
X505590Y26557D02*
X580120Y101087D01*
X617120Y104087D02*
X619780Y106746D01*
X356505Y29557D02*
X504348D01*
X355263Y26557D02*
X505590D01*
X570380Y54500D02*
Y58500D01*
X591120Y67587D02*
Y71586D01*
X633500Y28500D02*
X652500D01*
X591120Y71586D02*
Y76586D01*
X119000Y101165D02*
X123457Y105622D01*
X119000Y66489D02*
Y101165D01*
X122500Y97026D02*
X143368Y117894D01*
X122500Y65040D02*
Y97026D01*
X126000Y63590D02*
Y95815D01*
X110860Y43500D02*
X129500Y62140D01*
X102000Y43500D02*
X110860D01*
X102100Y51000D02*
X113410D01*
X129500Y62140D02*
Y94861D01*
X112587Y60077D02*
X119000Y66489D01*
X62150Y29000D02*
Y31650D01*
X83000Y43000D02*
X93000D01*
X72780Y32780D02*
X83000Y43000D01*
X72780Y29000D02*
Y32780D01*
X143368Y117894D02*
X158921D01*
X574120Y76587D02*
X574120Y76587D01*
Y67587D02*
Y76587D01*
X604380Y55010D02*
Y58500D01*
X603870Y54500D02*
X604380Y55010D01*
X587380Y55010D02*
Y58500D01*
X586870Y54500D02*
X587380Y55010D01*
X586870Y49500D02*
Y54500D01*
X603870Y49500D02*
Y54500D01*
X577860Y50010D02*
Y58500D01*
Y50010D02*
X578370Y49500D01*
X594860Y50010D02*
Y58500D01*
Y50010D02*
X595370Y49500D01*
X611860Y51010D02*
Y58500D01*
Y51010D02*
X612370Y50500D01*
Y49500D02*
Y50500D01*
X655780Y125457D02*
Y133957D01*
X645770Y98947D02*
X646780Y99957D01*
X638280Y116207D02*
X646030D01*
X646780Y116957D01*
X638280Y108727D02*
X646510D01*
X638280Y108727D02*
X638280Y108727D01*
X646510D02*
X646780Y108457D01*
X638280Y98947D02*
X645770D01*
X638280Y91467D02*
X641770D01*
X641780Y91457D01*
X646780D01*
Y82957D02*
Y91457D01*
X655780Y74457D02*
Y82957D01*
X580500Y170260D02*
Y181220D01*
X589500Y170260D02*
X596913D01*
X606000Y174000D02*
X613000D01*
X613500Y174500D01*
X621500D01*
Y165500D02*
X627500D01*
X699350Y92398D02*
X704850D01*
X685780Y90157D02*
X699287Y76650D01*
X685780Y90157D02*
Y91457D01*
X641780Y125457D02*
X646780D01*
X699287Y76650D02*
X704850D01*
X685780Y106957D02*
X694169Y98568D01*
X700669Y80587D02*
X704850D01*
X694169Y87087D02*
X700669Y80587D01*
X694169Y87087D02*
Y98568D01*
X650757Y49257D02*
X654257Y52757D01*
X699137Y60902D02*
X704850D01*
X631740Y59217D02*
Y73717D01*
X696339Y64839D02*
X704850D01*
X344035Y25057D02*
X351535Y17557D01*
X275235Y25057D02*
X344035D01*
X210241Y101965D02*
X211749Y100457D01*
X190998Y101965D02*
X210241D01*
X345278Y28057D02*
X352778Y20557D01*
X276478Y28057D02*
X345278D01*
X226620Y62407D02*
X242128D01*
X211334Y105114D02*
X214749Y101699D01*
X190998Y105114D02*
X211334D01*
X134780Y95687D02*
X147357Y108264D01*
X134780Y68457D02*
Y95687D01*
X147357Y108264D02*
X155958D01*
X139780Y96187D02*
X148707Y105114D01*
X155958D01*
X149835Y68512D02*
Y97333D01*
X151317Y98815D01*
X144780Y68457D02*
Y96732D01*
X146918Y98870D02*
X150012Y101965D01*
X144780Y96732D02*
X146918Y98870D01*
X139780Y68457D02*
Y96187D01*
X150012Y101965D02*
X155958D01*
X151317Y98815D02*
X155958D01*
X226249Y71407D02*
X245855D01*
X95799Y197106D02*
X100650Y201957D01*
X95799Y193913D02*
Y197106D01*
X96799Y175914D02*
Y178299D01*
X99539Y181039D02*
Y184827D01*
X96799Y178299D02*
X99539Y181039D01*
X253280Y97555D02*
X254973Y95862D01*
X253280Y97555D02*
Y100457D01*
Y88182D02*
X255461Y86000D01*
X253280Y88182D02*
Y90457D01*
X303711Y74500D02*
X327754Y50457D01*
X253280Y78555D02*
Y80457D01*
X238849Y85662D02*
X241280Y83231D01*
Y100457D02*
Y103055D01*
X149780Y68457D02*
X149835Y68512D01*
X42465Y29000D02*
X49465Y36000D01*
X32622Y23787D02*
Y29000D01*
X488968Y90257D02*
Y179157D01*
X470867Y72157D02*
X488968Y90257D01*
X463700Y72157D02*
X470867D01*
X481668Y90817D02*
Y130557D01*
X463700Y81157D02*
X472007D01*
X481668Y90817D01*
X277720Y31057D02*
X346520D01*
X424107Y85717D02*
X434568Y75257D01*
X424107Y85717D02*
Y100217D01*
X419107Y83217D02*
Y100217D01*
Y83217D02*
X430168Y72157D01*
X303413Y177257D02*
X309507Y171163D01*
X277192Y177257D02*
X303413D01*
X273228Y181220D02*
X277192Y177257D01*
X158921Y117894D02*
X161421Y115394D01*
X365880Y53457D02*
X381380Y68957D01*
X332497Y53457D02*
X365880D01*
X472167Y90157D02*
X474168Y92157D01*
X450530Y43157D02*
X463700Y56327D01*
Y63157D01*
X415838Y43157D02*
X450530D01*
X273228Y147362D02*
X290515Y164649D01*
X297507Y105993D02*
Y123084D01*
X273228Y147362D02*
X297507Y123084D01*
X429900Y123717D02*
X437400Y116218D01*
Y113044D02*
Y116218D01*
X379580Y74957D02*
X408868D01*
X379080Y71957D02*
X391780D01*
X394107Y69629D01*
X408868Y74957D02*
X414168Y69657D01*
X377607Y77917D02*
X398607D01*
X371846Y72157D02*
X377607Y77917D01*
X398607D02*
X404107Y83417D01*
X363580Y56457D02*
X379080Y71957D01*
X381380Y68957D02*
X387880D01*
X389107Y67729D01*
X337240Y56457D02*
X363580D01*
X331343Y72157D02*
X347168D01*
X297507Y105993D02*
X331343Y72157D01*
X100453Y166913D02*
X100539Y166827D01*
X411668Y108657D02*
X449607D01*
X450107Y108157D01*
X454980D01*
X433607Y106157D02*
X449607Y90157D01*
X414107Y104096D02*
X416168Y106157D01*
X433607D01*
X409107Y106096D02*
X411668Y108657D01*
X409107Y100217D02*
Y106096D01*
X454480Y108657D02*
X454980Y108157D01*
X369107Y111717D02*
X390139D01*
X394107Y107750D01*
X385700Y108157D02*
X389107Y104750D01*
X356207Y108157D02*
X385700D01*
X356007Y117157D02*
X363668D01*
X369107Y111717D01*
X449607Y90157D02*
X454980D01*
X442353Y139634D02*
X462402D01*
X440786Y141202D02*
X442353Y139634D01*
X462402Y139634D02*
X463979Y138057D01*
X509449Y191220D02*
X515650Y185020D01*
Y163563D02*
Y185020D01*
X509449Y157362D02*
X515650Y163563D01*
X356168Y63157D02*
X362046D01*
X399107Y55217D02*
Y62617D01*
X394107D02*
Y69629D01*
X389107Y62617D02*
Y67729D01*
X239149Y95362D02*
X241280Y93231D01*
Y80457D02*
Y83231D01*
Y80457D02*
X253280D01*
X241280Y90457D02*
Y93231D01*
Y90457D02*
X253280D01*
X241280Y100457D02*
X253280D01*
X408607Y35925D02*
X415838Y43157D01*
X388607Y35925D02*
Y43096D01*
X395168Y49657D01*
X388607Y35925D02*
Y39296D01*
X454700Y63157D02*
Y72157D01*
Y81157D02*
X454980Y81436D01*
Y90157D01*
X463979Y99157D02*
X469467D01*
X463980Y90157D02*
X472167D01*
X404107Y62617D02*
Y68096D01*
X414107Y62617D02*
X414168Y62678D01*
Y69657D01*
X448668Y72157D02*
X454700D01*
X454980Y99157D02*
Y108157D01*
X414107Y100217D02*
Y104096D01*
X341668Y81157D02*
X347168D01*
X356447Y72157D02*
X371846D01*
X347767Y63157D02*
X356607Y71997D01*
X347168Y63157D02*
X347767D01*
X356447Y72157D02*
X356607Y71997D01*
X356168Y81157D02*
Y90157D01*
X418607Y123917D02*
Y127557D01*
X414507Y131657D02*
X418607Y127557D01*
X354007Y119157D02*
X356007Y117157D01*
X353507Y119157D02*
X354007D01*
X356107Y108057D02*
X356207Y108157D01*
X356107Y99157D02*
Y108057D01*
X389107Y100217D02*
Y104750D01*
X356168Y81090D02*
X393280D01*
X399107Y86917D01*
Y100217D01*
X340157Y191220D02*
X348208Y183169D01*
Y165413D02*
Y183169D01*
X340157Y157362D02*
X348208Y165413D01*
X444488Y157362D02*
X450779Y163654D01*
Y184929D01*
X444488Y191220D02*
X450779Y184929D01*
X76299Y193913D02*
Y203913D01*
X100626Y184913D02*
X113799D01*
X100539Y184827D02*
X100626Y184913D01*
X431068Y49657D02*
X434568Y53157D01*
X404107Y83417D02*
Y100217D01*
X434568Y53157D02*
Y75257D01*
X405512Y157362D02*
X411581D01*
X405512Y191220D02*
X411900Y184833D01*
Y167044D02*
Y184833D01*
X411581Y157362D02*
X424900Y144044D01*
X429107Y62617D02*
Y66836D01*
X425900Y70044D02*
X429107Y66836D01*
X425900Y70044D02*
Y71544D01*
X411900Y167044D02*
X429900Y149044D01*
X436668Y145320D02*
Y173657D01*
Y145320D02*
X440786Y141202D01*
X395168Y49657D02*
X402668D01*
X411667D02*
X431068D01*
X347007Y126157D02*
X356007Y117157D01*
Y117157D02*
Y117157D01*
X463979Y108157D02*
Y138057D01*
X103780Y194457D02*
X113149D01*
X356007Y126157D02*
X359980D01*
X365480Y131657D01*
X414507D01*
X429107Y100217D02*
X432607D01*
X429900Y123717D02*
Y149044D01*
X432607Y113044D02*
Y114217D01*
X424900Y121925D02*
X432607Y114217D01*
X424900Y121925D02*
Y144044D01*
X394107Y100217D02*
Y107750D01*
X155958Y95665D02*
X160258D01*
X155958Y92516D02*
X160258D01*
X163478Y90600D02*
Y112390D01*
X161421Y115394D02*
X166921D01*
X166917Y90327D02*
Y112390D01*
X162454Y86020D02*
Y89577D01*
X163478Y90600D01*
X165604Y86020D02*
Y89013D01*
X166917Y90327D01*
X168754Y117226D02*
Y121059D01*
X166921Y115394D02*
X168754Y117226D01*
X384107Y56500D02*
Y62617D01*
X378064Y50457D02*
X384107Y56500D01*
X327754Y50457D02*
X378064D01*
X349006Y37057D02*
X356505Y29557D01*
X347763Y34057D02*
X355263Y26557D01*
X346520Y31057D02*
X354020Y23557D01*
X80039Y175886D02*
X80099Y175827D01*
X80039Y184414D02*
X80099D01*
X80039Y175886D02*
Y184827D01*
X52264Y187000D02*
X59926D01*
X71039Y175886D01*
X80039D01*
Y175827D02*
X80099D01*
X132280Y29000D02*
Y31827D01*
X134599Y34146D01*
Y46827D01*
X139780Y35646D02*
Y45957D01*
Y35646D02*
X142122Y33304D01*
Y29000D02*
Y33304D01*
X144780Y38646D02*
Y45957D01*
Y38646D02*
X151965Y31461D01*
Y29000D02*
Y31461D01*
X149780Y40146D02*
Y45957D01*
Y40146D02*
X160926Y29000D01*
X161807D01*
X178202Y121059D02*
Y124957D01*
X127440Y201957D02*
X136878Y192519D01*
X100650Y201957D02*
X127440D01*
X158568Y127668D02*
X158978D01*
X162068Y131168D02*
X162417D01*
X227061Y95362D02*
X239149D01*
X241280Y100457D02*
Y104143D01*
X184502Y121059D02*
X224364D01*
X241280Y104143D01*
X223749Y98674D02*
X227061Y95362D01*
X190998Y114563D02*
X214643D01*
X190998Y111414D02*
X213520D01*
X220749Y104185D01*
X190998Y108264D02*
X212427D01*
X217749Y102942D01*
X220749Y90662D02*
X225749Y85662D01*
X220749Y90662D02*
Y104185D01*
X225749Y85662D02*
X238849D01*
X254973Y95862D02*
X297834D01*
X337240Y56457D01*
X255461Y86000D02*
X299954D01*
X332497Y53457D01*
X234949Y68407D02*
X244599D01*
X217749Y75507D02*
Y102942D01*
X257335Y74500D02*
X303711D01*
X253280Y78555D02*
X257335Y74500D01*
X136878Y149768D02*
Y192519D01*
Y149768D02*
X158978Y127668D01*
X142000Y151585D02*
Y196335D01*
Y151585D02*
X162417Y131168D01*
X150940Y149574D02*
Y156218D01*
Y149574D02*
X165957Y134557D01*
Y128357D02*
Y134557D01*
Y128357D02*
X167857Y126457D01*
X176702D02*
X178202Y124957D01*
X167857Y126457D02*
X176702D01*
X168957Y130357D02*
X170357Y128957D01*
X160940Y145274D02*
X168957Y137257D01*
X160940Y145274D02*
Y156218D01*
X168957Y130357D02*
Y137257D01*
X179252Y128957D02*
X181352Y126857D01*
X170357Y128957D02*
X179252D01*
X181352Y121059D02*
Y126857D01*
X123457Y105622D02*
Y121059D01*
X132457D02*
X162454D01*
X22343Y187000D02*
X35783Y173559D01*
X58957D02*
X65689Y166827D01*
X35783Y173559D02*
X58957D01*
X65689Y166827D02*
X100539D01*
X467568Y152357D02*
X474168Y145757D01*
Y92157D02*
Y145757D01*
X770753Y131939D02*
X775253Y127439D01*
X770753Y131939D02*
Y172957D01*
X775253Y91457D02*
Y127439D01*
X765480Y88461D02*
X772257D01*
X775253Y91457D01*
X754940Y97796D02*
X760339Y92398D01*
X754940Y97796D02*
Y140957D01*
X760339Y92398D02*
X765480D01*
X757479Y76650D02*
X765479D01*
X739753Y72713D02*
X765480D01*
X739753Y167457D02*
Y172957D01*
X739753Y167457D02*
X739753Y167457D01*
X739753Y158457D02*
Y167457D01*
X739753Y158457D02*
X739753Y158457D01*
X273578Y22057D02*
X343078D01*
X350578Y14557D01*
X32622Y23787D02*
X34537Y21873D01*
X180500Y68457D02*
Y70520D01*
X171903Y79116D02*
X180500Y70520D01*
X171903Y79116D02*
Y86020D01*
X132878Y205457D02*
X142000Y196335D01*
X85650Y205457D02*
X132878D01*
X214643Y114563D02*
X223749Y105457D01*
Y98674D02*
Y105457D01*
X217749Y75507D02*
X227849Y65407D01*
X243370D01*
X245855Y71407D02*
X280205Y37057D01*
X349006D01*
X242128Y62407D02*
X276478Y28057D01*
X240885Y59407D02*
X275235Y25057D01*
X239228Y56407D02*
X273578Y22057D01*
X243370Y65407D02*
X277720Y31057D01*
X244599Y68407D02*
X278949Y34057D01*
X347763D01*
X214749Y74277D02*
X226620Y62407D01*
X214749Y74277D02*
Y101699D01*
X216465Y29000D02*
Y55535D01*
X184502Y80998D02*
Y86020D01*
Y80998D02*
X187500Y78000D01*
X194000D01*
X181352Y79694D02*
Y86020D01*
Y79694D02*
X186195Y74850D01*
X192695D01*
X180500Y68457D02*
X189000D01*
X189000Y68457D01*
Y55520D02*
Y59457D01*
X186500Y53020D02*
X189000Y55520D01*
X194000Y78000D02*
X216465Y55535D01*
X206622Y29000D02*
Y60924D01*
X192695Y74850D02*
X206622Y60924D01*
X178202Y86020D02*
Y90202D01*
X179500Y91500D02*
X185500D01*
X178202Y90202D02*
X179500Y91500D01*
X225377Y59407D02*
X240885D01*
X211749Y73035D02*
X225377Y59407D01*
X211749Y73035D02*
Y100457D01*
X220593Y56407D02*
X239228D01*
X185500Y91500D02*
X220593Y56407D01*
X129500Y94861D02*
X146052Y111414D01*
X155958D01*
X117537Y55127D02*
X119543Y57133D01*
X113410Y51000D02*
X126000Y63590D01*
Y95815D02*
X144748Y114563D01*
X155958D01*
X95873Y21873D02*
X127020Y53020D01*
X34537Y21873D02*
X95873D01*
X127020Y53020D02*
X186500D01*
X684257Y52757D02*
X696339Y64839D01*
X683993Y45757D02*
X699137Y60902D01*
X626780Y50720D02*
X631743Y45757D01*
X626780Y54257D02*
X631740Y59217D01*
X626780Y50720D02*
Y54257D01*
X636780Y50720D02*
Y54257D01*
X631743Y45757D02*
X683993D01*
X636780Y50720D02*
X638243Y49257D01*
X650757D01*
X654257Y52757D02*
X684257D01*
X564000Y19500D02*
X633500D01*
X559943Y23557D02*
X564000Y19500D01*
X323843Y90157D02*
X347168D01*
X309507Y104493D02*
X323843Y90157D01*
X335027Y117157D02*
X347007D01*
X331299Y108157D02*
X347207D01*
X327571Y99157D02*
X347107D01*
X309507Y104493D02*
Y171163D01*
X320280Y119176D02*
X331299Y108157D01*
X320280Y119176D02*
Y152457D01*
X326607Y125577D02*
X335027Y117157D01*
X326607Y125577D02*
Y170417D01*
X315871Y110857D02*
X317085Y109643D01*
X315007Y111721D02*
Y120157D01*
Y111721D02*
X327571Y99157D01*
X352778Y20557D02*
X537689D01*
X608120Y67587D02*
Y76587D01*
X187685Y98815D02*
X190998D01*
X183500Y103000D02*
X187685Y98815D01*
D13*
X709440Y160717D02*
X711701Y158457D01*
X612480Y166520D02*
X613500Y165500D01*
X606000Y166520D02*
X612480D01*
X606000D02*
Y169520D01*
X687000Y116457D02*
X698700D01*
Y117000D02*
Y119000D01*
X699680Y116019D02*
X726784D01*
X758280Y84524D02*
X781279D01*
X711701Y158457D02*
X730753D01*
X610780Y107707D02*
Y112467D01*
X574120Y85587D02*
X608120D01*
Y92547D02*
X610780Y95207D01*
X608120Y85587D02*
Y92547D01*
X781279Y84524D02*
X781279Y84524D01*
X726784Y116019D02*
X758280Y84524D01*
X699657Y119957D02*
X704850D01*
X698700Y119000D02*
X699657Y119957D01*
X698700Y117000D02*
X699680Y116019D01*
X226780Y100457D02*
X232280D01*
X226780Y90457D02*
X232280D01*
X226780Y80457D02*
X232280D01*
D14*
X697940Y117218D02*
Y133718D01*
X709440Y145218D01*
X73400Y77000D02*
Y103730D01*
X71870Y104000D02*
X72500Y104630D01*
X73400Y103730D01*
X73100Y104030D02*
X83335D01*
X72500Y77900D02*
X73400Y77000D01*
X180500Y37850D02*
Y40883D01*
X180500D02*
Y45957D01*
X171650Y29000D02*
X180500Y37850D01*
X32921Y95921D02*
Y104500D01*
X24378Y87378D02*
X32921Y95921D01*
X24378Y75000D02*
Y87378D01*
X113799Y166464D02*
Y175913D01*
X89835Y142500D02*
X113799Y166464D01*
X83335Y104030D02*
X89835Y110530D01*
Y142500D01*
X39614Y104500D02*
Y130114D01*
X53000Y104500D02*
X53500Y104000D01*
X71870D01*
X46307Y48437D02*
Y104500D01*
D16*
X709440Y145218D02*
Y171580D01*
X623224Y189457D02*
X691563D01*
X709440Y171580D01*
X657280Y164299D02*
Y180457D01*
X643198Y150218D02*
X657280Y164299D01*
X641440Y150218D02*
X643198D01*
D17*
X612370Y40500D02*
X617370D01*
X569870D02*
X612370D01*
X683169Y123433D02*
X687000Y119602D01*
Y116457D02*
Y119602D01*
X670440Y123433D02*
X683169D01*
X655780Y116957D02*
X663964D01*
X670440Y123433D01*
X657280Y198457D02*
X683280Y198457D01*
X655780Y91457D02*
Y116957D01*
Y91457D02*
X662780D01*
X667169Y87068D01*
X646779Y54257D02*
X654280Y61757D01*
X664208D02*
X667169Y64718D01*
X654280Y61757D02*
X664208D01*
X667169Y64718D02*
Y87068D01*
X88599Y157099D02*
Y157827D01*
X81500Y150000D02*
X88599Y157099D01*
X180500Y45957D02*
Y46000D01*
Y45957D02*
X180500Y40883D01*
Y40667D02*
Y40883D01*
X195002Y95665D02*
X204002Y86665D01*
X186291Y95665D02*
X195002D01*
X204002Y86665D02*
X204918D01*
X201768Y98815D02*
X204918Y95666D01*
X190998Y98815D02*
X201768D01*
X169823Y46000D02*
X180500D01*
X6500Y84500D02*
Y94500D01*
X83780Y193913D02*
Y198914D01*
X104280Y175913D02*
X113799D01*
X104279Y175914D02*
X104280Y175913D01*
X262280Y80457D02*
X267457D01*
X409107Y62617D02*
Y68096D01*
X182417Y99540D02*
X186291Y95665D01*
X262280Y100457D02*
X266057D01*
X267457Y101857D01*
X262280Y90457D02*
X266157D01*
X267457Y89157D01*
X88284Y157827D02*
X88599D01*
X26228Y104500D02*
Y113468D01*
D18*
X367107Y100218D02*
X383107D01*
D19*
X685780Y106957D02*
D03*
Y91457D02*
D03*
X754940Y140957D02*
D03*
Y158718D02*
D03*
X623224Y189457D02*
D03*
X118000Y33500D02*
D03*
X523370Y12000D02*
D03*
X11000Y74500D02*
D03*
X160940Y156218D02*
D03*
X662343Y28500D02*
D03*
X652500D02*
D03*
X92780Y29000D02*
D03*
X82780D02*
D03*
X72780D02*
D03*
X22780D02*
D03*
X32622D02*
D03*
X42465D02*
D03*
X52307D02*
D03*
X62150D02*
D03*
X132280D02*
D03*
X142122D02*
D03*
X151965D02*
D03*
X161807D02*
D03*
X171650D02*
D03*
X124000Y156218D02*
D03*
X196780Y29000D02*
D03*
X206622D02*
D03*
X216465D02*
D03*
X226307D02*
D03*
X575000Y28500D02*
D03*
X584842D02*
D03*
X594685D02*
D03*
X604528D02*
D03*
X614370D02*
D03*
X543370Y12000D02*
D03*
X533370D02*
D03*
D20*
X636780Y54257D02*
D03*
X626780Y64257D02*
D03*
X646780Y54257D02*
D03*
X626780D02*
D03*
X636780Y64257D02*
D03*
X646780D02*
D03*
D21*
X580500Y191220D02*
D03*
Y181220D02*
D03*
X273228Y191220D02*
D03*
Y181220D02*
D03*
X340158Y147362D02*
D03*
Y157362D02*
D03*
Y191220D02*
D03*
Y181220D02*
D03*
X405512D02*
D03*
Y191220D02*
D03*
X215354Y174291D02*
D03*
Y164291D02*
D03*
X196850D02*
D03*
Y174291D02*
D03*
X273228Y157362D02*
D03*
Y147362D02*
D03*
X509449D02*
D03*
Y157362D02*
D03*
X444488Y191220D02*
D03*
Y181220D02*
D03*
Y147362D02*
D03*
Y157362D02*
D03*
X509449Y191220D02*
D03*
Y181220D02*
D03*
X405512Y147362D02*
D03*
Y157362D02*
D03*
D22*
X709440Y145218D02*
D03*
X719282D02*
D03*
X641440Y150218D02*
D03*
X631597D02*
D03*
X81500Y140157D02*
D03*
Y150000D02*
D03*
X13335Y37000D02*
D03*
Y46842D02*
D03*
X73400Y67158D02*
D03*
Y77000D02*
D03*
X101800Y113842D02*
D03*
Y104000D02*
D03*
X418607Y123917D02*
D03*
X408607D02*
D03*
X398607D02*
D03*
X388607D02*
D03*
X378607D02*
D03*
X368607D02*
D03*
Y35925D02*
D03*
X378607D02*
D03*
X418607D02*
D03*
X408607D02*
D03*
X398607D02*
D03*
X388607D02*
D03*
D23*
X52264Y187000D02*
D03*
X22343D02*
D03*
D24*
X553370Y12000D02*
D03*
X150940Y156218D02*
D03*
D25*
X606000Y169520D02*
D03*
X610780Y107707D02*
D03*
X568853Y67587D02*
D03*
X515823Y14557D02*
D03*
X526870Y20557D02*
D03*
X529370Y17557D02*
D03*
X591120Y71586D02*
D03*
X608120Y71587D02*
D03*
X586120Y85587D02*
D03*
X570380Y54500D02*
D03*
X586870D02*
D03*
X603870D02*
D03*
X617370Y40500D02*
D03*
X627500Y165500D02*
D03*
X699350Y92398D02*
D03*
X641780Y91457D02*
D03*
Y125457D02*
D03*
Y108727D02*
D03*
X267457Y80457D02*
D03*
X27457Y93559D02*
D03*
X23957Y90559D02*
D03*
X226249Y71407D02*
D03*
X234949Y68407D02*
D03*
X162417Y131168D02*
D03*
X166917Y112390D02*
D03*
X163478D02*
D03*
X182417Y99540D02*
D03*
X160458Y95865D02*
D03*
X83780Y198914D02*
D03*
X362046Y63157D02*
D03*
X399107Y55217D02*
D03*
X467568Y152357D02*
D03*
X488968Y179157D02*
D03*
X463979Y138057D02*
D03*
X469467Y99157D02*
D03*
X481668Y130557D02*
D03*
X404107Y68096D02*
D03*
X379580Y74957D02*
D03*
X448668Y72157D02*
D03*
X430168D02*
D03*
X436668Y173657D02*
D03*
X341668Y81157D02*
D03*
X290507Y164657D02*
D03*
X309507Y140657D02*
D03*
X326607Y170417D02*
D03*
X320280Y152457D02*
D03*
X226780Y90457D02*
D03*
Y80457D02*
D03*
X226780Y100457D02*
D03*
X267457Y101857D02*
D03*
Y89157D02*
D03*
X437400Y113044D02*
D03*
X432607D02*
D03*
X425900Y71544D02*
D03*
X432607Y100217D02*
D03*
X559500Y4500D02*
D03*
X160458Y92316D02*
D03*
X506500Y4000D02*
D03*
X183500Y112000D02*
D03*
X158978Y127668D02*
D03*
X23957Y93559D02*
D03*
X27457Y90559D02*
D03*
X770753Y172957D02*
D03*
X757479Y76650D02*
D03*
X739753Y72713D02*
D03*
Y172957D02*
D03*
X315007Y120157D02*
D03*
X207000Y80000D02*
D03*
X167500Y77500D02*
D03*
X170500Y59500D02*
D03*
X90000Y65000D02*
D03*
X671000Y116500D02*
D03*
X372500Y85457D02*
D03*
X409107Y68096D02*
D03*
X428607Y36096D02*
D03*
X698850Y45154D02*
D03*
X759480D02*
D03*
X781279Y99524D02*
D03*
X668779Y57524D02*
D03*
D26*
X367107Y100218D02*
D03*
D27*
X190998Y105114D02*
D03*
Y101965D02*
D03*
X155958Y114563D02*
D03*
Y111414D02*
D03*
Y108264D02*
D03*
Y105114D02*
D03*
Y101965D02*
D03*
Y98815D02*
D03*
X190998Y108264D02*
D03*
Y111414D02*
D03*
Y114563D02*
D03*
X155958Y95665D02*
D03*
Y92516D02*
D03*
X190998D02*
D03*
Y95665D02*
D03*
Y98815D02*
D03*
D28*
X180500Y59457D02*
D03*
Y68457D02*
D03*
X189000Y59457D02*
D03*
Y68457D02*
D03*
X373107Y91218D02*
D03*
Y100218D02*
D03*
X113799Y175913D02*
D03*
Y184913D02*
D03*
X80099Y166827D02*
D03*
Y175827D02*
D03*
X204918Y95666D02*
D03*
Y86665D02*
D03*
X633500Y19500D02*
D03*
Y28500D02*
D03*
X88599Y166827D02*
D03*
Y157827D02*
D03*
X781279Y84524D02*
D03*
Y93524D02*
D03*
X658280Y61757D02*
D03*
Y52757D02*
D03*
X673779Y189457D02*
D03*
Y198457D02*
D03*
X683280Y189457D02*
D03*
Y198457D02*
D03*
X569870Y40500D02*
D03*
Y49500D02*
D03*
X578370Y40500D02*
D03*
Y49500D02*
D03*
X586870Y40500D02*
D03*
Y49500D02*
D03*
X595370Y40500D02*
D03*
Y49500D02*
D03*
X603870Y40500D02*
D03*
Y49500D02*
D03*
X612370Y40500D02*
D03*
Y49500D02*
D03*
X574120Y85587D02*
D03*
Y76587D02*
D03*
X591120Y85587D02*
D03*
Y76587D02*
D03*
X608120Y85587D02*
D03*
Y76587D02*
D03*
X621500Y174500D02*
D03*
Y165500D02*
D03*
X613500D02*
D03*
Y174500D02*
D03*
D29*
X171903Y86020D02*
D03*
X165604Y121059D02*
D03*
X175053D02*
D03*
X171903D02*
D03*
X184502D02*
D03*
X181352D02*
D03*
X178202D02*
D03*
X168754D02*
D03*
X165604Y86020D02*
D03*
X162454D02*
D03*
Y121059D02*
D03*
X184502Y86020D02*
D03*
X181352D02*
D03*
X178202D02*
D03*
X175053D02*
D03*
X168754D02*
D03*
D30*
X95799Y193913D02*
D03*
X103279D02*
D03*
X99539Y184827D02*
D03*
X96799Y175914D02*
D03*
X104279D02*
D03*
X100539Y166827D02*
D03*
X76299Y193913D02*
D03*
X83780D02*
D03*
X80039Y184827D02*
D03*
X577860Y58500D02*
D03*
X570380D02*
D03*
X574120Y67587D02*
D03*
X594860Y58500D02*
D03*
X587380D02*
D03*
X591120Y67587D02*
D03*
X611860Y58500D02*
D03*
X604380D02*
D03*
X608120Y67587D02*
D03*
D31*
X253280Y90457D02*
D03*
X262280D02*
D03*
X253280Y80457D02*
D03*
X262280D02*
D03*
X454980Y99157D02*
D03*
X463979D02*
D03*
X463980Y90157D02*
D03*
X454980D02*
D03*
X411667Y49657D02*
D03*
X402668D02*
D03*
X454700Y63157D02*
D03*
X463700D02*
D03*
X454700Y81157D02*
D03*
X463700D02*
D03*
X347168Y63157D02*
D03*
X356168D02*
D03*
Y81157D02*
D03*
X347168D02*
D03*
X347007Y126157D02*
D03*
X356007D02*
D03*
X463700Y72157D02*
D03*
X454700D02*
D03*
X253280Y100457D02*
D03*
X262280D02*
D03*
X76649Y205457D02*
D03*
X85650D02*
D03*
X113149Y194457D02*
D03*
X122150D02*
D03*
X232280Y80457D02*
D03*
X241280D02*
D03*
X347007Y117157D02*
D03*
X356007D02*
D03*
X347207Y108157D02*
D03*
X356207D02*
D03*
X356168Y90157D02*
D03*
X347168D02*
D03*
X356168Y72157D02*
D03*
X347168D02*
D03*
X454980Y108157D02*
D03*
X463979D02*
D03*
X347107Y99157D02*
D03*
X356107D02*
D03*
X123457Y121059D02*
D03*
X132457D02*
D03*
X232280Y90457D02*
D03*
X241280D02*
D03*
X232280Y100457D02*
D03*
X241280D02*
D03*
X189500Y45957D02*
D03*
X180500D02*
D03*
X102000Y43000D02*
D03*
X102100Y51000D02*
D03*
X93100D02*
D03*
X93000Y43000D02*
D03*
X6500Y89500D02*
D03*
X15500D02*
D03*
X739753Y167457D02*
D03*
X730753D02*
D03*
X761753D02*
D03*
X770753D02*
D03*
X739753Y158457D02*
D03*
X730753D02*
D03*
X687000Y116457D02*
D03*
X678000D02*
D03*
X655780Y133957D02*
D03*
X646780D02*
D03*
Y125457D02*
D03*
X655780D02*
D03*
Y91457D02*
D03*
X646780D02*
D03*
X655780Y99957D02*
D03*
X646780D02*
D03*
X655780Y108457D02*
D03*
X646780D02*
D03*
X655780Y116957D02*
D03*
X646780D02*
D03*
X655780Y74457D02*
D03*
X646780D02*
D03*
Y82957D02*
D03*
X655780D02*
D03*
X610780Y95207D02*
D03*
X619780D02*
D03*
X610780Y112467D02*
D03*
X619780D02*
D03*
X623280Y74257D02*
D03*
X632280D02*
D03*
X657280Y168957D02*
D03*
X648280D02*
D03*
X580500Y170260D02*
D03*
X589500D02*
D03*
D32*
X26228Y104500D02*
D03*
X39614D02*
D03*
X32921D02*
D03*
X46307D02*
D03*
X53000D02*
D03*
D33*
X39575Y143388D02*
D03*
D34*
X31500Y49000D02*
D03*
X45870D02*
D03*
D35*
X72500Y118400D02*
D03*
Y104030D02*
D03*
D36*
X48000Y75000D02*
D03*
X24378D02*
D03*
D37*
X134780Y68457D02*
D03*
D38*
X139780D02*
D03*
X144780D02*
D03*
X149780D02*
D03*
X154780D02*
D03*
X159780D02*
D03*
X164780D02*
D03*
X169780D02*
D03*
Y45957D02*
D03*
X164780D02*
D03*
X159780D02*
D03*
X154780D02*
D03*
X149780D02*
D03*
X144780D02*
D03*
X139780D02*
D03*
X134780D02*
D03*
D39*
X704850Y41216D02*
D03*
Y119957D02*
D03*
Y116020D02*
D03*
Y112083D02*
D03*
Y108146D02*
D03*
Y104209D02*
D03*
Y100272D02*
D03*
Y96335D02*
D03*
Y92398D02*
D03*
Y88461D02*
D03*
Y84524D02*
D03*
Y80587D02*
D03*
Y76650D02*
D03*
Y72713D02*
D03*
Y68776D02*
D03*
Y64839D02*
D03*
Y60902D02*
D03*
Y56965D02*
D03*
Y53028D02*
D03*
Y49091D02*
D03*
Y45154D02*
D03*
X765480D02*
D03*
Y49091D02*
D03*
Y53028D02*
D03*
Y56965D02*
D03*
Y60902D02*
D03*
Y64839D02*
D03*
Y68776D02*
D03*
Y72713D02*
D03*
Y76650D02*
D03*
Y80587D02*
D03*
Y84524D02*
D03*
Y88461D02*
D03*
Y92398D02*
D03*
Y96335D02*
D03*
Y100272D02*
D03*
Y104209D02*
D03*
Y108146D02*
D03*
Y112083D02*
D03*
Y116020D02*
D03*
Y119957D02*
D03*
D40*
X638280Y98947D02*
D03*
Y91467D02*
D03*
X629193Y95207D02*
D03*
X638280Y116207D02*
D03*
Y108727D02*
D03*
X629193Y112467D02*
D03*
X606000Y174000D02*
D03*
Y166520D02*
D03*
X596913Y170260D02*
D03*
D41*
X657280Y198457D02*
D03*
Y180457D02*
D03*
Y189457D02*
D03*
D42*
X636280D02*
D03*
D43*
X384107Y100217D02*
D03*
X389107D02*
D03*
X394107D02*
D03*
X399107D02*
D03*
X404107D02*
D03*
X409107D02*
D03*
X414107D02*
D03*
X419107D02*
D03*
X424107D02*
D03*
Y62617D02*
D03*
X414107D02*
D03*
X409107D02*
D03*
X404107D02*
D03*
X399107D02*
D03*
X394107D02*
D03*
X389107D02*
D03*
X384107D02*
D03*
X419107D02*
D03*
X429107Y100217D02*
D03*
Y62617D02*
D03*
M02*
