%FSLAX25Y25*%
%MOIN*%
G70*
G01*
G75*
G04 Layer_Color=2752767*
%ADD10C,0.00800*%
%ADD11C,0.00667*%
D10*
X0Y153543D02*
X220472D01*
Y0D02*
Y153543D01*
X0Y0D02*
X220472D01*
X0D02*
Y153543D01*
X3200Y2000D02*
Y6000D01*
X7200D01*
Y2000D01*
X3200D01*
D11*
X196300Y139000D02*
G03*
X196300Y139000I-2000J0D01*
G01*
X3200Y101800D02*
Y105800D01*
X7200D01*
Y101800D01*
X3200D01*
X106142Y136579D02*
G03*
X106142Y136579I-2000J0D01*
G01*
X28594Y129500D02*
X26594Y133500D01*
X30595D01*
X28594Y129500D01*
X7736Y50100D02*
X8736Y51100D01*
X9736D01*
X8736Y52100D01*
X9736Y53100D01*
X8736D01*
X7736Y54100D01*
X6736Y53100D01*
X5736D01*
X6736Y52100D01*
X5736Y51100D01*
X6736D01*
X7736Y50100D01*
X212736Y54500D02*
X213736Y55500D01*
X214736D01*
X213736Y56500D01*
X214736Y57500D01*
X213736D01*
X212736Y58500D01*
X211736Y57500D01*
X210736D01*
X211736Y56500D01*
X210736Y55500D01*
X211736D01*
X212736Y54500D01*
X29736Y75000D02*
X30736Y76000D01*
X31736D01*
X30736Y77000D01*
X31736Y78000D01*
X30736D01*
X29736Y79000D01*
X28736Y78000D01*
X27736D01*
X28736Y77000D01*
X27736Y76000D01*
X28736D01*
X29736Y75000D01*
X19736D02*
X20736Y76000D01*
X21736D01*
X20736Y77000D01*
X21736Y78000D01*
X20736D01*
X19736Y79000D01*
X18736Y78000D01*
X17736D01*
X18736Y77000D01*
X17736Y76000D01*
X18736D01*
X19736Y75000D01*
X49736D02*
X50736Y76000D01*
X51736D01*
X50736Y77000D01*
X51736Y78000D01*
X50736D01*
X49736Y79000D01*
X48736Y78000D01*
X47736D01*
X48736Y77000D01*
X47736Y76000D01*
X48736D01*
X49736Y75000D01*
X59736D02*
X60736Y76000D01*
X61736D01*
X60736Y77000D01*
X61736Y78000D01*
X60736D01*
X59736Y79000D01*
X58736Y78000D01*
X57736D01*
X58736Y77000D01*
X57736Y76000D01*
X58736D01*
X59736Y75000D01*
X69736D02*
X70736Y76000D01*
X71736D01*
X70736Y77000D01*
X71736Y78000D01*
X70736D01*
X69736Y79000D01*
X68736Y78000D01*
X67736D01*
X68736Y77000D01*
X67736Y76000D01*
X68736D01*
X69736Y75000D01*
X79736D02*
X80736Y76000D01*
X81736D01*
X80736Y77000D01*
X81736Y78000D01*
X80736D01*
X79736Y79000D01*
X78736Y78000D01*
X77736D01*
X78736Y77000D01*
X77736Y76000D01*
X78736D01*
X79736Y75000D01*
X89736D02*
X90736Y76000D01*
X91736D01*
X90736Y77000D01*
X91736Y78000D01*
X90736D01*
X89736Y79000D01*
X88736Y78000D01*
X87736D01*
X88736Y77000D01*
X87736Y76000D01*
X88736D01*
X89736Y75000D01*
X7736Y70100D02*
X8736Y71100D01*
X9736D01*
X8736Y72100D01*
X9736Y73100D01*
X8736D01*
X7736Y74100D01*
X6736Y73100D01*
X5736D01*
X6736Y72100D01*
X5736Y71100D01*
X6736D01*
X7736Y70100D01*
Y80100D02*
X8736Y81100D01*
X9736D01*
X8736Y82100D01*
X9736Y83100D01*
X8736D01*
X7736Y84100D01*
X6736Y83100D01*
X5736D01*
X6736Y82100D01*
X5736Y81100D01*
X6736D01*
X7736Y80100D01*
Y60100D02*
X8736Y61100D01*
X9736D01*
X8736Y62100D01*
X9736Y63100D01*
X8736D01*
X7736Y64100D01*
X6736Y63100D01*
X5736D01*
X6736Y62100D01*
X5736Y61100D01*
X6736D01*
X7736Y60100D01*
Y40100D02*
X8736Y41100D01*
X9736D01*
X8736Y42100D01*
X9736Y43100D01*
X8736D01*
X7736Y44100D01*
X6736Y43100D01*
X5736D01*
X6736Y42100D01*
X5736Y41100D01*
X6736D01*
X7736Y40100D01*
Y30100D02*
X8736Y31100D01*
X9736D01*
X8736Y32100D01*
X9736Y33100D01*
X8736D01*
X7736Y34100D01*
X6736Y33100D01*
X5736D01*
X6736Y32100D01*
X5736Y31100D01*
X6736D01*
X7736Y30100D01*
Y20100D02*
X8736Y21100D01*
X9736D01*
X8736Y22100D01*
X9736Y23100D01*
X8736D01*
X7736Y24100D01*
X6736Y23100D01*
X5736D01*
X6736Y22100D01*
X5736Y21100D01*
X6736D01*
X7736Y20100D01*
Y10100D02*
X8736Y11100D01*
X9736D01*
X8736Y12100D01*
X9736Y13100D01*
X8736D01*
X7736Y14100D01*
X6736Y13100D01*
X5736D01*
X6736Y12100D01*
X5736Y11100D01*
X6736D01*
X7736Y10100D01*
X102236Y64500D02*
X103236Y65500D01*
X104236D01*
X103236Y66500D01*
X104236Y67500D01*
X103236D01*
X102236Y68500D01*
X101236Y67500D01*
X100236D01*
X101236Y66500D01*
X100236Y65500D01*
X101236D01*
X102236Y64500D01*
Y74500D02*
X103236Y75500D01*
X104236D01*
X103236Y76500D01*
X104236Y77500D01*
X103236D01*
X102236Y78500D01*
X101236Y77500D01*
X100236D01*
X101236Y76500D01*
X100236Y75500D01*
X101236D01*
X102236Y74500D01*
Y54500D02*
X103236Y55500D01*
X104236D01*
X103236Y56500D01*
X104236Y57500D01*
X103236D01*
X102236Y58500D01*
X101236Y57500D01*
X100236D01*
X101236Y56500D01*
X100236Y55500D01*
X101236D01*
X102236Y54500D01*
Y44500D02*
X103236Y45500D01*
X104236D01*
X103236Y46500D01*
X104236Y47500D01*
X103236D01*
X102236Y48500D01*
X101236Y47500D01*
X100236D01*
X101236Y46500D01*
X100236Y45500D01*
X101236D01*
X102236Y44500D01*
Y34500D02*
X103236Y35500D01*
X104236D01*
X103236Y36500D01*
X104236Y37500D01*
X103236D01*
X102236Y38500D01*
X101236Y37500D01*
X100236D01*
X101236Y36500D01*
X100236Y35500D01*
X101236D01*
X102236Y34500D01*
Y24500D02*
X103236Y25500D01*
X104236D01*
X103236Y26500D01*
X104236Y27500D01*
X103236D01*
X102236Y28500D01*
X101236Y27500D01*
X100236D01*
X101236Y26500D01*
X100236Y25500D01*
X101236D01*
X102236Y24500D01*
Y14500D02*
X103236Y15500D01*
X104236D01*
X103236Y16500D01*
X104236Y17500D01*
X103236D01*
X102236Y18500D01*
X101236Y17500D01*
X100236D01*
X101236Y16500D01*
X100236Y15500D01*
X101236D01*
X102236Y14500D01*
Y4500D02*
X103236Y5500D01*
X104236D01*
X103236Y6500D01*
X104236Y7500D01*
X103236D01*
X102236Y8500D01*
X101236Y7500D01*
X100236D01*
X101236Y6500D01*
X100236Y5500D01*
X101236D01*
X102236Y4500D01*
X39736D02*
X40736Y5500D01*
X41736D01*
X40736Y6500D01*
X41736Y7500D01*
X40736D01*
X39736Y8500D01*
X38736Y7500D01*
X37736D01*
X38736Y6500D01*
X37736Y5500D01*
X38736D01*
X39736Y4500D01*
X49736D02*
X50736Y5500D01*
X51736D01*
X50736Y6500D01*
X51736Y7500D01*
X50736D01*
X49736Y8500D01*
X48736Y7500D01*
X47736D01*
X48736Y6500D01*
X47736Y5500D01*
X48736D01*
X49736Y4500D01*
X59736D02*
X60736Y5500D01*
X61736D01*
X60736Y6500D01*
X61736Y7500D01*
X60736D01*
X59736Y8500D01*
X58736Y7500D01*
X57736D01*
X58736Y6500D01*
X57736Y5500D01*
X58736D01*
X59736Y4500D01*
X69736D02*
X70736Y5500D01*
X71736D01*
X70736Y6500D01*
X71736Y7500D01*
X70736D01*
X69736Y8500D01*
X68736Y7500D01*
X67736D01*
X68736Y6500D01*
X67736Y5500D01*
X68736D01*
X69736Y4500D01*
X79736D02*
X80736Y5500D01*
X81736D01*
X80736Y6500D01*
X81736Y7500D01*
X80736D01*
X79736Y8500D01*
X78736Y7500D01*
X77736D01*
X78736Y6500D01*
X77736Y5500D01*
X78736D01*
X79736Y4500D01*
X89736D02*
X90736Y5500D01*
X91736D01*
X90736Y6500D01*
X91736Y7500D01*
X90736D01*
X89736Y8500D01*
X88736Y7500D01*
X87736D01*
X88736Y6500D01*
X87736Y5500D01*
X88736D01*
X89736Y4500D01*
X117736Y54500D02*
X118736Y55500D01*
X119736D01*
X118736Y56500D01*
X119736Y57500D01*
X118736D01*
X117736Y58500D01*
X116736Y57500D01*
X115736D01*
X116736Y56500D01*
X115736Y55500D01*
X116736D01*
X117736Y54500D01*
X212736Y44500D02*
X213736Y45500D01*
X214736D01*
X213736Y46500D01*
X214736Y47500D01*
X213736D01*
X212736Y48500D01*
X211736Y47500D01*
X210736D01*
X211736Y46500D01*
X210736Y45500D01*
X211736D01*
X212736Y44500D01*
Y64500D02*
X213736Y65500D01*
X214736D01*
X213736Y66500D01*
X214736Y67500D01*
X213736D01*
X212736Y68500D01*
X211736Y67500D01*
X210736D01*
X211736Y66500D01*
X210736Y65500D01*
X211736D01*
X212736Y64500D01*
X117736D02*
X118736Y65500D01*
X119736D01*
X118736Y66500D01*
X119736Y67500D01*
X118736D01*
X117736Y68500D01*
X116736Y67500D01*
X115736D01*
X116736Y66500D01*
X115736Y65500D01*
X116736D01*
X117736Y64500D01*
Y74500D02*
X118736Y75500D01*
X119736D01*
X118736Y76500D01*
X119736Y77500D01*
X118736D01*
X117736Y78500D01*
X116736Y77500D01*
X115736D01*
X116736Y76500D01*
X115736Y75500D01*
X116736D01*
X117736Y74500D01*
Y34500D02*
X118736Y35500D01*
X119736D01*
X118736Y36500D01*
X119736Y37500D01*
X118736D01*
X117736Y38500D01*
X116736Y37500D01*
X115736D01*
X116736Y36500D01*
X115736Y35500D01*
X116736D01*
X117736Y34500D01*
Y14500D02*
X118736Y15500D01*
X119736D01*
X118736Y16500D01*
X119736Y17500D01*
X118736D01*
X117736Y18500D01*
X116736Y17500D01*
X115736D01*
X116736Y16500D01*
X115736Y15500D01*
X116736D01*
X117736Y14500D01*
Y4500D02*
X118736Y5500D01*
X119736D01*
X118736Y6500D01*
X119736Y7500D01*
X118736D01*
X117736Y8500D01*
X116736Y7500D01*
X115736D01*
X116736Y6500D01*
X115736Y5500D01*
X116736D01*
X117736Y4500D01*
X212736Y74500D02*
X213736Y75500D01*
X214736D01*
X213736Y76500D01*
X214736Y77500D01*
X213736D01*
X212736Y78500D01*
X211736Y77500D01*
X210736D01*
X211736Y76500D01*
X210736Y75500D01*
X211736D01*
X212736Y74500D01*
Y34500D02*
X213736Y35500D01*
X214736D01*
X213736Y36500D01*
X214736Y37500D01*
X213736D01*
X212736Y38500D01*
X211736Y37500D01*
X210736D01*
X211736Y36500D01*
X210736Y35500D01*
X211736D01*
X212736Y34500D01*
Y24500D02*
X213736Y25500D01*
X214736D01*
X213736Y26500D01*
X214736Y27500D01*
X213736D01*
X212736Y28500D01*
X211736Y27500D01*
X210736D01*
X211736Y26500D01*
X210736Y25500D01*
X211736D01*
X212736Y24500D01*
Y14500D02*
X213736Y15500D01*
X214736D01*
X213736Y16500D01*
X214736Y17500D01*
X213736D01*
X212736Y18500D01*
X211736Y17500D01*
X210736D01*
X211736Y16500D01*
X210736Y15500D01*
X211736D01*
X212736Y14500D01*
Y4500D02*
X213736Y5500D01*
X214736D01*
X213736Y6500D01*
X214736Y7500D01*
X213736D01*
X212736Y8500D01*
X211736Y7500D01*
X210736D01*
X211736Y6500D01*
X210736Y5500D01*
X211736D01*
X212736Y4500D01*
X117736Y44500D02*
X118736Y45500D01*
X119736D01*
X118736Y46500D01*
X119736Y47500D01*
X118736D01*
X117736Y48500D01*
X116736Y47500D01*
X115736D01*
X116736Y46500D01*
X115736Y45500D01*
X116736D01*
X117736Y44500D01*
Y24500D02*
X118736Y25500D01*
X119736D01*
X118736Y26500D01*
X119736Y27500D01*
X118736D01*
X117736Y28500D01*
X116736Y27500D01*
X115736D01*
X116736Y26500D01*
X115736Y25500D01*
X116736D01*
X117736Y24500D01*
X19736Y4500D02*
X20736Y5500D01*
X21736D01*
X20736Y6500D01*
X21736Y7500D01*
X20736D01*
X19736Y8500D01*
X18736Y7500D01*
X17736D01*
X18736Y6500D01*
X17736Y5500D01*
X18736D01*
X19736Y4500D01*
X29736D02*
X30736Y5500D01*
X31736D01*
X30736Y6500D01*
X31736Y7500D01*
X30736D01*
X29736Y8500D01*
X28736Y7500D01*
X27736D01*
X28736Y6500D01*
X27736Y5500D01*
X28736D01*
X29736Y4500D01*
X4972Y129500D02*
X2972Y133500D01*
X6972D01*
X4972Y129500D01*
X19933Y111784D02*
X17933Y115784D01*
X21933D01*
X19933Y111784D01*
X39736Y75000D02*
X40736Y76000D01*
X41736D01*
X40736Y77000D01*
X41736Y78000D01*
X40736D01*
X39736Y79000D01*
X38736Y78000D01*
X37736D01*
X38736Y77000D01*
X37736Y76000D01*
X38736D01*
X39736Y75000D01*
X128823Y106260D02*
G03*
X128823Y106260I-2000J0D01*
G01*
X36136Y110600D02*
X37136Y112600D01*
X36136Y114600D01*
X38136Y113600D01*
X40136Y114600D01*
X39136Y112600D01*
X40136Y110600D01*
X38136Y111600D01*
X36136Y110600D01*
X23136Y99600D02*
X24136Y101600D01*
X23136Y103600D01*
X25136Y102600D01*
X27136Y103600D01*
X26136Y101600D01*
X27136Y99600D01*
X25136Y100600D01*
X23136Y99600D01*
X95436Y146700D02*
X96436Y148700D01*
X95436Y150700D01*
X97436Y149700D01*
X99436Y150700D01*
X98436Y148700D01*
X99436Y146700D01*
X97436Y147700D01*
X95436Y146700D01*
X159836Y128800D02*
X160836Y130800D01*
X159836Y132800D01*
X161836Y131800D01*
X163836Y132800D01*
X162836Y130800D01*
X163836Y128800D01*
X161836Y129800D01*
X159836Y128800D01*
X146536Y128400D02*
X147536Y130400D01*
X146536Y132400D01*
X148536Y131400D01*
X150536Y132400D01*
X149536Y130400D01*
X150536Y128400D01*
X148536Y129400D01*
X146536Y128400D01*
X111136Y145700D02*
X112136Y147700D01*
X111136Y149700D01*
X113136Y148700D01*
X115136Y149700D01*
X114136Y147700D01*
X115136Y145700D01*
X113136Y146700D01*
X111136Y145700D01*
X216036Y124800D02*
X217036Y126800D01*
X216036Y128800D01*
X218036Y127800D01*
X220036Y128800D01*
X219036Y126800D01*
X220036Y124800D01*
X218036Y125800D01*
X216036Y124800D01*
Y116926D02*
X217036Y118926D01*
X216036Y120926D01*
X218036Y119926D01*
X220036Y120926D01*
X219036Y118926D01*
X220036Y116926D01*
X218036Y117926D01*
X216036Y116926D01*
Y132674D02*
X217036Y134674D01*
X216036Y136674D01*
X218036Y135674D01*
X220036Y136674D01*
X219036Y134674D01*
X220036Y132674D01*
X218036Y133674D01*
X216036Y132674D01*
X194436Y116926D02*
X195436Y118926D01*
X194436Y120926D01*
X196436Y119926D01*
X198436Y120926D01*
X197436Y118926D01*
X198436Y116926D01*
X196436Y117926D01*
X194436Y116926D01*
Y124800D02*
X195436Y126800D01*
X194436Y128800D01*
X196436Y127800D01*
X198436Y128800D01*
X197436Y126800D01*
X198436Y124800D01*
X196436Y125800D01*
X194436Y124800D01*
Y132674D02*
X195436Y134674D01*
X194436Y136674D01*
X196436Y135674D01*
X198436Y136674D01*
X197436Y134674D01*
X198436Y132674D01*
X196436Y133674D01*
X194436Y132674D01*
X83823Y122260D02*
Y121260D01*
X85823D01*
Y122260D01*
X86823D01*
Y124260D01*
X85823D01*
Y125260D01*
X83823D01*
Y124260D01*
X82823D01*
Y122260D01*
X83823D01*
X38828Y64754D02*
X39828Y66754D01*
X38828Y68754D01*
X40828Y67754D01*
X42828Y68754D01*
X41828Y66754D01*
X42828Y64754D01*
X40828Y65754D01*
X38828Y64754D01*
X154736Y78000D02*
X155736Y80000D01*
X154736Y82000D01*
X156736Y81000D01*
X158736Y82000D01*
X157736Y80000D01*
X158736Y78000D01*
X156736Y79000D01*
X154736Y78000D01*
X144736Y87000D02*
X145736Y89000D01*
X144736Y91000D01*
X146736Y90000D01*
X148736Y91000D01*
X147736Y89000D01*
X148736Y87000D01*
X146736Y88000D01*
X144736Y87000D01*
X143236Y120500D02*
X144236Y122500D01*
X143236Y124500D01*
X145236Y123500D01*
X147236Y124500D01*
X146236Y122500D01*
X147236Y120500D01*
X145236Y121500D01*
X143236Y120500D01*
X163236Y110980D02*
X164236Y112980D01*
X163236Y114980D01*
X165236Y113980D01*
X167236Y114980D01*
X166236Y112980D01*
X167236Y110980D01*
X165236Y111980D01*
X163236Y110980D01*
X191217Y142000D02*
X192217Y144000D01*
X191217Y146000D01*
X193217Y145000D01*
X195217Y146000D01*
X194217Y144000D01*
X195217Y142000D01*
X193217Y143000D01*
X191217Y142000D01*
X174236Y109500D02*
X175236Y111500D01*
X174236Y113500D01*
X176236Y112500D01*
X178236Y113500D01*
X177236Y111500D01*
X178236Y109500D01*
X176236Y110500D01*
X174236Y109500D01*
X191736Y44480D02*
X192736Y46480D01*
X191736Y48480D01*
X193736Y47480D01*
X195736Y48480D01*
X194736Y46480D01*
X195736Y44480D01*
X193736Y45480D01*
X191736Y44480D01*
X160736Y29980D02*
X161736Y31980D01*
X160736Y33980D01*
X162736Y32980D01*
X164736Y33980D01*
X163736Y31980D01*
X164736Y29980D01*
X162736Y30980D01*
X160736Y29980D01*
Y17480D02*
X161736Y19480D01*
X160736Y21480D01*
X162736Y20480D01*
X164736Y21480D01*
X163736Y19480D01*
X164736Y17480D01*
X162736Y18480D01*
X160736Y17480D01*
X168736Y17980D02*
X169736Y19980D01*
X168736Y21980D01*
X170736Y20980D01*
X172736Y21980D01*
X171736Y19980D01*
X172736Y17980D01*
X170736Y18980D01*
X168736Y17980D01*
X130736Y18480D02*
X131736Y20480D01*
X130736Y22480D01*
X132736Y21480D01*
X134736Y22480D01*
X133736Y20480D01*
X134736Y18480D01*
X132736Y19480D01*
X130736Y18480D01*
Y37346D02*
X131736Y39346D01*
X130736Y41346D01*
X132736Y40346D01*
X134736Y41346D01*
X133736Y39346D01*
X134736Y37346D01*
X132736Y38346D01*
X130736Y37346D01*
X144736Y110000D02*
X145736Y112000D01*
X144736Y114000D01*
X146736Y113000D01*
X148736Y114000D01*
X147736Y112000D01*
X148736Y110000D01*
X146736Y111000D01*
X144736Y110000D01*
X159236Y60480D02*
X160236Y62480D01*
X159236Y64480D01*
X161236Y63480D01*
X163236Y64480D01*
X162236Y62480D01*
X163236Y60480D01*
X161236Y61480D01*
X159236Y60480D01*
X201854Y63346D02*
X202854Y65346D01*
X201854Y67347D01*
X203854Y66347D01*
X205854Y67347D01*
X204854Y65346D01*
X205854Y63346D01*
X203854Y64346D01*
X201854Y63346D01*
X183354Y81346D02*
X184354Y83346D01*
X183354Y85347D01*
X185354Y84346D01*
X187354Y85347D01*
X186354Y83346D01*
X187354Y81346D01*
X185354Y82346D01*
X183354Y81346D01*
X172354Y72008D02*
X173354Y74008D01*
X172354Y76008D01*
X174354Y75008D01*
X176354Y76008D01*
X175354Y74008D01*
X176354Y72008D01*
X174354Y73008D01*
X172354Y72008D01*
X151236Y132000D02*
X152236Y134000D01*
X151236Y136000D01*
X153236Y135000D01*
X155236Y136000D01*
X154236Y134000D01*
X155236Y132000D01*
X153236Y133000D01*
X151236Y132000D01*
X155736D02*
X156736Y134000D01*
X155736Y136000D01*
X157736Y135000D01*
X159736Y136000D01*
X158736Y134000D01*
X159736Y132000D01*
X157736Y133000D01*
X155736Y132000D01*
X127236Y72000D02*
X128236Y74000D01*
X127236Y76000D01*
X129236Y75000D01*
X131236Y76000D01*
X130236Y74000D01*
X131236Y72000D01*
X129236Y73000D01*
X127236Y72000D01*
X181150Y37740D02*
X182150Y39740D01*
X181150Y41740D01*
X183150Y40740D01*
X185150Y41740D01*
X184150Y39740D01*
X185150Y37740D01*
X183150Y38740D01*
X181150Y37740D01*
X175736Y14500D02*
X176736Y16500D01*
X175736Y18500D01*
X177736Y17500D01*
X179736Y18500D01*
X178736Y16500D01*
X179736Y14500D01*
X177736Y15500D01*
X175736Y14500D01*
X184736Y17827D02*
X185736Y19827D01*
X184736Y21827D01*
X186736Y20827D01*
X188736Y21827D01*
X187736Y19827D01*
X188736Y17827D01*
X186736Y18827D01*
X184736Y17827D01*
X170150Y62240D02*
X171150Y64240D01*
X170150Y66240D01*
X172150Y65240D01*
X174150Y66240D01*
X173150Y64240D01*
X174150Y62240D01*
X172150Y63240D01*
X170150Y62240D01*
X141618Y67677D02*
X142618Y69677D01*
X141618Y71677D01*
X143618Y70677D01*
X145618Y71677D01*
X144618Y69677D01*
X145618Y67677D01*
X143618Y68677D01*
X141618Y67677D01*
X154996Y84587D02*
X155996Y86587D01*
X154996Y88587D01*
X156996Y87587D01*
X158996Y88587D01*
X157996Y86587D01*
X158996Y84587D01*
X156996Y85587D01*
X154996Y84587D01*
X119150Y84413D02*
X120150Y86413D01*
X119150Y88413D01*
X121150Y87413D01*
X123150Y88413D01*
X122150Y86413D01*
X123150Y84413D01*
X121150Y85413D01*
X119150Y84413D01*
X126496Y140587D02*
X127496Y142587D01*
X126496Y144587D01*
X128496Y143587D01*
X130496Y144587D01*
X129496Y142587D01*
X130496Y140587D01*
X128496Y141587D01*
X126496Y140587D01*
X136496Y135587D02*
X137496Y137587D01*
X136496Y139587D01*
X138496Y138587D01*
X140496Y139587D01*
X139496Y137587D01*
X140496Y135587D01*
X138496Y136587D01*
X136496Y135587D01*
X119236Y135480D02*
X120236Y137480D01*
X119236Y139480D01*
X121236Y138480D01*
X123236Y139480D01*
X122236Y137480D01*
X123236Y135480D01*
X121236Y136480D01*
X119236Y135480D01*
X147496Y102760D02*
X148496Y104760D01*
X147496Y106760D01*
X149496Y105760D01*
X151496Y106760D01*
X150496Y104760D01*
X151496Y102760D01*
X149496Y103760D01*
X147496Y102760D01*
X83323Y133760D02*
X84323Y135760D01*
X83323Y137760D01*
X85323Y136760D01*
X87323Y137760D01*
X86323Y135760D01*
X87323Y133760D01*
X85323Y134760D01*
X83323Y133760D01*
X82823Y140760D02*
X83823Y142760D01*
X82823Y144760D01*
X84823Y143760D01*
X86823Y144760D01*
X85823Y142760D01*
X86823Y140760D01*
X84823Y141760D01*
X82823Y140760D01*
M02*
