M48
;Layer_Color=9474304
;FILE_FORMAT=2:5
INCH,TZ
;TYPE=PLATED
T1F00S00C0.01200
T3F00S00C0.02800
T4F00S00C0.03000
T5F00S00C0.03500
T6F00S00C0.04000
%
T01
X132736Y20480
Y39346
X162736Y31980
Y19480
X170736Y19980
X177736Y16500
X186736Y19827
X183150Y39740
X193736Y46480
X203854Y65346
X172150Y64240
X161236Y62480
X40828Y66754
X38136Y112600
X25136Y101600
X85323Y135760
X84823Y142760
X97436Y148700
X113136Y147700
X121236Y137480
X128496Y142587
X138496Y137587
X148536Y130400
X153236Y134000
X157736
X161836Y130800
X165236Y112980
X176236Y111500
X196436Y118926
Y126800
Y134674
X193217Y144000
X185354Y83346
X174354Y74008
X156736Y80000
X156996Y86587
X146736Y89000
X149496Y104760
X146736Y112000
X145236Y122500
X143618Y69677
X129236Y74000
X121150Y86413
X218036Y118926
Y126800
Y134674
T03
X84823Y123260
T04
X126823Y106260
X104142Y136579
X194300Y139000
T05
X5200Y4000
Y103800
T06
X59736Y6500
X69736
X79736
X89736
X102236
Y16500
Y26500
Y36500
Y46500
Y56500
Y66500
X117736
Y56500
Y46500
Y36500
Y26500
Y16500
Y6500
X212736
Y16500
Y26500
Y36500
Y46500
Y56500
Y66500
X7736Y62100
Y52100
Y42100
Y32100
Y22100
Y12100
X19736Y6500
X29736
X39736
X49736
Y77000
X39736
X29736
X19736
X7736Y72100
Y82100
X59736Y77000
X69736
X79736
X89736
X102236Y76500
X117736
X212736
M30
