%FSLAX25Y25*%
%MOIN*%
G70*
G01*
G75*
G04 Layer_Color=16711935*
%ADD10C,0.02000*%
%ADD11C,0.03000*%
%ADD12C,0.01000*%
%ADD13C,0.01500*%
%ADD14C,0.06000*%
%ADD15R,0.06000X0.06000*%
%ADD16O,0.19685X0.07087*%
%ADD17C,0.07000*%
%ADD18C,0.06300*%
%ADD19C,0.02500*%
%ADD20R,0.02400X0.07600*%
%ADD21O,0.02400X0.07600*%
%ADD22R,0.06000X0.05000*%
%ADD23R,0.05000X0.06000*%
%ADD24C,0.00700*%
%ADD25C,0.00500*%
%ADD26C,0.00100*%
%ADD27C,0.00200*%
%ADD28C,0.00600*%
%ADD29R,0.00900X0.00700*%
%ADD30R,0.00446X0.00990*%
%ADD31C,0.00400*%
%ADD32C,0.06800*%
%ADD33R,0.06800X0.06800*%
%ADD34O,0.20485X0.07887*%
%ADD35C,0.07800*%
%ADD36C,0.07100*%
%ADD37R,0.03200X0.08400*%
%ADD38O,0.03200X0.08400*%
%ADD39R,0.06800X0.05800*%
%ADD40R,0.05800X0.06800*%
D32*
X160000Y11988D02*
D03*
X150000D02*
D03*
X140000D02*
D03*
D33*
X170000D02*
D03*
D34*
X390551Y26378D02*
D03*
X193701D02*
D03*
X95276D02*
D03*
X292126D02*
D03*
D35*
X19248Y84378D02*
D03*
X29091D02*
D03*
X38933D02*
D03*
X48776D02*
D03*
D36*
X401575Y61102D02*
D03*
Y51102D02*
D03*
X303150D02*
D03*
Y61102D02*
D03*
X204724D02*
D03*
Y51102D02*
D03*
X106299D02*
D03*
Y61102D02*
D03*
D37*
X271776Y84378D02*
D03*
X266776D02*
D03*
X261776D02*
D03*
X256776D02*
D03*
X251776D02*
D03*
X246776D02*
D03*
X241776D02*
D03*
X236776D02*
D03*
Y61878D02*
D03*
X241776D02*
D03*
X246776D02*
D03*
X251776D02*
D03*
X256776D02*
D03*
X261776D02*
D03*
X266776D02*
D03*
D38*
X271776D02*
D03*
D39*
X144075Y61102D02*
D03*
X135075D02*
D03*
Y30378D02*
D03*
X144075D02*
D03*
X362500Y61102D02*
D03*
X371500D02*
D03*
Y25988D02*
D03*
X362500D02*
D03*
D40*
X227575Y75602D02*
D03*
Y84602D02*
D03*
X277051Y26488D02*
D03*
Y35488D02*
D03*
X233575Y38878D02*
D03*
Y47878D02*
D03*
X281075Y84602D02*
D03*
Y75602D02*
D03*
X251776Y38878D02*
D03*
Y47878D02*
D03*
X266776D02*
D03*
Y38878D02*
D03*
M02*
