%FSLAX25Y25*%
%MOIN*%
G70*
G01*
G75*
G04 Layer_Physical_Order=2*
G04 Layer_Color=16711680*
%ADD10C,0.02000*%
%ADD11C,0.03000*%
%ADD12C,0.01000*%
%ADD13C,0.01500*%
%ADD14C,0.06000*%
%ADD15R,0.06000X0.06000*%
%ADD16O,0.19685X0.07087*%
%ADD17C,0.07000*%
%ADD18C,0.06300*%
%ADD19C,0.02500*%
%ADD20R,0.02400X0.07600*%
%ADD21O,0.02400X0.07600*%
%ADD22R,0.06000X0.05000*%
%ADD23R,0.05000X0.06000*%
%ADD24C,0.00700*%
D10*
X303150Y51102D02*
X401575D01*
X106299D02*
X204724D01*
X260276Y6878D02*
Y44878D01*
X251776Y47878D02*
Y61878D01*
X266776Y48878D02*
Y61878D01*
X260276Y44878D02*
X263276Y47878D01*
X263276D02*
X266776D01*
D12*
X150000Y11988D02*
Y17213D01*
X69665Y17488D02*
X235886D01*
X57748Y29406D02*
X69665Y17488D01*
X55276Y31878D02*
X57748Y29406D01*
X50776Y29878D02*
X74165Y6488D01*
X160000Y6713D02*
Y11988D01*
X246776Y20878D02*
Y61878D01*
X232386Y6488D02*
X246776Y20878D01*
X241776Y23378D02*
Y61878D01*
X235886Y17488D02*
X241776Y23378D01*
X335500Y61102D02*
X362500D01*
X253276Y91378D02*
X326610D01*
X330000Y66602D02*
X335500Y61102D01*
X330000Y66602D02*
Y87988D01*
X326610Y91378D02*
X330000Y87988D01*
X178500Y86988D02*
X183000Y91488D01*
X235276D01*
X178500Y70988D02*
Y86988D01*
X168614Y61102D02*
X178500Y70988D01*
X144075Y61102D02*
X168614D01*
X234386Y78102D02*
X240276D01*
X227886Y84602D02*
X234386Y78102D01*
X227575Y84602D02*
X227886D01*
X371500Y61102D02*
X401575D01*
X227575Y71677D02*
Y75602D01*
X227075Y84602D02*
Y85602D01*
X204724Y61102D02*
X223500D01*
X224276Y61878D01*
Y68378D01*
X227575Y71677D01*
Y83579D02*
Y83602D01*
X281075Y64102D02*
X284075Y61102D01*
X281075Y64102D02*
Y75602D01*
X106299Y61102D02*
X135075D01*
X276075Y84602D02*
X281075D01*
X284075Y61102D02*
X303150D01*
X236776Y84378D02*
Y89988D01*
X235276Y91488D02*
X236776Y89988D01*
X246776Y78102D02*
Y84378D01*
X251776Y89878D02*
X253276Y91378D01*
X251776Y84378D02*
Y89878D01*
X240276Y78102D02*
X241776Y79602D01*
Y84378D01*
X29091Y79909D02*
Y84378D01*
Y79909D02*
X50776Y58224D01*
X159776Y6488D02*
X160000Y6713D01*
X50776Y29878D02*
Y58224D01*
X74165Y6488D02*
X232386D01*
X38933Y80067D02*
Y84378D01*
Y80067D02*
X55276Y63724D01*
Y31878D02*
Y63724D01*
D13*
X266776Y32213D02*
Y38878D01*
X251776Y32213D02*
Y38878D01*
X254925D01*
X256776Y40728D01*
Y61878D01*
D14*
X160000Y11988D02*
D03*
X150000D02*
D03*
X140000D02*
D03*
D15*
X170000D02*
D03*
D16*
X390551Y26378D02*
D03*
X193701D02*
D03*
X95276D02*
D03*
X292126D02*
D03*
D17*
X19248Y84378D02*
D03*
X29091D02*
D03*
X38933D02*
D03*
X48776D02*
D03*
D18*
X401575Y61102D02*
D03*
Y51102D02*
D03*
X303150D02*
D03*
Y61102D02*
D03*
X204724D02*
D03*
Y51102D02*
D03*
X106299D02*
D03*
Y61102D02*
D03*
D19*
X260276Y6878D02*
D03*
X346500Y51102D02*
D03*
X140000Y50988D02*
D03*
X266776Y32213D02*
D03*
X251776D02*
D03*
X66929Y468504D02*
D03*
X246776Y78102D02*
D03*
X276075Y84602D02*
D03*
D20*
X271776Y84378D02*
D03*
X266776D02*
D03*
X261776D02*
D03*
X256776D02*
D03*
X251776D02*
D03*
X246776D02*
D03*
X241776D02*
D03*
X236776D02*
D03*
Y61878D02*
D03*
X241776D02*
D03*
X246776D02*
D03*
X251776D02*
D03*
X256776D02*
D03*
X261776D02*
D03*
X266776D02*
D03*
D21*
X271776D02*
D03*
D22*
X144075Y61102D02*
D03*
X135075D02*
D03*
Y30378D02*
D03*
X144075D02*
D03*
X362500Y61102D02*
D03*
X371500D02*
D03*
Y25988D02*
D03*
X362500D02*
D03*
D23*
X227575Y75602D02*
D03*
Y84602D02*
D03*
X277051Y26488D02*
D03*
Y35488D02*
D03*
X233575Y38878D02*
D03*
Y47878D02*
D03*
X281075Y84602D02*
D03*
Y75602D02*
D03*
X251776Y38878D02*
D03*
Y47878D02*
D03*
X266776D02*
D03*
Y38878D02*
D03*
D24*
X131500Y20988D02*
X135075Y24563D01*
X106000Y20988D02*
X131500D01*
X283051Y40488D02*
X343165D01*
X357665Y25988D02*
X362500D01*
X343165Y40488D02*
X357665Y25988D01*
X232500Y52153D02*
Y66303D01*
Y52153D02*
X233575Y51079D01*
Y47878D02*
Y51079D01*
Y31602D02*
Y38878D01*
X292126Y26378D02*
X295016Y23488D01*
X232500Y66303D02*
X236075Y69878D01*
X232500Y47177D02*
X233575Y46102D01*
X95276Y26378D02*
X100610D01*
X135075Y24563D02*
Y30378D01*
X227276Y65303D02*
X235850Y73878D01*
X227276Y45303D02*
Y65303D01*
X281015Y42525D02*
Y57878D01*
X271776Y74901D02*
X276379Y70298D01*
X278276Y60617D02*
X281015Y57878D01*
X278276Y60617D02*
Y68401D01*
X276379Y70298D02*
X278276Y68401D01*
X163000Y42102D02*
X224075D01*
X151276Y30378D02*
X163000Y42102D01*
X144075Y30378D02*
X151276D01*
X224075Y42102D02*
X227276Y45303D01*
X235850Y73878D02*
X253776D01*
X236075Y69878D02*
X258276D01*
X271776Y74901D02*
Y84378D01*
X275075Y53079D02*
Y65602D01*
X266776Y73901D02*
Y84378D01*
Y73901D02*
X275075Y65602D01*
Y53079D02*
X277051Y51102D01*
Y35488D02*
Y51102D01*
X281015Y42525D02*
X283051Y40488D01*
X290661Y26378D02*
X292126D01*
X290551Y26488D02*
X290661Y26378D01*
X277051Y26488D02*
X290551D01*
X371500Y25988D02*
X390051D01*
X258276Y69878D02*
X261776Y73378D01*
X253776Y73878D02*
X256776Y76878D01*
X261776Y73378D02*
Y84378D01*
X256776Y76878D02*
Y84378D01*
X100610Y26378D02*
X106000Y20988D01*
X193701Y26378D02*
X198591Y21488D01*
X223461D01*
X233575Y31602D01*
M02*
