%FSLAX25Y25*%
%MOIN*%
G70*
G01*
G75*
G04 Layer_Physical_Order=1*
G04 Layer_Color=255*
%ADD10C,0.02000*%
%ADD11C,0.03000*%
%ADD12C,0.01000*%
%ADD13C,0.01500*%
%ADD14C,0.06000*%
%ADD15R,0.06000X0.06000*%
%ADD16O,0.19685X0.07087*%
%ADD17C,0.07000*%
%ADD18C,0.06300*%
%ADD19C,0.02500*%
D10*
X19248Y44405D02*
X60165Y3488D01*
X256886D01*
X170000Y3764D02*
Y11988D01*
X256886Y3488D02*
X260276Y6878D01*
X19248Y44405D02*
Y84378D01*
D11*
X81665Y11988D02*
X140000D01*
X60776Y32878D02*
X81665Y11988D01*
X140000D02*
Y50988D01*
Y17488D02*
X143500Y20988D01*
X251776Y14878D02*
Y32213D01*
X250276Y13378D02*
X251776Y14878D01*
X181610Y12378D02*
X333890D01*
X346500Y24988D01*
X143500Y20988D02*
X173000D01*
X346500Y24988D02*
Y51102D01*
X174759Y19229D02*
X181610Y12378D01*
X173000Y20988D02*
X174759Y19229D01*
X48776Y79724D02*
X60776Y67724D01*
X48776Y79724D02*
Y84378D01*
X60776Y32878D02*
Y67724D01*
D12*
X246776Y78102D02*
X274575D01*
X276075Y79602D01*
Y84602D01*
D13*
X251776Y32213D02*
X266776D01*
D14*
X160000Y11988D02*
D03*
X150000D02*
D03*
X140000D02*
D03*
D15*
X170000D02*
D03*
D16*
X390551Y26378D02*
D03*
X193701D02*
D03*
X95276D02*
D03*
X292126D02*
D03*
D17*
X19248Y84378D02*
D03*
X29091D02*
D03*
X38933D02*
D03*
X48776D02*
D03*
D18*
X401575Y61102D02*
D03*
Y51102D02*
D03*
X303150D02*
D03*
Y61102D02*
D03*
X204724D02*
D03*
Y51102D02*
D03*
X106299D02*
D03*
Y61102D02*
D03*
D19*
X260276Y6878D02*
D03*
X346500Y51102D02*
D03*
X140000Y50988D02*
D03*
X266776Y32213D02*
D03*
X251776D02*
D03*
X66929Y468504D02*
D03*
X246776Y78102D02*
D03*
X276075Y84602D02*
D03*
M02*
