%FSLAX25Y25*%
%MOIN*%
G70*
G01*
G75*
G04 Layer_Color=32896*
%ADD10C,0.02000*%
%ADD11C,0.03000*%
%ADD12C,0.01000*%
%ADD13C,0.01500*%
%ADD14C,0.06000*%
%ADD15R,0.06000X0.06000*%
%ADD16O,0.19685X0.07087*%
%ADD17C,0.07000*%
%ADD18C,0.06300*%
%ADD19C,0.02500*%
%ADD20R,0.02400X0.07600*%
%ADD21O,0.02400X0.07600*%
%ADD22R,0.06000X0.05000*%
%ADD23R,0.05000X0.06000*%
%ADD24C,0.00700*%
%ADD25C,0.00500*%
%ADD26C,0.00100*%
%ADD27C,0.00200*%
%ADD28C,0.00600*%
%ADD29R,0.00900X0.00700*%
%ADD30R,0.00446X0.00990*%
%ADD31C,0.00400*%
D25*
X248229Y35583D02*
G03*
X255316Y35576I3547J3273D01*
G01*
X255317Y51214D02*
G03*
X248229Y51208I-3541J-3279D01*
G01*
X270322Y51173D02*
G03*
X263235Y51179I-3547J-3273D01*
G01*
X263235Y35541D02*
G03*
X270322Y35548I3541J3279D01*
G01*
X147575Y64602D02*
X148075D01*
Y64102D02*
Y64602D01*
Y57602D02*
Y58102D01*
X147575Y57602D02*
X148075D01*
X131075D02*
X131575D01*
X131075D02*
Y58102D01*
Y64102D02*
Y64602D01*
X131575D01*
Y57602D02*
X138075D01*
X141075D02*
X147575D01*
X131575Y64602D02*
X138075D01*
X141075D02*
X147575D01*
X148075Y58102D02*
Y64102D01*
X131075Y58102D02*
Y64102D01*
Y26878D02*
X131575D01*
X131075D02*
Y27378D01*
Y33378D02*
Y33878D01*
X131575D01*
X147575D02*
X148075D01*
Y33378D02*
Y33878D01*
Y26878D02*
Y27378D01*
X147575Y26878D02*
X148075D01*
X141075Y33878D02*
X147575D01*
X131575D02*
X138075D01*
X141075Y26878D02*
X147575D01*
X131575D02*
X138075D01*
X131075Y27378D02*
Y33378D01*
X148075Y27378D02*
Y33378D01*
X224575Y71602D02*
X230575D01*
X224575Y88602D02*
X230575D01*
X224075Y81602D02*
Y88102D01*
Y72102D02*
Y78602D01*
X231075Y81602D02*
Y88102D01*
Y72102D02*
Y78602D01*
X224075Y71602D02*
Y72102D01*
Y71602D02*
X224575D01*
X230575D02*
X231075D01*
Y72102D01*
Y88102D02*
Y88602D01*
X230575D02*
X231075D01*
X224075D02*
X224575D01*
X224075Y88102D02*
Y88602D01*
X280551Y22488D02*
Y22988D01*
X280051Y22488D02*
X280551D01*
X273551D02*
X274051D01*
X273551D02*
Y22988D01*
Y38988D02*
Y39488D01*
X274051D01*
X280051D02*
X280551D01*
Y38988D02*
Y39488D01*
X273551Y32488D02*
Y38988D01*
Y22988D02*
Y29488D01*
X280551Y32488D02*
Y38988D01*
Y22988D02*
Y29488D01*
X274051Y22488D02*
X280051D01*
X274051Y39488D02*
X280051D01*
X237075Y34878D02*
Y35378D01*
X236575Y34878D02*
X237075D01*
X230075D02*
X230575D01*
X230075D02*
Y35378D01*
Y51378D02*
Y51878D01*
X230575D01*
X236575D02*
X237075D01*
Y51378D02*
Y51878D01*
X230075Y44878D02*
Y51378D01*
Y35378D02*
Y41878D01*
X237075Y44878D02*
Y51378D01*
Y35378D02*
Y41878D01*
X230575Y34878D02*
X236575D01*
X230575Y51878D02*
X236575D01*
X358500Y57602D02*
X359000D01*
X358500D02*
Y58102D01*
Y64102D02*
Y64602D01*
X359000D01*
X375000D02*
X375500D01*
Y64102D02*
Y64602D01*
Y57602D02*
Y58102D01*
X375000Y57602D02*
X375500D01*
X368500Y64602D02*
X375000D01*
X359000D02*
X365500D01*
X368500Y57602D02*
X375000D01*
X359000D02*
X365500D01*
X358500Y58102D02*
Y64102D01*
X375500Y58102D02*
Y64102D01*
X277575Y88102D02*
Y88602D01*
X278075D01*
X284075D02*
X284575D01*
Y88102D02*
Y88602D01*
Y71602D02*
Y72102D01*
X284075Y71602D02*
X284575D01*
X277575D02*
X278075D01*
X277575D02*
Y72102D01*
X284575D02*
Y78602D01*
Y81602D02*
Y88102D01*
X277575Y72102D02*
Y78602D01*
Y81602D02*
Y88102D01*
X278075Y88602D02*
X284075D01*
X278075Y71602D02*
X284075D01*
X375000Y29488D02*
X375500D01*
Y28988D02*
Y29488D01*
Y22488D02*
Y22988D01*
X375000Y22488D02*
X375500D01*
X358500D02*
X359000D01*
X358500D02*
Y22988D01*
Y28988D02*
Y29488D01*
X359000D01*
Y22488D02*
X365500D01*
X368500D02*
X375000D01*
X359000Y29488D02*
X365500D01*
X368500D02*
X375000D01*
X375500Y22988D02*
Y28988D01*
X358500Y22988D02*
Y28988D01*
X255319Y35579D02*
Y41878D01*
X248232Y35579D02*
Y41878D01*
X255319Y51212D02*
X255319Y44878D01*
X248232D02*
X248233Y51212D01*
X263232Y44878D02*
Y51177D01*
X270319Y44878D02*
Y51177D01*
X263232Y41878D02*
X263233Y35544D01*
X270319D02*
X270319Y41878D01*
D28*
X222075Y83602D02*
X218076D01*
Y81603D01*
X218743Y80936D01*
X220075D01*
X220742Y81603D01*
Y83602D01*
Y82269D02*
X222075Y80936D01*
X218076Y76938D02*
X218743Y78271D01*
X220075Y79604D01*
X221408D01*
X222075Y78937D01*
Y77604D01*
X221408Y76938D01*
X220742D01*
X220075Y77604D01*
Y79604D01*
X278501Y64488D02*
X281834D01*
X282500Y63822D01*
Y62489D01*
X281834Y61822D01*
X278501D01*
X282500Y60489D02*
Y59157D01*
Y59823D01*
X278501D01*
X279168Y60489D01*
X371024Y66102D02*
Y70101D01*
X369024D01*
X368358Y69435D01*
Y68102D01*
X369024Y67435D01*
X371024D01*
X369691D02*
X368358Y66102D01*
X367025Y69435D02*
X366358Y70101D01*
X365026D01*
X364359Y69435D01*
Y68768D01*
X365026Y68102D01*
X364359Y67435D01*
Y66769D01*
X365026Y66102D01*
X366358D01*
X367025Y66769D01*
Y67435D01*
X366358Y68102D01*
X367025Y68768D01*
Y69435D01*
X366358Y68102D02*
X365026D01*
X292075Y83102D02*
X288076D01*
Y81103D01*
X288743Y80436D01*
X290075D01*
X290742Y81103D01*
Y83102D01*
Y81769D02*
X292075Y80436D01*
X288076Y79104D02*
Y76438D01*
X288743D01*
X291408Y79104D01*
X292075D01*
X157575Y59102D02*
Y63101D01*
X155576D01*
X154909Y62435D01*
Y61102D01*
X155576Y60435D01*
X157575D01*
X156242D02*
X154909Y59102D01*
X150910Y63101D02*
X153576D01*
Y61102D01*
X152243Y61768D01*
X151577D01*
X150910Y61102D01*
Y59769D01*
X151577Y59102D01*
X152910D01*
X153576Y59769D01*
X157575Y28102D02*
Y32101D01*
X155576D01*
X154909Y31435D01*
Y30102D01*
X155576Y29435D01*
X157575D01*
X156242D02*
X154909Y28102D01*
X151577D02*
Y32101D01*
X153576Y30102D01*
X150910D01*
X227276Y47079D02*
X223277D01*
Y45079D01*
X223943Y44413D01*
X225276D01*
X225943Y45079D01*
Y47079D01*
Y45746D02*
X227276Y44413D01*
X223943Y43080D02*
X223277Y42413D01*
Y41081D01*
X223943Y40414D01*
X224610D01*
X225276Y41081D01*
Y41747D01*
Y41081D01*
X225943Y40414D01*
X226609D01*
X227276Y41081D01*
Y42413D01*
X226609Y43080D01*
X279500Y20988D02*
X275501D01*
Y18989D01*
X276168Y18322D01*
X277501D01*
X278167Y18989D01*
Y20988D01*
Y19655D02*
X279500Y18322D01*
Y14324D02*
Y16989D01*
X276834Y14324D01*
X276168D01*
X275501Y14990D01*
Y16323D01*
X276168Y16989D01*
X371551Y31602D02*
Y35601D01*
X369552D01*
X368885Y34935D01*
Y33602D01*
X369552Y32935D01*
X371551D01*
X370218D02*
X368885Y31602D01*
X367552D02*
X366220D01*
X366886D01*
Y35601D01*
X367552Y34935D01*
X241943Y43712D02*
X241277Y44379D01*
Y45711D01*
X241943Y46378D01*
X244609D01*
X245276Y45711D01*
Y44379D01*
X244609Y43712D01*
X245276Y39713D02*
Y42379D01*
X242610Y39713D01*
X241943D01*
X241277Y40380D01*
Y41713D01*
X241943Y42379D01*
X273719Y46322D02*
X273053Y46989D01*
Y48322D01*
X273719Y48988D01*
X276385D01*
X277051Y48322D01*
Y46989D01*
X276385Y46322D01*
X277051Y44989D02*
Y43657D01*
Y44323D01*
X273053D01*
X273719Y44989D01*
D31*
X274776Y75078D02*
G03*
X274776Y71078I0J-2000D01*
G01*
X233776Y67878D02*
X274776D01*
X233776D02*
Y78378D01*
X274776D01*
Y75078D02*
Y78378D01*
Y67878D02*
Y71078D01*
M02*
