M48
;Layer_Color=9474304
;FILE_FORMAT=2:5
INCH,TZ
;TYPE=PLATED
T1F00S00C0.01200
T2F00S00C0.03543
T4F00S00C0.04000
T5F00S00C0.04500
%
T01
X260276Y6878
X266776Y32213
X251776
X346500Y51102
X140000Y50988
X246776Y78102
X276075Y84602
X66929Y468504
T02
X401575Y51102
X303150
X204724
X106299
Y61102
X204724
X303150
X401575
T04
X140000Y11988
X150000
X160000
X170000
T05
X19248Y84378
X29091
X38933
X48776
M30
