%FSLAX25Y25*%
%MOIN*%
G70*
G01*
G75*
%ADD10C,0.00984*%
%ADD11C,0.01000*%
%ADD12C,0.00667*%
D10*
X278897Y108771D02*
G03*
X278897Y108771I-4921J0D01*
G01*
X775591Y0D02*
G03*
X787402Y11811I0J11811D01*
G01*
X787401Y204328D02*
G03*
X775194Y216535I-11977J230D01*
G01*
X11421Y216536D02*
G03*
X-0Y205115I587J-12008D01*
G01*
X108621Y134089D02*
G03*
X108621Y134089I-6299J0D01*
G01*
X112558Y75034D02*
G03*
X112558Y75034I-10236J0D01*
G01*
X518267Y108771D02*
G03*
X518267Y108771I-4921J0D01*
G01*
X691298Y134089D02*
G03*
X691298Y134089I-6299J0D01*
G01*
Y75034D02*
G03*
X691298Y75034I-6299J0D01*
G01*
X614920Y131685D02*
Y159244D01*
X487610Y188299D02*
Y207984D01*
X595235Y159244D02*
X614920D01*
X595235Y131685D02*
Y159244D01*
X787402Y11811D02*
Y204331D01*
X11417Y216535D02*
X775197D01*
X-0Y11811D02*
Y205118D01*
Y11811D02*
X11811Y0D01*
X775591D01*
X595235Y131685D02*
X614920D01*
X282243Y43023D02*
X301928D01*
X282243D02*
Y70582D01*
X301928Y43023D02*
Y70582D01*
X282243D02*
X301928D01*
X172401Y131685D02*
X192086D01*
X172401D02*
Y159244D01*
X192086D01*
Y131685D02*
Y159244D01*
X294696Y188299D02*
X318318D01*
X294696Y207984D02*
X318318D01*
X294696Y188299D02*
Y207984D01*
X318318Y188299D02*
Y207984D01*
X463988D02*
X487610D01*
X463988Y188299D02*
Y207984D01*
Y188299D02*
X487610D01*
X485393Y70582D02*
X505078D01*
Y43023D02*
Y70582D01*
X485393Y43023D02*
X505078D01*
D11*
X485393D02*
Y70582D01*
D12*
X416245Y123917D02*
X420969D01*
X418607Y121555D02*
Y126279D01*
X406245Y123917D02*
X410969D01*
X408607Y121555D02*
Y126279D01*
X396245Y123917D02*
X400969D01*
X398607Y121555D02*
Y126279D01*
X386245Y123917D02*
X390969D01*
X388607Y121555D02*
Y126279D01*
X376245Y123917D02*
X380969D01*
X378607Y121555D02*
Y126279D01*
X366245Y123917D02*
X370969D01*
X368607Y121555D02*
Y126279D01*
X366245Y35925D02*
X370969D01*
X368607Y33563D02*
Y38287D01*
X376245Y35925D02*
X380969D01*
X378607Y33563D02*
Y38287D01*
X416245Y35925D02*
X420969D01*
X418607Y33563D02*
Y38287D01*
X406245Y35925D02*
X410969D01*
X408607Y33563D02*
Y38287D01*
X396245Y35925D02*
X400969D01*
X398607Y33563D02*
Y38287D01*
X386245Y35925D02*
X390969D01*
X388607Y33563D02*
Y38287D01*
X403740Y157362D02*
X407283D01*
X405512Y155591D02*
Y159134D01*
X403740Y147362D02*
X407283D01*
X405512Y145591D02*
Y149134D01*
X507677Y181220D02*
X511220D01*
X509449Y179449D02*
Y182992D01*
X507677Y191220D02*
X511220D01*
X509449Y189449D02*
Y192992D01*
X442717Y157362D02*
X446260D01*
X444488Y155591D02*
Y159134D01*
X442717Y147362D02*
X446260D01*
X444488Y145591D02*
Y149134D01*
X442717Y181220D02*
X446260D01*
X444488Y179449D02*
Y182992D01*
X442717Y191220D02*
X446260D01*
X444488Y189449D02*
Y192992D01*
X578543Y191220D02*
X582087D01*
X580315Y189449D02*
Y192992D01*
X578543Y181220D02*
X582087D01*
X580315Y179449D02*
Y182992D01*
X507677Y147362D02*
X511220D01*
X509449Y145591D02*
Y149134D01*
X507677Y157362D02*
X511220D01*
X509449Y155591D02*
Y159134D01*
X271457Y157362D02*
X275000D01*
X273228Y155591D02*
Y159134D01*
X271457Y147362D02*
X275000D01*
X273228Y145591D02*
Y149134D01*
X195079Y164291D02*
X198622D01*
X196850Y162520D02*
Y166063D01*
X195079Y174291D02*
X198622D01*
X196850Y172520D02*
Y176063D01*
X213583Y174291D02*
X217126D01*
X215354Y172520D02*
Y176063D01*
X213583Y164291D02*
X217126D01*
X215354Y162520D02*
Y166063D01*
X403740Y181220D02*
X407283D01*
X405512Y179449D02*
Y182992D01*
X403740Y191220D02*
X407283D01*
X405512Y189449D02*
Y192992D01*
X338386Y191220D02*
X341929D01*
X340158Y189449D02*
Y192992D01*
X338386Y181220D02*
X341929D01*
X340158Y179449D02*
Y182992D01*
X338386Y147362D02*
X341929D01*
X340158Y145591D02*
Y149134D01*
X338386Y157362D02*
X341929D01*
X340158Y155591D02*
Y159134D01*
X271457Y191220D02*
X275000D01*
X273228Y189449D02*
Y192992D01*
X271457Y181220D02*
X275000D01*
X273228Y179449D02*
Y182992D01*
X70925Y76000D02*
X74075D01*
X72500Y74425D02*
Y77575D01*
X70925Y66158D02*
X74075D01*
X72500Y64583D02*
Y67732D01*
X684205Y106957D02*
X687354D01*
X685780Y105382D02*
Y108532D01*
X11260Y46842D02*
X14410D01*
X12835Y45268D02*
Y48417D01*
X11260Y37000D02*
X14410D01*
X12835Y35425D02*
Y38575D01*
X122425Y156218D02*
X125575D01*
X124000Y154643D02*
Y157792D01*
X621650Y189457D02*
X624799D01*
X623224Y187882D02*
Y191032D01*
X158940Y165718D02*
X162940D01*
X160940Y163718D02*
Y167718D01*
X148940Y165718D02*
X152940D01*
X150940Y163718D02*
Y167718D01*
X89425Y48500D02*
X92575D01*
X91000Y46925D02*
Y50075D01*
X753365Y158718D02*
X756515D01*
X754940Y157143D02*
Y160292D01*
X635008Y54257D02*
X638551D01*
X636779Y52485D02*
Y56028D01*
X625008Y64257D02*
X628551D01*
X626780Y62485D02*
Y66028D01*
X645008Y54257D02*
X648551D01*
X646779Y52485D02*
Y56028D01*
X625008Y54257D02*
X628551D01*
X626780Y52485D02*
Y56028D01*
X635008Y64257D02*
X638551D01*
X636779Y62485D02*
Y66028D01*
X645008Y64257D02*
X648551D01*
X646779Y62485D02*
Y66028D01*
X753365Y140957D02*
X756515D01*
X754940Y139382D02*
Y142532D01*
X684205Y91457D02*
X687354D01*
X685780Y89882D02*
Y93032D01*
X40453Y189600D02*
X44390D01*
X42421Y187632D02*
Y191569D01*
X10531Y189600D02*
X14469D01*
X12500Y187632D02*
Y191569D01*
X9425Y74500D02*
X12575D01*
X11000Y72925D02*
Y76075D01*
X266280Y9457D02*
X270280D01*
X268280Y7457D02*
Y11457D01*
X276280Y9457D02*
X280280D01*
X278280Y7457D02*
Y11457D01*
X256280Y9457D02*
X260280D01*
X258280Y7457D02*
Y11457D01*
X246280Y9457D02*
X250280D01*
X248280Y7457D02*
Y11457D01*
X639865Y150218D02*
X643015D01*
X641440Y148643D02*
Y151792D01*
X649708Y150218D02*
X652857D01*
X651282Y148643D02*
Y151792D01*
X717707Y145218D02*
X720857D01*
X719282Y143643D02*
Y146792D01*
X707865Y145218D02*
X711015D01*
X709440Y143643D02*
Y146792D01*
X660343Y29000D02*
X664343D01*
X662343Y27000D02*
Y31000D01*
X650500Y29000D02*
X654500D01*
X652500Y27000D02*
Y31000D01*
X578000Y29000D02*
X582000D01*
X580000Y27000D02*
Y31000D01*
X587843Y29000D02*
X591843D01*
X589843Y27000D02*
Y31000D01*
X597685Y29000D02*
X601685D01*
X599685Y27000D02*
Y31000D01*
X607528Y29000D02*
X611528D01*
X609528Y27000D02*
Y31000D01*
X617370Y29000D02*
X621370D01*
X619370Y27000D02*
Y31000D01*
X223232Y29000D02*
X227232D01*
X225232Y27000D02*
Y31000D01*
X213390Y29000D02*
X217390D01*
X215390Y27000D02*
Y31000D01*
X203547Y29000D02*
X207547D01*
X205547Y27000D02*
Y31000D01*
X193705Y29000D02*
X197705D01*
X195705Y27000D02*
Y31000D01*
X124500Y29000D02*
X128500D01*
X126500Y27000D02*
Y31000D01*
X134343Y29000D02*
X138342D01*
X136343Y27000D02*
Y31000D01*
X144185Y29000D02*
X148185D01*
X146185Y27000D02*
Y31000D01*
X154027Y29000D02*
X158028D01*
X156027Y27000D02*
Y31000D01*
X163870Y29000D02*
X167870D01*
X165870Y27000D02*
Y31000D01*
X95780Y29000D02*
X99779D01*
X97780Y27000D02*
Y31000D01*
X85780Y29000D02*
X89780D01*
X87779Y27000D02*
Y31000D01*
X75779Y29000D02*
X79779D01*
X77780Y27000D02*
Y31000D01*
X25780Y29000D02*
X29779D01*
X27779Y27000D02*
Y31000D01*
X35622Y29000D02*
X39622D01*
X37622Y27000D02*
Y31000D01*
X45465Y29000D02*
X49465D01*
X47465Y27000D02*
Y31000D01*
X55307Y29000D02*
X59307D01*
X57307Y27000D02*
Y31000D01*
X65150Y29000D02*
X69150D01*
X67150Y27000D02*
Y31000D01*
X96225Y113842D02*
X99375D01*
X97800Y112268D02*
Y115417D01*
X96225Y104000D02*
X99375D01*
X97800Y102425D02*
Y105575D01*
X79925Y141157D02*
X83075D01*
X81500Y139583D02*
Y142732D01*
X79925Y151000D02*
X83075D01*
X81500Y149425D02*
Y152575D01*
X213000Y74900D02*
X214200D01*
X213600Y74300D02*
Y75500D01*
X80300Y45400D02*
X81500D01*
X80900Y44800D02*
Y46000D01*
X696600Y45800D02*
X697800D01*
X697200Y45200D02*
Y46400D01*
X188400Y78500D02*
X189600D01*
X189000Y77900D02*
Y79100D01*
X698750Y92398D02*
X699950D01*
X699350Y91798D02*
Y92998D01*
X756879Y76650D02*
X758079D01*
X757479Y76050D02*
Y77250D01*
X780679Y98524D02*
X781879D01*
X781279Y97924D02*
Y99124D01*
X758879Y45154D02*
X760079D01*
X759479Y44554D02*
Y45754D01*
X408507Y68096D02*
X409707D01*
X409107Y67496D02*
Y68696D01*
X163400Y75457D02*
X164600D01*
X164000Y74857D02*
Y76057D01*
X641180Y91457D02*
X642380D01*
X641780Y90857D02*
Y92057D01*
X610680Y105207D02*
X611880D01*
X611280Y104607D02*
Y105807D01*
X739153Y172957D02*
X740353D01*
X739753Y172357D02*
Y173557D01*
X770153Y172957D02*
X771353D01*
X770753Y172357D02*
Y173557D01*
X178400Y78500D02*
X179600D01*
X179000Y77900D02*
Y79100D01*
X739153Y72713D02*
X740353D01*
X739753Y72113D02*
Y73313D01*
X641180Y125457D02*
X642380D01*
X641780Y124857D02*
Y126057D01*
X641180Y108727D02*
X642380D01*
X641780Y108127D02*
Y109327D01*
X432007Y100217D02*
X433207D01*
X432607Y99617D02*
Y100818D01*
X425300Y71544D02*
X426500D01*
X425900Y70944D02*
Y72144D01*
X432007Y113044D02*
X433207D01*
X432607Y112444D02*
Y113644D01*
X436800Y113044D02*
X438000D01*
X437400Y112444D02*
Y113644D01*
X635679Y40000D02*
X636879D01*
X636279Y39400D02*
Y40600D01*
X565605Y39983D02*
X566805D01*
X566205Y39383D02*
Y40583D01*
X262680Y92457D02*
X263880D01*
X263280Y91857D02*
Y93057D01*
X263180Y103957D02*
X264380D01*
X263780Y103357D02*
Y104557D01*
X262680Y83957D02*
X263880D01*
X263280Y83357D02*
Y84557D01*
X183400Y78500D02*
X184600D01*
X184000Y77900D02*
Y79100D01*
X365707Y100218D02*
X368507D01*
X367107Y98818D02*
Y101618D01*
X222180Y93957D02*
X223380D01*
X222780Y93357D02*
Y94557D01*
X222180Y103957D02*
X223380D01*
X222780Y103357D02*
Y104557D01*
X222180Y83957D02*
X223380D01*
X222780Y83357D02*
Y84557D01*
X319680Y152457D02*
X320880D01*
X320280Y151857D02*
Y153057D01*
X326007Y170417D02*
X327207D01*
X326607Y169817D02*
Y171017D01*
X314407Y120157D02*
X315607D01*
X315007Y119557D02*
Y120757D01*
X308907Y176017D02*
X310107D01*
X309507Y175417D02*
Y176617D01*
X308907Y140657D02*
X310107D01*
X309507Y140057D02*
Y141257D01*
X289907Y164657D02*
X291107D01*
X290507Y164057D02*
Y165257D01*
X341068Y81157D02*
X342267D01*
X341668Y80557D02*
Y81757D01*
X436067Y173657D02*
X437267D01*
X436667Y173057D02*
Y174257D01*
X429568Y72157D02*
X430768D01*
X430168Y71557D02*
Y72757D01*
X448068Y72157D02*
X449268D01*
X448668Y71557D02*
Y72757D01*
X378980Y74957D02*
X380180D01*
X379580Y74357D02*
Y75557D01*
X403507Y68096D02*
X404707D01*
X404107Y67496D02*
Y68696D01*
X481068Y130557D02*
X482268D01*
X481668Y129957D02*
Y131157D01*
X468867Y99157D02*
X470068D01*
X469467Y98557D02*
Y99757D01*
X463379Y138057D02*
X464579D01*
X463979Y137457D02*
Y138657D01*
X488368Y179157D02*
X489568D01*
X488968Y178557D02*
Y179757D01*
X466568Y152357D02*
X467767D01*
X467168Y151757D02*
Y152957D01*
X398507Y55217D02*
X399707D01*
X399107Y54618D02*
Y55818D01*
X361446Y63157D02*
X362646D01*
X362046Y62557D02*
Y63757D01*
X83179Y198914D02*
X84380D01*
X83780Y198313D02*
Y199513D01*
X547438Y85913D02*
X548638D01*
X548038Y85313D02*
Y86514D01*
X612045Y48500D02*
X614845D01*
X613445Y47100D02*
Y49900D01*
X588605Y35718D02*
X589805D01*
X589205Y35118D02*
Y36318D01*
X556605Y35718D02*
X557805D01*
X557205Y35118D02*
Y36318D01*
X249900Y42500D02*
X251100D01*
X250500Y41900D02*
Y43100D01*
X624680Y112707D02*
X625880D01*
X625280Y112107D02*
Y113307D01*
X621493Y89371D02*
X622693D01*
X622093Y88771D02*
Y89971D01*
X672400Y116457D02*
X673600D01*
X673000Y115857D02*
Y117057D01*
X712153Y110213D02*
X713353D01*
X712753Y109613D02*
Y110813D01*
X198089Y52957D02*
X199289D01*
X198689Y52357D02*
Y53557D01*
X198400Y117600D02*
X199600D01*
X199000Y117000D02*
Y118200D01*
X193400Y117600D02*
X194600D01*
X194000Y117000D02*
Y118200D01*
X158400Y131500D02*
X159600D01*
X159000Y130900D02*
Y132100D01*
X219680Y43957D02*
X220880D01*
X220280Y43357D02*
Y44557D01*
X22278Y90500D02*
X23478D01*
X22878Y89900D02*
Y91100D01*
X22278Y87500D02*
X23478D01*
X22878Y86900D02*
Y88100D01*
X25278Y87500D02*
X26478D01*
X25878Y86900D02*
Y88100D01*
X25278Y90500D02*
X26478D01*
X25878Y89900D02*
Y91100D01*
M02*
