%FSLAX25Y25*%
%MOIN*%
G70*
G01*
G75*
G04 Layer_Physical_Order=1*
G04 Layer_Color=255*
%ADD10R,0.03937X0.03937*%
%ADD11R,0.03937X0.03937*%
%ADD12R,0.03937X0.03937*%
%ADD13R,0.03937X0.03937*%
%ADD14C,0.01000*%
%ADD15C,0.02000*%
%ADD16C,0.06000*%
%ADD17C,0.07000*%
%ADD18C,0.05000*%
%ADD19C,0.02500*%
%ADD20C,0.04000*%
%ADD21C,0.03000*%
%ADD22C,0.07087*%
%ADD23C,0.06300*%
%ADD24C,0.06000*%
%ADD25R,0.06000X0.06000*%
%ADD26C,0.05512*%
%ADD27C,0.08661*%
%ADD28C,0.02500*%
%ADD29C,0.05000*%
G36*
X777372Y214352D02*
X779245Y213783D01*
X780972Y212861D01*
X782485Y211619D01*
X783727Y210106D01*
X784650Y208379D01*
X785218Y206506D01*
X785410Y204558D01*
X785404Y204499D01*
X785370Y204331D01*
Y204328D01*
X785370Y204328D01*
X785370Y204327D01*
Y44337D01*
X762525D01*
X762195Y44713D01*
X762159Y44436D01*
X762146Y44404D01*
X756813D01*
X756800Y44436D01*
X756764Y44713D01*
X756434Y44337D01*
X700021D01*
X699743Y44753D01*
X699866Y45050D01*
X694534D01*
X694657Y44753D01*
X694379Y44337D01*
X672100D01*
X671359Y44190D01*
X670730Y43770D01*
X670310Y43141D01*
X670163Y42400D01*
Y2031D01*
X12652D01*
X2031Y12652D01*
Y205054D01*
X2172Y206484D01*
X2743Y208365D01*
X3669Y210099D01*
X4917Y211619D01*
X6436Y212866D01*
X8170Y213793D01*
X10051Y214363D01*
X11481Y214504D01*
X775194D01*
X775194Y214504D01*
X775194Y214504D01*
X775197D01*
X775365Y214538D01*
X775424Y214544D01*
X777372Y214352D01*
D02*
G37*
%LPC*%
G36*
X626029Y63507D02*
X622586D01*
X622633Y63146D01*
X623062Y62111D01*
X623744Y61221D01*
X624633Y60539D01*
X625668Y60110D01*
X626029Y60063D01*
Y63507D01*
D02*
G37*
G36*
X630973D02*
X627529D01*
Y60063D01*
X627890Y60110D01*
X628926Y60539D01*
X629815Y61221D01*
X630497Y62111D01*
X630926Y63146D01*
X630973Y63507D01*
D02*
G37*
G36*
X646779Y58549D02*
X645669Y58403D01*
X644633Y57974D01*
X643744Y57292D01*
X643062Y56403D01*
X642633Y55368D01*
X642487Y54257D01*
X642633Y53146D01*
X643062Y52110D01*
X643744Y51222D01*
X644633Y50539D01*
X645669Y50111D01*
X646779Y49964D01*
X647891Y50111D01*
X648926Y50539D01*
X649815Y51222D01*
X650497Y52110D01*
X650926Y53146D01*
X651072Y54257D01*
X650926Y55368D01*
X650497Y56403D01*
X649815Y57292D01*
X648926Y57974D01*
X647891Y58403D01*
X646779Y58549D01*
D02*
G37*
G36*
X636779Y68550D02*
X635669Y68403D01*
X634633Y67974D01*
X633744Y67292D01*
X633062Y66403D01*
X632633Y65368D01*
X632487Y64257D01*
X632633Y63146D01*
X633062Y62111D01*
X633744Y61221D01*
X634633Y60539D01*
X635669Y60110D01*
X636779Y59964D01*
X637890Y60110D01*
X638926Y60539D01*
X639815Y61221D01*
X640497Y62111D01*
X640926Y63146D01*
X641072Y64257D01*
X640926Y65368D01*
X640497Y66403D01*
X639815Y67292D01*
X638926Y67974D01*
X637890Y68403D01*
X636779Y68550D01*
D02*
G37*
G36*
X71750Y65408D02*
X67512D01*
X67586Y64841D01*
X68095Y63614D01*
X68903Y62561D01*
X69957Y61752D01*
X71183Y61244D01*
X71750Y61169D01*
Y65408D01*
D02*
G37*
G36*
X102322Y87300D02*
X100403Y87149D01*
X98531Y86700D01*
X96753Y85963D01*
X95112Y84958D01*
X93648Y83708D01*
X92398Y82244D01*
X91393Y80603D01*
X90656Y78825D01*
X90207Y76953D01*
X90056Y75034D01*
X90207Y73115D01*
X90656Y71244D01*
X91393Y69465D01*
X92398Y67824D01*
X93648Y66361D01*
X95112Y65111D01*
X96753Y64105D01*
X98531Y63368D01*
X100403Y62919D01*
X102322Y62768D01*
X104241Y62919D01*
X106112Y63368D01*
X107890Y64105D01*
X109532Y65111D01*
X110995Y66361D01*
X112245Y67824D01*
X113251Y69465D01*
X113988Y71244D01*
X114437Y73115D01*
X114588Y75034D01*
X114437Y76953D01*
X113988Y78825D01*
X113251Y80603D01*
X112245Y82244D01*
X110995Y83708D01*
X109532Y84958D01*
X107890Y85963D01*
X106112Y86700D01*
X104241Y87149D01*
X102322Y87300D01*
D02*
G37*
G36*
X626029Y68451D02*
X625668Y68403D01*
X624633Y67974D01*
X623744Y67292D01*
X623062Y66403D01*
X622633Y65368D01*
X622586Y65007D01*
X626029D01*
Y68451D01*
D02*
G37*
G36*
X77488Y65408D02*
X73250D01*
Y61169D01*
X73817Y61244D01*
X75043Y61752D01*
X76097Y62561D01*
X76905Y63614D01*
X77413Y64841D01*
X77488Y65408D01*
D02*
G37*
G36*
X743221Y206516D02*
X736284D01*
Y199579D01*
X737714D01*
Y180925D01*
X736284D01*
Y173988D01*
X736736D01*
X737065Y173612D01*
X736979Y172957D01*
X737074Y172239D01*
X737351Y171570D01*
X737714Y171097D01*
Y74572D01*
X737351Y74099D01*
X737074Y73431D01*
X736996Y72839D01*
X726652Y62496D01*
X674925D01*
X671722Y65699D01*
X671060Y66141D01*
X670280Y66296D01*
X650541D01*
X650497Y66403D01*
X649815Y67292D01*
X648926Y67974D01*
X647891Y68403D01*
X646779Y68550D01*
X645669Y68403D01*
X644633Y67974D01*
X643744Y67292D01*
X643062Y66403D01*
X642633Y65368D01*
X642487Y64257D01*
X642633Y63146D01*
X643062Y62111D01*
X643744Y61221D01*
X644633Y60539D01*
X645669Y60110D01*
X646779Y59964D01*
X647891Y60110D01*
X648926Y60539D01*
X649815Y61221D01*
X650497Y62111D01*
X650541Y62218D01*
X669435D01*
X672638Y59015D01*
D01*
X672638Y59015D01*
X672638Y59015D01*
D01*
D01*
D01*
X672638Y59015D01*
Y59015D01*
X673300Y58573D01*
X674080Y58417D01*
X727497D01*
X728277Y58573D01*
X728939Y59015D01*
X739880Y69956D01*
X740471Y70033D01*
X741140Y70310D01*
X741714Y70751D01*
X742155Y71326D01*
X742432Y71995D01*
X742527Y72713D01*
X742432Y73431D01*
X742155Y74099D01*
X741792Y74572D01*
Y171097D01*
X742155Y171570D01*
X742432Y172239D01*
X742527Y172957D01*
X742432Y173675D01*
X742642Y173988D01*
X743221D01*
Y180925D01*
X741792D01*
Y199579D01*
X743221D01*
Y206516D01*
D02*
G37*
G36*
X81650Y48066D02*
Y46150D01*
X83566D01*
X83302Y46787D01*
X82861Y47361D01*
X82287Y47802D01*
X81650Y48066D01*
D02*
G37*
G36*
X696450Y48466D02*
X695813Y48202D01*
X695239Y47761D01*
X694798Y47187D01*
X694534Y46550D01*
X696450D01*
Y48466D01*
D02*
G37*
G36*
X760229Y47820D02*
Y45904D01*
X762145D01*
X761881Y46540D01*
X761441Y47115D01*
X760866Y47556D01*
X760229Y47820D01*
D02*
G37*
G36*
X80150Y48066D02*
X79513Y47802D01*
X78939Y47361D01*
X78498Y46787D01*
X78234Y46150D01*
X80150D01*
Y48066D01*
D02*
G37*
G36*
X697950Y48466D02*
Y46550D01*
X699866D01*
X699602Y47187D01*
X699161Y47761D01*
X698587Y48202D01*
X697950Y48466D01*
D02*
G37*
G36*
X626780Y58549D02*
X625668Y58403D01*
X624633Y57974D01*
X623744Y57292D01*
X623062Y56403D01*
X622633Y55368D01*
X622487Y54257D01*
X622633Y53146D01*
X623062Y52110D01*
X623744Y51222D01*
X624633Y50539D01*
X625668Y50111D01*
X626780Y49964D01*
X627890Y50111D01*
X628926Y50539D01*
X629815Y51222D01*
X630497Y52110D01*
X630926Y53146D01*
X631072Y54257D01*
X630926Y55368D01*
X630497Y56403D01*
X629815Y57292D01*
X628926Y57974D01*
X627890Y58403D01*
X626780Y58549D01*
D02*
G37*
G36*
X636779D02*
X635669Y58403D01*
X634633Y57974D01*
X633744Y57292D01*
X633062Y56403D01*
X632633Y55368D01*
X632487Y54257D01*
X632633Y53146D01*
X633062Y52110D01*
X633744Y51222D01*
X634633Y50539D01*
X635669Y50111D01*
X636779Y49964D01*
X637890Y50111D01*
X638926Y50539D01*
X639815Y51222D01*
X640497Y52110D01*
X640926Y53146D01*
X641072Y54257D01*
X640926Y55368D01*
X640497Y56403D01*
X639815Y57292D01*
X638926Y57974D01*
X637890Y58403D01*
X636779Y58549D01*
D02*
G37*
G36*
X12085Y51831D02*
X11518Y51756D01*
X10291Y51248D01*
X9238Y50439D01*
X8429Y49386D01*
X7921Y48159D01*
X7847Y47592D01*
X12085D01*
Y51831D01*
D02*
G37*
G36*
X13585D02*
Y47592D01*
X17823D01*
X17748Y48159D01*
X17240Y49386D01*
X16432Y50439D01*
X15378Y51248D01*
X14151Y51756D01*
X13585Y51831D01*
D02*
G37*
G36*
X262530Y83207D02*
X260614D01*
X260877Y82570D01*
X261318Y81995D01*
X261893Y81555D01*
X262530Y81291D01*
Y83207D01*
D02*
G37*
G36*
X265946D02*
X264030D01*
Y81291D01*
X264667Y81555D01*
X265241Y81995D01*
X265682Y82570D01*
X265946Y83207D01*
D02*
G37*
G36*
X163250Y78123D02*
X162613Y77859D01*
X162039Y77418D01*
X161598Y76844D01*
X161334Y76207D01*
X163250D01*
Y78123D01*
D02*
G37*
G36*
X164750D02*
Y76207D01*
X166666D01*
X166402Y76844D01*
X165961Y77418D01*
X165387Y77859D01*
X164750Y78123D01*
D02*
G37*
G36*
X547288Y85163D02*
X545372D01*
X545636Y84527D01*
X546076Y83952D01*
X546651Y83511D01*
X547288Y83248D01*
Y85163D01*
D02*
G37*
G36*
X264030Y86623D02*
Y84707D01*
X265946D01*
X265682Y85344D01*
X265241Y85918D01*
X264667Y86359D01*
X264030Y86623D01*
D02*
G37*
G36*
X547288Y88579D02*
X546651Y88316D01*
X546076Y87875D01*
X545636Y87300D01*
X545372Y86664D01*
X547288D01*
Y88579D01*
D02*
G37*
G36*
X550704Y85163D02*
X548788D01*
Y83248D01*
X549425Y83511D01*
X549999Y83952D01*
X550440Y84527D01*
X550704Y85163D01*
D02*
G37*
G36*
X262530Y86623D02*
X261893Y86359D01*
X261318Y85918D01*
X260877Y85344D01*
X260614Y84707D01*
X262530D01*
Y86623D01*
D02*
G37*
G36*
X11000Y79039D02*
X9825Y78884D01*
X8731Y78431D01*
X7791Y77710D01*
X7069Y76770D01*
X6616Y75675D01*
X6461Y74500D01*
X6616Y73325D01*
X7069Y72231D01*
X7791Y71291D01*
X8731Y70569D01*
X9825Y70116D01*
X11000Y69961D01*
X12175Y70116D01*
X13269Y70569D01*
X14209Y71291D01*
X14931Y72231D01*
X15384Y73325D01*
X15539Y74500D01*
X15384Y75675D01*
X14931Y76770D01*
X14209Y77710D01*
X13269Y78431D01*
X12175Y78884D01*
X11000Y79039D01*
D02*
G37*
G36*
X212850Y74150D02*
X210934D01*
X211198Y73513D01*
X211639Y72939D01*
X212213Y72498D01*
X212850Y72234D01*
Y74150D01*
D02*
G37*
G36*
X627529Y68451D02*
Y65007D01*
X630973D01*
X630926Y65368D01*
X630497Y66403D01*
X629815Y67292D01*
X628926Y67974D01*
X627890Y68403D01*
X627529Y68451D01*
D02*
G37*
G36*
X684999Y83366D02*
X683374Y83205D01*
X681811Y82731D01*
X680370Y81962D01*
X679108Y80925D01*
X678072Y79663D01*
X677302Y78223D01*
X676828Y76660D01*
X676667Y75034D01*
X676828Y73409D01*
X677302Y71846D01*
X678072Y70405D01*
X679108Y69143D01*
X680370Y68107D01*
X681811Y67337D01*
X683374Y66863D01*
X684999Y66703D01*
X686624Y66863D01*
X688187Y67337D01*
X689628Y68107D01*
X690890Y69143D01*
X691926Y70405D01*
X692696Y71846D01*
X693170Y73409D01*
X693330Y75034D01*
X693170Y76660D01*
X692696Y78223D01*
X691926Y79663D01*
X690890Y80925D01*
X689628Y81962D01*
X688187Y82731D01*
X686624Y83205D01*
X684999Y83366D01*
D02*
G37*
G36*
X216266Y74150D02*
X214350D01*
Y72234D01*
X214987Y72498D01*
X215561Y72939D01*
X216002Y73513D01*
X216266Y74150D01*
D02*
G37*
G36*
X212850Y77566D02*
X212213Y77302D01*
X211639Y76861D01*
X211198Y76287D01*
X210934Y75650D01*
X212850D01*
Y77566D01*
D02*
G37*
G36*
X214350D02*
Y75650D01*
X216266D01*
X216002Y76287D01*
X215561Y76861D01*
X214987Y77302D01*
X214350Y77566D01*
D02*
G37*
G36*
X163250Y74707D02*
X161334D01*
X161598Y74070D01*
X162039Y73496D01*
X162613Y73055D01*
X163250Y72791D01*
Y74707D01*
D02*
G37*
G36*
X166666D02*
X164750D01*
Y72791D01*
X165387Y73055D01*
X165961Y73496D01*
X166402Y74070D01*
X166666Y74707D01*
D02*
G37*
G36*
X758729Y47820D02*
X758092Y47556D01*
X757518Y47115D01*
X757077Y46540D01*
X756813Y45904D01*
X758729D01*
Y47820D01*
D02*
G37*
G36*
X652500Y33539D02*
X651325Y33384D01*
X650231Y32931D01*
X649291Y32210D01*
X648569Y31269D01*
X648116Y30175D01*
X647961Y29000D01*
X648116Y27825D01*
X648569Y26731D01*
X649291Y25791D01*
X650231Y25069D01*
X651325Y24616D01*
X652500Y24461D01*
X653675Y24616D01*
X654770Y25069D01*
X655710Y25791D01*
X656431Y26731D01*
X656884Y27825D01*
X657039Y29000D01*
X656884Y30175D01*
X656431Y31269D01*
X655710Y32210D01*
X654770Y32931D01*
X653675Y33384D01*
X652500Y33539D01*
D02*
G37*
G36*
X97030Y28250D02*
X93339D01*
X93395Y27825D01*
X93849Y26730D01*
X94570Y25791D01*
X95510Y25069D01*
X96605Y24616D01*
X97030Y24560D01*
Y28250D01*
D02*
G37*
G36*
X609528Y33539D02*
X608353Y33384D01*
X607258Y32931D01*
X606318Y32210D01*
X605597Y31269D01*
X605143Y30175D01*
X604989Y29000D01*
X605143Y27825D01*
X605597Y26731D01*
X606318Y25791D01*
X607258Y25069D01*
X608353Y24616D01*
X609528Y24461D01*
X610702Y24616D01*
X611797Y25069D01*
X612737Y25791D01*
X613458Y26731D01*
X613912Y27825D01*
X614066Y29000D01*
X613912Y30175D01*
X613458Y31269D01*
X612737Y32210D01*
X611797Y32931D01*
X610702Y33384D01*
X609528Y33539D01*
D02*
G37*
G36*
X619370D02*
X618195Y33384D01*
X617101Y32931D01*
X616161Y32210D01*
X615439Y31269D01*
X614986Y30175D01*
X614831Y29000D01*
X614986Y27825D01*
X615439Y26731D01*
X616161Y25791D01*
X617101Y25069D01*
X618195Y24616D01*
X619370Y24461D01*
X620545Y24616D01*
X621639Y25069D01*
X622580Y25791D01*
X623301Y26731D01*
X623754Y27825D01*
X623909Y29000D01*
X623754Y30175D01*
X623301Y31269D01*
X622580Y32210D01*
X621639Y32931D01*
X620545Y33384D01*
X619370Y33539D01*
D02*
G37*
G36*
X102220Y28250D02*
X98529D01*
Y24560D01*
X98954Y24616D01*
X100049Y25069D01*
X100989Y25791D01*
X101710Y26730D01*
X102164Y27825D01*
X102220Y28250D01*
D02*
G37*
G36*
X579250Y28250D02*
X575560D01*
X575616Y27825D01*
X576069Y26731D01*
X576791Y25791D01*
X577731Y25069D01*
X578825Y24616D01*
X579250Y24560D01*
Y28250D01*
D02*
G37*
G36*
X584440D02*
X580750D01*
Y24560D01*
X581175Y24616D01*
X582269Y25069D01*
X583210Y25791D01*
X583931Y26731D01*
X584384Y27825D01*
X584440Y28250D01*
D02*
G37*
G36*
X224482D02*
X220792D01*
X220848Y27825D01*
X221302Y26731D01*
X222023Y25791D01*
X222963Y25069D01*
X224058Y24616D01*
X224482Y24560D01*
Y28250D01*
D02*
G37*
G36*
X229672D02*
X225982D01*
Y24560D01*
X226407Y24616D01*
X227502Y25069D01*
X228442Y25791D01*
X229163Y26731D01*
X229616Y27825D01*
X229672Y28250D01*
D02*
G37*
G36*
X247530Y13897D02*
X247105Y13841D01*
X246010Y13387D01*
X245070Y12666D01*
X244349Y11726D01*
X243895Y10632D01*
X243840Y10207D01*
X247530D01*
Y13897D01*
D02*
G37*
G36*
X17823Y46092D02*
X7847D01*
X7921Y45526D01*
X8429Y44299D01*
X9238Y43246D01*
X10291Y42437D01*
X10933Y42171D01*
Y41671D01*
X10291Y41405D01*
X9238Y40597D01*
X8429Y39543D01*
X7921Y38317D01*
X7748Y37000D01*
X7921Y35683D01*
X8429Y34457D01*
X9238Y33403D01*
X10291Y32595D01*
X11518Y32087D01*
X12835Y31913D01*
X14151Y32087D01*
X15378Y32595D01*
X16432Y33403D01*
X16870Y33974D01*
X27264D01*
X27297Y33475D01*
X26605Y33384D01*
X25510Y32931D01*
X24570Y32209D01*
X23849Y31269D01*
X23395Y30175D01*
X23241Y29000D01*
X23395Y27825D01*
X23849Y26730D01*
X24570Y25791D01*
X25510Y25069D01*
X26605Y24616D01*
X27779Y24461D01*
X28954Y24616D01*
X30049Y25069D01*
X30989Y25791D01*
X31710Y26730D01*
X32164Y27825D01*
X32318Y29000D01*
X32164Y30175D01*
X31710Y31269D01*
X30989Y32209D01*
X30049Y32931D01*
X28954Y33384D01*
X28262Y33475D01*
X28295Y33974D01*
X37107D01*
X37139Y33475D01*
X36447Y33384D01*
X35353Y32931D01*
X34413Y32209D01*
X33691Y31269D01*
X33238Y30175D01*
X33083Y29000D01*
X33238Y27825D01*
X33691Y26730D01*
X34413Y25791D01*
X35353Y25069D01*
X36447Y24616D01*
X37622Y24461D01*
X38797Y24616D01*
X39891Y25069D01*
X40832Y25791D01*
X41553Y26730D01*
X42006Y27825D01*
X42161Y29000D01*
X42107Y29408D01*
X42555Y29630D01*
X42956Y29229D01*
X42926Y29000D01*
X43080Y27825D01*
X43534Y26730D01*
X44255Y25791D01*
X45195Y25069D01*
X46290Y24616D01*
X47465Y24461D01*
X48639Y24616D01*
X49734Y25069D01*
X50674Y25791D01*
X51395Y26730D01*
X51849Y27825D01*
X52003Y29000D01*
X51849Y30175D01*
X51395Y31269D01*
X50674Y32209D01*
X49734Y32931D01*
X48639Y33384D01*
X47465Y33539D01*
X47235Y33509D01*
X41604Y39140D01*
X40977Y39621D01*
X40764Y39709D01*
X40248Y39923D01*
X39465Y40026D01*
X16870D01*
X16432Y40597D01*
X15378Y41405D01*
X14151Y41914D01*
X15378Y42437D01*
X15378D01*
D01*
D01*
D01*
X15378Y42437D01*
X16432Y43246D01*
X17240Y44299D01*
X17748Y45526D01*
X17823Y46092D01*
D02*
G37*
G36*
X247530Y8707D02*
X243840D01*
X243895Y8282D01*
X244349Y7187D01*
X245070Y6247D01*
X246010Y5526D01*
X247105Y5073D01*
X247530Y5017D01*
Y8707D01*
D02*
G37*
G36*
X252720D02*
X249030D01*
Y5017D01*
X249454Y5073D01*
X250549Y5526D01*
X251489Y6247D01*
X252210Y7187D01*
X252664Y8282D01*
X252720Y8707D01*
D02*
G37*
G36*
X57307Y33539D02*
X56132Y33384D01*
X55038Y32931D01*
X54098Y32209D01*
X53376Y31269D01*
X52923Y30175D01*
X52768Y29000D01*
X52923Y27825D01*
X53376Y26730D01*
X54098Y25791D01*
X55038Y25069D01*
X56132Y24616D01*
X57307Y24461D01*
X58482Y24616D01*
X59576Y25069D01*
X60517Y25791D01*
X61238Y26730D01*
X61691Y27825D01*
X61846Y29000D01*
X61691Y30175D01*
X61238Y31269D01*
X60517Y32209D01*
X59576Y32931D01*
X58482Y33384D01*
X57307Y33539D01*
D02*
G37*
G36*
X72500Y81087D02*
X71183Y80914D01*
X69957Y80405D01*
X68903Y79597D01*
X68095Y78543D01*
X67586Y77317D01*
X67413Y76000D01*
X67586Y74683D01*
X68095Y73457D01*
X68903Y72403D01*
X69957Y71595D01*
X70599Y71329D01*
Y70829D01*
X69957Y70563D01*
X68903Y69754D01*
X68095Y68701D01*
X67586Y67474D01*
X67512Y66908D01*
X77488D01*
X77413Y67474D01*
X77268Y67826D01*
X77684Y68103D01*
X84249Y61538D01*
Y31791D01*
X83849Y31269D01*
X83395Y30175D01*
X83241Y29000D01*
X83395Y27825D01*
X83849Y26730D01*
X84570Y25791D01*
X85510Y25069D01*
X86605Y24616D01*
X87779Y24461D01*
X88954Y24616D01*
X90049Y25069D01*
X90989Y25791D01*
X91710Y26730D01*
X92164Y27825D01*
X92318Y29000D01*
X92164Y30175D01*
X91710Y31269D01*
X91310Y31791D01*
Y33470D01*
X95530D01*
X95628Y32979D01*
X95510Y32931D01*
X94570Y32209D01*
X93849Y31269D01*
X93395Y30175D01*
X93339Y29750D01*
X102220D01*
X102164Y30175D01*
X101710Y31269D01*
X100989Y32209D01*
X100049Y32931D01*
X98983Y33372D01*
Y33372D01*
X98983D01*
D01*
D01*
X98983D01*
X98954Y33384D01*
Y33384D01*
X98960Y33470D01*
X124250D01*
X124348Y32979D01*
X124231Y32931D01*
X123291Y32209D01*
X122569Y31269D01*
X122116Y30175D01*
X121961Y29000D01*
X122116Y27825D01*
X122569Y26731D01*
X123291Y25791D01*
X124231Y25069D01*
X125325Y24616D01*
X126500Y24461D01*
X127675Y24616D01*
X128769Y25069D01*
X129709Y25791D01*
X130431Y26731D01*
X130884Y27825D01*
X131039Y29000D01*
X130884Y30175D01*
X130431Y31269D01*
X129709Y32209D01*
X128769Y32931D01*
X127703Y33372D01*
Y33372D01*
X127703D01*
D01*
D01*
X127703D01*
X127675Y33384D01*
Y33384D01*
X127680Y33470D01*
X134093D01*
X134190Y32979D01*
X134073Y32931D01*
X133133Y32209D01*
X132412Y31269D01*
X131958Y30175D01*
X131804Y29000D01*
X131958Y27825D01*
X132412Y26731D01*
X133133Y25791D01*
X134073Y25069D01*
X135168Y24616D01*
X136343Y24461D01*
X137517Y24616D01*
X138612Y25069D01*
X139552Y25791D01*
X140273Y26731D01*
X140727Y27825D01*
X140881Y29000D01*
X140727Y30175D01*
X140273Y31269D01*
X139552Y32209D01*
X138612Y32931D01*
X137546Y33372D01*
Y33372D01*
X137546D01*
D01*
D01*
X137546D01*
X137517Y33384D01*
Y33384D01*
X137523Y33470D01*
X143936D01*
X144033Y32979D01*
X143916Y32931D01*
X142975Y32209D01*
X142254Y31269D01*
X141801Y30175D01*
X141646Y29000D01*
X141801Y27825D01*
X142254Y26731D01*
X142975Y25791D01*
X143916Y25069D01*
X145010Y24616D01*
X146185Y24461D01*
X147360Y24616D01*
X148454Y25069D01*
X149394Y25791D01*
X150116Y26731D01*
X150569Y27825D01*
X150724Y29000D01*
X150569Y30175D01*
X150116Y31269D01*
X149394Y32209D01*
X148454Y32931D01*
X147389Y33372D01*
Y33372D01*
X147389D01*
D01*
D01*
X147389D01*
X147360Y33384D01*
Y33384D01*
X147365Y33470D01*
X153778D01*
X153876Y32979D01*
X153758Y32931D01*
X152818Y32209D01*
X152097Y31269D01*
X151643Y30175D01*
X151489Y29000D01*
X151643Y27825D01*
X152097Y26731D01*
X152818Y25791D01*
X153758Y25069D01*
X154853Y24616D01*
X156027Y24461D01*
X157202Y24616D01*
X158297Y25069D01*
X159237Y25791D01*
X159958Y26731D01*
X160412Y27825D01*
X160566Y29000D01*
X160412Y30175D01*
X159958Y31269D01*
X159237Y32209D01*
X158297Y32931D01*
X157231Y33372D01*
Y33372D01*
X157231D01*
D01*
D01*
X157231D01*
X157202Y33384D01*
Y33384D01*
X157208Y33470D01*
X161187D01*
X162340Y32317D01*
Y31791D01*
X161939Y31269D01*
X161486Y30175D01*
X161331Y29000D01*
X161486Y27825D01*
X161939Y26731D01*
X162661Y25791D01*
X163601Y25069D01*
X164695Y24616D01*
X165870Y24461D01*
X167045Y24616D01*
X168139Y25069D01*
X169079Y25791D01*
X169801Y26731D01*
X170254Y27825D01*
X170409Y29000D01*
X170254Y30175D01*
X169801Y31269D01*
X169400Y31791D01*
Y33780D01*
X169280Y34693D01*
X168927Y35545D01*
X168366Y36276D01*
X165146Y39496D01*
X164415Y40057D01*
X163563Y40410D01*
X162650Y40530D01*
X91310D01*
Y44002D01*
X92175Y44116D01*
X93269Y44569D01*
X94209Y45291D01*
X94931Y46231D01*
X95384Y47325D01*
X95539Y48500D01*
X95384Y49675D01*
X94931Y50770D01*
X94209Y51710D01*
X93269Y52431D01*
X92175Y52884D01*
X91310Y52998D01*
Y63000D01*
X91189Y63914D01*
X90837Y64765D01*
X90276Y65496D01*
X77276Y78496D01*
X76545Y79057D01*
X76495Y79078D01*
X76097Y79597D01*
X75043Y80405D01*
X73817Y80914D01*
X72500Y81087D01*
D02*
G37*
G36*
X599685Y33539D02*
X598510Y33384D01*
X597416Y32931D01*
X596476Y32210D01*
X595754Y31269D01*
X595301Y30175D01*
X595146Y29000D01*
X595301Y27825D01*
X595754Y26731D01*
X596476Y25791D01*
X597416Y25069D01*
X598510Y24616D01*
X599685Y24461D01*
X600860Y24616D01*
X601955Y25069D01*
X602894Y25791D01*
X603616Y26731D01*
X604069Y27825D01*
X604224Y29000D01*
X604069Y30175D01*
X603616Y31269D01*
X602894Y32210D01*
X601955Y32931D01*
X600860Y33384D01*
X599685Y33539D01*
D02*
G37*
G36*
X67150Y33539D02*
X65975Y33384D01*
X64880Y32931D01*
X63940Y32209D01*
X63219Y31269D01*
X62765Y30175D01*
X62611Y29000D01*
X62765Y27825D01*
X63219Y26730D01*
X63940Y25791D01*
X64880Y25069D01*
X65975Y24616D01*
X67150Y24461D01*
X68324Y24616D01*
X69419Y25069D01*
X70359Y25791D01*
X71080Y26730D01*
X71534Y27825D01*
X71688Y29000D01*
X71534Y30175D01*
X71080Y31269D01*
X70359Y32209D01*
X69419Y32931D01*
X68324Y33384D01*
X67150Y33539D01*
D02*
G37*
G36*
X77780D02*
X76605Y33384D01*
X75510Y32931D01*
X74570Y32209D01*
X73849Y31269D01*
X73395Y30175D01*
X73241Y29000D01*
X73395Y27825D01*
X73849Y26730D01*
X74570Y25791D01*
X75510Y25069D01*
X76605Y24616D01*
X77780Y24461D01*
X78954Y24616D01*
X80049Y25069D01*
X80989Y25791D01*
X81710Y26730D01*
X82164Y27825D01*
X82318Y29000D01*
X82164Y30175D01*
X81710Y31269D01*
X80989Y32209D01*
X80049Y32931D01*
X78954Y33384D01*
X77780Y33539D01*
D02*
G37*
G36*
X83566Y44650D02*
X81650D01*
Y42734D01*
X82287Y42998D01*
X82861Y43439D01*
X83302Y44013D01*
X83566Y44650D01*
D02*
G37*
G36*
X249750Y45166D02*
X249113Y44902D01*
X248539Y44461D01*
X248098Y43887D01*
X247834Y43250D01*
X249750D01*
Y45166D01*
D02*
G37*
G36*
X636279Y42774D02*
X635562Y42679D01*
X634893Y42402D01*
X634420Y42039D01*
X568042D01*
X567592Y42385D01*
X566923Y42662D01*
X566205Y42756D01*
X565487Y42662D01*
X564818Y42385D01*
X564244Y41944D01*
X563803Y41369D01*
X563526Y40701D01*
X563431Y39983D01*
X563526Y39265D01*
X563803Y38596D01*
X564102Y38205D01*
X563881Y37757D01*
X559065D01*
X558592Y38120D01*
X557923Y38397D01*
X557205Y38491D01*
X556487Y38397D01*
X555818Y38120D01*
X555243Y37679D01*
X554803Y37104D01*
X554526Y36435D01*
X554431Y35718D01*
X554526Y35000D01*
X554803Y34331D01*
X555243Y33756D01*
X555818Y33315D01*
X556487Y33038D01*
X557205Y32944D01*
X557923Y33038D01*
X558592Y33315D01*
X559065Y33678D01*
X578254D01*
X578351Y33188D01*
X577731Y32931D01*
X576791Y32210D01*
X576069Y31269D01*
X575616Y30175D01*
X575560Y29750D01*
X584440D01*
X584384Y30175D01*
X583931Y31269D01*
X583210Y32210D01*
X582269Y32931D01*
X581649Y33188D01*
X581746Y33678D01*
X587314D01*
X587643Y33302D01*
X587596Y32940D01*
X587573Y32931D01*
X586633Y32210D01*
X585912Y31269D01*
X585458Y30175D01*
X585304Y29000D01*
X585458Y27825D01*
X585912Y26731D01*
X586633Y25791D01*
X587573Y25069D01*
X588668Y24616D01*
X589843Y24461D01*
X591017Y24616D01*
X592112Y25069D01*
X593052Y25791D01*
X593773Y26731D01*
X594227Y27825D01*
X594381Y29000D01*
X594227Y30175D01*
X593773Y31269D01*
X593052Y32210D01*
X592112Y32931D01*
X591017Y33384D01*
X590960Y33598D01*
X591166Y33756D01*
X591607Y34331D01*
X591884Y35000D01*
X591979Y35718D01*
X591884Y36435D01*
X591607Y37104D01*
X591166Y37679D01*
X591262Y37961D01*
X634420D01*
X634893Y37598D01*
X635562Y37321D01*
X636279Y37226D01*
X636997Y37321D01*
X637666Y37598D01*
X638241Y38039D01*
X638682Y38613D01*
X638959Y39282D01*
X639053Y40000D01*
X638959Y40718D01*
X638682Y41387D01*
X638241Y41962D01*
X637666Y42402D01*
X636997Y42679D01*
X636279Y42774D01*
D02*
G37*
G36*
X80150Y44650D02*
X78234D01*
X78498Y44013D01*
X78939Y43439D01*
X79513Y42998D01*
X80150Y42734D01*
Y44650D01*
D02*
G37*
G36*
X251250Y45166D02*
Y43250D01*
X253166D01*
X252902Y43887D01*
X252461Y44461D01*
X251887Y44902D01*
X251250Y45166D01*
D02*
G37*
G36*
X202157Y47925D02*
X199439D01*
Y45207D01*
X202157D01*
Y47925D01*
D02*
G37*
G36*
X227748D02*
X225030D01*
Y45207D01*
X227748D01*
Y47925D01*
D02*
G37*
G36*
X219530Y46623D02*
X218893Y46359D01*
X218318Y45918D01*
X217878Y45344D01*
X217614Y44707D01*
X219530D01*
Y46623D01*
D02*
G37*
G36*
X197939Y47925D02*
X195220D01*
Y45207D01*
X197939D01*
Y47925D01*
D02*
G37*
G36*
X661593Y33440D02*
X661168Y33384D01*
X660073Y32931D01*
X659133Y32210D01*
X658412Y31269D01*
X657958Y30175D01*
X657902Y29750D01*
X661593D01*
Y33440D01*
D02*
G37*
G36*
X663093D02*
Y29750D01*
X666783D01*
X666727Y30175D01*
X666273Y31269D01*
X665552Y32210D01*
X664612Y32931D01*
X663517Y33384D01*
X663093Y33440D01*
D02*
G37*
G36*
X661593Y28250D02*
X657902D01*
X657958Y27825D01*
X658412Y26731D01*
X659133Y25791D01*
X660073Y25069D01*
X661168Y24616D01*
X661593Y24560D01*
Y28250D01*
D02*
G37*
G36*
X666783D02*
X663093D01*
Y24560D01*
X663517Y24616D01*
X664612Y25069D01*
X665552Y25791D01*
X666273Y26731D01*
X666727Y27825D01*
X666783Y28250D01*
D02*
G37*
G36*
X469467Y101930D02*
X468750Y101836D01*
X468081Y101559D01*
X467506Y101118D01*
X467065Y100543D01*
X466788Y99875D01*
X466694Y99157D01*
X466788Y98439D01*
X467065Y97770D01*
X467428Y97297D01*
Y54601D01*
X442423Y29596D01*
X373612D01*
X371723Y31485D01*
X371756Y31984D01*
X372204Y32328D01*
X373012Y33382D01*
X373357Y34214D01*
X373857D01*
X374202Y33382D01*
X375010Y32328D01*
X376064Y31520D01*
X377291Y31012D01*
X378607Y30838D01*
X379924Y31012D01*
X381151Y31520D01*
X382204Y32328D01*
X383012Y33382D01*
X383357Y34214D01*
X383857D01*
X384202Y33382D01*
X385010Y32328D01*
X386064Y31520D01*
X387291Y31012D01*
X388607Y30838D01*
X389924Y31012D01*
X391150Y31520D01*
X392204Y32328D01*
X393012Y33382D01*
X393357Y34214D01*
X393857D01*
X394202Y33382D01*
X395010Y32328D01*
X396064Y31520D01*
X397290Y31012D01*
X398607Y30838D01*
X399924Y31012D01*
X401151Y31520D01*
X402204Y32328D01*
X403012Y33382D01*
X403357Y34214D01*
X403857D01*
X404202Y33382D01*
X405010Y32328D01*
X406064Y31520D01*
X407291Y31012D01*
X408607Y30838D01*
X409924Y31012D01*
X411151Y31520D01*
X412204Y32328D01*
X413012Y33382D01*
X413357Y34214D01*
X413857D01*
X414202Y33382D01*
X415010Y32328D01*
X416064Y31520D01*
X417290Y31012D01*
X418607Y30838D01*
X419924Y31012D01*
X421150Y31520D01*
X422204Y32328D01*
X423012Y33382D01*
X423521Y34609D01*
X423694Y35925D01*
X423521Y37242D01*
X423012Y38469D01*
X422204Y39522D01*
X421150Y40330D01*
X419924Y40839D01*
X418607Y41012D01*
X417290Y40839D01*
X416064Y40330D01*
X415010Y39522D01*
X414202Y38469D01*
X413857Y37637D01*
X413357D01*
X413012Y38469D01*
X412204Y39522D01*
X411151Y40330D01*
X409924Y40839D01*
X408607Y41012D01*
X407291Y40839D01*
X406064Y40330D01*
X405010Y39522D01*
X404202Y38469D01*
X403857Y37637D01*
X403357D01*
X403012Y38469D01*
X402204Y39522D01*
X401151Y40330D01*
X399924Y40839D01*
X398607Y41012D01*
X397290Y40839D01*
X396786Y40630D01*
X354817Y82599D01*
X354156Y83041D01*
X353376Y83196D01*
X343527D01*
X343054Y83559D01*
X342385Y83836D01*
X341668Y83930D01*
X340950Y83836D01*
X340281Y83559D01*
X339706Y83118D01*
X339265Y82544D01*
X338988Y81875D01*
X338894Y81157D01*
X338988Y80439D01*
X339265Y79770D01*
X339706Y79195D01*
X340281Y78755D01*
X340950Y78478D01*
X341668Y78383D01*
X342385Y78478D01*
X343054Y78755D01*
X343527Y79118D01*
X352531D01*
X390530Y41118D01*
X390252Y40703D01*
X389924Y40839D01*
X388607Y41012D01*
X387291Y40839D01*
X386064Y40330D01*
X385010Y39522D01*
X384202Y38469D01*
X383857Y37637D01*
X383357D01*
X383012Y38469D01*
X382204Y39522D01*
X381151Y40330D01*
X380646Y40539D01*
Y47217D01*
X380491Y47998D01*
X380049Y48659D01*
X380049Y48659D01*
X380049D01*
D01*
X380049Y48659D01*
Y48659D01*
X364649Y64060D01*
X364448Y64543D01*
X364007Y65118D01*
X363433Y65559D01*
X362764Y65836D01*
X362046Y65930D01*
X361328Y65836D01*
X360659Y65559D01*
X360085Y65118D01*
X359644Y64543D01*
X359367Y63875D01*
X359272Y63157D01*
X359367Y62439D01*
X359644Y61770D01*
X360085Y61195D01*
X360659Y60755D01*
X361328Y60477D01*
X362046Y60383D01*
X362498Y60442D01*
X376568Y46373D01*
Y40539D01*
X376064Y40330D01*
X375010Y39522D01*
X374202Y38469D01*
X373857Y37637D01*
X373357D01*
X373012Y38469D01*
X372204Y39522D01*
X371150Y40330D01*
X369924Y40839D01*
X368607Y41012D01*
X367290Y40839D01*
X366064Y40330D01*
X365010Y39522D01*
X364202Y38469D01*
X363694Y37242D01*
X363520Y35925D01*
X363694Y34609D01*
X364202Y33382D01*
X365010Y32328D01*
X366064Y31520D01*
X366656Y31275D01*
X366673Y31188D01*
X366723Y30937D01*
X367165Y30275D01*
X371326Y26115D01*
D01*
X371326Y26115D01*
X371326Y26115D01*
D01*
D01*
D01*
X371326Y26115D01*
Y26115D01*
X371987Y25673D01*
X372767Y25517D01*
X443267D01*
X444048Y25673D01*
X444709Y26115D01*
X470909Y52315D01*
X471351Y52976D01*
X471507Y53757D01*
D01*
D01*
D01*
D01*
D01*
X471507D01*
D01*
D01*
D01*
D01*
Y53757D01*
X471507D01*
D01*
Y53757D01*
D01*
D01*
D01*
D01*
D01*
D01*
D01*
D01*
D01*
D01*
D01*
D01*
Y53757D01*
D01*
X471507D01*
D01*
D01*
D01*
D01*
X471507Y53757D01*
Y97297D01*
X471870Y97770D01*
X472147Y98439D01*
X472241Y99157D01*
X472147Y99875D01*
X471870Y100543D01*
X471429Y101118D01*
X470854Y101559D01*
X470185Y101836D01*
X469467Y101930D01*
D02*
G37*
G36*
X485393Y72621D02*
X484612Y72466D01*
X483951Y72024D01*
X483509Y71362D01*
X483353Y70582D01*
Y43023D01*
X483509Y42243D01*
X483951Y41581D01*
X484612Y41139D01*
X485393Y40984D01*
X485433Y40992D01*
X505078D01*
X505855Y41146D01*
X506514Y41587D01*
X506954Y42246D01*
X507109Y43023D01*
Y70582D01*
X506954Y71359D01*
X506514Y72018D01*
X505855Y72458D01*
X505078Y72613D01*
X485433D01*
X485393Y72621D01*
D02*
G37*
G36*
X301928Y72613D02*
X282243D01*
X281466Y72458D01*
X280807Y72018D01*
X280366Y71359D01*
X280212Y70582D01*
Y43023D01*
X280212Y43023D01*
X280212D01*
X280366Y42246D01*
X280807Y41587D01*
X281466Y41146D01*
X282243Y40992D01*
X301928D01*
X302706Y41146D01*
X303364Y41587D01*
X303805Y42246D01*
X303959Y43023D01*
Y70582D01*
X303805Y71359D01*
X303364Y72018D01*
X302706Y72458D01*
X301928Y72613D01*
D02*
G37*
G36*
X249750Y41750D02*
X247834D01*
X248098Y41113D01*
X248539Y40539D01*
X249113Y40098D01*
X249750Y39834D01*
Y41750D01*
D02*
G37*
G36*
X253166D02*
X251250D01*
Y39834D01*
X251887Y40098D01*
X252461Y40539D01*
X252902Y41113D01*
X253166Y41750D01*
D02*
G37*
G36*
X729048Y180925D02*
X726330D01*
Y178207D01*
X729048D01*
Y180925D01*
D02*
G37*
G36*
X755829Y180925D02*
X753111D01*
Y178207D01*
X755829D01*
Y180925D01*
D02*
G37*
G36*
X509449Y185911D02*
X508235Y185751D01*
X507104Y185282D01*
X506132Y184537D01*
X505387Y183565D01*
X504918Y182434D01*
X504759Y181220D01*
X504918Y180007D01*
X505045Y179701D01*
X492040Y166696D01*
X292367D01*
X291894Y167059D01*
X291225Y167336D01*
X290507Y167430D01*
X289789Y167336D01*
X289120Y167059D01*
X288546Y166618D01*
X288105Y166043D01*
X287828Y165375D01*
X287733Y164657D01*
X287828Y163939D01*
X288105Y163270D01*
X288546Y162695D01*
X289120Y162255D01*
X289789Y161977D01*
X290507Y161883D01*
X291225Y161977D01*
X291894Y162255D01*
X292367Y162618D01*
X492885D01*
X493665Y162773D01*
X494327Y163215D01*
Y163215D01*
X494327D01*
D01*
D01*
D01*
D01*
D01*
D01*
X494327D01*
D01*
X494327D01*
Y163215D01*
D01*
D01*
D01*
D01*
Y163215D01*
D01*
D01*
D01*
D01*
D01*
D01*
Y163215D01*
D01*
D01*
X494327D01*
D01*
D01*
D01*
D01*
X507929Y176817D01*
X508235Y176690D01*
X509449Y176530D01*
X510663Y176690D01*
X511794Y177159D01*
X512765Y177904D01*
X513511Y178875D01*
X513979Y180007D01*
X514139Y181220D01*
X513979Y182434D01*
X513511Y183565D01*
X512765Y184537D01*
X511794Y185282D01*
X510663Y185751D01*
X509449Y185911D01*
D02*
G37*
G36*
X724830Y180925D02*
X722111D01*
Y178207D01*
X724830D01*
Y180925D01*
D02*
G37*
G36*
X760048Y180925D02*
X757329D01*
Y178207D01*
X760048D01*
Y180925D01*
D02*
G37*
G36*
X42421Y195459D02*
X41278Y195346D01*
X40179Y195013D01*
X39166Y194472D01*
X38278Y193743D01*
X37550Y192855D01*
X37008Y191842D01*
X36675Y190743D01*
X36562Y189600D01*
X36675Y188457D01*
X37008Y187358D01*
X37550Y186345D01*
X38278Y185457D01*
X39166Y184729D01*
X40179Y184187D01*
X41278Y183854D01*
X42421Y183741D01*
X43564Y183854D01*
X44663Y184187D01*
X45676Y184729D01*
X46564Y185457D01*
X47293Y186345D01*
X47834Y187358D01*
X48168Y188457D01*
X48280Y189600D01*
X48168Y190743D01*
X47834Y191842D01*
X47293Y192855D01*
X46564Y193743D01*
X45676Y194472D01*
X44663Y195013D01*
X43564Y195346D01*
X42421Y195459D01*
D02*
G37*
G36*
X623224Y193996D02*
X622050Y193841D01*
X620955Y193387D01*
X620015Y192666D01*
X619294Y191726D01*
X618840Y190631D01*
X618686Y189457D01*
X618840Y188282D01*
X619294Y187187D01*
X620015Y186247D01*
X620955Y185526D01*
X622050Y185073D01*
X623224Y184918D01*
X624399Y185073D01*
X625494Y185526D01*
X626434Y186247D01*
X627155Y187187D01*
X627609Y188282D01*
X627763Y189457D01*
X627609Y190631D01*
X627155Y191726D01*
X626434Y192666D01*
X625494Y193387D01*
X624399Y193841D01*
X623224Y193996D01*
D02*
G37*
G36*
X444488Y195911D02*
X443274Y195751D01*
X442143Y195282D01*
X441172Y194537D01*
X440426Y193565D01*
X439958Y192434D01*
X439798Y191220D01*
X439958Y190007D01*
X440426Y188875D01*
X440604Y188644D01*
X440383Y188196D01*
X434067D01*
X433287Y188041D01*
X432626Y187599D01*
X428287Y183260D01*
X409700D01*
X409574Y183565D01*
X408828Y184537D01*
X407857Y185282D01*
X406726Y185751D01*
X405512Y185911D01*
X404298Y185751D01*
X403167Y185282D01*
X402195Y184537D01*
X401450Y183565D01*
X400982Y182434D01*
X400822Y181220D01*
X400982Y180007D01*
X401450Y178875D01*
X402195Y177904D01*
X403153Y177169D01*
X402992Y176696D01*
X347566D01*
X344561Y179701D01*
X344688Y180007D01*
X344848Y181220D01*
X344688Y182434D01*
X344219Y183565D01*
X343474Y184537D01*
X342502Y185282D01*
X341371Y185751D01*
X340158Y185911D01*
X338944Y185751D01*
X337812Y185282D01*
X336841Y184537D01*
X336096Y183565D01*
X335627Y182434D01*
X335467Y181220D01*
X335627Y180007D01*
X336096Y178875D01*
X336841Y177904D01*
X337812Y177159D01*
X338944Y176690D01*
X340158Y176530D01*
X341371Y176690D01*
X341677Y176817D01*
X345279Y173215D01*
X345698Y172935D01*
X345553Y172457D01*
X328467D01*
X327994Y172819D01*
X327325Y173097D01*
X326607Y173191D01*
X325889Y173097D01*
X325220Y172819D01*
X324747Y172457D01*
X270352D01*
X258749Y184059D01*
X258087Y184501D01*
X257307Y184657D01*
X194107D01*
X193327Y184501D01*
X192665Y184059D01*
X185765Y177159D01*
X185323Y176498D01*
X185168Y175717D01*
Y168317D01*
X185323Y167537D01*
X185765Y166876D01*
X189791Y162849D01*
X190453Y162407D01*
X191233Y162252D01*
X192662D01*
X192789Y161946D01*
X193091Y161552D01*
X192827Y161127D01*
X192086Y161275D01*
X172401D01*
X171623Y161120D01*
X170964Y160680D01*
X170524Y160021D01*
X170369Y159244D01*
Y132768D01*
X170245Y132717D01*
X169830Y132994D01*
Y143209D01*
X169830Y143209D01*
X169675Y143990D01*
X169232Y144651D01*
X169232Y144651D01*
X162979Y150905D01*
Y161691D01*
X163209Y161787D01*
X164149Y162508D01*
X164871Y163448D01*
X165324Y164543D01*
X165479Y165718D01*
X165324Y166892D01*
X164871Y167987D01*
X164149Y168927D01*
X163209Y169648D01*
X162115Y170102D01*
X160940Y170256D01*
X159765Y170102D01*
X158670Y169648D01*
X157730Y168927D01*
X157009Y167987D01*
X156556Y166892D01*
X156401Y165718D01*
X156556Y164543D01*
X157009Y163448D01*
X157730Y162508D01*
X158670Y161787D01*
X158901Y161691D01*
Y150060D01*
X158901Y150060D01*
X158901D01*
X159056Y149280D01*
X159498Y148618D01*
X165751Y142365D01*
Y139906D01*
X165661Y139770D01*
X165163Y139721D01*
X152979Y151905D01*
Y161218D01*
X155440D01*
Y170218D01*
X146440D01*
Y161218D01*
X148901D01*
Y151060D01*
X148901Y151060D01*
X148901D01*
X149056Y150280D01*
X149498Y149618D01*
X161961Y137155D01*
Y132820D01*
X161470Y132722D01*
X161402Y132887D01*
X160961Y133461D01*
X160387Y133902D01*
X159718Y134179D01*
X159000Y134274D01*
X158282Y134179D01*
X157613Y133902D01*
X157039Y133461D01*
X156598Y132887D01*
X156321Y132218D01*
X156226Y131500D01*
Y116413D01*
X148856Y109043D01*
X100800D01*
X100800Y109043D01*
X100608D01*
X100447Y109517D01*
X101397Y110246D01*
X102205Y111299D01*
X102713Y112526D01*
X102788Y113093D01*
X92812D01*
X92887Y112526D01*
X93395Y111299D01*
X94203Y110246D01*
X95153Y109517D01*
X94992Y109043D01*
X39000D01*
X37695Y108871D01*
X36478Y108368D01*
X35434Y107566D01*
X20934Y93066D01*
X20132Y92022D01*
X19629Y90805D01*
X19457Y89500D01*
X19629Y88195D01*
X20132Y86978D01*
X20181Y86915D01*
X20199Y86782D01*
X20476Y86113D01*
X20917Y85539D01*
X21491Y85098D01*
X22160Y84821D01*
X22878Y84726D01*
X22940Y84734D01*
X23195Y84629D01*
X24500Y84457D01*
X25805Y84629D01*
X26117Y84758D01*
X26596Y84821D01*
X27265Y85098D01*
X27839Y85539D01*
X28280Y86113D01*
X28305Y86173D01*
X41089Y98957D01*
X97468D01*
X97800Y98913D01*
X98132Y98957D01*
X100800D01*
X100800Y98957D01*
X220006D01*
Y83957D01*
X220100Y83239D01*
X220377Y82570D01*
X220818Y81996D01*
X220818Y81996D01*
X220818Y81996D01*
X221393Y81555D01*
X222062Y81278D01*
X222780Y81183D01*
X223498Y81278D01*
X224166Y81555D01*
X224741Y81996D01*
X225182Y82570D01*
X225459Y83239D01*
X225553Y83957D01*
X225553Y83957D01*
Y93956D01*
X225553Y93957D01*
X225553Y93957D01*
Y98957D01*
X230647D01*
X233571Y96034D01*
Y42776D01*
X232329Y41535D01*
X227748D01*
Y43707D01*
X224279D01*
Y44456D01*
X223530D01*
Y47925D01*
X220811D01*
Y47040D01*
X220435Y46710D01*
X220998Y46636D01*
X221030Y46623D01*
Y43956D01*
X220281D01*
Y43207D01*
X217614D01*
X217878Y42570D01*
X218318Y41995D01*
X217965Y41535D01*
X202157D01*
Y43707D01*
X195220D01*
Y40988D01*
X197197D01*
X197358Y40515D01*
X197147Y40353D01*
X197147Y40353D01*
X192852Y36058D01*
X192211Y35222D01*
X191808Y34249D01*
X191670Y33205D01*
X191670Y33205D01*
Y31045D01*
X191284Y30728D01*
X191039Y30777D01*
Y76640D01*
X191402Y77113D01*
X191552Y77476D01*
X192043Y77573D01*
X196650Y72966D01*
Y62098D01*
X195220D01*
Y55161D01*
X196349D01*
X196570Y54713D01*
X196287Y54344D01*
X196010Y53675D01*
X195915Y52957D01*
X196010Y52239D01*
X196287Y51570D01*
X196728Y50995D01*
X197302Y50555D01*
X197971Y50278D01*
X198689Y50183D01*
X199407Y50278D01*
X200076Y50555D01*
X200650Y50995D01*
X201091Y51570D01*
X201368Y52239D01*
X201463Y52957D01*
X201368Y53675D01*
X201091Y54344D01*
X200728Y54817D01*
Y55161D01*
X202157D01*
Y56591D01*
X220811D01*
Y55161D01*
X227748D01*
Y62098D01*
X220811D01*
Y60669D01*
X202157D01*
Y62098D01*
X200728D01*
Y73811D01*
X200573Y74591D01*
X200131Y75253D01*
X191942Y83442D01*
X191280Y83884D01*
X190500Y84039D01*
X181000D01*
X180220Y83884D01*
X179558Y83442D01*
X177558Y81442D01*
X177116Y80781D01*
X177055Y80474D01*
X177039Y80461D01*
X176598Y79887D01*
X176321Y79218D01*
X176226Y78500D01*
X176321Y77782D01*
X176598Y77113D01*
X177039Y76539D01*
X177613Y76098D01*
X178282Y75821D01*
X179000Y75726D01*
X179718Y75821D01*
X180387Y76098D01*
X180961Y76539D01*
X181250Y76915D01*
X181750D01*
X181961Y76640D01*
Y22600D01*
X181961Y22600D01*
X181961D01*
X182116Y21820D01*
X182558Y21158D01*
X186058Y17658D01*
X186720Y17216D01*
X187500Y17061D01*
X209500D01*
X210280Y17216D01*
X210942Y17658D01*
Y17658D01*
X210942D01*
D01*
D01*
D01*
D01*
D01*
D01*
X210942D01*
D01*
X210942D01*
Y17658D01*
D01*
D01*
D01*
D01*
Y17658D01*
D01*
D01*
D01*
D01*
D01*
D01*
Y17658D01*
D01*
D01*
X210942D01*
D01*
D01*
D01*
D01*
D01*
X216832Y23548D01*
X216832Y23548D01*
X217274Y24209D01*
D01*
D01*
D01*
Y24209D01*
X217274D01*
D01*
D01*
D01*
D01*
X217274D01*
D01*
D01*
D01*
D01*
Y24209D01*
X217274D01*
D01*
Y24209D01*
D01*
D01*
D01*
D01*
D01*
D01*
D01*
D01*
D01*
D01*
D01*
D01*
Y24209D01*
D01*
X217274D01*
D01*
D01*
D01*
D01*
X217274Y24210D01*
X217426Y24973D01*
X217659Y25069D01*
X218599Y25791D01*
X219321Y26731D01*
X219774Y27825D01*
X219929Y29000D01*
X219774Y30175D01*
X219321Y31269D01*
X218599Y32210D01*
X217659Y32931D01*
X216604Y33368D01*
Y33368D01*
X216604D01*
X216565Y33384D01*
Y33384D01*
X216570Y33465D01*
X222972D01*
X223070Y32975D01*
X222963Y32931D01*
X222023Y32210D01*
X221302Y31269D01*
X220848Y30175D01*
X220792Y29750D01*
X229672D01*
X229616Y30175D01*
X229163Y31269D01*
X228442Y32210D01*
X227502Y32931D01*
X226447Y33368D01*
Y33368D01*
X226447D01*
X226407Y33384D01*
Y33384D01*
X226412Y33465D01*
X233571D01*
Y30386D01*
X233742Y29081D01*
X234246Y27865D01*
X235048Y26820D01*
X246131Y15737D01*
X247175Y14936D01*
X248271Y14482D01*
X248206Y13986D01*
X248280Y13996D01*
X249030Y13897D01*
Y10207D01*
X252720D01*
X252664Y10632D01*
X252210Y11726D01*
X251489Y12666D01*
X250549Y13387D01*
X249632Y13767D01*
X249643Y13853D01*
X249724Y14260D01*
X256835D01*
X256932Y13770D01*
X256010Y13387D01*
X255070Y12666D01*
X254349Y11726D01*
X253895Y10632D01*
X253741Y9457D01*
X253895Y8282D01*
X254349Y7187D01*
X255070Y6247D01*
X256010Y5526D01*
X257105Y5073D01*
X258280Y4918D01*
X259454Y5073D01*
X260549Y5526D01*
X261489Y6247D01*
X262210Y7187D01*
X262664Y8282D01*
X262818Y9457D01*
X262664Y10632D01*
X262210Y11726D01*
X261489Y12666D01*
X260549Y13387D01*
X259627Y13770D01*
X259724Y14260D01*
X266835D01*
X266933Y13770D01*
X266010Y13387D01*
X265070Y12666D01*
X264349Y11726D01*
X263895Y10632D01*
X263741Y9457D01*
X263895Y8282D01*
X264349Y7187D01*
X265070Y6247D01*
X266010Y5526D01*
X267105Y5073D01*
X268280Y4918D01*
X269454Y5073D01*
X270549Y5526D01*
X271489Y6247D01*
X272210Y7187D01*
X272664Y8282D01*
X272818Y9457D01*
X272664Y10632D01*
X272210Y11726D01*
X271489Y12666D01*
X270549Y13387D01*
X269627Y13770D01*
X269724Y14260D01*
X273741D01*
Y9457D01*
X273780Y9162D01*
Y4957D01*
X277985D01*
X278280Y4918D01*
X278574Y4957D01*
X282780D01*
Y9162D01*
X282818Y9457D01*
Y14260D01*
X522440D01*
X523745Y14432D01*
X524961Y14936D01*
X526006Y15737D01*
X554734Y44466D01*
X613445D01*
X614489Y44603D01*
X615462Y45006D01*
X616298Y45647D01*
X616939Y46483D01*
X617342Y47456D01*
X617480Y48500D01*
X617342Y49544D01*
X616939Y50517D01*
X616298Y51353D01*
X615462Y51994D01*
X614489Y52397D01*
X613445Y52535D01*
X563457D01*
X563265Y52997D01*
X622182Y111913D01*
X622672Y111816D01*
X622878Y111320D01*
X623241Y110847D01*
Y93402D01*
X621966Y92128D01*
X621375Y92050D01*
X620706Y91773D01*
X620131Y91332D01*
X619691Y90757D01*
X619414Y90088D01*
X619319Y89371D01*
X619414Y88653D01*
X619691Y87984D01*
X620131Y87409D01*
X620706Y86968D01*
X621375Y86691D01*
X622093Y86597D01*
X622811Y86691D01*
X623480Y86968D01*
X624054Y87409D01*
X624495Y87984D01*
X624772Y88653D01*
X624850Y89244D01*
X626722Y91115D01*
X627164Y91777D01*
X627319Y92557D01*
Y110847D01*
X627682Y111320D01*
X627959Y111989D01*
X628053Y112707D01*
X627959Y113425D01*
X627682Y114094D01*
X627241Y114668D01*
X626666Y115109D01*
X625997Y115386D01*
X625911Y115642D01*
X645006Y134737D01*
Y134737D01*
D01*
D01*
D01*
X645006Y134737D01*
D01*
Y134737D01*
D01*
X645006D01*
Y134737D01*
D01*
Y134737D01*
Y134737D01*
X645006D01*
D01*
D01*
Y134737D01*
D01*
D01*
D01*
D01*
D01*
D01*
Y134737D01*
D01*
D01*
X645006D01*
D01*
X645006Y134737D01*
D01*
D01*
X645807Y135782D01*
X646164Y136642D01*
X646311Y136998D01*
X646483Y138303D01*
D01*
D01*
D01*
D01*
D01*
X646483D01*
D01*
D01*
D01*
D01*
Y138303D01*
X646483D01*
D01*
Y138303D01*
D01*
D01*
D01*
D01*
D01*
D01*
D01*
D01*
D01*
D01*
D01*
D01*
Y138303D01*
D01*
X646483D01*
D01*
D01*
D01*
D01*
X646483Y138303D01*
Y147410D01*
X646956Y147571D01*
X647685Y146621D01*
X648739Y145812D01*
X649966Y145304D01*
X650532Y145229D01*
Y150217D01*
Y155206D01*
X649966Y155131D01*
X648739Y154623D01*
X647685Y153814D01*
X646877Y152761D01*
X646611Y152119D01*
X646111D01*
X645845Y152761D01*
X645037Y153814D01*
X643983Y154623D01*
X642756Y155131D01*
X641440Y155304D01*
X640123Y155131D01*
X638896Y154623D01*
X637843Y153814D01*
X637035Y152761D01*
X636526Y151534D01*
X636353Y150218D01*
X636397Y149886D01*
Y140392D01*
X520351Y24346D01*
X251786D01*
X243657Y32475D01*
Y93618D01*
X260334D01*
X260612Y93202D01*
X260613Y93207D01*
X265946D01*
X265948Y93202D01*
X266225Y93618D01*
X365046D01*
X366221Y93773D01*
X366862Y94038D01*
X367316Y94226D01*
X368256Y94947D01*
X370316Y97008D01*
X371038Y97948D01*
X371491Y99043D01*
X371646Y100218D01*
X371491Y101392D01*
X371038Y102487D01*
X370316Y103427D01*
X369376Y104148D01*
X368282Y104602D01*
X367107Y104756D01*
X365932Y104602D01*
X364838Y104148D01*
X363897Y103427D01*
X363166Y102696D01*
X278212D01*
X278044Y103166D01*
X278888Y103859D01*
X279751Y104912D01*
X280393Y106113D01*
X280789Y107416D01*
X280922Y108771D01*
X280789Y110126D01*
X280393Y111430D01*
X279751Y112630D01*
X278888Y113683D01*
X277835Y114547D01*
X276634Y115189D01*
X275331Y115584D01*
X273975Y115718D01*
X272620Y115584D01*
X271317Y115189D01*
X270116Y114547D01*
X269063Y113683D01*
X268199Y112630D01*
X267557Y111430D01*
X267162Y110126D01*
X267028Y108771D01*
X267162Y107416D01*
X267557Y106113D01*
X268199Y104912D01*
X269063Y103859D01*
X269907Y103166D01*
X269739Y102696D01*
X266684D01*
X266406Y103111D01*
X266446Y103207D01*
X261114D01*
X261153Y103111D01*
X260876Y102696D01*
X241173D01*
X236302Y107566D01*
X235258Y108368D01*
X234042Y108871D01*
X232736Y109043D01*
X157355D01*
X157163Y109505D01*
X160961Y113303D01*
X161402Y113878D01*
X161679Y114547D01*
X161679D01*
D01*
D01*
D01*
D01*
X161679D01*
D01*
D01*
D01*
D01*
Y114547D01*
X161679D01*
D01*
Y114547D01*
D01*
D01*
D01*
D01*
D01*
D01*
D01*
D01*
D01*
D01*
D01*
D01*
Y114547D01*
D01*
X161679D01*
D01*
D01*
D01*
D01*
X161679Y114547D01*
X161774Y115264D01*
Y128471D01*
X162252Y128616D01*
X162558Y128158D01*
X174558Y116158D01*
X175220Y115716D01*
X176000Y115561D01*
X192140D01*
X192613Y115198D01*
X193282Y114921D01*
X194000Y114826D01*
X194718Y114921D01*
X195387Y115198D01*
X195961Y115639D01*
X196250Y116015D01*
X196750D01*
X197039Y115639D01*
X197613Y115198D01*
X198282Y114921D01*
X199000Y114826D01*
X199718Y114921D01*
X200387Y115198D01*
X200961Y115639D01*
X201402Y116213D01*
X201679Y116882D01*
X201774Y117600D01*
X201679Y118318D01*
X201402Y118987D01*
X200961Y119561D01*
X200554Y119874D01*
X200442Y120042D01*
X196442Y124042D01*
X195780Y124484D01*
X195000Y124639D01*
X177845D01*
X173293Y129192D01*
X173484Y129653D01*
X192086D01*
X192863Y129808D01*
X193522Y130248D01*
X193962Y130907D01*
X194117Y131685D01*
Y159244D01*
X193962Y160021D01*
X193957Y160028D01*
X194322Y160370D01*
X194505Y160230D01*
X195636Y159761D01*
X196850Y159601D01*
X198064Y159761D01*
X199195Y160230D01*
X200167Y160975D01*
X200912Y161946D01*
X201381Y163077D01*
X201540Y164291D01*
X201381Y165505D01*
X200912Y166636D01*
X200167Y167608D01*
X199195Y168353D01*
X198064Y168822D01*
X196850Y168982D01*
X195636Y168822D01*
X194505Y168353D01*
X193534Y167608D01*
X192789Y166636D01*
X192662Y166331D01*
X192078D01*
X189246Y169162D01*
Y174873D01*
X194952Y180578D01*
X256462D01*
X268065Y168975D01*
X268065Y168975D01*
X268727Y168533D01*
Y168533D01*
X268727Y168533D01*
D01*
D01*
D01*
X268727D01*
Y168533D01*
D01*
X268727Y168533D01*
X268727Y168533D01*
X269507Y168378D01*
X269507Y168378D01*
X324747D01*
X325220Y168015D01*
X325889Y167738D01*
X326607Y167644D01*
X327325Y167738D01*
X327994Y168015D01*
X328467Y168378D01*
X441407D01*
X442187Y168533D01*
X442849Y168975D01*
Y168975D01*
X442849D01*
D01*
D01*
D01*
D01*
D01*
D01*
X442849D01*
D01*
X442849D01*
Y168975D01*
D01*
D01*
D01*
D01*
Y168975D01*
D01*
D01*
D01*
D01*
D01*
D01*
Y168975D01*
D01*
D01*
X442849D01*
D01*
D01*
D01*
D01*
D01*
X445930Y172057D01*
X445930Y172057D01*
X446195Y172453D01*
X446372Y172718D01*
X446527Y173499D01*
D01*
D01*
D01*
D01*
D01*
X446527D01*
D01*
D01*
D01*
D01*
Y173499D01*
X446527D01*
D01*
Y173499D01*
D01*
D01*
D01*
D01*
D01*
D01*
D01*
D01*
D01*
D01*
D01*
D01*
Y173499D01*
D01*
X446527D01*
D01*
D01*
D01*
D01*
X446527Y173499D01*
Y177032D01*
X446833Y177159D01*
X447805Y177904D01*
X448550Y178875D01*
X449018Y180007D01*
X449178Y181220D01*
X449018Y182434D01*
X448550Y183565D01*
X448470Y183669D01*
X448692Y184117D01*
X452923D01*
X456726Y180315D01*
X457387Y179873D01*
X458168Y179718D01*
X485523D01*
X486210Y179030D01*
X486288Y178439D01*
X486565Y177770D01*
X487006Y177195D01*
X487581Y176755D01*
X488250Y176478D01*
X488968Y176383D01*
X489685Y176478D01*
X490354Y176755D01*
X490929Y177195D01*
X491370Y177770D01*
X491647Y178439D01*
X491741Y179157D01*
X491647Y179875D01*
X491370Y180544D01*
X490929Y181118D01*
X490354Y181559D01*
X489685Y181836D01*
X489094Y181914D01*
X487810Y183199D01*
X487148Y183641D01*
X486368Y183796D01*
X459012D01*
X455209Y187599D01*
X454548Y188041D01*
X453767Y188196D01*
X448594D01*
X448373Y188644D01*
X448550Y188875D01*
X449018Y190007D01*
X449178Y191220D01*
X449018Y192434D01*
X448550Y193565D01*
X447805Y194537D01*
X446833Y195282D01*
X445702Y195751D01*
X444488Y195911D01*
D02*
G37*
G36*
X12500Y195459D02*
X11357Y195346D01*
X10258Y195013D01*
X9245Y194472D01*
X8357Y193743D01*
X7628Y192855D01*
X7087Y191842D01*
X6754Y190743D01*
X6641Y189600D01*
X6754Y188457D01*
X7087Y187358D01*
X7628Y186345D01*
X8357Y185457D01*
X9245Y184729D01*
X10258Y184187D01*
X11357Y183854D01*
X12500Y183741D01*
X13643Y183854D01*
X14742Y184187D01*
X15755Y184729D01*
X16643Y185457D01*
X17371Y186345D01*
X17913Y187358D01*
X18246Y188457D01*
X18359Y189600D01*
X18246Y190743D01*
X17913Y191842D01*
X17371Y192855D01*
X16643Y193743D01*
X15755Y194472D01*
X14742Y195013D01*
X13643Y195346D01*
X12500Y195459D01*
D02*
G37*
G36*
X774221Y206516D02*
X767284D01*
Y199579D01*
X768714D01*
Y180925D01*
X767284D01*
Y173988D01*
X767736D01*
X768065Y173612D01*
X767979Y172957D01*
X768074Y172239D01*
X768351Y171570D01*
X768791Y170995D01*
X769366Y170555D01*
X770035Y170278D01*
X770753Y170183D01*
X771471Y170278D01*
X772140Y170555D01*
X772714Y170995D01*
X773155Y171570D01*
X773432Y172239D01*
X773527Y172957D01*
X773432Y173675D01*
X773642Y173988D01*
X774221D01*
Y180925D01*
X772792D01*
Y199579D01*
X774221D01*
Y206516D01*
D02*
G37*
G36*
X273228Y185911D02*
X272014Y185751D01*
X270883Y185282D01*
X269912Y184537D01*
X269167Y183565D01*
X268698Y182434D01*
X268538Y181220D01*
X268698Y180007D01*
X269167Y178875D01*
X269912Y177904D01*
X270883Y177159D01*
X272014Y176690D01*
X273228Y176530D01*
X274442Y176690D01*
X275573Y177159D01*
X276545Y177904D01*
X277290Y178875D01*
X277417Y179181D01*
X283159D01*
X287765Y174575D01*
X288427Y174133D01*
X289207Y173978D01*
X307647D01*
X308120Y173615D01*
X308789Y173338D01*
X309507Y173244D01*
X310225Y173338D01*
X310894Y173615D01*
X311468Y174056D01*
X311909Y174630D01*
X312186Y175300D01*
X312281Y176017D01*
X312186Y176735D01*
X311909Y177404D01*
X311468Y177979D01*
X310894Y178419D01*
X310225Y178697D01*
X309507Y178791D01*
X308789Y178697D01*
X308120Y178419D01*
X307647Y178057D01*
X290052D01*
X285446Y182662D01*
X284784Y183104D01*
X284004Y183260D01*
X277417D01*
X277290Y183565D01*
X276545Y184537D01*
X275573Y185282D01*
X274442Y185751D01*
X273228Y185911D01*
D02*
G37*
G36*
X123250Y160658D02*
X122825Y160602D01*
X121731Y160148D01*
X120791Y159427D01*
X120069Y158487D01*
X119616Y157392D01*
X119560Y156968D01*
X123250D01*
Y160658D01*
D02*
G37*
G36*
X124750D02*
Y156968D01*
X128440D01*
X128384Y157392D01*
X127931Y158487D01*
X127209Y159427D01*
X126269Y160148D01*
X125175Y160602D01*
X124750Y160658D01*
D02*
G37*
G36*
X724830Y176707D02*
X722111D01*
Y173988D01*
X724830D01*
Y176707D01*
D02*
G37*
G36*
X760048Y176707D02*
X757329D01*
Y173988D01*
X760048D01*
Y176707D01*
D02*
G37*
G36*
X215354Y178981D02*
X214140Y178822D01*
X213009Y178353D01*
X212038Y177608D01*
X211293Y176636D01*
X211166Y176331D01*
X201039D01*
X200912Y176636D01*
X200167Y177608D01*
X199195Y178353D01*
X198064Y178822D01*
X196850Y178981D01*
X195636Y178822D01*
X194505Y178353D01*
X193534Y177608D01*
X192789Y176636D01*
X192320Y175505D01*
X192160Y174291D01*
X192320Y173077D01*
X192789Y171946D01*
X193534Y170975D01*
X194505Y170230D01*
X195636Y169761D01*
X196850Y169601D01*
X198064Y169761D01*
X199195Y170230D01*
X200167Y170975D01*
X200912Y171946D01*
X201039Y172252D01*
X211166D01*
X211293Y171946D01*
X212038Y170975D01*
X213009Y170230D01*
X214140Y169761D01*
X215354Y169601D01*
X216568Y169761D01*
X217699Y170230D01*
X218671Y170975D01*
X219416Y171946D01*
X219543Y172252D01*
X255454D01*
X268825Y158882D01*
X268698Y158576D01*
X268538Y157362D01*
X268698Y156148D01*
X269167Y155017D01*
X269222Y154944D01*
X269067Y154628D01*
X268573Y154547D01*
X257387Y165733D01*
X256725Y166175D01*
X255945Y166331D01*
X219543D01*
X219416Y166636D01*
X218671Y167608D01*
X217699Y168353D01*
X216568Y168822D01*
X215354Y168982D01*
X214140Y168822D01*
X213009Y168353D01*
X212038Y167608D01*
X211293Y166636D01*
X210824Y165505D01*
X210664Y164291D01*
X210824Y163077D01*
X211293Y161946D01*
X212038Y160975D01*
X213009Y160230D01*
X214140Y159761D01*
X215354Y159601D01*
X216568Y159761D01*
X217699Y160230D01*
X218671Y160975D01*
X219416Y161946D01*
X219543Y162252D01*
X255100D01*
X266338Y151015D01*
X266999Y150573D01*
X267779Y150417D01*
X269146D01*
X269368Y149969D01*
X269167Y149707D01*
X268698Y148576D01*
X268538Y147362D01*
X268698Y146148D01*
X269167Y145017D01*
X269912Y144046D01*
X270883Y143300D01*
X272014Y142832D01*
X273228Y142672D01*
X274442Y142832D01*
X275573Y143300D01*
X276545Y144046D01*
X277290Y145017D01*
X277759Y146148D01*
X277918Y147362D01*
X277759Y148576D01*
X277290Y149707D01*
X277089Y149969D01*
X277310Y150417D01*
X318420D01*
X318893Y150055D01*
X319562Y149777D01*
X320280Y149683D01*
X320998Y149777D01*
X321666Y150055D01*
X322139Y150417D01*
X336075D01*
X336297Y149969D01*
X336096Y149707D01*
X335627Y148576D01*
X335467Y147362D01*
X335627Y146148D01*
X336096Y145017D01*
X336841Y144046D01*
X337812Y143300D01*
X338088Y143186D01*
X337991Y142696D01*
X311367D01*
X310894Y143059D01*
X310225Y143336D01*
X309507Y143430D01*
X308789Y143336D01*
X308120Y143059D01*
X307546Y142618D01*
X307105Y142043D01*
X306828Y141375D01*
X306733Y140657D01*
X306828Y139939D01*
X307105Y139270D01*
X307546Y138695D01*
X308120Y138254D01*
X308789Y137977D01*
X309507Y137883D01*
X310225Y137977D01*
X310894Y138254D01*
X311367Y138618D01*
X347623D01*
X350526Y135715D01*
X351187Y135273D01*
X351968Y135117D01*
X351968Y135117D01*
X392273D01*
X392464Y134656D01*
X387165Y129356D01*
X386723Y128695D01*
X386701Y128587D01*
X386064Y128323D01*
X385010Y127514D01*
X384202Y126461D01*
X383857Y125629D01*
X383357D01*
X383012Y126461D01*
X382204Y127514D01*
X381151Y128323D01*
X380252Y128695D01*
X380049Y128999D01*
X375949Y133099D01*
X375287Y133541D01*
X374507Y133696D01*
X322507D01*
X321727Y133541D01*
X321065Y133099D01*
X313565Y125599D01*
X313123Y124937D01*
X312968Y124157D01*
Y122017D01*
X312605Y121544D01*
X312328Y120875D01*
X312233Y120157D01*
X312328Y119439D01*
X312605Y118770D01*
X313046Y118195D01*
X313620Y117754D01*
X314289Y117477D01*
X315007Y117383D01*
X315725Y117477D01*
X316394Y117754D01*
X316968Y118195D01*
X317409Y118770D01*
X317686Y119439D01*
X317781Y120157D01*
X317686Y120875D01*
X317409Y121544D01*
X317046Y122017D01*
Y123312D01*
X323352Y129618D01*
X373662D01*
X375169Y128110D01*
X375137Y127611D01*
X375010Y127514D01*
X374202Y126461D01*
X373857Y125629D01*
X373357D01*
X373012Y126461D01*
X372204Y127514D01*
X371150Y128323D01*
X369924Y128831D01*
X368607Y129004D01*
X367290Y128831D01*
X366064Y128323D01*
X365010Y127514D01*
X364202Y126461D01*
X363694Y125234D01*
X363520Y123917D01*
X363694Y122601D01*
X364202Y121374D01*
X365010Y120320D01*
X366064Y119512D01*
X366568Y119303D01*
Y117739D01*
X366568Y117739D01*
X366568D01*
X366723Y116959D01*
X367165Y116297D01*
X377540Y105922D01*
Y76817D01*
X377178Y76344D01*
X376900Y75675D01*
X376806Y74957D01*
X376900Y74239D01*
X377178Y73570D01*
X377618Y72996D01*
X378193Y72555D01*
X378862Y72278D01*
X379580Y72183D01*
X380297Y72278D01*
X380966Y72555D01*
X381541Y72996D01*
X381982Y73570D01*
X382259Y74239D01*
X382353Y74957D01*
X382259Y75675D01*
X381982Y76344D01*
X381619Y76817D01*
Y106767D01*
X381464Y107547D01*
X381021Y108209D01*
X370646Y118584D01*
Y119303D01*
X371150Y119512D01*
X372204Y120320D01*
X373012Y121374D01*
X373357Y122206D01*
X373857D01*
X374202Y121374D01*
X375010Y120320D01*
X376064Y119512D01*
X377291Y119004D01*
X378607Y118831D01*
X379924Y119004D01*
X381151Y119512D01*
X382204Y120320D01*
X383012Y121374D01*
X383357Y122206D01*
X383857D01*
X384202Y121374D01*
X385010Y120320D01*
X386064Y119512D01*
X387291Y119004D01*
X388607Y118831D01*
X389924Y119004D01*
X391150Y119512D01*
X392204Y120320D01*
X393012Y121374D01*
X393357Y122206D01*
X393857D01*
X394202Y121374D01*
X395010Y120320D01*
X396064Y119512D01*
X396568Y119303D01*
Y78327D01*
X396568Y78327D01*
X396568D01*
X396723Y77547D01*
X397165Y76885D01*
X402068Y71982D01*
Y69956D01*
X401705Y69483D01*
X401428Y68814D01*
X401333Y68096D01*
X401428Y67378D01*
X401705Y66709D01*
X402146Y66135D01*
X402720Y65694D01*
X403389Y65417D01*
X404107Y65323D01*
X404825Y65417D01*
X405494Y65694D01*
X406068Y66135D01*
X406357Y66511D01*
X406857D01*
X407146Y66135D01*
X407720Y65694D01*
X408357Y65430D01*
Y68095D01*
Y70762D01*
X407720Y70498D01*
X407146Y70057D01*
X406857Y69681D01*
X406357D01*
X406146Y69956D01*
Y72827D01*
X405991Y73607D01*
X405549Y74269D01*
X400646Y79172D01*
Y119303D01*
X401151Y119512D01*
X402204Y120320D01*
X403012Y121374D01*
X403357Y122206D01*
X403857D01*
X404202Y121374D01*
X405010Y120320D01*
X406064Y119512D01*
X406568Y119303D01*
Y80239D01*
X406568Y80239D01*
X406568D01*
X406723Y79459D01*
X407165Y78798D01*
X411480Y74482D01*
Y70307D01*
X411032Y70086D01*
X410494Y70498D01*
X409857Y70762D01*
Y68095D01*
Y65430D01*
X410494Y65694D01*
X411032Y66107D01*
X411480Y65886D01*
Y61672D01*
X407065Y57257D01*
X400967D01*
X400494Y57620D01*
X399825Y57897D01*
X399107Y57991D01*
X398389Y57897D01*
X397720Y57620D01*
X397146Y57179D01*
X396705Y56604D01*
X396428Y55935D01*
X396333Y55217D01*
X396428Y54500D01*
X396705Y53831D01*
X397146Y53256D01*
X397720Y52815D01*
X398389Y52538D01*
X399107Y52444D01*
X399825Y52538D01*
X400494Y52815D01*
X400967Y53178D01*
X407910D01*
X408690Y53333D01*
X409352Y53776D01*
X414961Y59385D01*
X414961Y59385D01*
X415226Y59782D01*
X415403Y60047D01*
X415559Y60827D01*
D01*
D01*
D01*
D01*
D01*
X415559D01*
D01*
D01*
D01*
D01*
Y60827D01*
X415559D01*
D01*
Y60827D01*
D01*
D01*
D01*
D01*
D01*
D01*
D01*
D01*
D01*
D01*
D01*
D01*
Y60827D01*
D01*
X415559D01*
D01*
D01*
D01*
D01*
X415559Y60827D01*
Y75327D01*
X415403Y76107D01*
X414961Y76769D01*
X414961Y76769D01*
X414961D01*
D01*
X414961Y76769D01*
Y76769D01*
X410646Y81084D01*
Y119303D01*
X411151Y119512D01*
X412204Y120320D01*
X413012Y121374D01*
X413357Y122206D01*
X413857D01*
X414202Y121374D01*
X415010Y120320D01*
X416064Y119512D01*
X417290Y119004D01*
X418607Y118831D01*
X419924Y119004D01*
X421150Y119512D01*
X422204Y120320D01*
X423012Y121374D01*
X423521Y122601D01*
X423694Y123917D01*
X423521Y125234D01*
X423012Y126461D01*
X422204Y127514D01*
X421150Y128323D01*
X419924Y128831D01*
X418607Y129004D01*
X417290Y128831D01*
X416064Y128323D01*
X415010Y127514D01*
X414202Y126461D01*
X413857Y125629D01*
X413357D01*
X413012Y126461D01*
X412204Y127514D01*
X411151Y128323D01*
X409924Y128831D01*
X408607Y129004D01*
X407291Y128831D01*
X406064Y128323D01*
X405010Y127514D01*
X404202Y126461D01*
X403857Y125629D01*
X403357D01*
X403012Y126461D01*
X402204Y127514D01*
X401151Y128323D01*
X399924Y128831D01*
X398607Y129004D01*
X397290Y128831D01*
X396064Y128323D01*
X395010Y127514D01*
X394202Y126461D01*
X393857Y125629D01*
X393357D01*
X393012Y126461D01*
X392204Y127514D01*
X391875Y127767D01*
X391842Y128266D01*
X395094Y131518D01*
X477823D01*
X478910Y130430D01*
X478988Y129839D01*
X479265Y129170D01*
X479706Y128595D01*
X480281Y128155D01*
X480950Y127877D01*
X481668Y127783D01*
X482385Y127877D01*
X483054Y128155D01*
X483629Y128595D01*
X484070Y129170D01*
X484347Y129839D01*
X484441Y130557D01*
X484347Y131275D01*
X484070Y131944D01*
X483629Y132518D01*
X483054Y132959D01*
X482385Y133236D01*
X481794Y133314D01*
X480110Y134999D01*
X479448Y135441D01*
X478667Y135596D01*
X466068D01*
X465907Y136069D01*
X465941Y136095D01*
X466382Y136670D01*
X466659Y137339D01*
X466737Y137930D01*
X474130Y145323D01*
X505260D01*
X505387Y145017D01*
X506132Y144046D01*
X507104Y143300D01*
X508235Y142832D01*
X509449Y142672D01*
X510663Y142832D01*
X511794Y143300D01*
X512765Y144046D01*
X513511Y145017D01*
X513979Y146148D01*
X514139Y147362D01*
X513979Y148576D01*
X513511Y149707D01*
X512765Y150679D01*
X511794Y151424D01*
X510663Y151892D01*
X509449Y152052D01*
X508235Y151892D01*
X507104Y151424D01*
X506132Y150679D01*
X505387Y149707D01*
X505260Y149401D01*
X473285D01*
X472505Y149246D01*
X472240Y149069D01*
X471843Y148804D01*
X471843Y148804D01*
X463853Y140814D01*
X463262Y140736D01*
X462593Y140459D01*
X462018Y140018D01*
X461577Y139444D01*
X461300Y138775D01*
X461206Y138057D01*
X461300Y137339D01*
X461577Y136670D01*
X462018Y136095D01*
X462052Y136069D01*
X461891Y135596D01*
X436259D01*
X436068Y136058D01*
X442968Y142959D01*
X443274Y142832D01*
X444488Y142672D01*
X445702Y142832D01*
X446833Y143300D01*
X447805Y144046D01*
X448550Y145017D01*
X449018Y146148D01*
X449178Y147362D01*
X449018Y148576D01*
X448550Y149707D01*
X448426Y149869D01*
X448647Y150318D01*
X465308D01*
X465781Y149955D01*
X466450Y149678D01*
X467168Y149583D01*
X467885Y149678D01*
X468554Y149955D01*
X469129Y150395D01*
X469570Y150970D01*
X469847Y151639D01*
X469941Y152357D01*
X469847Y153075D01*
X469570Y153744D01*
X469129Y154318D01*
X468554Y154759D01*
X467885Y155036D01*
X467168Y155130D01*
X467360Y155323D01*
X505260D01*
X505387Y155017D01*
X506132Y154046D01*
X507104Y153300D01*
X508235Y152832D01*
X509449Y152672D01*
X510663Y152832D01*
X511794Y153300D01*
X512765Y154046D01*
X513511Y155017D01*
X513979Y156148D01*
X514139Y157362D01*
X513979Y158576D01*
X513511Y159707D01*
X512765Y160679D01*
X511794Y161424D01*
X510663Y161892D01*
X509449Y162052D01*
X508235Y161892D01*
X507104Y161424D01*
X506132Y160679D01*
X505387Y159707D01*
X505260Y159401D01*
X448677D01*
X448550Y159707D01*
X447805Y160679D01*
X446833Y161424D01*
X445702Y161892D01*
X444488Y162052D01*
X443274Y161892D01*
X442143Y161424D01*
X441172Y160679D01*
X440426Y159707D01*
X440300Y159401D01*
X409700D01*
X409574Y159707D01*
X408828Y160679D01*
X407857Y161424D01*
X406726Y161892D01*
X405512Y162052D01*
X404298Y161892D01*
X403167Y161424D01*
X402195Y160679D01*
X401450Y159707D01*
X400982Y158576D01*
X400822Y157362D01*
X400982Y156148D01*
X401450Y155017D01*
X402195Y154046D01*
X403167Y153300D01*
X404298Y152832D01*
X405512Y152672D01*
X406726Y152832D01*
X407857Y153300D01*
X408828Y154046D01*
X409574Y155017D01*
X409700Y155323D01*
X440300D01*
X440426Y155017D01*
X440559Y154844D01*
X440338Y154396D01*
X429868D01*
X429868Y154396D01*
X429087Y154241D01*
X428426Y153799D01*
X428426Y153799D01*
X418323Y143696D01*
X409125D01*
X408904Y144144D01*
X409574Y145017D01*
X410042Y146148D01*
X410202Y147362D01*
X410042Y148576D01*
X409574Y149707D01*
X408828Y150679D01*
X407857Y151424D01*
X406726Y151892D01*
X405512Y152052D01*
X404298Y151892D01*
X403167Y151424D01*
X402195Y150679D01*
X401450Y149707D01*
X401323Y149401D01*
X358719D01*
X354222Y153899D01*
X353560Y154341D01*
X352780Y154496D01*
X344385D01*
X344163Y154944D01*
X344219Y155017D01*
X344688Y156148D01*
X344848Y157362D01*
X344688Y158576D01*
X344219Y159707D01*
X343474Y160679D01*
X342502Y161424D01*
X341371Y161892D01*
X340158Y162052D01*
X338944Y161892D01*
X337812Y161424D01*
X336841Y160679D01*
X336096Y159707D01*
X335969Y159401D01*
X277417D01*
X277290Y159707D01*
X276545Y160679D01*
X275573Y161424D01*
X274442Y161892D01*
X273228Y162052D01*
X272014Y161892D01*
X271709Y161766D01*
X257741Y175733D01*
X257080Y176175D01*
X256299Y176331D01*
X219543D01*
X219416Y176636D01*
X218671Y177608D01*
X217699Y178353D01*
X216568Y178822D01*
X215354Y178981D01*
D02*
G37*
G36*
X729048Y176707D02*
X726330D01*
Y173988D01*
X729048D01*
Y176707D01*
D02*
G37*
G36*
X755829Y176707D02*
X753111D01*
Y173988D01*
X755829D01*
Y176707D01*
D02*
G37*
G36*
X760048Y202297D02*
X757329D01*
Y199579D01*
X760048D01*
Y202297D01*
D02*
G37*
G36*
X83030Y201579D02*
X82393Y201316D01*
X81818Y200875D01*
X81377Y200300D01*
X81114Y199663D01*
X83030D01*
Y201579D01*
D02*
G37*
G36*
X729048Y202297D02*
X726330D01*
Y199579D01*
X729048D01*
Y202297D01*
D02*
G37*
G36*
X755829Y202297D02*
X753111D01*
Y199579D01*
X755829D01*
Y202297D01*
D02*
G37*
G36*
X84530Y201579D02*
Y199663D01*
X86445D01*
X86182Y200300D01*
X85741Y200875D01*
X85166Y201316D01*
X84530Y201579D01*
D02*
G37*
G36*
X755829Y206516D02*
X753111D01*
Y203797D01*
X755829D01*
Y206516D01*
D02*
G37*
G36*
X760048D02*
X757329D01*
Y203797D01*
X760048D01*
Y206516D01*
D02*
G37*
G36*
X724830Y206516D02*
X722111D01*
Y203797D01*
X724830D01*
Y206516D01*
D02*
G37*
G36*
X729048D02*
X726330D01*
Y203797D01*
X729048D01*
Y206516D01*
D02*
G37*
G36*
X273228Y195911D02*
X272014Y195751D01*
X270883Y195282D01*
X269912Y194537D01*
X269167Y193565D01*
X268698Y192434D01*
X268538Y191220D01*
X268698Y190007D01*
X269167Y188875D01*
X269912Y187904D01*
X270883Y187159D01*
X272014Y186690D01*
X273228Y186530D01*
X274442Y186690D01*
X275573Y187159D01*
X276545Y187904D01*
X277290Y188875D01*
X277759Y190007D01*
X277918Y191220D01*
X277759Y192434D01*
X277290Y193565D01*
X276545Y194537D01*
X275573Y195282D01*
X274442Y195751D01*
X273228Y195911D01*
D02*
G37*
G36*
X509449D02*
X508235Y195751D01*
X507104Y195282D01*
X506132Y194537D01*
X505387Y193565D01*
X504918Y192434D01*
X504759Y191220D01*
X504918Y190007D01*
X505387Y188875D01*
X506132Y187904D01*
X507104Y187159D01*
X508235Y186690D01*
X509449Y186530D01*
X510663Y186690D01*
X511794Y187159D01*
X512765Y187904D01*
X513511Y188875D01*
X513979Y190007D01*
X514139Y191220D01*
X513979Y192434D01*
X513511Y193565D01*
X512765Y194537D01*
X511794Y195282D01*
X510663Y195751D01*
X509449Y195911D01*
D02*
G37*
G36*
X580315Y195911D02*
X579101Y195751D01*
X577970Y195282D01*
X576999Y194537D01*
X576253Y193566D01*
X575785Y192434D01*
X575625Y191220D01*
X575785Y190007D01*
X576253Y188875D01*
X576999Y187904D01*
X577970Y187159D01*
X579101Y186690D01*
X580315Y186530D01*
X581529Y186690D01*
X581835Y186817D01*
X583006Y185646D01*
X582676Y185270D01*
X582660Y185282D01*
X581529Y185751D01*
X580315Y185911D01*
X579101Y185751D01*
X577970Y185282D01*
X576999Y184537D01*
X576253Y183566D01*
X575785Y182434D01*
X575625Y181220D01*
X575785Y180007D01*
X576253Y178875D01*
X576999Y177904D01*
X577970Y177159D01*
X579101Y176690D01*
X580315Y176530D01*
X581529Y176690D01*
X582660Y177159D01*
X583631Y177904D01*
X584377Y178875D01*
X584845Y180007D01*
X585005Y181220D01*
X584845Y182434D01*
X584377Y183566D01*
X584364Y183582D01*
X584740Y183911D01*
X595097Y173554D01*
X595759Y173112D01*
X596539Y172957D01*
X691970D01*
X697310Y167617D01*
Y94257D01*
X696947Y93784D01*
X696670Y93116D01*
X696576Y92398D01*
X696670Y91680D01*
X696947Y91011D01*
X697388Y90436D01*
X697963Y89995D01*
X698632Y89718D01*
X699350Y89624D01*
X700068Y89718D01*
X700736Y89995D01*
X701311Y90436D01*
X701752Y91011D01*
X702029Y91680D01*
X702123Y92398D01*
X702029Y93116D01*
X701752Y93784D01*
X701389Y94257D01*
Y168461D01*
X701233Y169242D01*
X700792Y169903D01*
X700792Y169903D01*
D01*
X700792D01*
D01*
D01*
X700792Y169903D01*
Y169903D01*
X694257Y176438D01*
X693595Y176880D01*
X692815Y177035D01*
X597384D01*
X584719Y189701D01*
X584845Y190007D01*
X585005Y191220D01*
X584845Y192434D01*
X584377Y193566D01*
X583631Y194537D01*
X582660Y195282D01*
X581529Y195751D01*
X580315Y195911D01*
D02*
G37*
G36*
X318318Y210015D02*
X294696D01*
X293919Y209860D01*
X293260Y209420D01*
X292820Y208761D01*
X292665Y207984D01*
Y188299D01*
X292665Y188299D01*
X292665D01*
X292820Y187521D01*
X293260Y186862D01*
X293919Y186422D01*
X294696Y186267D01*
X318318D01*
X319095Y186422D01*
X319754Y186862D01*
X320195Y187521D01*
X320349Y188299D01*
Y207984D01*
X320195Y208761D01*
X319754Y209420D01*
X319095Y209860D01*
X318318Y210015D01*
D02*
G37*
G36*
X487610D02*
X463988D01*
X463210Y209860D01*
X462551Y209420D01*
X462111Y208761D01*
X461956Y207984D01*
Y188299D01*
X462111Y187521D01*
X462551Y186862D01*
X463210Y186422D01*
X463988Y186267D01*
X487610D01*
X488387Y186422D01*
X489046Y186862D01*
X489486Y187521D01*
X489641Y188299D01*
D01*
D01*
D01*
D01*
D01*
X489641D01*
D01*
D01*
D01*
D01*
Y188299D01*
X489641D01*
D01*
Y188299D01*
D01*
D01*
D01*
D01*
D01*
D01*
D01*
D01*
D01*
D01*
D01*
D01*
Y188299D01*
D01*
X489641D01*
D01*
D01*
D01*
D01*
X489641Y188299D01*
Y207984D01*
X489486Y208761D01*
X489046Y209420D01*
X488387Y209860D01*
X487610Y210015D01*
D02*
G37*
G36*
X86445Y198163D02*
X84530D01*
Y196248D01*
X85166Y196511D01*
X85741Y196952D01*
X86182Y197527D01*
X86445Y198163D01*
D02*
G37*
G36*
X724830Y202297D02*
X722111D01*
Y199579D01*
X724830D01*
Y202297D01*
D02*
G37*
G36*
X405512Y195911D02*
X404298Y195751D01*
X403167Y195282D01*
X402195Y194537D01*
X401450Y193565D01*
X401323Y193260D01*
X344346D01*
X344219Y193565D01*
X343474Y194537D01*
X342502Y195282D01*
X341371Y195751D01*
X340158Y195911D01*
X338944Y195751D01*
X337812Y195282D01*
X336841Y194537D01*
X336096Y193565D01*
X335627Y192434D01*
X335467Y191220D01*
X335627Y190007D01*
X336096Y188875D01*
X336841Y187904D01*
X337812Y187159D01*
X338944Y186690D01*
X340158Y186530D01*
X341371Y186690D01*
X342502Y187159D01*
X343474Y187904D01*
X344219Y188875D01*
X344346Y189181D01*
X401323D01*
X401450Y188875D01*
X402195Y187904D01*
X403167Y187159D01*
X404298Y186690D01*
X405512Y186530D01*
X406726Y186690D01*
X407857Y187159D01*
X408828Y187904D01*
X409574Y188875D01*
X410042Y190007D01*
X410202Y191220D01*
X410042Y192434D01*
X409574Y193565D01*
X408828Y194537D01*
X407857Y195282D01*
X406726Y195751D01*
X405512Y195911D01*
D02*
G37*
G36*
X83030Y198163D02*
X81114D01*
X81377Y197527D01*
X81818Y196952D01*
X82393Y196511D01*
X83030Y196248D01*
Y198163D01*
D02*
G37*
G36*
X754940Y163257D02*
X753765Y163102D01*
X752670Y162648D01*
X751730Y161927D01*
X751009Y160987D01*
X750556Y159892D01*
X750401Y158718D01*
X750556Y157543D01*
X750651Y157313D01*
X747038Y153699D01*
X746595Y153038D01*
X746440Y152257D01*
Y85650D01*
X746440Y85650D01*
X746440D01*
X746595Y84869D01*
X747038Y84208D01*
X754722Y76523D01*
X754800Y75932D01*
X755077Y75263D01*
X755518Y74688D01*
X756092Y74248D01*
X756761Y73971D01*
X757479Y73876D01*
X758197Y73971D01*
X758866Y74248D01*
X759441Y74688D01*
X759881Y75263D01*
X760158Y75932D01*
X760253Y76650D01*
X760158Y77368D01*
X759881Y78037D01*
X759441Y78611D01*
X758866Y79052D01*
X758197Y79329D01*
X757606Y79407D01*
X750519Y86494D01*
Y138591D01*
X751009Y138688D01*
X751730Y137748D01*
X752670Y137027D01*
X753765Y136573D01*
X754940Y136418D01*
X756115Y136573D01*
X757209Y137027D01*
X758149Y137748D01*
X758871Y138688D01*
X759324Y139783D01*
X759479Y140957D01*
X759324Y142132D01*
X758871Y143227D01*
X758149Y144167D01*
X757209Y144888D01*
X756115Y145341D01*
X754940Y145496D01*
X753765Y145341D01*
X752670Y144888D01*
X751730Y144167D01*
X751009Y143227D01*
X750519Y143324D01*
Y151412D01*
X753535Y154429D01*
X753765Y154333D01*
X754940Y154179D01*
X756115Y154333D01*
X757209Y154787D01*
X758149Y155508D01*
X758871Y156448D01*
X759324Y157543D01*
X759479Y158718D01*
X759324Y159892D01*
X758871Y160987D01*
X758149Y161927D01*
X757209Y162648D01*
X756115Y163102D01*
X754940Y163257D01*
D02*
G37*
G36*
X264530Y106623D02*
Y104707D01*
X266446D01*
X266182Y105344D01*
X265741Y105918D01*
X265166Y106359D01*
X264530Y106623D01*
D02*
G37*
G36*
X712003Y109463D02*
X710087D01*
X710351Y108826D01*
X710791Y108251D01*
X711366Y107810D01*
X712003Y107547D01*
Y109463D01*
D02*
G37*
G36*
X641780Y128231D02*
X641062Y128136D01*
X640393Y127859D01*
X639818Y127418D01*
X639377Y126844D01*
X639100Y126175D01*
X639006Y125457D01*
X639100Y124739D01*
X639377Y124070D01*
X639741Y123597D01*
Y110586D01*
X639377Y110114D01*
X639100Y109444D01*
X639006Y108727D01*
X639100Y108009D01*
X639377Y107340D01*
X639818Y106765D01*
X640393Y106325D01*
X641062Y106047D01*
X641653Y105970D01*
X642107Y105515D01*
X642769Y105073D01*
X643549Y104918D01*
X681753D01*
X681849Y104688D01*
X682570Y103747D01*
X683510Y103026D01*
X684605Y102573D01*
X685780Y102418D01*
X686954Y102573D01*
X688049Y103026D01*
X688989Y103747D01*
X689710Y104688D01*
X690164Y105782D01*
X690318Y106957D01*
X690164Y108132D01*
X689710Y109226D01*
X688989Y110166D01*
X688049Y110888D01*
X686954Y111341D01*
X685780Y111496D01*
X684605Y111341D01*
X683510Y110888D01*
X682570Y110166D01*
X681849Y109226D01*
X681753Y108996D01*
X644518D01*
X644459Y109444D01*
X644182Y110114D01*
X643819Y110586D01*
Y123597D01*
X644182Y124070D01*
X644459Y124739D01*
X644553Y125457D01*
X644459Y126175D01*
X644182Y126844D01*
X643741Y127418D01*
X643166Y127859D01*
X642497Y128136D01*
X641780Y128231D01*
D02*
G37*
G36*
X263030Y106623D02*
X262393Y106359D01*
X261818Y105918D01*
X261378Y105344D01*
X261114Y104707D01*
X263030D01*
Y106623D01*
D02*
G37*
G36*
X715419Y109463D02*
X713503D01*
Y107547D01*
X714140Y107810D01*
X714714Y108251D01*
X715155Y108826D01*
X715419Y109463D01*
D02*
G37*
G36*
X672250Y115707D02*
X670334D01*
X670598Y115070D01*
X671038Y114496D01*
X671613Y114055D01*
X672250Y113791D01*
Y115707D01*
D02*
G37*
G36*
X675666D02*
X673750D01*
Y113791D01*
X674387Y114055D01*
X674961Y114496D01*
X675402Y115070D01*
X675666Y115707D01*
D02*
G37*
G36*
X712003Y112879D02*
X711366Y112615D01*
X710791Y112174D01*
X710351Y111600D01*
X710087Y110963D01*
X712003D01*
Y112879D01*
D02*
G37*
G36*
X713503D02*
Y110963D01*
X715419D01*
X715155Y111600D01*
X714714Y112174D01*
X714140Y112615D01*
X713503Y112879D01*
D02*
G37*
G36*
X265946Y91707D02*
X264030D01*
Y89791D01*
X264667Y90055D01*
X265241Y90496D01*
X265682Y91070D01*
X265946Y91707D01*
D02*
G37*
G36*
X685780Y95996D02*
X684605Y95841D01*
X683510Y95388D01*
X682570Y94666D01*
X681849Y93726D01*
X681753Y93496D01*
X643640D01*
X643166Y93859D01*
X642497Y94136D01*
X641780Y94231D01*
X641062Y94136D01*
X640393Y93859D01*
X639818Y93418D01*
X639377Y92844D01*
X639100Y92175D01*
X639006Y91457D01*
X639100Y90739D01*
X639377Y90070D01*
X639818Y89495D01*
X640393Y89055D01*
X641062Y88778D01*
X641780Y88683D01*
X642497Y88778D01*
X643166Y89055D01*
X643640Y89418D01*
X681753D01*
X681849Y89187D01*
X682570Y88247D01*
X683510Y87526D01*
X684605Y87073D01*
X685780Y86918D01*
X686954Y87073D01*
X688049Y87526D01*
X688989Y88247D01*
X689710Y89187D01*
X690164Y90282D01*
X690318Y91457D01*
X690164Y92632D01*
X689710Y93726D01*
X688989Y94666D01*
X688049Y95388D01*
X686954Y95841D01*
X685780Y95996D01*
D02*
G37*
G36*
X548788Y88579D02*
Y86664D01*
X550704D01*
X550440Y87300D01*
X549999Y87875D01*
X549425Y88316D01*
X548788Y88579D01*
D02*
G37*
G36*
X262530Y91707D02*
X260614D01*
X260877Y91070D01*
X261318Y90496D01*
X261893Y90055D01*
X262530Y89791D01*
Y91707D01*
D02*
G37*
G36*
X780529Y97774D02*
X778614D01*
X778877Y97137D01*
X779318Y96562D01*
X779893Y96122D01*
X780529Y95858D01*
Y97774D01*
D02*
G37*
G36*
X782029Y101190D02*
Y99274D01*
X783945D01*
X783682Y99911D01*
X783241Y100485D01*
X782666Y100926D01*
X782029Y101190D01*
D02*
G37*
G36*
X513345Y115718D02*
X511990Y115584D01*
X510687Y115189D01*
X509486Y114547D01*
X508433Y113683D01*
X507569Y112630D01*
X506927Y111430D01*
X506532Y110126D01*
X506399Y108771D01*
X506532Y107416D01*
X506927Y106113D01*
X507569Y104912D01*
X508433Y103859D01*
X509486Y102995D01*
X510687Y102353D01*
X511990Y101958D01*
X513345Y101824D01*
X514701Y101958D01*
X516004Y102353D01*
X517205Y102995D01*
X518258Y103859D01*
X519122Y104912D01*
X519763Y106113D01*
X520159Y107416D01*
X520292Y108771D01*
X520159Y110126D01*
X519763Y111430D01*
X519122Y112630D01*
X518258Y113683D01*
X517205Y114547D01*
X516004Y115189D01*
X514701Y115584D01*
X513345Y115718D01*
D02*
G37*
G36*
X783945Y97774D02*
X782029D01*
Y95858D01*
X782666Y96122D01*
X783241Y96562D01*
X783682Y97137D01*
X783945Y97774D01*
D02*
G37*
G36*
X780529Y101190D02*
X779893Y100926D01*
X779318Y100485D01*
X778877Y99911D01*
X778614Y99274D01*
X780529D01*
Y101190D01*
D02*
G37*
G36*
X724270Y144468D02*
X720032D01*
Y140229D01*
X720599Y140304D01*
X721826Y140812D01*
X722879Y141621D01*
X723688Y142674D01*
X724196Y143901D01*
X724270Y144468D01*
D02*
G37*
G36*
X81500Y156087D02*
X80183Y155913D01*
X78957Y155405D01*
X77903Y154597D01*
X77095Y153543D01*
X76587Y152317D01*
X76413Y151000D01*
X76587Y149683D01*
X77095Y148457D01*
X77903Y147403D01*
X78957Y146595D01*
X79599Y146329D01*
Y145829D01*
X78957Y145563D01*
X77903Y144754D01*
X77095Y143701D01*
X76587Y142474D01*
X76512Y141908D01*
X86488D01*
X86413Y142474D01*
X85905Y143701D01*
X85097Y144754D01*
X84043Y145563D01*
X82816Y146071D01*
X84043Y146595D01*
X84043D01*
D01*
D01*
D01*
X84043Y146595D01*
X85097Y147403D01*
X85905Y148457D01*
X86413Y149683D01*
X86587Y151000D01*
X86413Y152317D01*
X85905Y153543D01*
X85097Y154597D01*
X84043Y155405D01*
X82816Y155913D01*
X81500Y156087D01*
D02*
G37*
G36*
X86488Y140408D02*
X82250D01*
Y136169D01*
X82816Y136244D01*
X84043Y136752D01*
X85097Y137561D01*
X85905Y138614D01*
X86413Y139841D01*
X86488Y140408D01*
D02*
G37*
G36*
X709440Y150304D02*
X708123Y150131D01*
X706896Y149623D01*
X705843Y148814D01*
X705034Y147761D01*
X704526Y146534D01*
X704353Y145218D01*
X704526Y143901D01*
X705034Y142674D01*
X705843Y141621D01*
X706896Y140812D01*
X708123Y140304D01*
X709440Y140131D01*
X710756Y140304D01*
X711983Y140812D01*
X713037Y141621D01*
X713845Y142674D01*
X714111Y143316D01*
X714611D01*
X714877Y142674D01*
X715685Y141621D01*
X716739Y140812D01*
X717966Y140304D01*
X718532Y140229D01*
Y145217D01*
Y150206D01*
X717966Y150131D01*
X716739Y149623D01*
X715685Y148814D01*
X714877Y147761D01*
X714611Y147119D01*
X714111D01*
X713845Y147761D01*
X713037Y148814D01*
X711983Y149623D01*
X710756Y150131D01*
X709440Y150304D01*
D02*
G37*
G36*
X656270Y149468D02*
X652032D01*
Y145229D01*
X652599Y145304D01*
X653826Y145812D01*
X654879Y146621D01*
X655688Y147674D01*
X656196Y148901D01*
X656270Y149468D01*
D02*
G37*
G36*
X123250Y155468D02*
X119560D01*
X119616Y155043D01*
X120069Y153948D01*
X120791Y153008D01*
X121731Y152287D01*
X122825Y151833D01*
X123250Y151778D01*
Y155468D01*
D02*
G37*
G36*
X128440D02*
X124750D01*
Y151778D01*
X125175Y151833D01*
X126269Y152287D01*
X127209Y153008D01*
X127931Y153948D01*
X128384Y155043D01*
X128440Y155468D01*
D02*
G37*
G36*
X720032Y150206D02*
Y145968D01*
X724270D01*
X724196Y146534D01*
X723688Y147761D01*
X722879Y148814D01*
X721826Y149623D01*
X720599Y150131D01*
X720032Y150206D01*
D02*
G37*
G36*
X652032Y155206D02*
Y150968D01*
X656270D01*
X656196Y151534D01*
X655688Y152761D01*
X654879Y153814D01*
X653826Y154623D01*
X652599Y155131D01*
X652032Y155206D01*
D02*
G37*
G36*
X437400Y115817D02*
X436682Y115723D01*
X436013Y115446D01*
X435438Y115005D01*
X435253Y114764D01*
X434753D01*
X434568Y115005D01*
X433994Y115446D01*
X433325Y115723D01*
X432607Y115817D01*
X431889Y115723D01*
X431220Y115446D01*
X430646Y115005D01*
X430205Y114430D01*
X429928Y113761D01*
X429833Y113044D01*
X429928Y112326D01*
X430205Y111657D01*
X430568Y111184D01*
Y102077D01*
X430205Y101604D01*
X429928Y100935D01*
X429833Y100217D01*
X429928Y99500D01*
X430205Y98831D01*
X430646Y98256D01*
X431220Y97815D01*
X431889Y97538D01*
X432607Y97444D01*
X433325Y97538D01*
X433994Y97815D01*
X434568Y98256D01*
X434887Y98672D01*
X435360Y98511D01*
Y94888D01*
X424458Y83986D01*
X424016Y83324D01*
X423861Y82544D01*
Y73403D01*
X423497Y72931D01*
X423220Y72262D01*
X423126Y71544D01*
X423220Y70826D01*
X423497Y70157D01*
X423938Y69582D01*
X424513Y69142D01*
X425182Y68864D01*
X425900Y68770D01*
X426618Y68864D01*
X427286Y69142D01*
X427861Y69582D01*
X428070Y69854D01*
X428566Y69920D01*
X428781Y69754D01*
X429450Y69477D01*
X430168Y69383D01*
X430886Y69477D01*
X431555Y69754D01*
X432027Y70117D01*
X446808D01*
X447281Y69754D01*
X447950Y69477D01*
X448668Y69383D01*
X449385Y69477D01*
X450055Y69754D01*
X450629Y70195D01*
X451070Y70770D01*
X451347Y71439D01*
X451441Y72157D01*
X451347Y72874D01*
X451070Y73544D01*
X450629Y74118D01*
X450055Y74559D01*
X449385Y74836D01*
X448668Y74930D01*
X447950Y74836D01*
X447281Y74559D01*
X446808Y74196D01*
X432027D01*
X431555Y74559D01*
X430886Y74836D01*
X430168Y74930D01*
X429450Y74836D01*
X428781Y74559D01*
X428387Y74257D01*
X427939Y74478D01*
Y81699D01*
X438842Y92602D01*
X439284Y93263D01*
X439439Y94044D01*
X439439Y94044D01*
Y111184D01*
X439802Y111657D01*
X440079Y112326D01*
X440173Y113044D01*
X440079Y113761D01*
X439802Y114430D01*
X439361Y115005D01*
X438787Y115446D01*
X438118Y115723D01*
X437400Y115817D01*
D02*
G37*
G36*
X672250Y119123D02*
X671613Y118859D01*
X671038Y118418D01*
X670598Y117844D01*
X670334Y117207D01*
X672250D01*
Y119123D01*
D02*
G37*
G36*
X97050Y118831D02*
X96483Y118756D01*
X95257Y118248D01*
X94203Y117439D01*
X93395Y116386D01*
X92887Y115159D01*
X92812Y114593D01*
X97050D01*
Y118831D01*
D02*
G37*
G36*
X98550D02*
Y114593D01*
X102788D01*
X102713Y115159D01*
X102205Y116386D01*
X101397Y117439D01*
X100343Y118248D01*
X99116Y118756D01*
X98550Y118831D01*
D02*
G37*
G36*
X673750Y119123D02*
Y117207D01*
X675666D01*
X675402Y117844D01*
X674961Y118418D01*
X674387Y118859D01*
X673750Y119123D01*
D02*
G37*
G36*
X614920Y161275D02*
X595235D01*
X594458Y161120D01*
X593799Y160680D01*
X593359Y160021D01*
X593204Y159244D01*
Y131685D01*
X593359Y130907D01*
X593799Y130248D01*
X594458Y129808D01*
X595235Y129653D01*
X614920D01*
X615697Y129808D01*
X616356Y130248D01*
X616797Y130907D01*
X616951Y131685D01*
D01*
D01*
D01*
D01*
D01*
X616951D01*
D01*
D01*
D01*
D01*
Y131685D01*
X616951D01*
D01*
Y131685D01*
D01*
D01*
D01*
D01*
D01*
D01*
D01*
D01*
D01*
D01*
D01*
D01*
Y131685D01*
D01*
X616951D01*
D01*
D01*
D01*
D01*
X616951Y131685D01*
Y159244D01*
X616797Y160021D01*
X616356Y160680D01*
X615697Y161120D01*
X614920Y161275D01*
D02*
G37*
G36*
X80750Y140408D02*
X76512D01*
X76587Y139841D01*
X77095Y138614D01*
X77903Y137561D01*
X78957Y136752D01*
X80183Y136244D01*
X80750Y136169D01*
Y140408D01*
D02*
G37*
G36*
X102322Y142421D02*
X100696Y142261D01*
X99133Y141787D01*
X97693Y141017D01*
X96431Y139980D01*
X95394Y138718D01*
X94625Y137278D01*
X94150Y135715D01*
X93990Y134089D01*
X94150Y132464D01*
X94625Y130901D01*
X95394Y129461D01*
X96431Y128198D01*
X97693Y127162D01*
X99133Y126392D01*
X100696Y125918D01*
X102322Y125758D01*
X103947Y125918D01*
X105510Y126392D01*
X106950Y127162D01*
X108213Y128198D01*
X109249Y129461D01*
X110019Y130901D01*
X110493Y132464D01*
X110653Y134089D01*
X110493Y135715D01*
X110019Y137278D01*
X109249Y138718D01*
X108213Y139980D01*
X106950Y141017D01*
X105510Y141787D01*
X103947Y142261D01*
X102322Y142421D01*
D02*
G37*
G36*
X684999D02*
X683374Y142261D01*
X681811Y141787D01*
X680370Y141017D01*
X679108Y139980D01*
X678072Y138718D01*
X677302Y137278D01*
X676828Y135715D01*
X676667Y134089D01*
X676828Y132464D01*
X677302Y130901D01*
X678072Y129461D01*
X679108Y128198D01*
X680370Y127162D01*
X681811Y126392D01*
X683374Y125918D01*
X684999Y125758D01*
X686624Y125918D01*
X688187Y126392D01*
X689628Y127162D01*
X690890Y128198D01*
X691926Y129461D01*
X692696Y130901D01*
X693170Y132464D01*
X693330Y134089D01*
X693170Y135715D01*
X692696Y137278D01*
X691926Y138718D01*
X690890Y139980D01*
X689628Y141017D01*
X688187Y141787D01*
X686624Y142261D01*
X684999Y142421D01*
D02*
G37*
%LPD*%
D10*
X725580Y177457D02*
D03*
Y203047D02*
D03*
X756579Y177457D02*
D03*
Y203047D02*
D03*
D11*
X739753Y177457D02*
D03*
Y203047D02*
D03*
X770753Y177457D02*
D03*
Y203047D02*
D03*
D12*
X224280Y44457D02*
D03*
X198689D02*
D03*
D13*
X224280Y58630D02*
D03*
X198689D02*
D03*
D14*
X192000Y22500D02*
X203600D01*
X205547Y24447D02*
Y29000D01*
X203600Y22500D02*
X205547Y24447D01*
X209500Y19100D02*
X215390Y24990D01*
Y29000D01*
X580315Y191220D02*
X596539Y174996D01*
X692815D01*
X179000Y80000D02*
X181000Y82000D01*
X429868Y152357D02*
X467168D01*
X473285Y147362D02*
X509449D01*
X463979Y138057D02*
X473285Y147362D01*
X425900Y82544D02*
X437400Y94044D01*
X432607Y100217D02*
Y113044D01*
X394249Y133557D02*
X478667D01*
X481668Y130557D01*
X469467Y53757D02*
Y99157D01*
X443267Y27557D02*
X469467Y53757D01*
X267779Y152457D02*
X352780D01*
X269507Y170417D02*
X441407D01*
X398607Y78327D02*
Y123917D01*
Y78327D02*
X404107Y72827D01*
X368607Y117739D02*
Y123917D01*
X388607D02*
Y127915D01*
X394249Y133557D01*
X434283Y137157D02*
X444488Y147362D01*
X356168Y141657D02*
X419168D01*
X429868Y152357D01*
X357874Y147362D02*
X405512D01*
X407910Y55217D02*
X413519Y60827D01*
X399107Y55217D02*
X407910D01*
X408607Y80239D02*
X413519Y75327D01*
X408607Y80239D02*
Y123917D01*
X413519Y60827D02*
Y75327D01*
X404107Y68096D02*
Y72827D01*
X641780Y108727D02*
Y125457D01*
X685510Y108727D02*
X685780Y108457D01*
X405512Y157362D02*
X509685D01*
X346721Y174657D02*
X435668D01*
X436667Y173657D01*
X425900Y71544D02*
Y82544D01*
X372767Y27557D02*
X443267D01*
X340157Y191220D02*
X405512D01*
X255945Y164291D02*
X267779Y152457D01*
X215354Y164291D02*
X255945D01*
X256299Y174291D02*
X273228Y157362D01*
X196850Y174291D02*
X256299D01*
X257307Y182617D02*
X269507Y170417D01*
X187207Y175717D02*
X194107Y182617D01*
X187207Y168317D02*
Y175717D01*
Y168317D02*
X191233Y164291D01*
X196850D01*
X194107Y182617D02*
X257307D01*
X273228Y181220D02*
X284004D01*
X315007Y120157D02*
Y124157D01*
X322507Y131657D01*
X284004Y181220D02*
X289207Y176017D01*
X309507D01*
X444488Y173499D02*
Y181220D01*
X441407Y170417D02*
X444488Y173499D01*
X340157Y181220D02*
X346721Y174657D01*
X430168Y72157D02*
X448668D01*
X352780Y152457D02*
X357874Y147362D01*
X374507Y131657D02*
X378607Y127557D01*
X273228Y157362D02*
X340157D01*
Y147362D02*
X350462D01*
X356168Y141657D01*
X309507Y140657D02*
X348468D01*
X368607Y31717D02*
X372767Y27557D01*
X368607Y31717D02*
Y35925D01*
X405512Y181220D02*
X429131D01*
X434067Y186157D01*
X453767D01*
X458168Y181757D01*
X492885Y164657D02*
X509449Y181220D01*
X486368Y181757D02*
X488968Y179157D01*
X458168Y181757D02*
X486368D01*
X641780Y91457D02*
X685780D01*
X643549Y106957D02*
X685780D01*
X641780Y108727D02*
X643549Y106957D01*
X622130Y89408D02*
X625280Y92557D01*
X692815Y174996D02*
X699350Y168461D01*
Y92398D02*
Y168461D01*
X770753Y172957D02*
Y203047D01*
X670280Y64257D02*
X674080Y60457D01*
X646779Y64257D02*
X670280D01*
X748479Y85650D02*
X757479Y76650D01*
X727497Y60457D02*
X739753Y72713D01*
X674080Y60457D02*
X727497D01*
X748479Y85650D02*
Y152257D01*
X754940Y158718D01*
X739753Y72713D02*
Y203047D01*
X204622Y27500D02*
X204622Y27500D01*
X625280Y92557D02*
Y112707D01*
X362046Y63157D02*
X362668D01*
X378607Y47217D01*
X322507Y131657D02*
X374507D01*
X351968Y137157D02*
X434283D01*
X348468Y140657D02*
X351968Y137157D01*
X341668Y81157D02*
X353376D01*
X398607Y35925D01*
X378607D02*
Y47217D01*
X379580Y74957D02*
Y106767D01*
X368607Y117739D02*
X379580Y106767D01*
X437400Y94044D02*
Y113044D01*
X290507Y164657D02*
X492885D01*
X557205Y35718D02*
X589205D01*
X199000Y117600D02*
Y118600D01*
X195000Y122600D02*
X199000Y118600D01*
X189000Y25500D02*
X192000Y22500D01*
X184000Y22600D02*
X187500Y19100D01*
X209500D01*
X566205Y40000D02*
X636279D01*
X189000Y25500D02*
Y78500D01*
X184000Y22600D02*
Y78500D01*
X190500Y82000D02*
X198689Y73811D01*
Y58630D02*
X224280D01*
X179000Y78000D02*
Y80000D01*
X181000Y82000D02*
X190500D01*
X198689Y52957D02*
Y73811D01*
X167790Y131810D02*
Y143209D01*
X160940Y150060D02*
X167790Y143209D01*
X160940Y150060D02*
Y165718D01*
X167790Y131810D02*
X177000Y122600D01*
X150940Y151060D02*
X164000Y138000D01*
Y129600D02*
Y138000D01*
X150940Y151060D02*
Y165718D01*
X177000Y122600D02*
X195000D01*
X176000Y117600D02*
X194000D01*
X164000Y129600D02*
X176000Y117600D01*
D15*
X725580Y177457D02*
Y203047D01*
X198689Y43957D02*
X224280D01*
D16*
X278280Y9457D02*
Y17957D01*
X365046Y98157D02*
X367107Y100218D01*
X238280Y98157D02*
X365046D01*
D17*
X641440Y138303D02*
Y150218D01*
X522440Y19303D02*
X641440Y138303D01*
X39000Y104000D02*
X100800D01*
X24500Y89500D02*
X39000Y104000D01*
X238614Y30386D02*
X249697Y19303D01*
X522440D01*
X238614Y30386D02*
Y98123D01*
X232736Y104000D02*
X238614Y98123D01*
X100800Y104000D02*
X232736D01*
D18*
X553720Y48500D02*
X613445D01*
X195705Y29000D02*
Y33205D01*
X234000Y37500D02*
X237179Y40679D01*
X200000Y37500D02*
X234000D01*
X195705Y33205D02*
X200000Y37500D01*
D19*
X159000Y115264D02*
Y131500D01*
X149836Y106100D02*
X159000Y115264D01*
X147500Y106100D02*
X149836D01*
X222780Y83957D02*
Y101221D01*
D20*
X165870Y29000D02*
Y33780D01*
X162650Y37000D02*
X165870Y33780D01*
X74779Y76000D02*
X87779Y63000D01*
Y37000D02*
X162650D01*
X72500Y76000D02*
X74779D01*
X72000Y77000D02*
X73000Y76000D01*
X87779Y29000D02*
Y63000D01*
D21*
X12835Y37000D02*
X39465D01*
X47465Y29000D01*
D22*
X418607Y123917D02*
D03*
X408607D02*
D03*
X398607D02*
D03*
X388607D02*
D03*
X378607D02*
D03*
X368607D02*
D03*
Y35925D02*
D03*
X378607D02*
D03*
X418607D02*
D03*
X408607D02*
D03*
X398607D02*
D03*
X388607D02*
D03*
X72500Y76000D02*
D03*
Y66158D02*
D03*
X12835Y46842D02*
D03*
Y37000D02*
D03*
X641440Y150218D02*
D03*
X651282D02*
D03*
X719282Y145218D02*
D03*
X709440D02*
D03*
X97800Y113842D02*
D03*
Y104000D02*
D03*
X81500Y141157D02*
D03*
Y151000D02*
D03*
D23*
X405512Y157362D02*
D03*
Y147362D02*
D03*
X509449Y181220D02*
D03*
Y191220D02*
D03*
X444488Y157362D02*
D03*
Y147362D02*
D03*
Y181220D02*
D03*
Y191220D02*
D03*
X580315Y191220D02*
D03*
Y181220D02*
D03*
X509449Y147362D02*
D03*
Y157362D02*
D03*
X273228D02*
D03*
Y147362D02*
D03*
X196850Y164291D02*
D03*
Y174291D02*
D03*
X215354D02*
D03*
Y164291D02*
D03*
X405512Y181220D02*
D03*
Y191220D02*
D03*
X340158D02*
D03*
Y181220D02*
D03*
Y147362D02*
D03*
Y157362D02*
D03*
X273228Y191220D02*
D03*
Y181220D02*
D03*
D24*
X685780Y106957D02*
D03*
X124000Y156218D02*
D03*
X623224Y189457D02*
D03*
X160940Y165718D02*
D03*
X91000Y48500D02*
D03*
X754940Y158718D02*
D03*
Y140957D02*
D03*
X685780Y91457D02*
D03*
X11000Y74500D02*
D03*
X268280Y9457D02*
D03*
X258280D02*
D03*
X248280D02*
D03*
X662343Y29000D02*
D03*
X652500D02*
D03*
X580000D02*
D03*
X589843D02*
D03*
X599685D02*
D03*
X609528D02*
D03*
X619370D02*
D03*
X225232D02*
D03*
X215390D02*
D03*
X205547D02*
D03*
X195705D02*
D03*
X126500Y29000D02*
D03*
X136343D02*
D03*
X146185D02*
D03*
X156027D02*
D03*
X165870D02*
D03*
X97780Y29000D02*
D03*
X87779D02*
D03*
X77780D02*
D03*
X27779D02*
D03*
X37622D02*
D03*
X47465D02*
D03*
X57307D02*
D03*
X67150D02*
D03*
D25*
X150940Y165718D02*
D03*
X278280Y9457D02*
D03*
D26*
X636779Y54257D02*
D03*
X626780Y64257D02*
D03*
X646779Y54257D02*
D03*
X626780D02*
D03*
X636779Y64257D02*
D03*
X646779D02*
D03*
D27*
X42421Y189600D02*
D03*
X12500D02*
D03*
D28*
X213600Y74900D02*
D03*
X80900Y45400D02*
D03*
X697200Y45800D02*
D03*
X189000Y78500D02*
D03*
X699350Y92398D02*
D03*
X757479Y76650D02*
D03*
X781279Y98524D02*
D03*
X759479Y45154D02*
D03*
X409107Y68096D02*
D03*
X164000Y75457D02*
D03*
X641780Y91457D02*
D03*
X611280Y105207D02*
D03*
X739753Y172957D02*
D03*
X770753D02*
D03*
X179000Y78500D02*
D03*
X739753Y72713D02*
D03*
X641780Y125457D02*
D03*
Y108727D02*
D03*
X432607Y100217D02*
D03*
X425900Y71544D02*
D03*
X432607Y113044D02*
D03*
X437400D02*
D03*
X636279Y40000D02*
D03*
X566205Y39983D02*
D03*
X263280Y92457D02*
D03*
X263780Y103957D02*
D03*
X263280Y83957D02*
D03*
X184000Y78500D02*
D03*
X222780Y93957D02*
D03*
X222780Y103957D02*
D03*
X222780Y83957D02*
D03*
X320280Y152457D02*
D03*
X326607Y170417D02*
D03*
X315007Y120157D02*
D03*
X309507Y176017D02*
D03*
Y140657D02*
D03*
X290507Y164657D02*
D03*
X341668Y81157D02*
D03*
X436667Y173657D02*
D03*
X430168Y72157D02*
D03*
X448668D02*
D03*
X379580Y74957D02*
D03*
X404107Y68096D02*
D03*
X481668Y130557D02*
D03*
X469467Y99157D02*
D03*
X463979Y138057D02*
D03*
X488968Y179157D02*
D03*
X467168Y152357D02*
D03*
X399107Y55217D02*
D03*
X362046Y63157D02*
D03*
X83780Y198914D02*
D03*
X548038Y85913D02*
D03*
X589205Y35718D02*
D03*
X557205D02*
D03*
X250500Y42500D02*
D03*
X625280Y112707D02*
D03*
X622093Y89371D02*
D03*
X673000Y116457D02*
D03*
X712753Y110213D02*
D03*
X198689Y52957D02*
D03*
X199000Y117600D02*
D03*
X194000D02*
D03*
X159000Y131500D02*
D03*
X220280Y43957D02*
D03*
X22878Y90500D02*
D03*
Y87500D02*
D03*
X25878D02*
D03*
Y90500D02*
D03*
D29*
X367107Y100218D02*
D03*
X613445Y48500D02*
D03*
M02*
