%FSLAX25Y25*%
%MOIN*%
G70*
G01*
G75*
G04 Layer_Physical_Order=1*
G04 Layer_Color=255*
%ADD10C,0.03150*%
%ADD11R,0.04299X0.02362*%
%ADD12O,0.09843X0.02756*%
%ADD13O,0.02756X0.09843*%
%ADD14R,0.03500X0.03000*%
%ADD15R,0.02362X0.04299*%
%ADD16R,0.03000X0.03500*%
%ADD17R,0.09449X0.10236*%
%ADD18R,0.04921X0.07874*%
%ADD19R,0.03937X0.04331*%
%ADD20R,0.04134X0.08661*%
%ADD21C,0.01000*%
%ADD22C,0.00800*%
%ADD23C,0.02000*%
%ADD24C,0.02500*%
%ADD25C,0.01500*%
%ADD26C,0.06000*%
%ADD27R,0.06000X0.06000*%
%ADD28C,0.02500*%
G36*
X60749Y121658D02*
X65249Y117157D01*
Y107158D01*
X60249Y102157D01*
Y96157D01*
X59749Y95657D01*
X53249D01*
Y99158D01*
X48249Y104157D01*
Y119158D01*
X45249Y122158D01*
Y122658D01*
Y130157D01*
X46749Y131658D01*
X50749D01*
X60749Y121658D01*
D02*
G37*
G36*
X116173Y119691D02*
X116228Y119628D01*
Y90550D01*
Y80313D01*
X116173Y80257D01*
X115957Y80042D01*
X112660D01*
Y75757D01*
Y71258D01*
X116173D01*
Y68372D01*
X115700Y68211D01*
X115120Y68967D01*
X114180Y69688D01*
X113085Y70142D01*
X112660Y70198D01*
Y65756D01*
Y61317D01*
X113085Y61373D01*
X114180Y61827D01*
X115120Y62548D01*
X115700Y63304D01*
X116173Y63143D01*
Y58372D01*
X115700Y58211D01*
X115120Y58967D01*
X114180Y59688D01*
X113085Y60142D01*
X112660Y60198D01*
Y55756D01*
Y51317D01*
X113085Y51373D01*
X114180Y51827D01*
X115120Y52548D01*
X115700Y53304D01*
X116173Y53143D01*
Y48372D01*
X115700Y48211D01*
X115120Y48967D01*
X114180Y49688D01*
X113085Y50142D01*
X112660Y50198D01*
Y45757D01*
Y41317D01*
X113085Y41373D01*
X114180Y41827D01*
X115120Y42548D01*
X115700Y43304D01*
X116173Y43143D01*
Y38372D01*
X115700Y38211D01*
X115120Y38967D01*
X114180Y39688D01*
X113085Y40142D01*
X112660Y40198D01*
Y35756D01*
Y31317D01*
X113085Y31373D01*
X114180Y31827D01*
X115120Y32548D01*
X115700Y33304D01*
X116173Y33143D01*
Y28372D01*
X115700Y28211D01*
X115120Y28967D01*
X114180Y29688D01*
X113085Y30142D01*
X112660Y30198D01*
Y25756D01*
Y21317D01*
X113085Y21373D01*
X114180Y21827D01*
X115120Y22548D01*
X115700Y23304D01*
X116173Y23143D01*
Y18372D01*
X115700Y18211D01*
X115120Y18967D01*
X114180Y19688D01*
X113085Y20142D01*
X112660Y20198D01*
Y15756D01*
Y11317D01*
X113085Y11373D01*
X114180Y11827D01*
X115120Y12548D01*
X115700Y13304D01*
X116173Y13143D01*
Y8372D01*
X115700Y8211D01*
X115120Y8967D01*
X114180Y9688D01*
X113085Y10142D01*
X112660Y10198D01*
Y5756D01*
X111911D01*
Y5007D01*
X107470D01*
X107526Y4583D01*
X107980Y3488D01*
X108701Y2548D01*
X108880Y2411D01*
X108719Y1937D01*
X68485D01*
X68293Y2399D01*
X72953Y7059D01*
X78073D01*
Y8600D01*
X78535Y8791D01*
X78668Y8658D01*
X79330Y8216D01*
X79861Y8111D01*
Y3319D01*
X87160D01*
D01*
X87160D01*
X87260Y3218D01*
Y3000D01*
X93760D01*
Y7625D01*
X94212Y7838D01*
X94260Y7799D01*
Y3000D01*
X100760D01*
Y6908D01*
X101249D01*
Y6908D01*
X103499D01*
Y10157D01*
Y13408D01*
X101249D01*
Y13408D01*
X101114D01*
X100760Y13761D01*
Y13907D01*
X101249D01*
Y13907D01*
X107249D01*
Y13971D01*
X107739Y14068D01*
X107980Y13488D01*
X108701Y12548D01*
X109641Y11827D01*
X110735Y11373D01*
X111160Y11317D01*
Y15756D01*
Y20198D01*
X110735Y20142D01*
X109641Y19688D01*
X108701Y18967D01*
X107980Y18027D01*
X107739Y17447D01*
X107249Y17544D01*
Y20407D01*
X106798D01*
Y30783D01*
X107113Y31098D01*
X107666Y31925D01*
X107859Y32897D01*
X107877Y32901D01*
X108430Y32901D01*
X108701Y32548D01*
X109641Y31827D01*
X110735Y31373D01*
X111160Y31317D01*
Y35756D01*
Y40198D01*
X110735Y40142D01*
X109641Y39688D01*
X108701Y38967D01*
X108281Y38420D01*
X107794Y38534D01*
X107666Y39179D01*
X107113Y40006D01*
X105713Y41406D01*
X104886Y41959D01*
X103910Y42153D01*
X103899D01*
X103621Y42569D01*
X103876Y43183D01*
X103974Y43935D01*
X103876Y44686D01*
X103586Y45386D01*
X103124Y45987D01*
Y46213D01*
X103586Y46814D01*
X103876Y47514D01*
X103974Y48265D01*
X103876Y49017D01*
X103586Y49717D01*
X103124Y50318D01*
Y50543D01*
X103586Y51145D01*
X103876Y51845D01*
X103876Y51846D01*
X91181D01*
X91099Y52470D01*
X90640Y52272D01*
X89742Y53367D01*
X88527Y54363D01*
X87142Y55104D01*
X85638Y55560D01*
X84075Y55714D01*
X82512Y55560D01*
X81008Y55104D01*
X79623Y54363D01*
X78409Y53367D01*
X77412Y52152D01*
X76671Y50767D01*
X76215Y49263D01*
X76061Y47700D01*
X76117Y47135D01*
X75758Y46787D01*
X75818Y46779D01*
X75850Y46766D01*
Y44099D01*
X74350D01*
Y46766D01*
X73713Y46502D01*
X73139Y46061D01*
X72698Y45487D01*
X72462Y44916D01*
X71971Y44819D01*
X60062Y56729D01*
X60136Y57101D01*
X60710Y57542D01*
X61151Y58116D01*
X61428Y58785D01*
X61523Y59503D01*
X61428Y60221D01*
X61151Y60890D01*
X60788Y61363D01*
Y78161D01*
X60633Y78942D01*
X60191Y79603D01*
X57246Y82548D01*
X57467Y82996D01*
X57282Y83021D01*
X57250Y83034D01*
Y85699D01*
Y88366D01*
X57282Y88379D01*
X58000Y88474D01*
X58711Y88380D01*
X58749Y88670D01*
X59500Y88769D01*
X60200Y89059D01*
X60801Y89520D01*
X61027D01*
X61628Y89059D01*
X62328Y88769D01*
X62330Y88768D01*
Y95115D01*
Y101463D01*
X62396Y101472D01*
X62174Y101920D01*
X65894Y105639D01*
X70461D01*
Y118876D01*
X65694D01*
X61830Y122739D01*
X61830Y122739D01*
X56828Y127742D01*
Y133095D01*
X51213D01*
X50749Y133187D01*
X46749D01*
X46164Y133071D01*
X45667Y132739D01*
X44167Y131239D01*
X43836Y130743D01*
X43719Y130157D01*
Y122658D01*
Y122158D01*
X43822Y121644D01*
X43504Y121257D01*
X41160D01*
Y119008D01*
X44411D01*
Y117508D01*
X41160D01*
Y115258D01*
Y113007D01*
X44411D01*
Y111507D01*
X41160D01*
Y109257D01*
Y107008D01*
X44411D01*
Y106258D01*
X45160D01*
Y103258D01*
X47046D01*
X47167Y103076D01*
X48614Y101630D01*
X48581Y101131D01*
X48035Y100712D01*
X47574Y100110D01*
X47284Y99410D01*
X47185Y98659D01*
Y93263D01*
X46723Y93071D01*
X41695Y98099D01*
X41033Y98541D01*
X40253Y98697D01*
X31660D01*
Y99657D01*
X25160D01*
Y93697D01*
X24660D01*
Y99657D01*
X23449D01*
Y100657D01*
X24660D01*
Y106658D01*
X24091D01*
Y113307D01*
X18729D01*
Y106658D01*
X18160D01*
Y100657D01*
X19371D01*
Y99657D01*
X18160D01*
Y94145D01*
X18018Y94086D01*
X17603Y94364D01*
Y99657D01*
X11103D01*
Y93657D01*
X12464D01*
X12469Y93635D01*
X12911Y92973D01*
X15668Y90216D01*
X16330Y89773D01*
X17110Y89618D01*
X31380D01*
X31601Y89170D01*
X31235Y88693D01*
X30945Y87993D01*
X30846Y87242D01*
X30945Y86490D01*
X31235Y85790D01*
X31696Y85189D01*
Y84964D01*
X31235Y84362D01*
X30945Y83662D01*
X30846Y82911D01*
X30945Y82160D01*
X31235Y81460D01*
X31696Y80858D01*
Y80633D01*
X31235Y80032D01*
X30945Y79332D01*
X30846Y78580D01*
X30945Y77829D01*
X31235Y77129D01*
X31696Y76528D01*
Y76302D01*
X31235Y75701D01*
X30945Y75001D01*
X30846Y74250D01*
X30945Y73498D01*
X31235Y72798D01*
X31696Y72197D01*
Y71971D01*
X31235Y71370D01*
X30945Y70670D01*
X30846Y69919D01*
X30945Y69168D01*
X31235Y68467D01*
X31696Y67866D01*
Y67641D01*
X31235Y67040D01*
X30945Y66339D01*
X30846Y65588D01*
X30945Y64837D01*
X31235Y64137D01*
X31696Y63536D01*
Y63310D01*
X31235Y62709D01*
X30945Y62009D01*
X30846Y61257D01*
X30945Y60506D01*
X31235Y59806D01*
X31696Y59205D01*
Y58979D01*
X31235Y58378D01*
X30945Y57678D01*
X30846Y56927D01*
X30945Y56176D01*
X31235Y55475D01*
X31696Y54874D01*
Y54649D01*
X31235Y54048D01*
X30945Y53347D01*
X30846Y52596D01*
X30945Y51845D01*
X31235Y51145D01*
X31696Y50543D01*
Y50318D01*
X31235Y49717D01*
X30945Y49017D01*
X30846Y48265D01*
X30945Y47514D01*
X31235Y46814D01*
X31696Y46213D01*
Y45987D01*
X31235Y45386D01*
X31154Y45190D01*
X30574Y45114D01*
X29905Y44837D01*
X29331Y44396D01*
X28890Y43821D01*
X28613Y43152D01*
X28518Y42435D01*
X28613Y41717D01*
X28890Y41048D01*
X29331Y40473D01*
X29336Y40388D01*
X28522Y39574D01*
X28102Y38945D01*
X28028Y38570D01*
X27931Y38496D01*
X27490Y37922D01*
X27213Y37253D01*
X27118Y36535D01*
X27213Y35817D01*
X27490Y35148D01*
X27931Y34573D01*
X28505Y34133D01*
X29174Y33855D01*
X29892Y33761D01*
X30610Y33855D01*
X30882Y33968D01*
X31235Y33822D01*
X31696Y33221D01*
X32297Y32759D01*
X32998Y32469D01*
X33749Y32370D01*
X37340D01*
X37431Y31682D01*
X37708Y31013D01*
X38149Y30439D01*
X38723Y29998D01*
X39392Y29721D01*
X40110Y29626D01*
X40828Y29721D01*
X41497Y29998D01*
X42072Y30439D01*
X42512Y31013D01*
X42790Y31682D01*
X42884Y32400D01*
X42790Y33118D01*
X42781Y33138D01*
X42888Y33221D01*
X43349Y33822D01*
X43639Y34522D01*
X43738Y35273D01*
X43639Y36024D01*
X43349Y36725D01*
X42888Y37326D01*
Y37551D01*
X43349Y38153D01*
X43639Y38853D01*
X43738Y39604D01*
X43639Y40355D01*
X43349Y41055D01*
X42888Y41657D01*
Y41882D01*
X43349Y42483D01*
X43639Y43183D01*
X43738Y43935D01*
X43639Y44686D01*
X43349Y45386D01*
X43401Y45492D01*
X51812D01*
X53004Y44300D01*
X52843Y43827D01*
X53200Y43874D01*
X53465Y43839D01*
X53950Y43354D01*
Y41099D01*
X53201D01*
Y40350D01*
X50534D01*
X50798Y39713D01*
X50850Y39645D01*
X50629Y39197D01*
X49353D01*
X48572Y39041D01*
X47911Y38599D01*
X45738Y36427D01*
X45296Y35766D01*
X45141Y34985D01*
Y16161D01*
X43461D01*
Y10799D01*
X50760D01*
D01*
X50760D01*
X50860Y10699D01*
Y10480D01*
X57360D01*
Y15551D01*
X57860D01*
Y10480D01*
X59071D01*
Y9000D01*
X57860D01*
Y4854D01*
X57360D01*
Y9000D01*
X50860D01*
Y8681D01*
X50760D01*
Y8681D01*
X43461D01*
Y4854D01*
X42281D01*
X41952Y5230D01*
X41902Y4854D01*
X39199D01*
Y6150D01*
X41866D01*
X41602Y6787D01*
X41564Y6837D01*
X41673Y7059D01*
X41673D01*
X41673Y7059D01*
Y12421D01*
X35610D01*
Y16250D01*
X35159D01*
Y18600D01*
D01*
D01*
D01*
D01*
X35159D01*
D01*
D01*
D01*
D01*
D01*
X35159D01*
Y18600D01*
D01*
D01*
Y18600D01*
D01*
D01*
D01*
D01*
D01*
D01*
D01*
D01*
D01*
D01*
D01*
D01*
Y18600D01*
D01*
X35159D01*
D01*
D01*
D01*
D01*
D01*
D01*
D01*
X35159Y18600D01*
D01*
D01*
D01*
D01*
D01*
D01*
D01*
D01*
X34965Y19576D01*
X34413Y20402D01*
X29013Y25802D01*
X28186Y26355D01*
X27210Y26549D01*
X26159D01*
Y55658D01*
X25965Y56633D01*
X25413Y57460D01*
X25413Y57460D01*
X25413D01*
D01*
X25413Y57460D01*
Y57460D01*
X15313Y67560D01*
X14486Y68112D01*
X13510Y68306D01*
X12079D01*
Y70258D01*
X3080D01*
Y61257D01*
X12079D01*
Y62930D01*
X12541Y63121D01*
X21061Y54602D01*
Y25032D01*
X20931Y24718D01*
X20836Y24000D01*
X20931Y23282D01*
X21025Y23055D01*
X20747Y22639D01*
X13870D01*
X11953Y24556D01*
X11964Y24583D01*
X12118Y25758D01*
X11964Y26932D01*
X11510Y28027D01*
X10789Y28967D01*
X9849Y29688D01*
X8754Y30142D01*
X7580Y30296D01*
X6405Y30142D01*
X5310Y29688D01*
X4370Y28967D01*
X3649Y28027D01*
X3195Y26932D01*
X3041Y25758D01*
X3195Y24583D01*
X3649Y23488D01*
X4370Y22548D01*
X5310Y21827D01*
X6405Y21373D01*
X7580Y21219D01*
X8754Y21373D01*
X9188Y21553D01*
X11583Y19158D01*
X12245Y18716D01*
X13025Y18561D01*
X13025Y18561D01*
X20830D01*
X21108Y18145D01*
X20931Y17718D01*
X20836Y17000D01*
X20931Y16282D01*
X20931D01*
X20610Y16250D01*
X20631Y16252D01*
X20610Y16250D01*
X20610D01*
Y10537D01*
X20148Y10346D01*
X12795Y17699D01*
X12133Y18141D01*
X11353Y18297D01*
X11303D01*
X10789Y18967D01*
X9849Y19688D01*
X8754Y20142D01*
X7580Y20296D01*
X6405Y20142D01*
X5310Y19688D01*
X4370Y18967D01*
X3649Y18027D01*
X3195Y16932D01*
X3041Y15757D01*
X3195Y14583D01*
X3649Y13488D01*
X4370Y12548D01*
X5310Y11827D01*
X6405Y11373D01*
X7580Y11219D01*
X8754Y11373D01*
X9849Y11827D01*
X10789Y12548D01*
X11161Y13033D01*
X11660Y13066D01*
X20168Y4558D01*
X20610Y4263D01*
Y2750D01*
X25791D01*
X26142Y2399D01*
X25951Y1937D01*
X10771D01*
X10610Y2411D01*
X10789Y2548D01*
X11510Y3488D01*
X11964Y4583D01*
X12020Y5007D01*
X3139D01*
X3142Y4992D01*
X2693Y4771D01*
X1937Y5527D01*
Y135858D01*
X4910D01*
Y130508D01*
X10910D01*
Y131718D01*
X11410D01*
Y130508D01*
X17410D01*
Y135858D01*
X18410D01*
Y130508D01*
X24410D01*
Y131718D01*
X25910D01*
Y130508D01*
X31910D01*
Y131666D01*
X32326Y131944D01*
X32350Y131934D01*
Y134601D01*
X33099D01*
Y135350D01*
X35766D01*
X35728Y135442D01*
X36005Y135858D01*
X116173D01*
Y119691D01*
D02*
G37*
%LPC*%
G36*
X111160Y60198D02*
X110735Y60142D01*
X109641Y59688D01*
X108701Y58967D01*
X107980Y58027D01*
X107526Y56932D01*
X107470Y56507D01*
X111160D01*
Y60198D01*
D02*
G37*
G36*
Y55007D02*
X107470D01*
X107526Y54583D01*
X107980Y53488D01*
X108701Y52548D01*
X109641Y51827D01*
X110735Y51373D01*
X111160Y51317D01*
Y55007D01*
D02*
G37*
G36*
X52450Y43766D02*
X51813Y43502D01*
X51239Y43061D01*
X50798Y42487D01*
X50534Y41850D01*
X52450D01*
Y43766D01*
D02*
G37*
G36*
X111160Y50198D02*
X110735Y50142D01*
X109641Y49688D01*
X108701Y48967D01*
X107980Y48027D01*
X107526Y46932D01*
X107470Y46507D01*
X111160D01*
Y50198D01*
D02*
G37*
G36*
X7580Y60296D02*
X6405Y60142D01*
X5310Y59688D01*
X4370Y58967D01*
X3649Y58027D01*
X3195Y56932D01*
X3041Y55757D01*
X3195Y54583D01*
X3649Y53488D01*
X4370Y52548D01*
X5310Y51827D01*
X6405Y51373D01*
X7580Y51219D01*
X8754Y51373D01*
X9849Y51827D01*
X10789Y52548D01*
X11510Y53488D01*
X11964Y54583D01*
X12118Y55757D01*
X11964Y56932D01*
X11510Y58027D01*
X10789Y58967D01*
X9849Y59688D01*
X8754Y60142D01*
X7580Y60296D01*
D02*
G37*
G36*
X111160Y65008D02*
X107470D01*
X107526Y64583D01*
X107980Y63488D01*
X108701Y62548D01*
X109641Y61827D01*
X110735Y61373D01*
X111160Y61317D01*
Y65008D01*
D02*
G37*
G36*
Y80042D02*
X107410D01*
Y76508D01*
X111160D01*
Y80042D01*
D02*
G37*
G36*
X60666Y84950D02*
X58750D01*
Y83034D01*
X59387Y83298D01*
X59961Y83739D01*
X60402Y84313D01*
X60666Y84950D01*
D02*
G37*
G36*
X111160Y75007D02*
X107410D01*
Y71258D01*
X111160D01*
Y75007D01*
D02*
G37*
G36*
Y70198D02*
X110735Y70142D01*
X109641Y69688D01*
X108701Y68967D01*
X107980Y68027D01*
X107526Y66932D01*
X107470Y66508D01*
X111160D01*
Y70198D01*
D02*
G37*
G36*
X88950Y71950D02*
X87034D01*
X87298Y71313D01*
X87739Y70739D01*
X88313Y70298D01*
X88950Y70034D01*
Y71950D01*
D02*
G37*
G36*
X107249Y13408D02*
X104999D01*
Y10908D01*
X107249D01*
Y13408D01*
D02*
G37*
G36*
X111160Y25008D02*
X107470D01*
X107526Y24583D01*
X107980Y23488D01*
X108701Y22548D01*
X109641Y21827D01*
X110735Y21373D01*
X111160Y21317D01*
Y25008D01*
D02*
G37*
G36*
Y30198D02*
X110735Y30142D01*
X109641Y29688D01*
X108701Y28967D01*
X107980Y28027D01*
X107526Y26932D01*
X107470Y26507D01*
X111160D01*
Y30198D01*
D02*
G37*
G36*
X6830Y10198D02*
X6405Y10142D01*
X5310Y9688D01*
X4370Y8967D01*
X3649Y8027D01*
X3195Y6932D01*
X3139Y6508D01*
X6830D01*
Y10198D01*
D02*
G37*
G36*
X8330D02*
Y6508D01*
X12020D01*
X11964Y6932D01*
X11510Y8027D01*
X10789Y8967D01*
X9849Y9688D01*
X8754Y10142D01*
X8330Y10198D01*
D02*
G37*
G36*
X111160D02*
X110735Y10142D01*
X109641Y9688D01*
X108701Y8967D01*
X107980Y8027D01*
X107739Y7447D01*
X107249Y7544D01*
Y9408D01*
X104999D01*
Y6908D01*
X107144D01*
X107473Y6532D01*
X107470Y6508D01*
X111160D01*
Y10198D01*
D02*
G37*
G36*
X8330Y40198D02*
Y36507D01*
X12020D01*
X11964Y36932D01*
X11510Y38027D01*
X10789Y38967D01*
X9849Y39688D01*
X8754Y40142D01*
X8330Y40198D01*
D02*
G37*
G36*
X7580Y50296D02*
X6405Y50142D01*
X5310Y49688D01*
X4370Y48967D01*
X3649Y48027D01*
X3195Y46932D01*
X3041Y45757D01*
X3195Y44583D01*
X3649Y43488D01*
X4370Y42548D01*
X5310Y41827D01*
X6405Y41373D01*
X7580Y41219D01*
X8754Y41373D01*
X9849Y41827D01*
X10789Y42548D01*
X11510Y43488D01*
X11964Y44583D01*
X12118Y45757D01*
X11964Y46932D01*
X11510Y48027D01*
X10789Y48967D01*
X9849Y49688D01*
X8754Y50142D01*
X7580Y50296D01*
D02*
G37*
G36*
X111160Y45008D02*
X107470D01*
X107526Y44583D01*
X107980Y43488D01*
X108701Y42548D01*
X109641Y41827D01*
X110735Y41373D01*
X111160Y41317D01*
Y45008D01*
D02*
G37*
G36*
X6830Y35008D02*
X3139D01*
X3195Y34583D01*
X3649Y33488D01*
X4370Y32548D01*
X5310Y31827D01*
X6405Y31373D01*
X6830Y31317D01*
Y35008D01*
D02*
G37*
G36*
X12020D02*
X8330D01*
Y31317D01*
X8754Y31373D01*
X9849Y31827D01*
X10789Y32548D01*
X11510Y33488D01*
X11964Y34583D01*
X12020Y35008D01*
D02*
G37*
G36*
X6830Y40198D02*
X6405Y40142D01*
X5310Y39688D01*
X4370Y38967D01*
X3649Y38027D01*
X3195Y36932D01*
X3139Y36507D01*
X6830D01*
Y40198D01*
D02*
G37*
G36*
X28141Y113307D02*
X26209D01*
Y110407D01*
X28141D01*
Y113307D01*
D02*
G37*
G36*
X31572D02*
X29641D01*
Y110407D01*
X31572D01*
Y113307D01*
D02*
G37*
G36*
X17514D02*
X15583D01*
Y110407D01*
X17514D01*
Y113307D01*
D02*
G37*
G36*
X31572Y108907D02*
X26209D01*
Y106658D01*
X25160D01*
Y104408D01*
X31660D01*
Y106658D01*
X31572D01*
Y108907D01*
D02*
G37*
G36*
X14083Y113307D02*
X12152D01*
Y110407D01*
X14083D01*
Y113307D01*
D02*
G37*
G36*
X66881Y126908D02*
X63670D01*
Y122221D01*
X66881D01*
Y126908D01*
D02*
G37*
G36*
X71591Y133095D02*
X68381D01*
Y128408D01*
X71591D01*
Y133095D01*
D02*
G37*
G36*
X35766Y133850D02*
X33850D01*
Y131934D01*
X34487Y132198D01*
X35061Y132639D01*
X35502Y133213D01*
X35766Y133850D01*
D02*
G37*
G36*
X66881Y133095D02*
X63670D01*
Y128408D01*
X66881D01*
Y133095D01*
D02*
G37*
G36*
X71591Y126908D02*
X68381D01*
Y122221D01*
X71591D01*
Y126908D01*
D02*
G37*
G36*
X31910Y130008D02*
X25910D01*
Y126641D01*
X24872Y125603D01*
X24410Y125795D01*
Y130008D01*
X18410D01*
Y129306D01*
X17410D01*
Y130008D01*
X11410D01*
Y123720D01*
X11326Y123685D01*
X10910Y123962D01*
Y130008D01*
X4910D01*
Y123507D01*
X5906D01*
X6026Y122902D01*
X6468Y122241D01*
X8412Y120297D01*
Y115094D01*
X13774D01*
Y122394D01*
X12083D01*
X11431Y123046D01*
X11522Y123266D01*
X11522D01*
X11622Y123507D01*
X14561D01*
X14570Y123440D01*
X14847Y122771D01*
X15288Y122196D01*
X15862Y121755D01*
X16531Y121478D01*
X17249Y121384D01*
X17967Y121478D01*
X18636Y121755D01*
X19210Y122196D01*
X19651Y122771D01*
X19928Y123440D01*
X19937Y123507D01*
X22818D01*
X23136Y123121D01*
X23111Y122998D01*
Y122394D01*
X22469D01*
Y115094D01*
X27832D01*
Y122394D01*
X27832Y122394D01*
X27832D01*
X27714Y122677D01*
X28544Y123507D01*
X31910D01*
Y130008D01*
D02*
G37*
G36*
X17514Y108907D02*
X12152D01*
Y106658D01*
X11103D01*
Y104408D01*
X17603D01*
Y106658D01*
X17514D01*
Y108907D01*
D02*
G37*
G36*
X107112Y117955D02*
X105649Y117762D01*
X104285Y117197D01*
X103113Y116299D01*
X102215Y115128D01*
X101650Y113764D01*
X101457Y112300D01*
X101650Y110836D01*
X102215Y109473D01*
X103113Y108301D01*
X104285Y107403D01*
X104469Y107326D01*
Y103187D01*
X104821D01*
Y100742D01*
X104938Y100152D01*
Y99806D01*
X104897Y99600D01*
Y94900D01*
X104938Y94694D01*
Y94331D01*
X104821Y93742D01*
Y91924D01*
X104830Y91878D01*
X104745Y91238D01*
X104481Y90599D01*
X104088Y90087D01*
X104049Y90061D01*
X104002Y89990D01*
X103384Y89578D01*
X102781Y89458D01*
X102756Y89477D01*
X102133Y89735D01*
X101465Y89823D01*
X93591D01*
X92923Y89735D01*
X92301Y89477D01*
X91766Y89067D01*
X91356Y88532D01*
X91098Y87910D01*
X91010Y87242D01*
X91098Y86574D01*
X91356Y85951D01*
X91766Y85417D01*
X92301Y85006D01*
X92923Y84749D01*
X93591Y84661D01*
X101465D01*
X102133Y84749D01*
X102756Y85006D01*
X102841Y85071D01*
X103839Y85170D01*
X104069Y85239D01*
X104188Y85151D01*
Y85151D01*
X108869D01*
Y89332D01*
X108869D01*
X108765Y89472D01*
X109092Y90550D01*
X109219Y91839D01*
X109236Y91924D01*
Y93742D01*
X109119Y94331D01*
Y94694D01*
X109160Y94900D01*
Y98534D01*
X111138D01*
Y98401D01*
X115319D01*
Y103082D01*
X111138D01*
Y102950D01*
X109587D01*
Y103187D01*
X109587D01*
Y107257D01*
X109940Y107403D01*
X111111Y108301D01*
X112010Y109473D01*
X112575Y110836D01*
X112767Y112300D01*
X112575Y113764D01*
X112010Y115128D01*
X111111Y116299D01*
X109940Y117197D01*
X108576Y117762D01*
X107112Y117955D01*
D02*
G37*
G36*
X13603Y102908D02*
X11103D01*
Y100657D01*
X13603D01*
Y102908D01*
D02*
G37*
G36*
X10034Y113307D02*
X4671D01*
Y106658D01*
X4103D01*
Y100657D01*
X5313D01*
Y99657D01*
X4103D01*
Y93657D01*
X10603D01*
Y99657D01*
X9392D01*
Y100657D01*
X10603D01*
Y106658D01*
X10034D01*
Y113307D01*
D02*
G37*
G36*
X58750Y88366D02*
Y86450D01*
X60666D01*
X60402Y87087D01*
X59961Y87661D01*
X59387Y88102D01*
X58750Y88366D01*
D02*
G37*
G36*
X84200Y89027D02*
X82732Y88882D01*
X81799Y88599D01*
X81136D01*
X81004Y88749D01*
X80402Y88669D01*
X79978Y88725D01*
X80067Y88234D01*
X79779Y88080D01*
X78580Y87095D01*
X77596Y85896D01*
X76864Y84528D01*
X76414Y83044D01*
X76262Y81500D01*
X76414Y79956D01*
X76864Y78472D01*
X77596Y77104D01*
X78580Y75905D01*
X79779Y74920D01*
X81147Y74189D01*
X82631Y73739D01*
X84175Y73587D01*
X85719Y73739D01*
X86800Y74067D01*
X87136Y73697D01*
X87034Y73450D01*
X89701D01*
Y72701D01*
X90450D01*
Y70034D01*
X90656Y70119D01*
X91089Y69869D01*
X91181Y69168D01*
X91471Y68467D01*
X91932Y67866D01*
Y67641D01*
X91471Y67040D01*
X91181Y66339D01*
X91082Y65588D01*
X91181Y64837D01*
X91471Y64137D01*
X91932Y63536D01*
Y63310D01*
X91471Y62709D01*
X91181Y62009D01*
X91082Y61257D01*
X91181Y60506D01*
X91471Y59806D01*
X91932Y59205D01*
Y58979D01*
X91471Y58378D01*
X91181Y57678D01*
X91082Y56927D01*
X91181Y56176D01*
X91471Y55475D01*
X91932Y54874D01*
Y54649D01*
X91471Y54048D01*
X91181Y53347D01*
X91181Y53346D01*
X103876D01*
X103876Y53347D01*
X103586Y54048D01*
X103124Y54649D01*
Y54874D01*
X103586Y55475D01*
X103876Y56176D01*
X103974Y56927D01*
X103876Y57678D01*
X103586Y58378D01*
X103124Y58979D01*
Y59205D01*
X103586Y59806D01*
X103876Y60506D01*
X103974Y61257D01*
X103876Y62009D01*
X103586Y62709D01*
X103124Y63310D01*
Y63536D01*
X103586Y64137D01*
X103876Y64837D01*
X103974Y65588D01*
X103876Y66339D01*
X103586Y67040D01*
X103124Y67641D01*
Y67866D01*
X103586Y68467D01*
X103876Y69168D01*
X103974Y69919D01*
X103876Y70670D01*
X103586Y71370D01*
X103124Y71971D01*
Y72197D01*
X103586Y72798D01*
X103876Y73498D01*
X103974Y74250D01*
X103876Y75001D01*
X103586Y75701D01*
X103124Y76302D01*
Y76528D01*
X103586Y77129D01*
X103876Y77829D01*
X103974Y78580D01*
X103876Y79332D01*
X103586Y80032D01*
X103124Y80633D01*
Y80858D01*
X103495Y81342D01*
X92247D01*
X91679Y81987D01*
X91582Y82968D01*
X91154Y84380D01*
X90458Y85682D01*
X89522Y86822D01*
X88382Y87758D01*
X87080Y88454D01*
X85668Y88882D01*
X84200Y89027D01*
D02*
G37*
G36*
X17603Y102908D02*
X15103D01*
Y100657D01*
X17603D01*
Y102908D01*
D02*
G37*
G36*
X76072Y101562D02*
X75320Y101463D01*
X74620Y101173D01*
X74019Y100712D01*
X73794D01*
X73192Y101173D01*
X72492Y101463D01*
X71741Y101562D01*
X70990Y101463D01*
X70290Y101173D01*
X69688Y100712D01*
X69463D01*
X68862Y101173D01*
X68161Y101463D01*
X68160Y101463D01*
Y95115D01*
Y88768D01*
X68161Y88769D01*
X68862Y89059D01*
X69463Y89520D01*
X69688D01*
X70290Y89059D01*
X70990Y88769D01*
X71741Y88670D01*
X72492Y88769D01*
X73192Y89059D01*
X73794Y89520D01*
X74019D01*
X74620Y89059D01*
X75320Y88769D01*
X76072Y88670D01*
X76823Y88769D01*
X77523Y89059D01*
X78124Y89520D01*
X78350D01*
X78951Y89059D01*
X79651Y88769D01*
X79652Y88768D01*
Y90284D01*
X78821Y91229D01*
X78728Y91334D01*
Y101002D01*
X78350Y100712D01*
X78124D01*
X77523Y101173D01*
X76823Y101463D01*
X76072Y101562D01*
D02*
G37*
G36*
X43660Y105508D02*
X41160D01*
Y103258D01*
X43660D01*
Y105508D01*
D02*
G37*
G36*
X66660Y101463D02*
X66659Y101463D01*
X65959Y101173D01*
X65358Y100712D01*
X65132D01*
X64531Y101173D01*
X63831Y101463D01*
X63829Y101463D01*
Y95115D01*
Y88768D01*
X63831Y88769D01*
X64531Y89059D01*
X65132Y89520D01*
X65358D01*
X65959Y89059D01*
X66659Y88769D01*
X66660Y88768D01*
Y95115D01*
Y101463D01*
D02*
G37*
G36*
X27660Y102908D02*
X25160D01*
Y100657D01*
X27660D01*
Y102908D01*
D02*
G37*
G36*
X31660D02*
X29160D01*
Y100657D01*
X31660D01*
Y102908D01*
D02*
G37*
%LPD*%
D10*
X102573Y87242D02*
G03*
X105610Y88500I0J4296D01*
G01*
D02*
G03*
X107028Y91924I-3424J3424D01*
G01*
Y100742D02*
X113028D01*
X97528Y87242D02*
X102573D01*
X107028Y91924D02*
Y93742D01*
Y100742D02*
Y105942D01*
D11*
X38024Y9740D02*
D03*
X47110Y13480D02*
D03*
Y6000D02*
D03*
X83510D02*
D03*
Y13480D02*
D03*
X74424Y9740D02*
D03*
D12*
X37292Y39604D02*
D03*
Y35273D02*
D03*
X97528D02*
D03*
Y39604D02*
D03*
Y43935D02*
D03*
Y48265D02*
D03*
Y52596D02*
D03*
Y56927D02*
D03*
Y61257D02*
D03*
Y65588D02*
D03*
Y69919D02*
D03*
Y74250D02*
D03*
Y78580D02*
D03*
Y82911D02*
D03*
Y87242D02*
D03*
X37292Y43935D02*
D03*
Y48265D02*
D03*
Y52596D02*
D03*
Y56927D02*
D03*
Y61257D02*
D03*
Y65588D02*
D03*
Y69919D02*
D03*
Y74250D02*
D03*
Y78580D02*
D03*
Y82911D02*
D03*
Y87242D02*
D03*
D13*
X50087Y27399D02*
D03*
X54418D02*
D03*
X58749D02*
D03*
X63080D02*
D03*
X67410Y27358D02*
D03*
X71741Y27399D02*
D03*
X76072D02*
D03*
X80402D02*
D03*
X84733D02*
D03*
Y95116D02*
D03*
X80402D02*
D03*
X76072D02*
D03*
X71741D02*
D03*
X67410D02*
D03*
X63080D02*
D03*
X58749D02*
D03*
X54418D02*
D03*
X50087D02*
D03*
D14*
X14353Y96658D02*
D03*
X7353D02*
D03*
X21410Y103657D02*
D03*
Y96658D02*
D03*
X90510Y6000D02*
D03*
X7353Y103657D02*
D03*
X54110Y6000D02*
D03*
X61110D02*
D03*
X54110Y13480D02*
D03*
X61110D02*
D03*
X106528Y87242D02*
D03*
X113528D02*
D03*
X97510Y6000D02*
D03*
Y13480D02*
D03*
X90510D02*
D03*
X44410Y112258D02*
D03*
X51410D02*
D03*
X44410Y118257D02*
D03*
X51410D02*
D03*
X44410Y106257D02*
D03*
X51410D02*
D03*
X28410Y103657D02*
D03*
Y96658D02*
D03*
X14353Y103657D02*
D03*
D15*
X11093Y118744D02*
D03*
X14833Y109658D02*
D03*
X7353D02*
D03*
X25150Y118744D02*
D03*
X21410Y109658D02*
D03*
X28891D02*
D03*
D16*
X21410Y126758D02*
D03*
X14410D02*
D03*
X32610Y6000D02*
D03*
Y13000D02*
D03*
X21410Y133757D02*
D03*
X14410D02*
D03*
X28910D02*
D03*
Y126758D02*
D03*
X7910Y133757D02*
D03*
Y126758D02*
D03*
X104249Y17157D02*
D03*
Y10158D02*
D03*
X23610Y6000D02*
D03*
Y13000D02*
D03*
X107028Y100742D02*
D03*
Y93742D02*
D03*
X113228Y100742D02*
D03*
Y93742D02*
D03*
D17*
X64237Y112258D02*
D03*
X92584D02*
D03*
D18*
X67631Y127657D02*
D03*
X52867D02*
D03*
D19*
X107028Y105942D02*
D03*
D20*
X101221Y112242D02*
D03*
X112835D02*
D03*
D21*
X47110Y6000D02*
X54110D01*
X21410Y133757D02*
X28910D01*
X25150Y118744D02*
Y122998D01*
X28910Y126758D01*
X7910Y123682D02*
X11093Y120500D01*
X7910Y123682D02*
Y126758D01*
X11093Y118744D02*
Y120500D01*
X28410Y96658D02*
X40253D01*
X17110Y91658D02*
X42091D01*
X14353Y94415D02*
X17110Y91658D01*
X14353Y94415D02*
Y96658D01*
X7353D02*
Y109658D01*
X96825Y13100D02*
X97510D01*
X7910Y133757D02*
X14410D01*
X82030Y13680D02*
X90310D01*
X90510Y13480D01*
X61110Y6000D02*
Y13480D01*
X65510Y6000D02*
X72110Y12600D01*
X61110Y6000D02*
X65510D01*
X65825Y2815D02*
X72950Y9940D01*
X21610Y6000D02*
X25425D01*
X28610Y2815D02*
X65825D01*
X49353Y37157D02*
X61353D01*
X47180Y34985D02*
X49353Y37157D01*
X21410Y96658D02*
Y109658D01*
X38292Y61257D02*
X45910D01*
X75710Y20000D02*
X82030Y13680D01*
X71010Y20000D02*
X75710D01*
X28110Y8400D02*
Y17658D01*
X30510Y6000D02*
X35810D01*
X7539Y26086D02*
X13025Y20600D01*
X25168D01*
X28110Y17658D01*
X6410Y14715D02*
Y16258D01*
Y26258D02*
X7368D01*
X47665Y13615D02*
X54910D01*
X72950Y9940D02*
X74424D01*
X72110Y12600D02*
X77610D01*
X80110Y10100D01*
X93595D01*
X96710Y13215D01*
X96825Y13100D01*
X35810Y6000D02*
X38024Y8213D01*
Y9740D01*
X25425Y6000D02*
X28610Y2815D01*
X7710Y16258D02*
X11353D01*
X21610Y6000D01*
X28110Y8400D02*
X30510Y6000D01*
X58749Y27399D02*
Y34399D01*
X54249Y59658D02*
Y79500D01*
X42091Y91658D02*
X54249Y79500D01*
X40253Y96658D02*
X58749Y78161D01*
Y59503D02*
Y78161D01*
X74302Y39604D02*
X98528D01*
X54249Y59658D02*
X74302Y39604D01*
X61353Y37157D02*
X63080Y35430D01*
Y27399D02*
Y35430D01*
X47180Y13438D02*
Y34985D01*
X67410Y21838D02*
Y27358D01*
Y21838D02*
X68030Y21218D01*
X69792D01*
X71010Y20000D01*
D22*
X29892Y38204D02*
X31292Y39604D01*
X29892Y36535D02*
Y38204D01*
X32792Y43935D02*
X38292D01*
X31292Y42435D02*
X32792Y43935D01*
X38292Y35273D02*
X40110Y33455D01*
Y32400D02*
Y33455D01*
X84810Y6015D02*
X91125D01*
X72995Y17300D02*
X73610D01*
X68510Y12815D02*
X72995Y17300D01*
X31292Y39604D02*
X38292D01*
D23*
X97410D02*
X103910D01*
X105311Y38203D01*
X104249Y17157D02*
Y31839D01*
X105311Y32901D02*
Y38203D01*
X104249Y31839D02*
X105311Y32901D01*
X44410Y106257D02*
Y118257D01*
X14410Y126758D02*
X21410D01*
X17249Y124158D02*
Y126758D01*
X97510Y13480D02*
Y15419D01*
X99249Y17157D01*
X104249D01*
X97510Y13480D02*
Y13919D01*
Y6000D02*
Y13480D01*
X28410Y103657D02*
X28891Y104138D01*
Y109658D01*
X23610Y24000D02*
Y55658D01*
X7611Y65758D02*
X13510D01*
X23610Y55658D01*
X32610Y13000D02*
Y18600D01*
X27210Y24000D02*
X32610Y18600D01*
X23610Y24000D02*
X27210D01*
X23610Y13000D02*
Y16958D01*
X51410Y106257D02*
Y127758D01*
X50087Y19441D02*
Y27399D01*
Y19441D02*
X51428Y18100D01*
X68810D01*
D24*
X38292Y48265D02*
X52961D01*
X70969Y35757D02*
X86410D01*
X64569Y42158D02*
X70969Y35757D01*
X52961Y48265D02*
X59069Y42158D01*
X64569D01*
D25*
X78951Y89059D02*
Y89464D01*
X80628Y91142D01*
D26*
X111910Y45757D02*
D03*
Y65758D02*
D03*
Y5757D02*
D03*
X7580D02*
D03*
Y15757D02*
D03*
Y25758D02*
D03*
Y35757D02*
D03*
Y45757D02*
D03*
Y55757D02*
D03*
X111910D02*
D03*
Y35757D02*
D03*
Y25758D02*
D03*
Y15757D02*
D03*
D27*
X7580Y65758D02*
D03*
X111910Y75757D02*
D03*
D28*
X23610Y17000D02*
D03*
Y24000D02*
D03*
X47749Y128657D02*
D03*
Y122658D02*
D03*
Y125657D02*
D03*
X17249Y124158D02*
D03*
X58749Y59503D02*
D03*
Y34399D02*
D03*
X45910Y61257D02*
D03*
X86410Y35757D02*
D03*
X29892Y36535D02*
D03*
X31292Y42435D02*
D03*
X40110Y32400D02*
D03*
X95028Y99216D02*
D03*
Y91342D02*
D03*
Y107090D02*
D03*
X115028Y90742D02*
D03*
X114928Y105742D02*
D03*
X73610Y17300D02*
D03*
X68510Y12815D02*
D03*
X68810Y18100D02*
D03*
X115028Y96942D02*
D03*
X95028Y114964D02*
D03*
X98965Y124838D02*
D03*
X114713D02*
D03*
X75100Y44100D02*
D03*
X58000Y85700D02*
D03*
X89700Y72700D02*
D03*
X33100Y134600D02*
D03*
X53200Y41100D02*
D03*
X39200Y5400D02*
D03*
M02*
