%FSLAX25Y25*%
%MOIN*%
G70*
G01*
G75*
G04 Layer_Color=32896*
%ADD10C,0.02000*%
%ADD11C,0.03200*%
%ADD12C,0.03200*%
%ADD13R,0.03000X0.03500*%
%ADD14R,0.03500X0.03000*%
%ADD15R,0.02362X0.04299*%
%ADD16O,0.02756X0.09843*%
%ADD17O,0.09843X0.02756*%
%ADD18R,0.08661X0.04134*%
%ADD19R,0.04331X0.03937*%
%ADD20R,0.04299X0.02362*%
%ADD21R,0.04921X0.07874*%
%ADD22R,0.07087X0.12992*%
%ADD23R,0.11811X0.04213*%
%ADD24R,0.37008X0.27559*%
%ADD25R,0.09449X0.10236*%
%ADD26C,0.01000*%
%ADD27C,0.03000*%
%ADD28C,0.02500*%
%ADD29C,0.04000*%
%ADD30C,0.07000*%
%ADD31C,0.04200*%
%ADD32C,0.02800*%
%ADD33C,0.06000*%
%ADD34R,0.06000X0.06000*%
%ADD35C,0.02500*%
%ADD36R,0.10236X0.09449*%
%ADD37R,0.05118X0.03150*%
%ADD38R,0.06693X0.05906*%
%ADD39C,0.04000*%
%ADD40R,0.02362X0.01969*%
%ADD41C,0.00800*%
%ADD42C,0.01500*%
%ADD43C,0.00500*%
%ADD44C,0.01600*%
%ADD45C,0.00700*%
%ADD46C,0.00600*%
%ADD47C,0.00100*%
%ADD48R,0.01181X0.08412*%
%ADD49R,0.01870X0.17323*%
%ADD50C,0.00787*%
%ADD51R,0.17323X0.01870*%
D26*
X10724Y42000D02*
Y112000D01*
X1276Y42000D02*
X10724D01*
X1276D02*
Y112000D01*
X10724D01*
X175724Y52000D02*
Y112000D01*
X166276Y52000D02*
X175724D01*
X166276D02*
Y112000D01*
X175724D01*
D41*
X62622Y168350D02*
X126992D01*
X62622Y111657D02*
X126992D01*
Y121894D01*
X119315D02*
X126992D01*
X119315D02*
Y158114D01*
X126992D02*
Y168350D01*
X119315Y158114D02*
X126992D01*
X62622Y111657D02*
Y168350D01*
D43*
X40043Y80000D02*
G03*
X40043Y80000I-500J0D01*
G01*
X37525Y126975D02*
G03*
X37525Y122025I2475J-2475D01*
G01*
X49475D02*
G03*
X49475Y126975I-2475J2475D01*
G01*
X44525Y129525D02*
G03*
X49475Y129525I2475J2475D01*
G01*
Y141475D02*
G03*
X44525Y141475I-2475J-2475D01*
G01*
X37525Y148975D02*
G03*
X37525Y144025I2475J-2475D01*
G01*
X49475D02*
G03*
X49475Y148975I-2475J2475D01*
G01*
X37525Y162475D02*
G03*
X37525Y157525I2475J-2475D01*
G01*
X49475D02*
G03*
X49475Y162475I-2475J2475D01*
G01*
X44525Y120975D02*
G03*
X44525Y116025I2475J-2475D01*
G01*
X56475D02*
G03*
X56475Y120975I-2475J2475D01*
G01*
X22500Y77000D02*
Y90000D01*
X17500Y77000D02*
Y90000D01*
X22500D01*
X17500Y77000D02*
X22500D01*
X24000D02*
Y90000D01*
X29000Y77000D02*
Y90000D01*
X24000Y77000D02*
X29000D01*
X24000Y90000D02*
X29000D01*
X40799Y86352D02*
Y89646D01*
X39224D02*
X40799D01*
Y77835D02*
Y81128D01*
X39224Y77835D02*
X40799D01*
X42000Y129000D02*
Y142000D01*
X37000Y129000D02*
Y142000D01*
X42000D01*
X37000Y129000D02*
X42000D01*
X37000Y163500D02*
X50000D01*
X37000Y168500D02*
X50000D01*
Y163500D02*
Y168500D01*
X37000Y163500D02*
Y168500D01*
Y150000D02*
X50000D01*
X37000Y155000D02*
X50000D01*
Y150000D02*
Y155000D01*
X37000Y150000D02*
Y155000D01*
X37600Y127000D02*
X49400D01*
X37600Y122000D02*
X49400D01*
X44500Y129600D02*
Y141400D01*
X49500Y129600D02*
Y141400D01*
X37600Y149000D02*
X49400D01*
X37600Y144000D02*
X49400D01*
X37600Y162500D02*
X49400D01*
X37600Y157500D02*
X49400D01*
X145661Y68061D02*
Y108781D01*
X128339Y68061D02*
Y108781D01*
Y68061D02*
X145661D01*
X128339Y108781D02*
X145661D01*
X128339Y66191D02*
X145661D01*
X128339D02*
Y68061D01*
X145661Y66191D02*
Y68061D01*
X164161D02*
Y108781D01*
X146839Y68061D02*
Y108781D01*
Y68061D02*
X164161D01*
X146839Y108781D02*
X164161D01*
X146839Y66191D02*
X164161D01*
X146839D02*
Y68061D01*
X164161Y66191D02*
Y68061D01*
X44600Y121000D02*
X56400D01*
X44600Y116000D02*
X56400D01*
D46*
X52600Y140400D02*
X55400D01*
X52500Y133200D02*
Y140257D01*
X55500Y133200D02*
Y140257D01*
X52500Y133200D02*
X55500D01*
X54900Y140900D02*
X55500Y140300D01*
X53100Y140900D02*
X54900D01*
X52500Y140300D02*
X53100Y140900D01*
X54900Y144500D02*
X55500Y145100D01*
X53100Y144500D02*
X54900D01*
X52500Y145100D02*
X53100Y144500D01*
X52500Y152200D02*
X55500D01*
X52500Y145143D02*
Y152200D01*
X55500Y145143D02*
Y152200D01*
X52600Y145000D02*
X55400D01*
X52600Y158600D02*
X55400D01*
X55500Y158743D02*
Y165800D01*
X52500Y158743D02*
Y165800D01*
X55500D01*
X52500Y158700D02*
X53100Y158100D01*
X54900D01*
X55500Y158700D01*
X54900Y122200D02*
X55500Y122800D01*
X53100Y122200D02*
X54900D01*
X52500Y122800D02*
X53100Y122200D01*
X52500Y129900D02*
X55500D01*
X52500Y122843D02*
Y129900D01*
X55500Y122843D02*
Y129900D01*
X52600Y122700D02*
X55400D01*
X35000Y164500D02*
Y167999D01*
X33251D01*
X32667Y167416D01*
Y166249D01*
X33251Y165666D01*
X35000D01*
X33834D02*
X32667Y164500D01*
X31501D02*
X30335D01*
X30918D01*
Y167999D01*
X31501Y167416D01*
X28585D02*
X28002Y167999D01*
X26836D01*
X26253Y167416D01*
Y166833D01*
X26836Y166249D01*
X26253Y165666D01*
Y165083D01*
X26836Y164500D01*
X28002D01*
X28585Y165083D01*
Y165666D01*
X28002Y166249D01*
X28585Y166833D01*
Y167416D01*
X28002Y166249D02*
X26836D01*
X27500Y139500D02*
X24001D01*
Y137751D01*
X24584Y137167D01*
X25751D01*
X26334Y137751D01*
Y139500D01*
Y138334D02*
X27500Y137167D01*
Y136001D02*
Y134835D01*
Y135418D01*
X24001D01*
X24584Y136001D01*
X24001Y130753D02*
X24584Y131919D01*
X25751Y133085D01*
X26917D01*
X27500Y132502D01*
Y131336D01*
X26917Y130753D01*
X26334D01*
X25751Y131336D01*
Y133085D01*
X35000Y151000D02*
Y154499D01*
X33251D01*
X32667Y153916D01*
Y152749D01*
X33251Y152166D01*
X35000D01*
X33834D02*
X32667Y151000D01*
X31501D02*
X30335D01*
X30918D01*
Y154499D01*
X31501Y153916D01*
X26253Y154499D02*
X28585D01*
Y152749D01*
X27419Y153333D01*
X26836D01*
X26253Y152749D01*
Y151583D01*
X26836Y151000D01*
X28002D01*
X28585Y151583D01*
X126667Y140999D02*
X127834D01*
X127251D01*
Y138083D01*
X127834Y137500D01*
X128417D01*
X129000Y138083D01*
X125501Y137500D02*
X124335D01*
X124918D01*
Y140999D01*
X125501Y140416D01*
X57001Y129000D02*
X60500D01*
Y127251D01*
X59917Y126667D01*
X57584D01*
X57001Y127251D01*
Y129000D01*
Y123169D02*
Y125501D01*
X58751D01*
X58167Y124335D01*
Y123752D01*
X58751Y123169D01*
X59917D01*
X60500Y123752D01*
Y124918D01*
X59917Y125501D01*
X56501Y164500D02*
X60000D01*
Y162751D01*
X59417Y162167D01*
X57084D01*
X56501Y162751D01*
Y164500D01*
X57084Y161001D02*
X56501Y160418D01*
Y159252D01*
X57084Y158669D01*
X57667D01*
X58251Y159252D01*
Y159835D01*
Y159252D01*
X58834Y158669D01*
X59417D01*
X60000Y159252D01*
Y160418D01*
X59417Y161001D01*
X56501Y151500D02*
X60000D01*
Y149751D01*
X59417Y149167D01*
X57084D01*
X56501Y149751D01*
Y151500D01*
X60000Y145669D02*
Y148001D01*
X57667Y145669D01*
X57084D01*
X56501Y146252D01*
Y147418D01*
X57084Y148001D01*
X56501Y141500D02*
X60000D01*
Y139751D01*
X59417Y139167D01*
X57084D01*
X56501Y139751D01*
Y141500D01*
X60000Y138001D02*
Y136835D01*
Y137418D01*
X56501D01*
X57084Y138001D01*
X52467Y114116D02*
X53051Y114699D01*
X54217D01*
X54800Y114116D01*
Y111783D01*
X54217Y111200D01*
X53051D01*
X52467Y111783D01*
X51301Y111200D02*
X50135D01*
X50718D01*
Y114699D01*
X51301Y114116D01*
X46053Y111200D02*
X48385D01*
X46053Y113533D01*
Y114116D01*
X46636Y114699D01*
X47802D01*
X48385Y114116D01*
X32167Y125916D02*
X32751Y126499D01*
X33917D01*
X34500Y125916D01*
Y123583D01*
X33917Y123000D01*
X32751D01*
X32167Y123583D01*
X31001Y126499D02*
X28668D01*
Y125916D01*
X31001Y123583D01*
Y123000D01*
X156667Y63916D02*
X157251Y64499D01*
X158417D01*
X159000Y63916D01*
Y61583D01*
X158417Y61000D01*
X157251D01*
X156667Y61583D01*
X153169Y64499D02*
X155501D01*
Y62749D01*
X154335Y63333D01*
X153752D01*
X153169Y62749D01*
Y61583D01*
X153752Y61000D01*
X154918D01*
X155501Y61583D01*
X137667Y63916D02*
X138251Y64499D01*
X139417D01*
X140000Y63916D01*
Y61583D01*
X139417Y61000D01*
X138251D01*
X137667Y61583D01*
X134752Y61000D02*
Y64499D01*
X136501Y62749D01*
X134169D01*
X32667Y161416D02*
X33251Y161999D01*
X34417D01*
X35000Y161416D01*
Y159083D01*
X34417Y158500D01*
X33251D01*
X32667Y159083D01*
X31501Y161416D02*
X30918Y161999D01*
X29752D01*
X29168Y161416D01*
Y160833D01*
X29752Y160249D01*
X30335D01*
X29752D01*
X29168Y159666D01*
Y159083D01*
X29752Y158500D01*
X30918D01*
X31501Y159083D01*
X32667Y147416D02*
X33251Y147999D01*
X34417D01*
X35000Y147416D01*
Y145083D01*
X34417Y144500D01*
X33251D01*
X32667Y145083D01*
X29168Y144500D02*
X31501D01*
X29168Y146833D01*
Y147416D01*
X29752Y147999D01*
X30918D01*
X31501Y147416D01*
X31084Y135667D02*
X30501Y136251D01*
Y137417D01*
X31084Y138000D01*
X33417D01*
X34000Y137417D01*
Y136251D01*
X33417Y135667D01*
X34000Y134501D02*
Y133335D01*
Y133918D01*
X30501D01*
X31084Y134501D01*
X7334Y39999D02*
X8667D01*
X8001D01*
Y36666D01*
X8667Y36000D01*
X9334D01*
X10000Y36666D01*
X3336Y36000D02*
X6001D01*
X3336Y38666D01*
Y39332D01*
X4002Y39999D01*
X5335D01*
X6001Y39332D01*
X171834Y49999D02*
X173167D01*
X172501D01*
Y46666D01*
X173167Y46000D01*
X173834D01*
X174500Y46666D01*
X170501Y49332D02*
X169835Y49999D01*
X168502D01*
X167835Y49332D01*
Y48666D01*
X168502Y47999D01*
X169168D01*
X168502D01*
X167835Y47333D01*
Y46666D01*
X168502Y46000D01*
X169835D01*
X170501Y46666D01*
X28500Y99500D02*
X25001D01*
Y97751D01*
X25584Y97167D01*
X26751D01*
X27334Y97751D01*
Y99500D01*
Y98334D02*
X28500Y97167D01*
Y96001D02*
Y94835D01*
Y95418D01*
X25001D01*
X25584Y96001D01*
X25001Y93085D02*
Y90753D01*
X25584D01*
X27917Y93085D01*
X28500D01*
X22000Y99500D02*
X18501D01*
Y97751D01*
X19084Y97167D01*
X20251D01*
X20834Y97751D01*
Y99500D01*
Y98334D02*
X22000Y97167D01*
Y96001D02*
Y94835D01*
Y95418D01*
X18501D01*
X19084Y96001D01*
X22000Y91336D02*
X18501D01*
X20251Y93085D01*
Y90753D01*
X36667Y93583D02*
Y95916D01*
X37251Y96499D01*
X38417D01*
X39000Y95916D01*
Y93583D01*
X38417Y93000D01*
X37251D01*
X37834Y94166D02*
X36667Y93000D01*
X37251D02*
X36667Y93583D01*
X33752Y93000D02*
Y96499D01*
X35501Y94749D01*
X33169D01*
X169500Y41000D02*
Y44499D01*
X168334Y43333D01*
X167167Y44499D01*
Y41000D01*
X163669Y43916D02*
X164252Y44499D01*
X165418D01*
X166001Y43916D01*
Y41583D01*
X165418Y41000D01*
X164252D01*
X163669Y41583D01*
X162502Y44499D02*
Y41583D01*
X161919Y41000D01*
X160753D01*
X160170Y41583D01*
Y44499D01*
X159003Y40417D02*
X156671D01*
X155505Y41000D02*
Y44499D01*
X153755D01*
X153172Y43916D01*
Y42749D01*
X153755Y42166D01*
X155505D01*
X154338D02*
X153172Y41000D01*
X170000Y25500D02*
Y28999D01*
X168834Y27833D01*
X167667Y28999D01*
Y25500D01*
X164169Y28416D02*
X164752Y28999D01*
X165918D01*
X166501Y28416D01*
Y26083D01*
X165918Y25500D01*
X164752D01*
X164169Y26083D01*
X163002Y28999D02*
Y26083D01*
X162419Y25500D01*
X161253D01*
X160670Y26083D01*
Y28999D01*
X159503Y24917D02*
X157171D01*
X156005Y28999D02*
X153672D01*
X154838D01*
Y25500D01*
X146800Y46399D02*
Y42900D01*
X145051D01*
X144467Y43483D01*
Y45816D01*
X145051Y46399D01*
X146800D01*
X143301D02*
Y42900D01*
X141552D01*
X140969Y43483D01*
Y44066D01*
X141552Y44649D01*
X143301D01*
X141552D01*
X140969Y45233D01*
Y45816D01*
X141552Y46399D01*
X143301D01*
X137470Y45816D02*
X138053Y46399D01*
X139219D01*
X139802Y45816D01*
Y43483D01*
X139219Y42900D01*
X138053D01*
X137470Y43483D01*
Y44649D01*
X138636D01*
X136303Y42317D02*
X133971D01*
X132805Y46399D02*
X130472D01*
X131638D01*
Y42900D01*
X140400Y30799D02*
Y27300D01*
X138651D01*
X138067Y27883D01*
Y30216D01*
X138651Y30799D01*
X140400D01*
X136901D02*
Y27300D01*
X135152D01*
X134569Y27883D01*
Y28466D01*
X135152Y29049D01*
X136901D01*
X135152D01*
X134569Y29633D01*
Y30216D01*
X135152Y30799D01*
X136901D01*
X131070Y30216D02*
X131653Y30799D01*
X132819D01*
X133402Y30216D01*
Y27883D01*
X132819Y27300D01*
X131653D01*
X131070Y27883D01*
Y29049D01*
X132236D01*
X129903Y26717D02*
X127571D01*
X126405Y27300D02*
Y30799D01*
X124655D01*
X124072Y30216D01*
Y29049D01*
X124655Y28466D01*
X126405D01*
X125238D02*
X124072Y27300D01*
X19167Y47916D02*
X19751Y48499D01*
X20917D01*
X21500Y47916D01*
Y45583D01*
X20917Y45000D01*
X19751D01*
X19167Y45583D01*
Y46749D01*
X20334D01*
X18001Y45000D02*
Y48499D01*
X15668Y45000D01*
Y48499D01*
X14502D02*
Y45000D01*
X12753D01*
X12170Y45583D01*
Y47916D01*
X12753Y48499D01*
X14502D01*
X21500Y58999D02*
X20334D01*
X20917D01*
Y55500D01*
X21500D01*
X20334D01*
X18584Y58999D02*
Y55500D01*
X16835D01*
X16252Y56083D01*
Y58416D01*
X16835Y58999D01*
X18584D01*
X15085Y58416D02*
X14502Y58999D01*
X13336D01*
X12753Y58416D01*
Y56083D01*
X13336Y55500D01*
X14502D01*
X15085Y56083D01*
Y58416D01*
X21500Y68499D02*
X20334D01*
X20917D01*
Y65000D01*
X21500D01*
X20334D01*
X18584Y68499D02*
Y65000D01*
X16835D01*
X16252Y65583D01*
Y67916D01*
X16835Y68499D01*
X18584D01*
X15085Y65000D02*
X13919D01*
X14502D01*
Y68499D01*
X15085Y67916D01*
X21500Y108999D02*
X19167D01*
X20334D01*
Y105500D01*
X18001Y108999D02*
X15668Y105500D01*
Y108999D02*
X18001Y105500D01*
X14502Y108999D02*
Y105500D01*
X12753D01*
X12170Y106083D01*
Y108416D01*
X12753Y108999D01*
X14502D01*
X15500Y101500D02*
X12001D01*
Y99751D01*
X12584Y99167D01*
X13751D01*
X14334Y99751D01*
Y101500D01*
Y100334D02*
X15500Y99167D01*
X12001Y98001D02*
X15500Y95669D01*
X12001D02*
X15500Y98001D01*
X12001Y94502D02*
X15500D01*
Y92753D01*
X14917Y92170D01*
X12584D01*
X12001Y92753D01*
Y94502D01*
X15500Y90000D02*
X12001D01*
Y88251D01*
X12584Y87667D01*
X13751D01*
X14334Y88251D01*
Y90000D01*
X12001Y86501D02*
X15500D01*
X14334Y85335D01*
X15500Y84169D01*
X12001D01*
Y83002D02*
X15500D01*
X14334D01*
X12001Y80670D01*
X13751Y82419D01*
X15500Y80670D01*
X162867Y58366D02*
X163400Y58899D01*
X164467D01*
X165000Y58366D01*
Y56233D01*
X164467Y55700D01*
X163400D01*
X162867Y56233D01*
Y57300D01*
X163934D01*
X161801Y55700D02*
Y58899D01*
X159668Y55700D01*
Y58899D01*
X158602D02*
Y55700D01*
X157003D01*
X156469Y56233D01*
Y58366D01*
X157003Y58899D01*
X158602D01*
D50*
X148500Y29489D02*
G03*
X148500Y29489I-3000J0D01*
G01*
Y51011D02*
G03*
X148500Y51011I-3000J0D01*
G01*
X164600Y33411D02*
G03*
X164600Y33411I-3000J0D01*
G01*
X164589Y48900D02*
G03*
X164589Y48900I-3000J0D01*
G01*
D51*
X137000Y67126D02*
D03*
X155500D02*
D03*
M02*
