%FSLAX25Y25*%
%MOIN*%
G70*
G01*
G75*
G04 Layer_Color=65535*
%ADD10C,0.02000*%
%ADD11C,0.03200*%
%ADD12C,0.03200*%
%ADD13R,0.03000X0.03500*%
%ADD14R,0.03500X0.03000*%
%ADD15R,0.02362X0.04299*%
%ADD16O,0.02756X0.09843*%
%ADD17O,0.09843X0.02756*%
%ADD18R,0.08661X0.04134*%
%ADD19R,0.04331X0.03937*%
%ADD20R,0.04299X0.02362*%
%ADD21R,0.04921X0.07874*%
%ADD22R,0.07087X0.12992*%
%ADD23R,0.11811X0.04213*%
%ADD24R,0.37008X0.27559*%
%ADD25R,0.09449X0.10236*%
%ADD26C,0.01000*%
%ADD27C,0.03000*%
%ADD28C,0.02500*%
%ADD29C,0.04000*%
%ADD30C,0.07000*%
%ADD31C,0.04200*%
%ADD32C,0.02800*%
%ADD33C,0.06000*%
%ADD34R,0.06000X0.06000*%
%ADD35C,0.02500*%
%ADD36R,0.10236X0.09449*%
%ADD37R,0.05118X0.03150*%
%ADD38R,0.06693X0.05906*%
%ADD39C,0.04000*%
%ADD40R,0.02362X0.01969*%
%ADD41C,0.00800*%
%ADD42C,0.01500*%
%ADD43C,0.00500*%
%ADD44C,0.01600*%
%ADD45C,0.00700*%
%ADD46C,0.00600*%
%ADD47C,0.00100*%
%ADD48R,0.01181X0.08412*%
%ADD49R,0.01870X0.17323*%
G36*
X25900Y144401D02*
X25429D01*
X25436Y144394D01*
X25449Y144380D01*
X25477Y144360D01*
X25511Y144333D01*
X25559Y144292D01*
X25600Y144244D01*
X25654Y144189D01*
X25702Y144128D01*
X25750Y144060D01*
X25804Y143984D01*
X25845Y143896D01*
X25886Y143807D01*
X25927Y143704D01*
X25955Y143602D01*
X25968Y143486D01*
X25975Y143370D01*
Y143356D01*
Y143322D01*
X25968Y143267D01*
X25962Y143192D01*
X25948Y143110D01*
X25927Y143021D01*
X25900Y142926D01*
X25866Y142830D01*
X25859Y142816D01*
X25845Y142789D01*
X25825Y142748D01*
X25791Y142693D01*
X25750Y142632D01*
X25702Y142571D01*
X25654Y142516D01*
X25593Y142461D01*
X25586Y142454D01*
X25565Y142441D01*
X25524Y142420D01*
X25477Y142400D01*
X25415Y142366D01*
X25347Y142338D01*
X25272Y142311D01*
X25183Y142290D01*
X25176D01*
X25149Y142284D01*
X25115D01*
X25060Y142277D01*
X24985Y142270D01*
X24896D01*
X24793Y142263D01*
X22649D01*
Y142816D01*
X24602D01*
X24691Y142823D01*
X24787D01*
X24882Y142830D01*
X24971Y142837D01*
X25039Y142844D01*
X25046D01*
X25074Y142857D01*
X25115Y142871D01*
X25162Y142892D01*
X25217Y142919D01*
X25278Y142960D01*
X25333Y143008D01*
X25381Y143062D01*
X25388Y143069D01*
X25401Y143096D01*
X25422Y143131D01*
X25442Y143178D01*
X25463Y143240D01*
X25483Y143308D01*
X25497Y143390D01*
X25504Y143479D01*
Y143493D01*
Y143520D01*
X25497Y143568D01*
X25490Y143629D01*
X25477Y143698D01*
X25449Y143773D01*
X25422Y143855D01*
X25381Y143937D01*
X25374Y143943D01*
X25354Y143971D01*
X25326Y144012D01*
X25285Y144060D01*
X25238Y144107D01*
X25176Y144162D01*
X25108Y144203D01*
X25033Y144244D01*
X25019Y144251D01*
X24992Y144258D01*
X24944Y144271D01*
X24869Y144292D01*
X24780Y144312D01*
X24671Y144326D01*
X24541Y144333D01*
X24397Y144340D01*
X22649D01*
Y144893D01*
X25900D01*
Y144401D01*
D02*
G37*
G36*
Y140890D02*
X25497D01*
X25504Y140884D01*
X25517Y140877D01*
X25538Y140856D01*
X25572Y140829D01*
X25606Y140802D01*
X25647Y140761D01*
X25688Y140713D01*
X25736Y140658D01*
X25777Y140597D01*
X25825Y140528D01*
X25866Y140453D01*
X25900Y140378D01*
X25934Y140289D01*
X25955Y140194D01*
X25968Y140091D01*
X25975Y139982D01*
Y139975D01*
Y139962D01*
Y139941D01*
X25968Y139914D01*
X25962Y139839D01*
X25948Y139750D01*
X25921Y139634D01*
X25886Y139517D01*
X25832Y139388D01*
X25763Y139265D01*
Y139258D01*
X25757Y139251D01*
X25722Y139210D01*
X25675Y139155D01*
X25606Y139080D01*
X25524Y139005D01*
X25422Y138917D01*
X25306Y138841D01*
X25169Y138766D01*
X25162D01*
X25149Y138759D01*
X25128Y138753D01*
X25101Y138739D01*
X25067Y138725D01*
X25019Y138712D01*
X24910Y138677D01*
X24780Y138643D01*
X24630Y138616D01*
X24466Y138595D01*
X24281Y138589D01*
X24199D01*
X24158Y138595D01*
X24104D01*
X23988Y138609D01*
X23851Y138630D01*
X23708Y138657D01*
X23550Y138691D01*
X23400Y138746D01*
X23393D01*
X23380Y138753D01*
X23359Y138766D01*
X23332Y138780D01*
X23264Y138814D01*
X23175Y138869D01*
X23072Y138937D01*
X22970Y139019D01*
X22874Y139115D01*
X22785Y139231D01*
Y139237D01*
X22779Y139244D01*
X22751Y139285D01*
X22717Y139354D01*
X22676Y139442D01*
X22642Y139552D01*
X22608Y139675D01*
X22581Y139811D01*
X22574Y139955D01*
Y139962D01*
Y139968D01*
Y140003D01*
X22581Y140057D01*
X22588Y140132D01*
X22608Y140207D01*
X22628Y140296D01*
X22663Y140385D01*
X22704Y140474D01*
X22710Y140487D01*
X22724Y140515D01*
X22751Y140556D01*
X22792Y140610D01*
X22833Y140665D01*
X22888Y140733D01*
X22956Y140795D01*
X23025Y140849D01*
X21413D01*
Y141403D01*
X25900D01*
Y140890D01*
D02*
G37*
G36*
X24418Y149954D02*
Y147536D01*
X24438D01*
X24473Y147543D01*
X24507D01*
X24554Y147550D01*
X24602Y147556D01*
X24725Y147584D01*
X24855Y147625D01*
X24992Y147673D01*
X25128Y147748D01*
X25244Y147836D01*
X25258Y147850D01*
X25285Y147884D01*
X25333Y147946D01*
X25381Y148021D01*
X25436Y148123D01*
X25483Y148240D01*
X25511Y148369D01*
X25524Y148513D01*
Y148520D01*
Y148526D01*
Y148567D01*
X25517Y148622D01*
X25504Y148690D01*
X25483Y148772D01*
X25456Y148861D01*
X25422Y148950D01*
X25367Y149032D01*
X25360Y149039D01*
X25333Y149066D01*
X25299Y149107D01*
X25238Y149155D01*
X25169Y149209D01*
X25080Y149264D01*
X24971Y149319D01*
X24848Y149373D01*
X24923Y149940D01*
X24930D01*
X24944Y149933D01*
X24971Y149926D01*
X25005Y149913D01*
X25046Y149899D01*
X25094Y149879D01*
X25210Y149824D01*
X25333Y149756D01*
X25463Y149674D01*
X25593Y149565D01*
X25702Y149442D01*
Y149435D01*
X25716Y149428D01*
X25729Y149407D01*
X25743Y149373D01*
X25763Y149339D01*
X25791Y149298D01*
X25811Y149250D01*
X25839Y149189D01*
X25886Y149059D01*
X25934Y148895D01*
X25962Y148718D01*
X25975Y148513D01*
Y148506D01*
Y148478D01*
Y148444D01*
X25968Y148397D01*
X25962Y148335D01*
X25955Y148267D01*
X25941Y148192D01*
X25921Y148103D01*
X25866Y147925D01*
X25832Y147830D01*
X25791Y147741D01*
X25743Y147645D01*
X25681Y147556D01*
X25613Y147468D01*
X25538Y147386D01*
X25531Y147379D01*
X25517Y147365D01*
X25490Y147345D01*
X25456Y147324D01*
X25415Y147290D01*
X25360Y147256D01*
X25292Y147215D01*
X25217Y147181D01*
X25135Y147140D01*
X25046Y147099D01*
X24944Y147065D01*
X24835Y147037D01*
X24718Y147010D01*
X24589Y146990D01*
X24452Y146976D01*
X24309Y146969D01*
X24227D01*
X24172Y146976D01*
X24104Y146983D01*
X24022Y146990D01*
X23933Y147003D01*
X23837Y147024D01*
X23632Y147072D01*
X23530Y147106D01*
X23421Y147147D01*
X23318Y147195D01*
X23216Y147249D01*
X23120Y147311D01*
X23031Y147386D01*
X23025Y147392D01*
X23011Y147406D01*
X22990Y147427D01*
X22956Y147461D01*
X22922Y147502D01*
X22888Y147556D01*
X22847Y147611D01*
X22799Y147679D01*
X22758Y147755D01*
X22717Y147836D01*
X22683Y147925D01*
X22642Y148028D01*
X22615Y148130D01*
X22594Y148240D01*
X22581Y148356D01*
X22574Y148478D01*
Y148485D01*
Y148506D01*
Y148540D01*
X22581Y148588D01*
X22588Y148642D01*
X22594Y148711D01*
X22608Y148779D01*
X22628Y148861D01*
X22683Y149025D01*
X22717Y149114D01*
X22765Y149203D01*
X22813Y149291D01*
X22874Y149380D01*
X22943Y149462D01*
X23025Y149544D01*
X23031Y149551D01*
X23045Y149565D01*
X23072Y149585D01*
X23107Y149612D01*
X23154Y149640D01*
X23209Y149674D01*
X23270Y149715D01*
X23346Y149756D01*
X23434Y149790D01*
X23523Y149831D01*
X23626Y149865D01*
X23742Y149899D01*
X23858Y149920D01*
X23988Y149940D01*
X24124Y149954D01*
X24274Y149961D01*
X24356D01*
X24418Y149954D01*
D02*
G37*
G36*
X25900Y145747D02*
X21413D01*
Y146300D01*
X25900D01*
Y145747D01*
D02*
G37*
G36*
X25285Y129279D02*
X25292Y129266D01*
X25313Y129245D01*
X25333Y129211D01*
X25367Y129170D01*
X25395Y129122D01*
X25477Y129006D01*
X25559Y128870D01*
X25647Y128719D01*
X25729Y128549D01*
X25804Y128378D01*
Y128371D01*
X25811Y128357D01*
X25818Y128330D01*
X25832Y128296D01*
X25845Y128255D01*
X25859Y128207D01*
X25873Y128146D01*
X25886Y128084D01*
X25921Y127941D01*
X25948Y127784D01*
X25968Y127606D01*
X25975Y127428D01*
Y127422D01*
Y127401D01*
Y127367D01*
X25968Y127319D01*
Y127258D01*
X25962Y127189D01*
X25955Y127114D01*
X25941Y127032D01*
X25907Y126841D01*
X25859Y126643D01*
X25791Y126431D01*
X25695Y126226D01*
X25688Y126219D01*
X25681Y126206D01*
X25668Y126172D01*
X25640Y126138D01*
X25613Y126090D01*
X25579Y126042D01*
X25490Y125926D01*
X25374Y125789D01*
X25231Y125660D01*
X25067Y125530D01*
X24882Y125414D01*
X24875D01*
X24855Y125400D01*
X24828Y125386D01*
X24787Y125373D01*
X24739Y125352D01*
X24677Y125325D01*
X24609Y125304D01*
X24527Y125277D01*
X24445Y125250D01*
X24350Y125229D01*
X24145Y125181D01*
X23919Y125154D01*
X23680Y125140D01*
X23619D01*
X23571Y125147D01*
X23509D01*
X23441Y125154D01*
X23366Y125161D01*
X23284Y125174D01*
X23093Y125209D01*
X22888Y125257D01*
X22669Y125325D01*
X22458Y125414D01*
X22451D01*
X22430Y125427D01*
X22403Y125441D01*
X22362Y125461D01*
X22314Y125496D01*
X22266Y125530D01*
X22137Y125612D01*
X22000Y125728D01*
X21863Y125857D01*
X21734Y126022D01*
X21672Y126103D01*
X21618Y126199D01*
Y126206D01*
X21604Y126219D01*
X21590Y126254D01*
X21577Y126288D01*
X21549Y126336D01*
X21529Y126397D01*
X21501Y126465D01*
X21474Y126541D01*
X21454Y126622D01*
X21426Y126711D01*
X21378Y126916D01*
X21351Y127135D01*
X21338Y127381D01*
Y127387D01*
Y127401D01*
Y127428D01*
Y127463D01*
X21344Y127504D01*
Y127558D01*
X21358Y127674D01*
X21378Y127804D01*
X21406Y127954D01*
X21447Y128105D01*
X21501Y128255D01*
Y128262D01*
X21508Y128275D01*
X21515Y128296D01*
X21529Y128323D01*
X21563Y128392D01*
X21618Y128480D01*
X21679Y128583D01*
X21754Y128685D01*
X21836Y128788D01*
X21939Y128876D01*
X21952Y128883D01*
X21986Y128911D01*
X22048Y128952D01*
X22137Y129006D01*
X22239Y129061D01*
X22362Y129115D01*
X22505Y129170D01*
X22669Y129218D01*
X22820Y128678D01*
X22813D01*
X22806Y128672D01*
X22765Y128665D01*
X22704Y128637D01*
X22622Y128610D01*
X22540Y128576D01*
X22451Y128535D01*
X22362Y128487D01*
X22280Y128432D01*
X22273Y128426D01*
X22246Y128405D01*
X22212Y128371D01*
X22164Y128323D01*
X22116Y128262D01*
X22061Y128187D01*
X22014Y128105D01*
X21966Y128002D01*
X21959Y127989D01*
X21945Y127954D01*
X21925Y127893D01*
X21904Y127818D01*
X21884Y127729D01*
X21863Y127627D01*
X21850Y127510D01*
X21843Y127387D01*
Y127381D01*
Y127367D01*
Y127347D01*
Y127319D01*
X21850Y127244D01*
X21857Y127148D01*
X21877Y127039D01*
X21898Y126916D01*
X21932Y126800D01*
X21973Y126684D01*
X21980Y126670D01*
X21993Y126636D01*
X22021Y126582D01*
X22061Y126513D01*
X22109Y126438D01*
X22164Y126356D01*
X22226Y126281D01*
X22301Y126206D01*
X22307Y126199D01*
X22335Y126179D01*
X22376Y126144D01*
X22430Y126103D01*
X22499Y126056D01*
X22574Y126008D01*
X22656Y125967D01*
X22745Y125926D01*
X22751D01*
X22765Y125919D01*
X22785Y125912D01*
X22820Y125899D01*
X22854Y125885D01*
X22902Y125871D01*
X23011Y125844D01*
X23147Y125810D01*
X23298Y125782D01*
X23469Y125762D01*
X23646Y125755D01*
X23701D01*
X23749Y125762D01*
X23796D01*
X23858Y125769D01*
X23926Y125776D01*
X23994Y125782D01*
X24158Y125803D01*
X24329Y125844D01*
X24493Y125892D01*
X24657Y125960D01*
X24664D01*
X24677Y125967D01*
X24698Y125980D01*
X24725Y126001D01*
X24793Y126049D01*
X24882Y126110D01*
X24978Y126192D01*
X25080Y126295D01*
X25176Y126418D01*
X25258Y126554D01*
Y126561D01*
X25265Y126575D01*
X25278Y126595D01*
X25285Y126622D01*
X25299Y126657D01*
X25319Y126705D01*
X25354Y126807D01*
X25388Y126937D01*
X25422Y127073D01*
X25442Y127230D01*
X25449Y127394D01*
Y127401D01*
Y127415D01*
Y127435D01*
Y127463D01*
X25442Y127538D01*
X25429Y127633D01*
X25415Y127743D01*
X25388Y127872D01*
X25354Y128009D01*
X25306Y128146D01*
Y128152D01*
X25299Y128159D01*
X25292Y128180D01*
X25278Y128207D01*
X25251Y128275D01*
X25210Y128357D01*
X25162Y128446D01*
X25108Y128535D01*
X25046Y128624D01*
X24985Y128706D01*
X24138D01*
Y127387D01*
X23612D01*
Y129286D01*
X25278D01*
X25285Y129279D01*
D02*
G37*
G36*
X25900Y121507D02*
X25825D01*
X25777Y121514D01*
X25722Y121520D01*
X25661Y121527D01*
X25593Y121548D01*
X25524Y121568D01*
X25517D01*
X25511Y121575D01*
X25470Y121589D01*
X25415Y121616D01*
X25333Y121657D01*
X25244Y121705D01*
X25142Y121773D01*
X25039Y121842D01*
X24930Y121930D01*
X24923D01*
X24916Y121944D01*
X24875Y121978D01*
X24814Y122033D01*
X24732Y122115D01*
X24636Y122217D01*
X24520Y122340D01*
X24391Y122490D01*
X24247Y122654D01*
X24240Y122661D01*
X24220Y122688D01*
X24193Y122723D01*
X24145Y122770D01*
X24097Y122832D01*
X24035Y122900D01*
X23906Y123050D01*
X23749Y123214D01*
X23592Y123378D01*
X23516Y123460D01*
X23441Y123529D01*
X23366Y123590D01*
X23298Y123645D01*
X23291D01*
X23284Y123658D01*
X23264Y123672D01*
X23236Y123686D01*
X23168Y123727D01*
X23079Y123774D01*
X22977Y123822D01*
X22867Y123863D01*
X22745Y123890D01*
X22628Y123904D01*
X22615D01*
X22574Y123897D01*
X22512Y123890D01*
X22437Y123877D01*
X22348Y123843D01*
X22260Y123802D01*
X22164Y123747D01*
X22075Y123665D01*
X22068Y123651D01*
X22041Y123624D01*
X22007Y123570D01*
X21959Y123501D01*
X21918Y123412D01*
X21884Y123310D01*
X21857Y123187D01*
X21850Y123050D01*
Y123044D01*
Y123030D01*
Y123009D01*
X21857Y122982D01*
X21863Y122914D01*
X21877Y122825D01*
X21911Y122723D01*
X21952Y122613D01*
X22014Y122511D01*
X22096Y122415D01*
X22109Y122408D01*
X22137Y122381D01*
X22191Y122340D01*
X22266Y122299D01*
X22362Y122251D01*
X22471Y122217D01*
X22601Y122190D01*
X22751Y122176D01*
X22690Y121609D01*
X22663D01*
X22628Y121616D01*
X22588Y121623D01*
X22533Y121637D01*
X22471Y121643D01*
X22335Y121684D01*
X22178Y121739D01*
X22021Y121814D01*
X21863Y121917D01*
X21795Y121971D01*
X21727Y122040D01*
X21720Y122046D01*
X21713Y122060D01*
X21693Y122081D01*
X21672Y122108D01*
X21652Y122149D01*
X21618Y122197D01*
X21590Y122251D01*
X21556Y122313D01*
X21529Y122381D01*
X21495Y122456D01*
X21467Y122545D01*
X21447Y122634D01*
X21406Y122839D01*
X21399Y122948D01*
X21392Y123064D01*
Y123071D01*
Y123091D01*
Y123126D01*
X21399Y123173D01*
X21406Y123228D01*
X21413Y123290D01*
X21419Y123358D01*
X21440Y123433D01*
X21481Y123597D01*
X21542Y123768D01*
X21583Y123856D01*
X21631Y123938D01*
X21693Y124013D01*
X21754Y124089D01*
X21761Y124095D01*
X21768Y124102D01*
X21788Y124123D01*
X21816Y124150D01*
X21857Y124177D01*
X21898Y124212D01*
X22000Y124280D01*
X22130Y124348D01*
X22280Y124410D01*
X22451Y124457D01*
X22546Y124464D01*
X22642Y124471D01*
X22690D01*
X22745Y124464D01*
X22813Y124457D01*
X22895Y124444D01*
X22984Y124423D01*
X23079Y124396D01*
X23175Y124355D01*
X23189Y124348D01*
X23223Y124334D01*
X23270Y124307D01*
X23339Y124266D01*
X23421Y124218D01*
X23516Y124157D01*
X23612Y124075D01*
X23721Y123986D01*
X23735Y123972D01*
X23776Y123938D01*
X23837Y123877D01*
X23878Y123836D01*
X23926Y123788D01*
X23981Y123733D01*
X24042Y123665D01*
X24104Y123597D01*
X24179Y123522D01*
X24254Y123440D01*
X24336Y123344D01*
X24418Y123249D01*
X24513Y123139D01*
X24520Y123132D01*
X24534Y123119D01*
X24554Y123091D01*
X24582Y123057D01*
X24650Y122975D01*
X24739Y122873D01*
X24835Y122770D01*
X24930Y122661D01*
X25012Y122572D01*
X25046Y122538D01*
X25080Y122504D01*
X25087Y122497D01*
X25108Y122484D01*
X25135Y122456D01*
X25176Y122422D01*
X25265Y122347D01*
X25374Y122272D01*
Y124478D01*
X25900D01*
Y121507D01*
D02*
G37*
G36*
X24391Y138138D02*
X24452D01*
X24520Y138131D01*
X24596Y138124D01*
X24753Y138097D01*
X24916Y138063D01*
X25080Y138015D01*
X25224Y137953D01*
X25231D01*
X25238Y137947D01*
X25285Y137919D01*
X25347Y137872D01*
X25429Y137810D01*
X25517Y137735D01*
X25606Y137639D01*
X25695Y137530D01*
X25777Y137400D01*
Y137393D01*
X25784Y137387D01*
X25798Y137366D01*
X25804Y137339D01*
X25839Y137264D01*
X25873Y137168D01*
X25914Y137052D01*
X25941Y136922D01*
X25968Y136779D01*
X25975Y136622D01*
Y136615D01*
Y136594D01*
Y136553D01*
X25968Y136505D01*
X25962Y136451D01*
X25955Y136383D01*
X25941Y136307D01*
X25921Y136225D01*
X25866Y136055D01*
X25832Y135959D01*
X25791Y135870D01*
X25743Y135775D01*
X25681Y135686D01*
X25613Y135597D01*
X25538Y135515D01*
X25531Y135508D01*
X25517Y135495D01*
X25490Y135474D01*
X25456Y135454D01*
X25408Y135419D01*
X25354Y135385D01*
X25292Y135344D01*
X25217Y135310D01*
X25128Y135269D01*
X25039Y135228D01*
X24930Y135194D01*
X24821Y135167D01*
X24698Y135140D01*
X24568Y135119D01*
X24425Y135105D01*
X24274Y135099D01*
X24234D01*
X24186Y135105D01*
X24124D01*
X24049Y135112D01*
X23967Y135126D01*
X23871Y135140D01*
X23769Y135160D01*
X23660Y135187D01*
X23550Y135222D01*
X23441Y135262D01*
X23332Y135310D01*
X23223Y135365D01*
X23120Y135433D01*
X23025Y135508D01*
X22936Y135597D01*
X22929Y135604D01*
X22922Y135618D01*
X22902Y135638D01*
X22881Y135672D01*
X22854Y135713D01*
X22820Y135761D01*
X22785Y135816D01*
X22751Y135884D01*
X22724Y135952D01*
X22690Y136027D01*
X22628Y136205D01*
X22588Y136403D01*
X22581Y136512D01*
X22574Y136622D01*
Y136628D01*
Y136649D01*
Y136683D01*
X22581Y136731D01*
X22588Y136792D01*
X22594Y136854D01*
X22608Y136929D01*
X22628Y137011D01*
X22683Y137182D01*
X22717Y137270D01*
X22758Y137366D01*
X22813Y137455D01*
X22874Y137544D01*
X22943Y137633D01*
X23018Y137714D01*
X23025Y137721D01*
X23038Y137735D01*
X23065Y137755D01*
X23100Y137783D01*
X23141Y137817D01*
X23195Y137851D01*
X23264Y137892D01*
X23332Y137933D01*
X23414Y137967D01*
X23509Y138008D01*
X23605Y138042D01*
X23714Y138076D01*
X23831Y138104D01*
X23960Y138124D01*
X24090Y138138D01*
X24234Y138145D01*
X24336D01*
X24391Y138138D01*
D02*
G37*
G36*
X25900Y133849D02*
X22143D01*
X25900Y132537D01*
Y132004D01*
X22082Y130714D01*
X25900D01*
Y130140D01*
X21413D01*
Y131028D01*
X24589Y132093D01*
X24596D01*
X24609Y132100D01*
X24630Y132107D01*
X24664Y132114D01*
X24739Y132141D01*
X24835Y132175D01*
X24944Y132209D01*
X25053Y132244D01*
X25162Y132278D01*
X25251Y132305D01*
X25238Y132312D01*
X25203Y132319D01*
X25149Y132339D01*
X25074Y132367D01*
X24971Y132394D01*
X24848Y132435D01*
X24705Y132490D01*
X24534Y132544D01*
X21413Y133616D01*
Y134422D01*
X25900D01*
Y133849D01*
D02*
G37*
G36*
X23885Y166284D02*
X23960D01*
X24049Y166278D01*
X24145Y166271D01*
X24350Y166250D01*
X24561Y166223D01*
X24773Y166182D01*
X24869Y166155D01*
X24964Y166127D01*
X24971D01*
X24985Y166120D01*
X25012Y166114D01*
X25046Y166100D01*
X25087Y166079D01*
X25128Y166059D01*
X25238Y166004D01*
X25360Y165936D01*
X25483Y165854D01*
X25606Y165758D01*
X25716Y165642D01*
Y165636D01*
X25729Y165629D01*
X25736Y165608D01*
X25757Y165588D01*
X25798Y165513D01*
X25845Y165424D01*
X25893Y165301D01*
X25934Y165164D01*
X25962Y165007D01*
X25975Y164830D01*
Y164823D01*
Y164802D01*
Y164768D01*
X25968Y164720D01*
X25962Y164666D01*
X25948Y164604D01*
X25934Y164536D01*
X25921Y164461D01*
X25866Y164297D01*
X25825Y164208D01*
X25784Y164126D01*
X25729Y164037D01*
X25668Y163955D01*
X25600Y163880D01*
X25517Y163805D01*
X25511Y163798D01*
X25490Y163785D01*
X25456Y163764D01*
X25408Y163737D01*
X25347Y163703D01*
X25272Y163668D01*
X25183Y163627D01*
X25074Y163586D01*
X24958Y163546D01*
X24821Y163505D01*
X24671Y163470D01*
X24507Y163436D01*
X24322Y163409D01*
X24131Y163388D01*
X23912Y163375D01*
X23687Y163368D01*
X23557D01*
X23489Y163375D01*
X23414D01*
X23325Y163382D01*
X23230Y163388D01*
X23025Y163409D01*
X22813Y163436D01*
X22601Y163470D01*
X22505Y163498D01*
X22410Y163525D01*
X22403D01*
X22389Y163532D01*
X22362Y163546D01*
X22328Y163559D01*
X22287Y163573D01*
X22239Y163593D01*
X22130Y163648D01*
X22007Y163716D01*
X21884Y163798D01*
X21768Y163894D01*
X21659Y164010D01*
Y164017D01*
X21645Y164024D01*
X21631Y164044D01*
X21618Y164071D01*
X21577Y164140D01*
X21522Y164235D01*
X21474Y164351D01*
X21433Y164495D01*
X21406Y164652D01*
X21392Y164830D01*
Y164836D01*
Y164843D01*
Y164864D01*
Y164891D01*
X21399Y164959D01*
X21413Y165041D01*
X21426Y165137D01*
X21454Y165246D01*
X21495Y165355D01*
X21542Y165458D01*
X21549Y165471D01*
X21570Y165506D01*
X21604Y165553D01*
X21645Y165622D01*
X21706Y165690D01*
X21781Y165765D01*
X21863Y165840D01*
X21959Y165909D01*
X21973Y165916D01*
X22007Y165936D01*
X22068Y165970D01*
X22143Y166011D01*
X22239Y166052D01*
X22355Y166100D01*
X22485Y166148D01*
X22628Y166189D01*
X22635D01*
X22649Y166195D01*
X22669D01*
X22704Y166202D01*
X22738Y166216D01*
X22785Y166223D01*
X22847Y166230D01*
X22908Y166243D01*
X22984Y166250D01*
X23059Y166257D01*
X23147Y166271D01*
X23243Y166278D01*
X23346Y166284D01*
X23448D01*
X23687Y166291D01*
X23817D01*
X23885Y166284D01*
D02*
G37*
G36*
X25900Y161934D02*
X25272D01*
Y162562D01*
X25900D01*
Y161934D01*
D02*
G37*
G36*
Y170116D02*
X22389D01*
X22396Y170109D01*
X22423Y170082D01*
X22458Y170034D01*
X22505Y169973D01*
X22567Y169897D01*
X22628Y169809D01*
X22704Y169706D01*
X22772Y169590D01*
Y169583D01*
X22779Y169576D01*
X22806Y169535D01*
X22840Y169474D01*
X22881Y169399D01*
X22929Y169310D01*
X22970Y169214D01*
X23018Y169112D01*
X23059Y169016D01*
X22519D01*
Y169023D01*
X22512Y169037D01*
X22499Y169064D01*
X22478Y169091D01*
X22458Y169132D01*
X22437Y169180D01*
X22376Y169290D01*
X22301Y169412D01*
X22212Y169549D01*
X22109Y169686D01*
X22000Y169815D01*
X21993Y169822D01*
X21986Y169829D01*
X21945Y169870D01*
X21884Y169931D01*
X21809Y170007D01*
X21713Y170089D01*
X21611Y170171D01*
X21501Y170246D01*
X21392Y170307D01*
Y170669D01*
X25900D01*
Y170116D01*
D02*
G37*
G36*
Y167158D02*
X25272D01*
Y167787D01*
X25900D01*
Y167158D01*
D02*
G37*
G36*
Y156073D02*
Y155466D01*
X21413Y153724D01*
Y154373D01*
X24671Y155534D01*
X24677D01*
X24691Y155541D01*
X24712Y155548D01*
X24739Y155561D01*
X24814Y155582D01*
X24910Y155616D01*
X25026Y155657D01*
X25149Y155698D01*
X25408Y155773D01*
X25401D01*
X25395Y155780D01*
X25374Y155787D01*
X25347Y155793D01*
X25272Y155814D01*
X25176Y155841D01*
X25067Y155875D01*
X24944Y155916D01*
X24807Y155964D01*
X24671Y156012D01*
X21413Y157228D01*
Y157829D01*
X25900Y156073D01*
D02*
G37*
G36*
X27143Y150125D02*
X26747D01*
Y153772D01*
X27143D01*
Y150125D01*
D02*
G37*
G36*
X25900Y159666D02*
X22389D01*
X22396Y159659D01*
X22423Y159632D01*
X22458Y159584D01*
X22505Y159523D01*
X22567Y159448D01*
X22628Y159359D01*
X22704Y159256D01*
X22772Y159140D01*
Y159133D01*
X22779Y159126D01*
X22806Y159086D01*
X22840Y159024D01*
X22881Y158949D01*
X22929Y158860D01*
X22970Y158765D01*
X23018Y158662D01*
X23059Y158566D01*
X22519D01*
Y158573D01*
X22512Y158587D01*
X22499Y158614D01*
X22478Y158642D01*
X22458Y158683D01*
X22437Y158730D01*
X22376Y158840D01*
X22301Y158963D01*
X22212Y159099D01*
X22109Y159236D01*
X22000Y159365D01*
X21993Y159372D01*
X21986Y159379D01*
X21945Y159420D01*
X21884Y159482D01*
X21809Y159557D01*
X21713Y159639D01*
X21611Y159721D01*
X21501Y159796D01*
X21392Y159857D01*
Y160219D01*
X25900D01*
Y159666D01*
D02*
G37*
%LPC*%
G36*
X24438Y140904D02*
X24268D01*
X24220Y140897D01*
X24165D01*
X24104Y140890D01*
X23954Y140870D01*
X23796Y140843D01*
X23632Y140795D01*
X23475Y140733D01*
X23407Y140692D01*
X23346Y140645D01*
X23339D01*
X23332Y140631D01*
X23298Y140597D01*
X23243Y140542D01*
X23189Y140467D01*
X23134Y140378D01*
X23079Y140269D01*
X23045Y140146D01*
X23031Y140078D01*
Y140009D01*
Y140003D01*
Y139996D01*
Y139975D01*
X23038Y139948D01*
X23045Y139880D01*
X23065Y139798D01*
X23107Y139702D01*
X23161Y139600D01*
X23230Y139497D01*
X23277Y139449D01*
X23332Y139401D01*
X23346Y139388D01*
X23366Y139381D01*
X23387Y139360D01*
X23421Y139347D01*
X23462Y139326D01*
X23509Y139299D01*
X23564Y139278D01*
X23626Y139258D01*
X23694Y139231D01*
X23776Y139210D01*
X23858Y139197D01*
X23954Y139176D01*
X24056Y139169D01*
X24165Y139155D01*
X24343D01*
X24384Y139162D01*
X24438D01*
X24493Y139169D01*
X24636Y139190D01*
X24787Y139217D01*
X24944Y139265D01*
X25087Y139326D01*
X25155Y139367D01*
X25217Y139415D01*
X25231Y139429D01*
X25265Y139463D01*
X25313Y139517D01*
X25367Y139593D01*
X25429Y139681D01*
X25477Y139784D01*
X25511Y139907D01*
X25517Y139968D01*
X25524Y140037D01*
Y140043D01*
Y140050D01*
Y140071D01*
X25517Y140098D01*
X25511Y140166D01*
X25490Y140248D01*
X25449Y140344D01*
X25401Y140446D01*
X25326Y140556D01*
X25285Y140603D01*
X25231Y140651D01*
X25224D01*
X25217Y140665D01*
X25196Y140672D01*
X25176Y140692D01*
X25142Y140713D01*
X25108Y140733D01*
X25060Y140754D01*
X25005Y140781D01*
X24951Y140802D01*
X24882Y140822D01*
X24807Y140843D01*
X24725Y140863D01*
X24636Y140884D01*
X24541Y140890D01*
X24438Y140904D01*
D02*
G37*
G36*
X23967Y149380D02*
X23947D01*
X23926Y149373D01*
X23899D01*
X23824Y149360D01*
X23735Y149339D01*
X23639Y149312D01*
X23537Y149271D01*
X23434Y149230D01*
X23352Y149168D01*
X23346D01*
X23339Y149155D01*
X23298Y149120D01*
X23250Y149059D01*
X23189Y148984D01*
X23127Y148881D01*
X23072Y148765D01*
X23038Y148636D01*
X23031Y148561D01*
X23025Y148485D01*
Y148478D01*
Y148472D01*
Y148451D01*
X23031Y148424D01*
X23038Y148349D01*
X23059Y148260D01*
X23086Y148158D01*
X23134Y148055D01*
X23195Y147946D01*
X23284Y147843D01*
X23298Y147830D01*
X23332Y147802D01*
X23387Y147761D01*
X23469Y147713D01*
X23564Y147666D01*
X23680Y147618D01*
X23817Y147584D01*
X23967Y147563D01*
Y149380D01*
D02*
G37*
G36*
X24377Y137578D02*
X24206D01*
X24158Y137571D01*
X24111D01*
X24056Y137564D01*
X23919Y137544D01*
X23776Y137510D01*
X23619Y137462D01*
X23475Y137393D01*
X23346Y137298D01*
X23339D01*
X23332Y137284D01*
X23298Y137250D01*
X23243Y137188D01*
X23189Y137113D01*
X23134Y137011D01*
X23079Y136895D01*
X23045Y136765D01*
X23031Y136697D01*
Y136622D01*
Y136615D01*
Y136601D01*
Y136581D01*
X23038Y136553D01*
X23045Y136478D01*
X23072Y136383D01*
X23107Y136273D01*
X23161Y136157D01*
X23243Y136041D01*
X23291Y135986D01*
X23346Y135932D01*
X23359Y135918D01*
X23380Y135905D01*
X23400Y135891D01*
X23434Y135870D01*
X23475Y135850D01*
X23523Y135822D01*
X23578Y135802D01*
X23639Y135775D01*
X23708Y135747D01*
X23783Y135727D01*
X23871Y135706D01*
X23960Y135693D01*
X24063Y135679D01*
X24165Y135665D01*
X24343D01*
X24384Y135672D01*
X24431D01*
X24493Y135679D01*
X24630Y135700D01*
X24780Y135734D01*
X24937Y135775D01*
X25087Y135843D01*
X25155Y135884D01*
X25217Y135932D01*
X25231Y135945D01*
X25265Y135980D01*
X25313Y136041D01*
X25367Y136123D01*
X25429Y136219D01*
X25477Y136342D01*
X25511Y136471D01*
X25517Y136547D01*
X25524Y136622D01*
Y136628D01*
Y136642D01*
Y136663D01*
X25517Y136690D01*
X25511Y136765D01*
X25483Y136861D01*
X25449Y136970D01*
X25395Y137086D01*
X25319Y137195D01*
X25272Y137250D01*
X25217Y137305D01*
X25210D01*
X25203Y137318D01*
X25183Y137332D01*
X25155Y137346D01*
X25121Y137366D01*
X25080Y137393D01*
X25033Y137414D01*
X24978Y137441D01*
X24916Y137469D01*
X24848Y137489D01*
X24766Y137516D01*
X24677Y137537D01*
X24589Y137550D01*
X24486Y137564D01*
X24377Y137578D01*
D02*
G37*
G36*
X23885Y165724D02*
X23585D01*
X23509Y165717D01*
X23421D01*
X23318Y165711D01*
X23209Y165704D01*
X23086Y165690D01*
X22840Y165663D01*
X22601Y165615D01*
X22485Y165588D01*
X22383Y165553D01*
X22294Y165513D01*
X22219Y165465D01*
X22212D01*
X22205Y165451D01*
X22164Y165417D01*
X22103Y165362D01*
X22034Y165287D01*
X21966Y165191D01*
X21904Y165082D01*
X21863Y164959D01*
X21857Y164891D01*
X21850Y164823D01*
Y164816D01*
Y164809D01*
Y164788D01*
X21857Y164761D01*
X21863Y164693D01*
X21891Y164604D01*
X21932Y164508D01*
X21986Y164406D01*
X22068Y164304D01*
X22123Y164256D01*
X22178Y164215D01*
X22185D01*
X22198Y164201D01*
X22226Y164188D01*
X22260Y164174D01*
X22307Y164153D01*
X22362Y164126D01*
X22437Y164099D01*
X22519Y164078D01*
X22615Y164051D01*
X22724Y164024D01*
X22847Y164003D01*
X22990Y163976D01*
X23141Y163962D01*
X23305Y163949D01*
X23489Y163935D01*
X23789D01*
X23865Y163942D01*
X23954D01*
X24056Y163949D01*
X24172Y163955D01*
X24288Y163969D01*
X24534Y163996D01*
X24780Y164044D01*
X24889Y164071D01*
X24992Y164105D01*
X25087Y164146D01*
X25162Y164188D01*
X25169D01*
X25176Y164201D01*
X25217Y164235D01*
X25278Y164290D01*
X25340Y164365D01*
X25408Y164461D01*
X25470Y164570D01*
X25511Y164693D01*
X25517Y164761D01*
X25524Y164830D01*
Y164836D01*
Y164843D01*
Y164864D01*
X25517Y164891D01*
X25504Y164959D01*
X25477Y165048D01*
X25436Y165150D01*
X25374Y165253D01*
X25333Y165308D01*
X25278Y165362D01*
X25224Y165417D01*
X25162Y165465D01*
X25155D01*
X25142Y165478D01*
X25121Y165492D01*
X25087Y165506D01*
X25046Y165526D01*
X24985Y165547D01*
X24916Y165567D01*
X24841Y165594D01*
X24746Y165622D01*
X24643Y165642D01*
X24520Y165663D01*
X24384Y165683D01*
X24234Y165704D01*
X24070Y165711D01*
X23885Y165724D01*
D02*
G37*
%LPD*%
D26*
X82807Y44768D02*
G03*
X82807Y44768I-6890J0D01*
G01*
X116665Y44768D02*
G03*
X116665Y44768I-6890J0D01*
G01*
D41*
X124343Y81185D02*
Y92602D01*
X117846D02*
X124343D01*
X54657Y30398D02*
X61154D01*
X54657D02*
Y41815D01*
Y81185D02*
Y92602D01*
X61154D01*
X117846Y30398D02*
X124343D01*
Y41815D01*
X122440Y97130D02*
X128870Y90700D01*
Y25870D02*
Y97130D01*
X50130Y25870D02*
X128870D01*
X50130Y97130D02*
X128870D01*
X50130Y25870D02*
Y97130D01*
X144882Y21118D02*
X155118D01*
X144882Y10882D02*
Y21118D01*
Y10882D02*
X155118D01*
Y21118D01*
X134370Y99479D02*
X155630D01*
X134370Y109321D02*
X155630D01*
Y99479D02*
Y109300D01*
X134370Y99479D02*
Y109321D01*
X132889Y100900D02*
Y107900D01*
X134310Y99479D02*
X136500D01*
X132949Y106960D02*
Y107900D01*
X134310Y109321D02*
X134370D01*
X132949Y107960D02*
X134310Y109321D01*
X132889Y100900D02*
X134310Y99479D01*
D43*
X71500Y141443D02*
G03*
X71500Y141443I-500J0D01*
G01*
X31500Y91543D02*
G03*
X31500Y91543I-500J0D01*
G01*
X16000D02*
G03*
X16000Y91543I-500J0D01*
G01*
X65525Y6525D02*
G03*
X70475Y6525I2475J2475D01*
G01*
Y18475D02*
G03*
X65525Y18475I-2475J-2475D01*
G01*
X159043Y60500D02*
G03*
X159043Y60500I-500J0D01*
G01*
X19957Y30500D02*
G03*
X19957Y30500I-500J0D01*
G01*
X78957Y9000D02*
G03*
X78957Y9000I-500J0D01*
G01*
X147975Y75025D02*
G03*
X147975Y79975I-2475J2475D01*
G01*
X136025D02*
G03*
X136025Y75025I2475J-2475D01*
G01*
X147975Y69025D02*
G03*
X147975Y73975I-2475J2475D01*
G01*
X136025D02*
G03*
X136025Y69025I2475J-2475D01*
G01*
X147975Y81025D02*
G03*
X147975Y85975I-2475J2475D01*
G01*
X136025D02*
G03*
X136025Y81025I2475J-2475D01*
G01*
X84025Y143782D02*
G03*
X84025Y138832I2475J-2475D01*
G01*
X95975D02*
G03*
X95975Y143782I-2475J2475D01*
G01*
X159043Y39000D02*
G03*
X159043Y39000I-500J0D01*
G01*
X115000Y6000D02*
X120000D01*
X115000Y19000D02*
X120000D01*
Y6000D02*
Y19000D01*
X115000Y6000D02*
Y19000D01*
X134000Y13500D02*
Y18500D01*
X121000Y13500D02*
Y18500D01*
X134000D01*
X121000Y13500D02*
X134000D01*
X135000Y6000D02*
Y19000D01*
X140000Y6000D02*
Y19000D01*
X135000D02*
X140000D01*
X135000Y6000D02*
X140000D01*
X91000Y124307D02*
X96000D01*
X91000Y111307D02*
X96000D01*
X91000D02*
Y124307D01*
X96000Y111307D02*
Y124307D01*
X83500Y145500D02*
Y150500D01*
X96500Y145500D02*
Y150500D01*
X83500Y145500D02*
X96500D01*
X83500Y150500D02*
X96500D01*
Y125421D02*
Y130421D01*
X83500Y125421D02*
Y130421D01*
X96500D01*
X83500Y125421D02*
X96500D01*
X84000Y124307D02*
X89000D01*
X84000Y111307D02*
X89000D01*
X84000D02*
Y124307D01*
X89000Y111307D02*
Y124307D01*
X68000Y118400D02*
Y123400D01*
X81000Y118400D02*
Y123400D01*
X68000Y118400D02*
X81000D01*
X68000Y123400D02*
X81000D01*
X68835Y141124D02*
Y142699D01*
X72128D01*
X80646Y141124D02*
Y142699D01*
X77352D02*
X80646D01*
X81000Y125400D02*
Y130400D01*
X68000Y125400D02*
Y130400D01*
X81000D01*
X68000Y125400D02*
X81000D01*
X40000Y98900D02*
Y103900D01*
X27000Y98900D02*
Y103900D01*
X40000D01*
X27000Y98900D02*
X40000D01*
X12500D02*
Y103900D01*
X25500Y98900D02*
Y103900D01*
X12500Y98900D02*
X25500D01*
X12500Y103900D02*
X25500D01*
X28500Y81000D02*
X33500D01*
X28500Y68000D02*
X33500D01*
X28500D02*
Y81000D01*
X33500Y68000D02*
Y81000D01*
X36000D02*
X41000D01*
X36000Y68000D02*
X41000D01*
X36000D02*
Y81000D01*
X41000Y68000D02*
Y81000D01*
X13000D02*
X18000D01*
X13000Y68000D02*
X18000D01*
X13000D02*
Y81000D01*
X18000Y68000D02*
Y81000D01*
X20500D02*
X25500D01*
X20500Y68000D02*
X25500D01*
X20500D02*
Y81000D01*
X25500Y68000D02*
Y81000D01*
X28835Y91224D02*
Y92799D01*
X32128D01*
X40646Y91224D02*
Y92799D01*
X37352D02*
X40646D01*
X13335Y91224D02*
Y92799D01*
X16628D01*
X25146Y91224D02*
Y92799D01*
X21852D02*
X25146D01*
X70500Y6600D02*
Y18400D01*
X65500Y6600D02*
Y18400D01*
X166000Y29000D02*
X171000D01*
X166000Y42000D02*
X171000D01*
Y29000D02*
Y42000D01*
X166000Y29000D02*
Y42000D01*
X152000Y43500D02*
Y48500D01*
X165000Y43500D02*
Y48500D01*
X152000Y43500D02*
X165000D01*
X152000Y48500D02*
X165000D01*
X148500Y36500D02*
Y41500D01*
X135500Y36500D02*
Y41500D01*
X148500D01*
X135500Y36500D02*
X148500D01*
Y29000D02*
Y34000D01*
X135500Y29000D02*
Y34000D01*
X148500D01*
X135500Y29000D02*
X148500D01*
Y58000D02*
Y63000D01*
X135500Y58000D02*
Y63000D01*
X148500D01*
X135500Y58000D02*
X148500D01*
Y50500D02*
Y55500D01*
X135500Y50500D02*
Y55500D01*
X148500D01*
X135500Y50500D02*
X148500D01*
X158224Y62665D02*
X159799D01*
Y59372D02*
Y62665D01*
X158224Y50854D02*
X159799D01*
Y54148D01*
X33500Y15500D02*
Y20500D01*
X46500Y15500D02*
Y20500D01*
X33500Y15500D02*
X46500D01*
X33500Y20500D02*
X46500D01*
X33500Y7500D02*
Y12500D01*
X46500Y7500D02*
Y12500D01*
X33500Y7500D02*
X46500D01*
X33500Y12500D02*
X46500D01*
X17615Y16735D02*
Y19115D01*
Y16735D02*
X18850Y15500D01*
X19000D01*
X24760Y17895D02*
X26173Y16482D01*
X24693Y17961D02*
X26173Y19441D01*
Y16463D02*
Y19463D01*
X19000Y20500D02*
X32000D01*
X19000Y15500D02*
X32000D01*
Y20500D01*
X19000Y15500D02*
Y20500D01*
X17956Y16394D02*
Y19254D01*
X18429Y15921D02*
Y19727D01*
Y15921D02*
X18850Y15500D01*
X17956Y16394D02*
X18429Y15921D01*
X17956Y19254D02*
X18429Y19727D01*
X18858Y15500D02*
Y20358D01*
X17615Y19115D02*
X18858Y20358D01*
X17615Y8735D02*
Y11115D01*
Y8735D02*
X18850Y7500D01*
X19000D01*
X24760Y9895D02*
X26173Y8482D01*
X24693Y9961D02*
X26173Y11441D01*
Y8463D02*
Y11463D01*
X19000Y12500D02*
X32000D01*
X19000Y7500D02*
X32000D01*
Y12500D01*
X19000Y7500D02*
Y12500D01*
X17956Y8394D02*
Y11254D01*
X18429Y7921D02*
Y11727D01*
Y7921D02*
X18850Y7500D01*
X17956Y8394D02*
X18429Y7921D01*
X17956Y11254D02*
X18429Y11727D01*
X18858Y7500D02*
Y12358D01*
X17615Y11115D02*
X18858Y12358D01*
X25600Y56500D02*
Y61500D01*
X12600Y56500D02*
Y61500D01*
X25600D01*
X12600Y56500D02*
X25600D01*
Y49500D02*
Y54500D01*
X12600Y49500D02*
Y54500D01*
X25600D01*
X12600Y49500D02*
X25600D01*
X18201Y28335D02*
X19776D01*
X18201D02*
Y31628D01*
Y40146D02*
X19776D01*
X18201Y36852D02*
Y40146D01*
X77201Y6835D02*
X78776D01*
X77201D02*
Y10128D01*
Y18646D02*
X78776D01*
X77201Y15352D02*
Y18646D01*
X35500Y27500D02*
X40500D01*
X35500Y40500D02*
X40500D01*
Y27500D02*
Y40500D01*
X35500Y27500D02*
Y40500D01*
X90000Y6000D02*
X95000D01*
X90000Y19000D02*
X95000D01*
Y6000D02*
Y19000D01*
X90000Y6000D02*
Y19000D01*
X29500Y40500D02*
X34500D01*
X29500Y27500D02*
X34500D01*
X29500D02*
Y40500D01*
X34500Y27500D02*
Y40500D01*
X97000Y19000D02*
X102000D01*
X97000Y6000D02*
X102000D01*
X97000D02*
Y19000D01*
X102000Y6000D02*
Y19000D01*
X136100Y80000D02*
X147900D01*
X136100Y75000D02*
X147900D01*
X136100Y74000D02*
X147900D01*
X136100Y69000D02*
X147900D01*
X136100Y86000D02*
X147900D01*
X136100Y81000D02*
X147900D01*
X84719Y158339D02*
X125439D01*
X84719Y175661D02*
X125439D01*
Y158339D02*
Y175661D01*
X84719Y158339D02*
Y175661D01*
X127309Y158339D02*
Y175661D01*
X125439D02*
X127309D01*
X125439Y158339D02*
X127309D01*
X84100Y138807D02*
X95900D01*
X84100Y143807D02*
X95900D01*
X159799Y29354D02*
Y32648D01*
X158224Y29354D02*
X159799D01*
Y37872D02*
Y41165D01*
X158224D02*
X159799D01*
X114972Y151748D02*
Y150748D01*
Y151248D01*
X117971D01*
X117472Y151748D01*
D44*
X150787Y16000D02*
G03*
X150787Y16000I-787J0D01*
G01*
D45*
X137618Y173299D02*
X147776D01*
X137697Y160701D02*
X147776D01*
X142682Y165043D02*
X147604Y169964D01*
X137761D02*
X142682Y165043D01*
Y168980D02*
X147604Y164058D01*
X137761D02*
X142682Y168980D01*
D46*
X98120Y114142D02*
Y155087D01*
X165055Y114142D02*
Y155087D01*
X98126Y114142D02*
X165055D01*
X98126Y155087D02*
X165055D01*
X98120Y151147D02*
X102060Y155087D01*
X98278Y151871D02*
X101233Y154826D01*
X100799D02*
X101233D01*
X98435Y152462D02*
X100799Y154826D01*
X98435Y152462D02*
Y153053D01*
X100169Y154787D01*
X98317Y153447D02*
Y153566D01*
X99578Y154826D01*
X98278Y154038D02*
Y154275D01*
X98908Y154905D01*
X113416Y14667D02*
X113999Y15251D01*
Y16417D01*
X113416Y17000D01*
X111083D01*
X110500Y16417D01*
Y15251D01*
X111083Y14667D01*
X110500Y13501D02*
Y12335D01*
Y12918D01*
X113999D01*
X113416Y13501D01*
X110500Y8836D02*
X113999D01*
X112249Y10585D01*
Y8253D01*
X124500Y9000D02*
Y12499D01*
X126249D01*
X126833Y11916D01*
Y10749D01*
X126249Y10166D01*
X124500D01*
X125666D02*
X126833Y9000D01*
X127999Y9583D02*
X128582Y9000D01*
X129748D01*
X130331Y9583D01*
Y11916D01*
X129748Y12499D01*
X128582D01*
X127999Y11916D01*
Y11333D01*
X128582Y10749D01*
X130331D01*
X111500Y103999D02*
Y101083D01*
X112083Y100500D01*
X113249D01*
X113833Y101083D01*
Y103999D01*
X117331Y100500D02*
X114999D01*
X117331Y102833D01*
Y103416D01*
X116748Y103999D01*
X115582D01*
X114999Y103416D01*
X171999Y141500D02*
X169083D01*
X168500Y140917D01*
Y139751D01*
X169083Y139167D01*
X171999D01*
X168500Y138001D02*
Y136835D01*
Y137418D01*
X171999D01*
X171416Y138001D01*
X27500Y41500D02*
Y44999D01*
X29249D01*
X29833Y44416D01*
Y43249D01*
X29249Y42666D01*
X27500D01*
X28666D02*
X29833Y41500D01*
X30999Y44416D02*
X31582Y44999D01*
X32748D01*
X33332Y44416D01*
Y43833D01*
X32748Y43249D01*
X32165D01*
X32748D01*
X33332Y42666D01*
Y42083D01*
X32748Y41500D01*
X31582D01*
X30999Y42083D01*
X36830Y41500D02*
X34498D01*
X36830Y43833D01*
Y44416D01*
X36247Y44999D01*
X35081D01*
X34498Y44416D01*
X103000Y17000D02*
X106499D01*
Y15251D01*
X105916Y14667D01*
X104749D01*
X104166Y15251D01*
Y17000D01*
Y15834D02*
X103000Y14667D01*
X105916Y13501D02*
X106499Y12918D01*
Y11752D01*
X105916Y11169D01*
X105333D01*
X104749Y11752D01*
Y12335D01*
Y11752D01*
X104166Y11169D01*
X103583D01*
X103000Y11752D01*
Y12918D01*
X103583Y13501D01*
X103000Y10002D02*
Y8836D01*
Y9419D01*
X106499D01*
X105916Y10002D01*
X41500Y39000D02*
X44999D01*
Y37251D01*
X44416Y36667D01*
X43249D01*
X42666Y37251D01*
Y39000D01*
Y37834D02*
X41500Y36667D01*
X44416Y35501D02*
X44999Y34918D01*
Y33752D01*
X44416Y33169D01*
X43833D01*
X43249Y33752D01*
Y34335D01*
Y33752D01*
X42666Y33169D01*
X42083D01*
X41500Y33752D01*
Y34918D01*
X42083Y35501D01*
X44416Y32002D02*
X44999Y31419D01*
Y30253D01*
X44416Y29670D01*
X42083D01*
X41500Y30253D01*
Y31419D01*
X42083Y32002D01*
X44416D01*
X88000Y1500D02*
Y4999D01*
X89749D01*
X90333Y4416D01*
Y3249D01*
X89749Y2666D01*
X88000D01*
X89166D02*
X90333Y1500D01*
X93831D02*
X91499D01*
X93831Y3833D01*
Y4416D01*
X93248Y4999D01*
X92082D01*
X91499Y4416D01*
X94998Y2083D02*
X95581Y1500D01*
X96747D01*
X97330Y2083D01*
Y4416D01*
X96747Y4999D01*
X95581D01*
X94998Y4416D01*
Y3833D01*
X95581Y3249D01*
X97330D01*
X27000Y57500D02*
Y60999D01*
X28749D01*
X29333Y60416D01*
Y59249D01*
X28749Y58666D01*
X27000D01*
X28166D02*
X29333Y57500D01*
X32831D02*
X30499D01*
X32831Y59833D01*
Y60416D01*
X32248Y60999D01*
X31082D01*
X30499Y60416D01*
X33998D02*
X34581Y60999D01*
X35747D01*
X36330Y60416D01*
Y59833D01*
X35747Y59249D01*
X36330Y58666D01*
Y58083D01*
X35747Y57500D01*
X34581D01*
X33998Y58083D01*
Y58666D01*
X34581Y59249D01*
X33998Y59833D01*
Y60416D01*
X34581Y59249D02*
X35747D01*
X27000Y50500D02*
Y53999D01*
X28749D01*
X29333Y53416D01*
Y52249D01*
X28749Y51666D01*
X27000D01*
X28166D02*
X29333Y50500D01*
X32831D02*
X30499D01*
X32831Y52833D01*
Y53416D01*
X32248Y53999D01*
X31082D01*
X30499Y53416D01*
X33998Y53999D02*
X36330D01*
Y53416D01*
X33998Y51083D01*
Y50500D01*
X37500Y21500D02*
Y24999D01*
X39249D01*
X39833Y24416D01*
Y23249D01*
X39249Y22666D01*
X37500D01*
X38666D02*
X39833Y21500D01*
X43332D02*
X40999D01*
X43332Y23833D01*
Y24416D01*
X42748Y24999D01*
X41582D01*
X40999Y24416D01*
X46830Y24999D02*
X45664Y24416D01*
X44498Y23249D01*
Y22083D01*
X45081Y21500D01*
X46247D01*
X46830Y22083D01*
Y22666D01*
X46247Y23249D01*
X44498D01*
X35500Y3000D02*
Y6499D01*
X37249D01*
X37833Y5916D01*
Y4749D01*
X37249Y4166D01*
X35500D01*
X36666D02*
X37833Y3000D01*
X41331D02*
X38999D01*
X41331Y5333D01*
Y5916D01*
X40748Y6499D01*
X39582D01*
X38999Y5916D01*
X44830Y6499D02*
X42498D01*
Y4749D01*
X43664Y5333D01*
X44247D01*
X44830Y4749D01*
Y3583D01*
X44247Y3000D01*
X43081D01*
X42498Y3583D01*
X137500Y42100D02*
Y45599D01*
X139249D01*
X139833Y45016D01*
Y43849D01*
X139249Y43266D01*
X137500D01*
X138666D02*
X139833Y42100D01*
X143331D02*
X140999D01*
X143331Y44433D01*
Y45016D01*
X142748Y45599D01*
X141582D01*
X140999Y45016D01*
X146247Y42100D02*
Y45599D01*
X144498Y43849D01*
X146830D01*
X134000Y24500D02*
Y27999D01*
X135749D01*
X136333Y27416D01*
Y26249D01*
X135749Y25666D01*
X134000D01*
X135166D02*
X136333Y24500D01*
X139831D02*
X137499D01*
X139831Y26833D01*
Y27416D01*
X139248Y27999D01*
X138082D01*
X137499Y27416D01*
X140998D02*
X141581Y27999D01*
X142747D01*
X143330Y27416D01*
Y26833D01*
X142747Y26249D01*
X142164D01*
X142747D01*
X143330Y25666D01*
Y25083D01*
X142747Y24500D01*
X141581D01*
X140998Y25083D01*
X137000Y64000D02*
Y67499D01*
X138749D01*
X139333Y66916D01*
Y65749D01*
X138749Y65166D01*
X137000D01*
X138166D02*
X139333Y64000D01*
X142831D02*
X140499D01*
X142831Y66333D01*
Y66916D01*
X142248Y67499D01*
X141082D01*
X140499Y66916D01*
X146330Y64000D02*
X143998D01*
X146330Y66333D01*
Y66916D01*
X145747Y67499D01*
X144581D01*
X143998Y66916D01*
X137600Y46300D02*
Y49799D01*
X139349D01*
X139933Y49216D01*
Y48049D01*
X139349Y47466D01*
X137600D01*
X138766D02*
X139933Y46300D01*
X143431D02*
X141099D01*
X143431Y48633D01*
Y49216D01*
X142848Y49799D01*
X141682D01*
X141099Y49216D01*
X144598Y46300D02*
X145764D01*
X145181D01*
Y49799D01*
X144598Y49216D01*
X166700Y27600D02*
X170199D01*
Y25851D01*
X169616Y25267D01*
X168449D01*
X167866Y25851D01*
Y27600D01*
Y26434D02*
X166700Y25267D01*
Y21768D02*
Y24101D01*
X169033Y21768D01*
X169616D01*
X170199Y22352D01*
Y23518D01*
X169616Y24101D01*
Y20602D02*
X170199Y20019D01*
Y18853D01*
X169616Y18270D01*
X167283D01*
X166700Y18853D01*
Y20019D01*
X167283Y20602D01*
X169616D01*
X166500Y44500D02*
Y47999D01*
X168249D01*
X168833Y47416D01*
Y46249D01*
X168249Y45666D01*
X166500D01*
X167666D02*
X168833Y44500D01*
X169999D02*
X171165D01*
X170582D01*
Y47999D01*
X169999Y47416D01*
X172915Y45083D02*
X173498Y44500D01*
X174664D01*
X175247Y45083D01*
Y47416D01*
X174664Y47999D01*
X173498D01*
X172915Y47416D01*
Y46833D01*
X173498Y46249D01*
X175247D01*
X29000Y63500D02*
Y66999D01*
X30749D01*
X31333Y66416D01*
Y65249D01*
X30749Y64666D01*
X29000D01*
X30166D02*
X31333Y63500D01*
X32499D02*
X33665D01*
X33082D01*
Y66999D01*
X32499Y66416D01*
X35415D02*
X35998Y66999D01*
X37164D01*
X37747Y66416D01*
Y65833D01*
X37164Y65249D01*
X36581D01*
X37164D01*
X37747Y64666D01*
Y64083D01*
X37164Y63500D01*
X35998D01*
X35415Y64083D01*
X42200Y80100D02*
X45699D01*
Y78351D01*
X45116Y77767D01*
X43949D01*
X43366Y78351D01*
Y80100D01*
Y78934D02*
X42200Y77767D01*
Y76601D02*
Y75435D01*
Y76018D01*
X45699D01*
X45116Y76601D01*
X42200Y71353D02*
Y73685D01*
X44533Y71353D01*
X45116D01*
X45699Y71936D01*
Y73102D01*
X45116Y73685D01*
X10000Y63500D02*
Y66999D01*
X11749D01*
X12333Y66416D01*
Y65249D01*
X11749Y64666D01*
X10000D01*
X11166D02*
X12333Y63500D01*
X13499D02*
X14665D01*
X14082D01*
Y66999D01*
X13499Y66416D01*
X16415Y63500D02*
X17581D01*
X16998D01*
Y66999D01*
X16415Y66416D01*
X19000Y63500D02*
Y66999D01*
X20749D01*
X21333Y66416D01*
Y65249D01*
X20749Y64666D01*
X19000D01*
X20166D02*
X21333Y63500D01*
X22499D02*
X23665D01*
X23082D01*
Y66999D01*
X22499Y66416D01*
X25415D02*
X25998Y66999D01*
X27164D01*
X27747Y66416D01*
Y64083D01*
X27164Y63500D01*
X25998D01*
X25415Y64083D01*
Y66416D01*
X30000Y105000D02*
Y108499D01*
X31749D01*
X32333Y107916D01*
Y106749D01*
X31749Y106166D01*
X30000D01*
X31166D02*
X32333Y105000D01*
X33499Y107916D02*
X34082Y108499D01*
X35248D01*
X35831Y107916D01*
Y107333D01*
X35248Y106749D01*
X35831Y106166D01*
Y105583D01*
X35248Y105000D01*
X34082D01*
X33499Y105583D01*
Y106166D01*
X34082Y106749D01*
X33499Y107333D01*
Y107916D01*
X34082Y106749D02*
X35248D01*
X15500Y105000D02*
Y108499D01*
X17249D01*
X17833Y107916D01*
Y106749D01*
X17249Y106166D01*
X15500D01*
X16666D02*
X17833Y105000D01*
X18999Y108499D02*
X21331D01*
Y107916D01*
X18999Y105583D01*
Y105000D01*
X60500Y126000D02*
Y129499D01*
X62249D01*
X62833Y128916D01*
Y127749D01*
X62249Y127166D01*
X60500D01*
X61666D02*
X62833Y126000D01*
X66331Y129499D02*
X65165Y128916D01*
X63999Y127749D01*
Y126583D01*
X64582Y126000D01*
X65748D01*
X66331Y126583D01*
Y127166D01*
X65748Y127749D01*
X63999D01*
X69721Y113779D02*
Y117278D01*
X71471D01*
X72054Y116694D01*
Y115528D01*
X71471Y114945D01*
X69721D01*
X70888D02*
X72054Y113779D01*
X75553Y117278D02*
X73220D01*
Y115528D01*
X74386Y116111D01*
X74970D01*
X75553Y115528D01*
Y114362D01*
X74970Y113779D01*
X73803D01*
X73220Y114362D01*
X85000Y110000D02*
X88499D01*
Y108251D01*
X87916Y107667D01*
X86749D01*
X86166Y108251D01*
Y110000D01*
Y108834D02*
X85000Y107667D01*
Y104752D02*
X88499D01*
X86749Y106501D01*
Y104169D01*
X82600Y131200D02*
Y134699D01*
X84349D01*
X84933Y134116D01*
Y132949D01*
X84349Y132366D01*
X82600D01*
X83766D02*
X84933Y131200D01*
X86099Y134116D02*
X86682Y134699D01*
X87848D01*
X88431Y134116D01*
Y133533D01*
X87848Y132949D01*
X87265D01*
X87848D01*
X88431Y132366D01*
Y131783D01*
X87848Y131200D01*
X86682D01*
X86099Y131783D01*
X92000Y110000D02*
X95499D01*
Y108251D01*
X94916Y107667D01*
X93749D01*
X93166Y108251D01*
Y110000D01*
Y108834D02*
X92000Y107667D01*
Y104169D02*
Y106501D01*
X94333Y104169D01*
X94916D01*
X95499Y104752D01*
Y105918D01*
X94916Y106501D01*
X78000Y147000D02*
Y150499D01*
X79749D01*
X80333Y149916D01*
Y148749D01*
X79749Y148166D01*
X78000D01*
X79166D02*
X80333Y147000D01*
X81499D02*
X82665D01*
X82082D01*
Y150499D01*
X81499Y149916D01*
X20833Y42083D02*
Y44416D01*
X20249Y44999D01*
X19083D01*
X18500Y44416D01*
Y42083D01*
X19083Y41500D01*
X20249D01*
X19666Y42666D02*
X20833Y41500D01*
X20249D02*
X20833Y42083D01*
X21999Y44416D02*
X22582Y44999D01*
X23748D01*
X24331Y44416D01*
Y43833D01*
X23748Y43249D01*
X24331Y42666D01*
Y42083D01*
X23748Y41500D01*
X22582D01*
X21999Y42083D01*
Y42666D01*
X22582Y43249D01*
X21999Y43833D01*
Y44416D01*
X22582Y43249D02*
X23748D01*
X81333Y20583D02*
Y22916D01*
X80749Y23499D01*
X79583D01*
X79000Y22916D01*
Y20583D01*
X79583Y20000D01*
X80749D01*
X80166Y21166D02*
X81333Y20000D01*
X80749D02*
X81333Y20583D01*
X82499Y23499D02*
X84831D01*
Y22916D01*
X82499Y20583D01*
Y20000D01*
X157533Y25283D02*
Y27616D01*
X156949Y28199D01*
X155783D01*
X155200Y27616D01*
Y25283D01*
X155783Y24700D01*
X156949D01*
X156366Y25866D02*
X157533Y24700D01*
X156949D02*
X157533Y25283D01*
X161031Y28199D02*
X159865Y27616D01*
X158699Y26449D01*
Y25283D01*
X159282Y24700D01*
X160448D01*
X161031Y25283D01*
Y25866D01*
X160448Y26449D01*
X158699D01*
X155333Y64583D02*
Y66916D01*
X154749Y67499D01*
X153583D01*
X153000Y66916D01*
Y64583D01*
X153583Y64000D01*
X154749D01*
X154166Y65166D02*
X155333Y64000D01*
X154749D02*
X155333Y64583D01*
X158831Y67499D02*
X156499D01*
Y65749D01*
X157665Y66333D01*
X158248D01*
X158831Y65749D01*
Y64583D01*
X158248Y64000D01*
X157082D01*
X156499Y64583D01*
X43083Y90667D02*
X45416D01*
X45999Y91251D01*
Y92417D01*
X45416Y93000D01*
X43083D01*
X42500Y92417D01*
Y91251D01*
X43666Y91834D02*
X42500Y90667D01*
Y91251D02*
X43083Y90667D01*
X45416Y89501D02*
X45999Y88918D01*
Y87752D01*
X45416Y87169D01*
X44833D01*
X44249Y87752D01*
Y88335D01*
Y87752D01*
X43666Y87169D01*
X43083D01*
X42500Y87752D01*
Y88918D01*
X43083Y89501D01*
X9583Y92667D02*
X11916D01*
X12499Y93251D01*
Y94417D01*
X11916Y95000D01*
X9583D01*
X9000Y94417D01*
Y93251D01*
X10166Y93834D02*
X9000Y92667D01*
Y93251D02*
X9583Y92667D01*
X9000Y89169D02*
Y91501D01*
X11333Y89169D01*
X11916D01*
X12499Y89752D01*
Y90918D01*
X11916Y91501D01*
X64833Y138083D02*
Y140416D01*
X64249Y140999D01*
X63083D01*
X62500Y140416D01*
Y138083D01*
X63083Y137500D01*
X64249D01*
X63666Y138666D02*
X64833Y137500D01*
X64249D02*
X64833Y138083D01*
X65999Y137500D02*
X67165D01*
X66582D01*
Y140999D01*
X65999Y140416D01*
X21000Y24999D02*
Y21500D01*
X23333D01*
X24499Y24999D02*
Y21500D01*
X26248D01*
X26831Y22083D01*
Y24416D01*
X26248Y24999D01*
X24499D01*
X30330Y21500D02*
X27998D01*
X30330Y23833D01*
Y24416D01*
X29747Y24999D01*
X28581D01*
X27998Y24416D01*
X21000Y6499D02*
Y3000D01*
X23333D01*
X24499Y6499D02*
Y3000D01*
X26248D01*
X26831Y3583D01*
Y5916D01*
X26248Y6499D01*
X24499D01*
X27998Y3000D02*
X29164D01*
X28581D01*
Y6499D01*
X27998Y5916D01*
X159999Y17667D02*
Y18834D01*
Y18251D01*
X157083D01*
X156500Y18834D01*
Y19417D01*
X157083Y20000D01*
X156500Y14752D02*
X159999D01*
X158249Y16501D01*
Y14168D01*
X159833Y169499D02*
X157500D01*
Y167749D01*
X158666D01*
X157500D01*
Y166000D01*
X160999D02*
X162165D01*
X161582D01*
Y169499D01*
X160999Y168916D01*
X125500Y106499D02*
Y103000D01*
X127249D01*
X127833Y103583D01*
Y105916D01*
X127249Y106499D01*
X125500D01*
X130748Y103000D02*
Y106499D01*
X128999Y104749D01*
X131331D01*
X63916Y11167D02*
X64499Y11751D01*
Y12917D01*
X63916Y13500D01*
X61583D01*
X61000Y12917D01*
Y11751D01*
X61583Y11167D01*
X61000Y10001D02*
Y8835D01*
Y9418D01*
X64499D01*
X63916Y10001D01*
X64499Y4753D02*
Y7085D01*
X62749D01*
X63333Y5919D01*
Y5336D01*
X62749Y4753D01*
X61583D01*
X61000Y5336D01*
Y6502D01*
X61583Y7085D01*
X134733Y22916D02*
X134149Y23499D01*
X132983D01*
X132400Y22916D01*
Y20583D01*
X132983Y20000D01*
X134149D01*
X134733Y20583D01*
X135899Y20000D02*
X137065D01*
X136482D01*
Y23499D01*
X135899Y22916D01*
X138815D02*
X139398Y23499D01*
X140564D01*
X141147Y22916D01*
Y22333D01*
X140564Y21749D01*
X139981D01*
X140564D01*
X141147Y21166D01*
Y20583D01*
X140564Y20000D01*
X139398D01*
X138815Y20583D01*
X91333Y137530D02*
X90749Y138113D01*
X89583D01*
X89000Y137530D01*
Y135197D01*
X89583Y134614D01*
X90749D01*
X91333Y135197D01*
X92499Y134614D02*
X93665D01*
X93082D01*
Y138113D01*
X92499Y137530D01*
X95415Y134614D02*
X96581D01*
X95998D01*
Y138113D01*
X95415Y137530D01*
X152833Y78916D02*
X152249Y79499D01*
X151083D01*
X150500Y78916D01*
Y76583D01*
X151083Y76000D01*
X152249D01*
X152833Y76583D01*
X153999Y76000D02*
X155165D01*
X154582D01*
Y79499D01*
X153999Y78916D01*
X156915D02*
X157498Y79499D01*
X158664D01*
X159247Y78916D01*
Y76583D01*
X158664Y76000D01*
X157498D01*
X156915Y76583D01*
Y78916D01*
X152833Y72916D02*
X152249Y73499D01*
X151083D01*
X150500Y72916D01*
Y70583D01*
X151083Y70000D01*
X152249D01*
X152833Y70583D01*
X153999D02*
X154582Y70000D01*
X155748D01*
X156331Y70583D01*
Y72916D01*
X155748Y73499D01*
X154582D01*
X153999Y72916D01*
Y72333D01*
X154582Y71749D01*
X156331D01*
X152833Y83916D02*
X152249Y84499D01*
X151083D01*
X150500Y83916D01*
Y81583D01*
X151083Y81000D01*
X152249D01*
X152833Y81583D01*
X153999Y83916D02*
X154582Y84499D01*
X155748D01*
X156331Y83916D01*
Y83333D01*
X155748Y82749D01*
X156331Y82166D01*
Y81583D01*
X155748Y81000D01*
X154582D01*
X153999Y81583D01*
Y82166D01*
X154582Y82749D01*
X153999Y83333D01*
Y83916D01*
X154582Y82749D02*
X155748D01*
X78433Y169316D02*
X77849Y169899D01*
X76683D01*
X76100Y169316D01*
Y166983D01*
X76683Y166400D01*
X77849D01*
X78433Y166983D01*
X81931Y169899D02*
X80765Y169316D01*
X79599Y168149D01*
Y166983D01*
X80182Y166400D01*
X81348D01*
X81931Y166983D01*
Y167566D01*
X81348Y168149D01*
X79599D01*
X150000Y86000D02*
Y89499D01*
X151749D01*
X152333Y88916D01*
Y87749D01*
X151749Y87166D01*
X150000D01*
X153499Y89499D02*
Y86000D01*
X154665Y87166D01*
X155831Y86000D01*
Y89499D01*
X156998Y86000D02*
Y89499D01*
X158747D01*
X159330Y88916D01*
Y87749D01*
X158747Y87166D01*
X156998D01*
X158164D02*
X159330Y86000D01*
X162246Y89499D02*
X161080D01*
X160497Y88916D01*
Y86583D01*
X161080Y86000D01*
X162246D01*
X162829Y86583D01*
Y88916D01*
X162246Y89499D01*
X163996Y86000D02*
Y89499D01*
X166328Y86000D01*
Y89499D01*
X157000Y106749D02*
X159333D01*
X158166Y107916D02*
Y105583D01*
X162831Y108499D02*
X160499D01*
Y106749D01*
X161665Y107333D01*
X162248D01*
X162831Y106749D01*
Y105583D01*
X162248Y105000D01*
X161082D01*
X160499Y105583D01*
X163998Y108499D02*
Y106166D01*
X165164Y105000D01*
X166330Y106166D01*
Y108499D01*
X157000Y97249D02*
X159333D01*
X158166Y98416D02*
Y96083D01*
X162831Y98999D02*
X160499D01*
Y97249D01*
X161665Y97833D01*
X162248D01*
X162831Y97249D01*
Y96083D01*
X162248Y95500D01*
X161082D01*
X160499Y96083D01*
X163998Y98999D02*
Y96666D01*
X165164Y95500D01*
X166330Y96666D01*
Y98999D01*
X165416Y69167D02*
X165999Y69751D01*
Y70917D01*
X165416Y71500D01*
X163083D01*
X162500Y70917D01*
Y69751D01*
X163083Y69167D01*
X164249D01*
Y70334D01*
X162500Y68001D02*
X165999D01*
X162500Y65669D01*
X165999D01*
Y64502D02*
X162500D01*
Y62753D01*
X163083Y62170D01*
X165416D01*
X165999Y62753D01*
Y64502D01*
D47*
X29800Y120400D02*
Y122200D01*
X29900Y119900D02*
Y122800D01*
X30000Y119500D02*
Y123100D01*
X30100Y119200D02*
Y123400D01*
X30200Y118900D02*
Y123700D01*
X30300Y118700D02*
Y120300D01*
Y122300D02*
Y123900D01*
X30400Y118500D02*
Y119800D01*
Y122800D02*
Y124200D01*
X30500Y118300D02*
Y119500D01*
Y123100D02*
Y124300D01*
X30600Y118100D02*
Y119200D01*
Y123400D02*
Y124500D01*
X30700Y117900D02*
Y119000D01*
Y123600D02*
Y124700D01*
X30800Y117800D02*
Y118800D01*
Y123900D02*
Y124800D01*
X30900Y117600D02*
Y118600D01*
Y124100D02*
Y125000D01*
X31000Y117500D02*
Y118400D01*
Y124200D02*
Y125100D01*
X31100Y117400D02*
Y118200D01*
Y124400D02*
Y125300D01*
X31200Y117300D02*
Y118100D01*
Y124600D02*
Y125400D01*
X31300Y117100D02*
Y117900D01*
Y124700D02*
Y125500D01*
X31400Y117000D02*
Y117800D01*
Y124800D02*
Y125600D01*
X31500Y116900D02*
Y117700D01*
Y125000D02*
Y125700D01*
X31600Y116800D02*
Y117500D01*
Y123000D02*
Y123900D01*
Y125100D02*
Y125800D01*
X31700Y116700D02*
Y117400D01*
Y122700D02*
Y124100D01*
Y125200D02*
Y125900D01*
Y149900D02*
Y150400D01*
X31800Y116600D02*
Y117300D01*
Y122600D02*
Y124300D01*
Y125300D02*
Y126000D01*
Y149900D02*
Y150700D01*
Y167600D02*
Y168000D01*
X31900Y116500D02*
Y117200D01*
Y122500D02*
Y124400D01*
Y125400D02*
Y126100D01*
Y149900D02*
Y150800D01*
Y167600D02*
Y168300D01*
X32000Y116500D02*
Y117100D01*
Y122400D02*
Y124500D01*
Y125500D02*
Y126200D01*
Y140700D02*
Y141200D01*
Y150000D02*
Y150900D01*
Y167600D02*
Y168400D01*
X32100Y116400D02*
Y117000D01*
Y122300D02*
Y124500D01*
Y125600D02*
Y126300D01*
Y140400D02*
Y141400D01*
Y150000D02*
Y151000D01*
Y167600D02*
Y168500D01*
X32200Y116300D02*
Y116900D01*
Y122200D02*
Y124600D01*
Y125700D02*
Y126300D01*
Y140000D02*
Y141600D01*
Y149900D02*
Y151000D01*
Y157800D02*
Y158100D01*
Y167600D02*
Y168500D01*
X32300Y116200D02*
Y116800D01*
Y122200D02*
Y124600D01*
Y125800D02*
Y126400D01*
Y138400D02*
Y138700D01*
Y139400D02*
Y141800D01*
Y149900D02*
Y151000D01*
Y157800D02*
Y158300D01*
Y167600D02*
Y168500D01*
X32400Y116100D02*
Y116800D01*
Y122100D02*
Y124700D01*
Y125900D02*
Y126500D01*
Y138400D02*
Y141800D01*
Y149900D02*
Y150900D01*
Y157800D02*
Y158500D01*
Y159700D02*
Y160300D01*
Y167500D02*
Y168400D01*
X32500Y116100D02*
Y116700D01*
Y122100D02*
Y124700D01*
Y125900D02*
Y126500D01*
Y138400D02*
Y140500D01*
Y140700D02*
Y141800D01*
Y149900D02*
Y150800D01*
Y157800D02*
Y158600D01*
Y159700D02*
Y160500D01*
Y167500D02*
Y168300D01*
X32600Y116000D02*
Y116600D01*
Y122000D02*
Y124800D01*
Y126000D02*
Y126600D01*
Y138400D02*
Y140000D01*
Y140800D02*
Y141800D01*
Y149800D02*
Y150700D01*
Y157800D02*
Y158600D01*
Y159700D02*
Y160700D01*
Y167500D02*
Y168200D01*
X32700Y115900D02*
Y116500D01*
Y122000D02*
Y124800D01*
Y126100D02*
Y126700D01*
Y138500D02*
Y139400D01*
Y140800D02*
Y141700D01*
Y149800D02*
Y150600D01*
Y151300D02*
Y151500D01*
Y157800D02*
Y158700D01*
Y159700D02*
Y160700D01*
Y167400D02*
Y168200D01*
X32800Y115900D02*
Y116500D01*
Y122000D02*
Y124800D01*
Y126200D02*
Y126700D01*
Y138500D02*
Y139200D01*
Y140900D02*
Y141700D01*
Y149800D02*
Y150600D01*
Y151100D02*
Y151800D01*
Y157700D02*
Y158700D01*
Y159800D02*
Y160700D01*
Y167400D02*
Y168100D01*
X32900Y115800D02*
Y116400D01*
Y119200D02*
Y120000D01*
Y121900D02*
Y124800D01*
Y126200D02*
Y126800D01*
Y138600D02*
Y139200D01*
Y140900D02*
Y141600D01*
Y149700D02*
Y150500D01*
Y150900D02*
Y152000D01*
Y157700D02*
Y158700D01*
Y159800D02*
Y160700D01*
Y167300D02*
Y168000D01*
Y169200D02*
Y169600D01*
X33000Y115800D02*
Y116300D01*
Y118900D02*
Y120500D01*
Y121900D02*
Y124800D01*
Y126300D02*
Y126900D01*
Y138600D02*
Y139200D01*
Y140900D02*
Y141600D01*
Y149700D02*
Y150400D01*
Y150700D02*
Y152200D01*
Y157700D02*
Y158600D01*
Y159900D02*
Y160700D01*
Y161100D02*
Y161900D01*
Y167300D02*
Y168000D01*
Y168900D02*
Y169800D01*
X33100Y115700D02*
Y116300D01*
Y118700D02*
Y120300D01*
Y121900D02*
Y124700D01*
Y126300D02*
Y126900D01*
Y138600D02*
Y139300D01*
Y140900D02*
Y141600D01*
Y149700D02*
Y152200D01*
Y157600D02*
Y158500D01*
Y159900D02*
Y160700D01*
Y161100D02*
Y162200D01*
Y167200D02*
Y167900D01*
Y168600D02*
Y169800D01*
X33200Y115700D02*
Y116200D01*
Y118500D02*
Y119900D01*
Y121800D02*
Y124600D01*
Y126400D02*
Y127000D01*
Y138700D02*
Y139300D01*
Y140900D02*
Y141500D01*
Y149600D02*
Y152200D01*
Y157600D02*
Y158400D01*
Y159900D02*
Y160600D01*
Y161200D02*
Y162300D01*
Y167200D02*
Y167900D01*
Y168300D02*
Y169800D01*
Y172100D02*
Y172500D01*
X33300Y115600D02*
Y116200D01*
Y118400D02*
Y119700D01*
Y121800D02*
Y124500D01*
Y126500D02*
Y127000D01*
Y138700D02*
Y139300D01*
Y140900D02*
Y141500D01*
Y146600D02*
Y147100D01*
Y149600D02*
Y152200D01*
Y157600D02*
Y158400D01*
Y159900D02*
Y160600D01*
Y161300D02*
Y162400D01*
Y167100D02*
Y167800D01*
Y167900D02*
Y169600D01*
Y171900D02*
Y172800D01*
X33400Y115600D02*
Y116100D01*
Y118400D02*
Y119500D01*
Y121800D02*
Y124400D01*
Y126500D02*
Y127100D01*
Y138700D02*
Y139300D01*
Y139800D02*
Y140400D01*
Y140900D02*
Y141500D01*
Y146500D02*
Y147500D01*
Y149500D02*
Y152100D01*
Y157500D02*
Y158300D01*
Y159900D02*
Y160600D01*
Y161400D02*
Y162400D01*
Y167100D02*
Y169200D01*
Y171600D02*
Y172900D01*
X33500Y115500D02*
Y116100D01*
Y118300D02*
Y119400D01*
Y121700D02*
Y124300D01*
Y126600D02*
Y127100D01*
Y138700D02*
Y139300D01*
Y139400D02*
Y140500D01*
Y140900D02*
Y141500D01*
Y146500D02*
Y147700D01*
Y149500D02*
Y150700D01*
Y151000D02*
Y151900D01*
Y157500D02*
Y158200D01*
Y159900D02*
Y160600D01*
Y161500D02*
Y162500D01*
Y167000D02*
Y168900D01*
Y169900D02*
Y170300D01*
Y171200D02*
Y173100D01*
X33600Y115500D02*
Y116000D01*
Y118200D02*
Y119300D01*
Y121700D02*
Y124200D01*
Y126600D02*
Y127100D01*
Y138700D02*
Y140500D01*
Y140900D02*
Y141500D01*
Y146600D02*
Y147900D01*
Y149400D02*
Y150100D01*
Y150900D02*
Y151800D01*
Y157400D02*
Y158200D01*
Y159900D02*
Y160600D01*
Y161600D02*
Y162500D01*
Y166900D02*
Y168600D01*
Y169900D02*
Y173200D01*
X33700Y115400D02*
Y116000D01*
Y118200D02*
Y119300D01*
Y121700D02*
Y124200D01*
Y126700D02*
Y127200D01*
Y138700D02*
Y140500D01*
Y140900D02*
Y141500D01*
Y146600D02*
Y148000D01*
Y149400D02*
Y150000D01*
Y150900D02*
Y151700D01*
Y157400D02*
Y158100D01*
Y159900D02*
Y160500D01*
Y161800D02*
Y162500D01*
Y166900D02*
Y168600D01*
Y169900D02*
Y173300D01*
X33800Y115400D02*
Y115900D01*
Y118100D02*
Y119200D01*
Y121700D02*
Y124100D01*
Y126700D02*
Y127200D01*
Y138700D02*
Y140300D01*
Y140900D02*
Y141500D01*
Y146700D02*
Y148100D01*
Y149300D02*
Y150000D01*
Y150900D02*
Y151600D01*
Y157300D02*
Y158100D01*
Y159900D02*
Y160500D01*
Y161900D02*
Y162400D01*
Y166800D02*
Y167400D01*
Y167900D02*
Y168600D01*
Y170000D02*
Y171600D01*
Y172200D02*
Y173300D01*
X33900Y115400D02*
Y115900D01*
Y118100D02*
Y119100D01*
Y121700D02*
Y124100D01*
Y126700D02*
Y127300D01*
Y138700D02*
Y139300D01*
Y140900D02*
Y141500D01*
Y146800D02*
Y148100D01*
Y149300D02*
Y149900D01*
Y150800D02*
Y151500D01*
Y157300D02*
Y158000D01*
Y159900D02*
Y160500D01*
Y166700D02*
Y167300D01*
Y167900D02*
Y168600D01*
Y170000D02*
Y171100D01*
Y172200D02*
Y173300D01*
X34000Y115300D02*
Y115800D01*
Y118100D02*
Y119100D01*
Y121700D02*
Y124000D01*
Y126800D02*
Y127300D01*
Y138700D02*
Y139300D01*
Y140900D02*
Y141500D01*
Y146900D02*
Y148100D01*
Y149200D02*
Y149800D01*
Y150800D02*
Y151400D01*
Y157200D02*
Y157900D01*
Y159900D02*
Y160500D01*
Y166600D02*
Y167200D01*
Y167900D02*
Y168600D01*
Y170100D02*
Y170700D01*
Y172200D02*
Y173200D01*
X34100Y115300D02*
Y115800D01*
Y118000D02*
Y119100D01*
Y121600D02*
Y124000D01*
Y126800D02*
Y127300D01*
Y138800D02*
Y139300D01*
Y140900D02*
Y141500D01*
Y147000D02*
Y148100D01*
Y149100D02*
Y149700D01*
Y150700D02*
Y151400D01*
Y157200D02*
Y157900D01*
Y159900D02*
Y160500D01*
Y166500D02*
Y167100D01*
Y167900D02*
Y168600D01*
Y170100D02*
Y170700D01*
Y172200D02*
Y173100D01*
X34200Y115300D02*
Y115800D01*
Y118000D02*
Y119000D01*
Y121600D02*
Y124000D01*
Y126900D02*
Y127400D01*
Y138800D02*
Y139300D01*
Y140800D02*
Y141500D01*
Y147200D02*
Y148100D01*
Y149100D02*
Y149600D01*
Y150700D02*
Y151300D01*
Y151800D02*
Y152200D01*
Y157100D02*
Y157800D01*
Y159800D02*
Y160500D01*
Y166400D02*
Y167000D01*
Y167900D02*
Y168500D01*
Y169400D02*
Y169700D01*
Y170100D02*
Y170700D01*
Y172200D02*
Y173000D01*
X34300Y115200D02*
Y115700D01*
Y118000D02*
Y119000D01*
Y121600D02*
Y123900D01*
Y126900D02*
Y127400D01*
Y138800D02*
Y139300D01*
Y140800D02*
Y141500D01*
Y147300D02*
Y148100D01*
Y149000D02*
Y149500D01*
Y150600D02*
Y151200D01*
Y151600D02*
Y152500D01*
Y157100D02*
Y157800D01*
Y159800D02*
Y160500D01*
Y166400D02*
Y166900D01*
Y167900D02*
Y168500D01*
Y168900D02*
Y169900D01*
Y170200D02*
Y170700D01*
Y172200D02*
Y172900D01*
X34400Y115200D02*
Y115700D01*
Y118000D02*
Y119000D01*
Y121600D02*
Y123900D01*
Y126900D02*
Y127400D01*
Y138800D02*
Y139300D01*
Y140800D02*
Y141400D01*
Y147400D02*
Y148100D01*
Y149000D02*
Y149400D01*
Y150600D02*
Y151200D01*
Y151300D02*
Y152700D01*
Y157000D02*
Y157700D01*
Y159800D02*
Y160500D01*
Y166400D02*
Y166700D01*
Y167900D02*
Y169900D01*
Y170200D02*
Y170700D01*
Y172100D02*
Y172800D01*
X34500Y115200D02*
Y115700D01*
Y118000D02*
Y119000D01*
Y121600D02*
Y123900D01*
Y126900D02*
Y127400D01*
Y138800D02*
Y139300D01*
Y140800D02*
Y141400D01*
Y147600D02*
Y148100D01*
Y149000D02*
Y149300D01*
Y150600D02*
Y152800D01*
Y157000D02*
Y157700D01*
Y159800D02*
Y160500D01*
Y161500D02*
Y162300D01*
Y167900D02*
Y169900D01*
Y170200D02*
Y170700D01*
Y172100D02*
Y172800D01*
X34600Y115200D02*
Y115700D01*
Y118000D02*
Y119000D01*
Y121600D02*
Y123800D01*
Y127000D02*
Y127500D01*
Y138800D02*
Y139300D01*
Y140000D02*
Y140600D01*
Y140800D02*
Y141400D01*
Y150500D02*
Y152900D01*
Y156900D02*
Y157600D01*
Y159800D02*
Y160400D01*
Y161200D02*
Y162500D01*
Y167700D02*
Y169600D01*
Y170200D02*
Y170700D01*
Y172100D02*
Y172700D01*
X34700Y115100D02*
Y115600D01*
Y118000D02*
Y119000D01*
Y121600D02*
Y123800D01*
Y127000D02*
Y127500D01*
Y138800D02*
Y141400D01*
Y150000D02*
Y152900D01*
Y156800D02*
Y157500D01*
Y159800D02*
Y160400D01*
Y160800D02*
Y162600D01*
Y167400D02*
Y169100D01*
Y170200D02*
Y170800D01*
Y172100D02*
Y172600D01*
X34800Y115100D02*
Y115600D01*
Y118000D02*
Y119000D01*
Y121600D02*
Y123800D01*
Y127000D02*
Y127500D01*
Y138800D02*
Y141400D01*
Y149300D02*
Y152900D01*
Y156800D02*
Y157500D01*
Y159800D02*
Y162600D01*
Y167000D02*
Y168700D01*
Y170300D02*
Y170800D01*
Y172100D02*
Y172600D01*
X34900Y115100D02*
Y115600D01*
Y118000D02*
Y119000D01*
Y121600D02*
Y123700D01*
Y127000D02*
Y127500D01*
Y138800D02*
Y141400D01*
Y148800D02*
Y151100D01*
Y151800D02*
Y152800D01*
Y156700D02*
Y157500D01*
Y159800D02*
Y162600D01*
Y166500D02*
Y168400D01*
Y170300D02*
Y170800D01*
Y171900D02*
Y172600D01*
X35000Y115100D02*
Y115600D01*
Y118000D02*
Y119000D01*
Y121500D02*
Y123700D01*
Y127100D02*
Y127500D01*
Y138800D02*
Y141300D01*
Y148800D02*
Y150800D01*
Y151800D02*
Y152700D01*
Y156600D02*
Y157600D01*
Y159300D02*
Y162400D01*
Y166000D02*
Y168400D01*
Y170300D02*
Y170800D01*
Y171300D02*
Y172700D01*
X35100Y115100D02*
Y115500D01*
Y118000D02*
Y119000D01*
Y121500D02*
Y123700D01*
Y127100D02*
Y127600D01*
Y138800D02*
Y139600D01*
Y140700D02*
Y141300D01*
Y148900D02*
Y150900D01*
Y151800D02*
Y152600D01*
Y156600D02*
Y157700D01*
Y158800D02*
Y161900D01*
Y165300D02*
Y168300D01*
Y170300D02*
Y172700D01*
X35200Y115100D02*
Y115500D01*
Y118100D02*
Y119100D01*
Y121500D02*
Y123700D01*
Y127100D02*
Y127600D01*
Y138800D02*
Y139300D01*
Y140700D02*
Y141200D01*
Y149100D02*
Y149800D01*
Y150100D02*
Y151000D01*
Y151800D02*
Y152600D01*
Y156500D02*
Y157700D01*
Y158100D02*
Y161300D01*
Y165300D02*
Y167200D01*
Y167600D02*
Y169100D01*
Y170300D02*
Y172700D01*
X35300Y115000D02*
Y115500D01*
Y118200D02*
Y119100D01*
Y121500D02*
Y123700D01*
Y127100D02*
Y127600D01*
Y138800D02*
Y139200D01*
Y140800D02*
Y141200D01*
Y147900D02*
Y148200D01*
Y150200D02*
Y151000D01*
Y151800D02*
Y152500D01*
Y153200D02*
Y153600D01*
Y156400D02*
Y157800D01*
Y158000D02*
Y160800D01*
Y165400D02*
Y166800D01*
Y167600D02*
Y169300D01*
Y170300D02*
Y172100D01*
X35400Y115000D02*
Y115500D01*
Y118200D02*
Y119200D01*
Y121500D02*
Y123700D01*
Y127100D02*
Y127600D01*
Y138800D02*
Y139200D01*
Y140800D02*
Y141100D01*
Y147800D02*
Y148200D01*
Y150200D02*
Y151000D01*
Y151800D02*
Y152500D01*
Y152700D02*
Y153800D01*
Y156300D02*
Y157100D01*
Y157200D02*
Y157800D01*
Y158000D02*
Y160400D01*
Y165500D02*
Y166500D01*
Y167600D02*
Y168200D01*
Y168500D02*
Y169500D01*
Y170300D02*
Y171100D01*
X35500Y115000D02*
Y115500D01*
Y118300D02*
Y119300D01*
Y121500D02*
Y123600D01*
Y127100D02*
Y127600D01*
Y138800D02*
Y139300D01*
Y147800D02*
Y148100D01*
Y150200D02*
Y151000D01*
Y151800D02*
Y154000D01*
Y156300D02*
Y157000D01*
Y157200D02*
Y157800D01*
Y158100D02*
Y160700D01*
Y165700D02*
Y166300D01*
Y167500D02*
Y168200D01*
Y168500D02*
Y169600D01*
Y170400D02*
Y170800D01*
X35600Y115000D02*
Y115500D01*
Y118400D02*
Y119400D01*
Y121500D02*
Y123600D01*
Y127100D02*
Y127600D01*
Y138700D02*
Y139300D01*
Y142200D02*
Y142600D01*
Y147700D02*
Y148100D01*
Y150300D02*
Y151000D01*
Y151600D02*
Y154000D01*
Y156200D02*
Y156900D01*
Y157200D02*
Y157800D01*
Y158300D02*
Y159100D01*
Y159700D02*
Y160900D01*
Y167500D02*
Y168100D01*
Y168600D02*
Y169600D01*
Y170400D02*
Y170800D01*
X35700Y115000D02*
Y115500D01*
Y118500D02*
Y119500D01*
Y121500D02*
Y123600D01*
Y127100D02*
Y127600D01*
Y130700D02*
Y135100D01*
Y138600D02*
Y139400D01*
Y141700D02*
Y142800D01*
Y147600D02*
Y148000D01*
Y150300D02*
Y154000D01*
Y156100D02*
Y156800D01*
Y157200D02*
Y157800D01*
Y159600D02*
Y161000D01*
Y167400D02*
Y168100D01*
Y168700D02*
Y169600D01*
Y170400D02*
Y170700D01*
X35800Y115000D02*
Y115500D01*
Y118700D02*
Y119600D01*
Y121500D02*
Y123600D01*
Y127100D02*
Y127600D01*
Y130700D02*
Y135100D01*
Y138500D02*
Y139400D01*
Y140900D02*
Y142900D01*
Y147500D02*
Y148000D01*
Y150300D02*
Y154000D01*
Y156000D02*
Y156700D01*
Y157200D02*
Y157800D01*
Y159600D02*
Y161000D01*
Y167400D02*
Y168000D01*
Y168800D02*
Y169600D01*
Y170500D02*
Y170700D01*
X35900Y115000D02*
Y115500D01*
Y118800D02*
Y119800D01*
Y121500D02*
Y123600D01*
Y127100D02*
Y127600D01*
Y130700D02*
Y135100D01*
Y138400D02*
Y139400D01*
Y139900D02*
Y143100D01*
Y147500D02*
Y147900D01*
Y149900D02*
Y153600D01*
Y155900D02*
Y156600D01*
Y157200D02*
Y157800D01*
Y159600D02*
Y160200D01*
Y160400D02*
Y161000D01*
Y167300D02*
Y168000D01*
Y168900D02*
Y169600D01*
X36000Y115000D02*
Y115500D01*
Y119100D02*
Y120000D01*
Y121500D02*
Y123600D01*
Y127100D02*
Y127600D01*
Y130700D02*
Y135100D01*
Y138300D02*
Y143200D01*
Y147400D02*
Y147900D01*
Y149200D02*
Y152300D01*
Y155800D02*
Y156500D01*
Y157200D02*
Y157800D01*
Y159600D02*
Y160200D01*
Y160400D02*
Y161000D01*
Y167200D02*
Y167900D01*
Y169000D02*
Y169600D01*
X36100Y115000D02*
Y115500D01*
Y119300D02*
Y120200D01*
Y121500D02*
Y123600D01*
Y127100D02*
Y127600D01*
Y130700D02*
Y135100D01*
Y138200D02*
Y143300D01*
Y147300D02*
Y147900D01*
Y148200D02*
Y151300D01*
Y151700D02*
Y152300D01*
Y155700D02*
Y156400D01*
Y157300D02*
Y157800D01*
Y159500D02*
Y160200D01*
Y160400D02*
Y161000D01*
Y167200D02*
Y167900D01*
Y169200D02*
Y169500D01*
X36200Y115000D02*
Y115500D01*
Y119500D02*
Y120400D01*
Y121500D02*
Y123600D01*
Y127100D02*
Y127600D01*
Y130700D02*
Y135100D01*
Y138100D02*
Y141100D01*
Y142200D02*
Y143400D01*
Y147200D02*
Y147800D01*
Y148200D02*
Y151000D01*
Y151700D02*
Y152300D01*
Y155600D02*
Y156300D01*
Y157300D02*
Y157800D01*
Y159500D02*
Y160200D01*
Y160400D02*
Y161000D01*
Y167100D02*
Y167800D01*
Y170300D02*
Y171100D01*
X36300Y115000D02*
Y115500D01*
Y119200D02*
Y120100D01*
Y121500D02*
Y123600D01*
Y127100D02*
Y127600D01*
Y138000D02*
Y139800D01*
Y140500D02*
Y141100D01*
Y142300D02*
Y143500D01*
Y147200D02*
Y147800D01*
Y148200D02*
Y151000D01*
Y151700D02*
Y152200D01*
Y155600D02*
Y156200D01*
Y157300D02*
Y157800D01*
Y159500D02*
Y160100D01*
Y160400D02*
Y161000D01*
Y167000D02*
Y167700D01*
Y170000D02*
Y171300D01*
X36400Y115000D02*
Y115500D01*
Y119000D02*
Y120000D01*
Y121500D02*
Y123600D01*
Y127100D02*
Y127600D01*
Y137900D02*
Y138700D01*
Y139100D02*
Y139600D01*
Y140400D02*
Y141200D01*
Y142400D02*
Y143500D01*
Y147100D02*
Y147700D01*
Y148200D02*
Y149800D01*
Y150400D02*
Y151000D01*
Y151700D02*
Y152200D01*
Y155500D02*
Y156000D01*
Y157300D02*
Y157800D01*
Y159500D02*
Y160100D01*
Y160400D02*
Y161000D01*
Y166900D02*
Y167600D01*
Y169600D02*
Y171400D01*
X36500Y115000D02*
Y115500D01*
Y118800D02*
Y119800D01*
Y121500D02*
Y123600D01*
Y127100D02*
Y127600D01*
Y137800D02*
Y138600D01*
Y139100D02*
Y139700D01*
Y140400D02*
Y141200D01*
Y142400D02*
Y143500D01*
Y147000D02*
Y147700D01*
Y148400D02*
Y149300D01*
Y150400D02*
Y151000D01*
Y151700D02*
Y152200D01*
Y155400D02*
Y155900D01*
Y157300D02*
Y157800D01*
Y159400D02*
Y160100D01*
Y160400D02*
Y161000D01*
Y166800D02*
Y167600D01*
Y169100D02*
Y171500D01*
X36600Y115000D02*
Y115500D01*
Y118600D02*
Y119700D01*
Y121500D02*
Y123600D01*
Y127100D02*
Y127600D01*
Y137600D02*
Y138400D01*
Y139000D02*
Y139800D01*
Y140400D02*
Y141300D01*
Y142400D02*
Y143500D01*
Y146900D02*
Y147600D01*
Y150400D02*
Y151000D01*
Y151700D02*
Y152200D01*
Y155400D02*
Y155700D01*
Y157200D02*
Y157800D01*
Y159400D02*
Y160000D01*
Y160400D02*
Y160900D01*
Y166800D02*
Y167500D01*
Y167800D02*
Y171600D01*
X36700Y115000D02*
Y115500D01*
Y118400D02*
Y119600D01*
Y121500D02*
Y123600D01*
Y127100D02*
Y127600D01*
Y137500D02*
Y138300D01*
Y138900D02*
Y139800D01*
Y140300D02*
Y141300D01*
Y142400D02*
Y143400D01*
Y146800D02*
Y147600D01*
Y150400D02*
Y151000D01*
Y151700D02*
Y152300D01*
Y157200D02*
Y157800D01*
Y159300D02*
Y160000D01*
Y160400D02*
Y160900D01*
Y166700D02*
Y167400D01*
Y167800D02*
Y169800D01*
Y170500D02*
Y171700D01*
X36800Y115000D02*
Y115500D01*
Y118300D02*
Y119500D01*
Y121500D02*
Y123500D01*
Y127100D02*
Y127600D01*
Y137300D02*
Y138100D01*
Y138900D02*
Y139800D01*
Y140300D02*
Y141300D01*
Y142400D02*
Y143300D01*
Y146800D02*
Y147500D01*
Y150400D02*
Y152400D01*
Y157200D02*
Y157800D01*
Y159300D02*
Y160000D01*
Y160400D02*
Y160900D01*
Y166600D02*
Y167300D01*
Y167800D02*
Y169200D01*
Y170600D02*
Y171700D01*
X36900Y115100D02*
Y115500D01*
Y118200D02*
Y119400D01*
Y121500D02*
Y123500D01*
Y127100D02*
Y127600D01*
Y137200D02*
Y137900D01*
Y138800D02*
Y139700D01*
Y140200D02*
Y141200D01*
Y142400D02*
Y143300D01*
Y146700D02*
Y147500D01*
Y150400D02*
Y152400D01*
Y157200D02*
Y157700D01*
Y159300D02*
Y159900D01*
Y160400D02*
Y160900D01*
Y166400D02*
Y167100D01*
Y167900D02*
Y168600D01*
Y170600D02*
Y171700D01*
X37000Y115100D02*
Y115600D01*
Y118100D02*
Y119400D01*
Y121500D02*
Y123500D01*
Y127100D02*
Y127600D01*
Y137000D02*
Y137700D01*
Y138700D02*
Y139500D01*
Y140200D02*
Y141100D01*
Y142400D02*
Y143200D01*
Y146600D02*
Y147400D01*
Y149900D02*
Y152400D01*
Y157200D02*
Y157700D01*
Y159200D02*
Y159900D01*
Y160400D02*
Y160900D01*
Y166300D02*
Y167000D01*
Y167900D02*
Y168600D01*
Y170600D02*
Y171600D01*
X37100Y115100D02*
Y115600D01*
Y118000D02*
Y119300D01*
Y121500D02*
Y123500D01*
Y127100D02*
Y127500D01*
Y136800D02*
Y137500D01*
Y138600D02*
Y139400D01*
Y140100D02*
Y141000D01*
Y142400D02*
Y143200D01*
Y146400D02*
Y147300D01*
Y149200D02*
Y152200D01*
Y157200D02*
Y157700D01*
Y159200D02*
Y159900D01*
Y160400D02*
Y160900D01*
Y166200D02*
Y166900D01*
Y168000D02*
Y168600D01*
Y170700D02*
Y171500D01*
X37200Y115100D02*
Y115600D01*
Y118000D02*
Y119300D01*
Y121400D02*
Y123500D01*
Y127000D02*
Y127500D01*
Y136800D02*
Y137200D01*
Y138400D02*
Y139200D01*
Y140000D02*
Y140900D01*
Y142400D02*
Y143200D01*
Y146200D02*
Y147300D01*
Y148800D02*
Y151500D01*
Y157200D02*
Y157700D01*
Y159100D02*
Y159800D01*
Y160400D02*
Y160900D01*
Y166100D02*
Y166700D01*
Y168000D02*
Y168600D01*
Y170700D02*
Y171500D01*
X37300Y115100D02*
Y115600D01*
Y117900D02*
Y119200D01*
Y121400D02*
Y123500D01*
Y127000D02*
Y127500D01*
Y138300D02*
Y139100D01*
Y139900D02*
Y140800D01*
Y142400D02*
Y143100D01*
Y146100D02*
Y147200D01*
Y148800D02*
Y151000D01*
Y157200D02*
Y157700D01*
Y159100D02*
Y159800D01*
Y160400D02*
Y160900D01*
Y163300D02*
Y163500D01*
Y166000D02*
Y166500D01*
Y168000D02*
Y168600D01*
Y170700D02*
Y171500D01*
X37400Y115100D02*
Y115600D01*
Y117900D02*
Y119200D01*
Y121400D02*
Y123500D01*
Y127000D02*
Y127500D01*
Y138200D02*
Y139000D01*
Y139800D02*
Y140700D01*
Y142300D02*
Y143100D01*
Y146100D02*
Y147200D01*
Y148900D02*
Y151000D01*
Y157200D02*
Y157700D01*
Y159000D02*
Y159700D01*
Y160400D02*
Y160900D01*
Y163300D02*
Y163500D01*
Y166000D02*
Y166200D01*
Y168000D02*
Y168600D01*
Y170700D02*
Y171500D01*
X37500Y115200D02*
Y115700D01*
Y117800D02*
Y119200D01*
Y121400D02*
Y123500D01*
Y127000D02*
Y127500D01*
Y138100D02*
Y138900D01*
Y139700D02*
Y140600D01*
Y142300D02*
Y143100D01*
Y146100D02*
Y147200D01*
Y149000D02*
Y149900D01*
Y150400D02*
Y151000D01*
Y157200D02*
Y157700D01*
Y159000D02*
Y159700D01*
Y160400D02*
Y160900D01*
Y163300D02*
Y163500D01*
Y168100D02*
Y168600D01*
Y170700D02*
Y171400D01*
X37600Y115200D02*
Y115700D01*
Y117800D02*
Y119200D01*
Y121400D02*
Y123500D01*
Y126900D02*
Y127400D01*
Y137900D02*
Y138700D01*
Y139600D02*
Y140500D01*
Y142300D02*
Y143000D01*
Y146100D02*
Y147100D01*
Y149300D02*
Y149500D01*
Y150400D02*
Y151000D01*
Y157200D02*
Y157700D01*
Y158900D02*
Y159600D01*
Y160400D02*
Y160900D01*
Y163300D02*
Y163500D01*
Y168100D02*
Y168600D01*
Y169500D02*
Y170400D01*
Y170700D02*
Y171400D01*
X37700Y115200D02*
Y115700D01*
Y117800D02*
Y119200D01*
Y121400D02*
Y123500D01*
Y126900D02*
Y127400D01*
Y137700D02*
Y138600D01*
Y139500D02*
Y140400D01*
Y142200D02*
Y143000D01*
Y146100D02*
Y147100D01*
Y150400D02*
Y151000D01*
Y157200D02*
Y157700D01*
Y158800D02*
Y159500D01*
Y160400D02*
Y160900D01*
Y163200D02*
Y163500D01*
Y168100D02*
Y168600D01*
Y169100D02*
Y170400D01*
Y170700D02*
Y171400D01*
X37800Y115200D02*
Y115700D01*
Y117800D02*
Y119200D01*
Y121300D02*
Y123500D01*
Y126900D02*
Y127400D01*
Y137600D02*
Y138400D01*
Y139400D02*
Y140300D01*
Y142200D02*
Y143000D01*
Y146200D02*
Y147000D01*
Y150400D02*
Y151000D01*
Y157200D02*
Y157700D01*
Y158800D02*
Y159500D01*
Y160400D02*
Y160900D01*
Y163200D02*
Y163600D01*
Y168100D02*
Y170400D01*
Y170700D02*
Y171400D01*
X37900Y115300D02*
Y115800D01*
Y117800D02*
Y119200D01*
Y121300D02*
Y123500D01*
Y126800D02*
Y127300D01*
Y137400D02*
Y138100D01*
Y139300D02*
Y140200D01*
Y142200D02*
Y142900D01*
Y146200D02*
Y147000D01*
Y150400D02*
Y151000D01*
Y157100D02*
Y157700D01*
Y158700D02*
Y159400D01*
Y160400D02*
Y160900D01*
Y163200D02*
Y163600D01*
Y168100D02*
Y170300D01*
Y170700D02*
Y171400D01*
X38000Y115300D02*
Y115800D01*
Y117800D02*
Y119200D01*
Y121300D02*
Y123500D01*
Y126800D02*
Y127300D01*
Y137400D02*
Y137800D01*
Y139200D02*
Y140100D01*
Y142100D02*
Y142900D01*
Y146200D02*
Y146900D01*
Y150400D02*
Y151000D01*
Y157100D02*
Y157700D01*
Y158600D02*
Y159300D01*
Y160400D02*
Y160900D01*
Y163200D02*
Y163600D01*
Y168100D02*
Y169900D01*
Y170700D02*
Y171400D01*
X38100Y115300D02*
Y115800D01*
Y117800D02*
Y119300D01*
Y121300D02*
Y123400D01*
Y126800D02*
Y127300D01*
Y139100D02*
Y140000D01*
Y142100D02*
Y142900D01*
Y146300D02*
Y146900D01*
Y150400D02*
Y151000D01*
Y157100D02*
Y157700D01*
Y158500D02*
Y159300D01*
Y160400D02*
Y160900D01*
Y163100D02*
Y163600D01*
Y168100D02*
Y168600D01*
Y170700D02*
Y171400D01*
X38200Y115400D02*
Y115900D01*
Y117800D02*
Y119300D01*
Y121200D02*
Y123400D01*
Y126700D02*
Y127200D01*
Y139000D02*
Y139900D01*
Y142100D02*
Y142800D01*
Y146300D02*
Y146900D01*
Y150400D02*
Y151100D01*
Y157100D02*
Y157700D01*
Y158500D02*
Y159200D01*
Y160400D02*
Y160900D01*
Y163100D02*
Y163600D01*
Y168100D02*
Y168600D01*
Y170700D02*
Y171400D01*
X38300Y115400D02*
Y115900D01*
Y117900D02*
Y119400D01*
Y121200D02*
Y123400D01*
Y126700D02*
Y127200D01*
Y138900D02*
Y139800D01*
Y142000D02*
Y142800D01*
Y146400D02*
Y146900D01*
Y150400D02*
Y151100D01*
Y157000D02*
Y157700D01*
Y158400D02*
Y159100D01*
Y160400D02*
Y161000D01*
Y163000D02*
Y163600D01*
Y168100D02*
Y168600D01*
Y170700D02*
Y171400D01*
X38400Y115400D02*
Y116000D01*
Y117900D02*
Y119400D01*
Y121200D02*
Y123400D01*
Y126600D02*
Y127200D01*
Y138700D02*
Y139700D01*
Y142000D02*
Y142800D01*
Y146500D02*
Y146800D01*
Y150400D02*
Y151100D01*
Y157000D02*
Y157700D01*
Y158300D02*
Y159000D01*
Y160500D02*
Y161000D01*
Y163000D02*
Y163700D01*
Y168100D02*
Y168600D01*
Y170700D02*
Y171400D01*
X38500Y115500D02*
Y116000D01*
Y118000D02*
Y119500D01*
Y121100D02*
Y123400D01*
Y126600D02*
Y127100D01*
Y138600D02*
Y139500D01*
Y141900D02*
Y142700D01*
Y146600D02*
Y146800D01*
Y150400D02*
Y151100D01*
Y157000D02*
Y157700D01*
Y158200D02*
Y158900D01*
Y160500D02*
Y161100D01*
Y162900D02*
Y163700D01*
Y168100D02*
Y168600D01*
Y170700D02*
Y171400D01*
X38600Y115500D02*
Y116100D01*
Y118000D02*
Y119500D01*
Y121100D02*
Y123300D01*
Y126600D02*
Y127100D01*
Y138500D02*
Y139400D01*
Y141900D02*
Y142700D01*
Y150400D02*
Y151100D01*
Y156900D02*
Y157700D01*
Y158100D02*
Y158800D01*
Y160500D02*
Y161300D01*
Y162800D02*
Y163800D01*
Y168100D02*
Y168600D01*
Y170700D02*
Y171400D01*
X38700Y115600D02*
Y116100D01*
Y118100D02*
Y119600D01*
Y121000D02*
Y123300D01*
Y126500D02*
Y127000D01*
Y138300D02*
Y139300D01*
Y141800D02*
Y142700D01*
Y150400D02*
Y151100D01*
Y156900D02*
Y157700D01*
Y158000D02*
Y158600D01*
Y160500D02*
Y161500D01*
Y162400D02*
Y163800D01*
Y168100D02*
Y168600D01*
Y170700D02*
Y171400D01*
X38800Y115600D02*
Y116200D01*
Y118200D02*
Y119700D01*
Y120900D02*
Y123300D01*
Y126400D02*
Y127000D01*
Y138200D02*
Y139100D01*
Y141700D02*
Y142600D01*
Y150300D02*
Y151100D01*
Y156900D02*
Y157700D01*
Y157900D02*
Y158500D01*
Y160600D02*
Y163800D01*
Y168100D02*
Y168600D01*
Y170700D02*
Y171400D01*
X38900Y115700D02*
Y116200D01*
Y118200D02*
Y119900D01*
Y120900D02*
Y123200D01*
Y126400D02*
Y126900D01*
Y138100D02*
Y139000D01*
Y141700D02*
Y142600D01*
Y150300D02*
Y151100D01*
Y156900D02*
Y157600D01*
Y157800D02*
Y158300D01*
Y160600D02*
Y163800D01*
Y168100D02*
Y168600D01*
Y169900D02*
Y170200D01*
Y170700D02*
Y171400D01*
X39000Y115700D02*
Y116300D01*
Y118300D02*
Y120100D01*
Y120800D02*
Y123200D01*
Y126300D02*
Y126900D01*
Y137900D02*
Y138800D01*
Y140000D02*
Y140300D01*
Y141600D02*
Y142500D01*
Y150300D02*
Y151100D01*
Y156900D02*
Y157600D01*
Y157800D02*
Y158000D01*
Y160700D02*
Y163700D01*
Y168100D02*
Y168600D01*
Y169500D02*
Y170400D01*
Y170600D02*
Y171400D01*
X39100Y115800D02*
Y116300D01*
Y118100D02*
Y118200D01*
Y118400D02*
Y120500D01*
Y120700D02*
Y123100D01*
Y126300D02*
Y126800D01*
Y137800D02*
Y138700D01*
Y140000D02*
Y140600D01*
Y141400D02*
Y142500D01*
Y150300D02*
Y151100D01*
Y157000D02*
Y157600D01*
Y160800D02*
Y163500D01*
Y168100D02*
Y171400D01*
X39200Y115800D02*
Y116400D01*
Y118500D02*
Y120300D01*
Y120600D02*
Y123100D01*
Y126200D02*
Y126800D01*
Y137600D02*
Y138500D01*
Y140100D02*
Y140800D01*
Y141300D02*
Y142400D01*
Y149300D02*
Y149600D01*
Y150200D02*
Y151000D01*
Y157000D02*
Y157600D01*
Y160900D02*
Y163300D01*
Y168100D02*
Y171400D01*
X39300Y115900D02*
Y116500D01*
Y118200D02*
Y118300D01*
Y118700D02*
Y120100D01*
Y120500D02*
Y123000D01*
Y126100D02*
Y126700D01*
Y137400D02*
Y138300D01*
Y140200D02*
Y142400D01*
Y149300D02*
Y151000D01*
Y157000D02*
Y157600D01*
Y161100D02*
Y163000D01*
Y168100D02*
Y171400D01*
X39400Y116000D02*
Y116500D01*
Y118300D02*
Y118500D01*
Y118900D02*
Y119800D01*
Y120300D02*
Y123000D01*
Y126100D02*
Y126700D01*
Y137300D02*
Y138100D01*
Y140300D02*
Y142300D01*
Y149300D02*
Y151000D01*
Y157100D02*
Y157600D01*
Y161600D02*
Y162500D01*
Y168100D02*
Y169600D01*
Y170300D02*
Y171400D01*
X39500Y116000D02*
Y116600D01*
Y118300D02*
Y118700D01*
Y120100D02*
Y122900D01*
Y126000D02*
Y126600D01*
Y137300D02*
Y137800D01*
Y140400D02*
Y142200D01*
Y149400D02*
Y151000D01*
Y157100D02*
Y157500D01*
Y168100D02*
Y168700D01*
Y170400D02*
Y171400D01*
X39600Y116100D02*
Y116700D01*
Y118400D02*
Y118900D01*
Y119700D02*
Y122800D01*
Y125900D02*
Y126500D01*
Y140500D02*
Y142100D01*
Y149600D02*
Y151000D01*
Y168100D02*
Y168600D01*
Y170400D02*
Y171300D01*
X39700Y116200D02*
Y116800D01*
Y118500D02*
Y122700D01*
Y125800D02*
Y126500D01*
Y140600D02*
Y142000D01*
Y149700D02*
Y150900D01*
Y168100D02*
Y168600D01*
Y170400D02*
Y171300D01*
X39800Y116200D02*
Y116900D01*
Y118600D02*
Y122600D01*
Y125800D02*
Y126400D01*
Y140600D02*
Y141900D01*
Y149800D02*
Y150900D01*
Y168100D02*
Y168500D01*
Y170500D02*
Y171300D01*
X39900Y116300D02*
Y116900D01*
Y118700D02*
Y122500D01*
Y125700D02*
Y126300D01*
Y140700D02*
Y141800D01*
Y149900D02*
Y150800D01*
Y168100D02*
Y168500D01*
Y170500D02*
Y171300D01*
X40000Y116400D02*
Y117000D01*
Y118800D02*
Y122300D01*
Y125600D02*
Y126200D01*
Y140700D02*
Y141700D01*
Y149900D02*
Y150700D01*
Y168200D02*
Y168400D01*
Y170500D02*
Y171200D01*
X40100Y116500D02*
Y117100D01*
Y118900D02*
Y122200D01*
Y125500D02*
Y126200D01*
Y140700D02*
Y141500D01*
Y150000D02*
Y150600D01*
Y170600D02*
Y171200D01*
X40200Y116600D02*
Y117200D01*
Y119100D02*
Y121900D01*
Y125400D02*
Y126100D01*
Y140800D02*
Y141300D01*
Y150000D02*
Y150500D01*
Y170600D02*
Y171100D01*
X40300Y116600D02*
Y117300D01*
Y119300D02*
Y121700D01*
Y125300D02*
Y126000D01*
Y150100D02*
Y150400D01*
Y170600D02*
Y171000D01*
X40400Y116700D02*
Y117400D01*
Y119500D02*
Y121400D01*
Y125200D02*
Y125900D01*
X40500Y116800D02*
Y117600D01*
Y119900D02*
Y120900D01*
Y125100D02*
Y125800D01*
X40600Y116900D02*
Y117700D01*
Y124900D02*
Y125700D01*
X40700Y117000D02*
Y117800D01*
Y124800D02*
Y125600D01*
X40800Y117200D02*
Y117900D01*
Y124700D02*
Y125500D01*
X40900Y117300D02*
Y118100D01*
Y124500D02*
Y125300D01*
X41000Y117400D02*
Y118300D01*
Y124400D02*
Y125200D01*
X41100Y117500D02*
Y118400D01*
Y124200D02*
Y125100D01*
X41200Y117700D02*
Y118600D01*
Y124000D02*
Y125000D01*
X41300Y117800D02*
Y118800D01*
Y123800D02*
Y124800D01*
X41400Y118000D02*
Y119000D01*
Y123600D02*
Y124600D01*
X41500Y118100D02*
Y119300D01*
Y123400D02*
Y124500D01*
X41600Y118300D02*
Y119600D01*
Y123100D02*
Y124300D01*
X41700Y118500D02*
Y119900D01*
Y122700D02*
Y124100D01*
X41800Y118700D02*
Y120400D01*
Y122200D02*
Y123900D01*
X41900Y119000D02*
Y123700D01*
X42000Y119200D02*
Y123400D01*
X42100Y119600D02*
Y123100D01*
X42200Y119900D02*
Y122700D01*
X42300Y120500D02*
Y122100D01*
D48*
X133777Y104203D02*
D03*
D49*
X126374Y167000D02*
D03*
M02*
