%FSLAX25Y25*%
%MOIN*%
G70*
G01*
G75*
G04 Layer_Color=8421504*
%ADD10C,0.02000*%
%ADD11C,0.03200*%
%ADD12C,0.03200*%
%ADD13R,0.03000X0.03500*%
%ADD14R,0.03500X0.03000*%
%ADD15R,0.02362X0.04299*%
%ADD16O,0.02756X0.09843*%
%ADD17O,0.09843X0.02756*%
%ADD18R,0.08661X0.04134*%
%ADD19R,0.04331X0.03937*%
%ADD20R,0.04299X0.02362*%
%ADD21R,0.04921X0.07874*%
%ADD22R,0.07087X0.12992*%
%ADD23R,0.11811X0.04213*%
%ADD24R,0.37008X0.27559*%
%ADD25R,0.09449X0.10236*%
%ADD26C,0.01000*%
%ADD27C,0.03000*%
%ADD28C,0.02500*%
%ADD29C,0.04000*%
%ADD30C,0.07000*%
%ADD31C,0.04200*%
%ADD32C,0.02800*%
%ADD33C,0.06000*%
%ADD34R,0.06000X0.06000*%
%ADD35C,0.02500*%
%ADD36R,0.10236X0.09449*%
%ADD37R,0.05118X0.03150*%
%ADD38R,0.06693X0.05906*%
%ADD39C,0.04000*%
%ADD40R,0.02362X0.01969*%
%ADD41C,0.00800*%
%ADD42C,0.01500*%
%ADD43C,0.00500*%
%ADD44C,0.01600*%
%ADD45C,0.00700*%
%ADD46C,0.00600*%
%ADD47C,0.00100*%
%ADD48R,0.01181X0.08412*%
%ADD49R,0.01870X0.17323*%
%ADD50C,0.00787*%
%ADD51R,0.17323X0.01870*%
D13*
X117500Y9000D02*
D03*
Y16000D02*
D03*
X137500D02*
D03*
Y9000D02*
D03*
X93500Y121307D02*
D03*
Y114307D02*
D03*
X86500Y121307D02*
D03*
Y114307D02*
D03*
X31000Y78000D02*
D03*
Y71000D02*
D03*
X38500Y78000D02*
D03*
Y71000D02*
D03*
X15500Y78000D02*
D03*
Y71000D02*
D03*
X23000Y78000D02*
D03*
Y71000D02*
D03*
X68000Y9000D02*
D03*
Y16000D02*
D03*
X168500Y32000D02*
D03*
Y39000D02*
D03*
X38000Y30500D02*
D03*
Y37500D02*
D03*
X92500Y9000D02*
D03*
Y16000D02*
D03*
X32000Y37500D02*
D03*
Y30500D02*
D03*
X99500Y16000D02*
D03*
Y9000D02*
D03*
D14*
X131000Y16000D02*
D03*
X124000D02*
D03*
X86500Y148000D02*
D03*
X93500D02*
D03*
Y127921D02*
D03*
X86500D02*
D03*
X71000Y120900D02*
D03*
X78000D02*
D03*
Y127900D02*
D03*
X71000D02*
D03*
X37000Y101400D02*
D03*
X30000D02*
D03*
X15500D02*
D03*
X22500D02*
D03*
X155000Y46000D02*
D03*
X162000D02*
D03*
X145500Y39000D02*
D03*
X138500D02*
D03*
X145500Y31500D02*
D03*
X138500D02*
D03*
X145500Y60500D02*
D03*
X138500D02*
D03*
X145500Y53000D02*
D03*
X138500D02*
D03*
X36500Y18000D02*
D03*
X43500D02*
D03*
X36500Y10000D02*
D03*
X43500D02*
D03*
X29000Y18000D02*
D03*
X22000D02*
D03*
X29000Y10000D02*
D03*
X22000D02*
D03*
X22600Y59000D02*
D03*
X15600D02*
D03*
X22600Y52000D02*
D03*
X15600D02*
D03*
X145500Y77500D02*
D03*
X138500D02*
D03*
X145500Y71500D02*
D03*
X138500D02*
D03*
X145500Y83500D02*
D03*
X138500D02*
D03*
X86500Y141307D02*
D03*
X93500D02*
D03*
D15*
X71000Y135400D02*
D03*
X78480D02*
D03*
X74740Y144487D02*
D03*
X31000Y85500D02*
D03*
X38480D02*
D03*
X34740Y94587D02*
D03*
X15500Y85500D02*
D03*
X22980D02*
D03*
X19240Y94587D02*
D03*
D16*
X67846Y91618D02*
D03*
X63516D02*
D03*
Y31382D02*
D03*
X67846D02*
D03*
X72177D02*
D03*
X76508D02*
D03*
X80839D02*
D03*
X85169D02*
D03*
X89500D02*
D03*
X93831D02*
D03*
X98161D02*
D03*
X102492D02*
D03*
X106823D02*
D03*
X111154D02*
D03*
X115484D02*
D03*
X72177Y91618D02*
D03*
X76508D02*
D03*
X80839D02*
D03*
X85169D02*
D03*
X89500D02*
D03*
X93831D02*
D03*
X98161D02*
D03*
X102492D02*
D03*
X106823D02*
D03*
X111154D02*
D03*
X115484D02*
D03*
D17*
X55642Y78823D02*
D03*
Y74492D02*
D03*
Y70161D02*
D03*
Y65831D02*
D03*
X55600Y61500D02*
D03*
X55642Y57169D02*
D03*
Y52839D02*
D03*
Y48508D02*
D03*
Y44177D02*
D03*
X123358D02*
D03*
Y48508D02*
D03*
Y52839D02*
D03*
Y57169D02*
D03*
Y61500D02*
D03*
Y65831D02*
D03*
Y70161D02*
D03*
Y74492D02*
D03*
Y78823D02*
D03*
D18*
X150000Y10193D02*
D03*
Y21807D02*
D03*
D19*
X143701Y16000D02*
D03*
D20*
X152500Y60500D02*
D03*
Y53020D02*
D03*
X161587Y56760D02*
D03*
X25500Y30500D02*
D03*
Y37980D02*
D03*
X16413Y34240D02*
D03*
X84500Y9000D02*
D03*
Y16480D02*
D03*
X75413Y12740D02*
D03*
X161587Y35260D02*
D03*
X152500Y31520D02*
D03*
Y39000D02*
D03*
D21*
X152382Y104400D02*
D03*
X137618D02*
D03*
D22*
X152500Y167000D02*
D03*
X132815D02*
D03*
D23*
X106000Y121228D02*
D03*
Y134614D02*
D03*
Y127921D02*
D03*
Y141307D02*
D03*
Y148000D02*
D03*
D24*
X144888Y134575D02*
D03*
D25*
X119173Y167000D02*
D03*
X90827D02*
D03*
M02*
