<?xml version="1.0" encoding="iso-8859-1"?>
<!-- Generator: Adobe Illustrator 16.0.0, SVG Export Plug-In . SVG Version: 6.00 Build 0)  -->
<!DOCTYPE svg PUBLIC "-//W3C//DTD SVG 1.0//EN" "http://www.w3.org/TR/2001/REC-SVG-20010904/DTD/svg10.dtd">
<svg version="1.0" id="&#x56FE;&#x5C42;_1" xmlns="http://www.w3.org/2000/svg" xmlns:xlink="http://www.w3.org/1999/xlink" x="0px"
	 y="0px" width="50px" height="50px" viewBox="0 0 50 50" style="enable-background:new 0 0 50 50;" xml:space="preserve">
<g>
	<circle style="fill:#4BB0D9;" cx="14" cy="36" r="14"/>
	<g>
		<path style="fill:none;stroke:#FFFFFF;stroke-width:0.336;stroke-miterlimit:10;" d="M12.005,28.316l-2.842,0.802
			c0,0-0.698,0.119-0.698,1.217c0,1.096,0.003,12.753,0.003,12.753s0,1.299,1.401,1.366c1.342,0.25,5.312,0.978,5.312,0.978
			s0.85,0.25,0.959-1.048c0.002-1.296-0.005-12.863-0.005-12.863s0.155-1.131-1.226-1.384c-1.378-0.253-5.672-1.042-5.672-1.042"/>
		<path style="fill:none;stroke:#FFFFFF;stroke-width:0.336;stroke-miterlimit:10;" d="M9.756,44.41l-0.45,0.131
			c0,0-0.128,0.038-0.13,0.156c0,0.116,0.005,0.183,0.069,0.208c0.068,0.025,5.954,1.111,5.954,1.111s0.631,0.15,1.212,0.044
			l2.213-0.613c0,0,0.163-0.016,0.13-0.173v-0.085c0,0-0.007-0.109-0.189-0.15l-1.028-0.198"/>
		<path style="fill:none;stroke:#FFFFFF;stroke-width:0.336;stroke-miterlimit:10;" d="M15.52,45.423l3.231-0.873
			c0,0,0.779-0.194,0.782-1.296c0.002-1.105-0.003-12.668-0.003-12.668s0.057-1.164-1.123-1.366l-0.743-0.137"/>
		<path style="fill:none;stroke:#FFFFFF;stroke-width:0.336;stroke-miterlimit:10;" d="M17.015,32.534c0,0-0.072,0.007-0.072,0.098
			c0,0.09,0.002,0.536,0.002,0.536s-0.002,0.089,0.059,0.063l1.524-0.421c0,0,0.062-0.006,0.069-0.104v-0.55
			c0,0-0.005-0.072-0.073-0.04L17.015,32.534z"/>
		<path style="fill:none;stroke:#FFFFFF;stroke-width:0.336;stroke-miterlimit:10;" d="M17.66,29.327l-1.725,0.48
			c0,0-0.066,0.037-0.255-0.005l-5.287-0.973c0,0-0.057-0.013-0.016-0.025l1.63-0.454c0,0,0.031-1.951,0.12-2.348
			c0,0,0.007-0.089,0.053-0.095c0,0,0.041-0.016,0.067-0.002l5.342,0.982c0,0,0.07,0.005,0.068,0.083L17.66,29.327z"/>
		<path style="fill:none;stroke:#FFFFFF;stroke-width:0.336;stroke-miterlimit:10;" d="M12.007,28.316l-0.011,0.224
			c0,0-0.011,0.12,0.118,0.102l0.006,0.075l4.573,0.845"/>
		<path style="fill:none;stroke:#FFFFFF;stroke-width:0.336;stroke-miterlimit:10;" d="M12.115,28.677c0,0-0.06-1.986,0.069-2.684
			l5.357,0.987c0,0-0.109,1.132-0.107,2.409"/>
	</g>
</g>
<circle style="fill:#4BB0D9;" cx="36.001" cy="36" r="14"/>
<g>
	<path style="fill:none;stroke:#FFFFFF;stroke-width:0.336;stroke-miterlimit:10;" d="M34.006,28.316l-2.842,0.802
		c0,0-0.698,0.119-0.698,1.217c0,1.096,0.003,12.753,0.003,12.753s0,1.299,1.401,1.366c1.342,0.25,5.312,0.978,5.312,0.978
		s0.85,0.25,0.959-1.048c0.002-1.296-0.005-12.863-0.005-12.863s0.155-1.131-1.226-1.384c-1.378-0.253-5.672-1.042-5.672-1.042"/>
	<path style="fill:none;stroke:#FFFFFF;stroke-width:0.336;stroke-miterlimit:10;" d="M31.757,44.41l-0.45,0.131
		c0,0-0.128,0.038-0.13,0.156c0,0.116,0.005,0.183,0.069,0.208c0.068,0.025,5.954,1.111,5.954,1.111s0.631,0.15,1.212,0.044
		l2.213-0.613c0,0,0.163-0.016,0.13-0.173v-0.085c0,0-0.007-0.109-0.189-0.15l-1.028-0.198"/>
	<path style="fill:none;stroke:#FFFFFF;stroke-width:0.336;stroke-miterlimit:10;" d="M37.521,45.423l3.231-0.873
		c0,0,0.779-0.194,0.782-1.296c0.002-1.105-0.003-12.668-0.003-12.668s0.057-1.164-1.123-1.366l-0.743-0.137"/>
	<path style="fill:none;stroke:#FFFFFF;stroke-width:0.336;stroke-miterlimit:10;" d="M39.016,32.534c0,0-0.072,0.007-0.072,0.098
		c0,0.09,0.002,0.536,0.002,0.536s-0.002,0.089,0.059,0.063l1.524-0.421c0,0,0.062-0.006,0.069-0.104v-0.55
		c0,0-0.005-0.072-0.073-0.04L39.016,32.534z"/>
	<path style="fill:none;stroke:#FFFFFF;stroke-width:0.336;stroke-miterlimit:10;" d="M39.66,29.327l-1.725,0.48
		c0,0-0.066,0.037-0.255-0.005l-5.287-0.973c0,0-0.057-0.013-0.016-0.025l1.63-0.454c0,0,0.031-1.951,0.12-2.348
		c0,0,0.007-0.089,0.053-0.095c0,0,0.041-0.016,0.067-0.002l5.342,0.982c0,0,0.07,0.005,0.068,0.083L39.66,29.327z"/>
	<path style="fill:none;stroke:#FFFFFF;stroke-width:0.336;stroke-miterlimit:10;" d="M34.008,28.316l-0.011,0.224
		c0,0-0.011,0.12,0.118,0.102l0.006,0.075l4.573,0.845"/>
	<path style="fill:none;stroke:#FFFFFF;stroke-width:0.336;stroke-miterlimit:10;" d="M34.115,28.677c0,0-0.06-1.986,0.069-2.684
		l5.357,0.987c0,0-0.109,1.132-0.107,2.409"/>
</g>
<circle style="fill:#C0C0C0;" cx="25.001" cy="14" r="14"/>
<g>
	<path style="fill:none;stroke:#FFFFFF;stroke-width:0.336;stroke-miterlimit:10;" d="M23.006,6.317l-2.842,0.802
		c0,0-0.698,0.119-0.698,1.217c0,1.096,0.003,12.753,0.003,12.753s0,1.299,1.401,1.366c1.342,0.25,5.312,0.978,5.312,0.978
		s0.85,0.25,0.959-1.048c0.002-1.296-0.005-12.863-0.005-12.863s0.155-1.131-1.226-1.384c-1.378-0.253-5.672-1.042-5.672-1.042"/>
	<path style="fill:none;stroke:#FFFFFF;stroke-width:0.336;stroke-miterlimit:10;" d="M20.757,22.411l-0.45,0.131
		c0,0-0.128,0.038-0.13,0.156c0,0.116,0.005,0.183,0.069,0.208c0.068,0.025,5.954,1.111,5.954,1.111s0.631,0.15,1.212,0.044
		l2.213-0.613c0,0,0.163-0.016,0.13-0.173V23.19c0,0-0.007-0.109-0.189-0.15l-1.028-0.198"/>
	<path style="fill:none;stroke:#FFFFFF;stroke-width:0.336;stroke-miterlimit:10;" d="M26.521,23.423l3.231-0.873
		c0,0,0.779-0.194,0.782-1.296c0.002-1.105-0.003-12.668-0.003-12.668s0.057-1.164-1.123-1.366l-0.743-0.137"/>
	<path style="fill:none;stroke:#FFFFFF;stroke-width:0.336;stroke-miterlimit:10;" d="M28.016,10.535c0,0-0.072,0.007-0.072,0.098
		c0,0.09,0.002,0.536,0.002,0.536s-0.002,0.089,0.059,0.063l1.524-0.421c0,0,0.062-0.006,0.069-0.104v-0.55
		c0,0-0.005-0.072-0.073-0.04L28.016,10.535z"/>
	<path style="fill:none;stroke:#FFFFFF;stroke-width:0.336;stroke-miterlimit:10;" d="M28.66,7.328l-1.725,0.48
		c0,0-0.066,0.037-0.255-0.005l-5.287-0.973c0,0-0.057-0.013-0.016-0.025l1.63-0.454c0,0,0.031-1.951,0.12-2.348
		c0,0,0.007-0.089,0.053-0.095c0,0,0.041-0.016,0.067-0.002l5.342,0.982c0,0,0.07,0.005,0.068,0.083L28.66,7.328z"/>
	<path style="fill:none;stroke:#FFFFFF;stroke-width:0.336;stroke-miterlimit:10;" d="M23.008,6.317l-0.011,0.224
		c0,0-0.011,0.12,0.118,0.102l0.006,0.075l4.573,0.845"/>
	<path style="fill:none;stroke:#FFFFFF;stroke-width:0.336;stroke-miterlimit:10;" d="M23.115,6.677c0,0-0.06-1.986,0.069-2.684
		l5.357,0.987c0,0-0.109,1.132-0.107,2.409"/>
</g>
<g>
	<circle style="fill:#C0C0C0;" cx="-41.166" cy="20.083" r="12.5"/>
	<g>
		<path style="fill:none;stroke:#FFFFFF;stroke-width:0.3;stroke-miterlimit:10;" d="M-42.947,13.223l-2.537,0.716
			c0,0-0.623,0.106-0.623,1.086c0,0.979,0.002,11.386,0.002,11.386s0,1.161,1.252,1.222c1.197,0.222,4.742,0.872,4.742,0.872
			s0.758,0.223,0.855-0.936c0.002-1.158-0.004-11.485-0.004-11.485s0.139-1.01-1.094-1.236c-1.229-0.226-5.064-0.93-5.064-0.93"/>
		<path style="fill:none;stroke:#FFFFFF;stroke-width:0.3;stroke-miterlimit:10;" d="M-44.954,27.593l-0.403,0.117
			c0,0-0.113,0.033-0.115,0.139c0,0.104,0.005,0.164,0.063,0.187c0.06,0.022,5.315,0.991,5.315,0.991s0.563,0.136,1.08,0.041
			l1.976-0.549c0,0,0.146-0.013,0.118-0.153v-0.077c0,0-0.006-0.098-0.171-0.135l-0.917-0.176"/>
		<path style="fill:none;stroke:#FFFFFF;stroke-width:0.3;stroke-miterlimit:10;" d="M-39.809,28.498l2.884-0.779
			c0,0,0.696-0.174,0.7-1.159c0.002-0.985-0.004-11.311-0.004-11.311s0.051-1.039-1.002-1.22l-0.664-0.122"/>
		<path style="fill:none;stroke:#FFFFFF;stroke-width:0.3;stroke-miterlimit:10;" d="M-38.475,16.988c0,0-0.064,0.007-0.064,0.088
			s0.001,0.479,0.001,0.479s-0.001,0.079,0.054,0.057l1.361-0.375c0,0,0.055-0.006,0.063-0.094v-0.49c0,0-0.006-0.065-0.067-0.037
			L-38.475,16.988z"/>
		<path style="fill:none;stroke:#FFFFFF;stroke-width:0.3;stroke-miterlimit:10;" d="M-37.898,14.126l-1.539,0.428
			c0,0-0.061,0.034-0.229-0.004l-4.721-0.868c0,0-0.051-0.011-0.014-0.023l1.455-0.405c0,0,0.028-1.743,0.108-2.097
			c0,0,0.005-0.079,0.047-0.084c0,0,0.036-0.014,0.06-0.002l4.77,0.877c0,0,0.063,0.005,0.061,0.074L-37.898,14.126z"/>
		<path style="fill:none;stroke:#FFFFFF;stroke-width:0.3;stroke-miterlimit:10;" d="M-42.945,13.223l-0.01,0.2
			c0,0-0.01,0.107,0.105,0.09l0.007,0.067l4.081,0.755"/>
		<path style="fill:none;stroke:#FFFFFF;stroke-width:0.3;stroke-miterlimit:10;" d="M-42.85,13.544c0,0-0.053-1.772,0.063-2.395
			l4.782,0.881c0,0-0.098,1.011-0.096,2.151"/>
	</g>
</g>
</svg>
