<?xml version="1.0" encoding="utf-8"?>
<!-- Generator: Adobe Illustrator 16.0.0, SVG Export Plug-In . SVG Version: 6.00 Build 0)  -->
<!DOCTYPE svg PUBLIC "-//W3C//DTD SVG 1.1//EN" "http://www.w3.org/Graphics/SVG/1.1/DTD/svg11.dtd">
<svg version="1.1" id="图层_1" xmlns="http://www.w3.org/2000/svg" xmlns:xlink="http://www.w3.org/1999/xlink" x="0px" y="0px"
	 width="24px" height="36px" viewBox="0 0 24 36" enable-background="new 0 0 24 36" xml:space="preserve">
<g>
	<path fill="#7DFF59" d="M23.887,12.157C24.168,22.83,14.967,21.882,11.994,36C9.188,21.925-0.43,22.786,0.116,12.157"/>
	<ellipse fill="#7DFF59" cx="11.993" cy="12.029" rx="11.899" ry="11.971"/>
</g>
<path fill="#FFFFFF" d="M14.122,5.968h-0.573V5.02c0-0.356-0.279-0.651-0.626-0.651H10.89c-0.346,0-0.626,0.295-0.626,0.651v0.948
	H9.849L8.857,19.632h6.254L14.122,5.968z M11.126,4.777h1.562c0.164,0,0.306,0.109,0.36,0.262h-2.279
	C10.823,4.887,10.961,4.777,11.126,4.777z M10.741,5.236h2.334v0.162h-2.334V5.236z M11.126,5.907c-0.183,0-0.328-0.134-0.367-0.312
	h2.3c-0.041,0.178-0.188,0.312-0.371,0.312H11.126z M12.279,7.403v1.193c0,0.162-0.132,0.294-0.294,0.294
	c-0.164,0-0.296-0.132-0.296-0.294V7.403c0-0.162,0.132-0.294,0.296-0.294C12.147,7.109,12.279,7.241,12.279,7.403z M10.559,12
	h2.854c0.146,0,0.257,0.114,0.257,0.256c0,0.143-0.111,0.258-0.257,0.258h-2.854c-0.14,0-0.255-0.115-0.255-0.258
	C10.304,12.114,10.419,12,10.559,12z M13.531,13.802c0.025,0.074,0.037,0.154,0.046,0.238h-3.184
	c0.009-0.084,0.021-0.164,0.046-0.238H13.531z M10.582,13.541c0.108-0.135,0.249-0.224,0.407-0.224h1.992
	c0.158,0,0.299,0.089,0.408,0.224H10.582z M13.605,14.301l0.017,0.238h-3.273l0.017-0.238H13.605z M13.641,14.8l0.019,0.238h-3.344
	L10.33,14.8H13.641z M10.295,15.299h3.38l0.017,0.238h-3.413L10.295,15.299z M10.261,15.798h3.449l0.017,0.238h-3.481L10.261,15.798
	z M10.226,16.297h3.52l0.018,0.238H10.21L10.226,16.297z M10.19,16.796h3.589l0.017,0.238h-3.622L10.19,16.796z M13.13,18.419
	h-2.291c-0.129,0-0.243-0.053-0.347-0.126h2.984C13.374,18.366,13.259,18.419,13.13,18.419z M13.706,18.032h-3.442
	c-0.04-0.074-0.07-0.15-0.091-0.238h3.624C13.775,17.882,13.746,17.958,13.706,18.032z M13.814,17.688v-0.155h-3.676l0.017-0.238
	h3.66l0.021,0.277C13.834,17.614,13.818,17.649,13.814,17.688z"/>
</svg>
