%FSLAX25Y25*%
%MOIN*%
G70*
G01*
G75*
G04 Layer_Color=8421504*
%ADD10R,0.07874X0.07874*%
%ADD11R,0.02362X0.07874*%
%ADD12R,0.07874X0.02362*%
%ADD13R,0.11811X0.04213*%
%ADD14R,0.37008X0.27559*%
%ADD15R,0.03500X0.03000*%
%ADD16R,0.12992X0.07087*%
%ADD17R,0.04134X0.08661*%
%ADD18R,0.03937X0.04331*%
%ADD19R,0.03000X0.03500*%
%ADD20R,0.04331X0.03937*%
%ADD21R,0.08661X0.04134*%
%ADD22R,0.02362X0.04299*%
%ADD23R,0.01575X0.03937*%
%ADD24R,0.07874X0.03937*%
%ADD25C,0.01500*%
%ADD26C,0.01000*%
%ADD27C,0.02000*%
%ADD28C,0.07000*%
%ADD29C,0.03150*%
%ADD30C,0.04000*%
%ADD31C,0.06000*%
%ADD32R,0.06000X0.06000*%
%ADD33C,0.02500*%
%ADD34R,0.01181X0.04724*%
%ADD35C,0.04000*%
%ADD36R,0.04921X0.07874*%
%ADD37R,0.03150X0.05118*%
%ADD38R,0.05906X0.06693*%
%ADD39R,0.04724X0.09843*%
%ADD40R,0.09449X0.10236*%
%ADD41R,0.09449X0.07087*%
%ADD42R,0.09843X0.04724*%
%ADD43R,0.04299X0.02362*%
%ADD44O,0.01181X0.04724*%
%ADD45C,0.01600*%
%ADD46C,0.00500*%
%ADD47C,0.00787*%
%ADD48C,0.00800*%
%ADD49C,0.00600*%
%ADD50C,0.00700*%
%ADD51R,0.62598X0.35433*%
%ADD52C,0.00100*%
%ADD53R,0.01181X0.08412*%
%ADD54R,0.01300X0.11811*%
%ADD55R,0.01870X0.17323*%
%ADD56R,0.13988X0.01000*%
%ADD57R,0.11811X0.01300*%
D10*
X65287Y110933D02*
D03*
X95602D02*
D03*
X124539D02*
D03*
Y81799D02*
D03*
Y51878D02*
D03*
Y22744D02*
D03*
X95602D02*
D03*
X65287D02*
D03*
X36350D02*
D03*
Y51878D02*
D03*
Y81799D02*
D03*
Y110933D02*
D03*
D11*
X43043Y7784D02*
D03*
X50917D02*
D03*
X54854D02*
D03*
X62728D02*
D03*
X58791D02*
D03*
X74539D02*
D03*
X78476D02*
D03*
X70602D02*
D03*
X66665D02*
D03*
X98161D02*
D03*
X102099D02*
D03*
X109973Y7784D02*
D03*
X106035Y7784D02*
D03*
X90287D02*
D03*
X94224D02*
D03*
X86350D02*
D03*
X82413D02*
D03*
X121783D02*
D03*
X117847D02*
D03*
X113909D02*
D03*
X46980Y7784D02*
D03*
X39106Y7784D02*
D03*
X43043Y125894D02*
D03*
X109973Y125894D02*
D03*
X113909D02*
D03*
X121783D02*
D03*
X117847D02*
D03*
X78476D02*
D03*
X82413D02*
D03*
X90287D02*
D03*
X86350D02*
D03*
X102098D02*
D03*
X106035D02*
D03*
X98161D02*
D03*
X94224D02*
D03*
X62728D02*
D03*
X66665D02*
D03*
X74539D02*
D03*
X70602D02*
D03*
X54854D02*
D03*
X58791D02*
D03*
X50917D02*
D03*
X46980D02*
D03*
X39106D02*
D03*
D12*
X139500Y104240D02*
D03*
Y100303D02*
D03*
Y92429D02*
D03*
Y96366D02*
D03*
Y80618D02*
D03*
Y76681D02*
D03*
Y84555D02*
D03*
Y88492D02*
D03*
Y56996D02*
D03*
Y53059D02*
D03*
Y45185D02*
D03*
Y49122D02*
D03*
Y64870D02*
D03*
Y60933D02*
D03*
Y68807D02*
D03*
Y72744D02*
D03*
Y25500D02*
D03*
Y33374D02*
D03*
Y29437D02*
D03*
Y37311D02*
D03*
Y41248D02*
D03*
X21390D02*
D03*
Y37311D02*
D03*
Y29437D02*
D03*
Y33374D02*
D03*
X139500Y108177D02*
D03*
X21390Y25500D02*
D03*
Y72744D02*
D03*
Y68807D02*
D03*
Y60933D02*
D03*
Y64870D02*
D03*
Y49122D02*
D03*
Y45185D02*
D03*
Y53059D02*
D03*
Y56996D02*
D03*
Y88492D02*
D03*
Y84555D02*
D03*
Y76681D02*
D03*
Y80618D02*
D03*
Y96366D02*
D03*
Y92429D02*
D03*
Y100303D02*
D03*
Y104240D02*
D03*
D13*
X129390Y149433D02*
D03*
Y142740D02*
D03*
Y162819D02*
D03*
Y156126D02*
D03*
Y169512D02*
D03*
D14*
X90502Y156165D02*
D03*
D15*
X163587Y43740D02*
D03*
X156587D02*
D03*
X144500Y169500D02*
D03*
X151500D02*
D03*
Y163319D02*
D03*
X144500D02*
D03*
X151500Y157126D02*
D03*
X144500D02*
D03*
X165488Y163319D02*
D03*
X172488D02*
D03*
X150000Y144600D02*
D03*
X161087Y105740D02*
D03*
X154087D02*
D03*
X161087Y99740D02*
D03*
X154087D02*
D03*
X150500Y25500D02*
D03*
X157500D02*
D03*
X46980Y153500D02*
D03*
X53980D02*
D03*
X150000Y122100D02*
D03*
X157000D02*
D03*
Y116100D02*
D03*
X150000D02*
D03*
X156587Y52240D02*
D03*
X163587D02*
D03*
X156587Y37240D02*
D03*
X163587D02*
D03*
X157000Y144600D02*
D03*
X156587Y58740D02*
D03*
X163587D02*
D03*
X165488Y157126D02*
D03*
X172488D02*
D03*
X172000Y25500D02*
D03*
X165000D02*
D03*
D16*
X169000Y126700D02*
D03*
Y146385D02*
D03*
D17*
X59787Y166000D02*
D03*
X48173D02*
D03*
D18*
X53980Y159701D02*
D03*
D19*
X39890Y146240D02*
D03*
Y139240D02*
D03*
X12008Y17366D02*
D03*
Y10366D02*
D03*
X4008Y17366D02*
D03*
Y10366D02*
D03*
X157500Y18500D02*
D03*
Y11500D02*
D03*
X46980Y139240D02*
D03*
Y146240D02*
D03*
X151000Y18500D02*
D03*
Y11500D02*
D03*
X54390Y139240D02*
D03*
Y146240D02*
D03*
X60980Y146500D02*
D03*
Y153500D02*
D03*
X33890Y139240D02*
D03*
Y146240D02*
D03*
X12790D02*
D03*
Y139240D02*
D03*
X27466Y146191D02*
D03*
Y139191D02*
D03*
X18866Y146191D02*
D03*
Y139191D02*
D03*
D20*
X163201Y11500D02*
D03*
D21*
X169500Y17307D02*
D03*
Y5693D02*
D03*
D22*
X153740Y137687D02*
D03*
X157480Y128600D02*
D03*
X150000D02*
D03*
D23*
X19324Y155645D02*
D03*
X27002D02*
D03*
X21883D02*
D03*
X16765D02*
D03*
X24442D02*
D03*
D24*
X36450Y168243D02*
D03*
X6529D02*
D03*
M02*
