%FSLAX25Y25*%
%MOIN*%
G70*
G01*
G75*
G04 Layer_Physical_Order=2*
G04 Layer_Color=16711680*
%ADD10R,0.07874X0.07874*%
%ADD11R,0.02362X0.07874*%
%ADD12R,0.07874X0.02362*%
%ADD13R,0.11811X0.04213*%
%ADD14R,0.37008X0.27559*%
%ADD15R,0.03500X0.03000*%
%ADD16R,0.12992X0.07087*%
%ADD17R,0.04134X0.08661*%
%ADD18R,0.03937X0.04331*%
%ADD19R,0.03000X0.03500*%
%ADD20R,0.04331X0.03937*%
%ADD21R,0.08661X0.04134*%
%ADD22R,0.02362X0.04299*%
%ADD23R,0.01575X0.03937*%
%ADD24R,0.07874X0.03937*%
%ADD25C,0.01500*%
%ADD26C,0.01000*%
%ADD27C,0.02000*%
%ADD28C,0.07000*%
%ADD29C,0.03150*%
%ADD30C,0.04000*%
%ADD31C,0.06000*%
%ADD32R,0.06000X0.06000*%
%ADD33C,0.02500*%
%ADD34R,0.01181X0.04724*%
%ADD35C,0.04000*%
%ADD36R,0.04921X0.07874*%
%ADD37R,0.03150X0.05118*%
%ADD38R,0.05906X0.06693*%
%ADD39R,0.04724X0.09843*%
%ADD40R,0.09449X0.10236*%
%ADD41R,0.09449X0.07087*%
%ADD42R,0.09843X0.04724*%
%ADD43R,0.04299X0.02362*%
%ADD44O,0.01181X0.04724*%
G36*
X145587Y169740D02*
Y155740D01*
X140087D01*
X137087Y152740D01*
X133587Y149240D01*
Y124240D01*
X135961Y121866D01*
X144508D01*
X146508Y119866D01*
X146490Y119848D01*
Y83340D01*
X118276Y55127D01*
Y44868D01*
Y22672D01*
Y21897D01*
X116776Y20397D01*
Y12437D01*
X116180Y11840D01*
X108873D01*
X108276Y12437D01*
Y46868D01*
Y47327D01*
Y61927D01*
X113090Y66740D01*
X139087Y92737D01*
Y111240D01*
X108087D01*
X107587Y111740D01*
Y118240D01*
X109087Y119740D01*
X117087D01*
X123087Y125740D01*
Y171740D01*
X143587D01*
X145587Y169740D01*
D02*
G37*
G36*
X7874Y175228D02*
X169291D01*
X169345Y175239D01*
X170453Y175130D01*
X171569Y174791D01*
X172599Y174241D01*
X173501Y173501D01*
X174241Y172599D01*
X174791Y171569D01*
X175130Y170453D01*
X175239Y169345D01*
X175228Y169291D01*
Y111500D01*
X167500D01*
Y109549D01*
X150759D01*
X150445Y109679D01*
X149727Y109774D01*
X149009Y109679D01*
X148435Y109441D01*
X148019Y109719D01*
Y113146D01*
X153250D01*
Y118188D01*
Y123232D01*
X147776D01*
Y121415D01*
X147314Y121223D01*
X145589Y122948D01*
X145093Y123279D01*
X144508Y123396D01*
X136594D01*
X135116Y124874D01*
Y142122D01*
X135287D01*
Y148778D01*
X138168Y151659D01*
X140720Y154211D01*
X141250D01*
Y153819D01*
X147750D01*
Y159819D01*
Y165819D01*
Y171819D01*
X145671D01*
X144668Y172822D01*
X144172Y173153D01*
X143587Y173270D01*
X135287D01*
Y173858D01*
X122839D01*
Y173220D01*
X122501Y173153D01*
X122005Y172822D01*
X121674Y172325D01*
X121557Y171740D01*
Y126374D01*
X116567Y121383D01*
X116108Y121573D01*
X115390Y121667D01*
X114672Y121573D01*
X114003Y121296D01*
X113969Y121270D01*
X113811D01*
X113777Y121296D01*
X113108Y121573D01*
X112390Y121667D01*
X111672Y121573D01*
X111003Y121296D01*
X110969Y121270D01*
X110811D01*
X110777Y121296D01*
X110108Y121573D01*
X109390Y121667D01*
X108672Y121573D01*
X108003Y121296D01*
X107428Y120855D01*
X106988Y120281D01*
X106711Y119612D01*
X106698Y119514D01*
X106505Y119322D01*
X106174Y118825D01*
X106057Y118240D01*
Y111740D01*
X106063Y111711D01*
Y110990D01*
X106063D01*
X106323Y110931D01*
X106087Y110490D01*
X106063D01*
Y109050D01*
X105687Y108720D01*
X104976Y108814D01*
X104786Y108789D01*
X104569Y109071D01*
X104486Y109215D01*
X105034Y109929D01*
X105386Y110780D01*
X105507Y111694D01*
X105386Y112607D01*
X105034Y113459D01*
X104473Y114190D01*
X103742Y114751D01*
X102890Y115104D01*
X101976Y115224D01*
X101405Y115149D01*
X100617Y115937D01*
X100841Y116476D01*
X100935Y117194D01*
X100841Y117912D01*
X100564Y118581D01*
X100644Y119069D01*
X100918Y119252D01*
Y119252D01*
X100918D01*
D01*
D01*
D01*
D01*
D01*
D01*
X100918D01*
D01*
X100918D01*
Y119252D01*
D01*
D01*
D01*
D01*
Y119252D01*
D01*
D01*
D01*
D01*
D01*
D01*
Y119252D01*
D01*
D01*
X100918D01*
D01*
D01*
D01*
X102918Y121252D01*
X103360Y121913D01*
X103416Y122194D01*
X104726D01*
Y128194D01*
X98226D01*
Y122733D01*
X97726D01*
Y128194D01*
X96418D01*
X96360Y128485D01*
X95918Y129147D01*
X93044Y132020D01*
X93372Y132394D01*
X93537D01*
Y138394D01*
X92327D01*
Y139891D01*
X92327Y139891D01*
X92171Y140671D01*
X91729Y141332D01*
X91651Y141411D01*
X91860Y141914D01*
X91980Y142828D01*
X91860Y143742D01*
X91507Y144593D01*
X90946Y145324D01*
X90215Y145885D01*
X89364Y146238D01*
X88450Y146358D01*
X87536Y146238D01*
X86685Y145885D01*
X85954Y145324D01*
X85854Y145194D01*
X85380Y145354D01*
Y152229D01*
X85534Y152429D01*
X85886Y153280D01*
X86007Y154194D01*
X85886Y155107D01*
X85534Y155959D01*
X84973Y156690D01*
X84241Y157251D01*
X83390Y157604D01*
X82476Y157724D01*
X81563Y157604D01*
X80711Y157251D01*
X79980Y156690D01*
X79419Y155959D01*
X79066Y155107D01*
X78976Y154423D01*
X78476D01*
X78386Y155107D01*
X78034Y155959D01*
X77473Y156690D01*
X76741Y157251D01*
X75890Y157604D01*
X74976Y157724D01*
X74063Y157604D01*
X73211Y157251D01*
X72480Y156690D01*
X71919Y155959D01*
X71566Y155107D01*
X71446Y154194D01*
X71566Y153280D01*
X71919Y152429D01*
X72480Y151698D01*
X73211Y151137D01*
X74063Y150784D01*
X74976Y150663D01*
X75547Y150739D01*
X76437Y149849D01*
Y145194D01*
X75226D01*
Y139194D01*
X76437D01*
Y138394D01*
X75226D01*
Y132394D01*
X75392D01*
X75481Y132292D01*
X75631Y131932D01*
X74380Y130682D01*
X73880D01*
X73183Y131379D01*
X72521Y131821D01*
X71741Y131976D01*
Y132040D01*
X72094Y132394D01*
X70726D01*
Y134644D01*
X68806D01*
X68652Y135015D01*
X68226Y135570D01*
Y136143D01*
X67778Y135922D01*
X67637Y136030D01*
X66968Y136307D01*
X66704Y136651D01*
X66780Y137228D01*
X66660Y138142D01*
X66307Y138993D01*
X66151Y139196D01*
X66373Y139645D01*
X68226D01*
Y139194D01*
X74726D01*
Y145194D01*
X68226D01*
Y144743D01*
X54516D01*
X53540Y144549D01*
X52713Y143996D01*
X50248Y141530D01*
X49695Y140703D01*
X49501Y139728D01*
Y125128D01*
X49695Y124153D01*
X50248Y123326D01*
X51674Y121899D01*
X51483Y121437D01*
X50991D01*
Y119187D01*
X53491D01*
Y120136D01*
X53539Y120175D01*
X53991Y119962D01*
Y115437D01*
X54219D01*
X54549Y115061D01*
X54467Y114440D01*
X54562Y113722D01*
X54839Y113053D01*
X55280Y112479D01*
X55854Y112038D01*
X56523Y111761D01*
X57241Y111666D01*
X57959Y111761D01*
X58628Y112038D01*
X59202Y112479D01*
X59643Y113053D01*
X59920Y113722D01*
X60015Y114440D01*
X59920Y115158D01*
X60107Y115437D01*
X60491D01*
Y115888D01*
X70707D01*
X71978Y114617D01*
X71978Y114617D01*
X72939Y113657D01*
X73765Y113104D01*
X74741Y112910D01*
X86000D01*
X86976Y113104D01*
X87803Y113657D01*
X90224Y116078D01*
X90776Y116905D01*
X90970Y117880D01*
Y118441D01*
X91449Y118586D01*
X91681Y118239D01*
X91545Y117912D01*
X91451Y117194D01*
X91545Y116476D01*
X91822Y115807D01*
X92185Y115334D01*
Y114347D01*
X91980Y114190D01*
X91419Y113459D01*
X91066Y112607D01*
X90946Y111694D01*
X91066Y110780D01*
X91419Y109929D01*
X91980Y109197D01*
X92156Y109063D01*
X91995Y108589D01*
X60491D01*
Y109040D01*
X53991D01*
Y103040D01*
Y97040D01*
X55769D01*
X55799Y96995D01*
X58799Y93995D01*
D01*
X58799D01*
X58799Y93995D01*
X58799Y93995D01*
X58799D01*
D01*
X58799D01*
X58799Y93995D01*
Y93995D01*
X58799Y93995D01*
Y93995D01*
X59461Y93553D01*
X60241Y93398D01*
X70165D01*
X70356Y92936D01*
X66459Y89039D01*
X28750D01*
Y90000D01*
X28750D01*
X28750Y90237D01*
X28950Y90390D01*
X36630D01*
X37410Y90545D01*
X38072Y90987D01*
X40245Y93160D01*
X40359Y93331D01*
X41484D01*
Y100630D01*
X36122D01*
Y94805D01*
X35785Y94468D01*
X29665D01*
X29444Y94917D01*
X29492Y94979D01*
X29769Y95648D01*
X29864Y96366D01*
X29769Y97084D01*
X29492Y97753D01*
X29051Y98327D01*
X28477Y98768D01*
X27808Y99045D01*
X27090Y99140D01*
X26860Y99110D01*
X26484Y99439D01*
Y100630D01*
X21122D01*
Y93331D01*
X24056D01*
X24385Y92955D01*
X24316Y92429D01*
X24411Y91711D01*
X24688Y91042D01*
X25128Y90468D01*
X24769Y90000D01*
X22250D01*
Y84000D01*
X28750D01*
Y84961D01*
X67304D01*
X68084Y85116D01*
X68521Y85408D01*
X68839Y85022D01*
X62856Y79039D01*
X28750D01*
Y80000D01*
X22250D01*
Y74000D01*
X28750D01*
Y74961D01*
X42587D01*
Y66807D01*
X51492D01*
Y74961D01*
X63701D01*
X64481Y75116D01*
X65143Y75558D01*
Y75558D01*
X65143D01*
D01*
D01*
D01*
D01*
D01*
D01*
X65143D01*
D01*
X65143D01*
Y75558D01*
D01*
D01*
D01*
D01*
Y75558D01*
D01*
D01*
D01*
D01*
D01*
D01*
Y75558D01*
D01*
D01*
X65143D01*
D01*
D01*
D01*
D01*
D01*
X78243Y88658D01*
X78705Y88467D01*
Y77948D01*
X63296Y62539D01*
X40640D01*
Y64116D01*
X34140D01*
Y62539D01*
X33640D01*
Y67866D01*
X27140D01*
Y67770D01*
X26996Y67644D01*
X26278Y67549D01*
X25609Y67272D01*
X25035Y66831D01*
X24594Y66257D01*
X24317Y65588D01*
X24222Y64870D01*
X24317Y64152D01*
X24594Y63483D01*
X24974Y62988D01*
X24753Y62539D01*
X23145D01*
X17242Y68442D01*
X16580Y68884D01*
X15800Y69039D01*
X9026D01*
X8931Y69269D01*
X8209Y70209D01*
X7269Y70931D01*
X6175Y71384D01*
X5000Y71539D01*
X3825Y71384D01*
X2731Y70931D01*
X2386Y70666D01*
X1937Y70887D01*
Y73113D01*
X2386Y73334D01*
X2731Y73069D01*
X3825Y72616D01*
X5000Y72461D01*
X6175Y72616D01*
X7269Y73069D01*
X8209Y73791D01*
X8931Y74731D01*
X9026Y74961D01*
X15250D01*
Y74000D01*
X21750D01*
Y80000D01*
X15250D01*
Y79039D01*
X9026D01*
X8931Y79269D01*
X8209Y80209D01*
X7269Y80931D01*
X6175Y81384D01*
X5000Y81539D01*
X3825Y81384D01*
X2731Y80931D01*
X2386Y80666D01*
X1937Y80887D01*
Y83113D01*
X2386Y83334D01*
X2731Y83069D01*
X3825Y82616D01*
X5000Y82461D01*
X6175Y82616D01*
X7269Y83069D01*
X8209Y83791D01*
X8931Y84731D01*
X9026Y84961D01*
X15250D01*
Y84000D01*
X21750D01*
Y90000D01*
X15250D01*
Y89039D01*
X9026D01*
X8931Y89269D01*
X8209Y90209D01*
X7269Y90931D01*
X6175Y91384D01*
X5000Y91539D01*
X3825Y91384D01*
X2731Y90931D01*
X2386Y90666D01*
X1937Y90887D01*
Y93113D01*
X2386Y93334D01*
X2731Y93069D01*
X3825Y92616D01*
X5000Y92461D01*
X6175Y92616D01*
X7269Y93069D01*
X8209Y93791D01*
X8931Y94731D01*
X9384Y95825D01*
X9539Y97000D01*
X9384Y98175D01*
X9289Y98405D01*
X16920Y106036D01*
X17382Y105845D01*
Y102417D01*
X22744D01*
Y109716D01*
X22102D01*
Y110240D01*
X23313D01*
Y116240D01*
X22102D01*
Y116740D01*
X23313D01*
Y122201D01*
X23813D01*
Y116740D01*
X30313D01*
Y122740D01*
X29602D01*
X29447Y123521D01*
X29005Y124182D01*
X28948Y124239D01*
X29139Y124701D01*
X37396D01*
X38972Y123125D01*
X38813Y122740D01*
X38813D01*
X38813Y122740D01*
Y116740D01*
X45313D01*
Y122740D01*
X44102D01*
Y122918D01*
X43947Y123698D01*
X43505Y124360D01*
X39683Y128182D01*
X39021Y128624D01*
X38241Y128779D01*
X16000D01*
X15220Y128624D01*
X14558Y128182D01*
X3558Y117182D01*
X3116Y116521D01*
X2961Y115740D01*
Y111500D01*
X1937D01*
Y169291D01*
X1927Y169345D01*
X2036Y170453D01*
X2375Y171569D01*
X2925Y172599D01*
X3665Y173501D01*
X4567Y174241D01*
X5596Y174791D01*
X6713Y175130D01*
X7821Y175239D01*
X7874Y175228D01*
D02*
G37*
G36*
X137557Y104223D02*
X132640D01*
Y100360D01*
Y96498D01*
X137557D01*
Y93370D01*
X112008Y67822D01*
X107195Y63008D01*
X106863Y62512D01*
X106747Y61927D01*
Y47327D01*
Y46868D01*
Y14491D01*
X106711Y14403D01*
X106616Y13685D01*
X106711Y12967D01*
X106747Y12879D01*
Y12437D01*
X106863Y11851D01*
X107195Y11355D01*
X107791Y10759D01*
X108288Y10427D01*
X108873Y10311D01*
X116180D01*
X116765Y10427D01*
X117261Y10759D01*
X117858Y11355D01*
X118189Y11851D01*
X118306Y12437D01*
Y14784D01*
X120159D01*
Y17783D01*
Y20784D01*
X119867D01*
X119631Y21224D01*
X119689Y21312D01*
X119806Y21897D01*
Y22672D01*
Y54493D01*
X144919Y79607D01*
X144947Y79605D01*
X145521Y79164D01*
X146190Y78887D01*
X146908Y78792D01*
X147626Y78887D01*
X148295Y79164D01*
X148869Y79605D01*
X149310Y80179D01*
X149587Y80848D01*
X149682Y81566D01*
X149587Y82284D01*
X149310Y82953D01*
X148869Y83527D01*
X148295Y83968D01*
X148019Y84082D01*
Y104281D01*
X148435Y104559D01*
X149009Y104321D01*
X149727Y104226D01*
X150445Y104321D01*
X150759Y104451D01*
X167500D01*
Y102500D01*
X175228D01*
Y100760D01*
X174780Y100539D01*
X174269Y100931D01*
X173175Y101384D01*
X172750Y101440D01*
Y96999D01*
Y92560D01*
X173175Y92616D01*
X174269Y93069D01*
X174780Y93461D01*
X175228Y93240D01*
Y90760D01*
X174780Y90539D01*
X174269Y90931D01*
X173175Y91384D01*
X172000Y91539D01*
X170825Y91384D01*
X169731Y90931D01*
X168791Y90209D01*
X168069Y89269D01*
X167616Y88175D01*
X167461Y87000D01*
X167616Y85825D01*
X168069Y84731D01*
X168791Y83791D01*
X169731Y83069D01*
X170825Y82616D01*
X172000Y82461D01*
X173175Y82616D01*
X174269Y83069D01*
X174780Y83461D01*
X175228Y83240D01*
Y80760D01*
X174780Y80539D01*
X174269Y80931D01*
X173175Y81384D01*
X172750Y81440D01*
Y76999D01*
Y72560D01*
X173175Y72616D01*
X174269Y73069D01*
X174780Y73461D01*
X175228Y73240D01*
Y70760D01*
X174780Y70539D01*
X174269Y70931D01*
X173175Y71384D01*
X172750Y71440D01*
Y66999D01*
Y62560D01*
X173175Y62616D01*
X174269Y63069D01*
X174780Y63461D01*
X175228Y63240D01*
Y60760D01*
X174780Y60539D01*
X174269Y60931D01*
X173175Y61384D01*
X172750Y61440D01*
Y56999D01*
Y52560D01*
X173175Y52616D01*
X174269Y53069D01*
X174780Y53461D01*
X175228Y53240D01*
Y25215D01*
X176146Y24297D01*
Y7874D01*
X176147Y7865D01*
X176017Y6536D01*
X175626Y5250D01*
X174993Y4064D01*
X174140Y3025D01*
X173101Y2173D01*
X172657Y1936D01*
X149007D01*
X149006Y1937D01*
X7874D01*
X7821Y1927D01*
X6713Y2036D01*
X5596Y2375D01*
X4567Y2925D01*
X3665Y3665D01*
X2925Y4567D01*
X2375Y5596D01*
X2036Y6713D01*
X1927Y7821D01*
X1937Y7874D01*
Y43113D01*
X2386Y43334D01*
X2731Y43069D01*
X3825Y42616D01*
X5000Y42461D01*
X6175Y42616D01*
X7269Y43069D01*
X8209Y43791D01*
X8931Y44731D01*
X9094Y45125D01*
X9742Y45558D01*
X15645Y51461D01*
X18403D01*
X18548Y50982D01*
X18461Y50924D01*
X6205Y38669D01*
X5653Y37842D01*
X5459Y36866D01*
Y18398D01*
X5329Y18084D01*
X5234Y17366D01*
X5329Y16648D01*
X5606Y15979D01*
X6047Y15405D01*
X6621Y14964D01*
X7290Y14687D01*
X8008Y14592D01*
X8726Y14687D01*
X9395Y14964D01*
X9969Y15405D01*
X10410Y15979D01*
X10687Y16648D01*
X10782Y17366D01*
X10687Y18084D01*
X10557Y18398D01*
Y35810D01*
X21320Y46573D01*
X26357D01*
X26672Y46443D01*
X27390Y46348D01*
X28108Y46443D01*
X28777Y46720D01*
X29351Y47161D01*
X29792Y47735D01*
X30069Y48404D01*
X30163Y49122D01*
X30069Y49840D01*
X29792Y50509D01*
X29351Y51083D01*
X29479Y51461D01*
X67040D01*
X67821Y51616D01*
X68482Y52058D01*
Y52058D01*
X68482D01*
D01*
D01*
D01*
D01*
D01*
D01*
X68482D01*
D01*
X68482D01*
Y52058D01*
D01*
D01*
D01*
D01*
Y52058D01*
D01*
D01*
D01*
D01*
D01*
D01*
Y52058D01*
D01*
D01*
X68482D01*
D01*
D01*
D01*
X87304Y70880D01*
X87746Y71541D01*
X87901Y72322D01*
X87901Y72322D01*
Y96701D01*
X87953D01*
Y100564D01*
X88420D01*
Y101313D01*
X90512D01*
Y103491D01*
X103944D01*
X104259Y103361D01*
X104976Y103266D01*
X105694Y103361D01*
X106363Y103638D01*
X106822Y103990D01*
X108313D01*
Y107241D01*
X109062D01*
Y107990D01*
X112063D01*
Y109711D01*
X137557D01*
Y104223D01*
D02*
G37*
%LPC*%
G36*
X150000Y58750D02*
X147750D01*
Y55499D01*
Y52250D01*
X150000D01*
Y53299D01*
X152750D01*
Y55979D01*
Y58661D01*
X150000D01*
Y58750D01*
D02*
G37*
G36*
X171250Y56250D02*
X167560D01*
X167616Y55825D01*
X168069Y54731D01*
X168791Y53791D01*
X169731Y53069D01*
X170825Y52616D01*
X171250Y52560D01*
Y56250D01*
D02*
G37*
G36*
Y61440D02*
X170825Y61384D01*
X169731Y60931D01*
X168791Y60209D01*
X168069Y59269D01*
X167616Y58175D01*
X167560Y57750D01*
X171250D01*
Y61440D01*
D02*
G37*
G36*
Y66250D02*
X167560D01*
X167616Y65825D01*
X168069Y64731D01*
X168791Y63791D01*
X169731Y63069D01*
X170825Y62616D01*
X171250Y62560D01*
Y66250D01*
D02*
G37*
G36*
X157150Y55230D02*
X154250D01*
Y53299D01*
X157150D01*
Y55230D01*
D02*
G37*
G36*
Y58661D02*
X154250D01*
Y56730D01*
X157150D01*
Y58661D01*
D02*
G37*
G36*
X146250Y54750D02*
X144000D01*
Y52250D01*
X146250D01*
Y54750D01*
D02*
G37*
G36*
Y43750D02*
X144000D01*
Y41250D01*
X146250D01*
Y43750D01*
D02*
G37*
G36*
X43390Y43624D02*
X41140D01*
Y41124D01*
X43390D01*
Y43624D01*
D02*
G37*
G36*
X39640D02*
X37390D01*
Y41124D01*
X39640D01*
Y43624D01*
D02*
G37*
G36*
X157150Y43661D02*
X154250D01*
Y41730D01*
X157150D01*
Y43661D01*
D02*
G37*
G36*
X166236Y54921D02*
X158937D01*
Y49559D01*
X159541D01*
X159871Y49183D01*
X159813Y48740D01*
X159907Y48022D01*
X160185Y47353D01*
X160625Y46779D01*
X161200Y46338D01*
X161869Y46061D01*
X162587Y45966D01*
X163304Y46061D01*
X163973Y46338D01*
X164548Y46779D01*
X164989Y47353D01*
X165266Y48022D01*
X165360Y48740D01*
X165266Y49458D01*
X165333Y49559D01*
X166236D01*
Y54921D01*
D02*
G37*
G36*
X132032Y48661D02*
X128919D01*
Y42990D01*
X132032D01*
Y48661D01*
D02*
G37*
G36*
X127419D02*
X124307D01*
Y42990D01*
X127419D01*
Y48661D01*
D02*
G37*
G36*
X36640Y67866D02*
X34140D01*
Y65616D01*
X36640D01*
Y67866D01*
D02*
G37*
G36*
X49491Y99290D02*
X46991D01*
Y97040D01*
X49491D01*
Y99290D01*
D02*
G37*
G36*
X90512Y99813D02*
X89171D01*
Y96701D01*
X90512D01*
Y99813D01*
D02*
G37*
G36*
X118014Y99553D02*
X112343D01*
Y96441D01*
X118014D01*
Y99553D01*
D02*
G37*
G36*
X53491Y99290D02*
X50991D01*
Y97040D01*
X53491D01*
Y99290D01*
D02*
G37*
G36*
X112063Y106490D02*
X109813D01*
Y103990D01*
X111989D01*
X112343Y103637D01*
Y101053D01*
X118014D01*
Y104165D01*
X112343D01*
D01*
X112343D01*
X112063Y104445D01*
Y106490D01*
D02*
G37*
G36*
X53491Y105290D02*
X46991D01*
Y103040D01*
Y100790D01*
X53491D01*
Y103040D01*
Y105290D01*
D02*
G37*
G36*
X171250Y101440D02*
X170825Y101384D01*
X169731Y100931D01*
X168791Y100209D01*
X168069Y99269D01*
X167616Y98175D01*
X167560Y97750D01*
X171250D01*
Y101440D01*
D02*
G37*
G36*
Y71440D02*
X170825Y71384D01*
X169731Y70931D01*
X168791Y70209D01*
X168069Y69269D01*
X167616Y68175D01*
X167560Y67750D01*
X171250D01*
Y71440D01*
D02*
G37*
G36*
X108185Y76500D02*
X99279D01*
Y66807D01*
X108185D01*
Y76500D01*
D02*
G37*
G36*
X40640Y67866D02*
X38140D01*
Y65616D01*
X40640D01*
Y67866D01*
D02*
G37*
G36*
X171250Y76250D02*
X167560D01*
X167616Y75825D01*
X168069Y74731D01*
X168791Y73791D01*
X169731Y73069D01*
X170825Y72616D01*
X171250Y72560D01*
Y76250D01*
D02*
G37*
G36*
Y96250D02*
X167560D01*
X167616Y95825D01*
X168069Y94731D01*
X168791Y93791D01*
X169731Y93069D01*
X170825Y92616D01*
X171250Y92560D01*
Y96250D01*
D02*
G37*
G36*
X161087Y98014D02*
X160369Y97919D01*
X159700Y97642D01*
X159125Y97202D01*
X158685Y96627D01*
X158407Y95958D01*
X158313Y95240D01*
X158407Y94522D01*
X158538Y94208D01*
Y87442D01*
X148007Y76911D01*
X145563D01*
X144587Y76717D01*
X143760Y76164D01*
X130327Y62731D01*
X130000Y62774D01*
X129282Y62679D01*
X128613Y62402D01*
X128039Y61961D01*
X127598Y61387D01*
X127321Y60718D01*
X127226Y60000D01*
X127321Y59282D01*
X127598Y58613D01*
X128039Y58039D01*
X128613Y57598D01*
X129282Y57321D01*
X129483Y57294D01*
X129787Y56898D01*
X129726Y56433D01*
X129821Y55715D01*
X130098Y55046D01*
X130539Y54472D01*
X131113Y54031D01*
X131782Y53754D01*
X132373Y53676D01*
X133461Y52588D01*
Y42000D01*
X133461Y42000D01*
X133461D01*
X133616Y41220D01*
X134058Y40558D01*
X135558Y39058D01*
X136220Y38616D01*
X137000Y38461D01*
X137500D01*
Y37250D01*
X143500D01*
Y43750D01*
X137539D01*
Y45250D01*
X143500D01*
Y46461D01*
X144000D01*
Y45250D01*
X150000D01*
Y45819D01*
X157150D01*
Y51181D01*
X150000D01*
Y51750D01*
X144000D01*
Y50539D01*
X143500D01*
Y51750D01*
X137539D01*
Y52250D01*
X143500D01*
Y58220D01*
X143916Y58498D01*
X144000Y58463D01*
Y56250D01*
X146250D01*
Y58750D01*
X144287D01*
X144240Y58863D01*
D01*
X144096Y59212D01*
X147442Y62558D01*
X147442Y62558D01*
X147707Y62955D01*
X147884Y63220D01*
X148039Y64000D01*
D01*
D01*
D01*
D01*
D01*
X148039D01*
D01*
D01*
D01*
D01*
Y64000D01*
X148039D01*
D01*
Y64000D01*
D01*
D01*
D01*
D01*
D01*
D01*
D01*
D01*
D01*
D01*
D01*
D01*
Y64000D01*
D01*
X148039D01*
D01*
D01*
D01*
D01*
X148039Y64000D01*
Y66047D01*
X148402Y66520D01*
X148679Y67189D01*
X148774Y67907D01*
X148679Y68625D01*
X148402Y69294D01*
X147961Y69868D01*
X147387Y70309D01*
X146718Y70586D01*
X146000Y70681D01*
X145830Y71025D01*
X146618Y71813D01*
X149063D01*
X150038Y72007D01*
X150865Y72559D01*
X162889Y84583D01*
X163442Y85410D01*
X163636Y86386D01*
D01*
D01*
D01*
D01*
D01*
X163636D01*
D01*
D01*
D01*
D01*
Y86386D01*
X163636D01*
D01*
Y86386D01*
D01*
D01*
D01*
D01*
D01*
D01*
D01*
D01*
D01*
D01*
D01*
D01*
Y86386D01*
D01*
X163636D01*
D01*
D01*
D01*
D01*
X163636Y86386D01*
Y94208D01*
X163766Y94522D01*
X163860Y95240D01*
X163766Y95958D01*
X163489Y96627D01*
X163048Y97202D01*
X162473Y97642D01*
X161804Y97919D01*
X161087Y98014D01*
D02*
G37*
G36*
X171250Y81440D02*
X170825Y81384D01*
X169731Y80931D01*
X168791Y80209D01*
X168069Y79269D01*
X167616Y78175D01*
X167560Y77750D01*
X171250D01*
Y81440D01*
D02*
G37*
G36*
X127419Y27990D02*
X124307D01*
Y22319D01*
X127419D01*
Y27990D01*
D02*
G37*
G36*
X124160Y20784D02*
X121660D01*
Y18533D01*
X124160D01*
Y20784D01*
D02*
G37*
G36*
X94140Y20740D02*
X91640D01*
Y18490D01*
X94140D01*
Y20740D01*
D02*
G37*
G36*
X132032Y27990D02*
X128919D01*
Y22319D01*
X132032D01*
Y27990D01*
D02*
G37*
G36*
X127419Y35161D02*
X124307D01*
Y29490D01*
X127419D01*
Y35161D01*
D02*
G37*
G36*
X91965Y32799D02*
X89640D01*
Y29490D01*
X91965D01*
Y32799D01*
D02*
G37*
G36*
Y27990D02*
X89640D01*
Y24681D01*
X91965D01*
Y27990D01*
D02*
G37*
G36*
X90140Y20740D02*
X87640D01*
Y18490D01*
X90140D01*
Y20740D01*
D02*
G37*
G36*
X94140Y10990D02*
X91640D01*
Y8740D01*
X94140D01*
Y10990D01*
D02*
G37*
G36*
X90140D02*
X87640D01*
Y8740D01*
X90140D01*
Y10990D01*
D02*
G37*
G36*
X169500Y17148D02*
X168038Y16956D01*
X166676Y16392D01*
X165506Y15494D01*
X164608Y14324D01*
X164044Y12962D01*
X163852Y11500D01*
X164044Y10038D01*
X164608Y8676D01*
X165506Y7506D01*
X166676Y6608D01*
X168038Y6044D01*
X169500Y5852D01*
X170962Y6044D01*
X172324Y6608D01*
X173494Y7506D01*
X174392Y8676D01*
X174956Y10038D01*
X175148Y11500D01*
X174956Y12962D01*
X174392Y14324D01*
X173494Y15494D01*
X172324Y16392D01*
X170962Y16956D01*
X169500Y17148D01*
D02*
G37*
G36*
X94140Y16990D02*
X87640D01*
Y14740D01*
Y12490D01*
X94140D01*
Y14740D01*
Y16990D01*
D02*
G37*
G36*
X58890Y18490D02*
X56640D01*
Y15990D01*
X58890D01*
Y18490D01*
D02*
G37*
G36*
X49140D02*
X46890D01*
Y15990D01*
X49140D01*
Y18490D01*
D02*
G37*
G36*
X124160Y17033D02*
X121660D01*
Y14784D01*
X124160D01*
Y17033D01*
D02*
G37*
G36*
X146250Y39750D02*
X144000D01*
Y37250D01*
X146250D01*
Y39750D01*
D02*
G37*
G36*
X43390Y39624D02*
X41140D01*
Y37124D01*
X43390D01*
Y39624D01*
D02*
G37*
G36*
X39640D02*
X37390D01*
Y37124D01*
X39640D01*
Y39624D01*
D02*
G37*
G36*
X150000Y43750D02*
X147750D01*
Y40499D01*
Y37250D01*
X150000D01*
Y38299D01*
X152750D01*
Y40979D01*
Y43661D01*
X150000D01*
Y43750D01*
D02*
G37*
G36*
X36890Y43624D02*
X34640D01*
Y41124D01*
X36890D01*
Y43624D01*
D02*
G37*
G36*
X33140D02*
X30890D01*
Y41124D01*
X33140D01*
Y43624D01*
D02*
G37*
G36*
X157150Y40230D02*
X154250D01*
Y38299D01*
X157150D01*
Y40230D01*
D02*
G37*
G36*
X36890Y39624D02*
X34640D01*
Y37124D01*
X36890D01*
Y39624D01*
D02*
G37*
G36*
X43390Y36624D02*
X37390D01*
Y35413D01*
X36890D01*
Y36624D01*
X30890D01*
Y35413D01*
X30140D01*
Y36374D01*
X23640D01*
Y30374D01*
X27893D01*
X28114Y29926D01*
X27988Y29761D01*
X27711Y29092D01*
X27616Y28374D01*
X27711Y27656D01*
X27988Y26987D01*
X28428Y26413D01*
X29003Y25972D01*
X29672Y25695D01*
X30263Y25617D01*
X35082Y20798D01*
D01*
X35082Y20798D01*
X35082Y20798D01*
D01*
D01*
D01*
X35082Y20798D01*
Y20798D01*
X35743Y20356D01*
X36524Y20201D01*
X46890D01*
Y18990D01*
X58890D01*
Y20201D01*
X64640D01*
Y14740D01*
Y13779D01*
X58890D01*
Y14490D01*
X55889D01*
Y15239D01*
X55140D01*
Y18490D01*
X50640D01*
Y15239D01*
X49891D01*
Y14490D01*
X46890D01*
Y13779D01*
X37734D01*
X30147Y21367D01*
X30069Y21958D01*
X29792Y22627D01*
X29351Y23201D01*
X28777Y23642D01*
X28108Y23919D01*
X27390Y24014D01*
X26672Y23919D01*
X26003Y23642D01*
X25429Y23201D01*
X24988Y22627D01*
X24711Y21958D01*
X24616Y21240D01*
X24711Y20522D01*
X24988Y19853D01*
X25429Y19279D01*
X26003Y18838D01*
X26672Y18561D01*
X27263Y18483D01*
X35448Y10298D01*
X36109Y9856D01*
X36890Y9701D01*
X64640D01*
Y8740D01*
D01*
Y8740D01*
X64540Y8640D01*
X35222D01*
X17939Y25924D01*
Y28405D01*
X18069Y28719D01*
X18164Y29437D01*
X18069Y30155D01*
X18215Y30374D01*
X23140D01*
Y36374D01*
X16640D01*
Y36283D01*
X16224Y36005D01*
X16108Y36053D01*
X15390Y36148D01*
X14672Y36053D01*
X14003Y35776D01*
X13429Y35335D01*
X12988Y34761D01*
X12711Y34092D01*
X12616Y33374D01*
X12711Y32656D01*
X12988Y31987D01*
X13429Y31413D01*
Y31398D01*
X12988Y30824D01*
X12711Y30155D01*
X12616Y29437D01*
X12711Y28719D01*
X12841Y28405D01*
Y24868D01*
X12841Y24868D01*
X12841D01*
X13035Y23892D01*
X13587Y23065D01*
X32364Y4289D01*
X33191Y3736D01*
X34166Y3542D01*
X80741D01*
X81716Y3736D01*
X82543Y4289D01*
Y4289D01*
X82543D01*
D01*
D01*
D01*
D01*
D01*
D01*
X82543D01*
D01*
X82543D01*
Y4289D01*
D01*
D01*
D01*
D01*
Y4289D01*
D01*
D01*
D01*
D01*
D01*
D01*
Y4289D01*
D01*
D01*
X82543D01*
D01*
D01*
D01*
X85692Y7438D01*
X86245Y8265D01*
X86339Y8740D01*
X87140D01*
Y14740D01*
Y20740D01*
X86439D01*
Y24681D01*
X88140D01*
Y28739D01*
Y32799D01*
X64715D01*
X62698Y34816D01*
X62036Y35258D01*
X61256Y35413D01*
X43390D01*
Y36624D01*
D02*
G37*
G36*
X166236Y39921D02*
X158937D01*
Y34559D01*
X159541D01*
X159871Y34183D01*
X159813Y33740D01*
X159907Y33022D01*
X160185Y32353D01*
X160625Y31779D01*
X161200Y31338D01*
X161869Y31061D01*
X162587Y30966D01*
X163304Y31061D01*
X163973Y31338D01*
X164548Y31779D01*
X164989Y32353D01*
X165266Y33022D01*
X165360Y33740D01*
X165266Y34458D01*
X165333Y34559D01*
X166236D01*
Y39921D01*
D02*
G37*
G36*
X132032Y35161D02*
X128919D01*
Y29490D01*
X132032D01*
Y35161D01*
D02*
G37*
G36*
X150000Y36750D02*
X144000D01*
Y35539D01*
X143500D01*
Y36750D01*
X137500D01*
Y30250D01*
X143500D01*
Y31461D01*
X144000D01*
Y30250D01*
X150000D01*
Y30819D01*
X157150D01*
Y36181D01*
X150000D01*
Y36750D01*
D02*
G37*
G36*
X33140Y39624D02*
X30890D01*
Y37124D01*
X33140D01*
Y39624D01*
D02*
G37*
G36*
X132032Y41490D02*
X128919D01*
Y35819D01*
X132032D01*
Y41490D01*
D02*
G37*
G36*
X127419D02*
X124307D01*
Y35819D01*
X127419D01*
Y41490D01*
D02*
G37*
G36*
X26793Y105317D02*
X24862D01*
Y102417D01*
X26793D01*
Y105317D01*
D02*
G37*
G36*
X141750Y142250D02*
X139500D01*
Y139750D01*
X141750D01*
Y142250D01*
D02*
G37*
G36*
X105787Y139424D02*
X104874Y139304D01*
X104022Y138951D01*
X103291Y138390D01*
X102730Y137659D01*
X102667Y137506D01*
X102505Y137573D01*
X101787Y137667D01*
X101069Y137573D01*
X100953Y137525D01*
X100537Y137803D01*
Y138394D01*
X98037D01*
Y135393D01*
Y132394D01*
X100537D01*
Y132394D01*
X100575Y132419D01*
X101069Y132214D01*
X101787Y132120D01*
X102505Y132214D01*
X103174Y132492D01*
X103647Y132854D01*
X103999D01*
X104022Y132836D01*
X104874Y132484D01*
X105787Y132363D01*
X106701Y132484D01*
X107553Y132836D01*
X108284Y133397D01*
X108845Y134129D01*
X109197Y134980D01*
X109318Y135894D01*
X109197Y136807D01*
X108845Y137659D01*
X108284Y138390D01*
X107553Y138951D01*
X106701Y139304D01*
X105787Y139424D01*
D02*
G37*
G36*
X158008Y152796D02*
X142008D01*
X141423Y152679D01*
X140926Y152348D01*
X140826Y152248D01*
X140545Y151966D01*
X140539Y151961D01*
X140534Y151955D01*
X140026Y151448D01*
X139695Y150951D01*
X139578Y150366D01*
Y149250D01*
X139500D01*
Y142750D01*
X145500D01*
Y143437D01*
X147776D01*
Y136768D01*
X160224D01*
Y146854D01*
X160137D01*
Y150666D01*
X160021Y151251D01*
X159689Y151748D01*
X159089Y152348D01*
X158593Y152679D01*
X158008Y152796D01*
D02*
G37*
G36*
X145500Y142250D02*
X143250D01*
Y139750D01*
X145500D01*
Y142250D01*
D02*
G37*
G36*
X99967Y147990D02*
X94492D01*
Y142122D01*
X99967D01*
Y147990D01*
D02*
G37*
G36*
X42890Y142490D02*
X40640D01*
Y139990D01*
X42890D01*
Y142490D01*
D02*
G37*
G36*
X39140D02*
X36890D01*
Y139990D01*
X39140D01*
Y142490D01*
D02*
G37*
G36*
Y138490D02*
X36890D01*
Y135990D01*
X39140D01*
Y138490D01*
D02*
G37*
G36*
X145500Y138250D02*
X143250D01*
Y135750D01*
X145500D01*
Y138250D01*
D02*
G37*
G36*
X141750D02*
X139500D01*
Y135750D01*
X141750D01*
Y138250D01*
D02*
G37*
G36*
X42890Y138490D02*
X40640D01*
Y135990D01*
X42890D01*
Y138490D01*
D02*
G37*
G36*
X96537Y138394D02*
X94037D01*
Y136144D01*
X96537D01*
Y138394D01*
D02*
G37*
G36*
X74726D02*
X72226D01*
Y136144D01*
X74726D01*
Y138394D01*
D02*
G37*
G36*
X70726D02*
X68226D01*
Y136144D01*
X70726D01*
Y138394D01*
D02*
G37*
G36*
X106941Y147990D02*
X101467D01*
Y142122D01*
X106941D01*
Y147990D01*
D02*
G37*
G36*
X154750Y168069D02*
X148250D01*
Y165819D01*
Y163569D01*
X154750D01*
Y165819D01*
Y168069D01*
D02*
G37*
G36*
X106941Y166490D02*
X101467D01*
Y160622D01*
X106941D01*
Y161300D01*
Y166490D01*
D02*
G37*
G36*
X99967D02*
X94492D01*
Y161300D01*
Y160622D01*
X99967D01*
Y166490D01*
D02*
G37*
G36*
Y173858D02*
X94492D01*
Y167990D01*
X99967D01*
Y173858D01*
D02*
G37*
G36*
X154750Y171819D02*
X152250D01*
Y169569D01*
X154750D01*
Y171819D01*
D02*
G37*
G36*
X150750D02*
X148250D01*
Y169569D01*
X150750D01*
Y171819D01*
D02*
G37*
G36*
X106941Y173858D02*
X101467D01*
Y167990D01*
X106941D01*
Y173858D01*
D02*
G37*
G36*
X106941Y155358D02*
X101467D01*
Y149490D01*
X106941D01*
Y155358D01*
D02*
G37*
G36*
X99967D02*
X94492D01*
Y149490D01*
X99967D01*
Y155358D01*
D02*
G37*
G36*
X42890Y149490D02*
X36890D01*
Y149003D01*
X36255Y148919D01*
X35586Y148642D01*
X35011Y148202D01*
X34570Y147627D01*
X34293Y146958D01*
X34199Y146240D01*
X34293Y145522D01*
X34570Y144853D01*
X35011Y144279D01*
X35586Y143838D01*
X36255Y143561D01*
X36890Y143477D01*
Y142990D01*
X42890D01*
Y149490D01*
D02*
G37*
G36*
X150750Y156069D02*
X148250D01*
Y153819D01*
X150750D01*
Y156069D01*
D02*
G37*
G36*
X54000Y171648D02*
X52538Y171456D01*
X51176Y170892D01*
X50006Y169994D01*
X49108Y168824D01*
X48544Y167462D01*
X48352Y166000D01*
X48544Y164538D01*
X49108Y163176D01*
X50006Y162006D01*
X51176Y161108D01*
X52538Y160544D01*
X54000Y160352D01*
X55462Y160544D01*
X56824Y161108D01*
X57994Y162006D01*
X58892Y163176D01*
X59456Y164538D01*
X59648Y166000D01*
X59456Y167462D01*
X58892Y168824D01*
X57994Y169994D01*
X56824Y170892D01*
X55462Y171456D01*
X54000Y171648D01*
D02*
G37*
G36*
X154750Y162069D02*
X148250D01*
Y159819D01*
Y157569D01*
X154750D01*
Y159819D01*
Y162069D01*
D02*
G37*
G36*
Y156069D02*
X152250D01*
Y153819D01*
X154750D01*
Y156069D01*
D02*
G37*
G36*
X118320Y137874D02*
X115109D01*
Y133187D01*
X118320D01*
Y137874D01*
D02*
G37*
G36*
X41793Y109717D02*
X39862D01*
Y106817D01*
X41793D01*
Y109717D01*
D02*
G37*
G36*
X30224Y109716D02*
X28293D01*
Y106817D01*
X30224D01*
Y109716D01*
D02*
G37*
G36*
X26793D02*
X24862D01*
Y106817D01*
X26793D01*
Y109716D01*
D02*
G37*
G36*
X45224Y109717D02*
X43293D01*
Y106817D01*
X45224D01*
Y109717D01*
D02*
G37*
G36*
X41313Y112490D02*
X38813D01*
Y110240D01*
X41313D01*
Y112490D01*
D02*
G37*
G36*
X30313D02*
X27813D01*
Y110240D01*
X30313D01*
Y112490D01*
D02*
G37*
G36*
X26313D02*
X23813D01*
Y110240D01*
X26313D01*
Y112490D01*
D02*
G37*
G36*
X41793Y105317D02*
X39862D01*
Y102417D01*
X41793D01*
Y105317D01*
D02*
G37*
G36*
X38313Y122740D02*
X31813D01*
Y116740D01*
X33024D01*
Y116240D01*
X31813D01*
Y110240D01*
X33024D01*
Y109717D01*
X32382D01*
Y102417D01*
X37744D01*
Y109717D01*
X37102D01*
Y110240D01*
X38313D01*
Y116240D01*
X37102D01*
Y116740D01*
X38313D01*
Y122740D01*
D02*
G37*
G36*
X30224Y105317D02*
X28293D01*
Y102417D01*
X30224D01*
Y105317D01*
D02*
G37*
G36*
X45224Y105317D02*
X43293D01*
Y102417D01*
X45224D01*
Y105317D01*
D02*
G37*
G36*
X53491Y109040D02*
X50991D01*
Y106790D01*
X53491D01*
Y109040D01*
D02*
G37*
G36*
X49491D02*
X46991D01*
Y106790D01*
X49491D01*
Y109040D01*
D02*
G37*
G36*
X125539Y104223D02*
D01*
D01*
X125539Y104223D01*
X125469Y104223D01*
X125185Y104165D01*
X125185D01*
X125115Y104165D01*
X125115Y104165D01*
Y104165D01*
X119514D01*
Y100302D01*
Y96441D01*
X125185D01*
Y96441D01*
X125242Y96498D01*
X125539Y96498D01*
X125539D01*
Y96498D01*
D01*
D01*
D01*
X131140D01*
Y100360D01*
Y104223D01*
X125539D01*
X125539Y104223D01*
D02*
G37*
G36*
X45313Y112490D02*
X42813D01*
Y110240D01*
X45313D01*
Y112490D01*
D02*
G37*
G36*
X49491Y121437D02*
X46991D01*
Y119187D01*
X49491D01*
Y121437D01*
D02*
G37*
G36*
X113609Y131687D02*
X110398D01*
Y127000D01*
X113609D01*
Y131687D01*
D02*
G37*
G36*
X53491Y117687D02*
X50991D01*
Y115437D01*
X53491D01*
Y117687D01*
D02*
G37*
G36*
X160224Y123232D02*
X154750D01*
Y118939D01*
X160224D01*
Y123232D01*
D02*
G37*
G36*
X96537Y134644D02*
X94037D01*
Y132394D01*
X96537D01*
Y134644D01*
D02*
G37*
G36*
X113609Y137874D02*
X110398D01*
Y133187D01*
X113609D01*
Y137874D01*
D02*
G37*
G36*
X118320Y131687D02*
X115109D01*
Y127000D01*
X118320D01*
Y131687D01*
D02*
G37*
G36*
X74726Y134644D02*
X72226D01*
Y132394D01*
X74726D01*
Y134644D01*
D02*
G37*
G36*
X30313Y116240D02*
X27813D01*
Y113990D01*
X30313D01*
Y116240D01*
D02*
G37*
G36*
X26313D02*
X23813D01*
Y113990D01*
X26313D01*
Y116240D01*
D02*
G37*
G36*
X160224Y117439D02*
X154750D01*
Y113146D01*
X160224D01*
Y117439D01*
D02*
G37*
G36*
X41313Y116240D02*
X38813D01*
Y113990D01*
X41313D01*
Y116240D01*
D02*
G37*
G36*
X49491Y117687D02*
X46991D01*
Y115437D01*
X49491D01*
Y117687D01*
D02*
G37*
G36*
X45313Y116240D02*
X42813D01*
Y113990D01*
X45313D01*
Y116240D01*
D02*
G37*
%LPD*%
G36*
X81341Y20740D02*
X80640D01*
Y14740D01*
Y9595D01*
X79685Y8640D01*
X78140D01*
Y8740D01*
X78140D01*
Y10990D01*
X74889D01*
Y12490D01*
X78140D01*
Y14740D01*
Y16990D01*
X74889D01*
Y17739D01*
X74140D01*
Y20740D01*
X73427D01*
X73236Y21202D01*
X75332Y23298D01*
X75774Y23960D01*
X75917Y24681D01*
X81341D01*
Y20740D01*
D02*
G37*
G36*
X158608Y150666D02*
Y144966D01*
X141308D01*
X141108Y145166D01*
Y148666D01*
Y150366D01*
X141908Y151166D01*
X142008Y151266D01*
X158008D01*
X158608Y150666D01*
D02*
G37*
%LPC*%
G36*
X78140Y20740D02*
X75640D01*
Y18490D01*
X78140D01*
Y20740D01*
D02*
G37*
%LPD*%
D15*
X25500Y77000D02*
D03*
X18500D02*
D03*
X25500Y87000D02*
D03*
X18500D02*
D03*
X50241Y118437D02*
D03*
X57241D02*
D03*
Y100040D02*
D03*
X50241D02*
D03*
X151500Y162819D02*
D03*
X144500D02*
D03*
X151500Y168819D02*
D03*
X144500D02*
D03*
X151500Y156819D02*
D03*
X144500D02*
D03*
X57241Y106040D02*
D03*
X50241D02*
D03*
X90890Y11740D02*
D03*
X83890D02*
D03*
X90890Y17740D02*
D03*
X83890D02*
D03*
X67890D02*
D03*
X74890D02*
D03*
X67890Y11740D02*
D03*
X74890D02*
D03*
X113909Y17784D02*
D03*
X120910D02*
D03*
X42063Y113240D02*
D03*
X35063D02*
D03*
Y119740D02*
D03*
X42063D02*
D03*
X20063D02*
D03*
X27063D02*
D03*
Y113240D02*
D03*
X20063D02*
D03*
X30390Y64866D02*
D03*
X37390D02*
D03*
X26890Y33374D02*
D03*
X19890D02*
D03*
X90287Y135394D02*
D03*
X97287D02*
D03*
X78476D02*
D03*
X71476D02*
D03*
Y142194D02*
D03*
X78476D02*
D03*
X101476Y125194D02*
D03*
X94476D02*
D03*
D19*
X56441Y135940D02*
D03*
Y128940D02*
D03*
X39890Y146240D02*
D03*
Y139240D02*
D03*
X142500Y146000D02*
D03*
Y139000D02*
D03*
X33890Y33374D02*
D03*
Y40374D02*
D03*
X55890Y22240D02*
D03*
Y15240D02*
D03*
X40390Y33374D02*
D03*
Y40374D02*
D03*
X49890Y22240D02*
D03*
Y15240D02*
D03*
X109063Y114240D02*
D03*
Y107240D02*
D03*
X147000Y40500D02*
D03*
Y33500D02*
D03*
X140500D02*
D03*
Y40500D02*
D03*
Y48500D02*
D03*
Y55500D02*
D03*
X147000D02*
D03*
Y48500D02*
D03*
D22*
X35063Y106067D02*
D03*
X42543D02*
D03*
X38803Y96980D02*
D03*
X20063Y106067D02*
D03*
X27543D02*
D03*
X23803Y96980D02*
D03*
D26*
X65130Y8540D02*
X77823D01*
X78976Y9694D01*
X60976Y9194D02*
X64476D01*
X65130Y8540D01*
X62241Y129937D02*
X71741D01*
X69741D02*
X70508Y129170D01*
X64241Y129937D02*
X65390Y128788D01*
X56441Y128940D02*
X61244D01*
X62241Y129937D01*
X98161Y115509D02*
X101976Y111694D01*
X98161Y115509D02*
Y117194D01*
X94224Y111946D02*
Y117194D01*
Y116946D02*
X94476Y116694D01*
X94224Y111946D02*
X94476Y111694D01*
X146000Y64000D02*
Y67907D01*
X80750Y129440D02*
X81810Y130500D01*
X79441Y129440D02*
X80750D01*
X81810Y130500D02*
X88894D01*
X90287Y131894D01*
X18550Y124240D02*
X26063D01*
X16063Y108063D02*
Y121754D01*
X27563Y119740D02*
Y122740D01*
X16063Y121754D02*
X18550Y124240D01*
X16000Y126740D02*
X38241D01*
X5000Y77000D02*
X18500D01*
X5000Y87000D02*
X18500D01*
X5000Y67000D02*
X15800D01*
X22200Y60600D01*
X5000Y47000D02*
X8300D01*
X67949Y100563D02*
Y104802D01*
X68387Y105240D01*
X88421Y121071D02*
Y125366D01*
X30390Y28374D02*
X36524Y22240D01*
X36890Y11740D02*
X67890D01*
X27390Y21240D02*
X36890Y11740D01*
X24917Y96366D02*
X27390D01*
X24303Y96980D02*
X24917Y96366D01*
X26063Y124240D02*
X27563Y122740D01*
X15390Y33374D02*
X19890D01*
X61256D02*
X63890Y30740D01*
X66890Y22240D02*
X68890Y24240D01*
Y28740D01*
X162587Y48740D02*
Y52240D01*
X5000Y107000D02*
Y115740D01*
X16000Y126740D01*
X5000Y97000D02*
X16063Y108063D01*
X135500Y42000D02*
X137000Y40500D01*
X140500D01*
Y55500D02*
Y58500D01*
X146000Y64000D01*
X162587Y33740D02*
Y37240D01*
X73890Y24740D02*
Y28740D01*
X67890Y18740D02*
X73890Y24740D01*
X39836Y146294D02*
X39890Y146240D01*
X36972D02*
X39890D01*
X140500Y48500D02*
X147000D01*
X153500D01*
X140500Y33500D02*
X147000D01*
X153500D01*
X26890Y33374D02*
X33890D01*
X40390D01*
X61256D01*
X36524Y22240D02*
X49890D01*
X55890D01*
X66890D01*
X67890Y11740D02*
Y17740D01*
Y18740D01*
X22300Y60500D02*
X64141D01*
X5000Y57000D02*
X65591D01*
X84685Y118866D02*
X85862Y120043D01*
Y125366D01*
X83303Y121562D02*
Y125366D01*
X80744Y122303D02*
Y125366D01*
X81126Y119386D02*
X82612Y120871D01*
X82612Y120871D02*
X83303Y121562D01*
X25500Y77000D02*
X63701D01*
X78185Y128184D02*
X79441Y129440D01*
X78185Y125366D02*
Y128184D01*
X77567Y119126D02*
X80744Y122303D01*
X67040Y53500D02*
X85862Y72322D01*
Y100563D01*
X65591Y57000D02*
X83303Y74713D01*
X64141Y60500D02*
X80744Y77103D01*
X38803Y94602D02*
Y96980D01*
X36630Y92429D02*
X38803Y94602D01*
X27390Y92429D02*
X36630D01*
X35063Y106067D02*
Y119740D01*
X38241Y126740D02*
X42063Y122918D01*
Y119740D02*
Y122918D01*
X20063Y106067D02*
Y119740D01*
X67949Y119645D02*
Y125366D01*
X73067D02*
Y128611D01*
X71741Y129937D02*
X73067Y128611D01*
X70508Y125366D02*
Y129170D01*
X65390Y125366D02*
Y128788D01*
X63701Y77000D02*
X78185Y91484D01*
X80744Y77103D02*
Y100563D01*
X83303Y74713D02*
Y100563D01*
X78185Y91484D02*
Y100563D01*
X67304Y87000D02*
X75626Y95322D01*
X25500Y87000D02*
X67304D01*
X75626Y95322D02*
Y100563D01*
X72241Y95437D02*
X73067Y96263D01*
Y100563D01*
X70508Y96204D02*
Y100563D01*
X65390Y96086D02*
Y100563D01*
X57241Y98437D02*
Y100040D01*
Y98437D02*
X60241Y95437D01*
X64741D02*
X65390Y96086D01*
X69741Y95437D02*
X70508Y96204D01*
X60241Y95437D02*
X72241D01*
X101787Y134894D02*
X105787D01*
X75626Y129043D02*
X78476Y131894D01*
X75626Y125366D02*
Y129043D01*
X8300Y47000D02*
X14800Y53500D01*
X67040D01*
X132500Y56433D02*
X135500Y53433D01*
X132500Y56933D02*
X132750Y56683D01*
X135500Y42000D02*
Y53433D01*
X26996Y64870D02*
X30390D01*
X63250Y136628D02*
X66250Y133628D01*
X63250Y136628D02*
Y137228D01*
X74976Y154194D02*
X78476Y150694D01*
Y131894D02*
Y150694D01*
X82476Y154194D02*
X83341Y153329D01*
Y133640D02*
Y153329D01*
X94476Y125194D02*
Y127705D01*
X90287Y131894D02*
X94476Y127705D01*
X87350Y142828D02*
X90287Y139891D01*
Y131894D02*
Y139891D01*
X89421Y120694D02*
X99476D01*
X101476Y122694D01*
Y125194D01*
X66741Y118437D02*
X67949Y119645D01*
X88421Y119694D02*
X89421Y120694D01*
D27*
X80741Y6091D02*
X83890Y9240D01*
X34166Y6091D02*
X80741D01*
X56441Y135940D02*
X59187Y133194D01*
X60476D01*
X144734Y83740D02*
X146908Y81566D01*
X151390Y163760D02*
Y168819D01*
X151500Y156819D02*
Y162819D01*
X149727Y107000D02*
X172000D01*
X145563Y74362D02*
X149063D01*
X161087Y86386D01*
X130000Y60000D02*
X131201D01*
X145563Y74362D01*
X161087Y86386D02*
Y95240D01*
X42543Y106067D02*
Y112760D01*
X42063Y113240D02*
X42543Y112760D01*
X8008Y17366D02*
Y36866D01*
X20264Y49122D01*
X27390D01*
X150346Y40500D02*
X150827Y40980D01*
X147000Y40500D02*
X150346D01*
X149827Y55980D02*
X153500D01*
X149346Y55500D02*
X149827Y55980D01*
X147000Y55500D02*
X149346D01*
X88890Y28740D02*
Y33240D01*
X151500Y168819D02*
X156390D01*
X150827Y40980D02*
X153500D01*
X15390Y24868D02*
Y29437D01*
Y24868D02*
X34166Y6091D01*
X74890Y17740D02*
X77890Y14740D01*
X74890Y11740D02*
X77890Y14740D01*
X78890D01*
X90890Y17740D02*
X93890Y14740D01*
X90890Y11740D02*
X93890Y14740D01*
X94890D01*
X49890Y15240D02*
X55890D01*
X60390D01*
X83890Y9240D02*
Y11740D01*
Y17740D01*
Y27740D01*
X57741Y106040D02*
X104976D01*
X27543Y106067D02*
X27563Y106087D01*
Y113240D01*
X71763Y118437D02*
X73781Y116419D01*
X73781D02*
X74741Y115459D01*
X86000D02*
X88421Y117880D01*
X74741Y115459D02*
X86000D01*
X55150Y122928D02*
X57241Y120837D01*
X52050Y125128D02*
X54250Y122928D01*
X55150D01*
X52050Y139728D02*
X54516Y142194D01*
X52050Y125128D02*
Y139728D01*
X57241Y114440D02*
Y120837D01*
X54516Y142194D02*
X71476D01*
X57241Y118437D02*
X71763D01*
X88421Y117880D02*
Y121071D01*
D31*
X5000Y97000D02*
D03*
Y87000D02*
D03*
Y77000D02*
D03*
Y67000D02*
D03*
Y57000D02*
D03*
Y47000D02*
D03*
X172000Y97000D02*
D03*
Y87000D02*
D03*
Y67000D02*
D03*
Y57000D02*
D03*
Y77000D02*
D03*
D32*
X5000Y107000D02*
D03*
X172000D02*
D03*
D33*
X87976Y111194D02*
D03*
X60476Y133194D02*
D03*
X14800Y37600D02*
D03*
X151900Y37800D02*
D03*
X162600Y21200D02*
D03*
X47000Y94500D02*
D03*
X115390Y118894D02*
D03*
X112390D02*
D03*
X109390D02*
D03*
X149727Y107000D02*
D03*
X104976Y106040D02*
D03*
X98161Y117194D02*
D03*
X94224D02*
D03*
X156500Y150000D02*
D03*
X149500D02*
D03*
X142500D02*
D03*
X8008Y17366D02*
D03*
X146908Y81566D02*
D03*
X78476Y131894D02*
D03*
X101787Y134894D02*
D03*
X137087Y161240D02*
D03*
X140087D02*
D03*
Y164240D02*
D03*
X137087D02*
D03*
X162587Y33740D02*
D03*
X146000Y67907D02*
D03*
X132500Y56433D02*
D03*
X57241Y114440D02*
D03*
X15390Y29437D02*
D03*
X84685Y118866D02*
D03*
X81126D02*
D03*
X27090Y92429D02*
D03*
Y96366D02*
D03*
X27390Y21240D02*
D03*
X15390Y33374D02*
D03*
X30390Y28374D02*
D03*
X60390Y15240D02*
D03*
X78890Y14740D02*
D03*
X94890D02*
D03*
X26996Y64870D02*
D03*
X12890Y134740D02*
D03*
X109390Y13685D02*
D03*
X112390D02*
D03*
X115390D02*
D03*
X27390Y49122D02*
D03*
X88890Y33240D02*
D03*
X156890Y173484D02*
D03*
X162587Y48740D02*
D03*
X130000Y60000D02*
D03*
X161087Y95240D02*
D03*
X29087Y100740D02*
D03*
X160200Y3300D02*
D03*
X36972Y146240D02*
D03*
X57800Y65900D02*
D03*
X97200Y66600D02*
D03*
X77750Y86000D02*
D03*
X115000Y80500D02*
D03*
X104000Y94500D02*
D03*
X131500Y88000D02*
D03*
X150500Y89500D02*
D03*
X162000Y82000D02*
D03*
X172000Y49000D02*
D03*
X163500Y65000D02*
D03*
X68700Y160500D02*
D03*
Y150500D02*
D03*
X42001Y162000D02*
D03*
X43100Y150800D02*
D03*
X40200Y134800D02*
D03*
X41887Y171712D02*
D03*
X68800Y171800D02*
D03*
X145176Y3894D02*
D03*
X143850Y18000D02*
D03*
X171000Y34500D02*
D03*
X137500Y18500D02*
D03*
X126500Y4000D02*
D03*
X172000Y22000D02*
D03*
X169000Y173500D02*
D03*
X116000Y169000D02*
D03*
X115500Y156500D02*
D03*
X116000Y146000D02*
D03*
X57000Y41500D02*
D03*
X82000Y52500D02*
D03*
X77500Y41000D02*
D03*
X100000Y31500D02*
D03*
X101000Y53500D02*
D03*
X17500Y14000D02*
D03*
X3000Y39500D02*
D03*
X4000Y119500D02*
D03*
X132100Y106100D02*
D03*
X132000Y95500D02*
D03*
X122500Y35500D02*
D03*
X45500Y37000D02*
D03*
X90287Y131894D02*
D03*
X83341Y133640D02*
D03*
X77567Y118866D02*
D03*
X66250Y133628D02*
D03*
X57950Y110500D02*
D03*
X67850Y92000D02*
D03*
X64350Y82500D02*
D03*
X44850Y82000D02*
D03*
X43850Y65000D02*
D03*
D34*
X70508Y100563D02*
D03*
X65390D02*
D03*
X73067Y125366D02*
D03*
X80744Y100563D02*
D03*
X83303D02*
D03*
X85862D02*
D03*
Y125366D02*
D03*
X83303D02*
D03*
X80744D02*
D03*
X75626Y100563D02*
D03*
X78185D02*
D03*
X73067D02*
D03*
X88421D02*
D03*
X67949D02*
D03*
X88421Y125366D02*
D03*
X67949D02*
D03*
X70508D02*
D03*
X75626D02*
D03*
X78185D02*
D03*
D35*
X101976Y111694D02*
D03*
X82476Y154194D02*
D03*
X63250Y137228D02*
D03*
X94476Y111694D02*
D03*
X105787Y135894D02*
D03*
X74976Y154194D02*
D03*
X88450Y142828D02*
D03*
D36*
X114359Y132437D02*
D03*
X129123D02*
D03*
D37*
X83890Y28740D02*
D03*
X73890D02*
D03*
X63890D02*
D03*
X78890D02*
D03*
X88890D02*
D03*
X68890D02*
D03*
D38*
X103732Y71654D02*
D03*
X47039D02*
D03*
D39*
X114390Y28740D02*
D03*
X128169D02*
D03*
Y42240D02*
D03*
X114390D02*
D03*
D40*
X100716Y167240D02*
D03*
X129063D02*
D03*
X100716Y148740D02*
D03*
X129063D02*
D03*
D41*
X154000Y118189D02*
D03*
Y141811D02*
D03*
D42*
X131890Y100361D02*
D03*
Y114140D02*
D03*
X118764Y100303D02*
D03*
Y114083D02*
D03*
D43*
X153500Y33500D02*
D03*
Y40980D02*
D03*
X162587Y37240D02*
D03*
X153500Y48500D02*
D03*
Y55980D02*
D03*
X162587Y52240D02*
D03*
D44*
X65390Y125366D02*
D03*
M02*
