%FSLAX25Y25*%
%MOIN*%
G70*
G01*
G75*
G04 Layer_Color=2752767*
%ADD10C,0.00800*%
%ADD11C,0.00667*%
D10*
X0Y7874D02*
G03*
X7874Y0I7874J0D01*
G01*
X169291D02*
G03*
X177165Y7874I0J7874D01*
G01*
X7874Y177165D02*
G03*
X0Y169291I0J-7874D01*
G01*
X177165Y169291D02*
G03*
X169291Y177165I-7874J0D01*
G01*
X7874Y0D02*
X169291D01*
X177165Y7874D02*
Y169291D01*
X7874Y177165D02*
X169291D01*
X0Y7874D02*
Y169291D01*
X3000Y95000D02*
Y99000D01*
X7000D01*
Y95000D01*
X3000D01*
Y105000D02*
Y109000D01*
X7000D01*
Y105000D01*
X3000D01*
Y85000D02*
Y89000D01*
X7000D01*
Y85000D01*
X3000D01*
Y75000D02*
Y79000D01*
X7000D01*
Y75000D01*
X3000D01*
Y65000D02*
Y69000D01*
X7000D01*
Y65000D01*
X3000D01*
Y55000D02*
Y59000D01*
X7000D01*
Y55000D01*
X3000D01*
Y45000D02*
Y49000D01*
X7000D01*
Y45000D01*
X3000D01*
X170000Y105000D02*
Y109000D01*
X174000D01*
Y105000D01*
X170000D01*
Y95000D02*
Y99000D01*
X174000D01*
Y95000D01*
X170000D01*
Y85000D02*
Y89000D01*
X174000D01*
Y85000D01*
X170000D01*
Y65000D02*
Y69000D01*
X174000D01*
Y65000D01*
X170000D01*
Y55000D02*
Y59000D01*
X174000D01*
Y55000D01*
X170000D01*
Y75000D02*
Y79000D01*
X174000D01*
Y75000D01*
X170000D01*
D11*
X89976Y111194D02*
G03*
X89976Y111194I-2000J0D01*
G01*
X62476Y133194D02*
G03*
X62476Y133194I-2000J0D01*
G01*
X16800Y37600D02*
G03*
X16800Y37600I-2000J0D01*
G01*
X153900Y37800D02*
G03*
X153900Y37800I-2000J0D01*
G01*
X164600Y21200D02*
G03*
X164600Y21200I-2000J0D01*
G01*
X49000Y94500D02*
G03*
X49000Y94500I-2000J0D01*
G01*
X117390Y118894D02*
G03*
X117390Y118894I-2000J0D01*
G01*
X114390D02*
G03*
X114390Y118894I-2000J0D01*
G01*
X111390D02*
G03*
X111390Y118894I-2000J0D01*
G01*
X151727Y107000D02*
G03*
X151727Y107000I-2000J0D01*
G01*
X106976Y106040D02*
G03*
X106976Y106040I-2000J0D01*
G01*
X100161Y117194D02*
G03*
X100161Y117194I-2000J0D01*
G01*
X96224D02*
G03*
X96224Y117194I-2000J0D01*
G01*
X158500Y150000D02*
G03*
X158500Y150000I-2000J0D01*
G01*
X151500D02*
G03*
X151500Y150000I-2000J0D01*
G01*
X144500D02*
G03*
X144500Y150000I-2000J0D01*
G01*
X10008Y17366D02*
G03*
X10008Y17366I-2000J0D01*
G01*
X148908Y81566D02*
G03*
X148908Y81566I-2000J0D01*
G01*
X80476Y131894D02*
G03*
X80476Y131894I-2000J0D01*
G01*
X103787Y134894D02*
G03*
X103787Y134894I-2000J0D01*
G01*
X139087Y161240D02*
G03*
X139087Y161240I-2000J0D01*
G01*
X142087D02*
G03*
X142087Y161240I-2000J0D01*
G01*
Y164240D02*
G03*
X142087Y164240I-2000J0D01*
G01*
X139087D02*
G03*
X139087Y164240I-2000J0D01*
G01*
X164587Y33740D02*
G03*
X164587Y33740I-2000J0D01*
G01*
X148000Y67907D02*
G03*
X148000Y67907I-2000J0D01*
G01*
X134500Y56433D02*
G03*
X134500Y56433I-2000J0D01*
G01*
X59241Y114440D02*
G03*
X59241Y114440I-2000J0D01*
G01*
X17390Y29437D02*
G03*
X17390Y29437I-2000J0D01*
G01*
X86685Y118866D02*
G03*
X86685Y118866I-2000J0D01*
G01*
X83126D02*
G03*
X83126Y118866I-2000J0D01*
G01*
X29090Y92429D02*
G03*
X29090Y92429I-2000J0D01*
G01*
Y96366D02*
G03*
X29090Y96366I-2000J0D01*
G01*
X29390Y21240D02*
G03*
X29390Y21240I-2000J0D01*
G01*
X17390Y33374D02*
G03*
X17390Y33374I-2000J0D01*
G01*
X32390Y28374D02*
G03*
X32390Y28374I-2000J0D01*
G01*
X62390Y15240D02*
G03*
X62390Y15240I-2000J0D01*
G01*
X80890Y14740D02*
G03*
X80890Y14740I-2000J0D01*
G01*
X96890D02*
G03*
X96890Y14740I-2000J0D01*
G01*
X28996Y64870D02*
G03*
X28996Y64870I-2000J0D01*
G01*
X14890Y134740D02*
G03*
X14890Y134740I-2000J0D01*
G01*
X111390Y13685D02*
G03*
X111390Y13685I-2000J0D01*
G01*
X114390D02*
G03*
X114390Y13685I-2000J0D01*
G01*
X117390D02*
G03*
X117390Y13685I-2000J0D01*
G01*
X29390Y49122D02*
G03*
X29390Y49122I-2000J0D01*
G01*
X90890Y33240D02*
G03*
X90890Y33240I-2000J0D01*
G01*
X158890Y173484D02*
G03*
X158890Y173484I-2000J0D01*
G01*
X164587Y48740D02*
G03*
X164587Y48740I-2000J0D01*
G01*
X132000Y60000D02*
G03*
X132000Y60000I-2000J0D01*
G01*
X163087Y95240D02*
G03*
X163087Y95240I-2000J0D01*
G01*
X31087Y100740D02*
G03*
X31087Y100740I-2000J0D01*
G01*
X162200Y3300D02*
G03*
X162200Y3300I-2000J0D01*
G01*
X38972Y146240D02*
G03*
X38972Y146240I-2000J0D01*
G01*
X59800Y65900D02*
G03*
X59800Y65900I-2000J0D01*
G01*
X99200Y66600D02*
G03*
X99200Y66600I-2000J0D01*
G01*
X79750Y86000D02*
G03*
X79750Y86000I-2000J0D01*
G01*
X117000Y80500D02*
G03*
X117000Y80500I-2000J0D01*
G01*
X106000Y94500D02*
G03*
X106000Y94500I-2000J0D01*
G01*
X133500Y88000D02*
G03*
X133500Y88000I-2000J0D01*
G01*
X152500Y89500D02*
G03*
X152500Y89500I-2000J0D01*
G01*
X164000Y82000D02*
G03*
X164000Y82000I-2000J0D01*
G01*
X174000Y49000D02*
G03*
X174000Y49000I-2000J0D01*
G01*
X165500Y65000D02*
G03*
X165500Y65000I-2000J0D01*
G01*
X70700Y160500D02*
G03*
X70700Y160500I-2000J0D01*
G01*
Y150500D02*
G03*
X70700Y150500I-2000J0D01*
G01*
X44001Y162000D02*
G03*
X44001Y162000I-2000J0D01*
G01*
X45100Y150800D02*
G03*
X45100Y150800I-2000J0D01*
G01*
X42200Y134800D02*
G03*
X42200Y134800I-2000J0D01*
G01*
X43887Y171712D02*
G03*
X43887Y171712I-2000J0D01*
G01*
X70800Y171800D02*
G03*
X70800Y171800I-2000J0D01*
G01*
X147176Y3894D02*
G03*
X147176Y3894I-2000J0D01*
G01*
X145850Y18000D02*
G03*
X145850Y18000I-2000J0D01*
G01*
X173000Y34500D02*
G03*
X173000Y34500I-2000J0D01*
G01*
X139500Y18500D02*
G03*
X139500Y18500I-2000J0D01*
G01*
X128500Y4000D02*
G03*
X128500Y4000I-2000J0D01*
G01*
X174000Y22000D02*
G03*
X174000Y22000I-2000J0D01*
G01*
X171000Y173500D02*
G03*
X171000Y173500I-2000J0D01*
G01*
X118000Y169000D02*
G03*
X118000Y169000I-2000J0D01*
G01*
X117500Y156500D02*
G03*
X117500Y156500I-2000J0D01*
G01*
X118000Y146000D02*
G03*
X118000Y146000I-2000J0D01*
G01*
X59000Y41500D02*
G03*
X59000Y41500I-2000J0D01*
G01*
X84000Y52500D02*
G03*
X84000Y52500I-2000J0D01*
G01*
X79500Y41000D02*
G03*
X79500Y41000I-2000J0D01*
G01*
X102000Y31500D02*
G03*
X102000Y31500I-2000J0D01*
G01*
X103000Y53500D02*
G03*
X103000Y53500I-2000J0D01*
G01*
X19500Y14000D02*
G03*
X19500Y14000I-2000J0D01*
G01*
X5000Y39500D02*
G03*
X5000Y39500I-2000J0D01*
G01*
X6000Y119500D02*
G03*
X6000Y119500I-2000J0D01*
G01*
X134100Y106100D02*
G03*
X134100Y106100I-2000J0D01*
G01*
X134000Y95500D02*
G03*
X134000Y95500I-2000J0D01*
G01*
X124500Y35500D02*
G03*
X124500Y35500I-2000J0D01*
G01*
X47500Y37000D02*
G03*
X47500Y37000I-2000J0D01*
G01*
X92287Y131894D02*
G03*
X92287Y131894I-2000J0D01*
G01*
X85341Y133640D02*
G03*
X85341Y133640I-2000J0D01*
G01*
X79567Y118866D02*
G03*
X79567Y118866I-2000J0D01*
G01*
X68250Y133628D02*
G03*
X68250Y133628I-2000J0D01*
G01*
X59950Y110500D02*
G03*
X59950Y110500I-2000J0D01*
G01*
X69850Y92000D02*
G03*
X69850Y92000I-2000J0D01*
G01*
X66350Y82500D02*
G03*
X66350Y82500I-2000J0D01*
G01*
X46850Y82000D02*
G03*
X46850Y82000I-2000J0D01*
G01*
X45850Y65000D02*
G03*
X45850Y65000I-2000J0D01*
G01*
M02*
