%FSLAX25Y25*%
%MOIN*%
G70*
G01*
G75*
G04 Layer_Color=32896*
%ADD10R,0.07874X0.07874*%
%ADD11R,0.02362X0.07874*%
%ADD12R,0.07874X0.02362*%
%ADD13R,0.11811X0.04213*%
%ADD14R,0.37008X0.27559*%
%ADD15R,0.03500X0.03000*%
%ADD16R,0.12992X0.07087*%
%ADD17R,0.04134X0.08661*%
%ADD18R,0.03937X0.04331*%
%ADD19R,0.03000X0.03500*%
%ADD20R,0.04331X0.03937*%
%ADD21R,0.08661X0.04134*%
%ADD22R,0.02362X0.04299*%
%ADD23R,0.01575X0.03937*%
%ADD24R,0.07874X0.03937*%
%ADD25C,0.01500*%
%ADD26C,0.01000*%
%ADD27C,0.02000*%
%ADD28C,0.07000*%
%ADD29C,0.03150*%
%ADD30C,0.04000*%
%ADD31C,0.06000*%
%ADD32R,0.06000X0.06000*%
%ADD33C,0.02500*%
%ADD34R,0.01181X0.04724*%
%ADD35C,0.04000*%
%ADD36R,0.04921X0.07874*%
%ADD37R,0.03150X0.05118*%
%ADD38R,0.05906X0.06693*%
%ADD39R,0.04724X0.09843*%
%ADD40R,0.09449X0.10236*%
%ADD41R,0.09449X0.07087*%
%ADD42R,0.09843X0.04724*%
%ADD43R,0.04299X0.02362*%
%ADD44O,0.01181X0.04724*%
%ADD45C,0.01600*%
%ADD46C,0.00500*%
%ADD47C,0.00787*%
%ADD48C,0.00800*%
%ADD49C,0.00600*%
%ADD50C,0.00700*%
%ADD51R,0.62598X0.35433*%
%ADD52C,0.00100*%
%ADD53R,0.01181X0.08412*%
%ADD54R,0.01300X0.11811*%
%ADD55R,0.01870X0.17323*%
%ADD56R,0.13988X0.01000*%
%ADD57R,0.11811X0.01300*%
G36*
X114739Y83000D02*
X114111D01*
Y83628D01*
X114739D01*
Y83000D01*
D02*
G37*
G36*
X145385Y86319D02*
X145494Y86313D01*
X145693Y86272D01*
X145870Y86210D01*
X145945Y86176D01*
X146014Y86149D01*
X146082Y86115D01*
X146136Y86080D01*
X146184Y86046D01*
X146225Y86019D01*
X146259Y85998D01*
X146280Y85978D01*
X146294Y85971D01*
X146300Y85964D01*
X146389Y85875D01*
X146464Y85780D01*
X146533Y85677D01*
X146587Y85568D01*
X146635Y85459D01*
X146676Y85350D01*
X146710Y85240D01*
X146738Y85131D01*
X146758Y85028D01*
X146772Y84933D01*
X146785Y84851D01*
X146792Y84776D01*
Y84714D01*
X146799Y84667D01*
Y84639D01*
Y84626D01*
X146792Y84475D01*
X146779Y84332D01*
X146758Y84202D01*
X146731Y84079D01*
X146703Y83970D01*
X146669Y83861D01*
X146628Y83772D01*
X146587Y83683D01*
X146553Y83608D01*
X146512Y83546D01*
X146478Y83492D01*
X146444Y83444D01*
X146423Y83410D01*
X146403Y83382D01*
X146389Y83369D01*
X146382Y83362D01*
X146300Y83287D01*
X146212Y83219D01*
X146123Y83157D01*
X146027Y83109D01*
X145938Y83068D01*
X145843Y83034D01*
X145672Y82980D01*
X145590Y82959D01*
X145515Y82945D01*
X145447Y82938D01*
X145392Y82932D01*
X145344Y82925D01*
X145276D01*
X145119Y82932D01*
X144975Y82959D01*
X144846Y82986D01*
X144729Y83027D01*
X144634Y83061D01*
X144559Y83096D01*
X144532Y83102D01*
X144511Y83116D01*
X144504Y83123D01*
X144497D01*
X144368Y83205D01*
X144258Y83294D01*
X144163Y83382D01*
X144088Y83471D01*
X144026Y83553D01*
X143978Y83615D01*
X143951Y83662D01*
X143944Y83669D01*
Y83676D01*
X143883Y83820D01*
X143835Y83983D01*
X143801Y84147D01*
X143773Y84304D01*
X143766Y84380D01*
X143760Y84448D01*
Y84509D01*
X143753Y84564D01*
Y84605D01*
Y84639D01*
Y84660D01*
Y84667D01*
X143760Y84810D01*
X143773Y84940D01*
X143794Y85070D01*
X143821Y85186D01*
X143855Y85295D01*
X143889Y85391D01*
X143930Y85486D01*
X143965Y85568D01*
X144006Y85636D01*
X144046Y85705D01*
X144081Y85759D01*
X144115Y85800D01*
X144142Y85834D01*
X144163Y85862D01*
X144176Y85875D01*
X144183Y85882D01*
X144265Y85957D01*
X144354Y86026D01*
X144443Y86087D01*
X144532Y86142D01*
X144627Y86183D01*
X144716Y86217D01*
X144887Y86272D01*
X144969Y86292D01*
X145044Y86306D01*
X145105Y86313D01*
X145167Y86319D01*
X145214Y86326D01*
X145276D01*
X145385Y86319D01*
D02*
G37*
G36*
X139634Y84229D02*
Y84106D01*
X139628Y84004D01*
Y83915D01*
X139621Y83840D01*
X139614Y83785D01*
Y83751D01*
X139607Y83724D01*
Y83717D01*
X139586Y83628D01*
X139559Y83553D01*
X139532Y83485D01*
X139498Y83424D01*
X139477Y83376D01*
X139457Y83335D01*
X139443Y83314D01*
X139436Y83307D01*
X139382Y83246D01*
X139327Y83198D01*
X139266Y83150D01*
X139204Y83109D01*
X139149Y83075D01*
X139108Y83055D01*
X139081Y83041D01*
X139067Y83034D01*
X138972Y83000D01*
X138876Y82973D01*
X138787Y82952D01*
X138706Y82938D01*
X138630Y82932D01*
X138576Y82925D01*
X138528D01*
X138412Y82932D01*
X138296Y82945D01*
X138193Y82973D01*
X138091Y83014D01*
X138002Y83055D01*
X137913Y83096D01*
X137838Y83150D01*
X137770Y83198D01*
X137708Y83246D01*
X137654Y83301D01*
X137606Y83341D01*
X137565Y83389D01*
X137538Y83424D01*
X137517Y83451D01*
X137503Y83464D01*
X137497Y83471D01*
Y83000D01*
X137005D01*
Y86251D01*
X137558D01*
Y84503D01*
X137565Y84359D01*
X137572Y84229D01*
X137585Y84120D01*
X137606Y84031D01*
X137626Y83956D01*
X137640Y83908D01*
X137647Y83881D01*
X137654Y83867D01*
X137695Y83792D01*
X137736Y83724D01*
X137790Y83662D01*
X137838Y83615D01*
X137886Y83574D01*
X137927Y83546D01*
X137954Y83526D01*
X137961Y83519D01*
X138043Y83478D01*
X138125Y83451D01*
X138200Y83424D01*
X138268Y83410D01*
X138330Y83403D01*
X138378Y83396D01*
X138419D01*
X138507Y83403D01*
X138589Y83417D01*
X138658Y83437D01*
X138719Y83458D01*
X138767Y83478D01*
X138801Y83499D01*
X138828Y83512D01*
X138835Y83519D01*
X138890Y83567D01*
X138938Y83622D01*
X138979Y83683D01*
X139006Y83738D01*
X139026Y83785D01*
X139040Y83826D01*
X139054Y83854D01*
Y83861D01*
X139061Y83929D01*
X139067Y84018D01*
X139074Y84113D01*
Y84209D01*
X139081Y84298D01*
Y84373D01*
Y84400D01*
Y84421D01*
Y84434D01*
Y84441D01*
Y86251D01*
X139634D01*
Y84229D01*
D02*
G37*
G36*
X133542Y86319D02*
X133658Y86306D01*
X133767Y86285D01*
X133870Y86258D01*
X133972Y86217D01*
X134061Y86183D01*
X134143Y86142D01*
X134218Y86101D01*
X134286Y86053D01*
X134341Y86012D01*
X134396Y85978D01*
X134437Y85944D01*
X134471Y85910D01*
X134491Y85889D01*
X134505Y85875D01*
X134512Y85869D01*
X134587Y85780D01*
X134649Y85684D01*
X134703Y85582D01*
X134751Y85479D01*
X134792Y85370D01*
X134826Y85268D01*
X134874Y85063D01*
X134894Y84967D01*
X134908Y84878D01*
X134915Y84796D01*
X134922Y84728D01*
X134929Y84673D01*
Y84626D01*
Y84598D01*
Y84591D01*
X134922Y84448D01*
X134908Y84311D01*
X134888Y84182D01*
X134860Y84066D01*
X134833Y83956D01*
X134799Y83854D01*
X134758Y83765D01*
X134717Y83683D01*
X134683Y83608D01*
X134642Y83540D01*
X134608Y83485D01*
X134573Y83444D01*
X134553Y83410D01*
X134532Y83382D01*
X134519Y83369D01*
X134512Y83362D01*
X134430Y83287D01*
X134341Y83219D01*
X134252Y83157D01*
X134157Y83109D01*
X134068Y83068D01*
X133972Y83034D01*
X133795Y82980D01*
X133706Y82959D01*
X133631Y82945D01*
X133563Y82938D01*
X133501Y82932D01*
X133453Y82925D01*
X133385D01*
X133180Y82938D01*
X133002Y82966D01*
X132838Y83014D01*
X132709Y83061D01*
X132647Y83089D01*
X132599Y83109D01*
X132559Y83137D01*
X132524Y83157D01*
X132490Y83171D01*
X132470Y83184D01*
X132463Y83198D01*
X132456D01*
X132333Y83307D01*
X132224Y83437D01*
X132142Y83567D01*
X132073Y83690D01*
X132019Y83806D01*
X131998Y83854D01*
X131985Y83895D01*
X131971Y83929D01*
X131964Y83956D01*
X131957Y83970D01*
Y83977D01*
X132524Y84052D01*
X132579Y83929D01*
X132634Y83820D01*
X132688Y83731D01*
X132743Y83662D01*
X132791Y83601D01*
X132832Y83567D01*
X132859Y83540D01*
X132866Y83533D01*
X132948Y83478D01*
X133037Y83444D01*
X133125Y83417D01*
X133207Y83396D01*
X133276Y83382D01*
X133330Y83376D01*
X133385D01*
X133528Y83389D01*
X133658Y83417D01*
X133774Y83464D01*
X133877Y83519D01*
X133952Y83567D01*
X134013Y83615D01*
X134047Y83642D01*
X134061Y83656D01*
X134150Y83772D01*
X134225Y83908D01*
X134273Y84045D01*
X134314Y84175D01*
X134341Y84298D01*
X134348Y84346D01*
X134355Y84393D01*
Y84427D01*
X134362Y84462D01*
Y84475D01*
Y84482D01*
X131944D01*
X131937Y84544D01*
Y84591D01*
Y84619D01*
Y84626D01*
X131944Y84776D01*
X131957Y84912D01*
X131978Y85042D01*
X131998Y85158D01*
X132033Y85274D01*
X132067Y85377D01*
X132108Y85466D01*
X132142Y85554D01*
X132183Y85629D01*
X132224Y85691D01*
X132258Y85746D01*
X132285Y85794D01*
X132313Y85828D01*
X132333Y85855D01*
X132347Y85869D01*
X132354Y85875D01*
X132436Y85957D01*
X132518Y86026D01*
X132606Y86087D01*
X132695Y86135D01*
X132784Y86183D01*
X132873Y86217D01*
X133037Y86272D01*
X133118Y86292D01*
X133187Y86306D01*
X133255Y86313D01*
X133310Y86319D01*
X133358Y86326D01*
X133419D01*
X133542Y86319D01*
D02*
G37*
G36*
X119964Y83000D02*
X119336D01*
Y83628D01*
X119964D01*
Y83000D01*
D02*
G37*
G36*
X136151D02*
X135598D01*
Y87487D01*
X136151D01*
Y83000D01*
D02*
G37*
G36*
X160500Y84578D02*
Y84072D01*
X158553D01*
Y83000D01*
X158000D01*
Y84072D01*
X157392D01*
Y84578D01*
X158000D01*
Y87480D01*
X158451D01*
X160500Y84578D01*
D02*
G37*
G36*
X154763Y87549D02*
X154981Y87521D01*
X155186Y87474D01*
X155275Y87446D01*
X155357Y87426D01*
X155432Y87398D01*
X155500Y87371D01*
X155562Y87351D01*
X155610Y87323D01*
X155644Y87310D01*
X155678Y87296D01*
X155692Y87282D01*
X155699D01*
X155794Y87228D01*
X155876Y87166D01*
X156040Y87037D01*
X156170Y86900D01*
X156286Y86763D01*
X156368Y86634D01*
X156402Y86586D01*
X156436Y86538D01*
X156457Y86497D01*
X156470Y86470D01*
X156484Y86449D01*
Y86442D01*
X156573Y86231D01*
X156641Y86012D01*
X156689Y85807D01*
X156723Y85616D01*
X156737Y85534D01*
X156744Y85459D01*
X156750Y85391D01*
Y85329D01*
X156757Y85281D01*
Y85247D01*
Y85227D01*
Y85220D01*
X156744Y84981D01*
X156716Y84755D01*
X156668Y84550D01*
X156648Y84455D01*
X156621Y84373D01*
X156593Y84291D01*
X156573Y84223D01*
X156545Y84161D01*
X156525Y84113D01*
X156511Y84072D01*
X156498Y84045D01*
X156484Y84025D01*
Y84018D01*
X156368Y83833D01*
X156238Y83669D01*
X156108Y83526D01*
X155972Y83410D01*
X155856Y83321D01*
X155808Y83287D01*
X155760Y83259D01*
X155726Y83232D01*
X155692Y83219D01*
X155678Y83212D01*
X155671Y83205D01*
X155466Y83109D01*
X155255Y83041D01*
X155057Y82993D01*
X154865Y82959D01*
X154783Y82945D01*
X154708Y82938D01*
X154640Y82932D01*
X154578D01*
X154531Y82925D01*
X154469D01*
X154291Y82932D01*
X154114Y82952D01*
X153957Y82980D01*
X153813Y83014D01*
X153752Y83027D01*
X153691Y83041D01*
X153643Y83055D01*
X153602Y83068D01*
X153568Y83082D01*
X153540Y83089D01*
X153527Y83096D01*
X153520D01*
X153349Y83171D01*
X153178Y83253D01*
X153028Y83341D01*
X152891Y83424D01*
X152775Y83505D01*
X152727Y83533D01*
X152687Y83567D01*
X152652Y83587D01*
X152632Y83608D01*
X152618Y83615D01*
X152611Y83622D01*
Y85288D01*
X154510D01*
Y84762D01*
X153192D01*
Y83915D01*
X153274Y83854D01*
X153363Y83792D01*
X153451Y83738D01*
X153540Y83690D01*
X153622Y83649D01*
X153691Y83622D01*
X153718Y83608D01*
X153738Y83601D01*
X153745Y83594D01*
X153752D01*
X153889Y83546D01*
X154025Y83512D01*
X154155Y83485D01*
X154264Y83471D01*
X154360Y83458D01*
X154435Y83451D01*
X154503D01*
X154667Y83458D01*
X154824Y83478D01*
X154961Y83512D01*
X155091Y83546D01*
X155193Y83581D01*
X155241Y83601D01*
X155275Y83615D01*
X155302Y83622D01*
X155323Y83635D01*
X155336Y83642D01*
X155343D01*
X155480Y83724D01*
X155603Y83820D01*
X155705Y83922D01*
X155787Y84018D01*
X155849Y84106D01*
X155897Y84175D01*
X155917Y84202D01*
X155931Y84223D01*
X155938Y84236D01*
Y84243D01*
X156006Y84407D01*
X156054Y84571D01*
X156095Y84742D01*
X156115Y84906D01*
X156122Y84974D01*
X156129Y85042D01*
X156136Y85104D01*
Y85151D01*
X156142Y85199D01*
Y85227D01*
Y85247D01*
Y85254D01*
X156136Y85431D01*
X156115Y85602D01*
X156088Y85752D01*
X156054Y85889D01*
X156026Y85998D01*
X156013Y86046D01*
X155999Y86080D01*
X155985Y86115D01*
X155979Y86135D01*
X155972Y86149D01*
Y86155D01*
X155931Y86244D01*
X155890Y86326D01*
X155842Y86401D01*
X155794Y86470D01*
X155753Y86524D01*
X155719Y86565D01*
X155699Y86593D01*
X155692Y86599D01*
X155617Y86674D01*
X155541Y86736D01*
X155459Y86791D01*
X155384Y86839D01*
X155316Y86879D01*
X155261Y86907D01*
X155227Y86920D01*
X155214Y86927D01*
X155097Y86968D01*
X154981Y87002D01*
X154858Y87023D01*
X154749Y87043D01*
X154654Y87050D01*
X154578Y87057D01*
X154510D01*
X154387Y87050D01*
X154271Y87037D01*
X154169Y87016D01*
X154080Y86996D01*
X154005Y86975D01*
X153943Y86955D01*
X153909Y86941D01*
X153895Y86934D01*
X153793Y86886D01*
X153711Y86839D01*
X153636Y86784D01*
X153574Y86736D01*
X153527Y86688D01*
X153492Y86654D01*
X153472Y86627D01*
X153465Y86620D01*
X153410Y86538D01*
X153363Y86449D01*
X153322Y86360D01*
X153287Y86278D01*
X153260Y86196D01*
X153233Y86135D01*
X153226Y86094D01*
X153219Y86087D01*
Y86080D01*
X152680Y86231D01*
X152727Y86395D01*
X152782Y86538D01*
X152837Y86661D01*
X152891Y86763D01*
X152946Y86852D01*
X152987Y86914D01*
X153014Y86948D01*
X153021Y86961D01*
X153110Y87064D01*
X153212Y87146D01*
X153315Y87221D01*
X153417Y87282D01*
X153506Y87337D01*
X153574Y87371D01*
X153602Y87385D01*
X153622Y87392D01*
X153636Y87398D01*
X153643D01*
X153793Y87453D01*
X153943Y87494D01*
X154094Y87521D01*
X154223Y87542D01*
X154339Y87556D01*
X154394D01*
X154435Y87562D01*
X154517D01*
X154763Y87549D01*
D02*
G37*
G36*
X111652Y87398D02*
X111727Y87289D01*
X111809Y87187D01*
X111891Y87091D01*
X111966Y87016D01*
X112028Y86955D01*
X112068Y86914D01*
X112075Y86907D01*
X112082Y86900D01*
X112212Y86791D01*
X112348Y86688D01*
X112485Y86599D01*
X112608Y86524D01*
X112717Y86463D01*
X112765Y86442D01*
X112806Y86422D01*
X112833Y86401D01*
X112861Y86388D01*
X112874Y86381D01*
X112881D01*
Y85841D01*
X112786Y85882D01*
X112683Y85930D01*
X112588Y85971D01*
X112499Y86019D01*
X112424Y86060D01*
X112362Y86094D01*
X112321Y86121D01*
X112314Y86128D01*
X112308D01*
X112191Y86196D01*
X112089Y86272D01*
X112000Y86333D01*
X111925Y86395D01*
X111864Y86442D01*
X111816Y86476D01*
X111788Y86504D01*
X111782Y86511D01*
Y83000D01*
X111228D01*
Y87508D01*
X111590D01*
X111652Y87398D01*
D02*
G37*
G36*
X116877D02*
X116952Y87289D01*
X117034Y87187D01*
X117116Y87091D01*
X117191Y87016D01*
X117252Y86955D01*
X117293Y86914D01*
X117300Y86907D01*
X117307Y86900D01*
X117437Y86791D01*
X117573Y86688D01*
X117710Y86599D01*
X117833Y86524D01*
X117942Y86463D01*
X117990Y86442D01*
X118031Y86422D01*
X118058Y86401D01*
X118086Y86388D01*
X118099Y86381D01*
X118106D01*
Y85841D01*
X118011Y85882D01*
X117908Y85930D01*
X117813Y85971D01*
X117724Y86019D01*
X117649Y86060D01*
X117587Y86094D01*
X117546Y86121D01*
X117539Y86128D01*
X117533D01*
X117416Y86196D01*
X117314Y86272D01*
X117225Y86333D01*
X117150Y86395D01*
X117088Y86442D01*
X117041Y86476D01*
X117013Y86504D01*
X117007Y86511D01*
Y83000D01*
X116453D01*
Y87508D01*
X116815D01*
X116877Y87398D01*
D02*
G37*
G36*
X122102D02*
X122177Y87289D01*
X122259Y87187D01*
X122341Y87091D01*
X122416Y87016D01*
X122477Y86955D01*
X122518Y86914D01*
X122525Y86907D01*
X122532Y86900D01*
X122662Y86791D01*
X122798Y86688D01*
X122935Y86599D01*
X123058Y86524D01*
X123167Y86463D01*
X123215Y86442D01*
X123256Y86422D01*
X123283Y86401D01*
X123311Y86388D01*
X123324Y86381D01*
X123331D01*
Y85841D01*
X123235Y85882D01*
X123133Y85930D01*
X123037Y85971D01*
X122949Y86019D01*
X122873Y86060D01*
X122812Y86094D01*
X122771Y86121D01*
X122764Y86128D01*
X122757D01*
X122641Y86196D01*
X122539Y86272D01*
X122450Y86333D01*
X122375Y86395D01*
X122313Y86442D01*
X122266Y86476D01*
X122238Y86504D01*
X122231Y86511D01*
Y83000D01*
X121678D01*
Y87508D01*
X122040D01*
X122102Y87398D01*
D02*
G37*
G36*
X131773Y81757D02*
X128126D01*
Y82153D01*
X131773D01*
Y81757D01*
D02*
G37*
G36*
X126432Y83000D02*
X125824D01*
X124069Y87487D01*
X124670D01*
X125886Y84229D01*
X125933Y84093D01*
X125981Y83956D01*
X126022Y83833D01*
X126056Y83724D01*
X126084Y83628D01*
X126104Y83553D01*
X126111Y83526D01*
X126118Y83505D01*
X126125Y83499D01*
Y83492D01*
X126200Y83751D01*
X126241Y83874D01*
X126282Y83990D01*
X126316Y84086D01*
X126336Y84161D01*
X126350Y84188D01*
X126357Y84209D01*
X126364Y84223D01*
Y84229D01*
X127525Y87487D01*
X128174D01*
X126432Y83000D01*
D02*
G37*
G36*
X151758D02*
X151184D01*
Y86818D01*
X149893Y83000D01*
X149360D01*
X148049Y86756D01*
Y83000D01*
X147475D01*
Y87487D01*
X148281D01*
X149353Y84366D01*
X149408Y84195D01*
X149463Y84052D01*
X149504Y83929D01*
X149531Y83826D01*
X149558Y83751D01*
X149579Y83697D01*
X149586Y83662D01*
X149592Y83649D01*
X149620Y83738D01*
X149654Y83847D01*
X149688Y83956D01*
X149722Y84066D01*
X149756Y84161D01*
X149784Y84236D01*
X149791Y84270D01*
X149797Y84291D01*
X149804Y84304D01*
Y84311D01*
X150870Y87487D01*
X151758D01*
Y83000D01*
D02*
G37*
G36*
X141048Y85875D02*
X141103Y85944D01*
X141164Y86012D01*
X141233Y86067D01*
X141287Y86108D01*
X141342Y86149D01*
X141383Y86176D01*
X141410Y86190D01*
X141424Y86196D01*
X141513Y86237D01*
X141601Y86272D01*
X141690Y86292D01*
X141765Y86313D01*
X141840Y86319D01*
X141895Y86326D01*
X141943D01*
X142086Y86319D01*
X142223Y86292D01*
X142346Y86258D01*
X142455Y86224D01*
X142544Y86183D01*
X142612Y86149D01*
X142653Y86121D01*
X142660Y86115D01*
X142667D01*
X142783Y86026D01*
X142879Y85930D01*
X142961Y85828D01*
X143029Y85725D01*
X143084Y85636D01*
X143118Y85568D01*
X143131Y85541D01*
X143145Y85520D01*
X143152Y85507D01*
Y85500D01*
X143206Y85350D01*
X143241Y85192D01*
X143268Y85049D01*
X143288Y84912D01*
X143302Y84796D01*
Y84742D01*
X143309Y84701D01*
Y84667D01*
Y84639D01*
Y84626D01*
Y84619D01*
X143302Y84434D01*
X143282Y84270D01*
X143254Y84120D01*
X143220Y83990D01*
X143186Y83881D01*
X143172Y83833D01*
X143159Y83799D01*
X143145Y83772D01*
X143138Y83751D01*
X143131Y83738D01*
Y83731D01*
X143056Y83594D01*
X142981Y83478D01*
X142892Y83376D01*
X142817Y83294D01*
X142742Y83225D01*
X142687Y83178D01*
X142646Y83143D01*
X142640Y83137D01*
X142633D01*
X142510Y83068D01*
X142380Y83014D01*
X142264Y82980D01*
X142148Y82952D01*
X142059Y82938D01*
X141984Y82932D01*
X141956Y82925D01*
X141916D01*
X141806Y82932D01*
X141704Y82945D01*
X141608Y82966D01*
X141519Y83000D01*
X141444Y83034D01*
X141369Y83075D01*
X141301Y83123D01*
X141239Y83164D01*
X141185Y83212D01*
X141137Y83253D01*
X141096Y83294D01*
X141069Y83328D01*
X141041Y83362D01*
X141021Y83382D01*
X141014Y83396D01*
X141007Y83403D01*
Y83000D01*
X140495D01*
Y87487D01*
X141048D01*
Y85875D01*
D02*
G37*
%LPC*%
G36*
X158553Y86586D02*
Y84578D01*
X159960D01*
X158553Y86586D01*
D02*
G37*
G36*
X133446Y85875D02*
X133412D01*
X133337Y85869D01*
X133262Y85862D01*
X133132Y85828D01*
X133016Y85773D01*
X132914Y85711D01*
X132838Y85650D01*
X132777Y85602D01*
X132743Y85561D01*
X132729Y85554D01*
Y85548D01*
X132668Y85466D01*
X132627Y85363D01*
X132586Y85261D01*
X132559Y85165D01*
X132538Y85076D01*
X132524Y85001D01*
Y84974D01*
X132518Y84953D01*
Y84940D01*
Y84933D01*
X134334D01*
X134314Y85083D01*
X134280Y85220D01*
X134232Y85336D01*
X134184Y85431D01*
X134136Y85513D01*
X134095Y85568D01*
X134068Y85602D01*
X134054Y85616D01*
X133952Y85705D01*
X133843Y85766D01*
X133740Y85814D01*
X133638Y85841D01*
X133549Y85862D01*
X133474Y85869D01*
X133446Y85875D01*
D02*
G37*
G36*
X141922Y85869D02*
X141820D01*
X141752Y85855D01*
X141629Y85821D01*
X141519Y85766D01*
X141431Y85711D01*
X141356Y85657D01*
X141301Y85602D01*
X141267Y85568D01*
X141253Y85561D01*
Y85554D01*
X141205Y85493D01*
X141164Y85425D01*
X141103Y85268D01*
X141055Y85104D01*
X141028Y84947D01*
X141007Y84796D01*
X141000Y84735D01*
Y84680D01*
X140993Y84632D01*
Y84598D01*
Y84578D01*
Y84571D01*
Y84462D01*
X141007Y84359D01*
X141014Y84263D01*
X141034Y84175D01*
X141055Y84093D01*
X141076Y84018D01*
X141096Y83949D01*
X141116Y83895D01*
X141144Y83840D01*
X141164Y83792D01*
X141185Y83758D01*
X141205Y83724D01*
X141226Y83704D01*
X141233Y83683D01*
X141246Y83676D01*
Y83669D01*
X141294Y83615D01*
X141342Y83574D01*
X141451Y83499D01*
X141554Y83451D01*
X141649Y83410D01*
X141731Y83389D01*
X141799Y83382D01*
X141827Y83376D01*
X141861D01*
X141929Y83382D01*
X141991Y83389D01*
X142114Y83424D01*
X142216Y83471D01*
X142305Y83533D01*
X142380Y83587D01*
X142435Y83635D01*
X142469Y83669D01*
X142482Y83683D01*
X142530Y83745D01*
X142571Y83813D01*
X142633Y83956D01*
X142681Y84113D01*
X142708Y84263D01*
X142728Y84407D01*
X142735Y84462D01*
Y84516D01*
X142742Y84557D01*
Y84591D01*
Y84612D01*
Y84619D01*
Y84735D01*
X142728Y84844D01*
X142721Y84947D01*
X142701Y85042D01*
X142687Y85124D01*
X142667Y85206D01*
X142640Y85274D01*
X142619Y85336D01*
X142599Y85391D01*
X142571Y85438D01*
X142551Y85479D01*
X142537Y85513D01*
X142517Y85534D01*
X142510Y85554D01*
X142496Y85568D01*
X142448Y85623D01*
X142401Y85671D01*
X142298Y85739D01*
X142196Y85794D01*
X142100Y85834D01*
X142018Y85855D01*
X141950Y85862D01*
X141922Y85869D01*
D02*
G37*
G36*
X145317D02*
X145201D01*
X145133Y85855D01*
X145003Y85821D01*
X144887Y85766D01*
X144784Y85711D01*
X144709Y85657D01*
X144648Y85602D01*
X144613Y85568D01*
X144600Y85561D01*
Y85554D01*
X144504Y85425D01*
X144436Y85281D01*
X144388Y85124D01*
X144354Y84981D01*
X144333Y84844D01*
X144327Y84790D01*
Y84742D01*
X144320Y84694D01*
Y84667D01*
Y84646D01*
Y84639D01*
Y84523D01*
X144333Y84414D01*
X144347Y84311D01*
X144361Y84223D01*
X144381Y84134D01*
X144409Y84052D01*
X144429Y83983D01*
X144456Y83922D01*
X144484Y83867D01*
X144504Y83820D01*
X144532Y83779D01*
X144552Y83745D01*
X144566Y83717D01*
X144579Y83697D01*
X144593Y83690D01*
Y83683D01*
X144648Y83628D01*
X144702Y83581D01*
X144811Y83505D01*
X144928Y83451D01*
X145037Y83417D01*
X145133Y83389D01*
X145208Y83382D01*
X145235Y83376D01*
X145276D01*
X145351Y83382D01*
X145426Y83389D01*
X145556Y83424D01*
X145679Y83471D01*
X145774Y83533D01*
X145856Y83587D01*
X145918Y83635D01*
X145952Y83669D01*
X145966Y83683D01*
X146014Y83745D01*
X146054Y83813D01*
X146123Y83963D01*
X146164Y84120D01*
X146198Y84270D01*
X146219Y84407D01*
X146225Y84468D01*
Y84516D01*
X146232Y84557D01*
Y84591D01*
Y84612D01*
Y84619D01*
Y84735D01*
X146219Y84837D01*
X146205Y84940D01*
X146191Y85028D01*
X146171Y85117D01*
X146150Y85192D01*
X146123Y85261D01*
X146096Y85322D01*
X146075Y85377D01*
X146048Y85425D01*
X146027Y85466D01*
X146007Y85500D01*
X145993Y85520D01*
X145979Y85541D01*
X145966Y85554D01*
X145911Y85609D01*
X145856Y85657D01*
X145740Y85739D01*
X145624Y85794D01*
X145515Y85828D01*
X145419Y85855D01*
X145344Y85862D01*
X145317Y85869D01*
D02*
G37*
%LPD*%
D26*
X9724Y42000D02*
Y112000D01*
X276Y42000D02*
X9724D01*
X276D02*
Y112000D01*
X9724D01*
X167276D02*
X176724D01*
X167276Y52000D02*
Y112000D01*
Y52000D02*
X176724D01*
Y112000D01*
D46*
X99762Y132919D02*
G03*
X99762Y137869I-2475J2475D01*
G01*
X87813D02*
G03*
X87813Y132919I2475J-2475D01*
G01*
X69002Y137869D02*
G03*
X69002Y132919I2475J-2475D01*
G01*
X80951D02*
G03*
X80951Y137869I-2475J2475D01*
G01*
X47766Y120912D02*
G03*
X47766Y115962I2475J-2475D01*
G01*
X59716D02*
G03*
X59716Y120912I-2475J2475D01*
G01*
X153975Y160344D02*
G03*
X153975Y165294I-2475J2475D01*
G01*
X142025D02*
G03*
X142025Y160344I2475J-2475D01*
G01*
X153975Y166344D02*
G03*
X153975Y171294I-2475J2475D01*
G01*
X142025D02*
G03*
X142025Y166344I2475J-2475D01*
G01*
X153975Y154344D02*
G03*
X153975Y159294I-2475J2475D01*
G01*
X142025D02*
G03*
X142025Y154344I2475J-2475D01*
G01*
X144975Y148475D02*
G03*
X140025Y148475I-2475J-2475D01*
G01*
Y136525D02*
G03*
X144975Y136525I2475J2475D01*
G01*
X59716Y103565D02*
G03*
X59716Y108515I-2475J2475D01*
G01*
X47766D02*
G03*
X47766Y103565I2475J-2475D01*
G01*
X93365Y9265D02*
G03*
X93365Y14215I-2475J2475D01*
G01*
X81415D02*
G03*
X81415Y9265I2475J-2475D01*
G01*
X93365Y15265D02*
G03*
X93365Y20215I-2475J2475D01*
G01*
X81415D02*
G03*
X81415Y15265I2475J-2475D01*
G01*
X65415Y14215D02*
G03*
X65415Y9265I2475J-2475D01*
G01*
X77365D02*
G03*
X77365Y14215I-2475J2475D01*
G01*
X31415Y30899D02*
G03*
X36365Y30899I2475J2475D01*
G01*
Y42849D02*
G03*
X31415Y42849I-2475J-2475D01*
G01*
X58365Y24715D02*
G03*
X53415Y24715I-2475J-2475D01*
G01*
Y12765D02*
G03*
X58365Y12765I2475J2475D01*
G01*
X111538Y116715D02*
G03*
X106588Y116715I-2475J-2475D01*
G01*
Y104765D02*
G03*
X111538Y104765I2475J2475D01*
G01*
X111435Y20258D02*
G03*
X111435Y15309I2475J-2475D01*
G01*
X123384D02*
G03*
X123384Y20258I-2475J2475D01*
G01*
X35563Y100024D02*
G03*
X35563Y100024I-500J0D01*
G01*
X20563Y100024D02*
G03*
X20563Y100024I-500J0D01*
G01*
X27915Y67341D02*
G03*
X27915Y62391I2475J-2475D01*
G01*
X39865D02*
G03*
X39865Y67341I-2475J2475D01*
G01*
X160043Y33500D02*
G03*
X160043Y33500I-500J0D01*
G01*
Y48500D02*
G03*
X160043Y48500I-500J0D01*
G01*
X87887Y132894D02*
X99687D01*
X87887Y137894D02*
X99687D01*
X69076D02*
X80876D01*
X69076Y132894D02*
X80876D01*
X28500Y74500D02*
Y79500D01*
X15500Y74500D02*
Y79500D01*
Y74500D02*
X28500D01*
X15500Y79500D02*
X28500D01*
Y84500D02*
Y89500D01*
X15500Y84500D02*
Y89500D01*
Y84500D02*
X28500D01*
X15500Y89500D02*
X28500D01*
X47841Y120937D02*
X59641D01*
X47841Y115937D02*
X59641D01*
X53941Y138940D02*
X58941D01*
X53941Y125940D02*
X58941D01*
Y138940D01*
X53941Y125940D02*
Y138940D01*
X142100Y160319D02*
X153900D01*
X142100Y165319D02*
X153900D01*
X142100Y166319D02*
X153900D01*
X142100Y171319D02*
X153900D01*
X142100Y154319D02*
X153900D01*
X142100Y159319D02*
X153900D01*
X42390Y136240D02*
Y149240D01*
X37390Y136240D02*
Y149240D01*
X42390D01*
X37390Y136240D02*
X42390D01*
X135329Y175902D02*
X137199D01*
X135329Y158579D02*
X137199D01*
Y175902D01*
X94609Y158579D02*
Y175902D01*
X135329Y158579D02*
Y175902D01*
X94609Y158579D02*
X135329D01*
X94609Y175902D02*
X135329D01*
X135329Y157402D02*
X137199D01*
X135329Y140079D02*
X137199D01*
Y157402D01*
X94609Y140079D02*
Y157402D01*
X135329Y140079D02*
Y157402D01*
X94609Y140079D02*
X135329D01*
X94609Y157402D02*
X135329D01*
X147000Y148000D02*
X161000D01*
Y113000D02*
Y147000D01*
X147000Y113000D02*
X161000D01*
X147000D02*
Y147000D01*
X160988D01*
X161000Y139000D02*
Y143000D01*
X147000Y147000D02*
Y148000D01*
X161000Y147000D02*
Y148000D01*
X145000Y136600D02*
Y148400D01*
X140000Y136600D02*
Y148400D01*
X47841Y103540D02*
X59641D01*
X47841Y108540D02*
X59641D01*
X60241Y97540D02*
Y102540D01*
X47241Y97540D02*
Y102540D01*
Y97540D02*
X60241D01*
X47241Y102540D02*
X60241D01*
X81490Y9240D02*
X93290D01*
X81490Y14240D02*
X93290D01*
X81490Y15240D02*
X93290D01*
X81490Y20240D02*
X93290D01*
X64890Y15240D02*
Y20240D01*
X77890Y15240D02*
Y20240D01*
X64890D02*
X77890D01*
X64890Y15240D02*
X77890D01*
X65490Y14240D02*
X77290D01*
X65490Y9240D02*
X77290D01*
X31390Y30974D02*
Y42774D01*
X36390Y30974D02*
Y42774D01*
X58390Y12840D02*
Y24640D01*
X53390Y12840D02*
Y24640D01*
X37890Y30374D02*
X42890D01*
X37890Y43374D02*
X42890D01*
X37890Y30374D02*
Y43374D01*
X42890Y30374D02*
Y43374D01*
X47390Y25240D02*
X52390D01*
X47390Y12240D02*
X52390D01*
Y25240D01*
X47390Y12240D02*
Y25240D01*
X111563Y104840D02*
Y116640D01*
X106563Y104840D02*
Y116640D01*
X111510Y20283D02*
X123310D01*
X111510Y15283D02*
X123310D01*
X45063Y110740D02*
Y115740D01*
X32063Y110740D02*
Y115740D01*
Y110740D02*
X45063D01*
X32063Y115740D02*
X45063D01*
X32063Y117240D02*
Y122240D01*
X45063Y117240D02*
Y122240D01*
X32063D02*
X45063D01*
X32063Y117240D02*
X45063D01*
X32898Y98768D02*
Y100343D01*
Y98768D02*
X36191D01*
X44709D02*
Y100343D01*
X41415Y98768D02*
X44709D01*
X17063Y117240D02*
Y122240D01*
X30063Y117240D02*
Y122240D01*
X17063D02*
X30063D01*
X17063Y117240D02*
X30063D01*
Y110740D02*
Y115740D01*
X17063Y110740D02*
Y115740D01*
Y110740D02*
X30063D01*
X17063Y115740D02*
X30063D01*
X17898Y98768D02*
Y100343D01*
Y98768D02*
X21191D01*
X29709D02*
Y100343D01*
X26415Y98768D02*
X29709D01*
X27990Y67366D02*
X39790D01*
X27990Y62366D02*
X39790D01*
X144500Y43500D02*
X149500D01*
X144500Y30500D02*
X149500D01*
Y43500D01*
X144500Y30500D02*
Y43500D01*
X159224Y31335D02*
X160799D01*
Y34628D01*
X159224Y43146D02*
X160799D01*
Y39852D02*
Y43146D01*
X138000Y30500D02*
X143000D01*
X138000Y43500D02*
X143000D01*
X138000Y30500D02*
Y43500D01*
X143000Y30500D02*
Y43500D01*
X16890Y30874D02*
X29890D01*
X16890Y35874D02*
X29890D01*
Y30874D02*
Y35874D01*
X16890Y30874D02*
Y35874D01*
X138000Y45500D02*
X143000D01*
X138000Y58500D02*
X143000D01*
X138000Y45500D02*
Y58500D01*
X143000Y45500D02*
Y58500D01*
X144500D02*
X149500D01*
X144500Y45500D02*
X149500D01*
Y58500D01*
X144500Y45500D02*
Y58500D01*
X159224Y46335D02*
X160799D01*
Y49628D01*
X159224Y58146D02*
X160799D01*
Y54852D02*
Y58146D01*
X68476Y139694D02*
Y144694D01*
X81476Y139694D02*
Y144694D01*
X68476D02*
X81476D01*
X68476Y139694D02*
X81476D01*
X104476Y122694D02*
Y127694D01*
X91476Y122694D02*
Y127694D01*
Y122694D02*
X104476D01*
X91476Y127694D02*
X104476D01*
D47*
X104987Y111694D02*
G03*
X104987Y111694I-3000J0D01*
G01*
X85487Y154194D02*
G03*
X85487Y154194I-3000J0D01*
G01*
X66261Y137228D02*
G03*
X66261Y137228I-3000J0D01*
G01*
X97487Y111694D02*
G03*
X97487Y111694I-3000J0D01*
G01*
X108798Y135894D02*
G03*
X108798Y135894I-3000J0D01*
G01*
X77987Y154194D02*
G03*
X77987Y154194I-3000J0D01*
G01*
X64012Y110012D02*
G03*
X64012Y115917I-2953J2953D01*
G01*
X91461Y142828D02*
G03*
X91461Y142828I-3000J0D01*
G01*
X64012Y104106D02*
Y110012D01*
Y115917D02*
Y121823D01*
X89996Y104106D02*
Y121823D01*
X64012D02*
X89996D01*
X64012Y104106D02*
X89996D01*
D48*
X111111Y127516D02*
X132371D01*
X111111Y137358D02*
X132371D01*
X111111Y127516D02*
Y137337D01*
X132371Y127516D02*
Y137358D01*
X133852Y128937D02*
Y135937D01*
X130241Y127516D02*
X132431D01*
X133792Y134997D02*
Y135937D01*
X132371Y137358D02*
X132431D01*
X133792Y135997D01*
X132431Y127516D02*
X133852Y128937D01*
X47039Y27362D02*
Y91732D01*
X103732Y27362D02*
Y91732D01*
X93496D02*
X103732D01*
X93496Y84055D02*
Y91732D01*
X57276Y84055D02*
X93496D01*
X47039Y91732D02*
X57276D01*
Y84055D02*
Y91732D01*
X47039Y27362D02*
X103732D01*
D49*
X109590Y34646D02*
X131690D01*
Y22835D02*
Y34646D01*
X109590Y22835D02*
X131690D01*
X110990D02*
Y34646D01*
X109590Y22835D02*
Y34646D01*
X125984Y118940D02*
X137795D01*
X125984Y117540D02*
X137795D01*
X125984Y96840D02*
Y118940D01*
Y96840D02*
X137795D01*
Y118940D01*
X112858Y118883D02*
X124669D01*
X112858Y117483D02*
X124669D01*
X112858Y96783D02*
Y118883D01*
Y96783D02*
X124669D01*
Y118883D01*
X109590Y36335D02*
Y48146D01*
X110990Y36335D02*
Y48146D01*
X109590Y36335D02*
X131690D01*
Y48146D01*
X109590D02*
X131690D01*
X39290Y75240D02*
Y78739D01*
X37540D01*
X36957Y78156D01*
Y76990D01*
X37540Y76407D01*
X39290D01*
X38124D02*
X36957Y75240D01*
X33458D02*
X35791D01*
X33458Y77573D01*
Y78156D01*
X34042Y78739D01*
X35208D01*
X35791Y78156D01*
X32292D02*
X31709Y78739D01*
X30543D01*
X29959Y78156D01*
Y77573D01*
X30543Y76990D01*
X29959Y76407D01*
Y75823D01*
X30543Y75240D01*
X31709D01*
X32292Y75823D01*
Y76407D01*
X31709Y76990D01*
X32292Y77573D01*
Y78156D01*
X31709Y76990D02*
X30543D01*
X39241Y85140D02*
Y88639D01*
X37492D01*
X36908Y88056D01*
Y86890D01*
X37492Y86306D01*
X39241D01*
X38075D02*
X36908Y85140D01*
X33410D02*
X35742D01*
X33410Y87473D01*
Y88056D01*
X33993Y88639D01*
X35159D01*
X35742Y88056D01*
X32243Y88639D02*
X29911D01*
Y88056D01*
X32243Y85723D01*
Y85140D01*
X74117Y131544D02*
X74701Y132127D01*
X75867D01*
X76450Y131544D01*
Y129211D01*
X75867Y128628D01*
X74701D01*
X74117Y129211D01*
X70619Y128628D02*
X72951D01*
X70619Y130961D01*
Y131544D01*
X71202Y132127D01*
X72368D01*
X72951Y131544D01*
X69452Y132127D02*
X67120D01*
Y131544D01*
X69452Y129211D01*
Y128628D01*
X98817Y131294D02*
X99351Y131827D01*
X100417D01*
X100950Y131294D01*
Y129161D01*
X100417Y128628D01*
X99351D01*
X98817Y129161D01*
X95618Y128628D02*
X97751D01*
X95618Y130761D01*
Y131294D01*
X96152Y131827D01*
X97218D01*
X97751Y131294D01*
X92419Y131827D02*
X93486Y131294D01*
X94552Y130227D01*
Y129161D01*
X94019Y128628D01*
X92953D01*
X92419Y129161D01*
Y129694D01*
X92953Y130227D01*
X94552D01*
X36967Y71716D02*
X37551Y72299D01*
X38717D01*
X39300Y71716D01*
Y69383D01*
X38717Y68800D01*
X37551D01*
X36967Y69383D01*
X33468Y68800D02*
X35801D01*
X33468Y71133D01*
Y71716D01*
X34052Y72299D01*
X35218D01*
X35801Y71716D01*
X29970Y72299D02*
X32302D01*
Y70549D01*
X31136Y71133D01*
X30553D01*
X29970Y70549D01*
Y69383D01*
X30553Y68800D01*
X31719D01*
X32302Y69383D01*
X156207Y26977D02*
Y29309D01*
X156790Y29893D01*
X157956D01*
X158539Y29309D01*
Y26977D01*
X157956Y26394D01*
X156790D01*
X157373Y27560D02*
X156207Y26394D01*
X156790D02*
X156207Y26977D01*
X155041Y26394D02*
X153874D01*
X154457D01*
Y29893D01*
X155041Y29309D01*
X158057Y60923D02*
Y63256D01*
X158640Y63839D01*
X159807D01*
X160390Y63256D01*
Y60923D01*
X159807Y60340D01*
X158640D01*
X159223Y61506D02*
X158057Y60340D01*
X158640D02*
X158057Y60923D01*
X154558Y60340D02*
X156891D01*
X154558Y62673D01*
Y63256D01*
X155141Y63839D01*
X156308D01*
X156891Y63256D01*
X142500Y29000D02*
X139001D01*
Y27251D01*
X139584Y26667D01*
X140751D01*
X141334Y27251D01*
Y29000D01*
Y27834D02*
X142500Y26667D01*
X139584Y25501D02*
X139001Y24918D01*
Y23752D01*
X139584Y23168D01*
X140167D01*
X140751Y23752D01*
X141334Y23168D01*
X141917D01*
X142500Y23752D01*
Y24918D01*
X141917Y25501D01*
X141334D01*
X140751Y24918D01*
X140167Y25501D01*
X139584D01*
X140751Y24918D02*
Y23752D01*
X142100Y65200D02*
X138601D01*
Y63451D01*
X139184Y62867D01*
X140351D01*
X140934Y63451D01*
Y65200D01*
Y64034D02*
X142100Y62867D01*
X141517Y61701D02*
X142100Y61118D01*
Y59952D01*
X141517Y59369D01*
X139184D01*
X138601Y59952D01*
Y61118D01*
X139184Y61701D01*
X139767D01*
X140351Y61118D01*
Y59369D01*
X149000Y29000D02*
X145501D01*
Y27251D01*
X146084Y26667D01*
X147251D01*
X147834Y27251D01*
Y29000D01*
Y27834D02*
X149000Y26667D01*
Y25501D02*
Y24335D01*
Y24918D01*
X145501D01*
X146084Y25501D01*
X149000Y22585D02*
Y21419D01*
Y22002D01*
X145501D01*
X146084Y22585D01*
X151500Y68800D02*
X148001D01*
Y67051D01*
X148584Y66467D01*
X149751D01*
X150334Y67051D01*
Y68800D01*
Y67634D02*
X151500Y66467D01*
Y65301D02*
Y64135D01*
Y64718D01*
X148001D01*
X148584Y65301D01*
X151500Y60053D02*
Y62385D01*
X149167Y60053D01*
X148584D01*
X148001Y60636D01*
Y61802D01*
X148584Y62385D01*
X77123Y168050D02*
X73624D01*
Y166301D01*
X74207Y165718D01*
X75373D01*
X75956Y166301D01*
Y168050D01*
Y166884D02*
X77123Y165718D01*
X73624Y164551D02*
X77123Y162219D01*
X73624D02*
X77123Y164551D01*
X73624Y161053D02*
X77123D01*
Y159303D01*
X76540Y158720D01*
X74207D01*
X73624Y159303D01*
Y161053D01*
X108800Y128500D02*
Y131999D01*
X107051D01*
X106467Y131416D01*
Y130249D01*
X107051Y129666D01*
X108800D01*
X107634D02*
X106467Y128500D01*
X105301Y131999D02*
X104135D01*
X104718D01*
Y128500D01*
X105301D01*
X104135D01*
X93272Y104961D02*
X92689Y105544D01*
Y106711D01*
X93272Y107294D01*
X95604D01*
X96187Y106711D01*
Y105544D01*
X95604Y104961D01*
X92689Y103795D02*
Y101462D01*
Y102629D01*
X96187D01*
X93272Y97963D02*
X92689Y98546D01*
Y99713D01*
X93272Y100296D01*
X93855D01*
X94438Y99713D01*
Y98546D01*
X95021Y97963D01*
X95604D01*
X96187Y98546D01*
Y99713D01*
X95604Y100296D01*
X61478Y150694D02*
X64976D01*
Y148944D01*
X64393Y148361D01*
X62061D01*
X61478Y148944D01*
Y150694D01*
Y147195D02*
Y144862D01*
Y146028D01*
X64976D01*
Y143696D02*
X61478D01*
Y141946D01*
X62061Y141363D01*
X63227D01*
X63810Y141946D01*
Y143696D01*
Y142530D02*
X64976Y141363D01*
X80487Y168085D02*
X83985D01*
Y166335D01*
X83402Y165752D01*
X81070D01*
X80487Y166335D01*
Y168085D01*
X81070Y162253D02*
X80487Y162836D01*
Y164003D01*
X81070Y164586D01*
X83402D01*
X83985Y164003D01*
Y162836D01*
X83402Y162253D01*
X80487Y161087D02*
X83985D01*
Y159337D01*
X83402Y158754D01*
X81070D01*
X80487Y159337D01*
Y161087D01*
X86378Y156694D02*
Y154361D01*
Y155527D01*
X89876D01*
X86378Y153195D02*
X89876Y150862D01*
X86378D02*
X89876Y153195D01*
X86378Y149696D02*
X89876D01*
Y147947D01*
X89293Y147363D01*
X86961D01*
X86378Y147947D01*
Y149696D01*
X103087Y107194D02*
X99589D01*
Y105444D01*
X100172Y104861D01*
X101338D01*
X101921Y105444D01*
Y107194D01*
Y106027D02*
X103087Y104861D01*
X99589Y103695D02*
Y101362D01*
Y102529D01*
X103087D01*
X100172Y97863D02*
X99589Y98447D01*
Y99613D01*
X100172Y100196D01*
X100755D01*
X101338Y99613D01*
Y98447D01*
X101921Y97863D01*
X102504D01*
X103087Y98447D01*
Y99613D01*
X102504Y100196D01*
X165167Y137916D02*
X165751Y138499D01*
X166917D01*
X167500Y137916D01*
Y135583D01*
X166917Y135000D01*
X165751D01*
X165167Y135583D01*
X164001Y135000D02*
X162835D01*
X163418D01*
Y138499D01*
X164001Y137916D01*
X99557Y13156D02*
X100140Y13739D01*
X101307D01*
X101890Y13156D01*
Y10823D01*
X101307Y10240D01*
X100140D01*
X99557Y10823D01*
X96058Y10240D02*
X98391D01*
X96058Y12573D01*
Y13156D01*
X96641Y13739D01*
X97808D01*
X98391Y13156D01*
X91311Y150961D02*
X90777Y151494D01*
Y152560D01*
X91311Y153094D01*
X93443D01*
X93976Y152560D01*
Y151494D01*
X93443Y150961D01*
X91311Y149895D02*
X90777Y149362D01*
Y148295D01*
X91311Y147762D01*
X91844D01*
X92377Y148295D01*
Y148828D01*
Y148295D01*
X92910Y147762D01*
X93443D01*
X93976Y148295D01*
Y149362D01*
X93443Y149895D01*
X90325Y167308D02*
X89742Y167891D01*
Y169057D01*
X90325Y169640D01*
X92658D01*
X93241Y169057D01*
Y167891D01*
X92658Y167308D01*
X93241Y164392D02*
X89742D01*
X91492Y166141D01*
Y163809D01*
X142084Y132167D02*
X141501Y132751D01*
Y133917D01*
X142084Y134500D01*
X144417D01*
X145000Y133917D01*
Y132751D01*
X144417Y132167D01*
X142084Y131001D02*
X141501Y130418D01*
Y129252D01*
X142084Y128669D01*
X142667D01*
X143251Y129252D01*
X143834Y128669D01*
X144417D01*
X145000Y129252D01*
Y130418D01*
X144417Y131001D01*
X143834D01*
X143251Y130418D01*
X142667Y131001D01*
X142084D01*
X143251Y130418D02*
Y129252D01*
X99667Y19416D02*
X100251Y19999D01*
X101417D01*
X102000Y19416D01*
Y17083D01*
X101417Y16500D01*
X100251D01*
X99667Y17083D01*
X98501D02*
X97918Y16500D01*
X96752D01*
X96169Y17083D01*
Y19416D01*
X96752Y19999D01*
X97918D01*
X98501Y19416D01*
Y18833D01*
X97918Y18249D01*
X96169D01*
X73557Y7656D02*
X74140Y8239D01*
X75307D01*
X75890Y7656D01*
Y5323D01*
X75307Y4740D01*
X74140D01*
X73557Y5323D01*
X72391Y4740D02*
X71225D01*
X71808D01*
Y8239D01*
X72391Y7656D01*
X69475D02*
X68892Y8239D01*
X67726D01*
X67143Y7656D01*
Y5323D01*
X67726Y4740D01*
X68892D01*
X69475Y5323D01*
Y7656D01*
X32749Y50231D02*
X32166Y50814D01*
Y51980D01*
X32749Y52564D01*
X35082D01*
X35665Y51980D01*
Y50814D01*
X35082Y50231D01*
X35665Y49065D02*
Y47898D01*
Y48482D01*
X32166D01*
X32749Y49065D01*
X35665Y46149D02*
Y44983D01*
Y45566D01*
X32166D01*
X32749Y46149D01*
X54584Y8667D02*
X54001Y9251D01*
Y10417D01*
X54584Y11000D01*
X56917D01*
X57500Y10417D01*
Y9251D01*
X56917Y8667D01*
X57500Y7501D02*
Y6335D01*
Y6918D01*
X54001D01*
X54584Y7501D01*
X57500Y2253D02*
Y4585D01*
X55167Y2253D01*
X54584D01*
X54001Y2836D01*
Y4002D01*
X54584Y4585D01*
X53267Y112616D02*
X53851Y113199D01*
X55017D01*
X55600Y112616D01*
Y110283D01*
X55017Y109700D01*
X53851D01*
X53267Y110283D01*
X52101Y109700D02*
X50935D01*
X51518D01*
Y113199D01*
X52101Y112616D01*
X49185D02*
X48602Y113199D01*
X47436D01*
X46853Y112616D01*
Y112033D01*
X47436Y111449D01*
X46853Y110866D01*
Y110283D01*
X47436Y109700D01*
X48602D01*
X49185Y110283D01*
Y110866D01*
X48602Y111449D01*
X49185Y112033D01*
Y112616D01*
X48602Y111449D02*
X47436D01*
X133374Y31108D02*
X132791Y31691D01*
Y32857D01*
X133374Y33440D01*
X135707D01*
X136290Y32857D01*
Y31691D01*
X135707Y31108D01*
X136290Y29941D02*
Y28775D01*
Y29358D01*
X132791D01*
X133374Y29941D01*
X135707Y27026D02*
X136290Y26442D01*
Y25276D01*
X135707Y24693D01*
X133374D01*
X132791Y25276D01*
Y26442D01*
X133374Y27026D01*
X133957D01*
X134540Y26442D01*
Y24693D01*
X122167Y52416D02*
X122751Y52999D01*
X123917D01*
X124500Y52416D01*
Y50083D01*
X123917Y49500D01*
X122751D01*
X122167Y50083D01*
X118669Y49500D02*
X121001D01*
X118669Y51833D01*
Y52416D01*
X119252Y52999D01*
X120418D01*
X121001Y52416D01*
X117502D02*
X116919Y52999D01*
X115753D01*
X115170Y52416D01*
Y50083D01*
X115753Y49500D01*
X116919D01*
X117502Y50083D01*
Y52416D01*
X121167Y93428D02*
X121751Y94011D01*
X122917D01*
X123500Y93428D01*
Y91095D01*
X122917Y90512D01*
X121751D01*
X121167Y91095D01*
X117669Y90512D02*
X120001D01*
X117669Y92844D01*
Y93428D01*
X118252Y94011D01*
X119418D01*
X120001Y93428D01*
X116502Y90512D02*
X115336D01*
X115919D01*
Y94011D01*
X116502Y93428D01*
X133667Y93416D02*
X134251Y93999D01*
X135417D01*
X136000Y93416D01*
Y91083D01*
X135417Y90500D01*
X134251D01*
X133667Y91083D01*
X130169Y90500D02*
X132501D01*
X130169Y92833D01*
Y93416D01*
X130752Y93999D01*
X131918D01*
X132501Y93416D01*
X126670Y90500D02*
X129002D01*
X126670Y92833D01*
Y93416D01*
X127253Y93999D01*
X128419D01*
X129002Y93416D01*
X108171Y99908D02*
X107588Y100491D01*
Y101657D01*
X108171Y102240D01*
X110503D01*
X111087Y101657D01*
Y100491D01*
X110503Y99908D01*
X111087Y96409D02*
Y98741D01*
X108754Y96409D01*
X108171D01*
X107588Y96992D01*
Y98158D01*
X108171Y98741D01*
Y95242D02*
X107588Y94659D01*
Y93493D01*
X108171Y92910D01*
X108754D01*
X109337Y93493D01*
Y94076D01*
Y93493D01*
X109920Y92910D01*
X110503D01*
X111087Y93493D01*
Y94659D01*
X110503Y95242D01*
X132207Y19309D02*
X132790Y19893D01*
X133956D01*
X134539Y19309D01*
Y16977D01*
X133956Y16394D01*
X132790D01*
X132207Y16977D01*
X128708Y16394D02*
X131041D01*
X128708Y18726D01*
Y19309D01*
X129291Y19893D01*
X130457D01*
X131041Y19309D01*
X125792Y16394D02*
Y19893D01*
X127542Y18143D01*
X125209D01*
X75390Y24739D02*
Y21240D01*
X73640D01*
X73057Y21823D01*
Y24156D01*
X73640Y24739D01*
X75390D01*
X69558Y21240D02*
X71891D01*
X69558Y23573D01*
Y24156D01*
X70142Y24739D01*
X71308D01*
X71891Y24156D01*
X39040Y52394D02*
X42539D01*
Y50644D01*
X41956Y50061D01*
X39624D01*
X39040Y50644D01*
Y52394D01*
X39624Y48895D02*
X39040Y48312D01*
Y47145D01*
X39624Y46562D01*
X40207D01*
X40790Y47145D01*
Y47729D01*
Y47145D01*
X41373Y46562D01*
X41956D01*
X42539Y47145D01*
Y48312D01*
X41956Y48895D01*
X47501Y11000D02*
X51000D01*
Y9251D01*
X50417Y8667D01*
X48084D01*
X47501Y9251D01*
Y11000D01*
X51000Y5752D02*
X47501D01*
X49251Y7501D01*
Y5169D01*
X109667Y62499D02*
X110834D01*
X110251D01*
Y59583D01*
X110834Y59000D01*
X111417D01*
X112000Y59583D01*
X108501Y59000D02*
X107335D01*
X107918D01*
Y62499D01*
X108501Y61916D01*
X17408Y92723D02*
Y95056D01*
X17991Y95639D01*
X19158D01*
X19741Y95056D01*
Y92723D01*
X19158Y92140D01*
X17991D01*
X18575Y93306D02*
X17408Y92140D01*
X17991D02*
X17408Y92723D01*
X14493Y92140D02*
Y95639D01*
X16242Y93890D01*
X13909D01*
X38707Y90477D02*
Y92809D01*
X39290Y93393D01*
X40456D01*
X41039Y92809D01*
Y90477D01*
X40456Y89894D01*
X39290D01*
X39873Y91060D02*
X38707Y89894D01*
X39290D02*
X38707Y90477D01*
X35208Y93393D02*
X37541D01*
Y91643D01*
X36374Y92226D01*
X35791D01*
X35208Y91643D01*
Y90477D01*
X35791Y89894D01*
X36957D01*
X37541Y90477D01*
X28000Y129500D02*
Y132999D01*
X26251D01*
X25667Y132416D01*
Y131249D01*
X26251Y130666D01*
X28000D01*
X26834D02*
X25667Y129500D01*
X24501D02*
X23335D01*
X23918D01*
Y132999D01*
X24501Y132416D01*
X19836Y129500D02*
Y132999D01*
X21585Y131249D01*
X19253D01*
X28000Y124000D02*
Y127499D01*
X26251D01*
X25667Y126916D01*
Y125749D01*
X26251Y125166D01*
X28000D01*
X26834D02*
X25667Y124000D01*
X24501D02*
X23335D01*
X23918D01*
Y127499D01*
X24501Y126916D01*
X19253Y127499D02*
X21585D01*
Y125749D01*
X20419Y126333D01*
X19836D01*
X19253Y125749D01*
Y124583D01*
X19836Y124000D01*
X21002D01*
X21585Y124583D01*
X27890Y36874D02*
Y40373D01*
X26140D01*
X25557Y39790D01*
Y38623D01*
X26140Y38040D01*
X27890D01*
X26724D02*
X25557Y36874D01*
X24391D02*
X23225D01*
X23808D01*
Y40373D01*
X24391Y39790D01*
X19143Y40373D02*
X20309Y39790D01*
X21475Y38623D01*
Y37457D01*
X20892Y36874D01*
X19726D01*
X19143Y37457D01*
Y38040D01*
X19726Y38623D01*
X21475D01*
X42000Y129000D02*
Y132499D01*
X40251D01*
X39667Y131916D01*
Y130749D01*
X40251Y130166D01*
X42000D01*
X40834D02*
X39667Y129000D01*
X38501D02*
X37335D01*
X37918D01*
Y132499D01*
X38501Y131916D01*
X35585Y132499D02*
X33253D01*
Y131916D01*
X35585Y129583D01*
Y129000D01*
X42000Y124000D02*
Y127499D01*
X40251D01*
X39667Y126916D01*
Y125749D01*
X40251Y125166D01*
X42000D01*
X40834D02*
X39667Y124000D01*
X38501D02*
X37335D01*
X37918D01*
Y127499D01*
X38501Y126916D01*
X35585D02*
X35002Y127499D01*
X33836D01*
X33253Y126916D01*
Y126333D01*
X33836Y125749D01*
X33253Y125166D01*
Y124583D01*
X33836Y124000D01*
X35002D01*
X35585Y124583D01*
Y125166D01*
X35002Y125749D01*
X35585Y126333D01*
Y126916D01*
X35002Y125749D02*
X33836D01*
X57310Y93000D02*
Y96499D01*
X55560D01*
X54977Y95916D01*
Y94749D01*
X55560Y94166D01*
X57310D01*
X56143D02*
X54977Y93000D01*
X51478D02*
X53811D01*
X51478Y95333D01*
Y95916D01*
X52061Y96499D01*
X53228D01*
X53811Y95916D01*
X50312Y93000D02*
X49145D01*
X49729D01*
Y96499D01*
X50312Y95916D01*
X59601Y115200D02*
X62517D01*
X63100Y114617D01*
Y113451D01*
X62517Y112867D01*
X59601D01*
X60184Y111701D02*
X59601Y111118D01*
Y109952D01*
X60184Y109369D01*
X60767D01*
X61351Y109952D01*
Y110535D01*
Y109952D01*
X61934Y109369D01*
X62517D01*
X63100Y109952D01*
Y111118D01*
X62517Y111701D01*
X159667Y170416D02*
X160251Y170999D01*
X161417D01*
X162000Y170416D01*
Y168083D01*
X161417Y167500D01*
X160251D01*
X159667Y168083D01*
X156169Y170999D02*
X158501D01*
Y169249D01*
X157335Y169833D01*
X156752D01*
X156169Y169249D01*
Y168083D01*
X156752Y167500D01*
X157918D01*
X158501Y168083D01*
X159767Y164228D02*
X160351Y164811D01*
X161517D01*
X162100Y164228D01*
Y161895D01*
X161517Y161312D01*
X160351D01*
X159767Y161895D01*
X156269Y164811D02*
X157435Y164228D01*
X158601Y163061D01*
Y161895D01*
X158018Y161312D01*
X156852D01*
X156269Y161895D01*
Y162478D01*
X156852Y163061D01*
X158601D01*
X159467Y157828D02*
X160051Y158411D01*
X161217D01*
X161800Y157828D01*
Y155495D01*
X161217Y154912D01*
X160051D01*
X159467Y155495D01*
X158301Y158411D02*
X155969D01*
Y157828D01*
X158301Y155495D01*
Y154912D01*
X139919Y134836D02*
Y131337D01*
X138170D01*
X137586Y131920D01*
Y134253D01*
X138170Y134836D01*
X139919D01*
X136420Y131337D02*
X135254D01*
X135837D01*
Y134836D01*
X136420Y134253D01*
X41200Y159800D02*
X37701D01*
Y158051D01*
X38284Y157467D01*
X39451D01*
X40034Y158051D01*
Y159800D01*
Y158634D02*
X41200Y157467D01*
Y153969D02*
Y156301D01*
X38867Y153969D01*
X38284D01*
X37701Y154552D01*
Y155718D01*
X38284Y156301D01*
X41200Y150470D02*
Y152802D01*
X38867Y150470D01*
X38284D01*
X37701Y151053D01*
Y152219D01*
X38284Y152802D01*
X53567Y124566D02*
X54101Y125099D01*
X55167D01*
X55700Y124566D01*
Y122433D01*
X55167Y121900D01*
X54101D01*
X53567Y122433D01*
X52501Y121900D02*
X51435D01*
X51968D01*
Y125099D01*
X52501Y124566D01*
X49835Y125099D02*
X47703D01*
Y124566D01*
X49835Y122433D01*
Y121900D01*
X6067Y117299D02*
X7234D01*
X6651D01*
Y114383D01*
X7234Y113800D01*
X7817D01*
X8400Y114383D01*
X3152Y113800D02*
Y117299D01*
X4901Y115549D01*
X2569D01*
X172667Y117499D02*
X173834D01*
X173251D01*
Y114583D01*
X173834Y114000D01*
X174417D01*
X175000Y114583D01*
X169169Y117499D02*
X170335Y116916D01*
X171501Y115749D01*
Y114583D01*
X170918Y114000D01*
X169752D01*
X169169Y114583D01*
Y115166D01*
X169752Y115749D01*
X171501D01*
X58350Y149628D02*
X54851D01*
Y147879D01*
X55434Y147295D01*
X56601D01*
X57184Y147879D01*
Y149628D01*
Y148462D02*
X58350Y147295D01*
Y143797D02*
Y146129D01*
X56017Y143797D01*
X55434D01*
X54851Y144380D01*
Y145546D01*
X55434Y146129D01*
Y142630D02*
X54851Y142047D01*
Y140881D01*
X55434Y140298D01*
X57767D01*
X58350Y140881D01*
Y142047D01*
X57767Y142630D01*
X55434D01*
X102976Y118694D02*
Y121893D01*
X101377D01*
X100844Y121360D01*
Y120293D01*
X101377Y119760D01*
X102976D01*
X101910D02*
X100844Y118694D01*
X97645D02*
X99777D01*
X97645Y120826D01*
Y121360D01*
X98178Y121893D01*
X99244D01*
X99777Y121360D01*
X96578Y119227D02*
X96045Y118694D01*
X94979D01*
X94446Y119227D01*
Y121360D01*
X94979Y121893D01*
X96045D01*
X96578Y121360D01*
Y120826D01*
X96045Y120293D01*
X94446D01*
X79976Y146194D02*
Y149693D01*
X78227D01*
X77644Y149109D01*
Y147943D01*
X78227Y147360D01*
X79976D01*
X78810D02*
X77644Y146194D01*
X76477Y149109D02*
X75894Y149693D01*
X74728D01*
X74145Y149109D01*
Y148526D01*
X74728Y147943D01*
X75311D01*
X74728D01*
X74145Y147360D01*
Y146777D01*
X74728Y146194D01*
X75894D01*
X76477Y146777D01*
X72979Y149109D02*
X72395Y149693D01*
X71229D01*
X70646Y149109D01*
Y146777D01*
X71229Y146194D01*
X72395D01*
X72979Y146777D01*
Y149109D01*
X28257Y47123D02*
X30590D01*
Y45373D01*
X29423D01*
X30590D01*
Y43624D01*
X27091Y47123D02*
Y43624D01*
X24758D01*
X23592Y47123D02*
X22426D01*
X23009D01*
Y43624D01*
X23592D01*
X22426D01*
X18344Y46540D02*
X18927Y47123D01*
X20093D01*
X20676Y46540D01*
Y44207D01*
X20093Y43624D01*
X18927D01*
X18344Y44207D01*
Y45373D01*
X19510D01*
X17177Y47123D02*
Y43624D01*
Y45373D01*
X14845D01*
Y47123D01*
Y43624D01*
X13679Y47123D02*
X11346D01*
X12512D01*
Y43624D01*
X26741Y71139D02*
Y67640D01*
X25575Y68806D01*
X24408Y67640D01*
Y71139D01*
X23242D02*
Y67640D01*
Y68806D01*
X20910Y71139D01*
X22659Y69390D01*
X20910Y67640D01*
X19743Y67057D02*
X17411D01*
X16244Y71139D02*
X15078D01*
X15661D01*
Y67640D01*
X16244D01*
X15078D01*
X13329D02*
Y71139D01*
X10996Y67640D01*
Y71139D01*
X30800Y58499D02*
Y55000D01*
X29634Y56166D01*
X28467Y55000D01*
Y58499D01*
X27301D02*
Y55000D01*
Y56166D01*
X24969Y58499D01*
X26718Y56749D01*
X24969Y55000D01*
X23802Y54417D02*
X21470D01*
X18554Y58499D02*
X19720D01*
X20303Y57916D01*
Y55583D01*
X19720Y55000D01*
X18554D01*
X17971Y55583D01*
Y57916D01*
X18554Y58499D01*
X16804D02*
Y55583D01*
X16221Y55000D01*
X15055D01*
X14472Y55583D01*
Y58499D01*
X13306D02*
X10973D01*
X12139D01*
Y55000D01*
D52*
X158600Y81000D02*
X160400D01*
X158000Y80900D02*
X160900D01*
X157700Y80800D02*
X161300D01*
X157400Y80700D02*
X161600D01*
X157100Y80600D02*
X161900D01*
X160500Y80500D02*
X162100D01*
X156900D02*
X158500D01*
X161000Y80400D02*
X162300D01*
X156600D02*
X158000D01*
X161300Y80300D02*
X162500D01*
X156500D02*
X157700D01*
X161600Y80200D02*
X162700D01*
X156300D02*
X157400D01*
X161800Y80100D02*
X162900D01*
X156100D02*
X157200D01*
X162000Y80000D02*
X163000D01*
X156000D02*
X156900D01*
X162200Y79900D02*
X163200D01*
X155800D02*
X156700D01*
X162400Y79800D02*
X163300D01*
X155700D02*
X156600D01*
X162600Y79700D02*
X163400D01*
X155500D02*
X156400D01*
X162700Y79600D02*
X163500D01*
X155400D02*
X156200D01*
X162900Y79500D02*
X163700D01*
X155300D02*
X156100D01*
X163000Y79400D02*
X163800D01*
X155200D02*
X156000D01*
X163100Y79300D02*
X163900D01*
X155100D02*
X155800D01*
X163300Y79200D02*
X164000D01*
X156900D02*
X157800D01*
X155000D02*
X155700D01*
X163400Y79100D02*
X164100D01*
X156700D02*
X158100D01*
X154900D02*
X155600D01*
X130400D02*
X130900D01*
X163500Y79000D02*
X164200D01*
X156500D02*
X158200D01*
X154800D02*
X155500D01*
X130100D02*
X130900D01*
X112800D02*
X113200D01*
X163600Y78900D02*
X164300D01*
X156400D02*
X158300D01*
X154700D02*
X155400D01*
X130000D02*
X130900D01*
X112500D02*
X113200D01*
X163700Y78800D02*
X164300D01*
X156300D02*
X158400D01*
X154600D02*
X155300D01*
X139600D02*
X140100D01*
X129900D02*
X130800D01*
X112400D02*
X113200D01*
X163800Y78700D02*
X164400D01*
X156300D02*
X158500D01*
X154500D02*
X155200D01*
X139400D02*
X140400D01*
X129800D02*
X130800D01*
X112300D02*
X113200D01*
X163900Y78600D02*
X164500D01*
X156200D02*
X158600D01*
X154500D02*
X155100D01*
X139200D02*
X140800D01*
X129800D02*
X130900D01*
X122700D02*
X123000D01*
X112300D02*
X113200D01*
X164000Y78500D02*
X164600D01*
X156200D02*
X158600D01*
X154400D02*
X155000D01*
X142100D02*
X142400D01*
X139000D02*
X141400D01*
X129800D02*
X130900D01*
X122500D02*
X123000D01*
X112300D02*
X113200D01*
X164000Y78400D02*
X164700D01*
X156100D02*
X158700D01*
X154300D02*
X154900D01*
X139000D02*
X142400D01*
X129900D02*
X130900D01*
X122300D02*
X123000D01*
X120500D02*
X121100D01*
X112400D02*
X113300D01*
X164100Y78300D02*
X164700D01*
X156100D02*
X158700D01*
X154300D02*
X154900D01*
X140300D02*
X142400D01*
X139000D02*
X140100D01*
X130000D02*
X130900D01*
X122200D02*
X123000D01*
X120300D02*
X121100D01*
X112500D02*
X113300D01*
X164200Y78200D02*
X164800D01*
X156000D02*
X158800D01*
X154200D02*
X154800D01*
X140800D02*
X142400D01*
X139000D02*
X140000D01*
X130100D02*
X131000D01*
X122200D02*
X123000D01*
X120100D02*
X121100D01*
X112600D02*
X113300D01*
X164300Y78100D02*
X164900D01*
X156000D02*
X158800D01*
X154100D02*
X154700D01*
X141400D02*
X142300D01*
X139100D02*
X140000D01*
X130200D02*
X131000D01*
X129300D02*
X129500D01*
X122100D02*
X123000D01*
X120100D02*
X121100D01*
X112600D02*
X113400D01*
X164300Y78000D02*
X164900D01*
X156000D02*
X158800D01*
X154100D02*
X154600D01*
X141600D02*
X142300D01*
X139100D02*
X139900D01*
X130200D02*
X131000D01*
X129000D02*
X129700D01*
X122100D02*
X123100D01*
X120100D02*
X121000D01*
X112700D02*
X113400D01*
X164400Y77900D02*
X165000D01*
X160800D02*
X161600D01*
X156000D02*
X158900D01*
X154000D02*
X154600D01*
X141600D02*
X142200D01*
X139200D02*
X139900D01*
X130300D02*
X131100D01*
X128800D02*
X129900D01*
X122100D02*
X123100D01*
X120100D02*
X121000D01*
X112800D02*
X113500D01*
X111200D02*
X111600D01*
X164500Y77800D02*
X165000D01*
X160300D02*
X161900D01*
X156000D02*
X158900D01*
X153900D02*
X154500D01*
X141600D02*
X142200D01*
X139200D02*
X139900D01*
X130400D02*
X131100D01*
X128600D02*
X130100D01*
X122200D02*
X123100D01*
X120100D02*
X120900D01*
X118900D02*
X119700D01*
X112800D02*
X113500D01*
X111000D02*
X111900D01*
X164500Y77700D02*
X165100D01*
X160500D02*
X162100D01*
X156100D02*
X158900D01*
X153900D02*
X154500D01*
X141500D02*
X142200D01*
X139200D02*
X139900D01*
X128600D02*
X131100D01*
X122300D02*
X123200D01*
X120100D02*
X120900D01*
X118600D02*
X119700D01*
X112900D02*
X113600D01*
X111000D02*
X112200D01*
X164600Y77600D02*
X165100D01*
X160900D02*
X162300D01*
X156200D02*
X159000D01*
X153800D02*
X154400D01*
X141500D02*
X142100D01*
X139300D02*
X139900D01*
X128600D02*
X131200D01*
X122400D02*
X123200D01*
X120200D02*
X120900D01*
X118500D02*
X119600D01*
X112900D02*
X113600D01*
X111000D02*
X112500D01*
X108300D02*
X108700D01*
X164600Y77500D02*
X165200D01*
X161100D02*
X162400D01*
X156300D02*
X159000D01*
X153800D02*
X154300D01*
X141500D02*
X142100D01*
X139300D02*
X139900D01*
X133700D02*
X134200D01*
X128600D02*
X131200D01*
X122400D02*
X123200D01*
X120200D02*
X120900D01*
X118400D02*
X119500D01*
X113000D02*
X113700D01*
X111200D02*
X112900D01*
X108000D02*
X108900D01*
X164700Y77400D02*
X165200D01*
X161300D02*
X162400D01*
X156400D02*
X159000D01*
X153700D02*
X154300D01*
X141500D02*
X142100D01*
X140400D02*
X141000D01*
X139300D02*
X139900D01*
X133300D02*
X134300D01*
X128700D02*
X131300D01*
X122500D02*
X123300D01*
X120200D02*
X120900D01*
X118400D02*
X119400D01*
X111600D02*
X113700D01*
X107900D02*
X109200D01*
X164700Y77300D02*
X165300D01*
X161400D02*
X162500D01*
X156500D02*
X159100D01*
X153700D02*
X154200D01*
X141500D02*
X142100D01*
X140300D02*
X141400D01*
X139300D02*
X139900D01*
X133100D02*
X134300D01*
X130100D02*
X131300D01*
X128900D02*
X129800D01*
X122600D02*
X123300D01*
X120200D02*
X120900D01*
X118300D02*
X119300D01*
X111900D02*
X113800D01*
X110500D02*
X110900D01*
X107700D02*
X109600D01*
X164800Y77200D02*
X165300D01*
X161500D02*
X162600D01*
X156600D02*
X159100D01*
X153700D02*
X154200D01*
X140300D02*
X142100D01*
X139300D02*
X139900D01*
X132900D02*
X134200D01*
X130700D02*
X131400D01*
X129000D02*
X129900D01*
X122600D02*
X123400D01*
X120200D02*
X120900D01*
X118300D02*
X119200D01*
X112200D02*
X113900D01*
X107600D02*
X110900D01*
X164800Y77100D02*
X165400D01*
X161500D02*
X162600D01*
X156600D02*
X159100D01*
X153600D02*
X154100D01*
X140300D02*
X142100D01*
X139300D02*
X139900D01*
X132800D02*
X134200D01*
X130800D02*
X131400D01*
X129100D02*
X129900D01*
X122700D02*
X123400D01*
X120300D02*
X120900D01*
X118300D02*
X119000D01*
X112200D02*
X113900D01*
X107500D02*
X110900D01*
X164900Y77000D02*
X165400D01*
X161600D02*
X162700D01*
X156700D02*
X159100D01*
X153600D02*
X154100D01*
X140500D02*
X142100D01*
X139300D02*
X139900D01*
X132700D02*
X134100D01*
X130800D02*
X131500D01*
X129200D02*
X129900D01*
X122700D02*
X123500D01*
X120300D02*
X120900D01*
X118400D02*
X118900D01*
X113400D02*
X114000D01*
X112200D02*
X112900D01*
X109200D02*
X110800D01*
X107500D02*
X108600D01*
X164900Y76900D02*
X165400D01*
X161700D02*
X162700D01*
X156700D02*
X159100D01*
X153500D02*
X154100D01*
X141500D02*
X142100D01*
X139300D02*
X139900D01*
X132700D02*
X134000D01*
X130900D02*
X131500D01*
X129300D02*
X130000D01*
X122800D02*
X123500D01*
X120300D02*
X120900D01*
X113500D02*
X114100D01*
X112200D02*
X112900D01*
X109700D02*
X110800D01*
X107500D02*
X108600D01*
X165000Y76800D02*
X165500D01*
X161700D02*
X162700D01*
X156800D02*
X159100D01*
X153500D02*
X154000D01*
X141500D02*
X142100D01*
X139300D02*
X139900D01*
X132700D02*
X133900D01*
X131000D02*
X131600D01*
X129400D02*
X130000D01*
X122900D02*
X123600D01*
X120300D02*
X120900D01*
X113600D02*
X114200D01*
X112200D02*
X112900D01*
X110100D02*
X110700D01*
X107600D02*
X108600D01*
X165000Y76700D02*
X165500D01*
X161700D02*
X162800D01*
X156800D02*
X159200D01*
X153500D02*
X154000D01*
X141500D02*
X142000D01*
X139300D02*
X139900D01*
X132700D02*
X133800D01*
X131100D02*
X131700D01*
X129400D02*
X130100D01*
X122900D02*
X123600D01*
X120300D02*
X120900D01*
X113700D02*
X114300D01*
X112200D02*
X112900D01*
X110100D02*
X110700D01*
X107700D02*
X108600D01*
X165000Y76600D02*
X165500D01*
X161800D02*
X162800D01*
X156800D02*
X159200D01*
X153400D02*
X153900D01*
X141500D02*
X142000D01*
X139300D02*
X140000D01*
X132700D02*
X133600D01*
X131200D02*
X131700D01*
X129500D02*
X130100D01*
X128600D02*
X129000D01*
X123000D02*
X123700D01*
X120300D02*
X121000D01*
X113800D02*
X114400D01*
X112300D02*
X112900D01*
X111100D02*
X111400D01*
X110100D02*
X110700D01*
X107800D02*
X108600D01*
X165100Y76500D02*
X165600D01*
X161800D02*
X162800D01*
X156900D02*
X159200D01*
X153400D02*
X153900D01*
X141500D02*
X142000D01*
X139300D02*
X140000D01*
X132700D02*
X133500D01*
X131300D02*
X131800D01*
X129600D02*
X130200D01*
X128300D02*
X129200D01*
X123000D02*
X123700D01*
X120300D02*
X121000D01*
X113900D02*
X114400D01*
X112300D02*
X112900D01*
X110900D02*
X111900D01*
X110100D02*
X110600D01*
X107900D02*
X108600D01*
X165100Y76400D02*
X165600D01*
X161800D02*
X162800D01*
X156900D02*
X159200D01*
X153400D02*
X153900D01*
X141500D02*
X142000D01*
X139400D02*
X140000D01*
X132700D02*
X133400D01*
X131400D02*
X131800D01*
X129600D02*
X130200D01*
X128100D02*
X129500D01*
X123100D02*
X123800D01*
X120300D02*
X121000D01*
X114100D02*
X114400D01*
X110900D02*
X112900D01*
X110100D02*
X110600D01*
X108000D02*
X108700D01*
X165100Y76300D02*
X165600D01*
X161800D02*
X162800D01*
X156900D02*
X159200D01*
X153400D02*
X153900D01*
X141500D02*
X142000D01*
X139400D02*
X140000D01*
X132700D02*
X133200D01*
X131500D02*
X131800D01*
X128000D02*
X130200D01*
X123100D02*
X123800D01*
X120300D02*
X121000D01*
X118500D02*
X119300D01*
X110900D02*
X112900D01*
X110100D02*
X110600D01*
X108000D02*
X108700D01*
X165100Y76200D02*
X165600D01*
X161800D02*
X162800D01*
X157000D02*
X159200D01*
X153300D02*
X153800D01*
X141500D02*
X142000D01*
X140200D02*
X140800D01*
X139400D02*
X140000D01*
X127900D02*
X130300D01*
X123200D02*
X123900D01*
X120400D02*
X121000D01*
X118300D02*
X119600D01*
X111200D02*
X113100D01*
X110100D02*
X110600D01*
X108100D02*
X108700D01*
X165200Y76100D02*
X165700D01*
X161800D02*
X162800D01*
X157000D02*
X159200D01*
X153300D02*
X153800D01*
X139400D02*
X142000D01*
X127900D02*
X130800D01*
X123300D02*
X124000D01*
X120400D02*
X121000D01*
X118200D02*
X120000D01*
X111700D02*
X113400D01*
X110000D02*
X110600D01*
X108200D02*
X108700D01*
X165200Y76000D02*
X165700D01*
X161800D02*
X162800D01*
X157000D02*
X159200D01*
X153300D02*
X153800D01*
X139400D02*
X142000D01*
X127900D02*
X131500D01*
X123300D02*
X124000D01*
X118200D02*
X121000D01*
X112100D02*
X113800D01*
X110000D02*
X110500D01*
X108200D02*
X108700D01*
X165200Y75900D02*
X165700D01*
X161800D02*
X162800D01*
X157100D02*
X159200D01*
X153300D02*
X153800D01*
X139400D02*
X142000D01*
X129700D02*
X132000D01*
X128000D02*
X129000D01*
X123300D02*
X124100D01*
X118200D02*
X121000D01*
X112400D02*
X114300D01*
X110000D02*
X110500D01*
X108200D02*
X108900D01*
X165200Y75800D02*
X165700D01*
X161800D02*
X162800D01*
X157100D02*
X159300D01*
X153300D02*
X153700D01*
X139500D02*
X142000D01*
X130000D02*
X132000D01*
X128100D02*
X129000D01*
X123200D02*
X124200D01*
X118400D02*
X121500D01*
X112400D02*
X114800D01*
X110000D02*
X110500D01*
X108100D02*
X109500D01*
X165300Y75700D02*
X165700D01*
X161800D02*
X162800D01*
X157100D02*
X159300D01*
X153200D02*
X153700D01*
X141200D02*
X142000D01*
X139500D02*
X140100D01*
X129900D02*
X131900D01*
X128200D02*
X129000D01*
X123100D02*
X124200D01*
X118900D02*
X122000D01*
X112500D02*
X115500D01*
X108100D02*
X110500D01*
X165300Y75600D02*
X165700D01*
X161700D02*
X162700D01*
X157100D02*
X159300D01*
X153200D02*
X153700D01*
X141500D02*
X142000D01*
X139600D02*
X140100D01*
X131000D02*
X131700D01*
X129800D02*
X130700D01*
X128200D02*
X129000D01*
X123100D02*
X124300D01*
X119500D02*
X122700D01*
X113600D02*
X115500D01*
X111700D02*
X113200D01*
X108100D02*
X110500D01*
X165300Y75500D02*
X165800D01*
X161700D02*
X162600D01*
X157100D02*
X159300D01*
X153200D02*
X153700D01*
X141600D02*
X142000D01*
X139600D02*
X140000D01*
X132600D02*
X132900D01*
X129800D02*
X130600D01*
X128300D02*
X129000D01*
X127200D02*
X127600D01*
X123000D02*
X124400D01*
X120000D02*
X122800D01*
X114000D02*
X115400D01*
X111500D02*
X113200D01*
X108700D02*
X110500D01*
X165300Y75400D02*
X165800D01*
X161600D02*
X162600D01*
X157100D02*
X159300D01*
X153200D02*
X153700D01*
X141600D02*
X142000D01*
X139700D02*
X140000D01*
X132600D02*
X133000D01*
X129800D02*
X130600D01*
X128300D02*
X129000D01*
X127000D02*
X128100D01*
X123700D02*
X124500D01*
X123000D02*
X123600D01*
X120400D02*
X122800D01*
X114300D02*
X115300D01*
X112600D02*
X113200D01*
X111300D02*
X112300D01*
X109700D02*
X110500D01*
X165300Y75300D02*
X165800D01*
X161500D02*
X162500D01*
X157200D02*
X159300D01*
X153200D02*
X153700D01*
X141500D02*
X142000D01*
X132700D02*
X133000D01*
X129800D02*
X130600D01*
X126800D02*
X129000D01*
X123800D02*
X124500D01*
X123000D02*
X123600D01*
X120100D02*
X122700D01*
X114500D02*
X115100D01*
X112600D02*
X113300D01*
X111200D02*
X112300D01*
X110000D02*
X110400D01*
X165300Y75200D02*
X165800D01*
X161400D02*
X162400D01*
X157200D02*
X159300D01*
X153200D02*
X153700D01*
X141500D02*
X142100D01*
X138200D02*
X138600D01*
X132700D02*
X133100D01*
X129800D02*
X130500D01*
X126800D02*
X129200D01*
X123900D02*
X124600D01*
X123000D02*
X123600D01*
X121700D02*
X122500D01*
X119900D02*
X121100D01*
X112700D02*
X113300D01*
X111200D02*
X112200D01*
X110000D02*
X110400D01*
X165300Y75100D02*
X165800D01*
X161300D02*
X162300D01*
X157200D02*
X159300D01*
X153200D02*
X153700D01*
X145700D02*
X150100D01*
X141400D02*
X142200D01*
X138000D02*
X139100D01*
X132800D02*
X133200D01*
X126800D02*
X130500D01*
X124000D02*
X124700D01*
X123000D02*
X123600D01*
X119800D02*
X121200D01*
X112700D02*
X113400D01*
X111200D02*
X112100D01*
X110100D02*
X110400D01*
X165300Y75000D02*
X165800D01*
X161200D02*
X162100D01*
X157200D02*
X159300D01*
X153200D02*
X153700D01*
X145700D02*
X150100D01*
X141400D02*
X142300D01*
X137900D02*
X139900D01*
X132800D02*
X133300D01*
X126800D02*
X130500D01*
X124100D02*
X124800D01*
X123000D02*
X123600D01*
X119800D02*
X121200D01*
X112800D02*
X113400D01*
X111200D02*
X112000D01*
X110100D02*
X110300D01*
X165300Y74900D02*
X165800D01*
X161000D02*
X162000D01*
X157200D02*
X159300D01*
X153200D02*
X153700D01*
X145700D02*
X150100D01*
X141400D02*
X142400D01*
X137700D02*
X140900D01*
X132900D02*
X133300D01*
X127200D02*
X130900D01*
X124200D02*
X124900D01*
X123000D02*
X123600D01*
X120600D02*
X121200D01*
X119800D02*
X120400D01*
X112800D02*
X113500D01*
X111200D02*
X111900D01*
X165300Y74800D02*
X165800D01*
X160800D02*
X161700D01*
X157200D02*
X159300D01*
X153200D02*
X153700D01*
X145700D02*
X150100D01*
X137600D02*
X142500D01*
X132900D02*
X133400D01*
X128500D02*
X131600D01*
X124300D02*
X125000D01*
X123000D02*
X123600D01*
X120600D02*
X121200D01*
X119800D02*
X120400D01*
X112900D02*
X113600D01*
X111200D02*
X111800D01*
X165300Y74700D02*
X165800D01*
X160600D02*
X161500D01*
X157200D02*
X159300D01*
X153200D02*
X153700D01*
X145700D02*
X150100D01*
X137500D02*
X142600D01*
X132900D02*
X133500D01*
X129500D02*
X132600D01*
X128500D02*
X129100D01*
X124400D02*
X125100D01*
X123000D02*
X123500D01*
X120600D02*
X121300D01*
X119800D02*
X120400D01*
X112900D02*
X113600D01*
X111300D02*
X111600D01*
X165300Y74600D02*
X165800D01*
X160400D02*
X161300D01*
X157200D02*
X159300D01*
X153200D02*
X153700D01*
X145700D02*
X150100D01*
X139700D02*
X142700D01*
X137400D02*
X138600D01*
X133000D02*
X133600D01*
X129800D02*
X132600D01*
X128500D02*
X129100D01*
X124500D02*
X125200D01*
X123000D02*
X123500D01*
X120600D02*
X121300D01*
X119800D02*
X120400D01*
X113000D02*
X113700D01*
X109700D02*
X110500D01*
X165300Y74500D02*
X165800D01*
X160700D02*
X161600D01*
X157200D02*
X159300D01*
X153200D02*
X153700D01*
X141000D02*
X142800D01*
X139700D02*
X140300D01*
X137300D02*
X138500D01*
X133000D02*
X133600D01*
X129800D02*
X132600D01*
X128600D02*
X129100D01*
X124600D02*
X125200D01*
X123000D02*
X123500D01*
X120700D02*
X121300D01*
X119800D02*
X120400D01*
X113100D02*
X113800D01*
X109500D02*
X110800D01*
X165300Y74400D02*
X165800D01*
X160800D02*
X161800D01*
X157200D02*
X159300D01*
X153200D02*
X153700D01*
X142100D02*
X142900D01*
X141200D02*
X141700D01*
X139600D02*
X140400D01*
X137300D02*
X138400D01*
X133100D02*
X133700D01*
X131000D02*
X132600D01*
X129800D02*
X130400D01*
X128600D02*
X129100D01*
X124800D02*
X125300D01*
X123000D02*
X123500D01*
X120700D02*
X121300D01*
X119800D02*
X120400D01*
X113200D02*
X113900D01*
X109400D02*
X111200D01*
X165300Y74300D02*
X165800D01*
X161000D02*
X162000D01*
X157200D02*
X159300D01*
X153200D02*
X153700D01*
X142200D02*
X143000D01*
X141100D02*
X141700D01*
X139600D02*
X140400D01*
X137300D02*
X138400D01*
X133100D02*
X133800D01*
X131500D02*
X132400D01*
X129800D02*
X130400D01*
X128600D02*
X129100D01*
X124900D02*
X125400D01*
X123000D02*
X123500D01*
X120700D02*
X121400D01*
X119800D02*
X120400D01*
X113200D02*
X114000D01*
X109300D02*
X111700D01*
X165300Y74200D02*
X165800D01*
X161100D02*
X162200D01*
X157200D02*
X159300D01*
X153200D02*
X153700D01*
X142400D02*
X143200D01*
X141000D02*
X141800D01*
X139500D02*
X140400D01*
X137300D02*
X138400D01*
X133200D02*
X133900D01*
X129800D02*
X130400D01*
X128600D02*
X129100D01*
X125100D02*
X125400D01*
X123000D02*
X123600D01*
X120800D02*
X121400D01*
X119900D02*
X120400D01*
X113300D02*
X114000D01*
X109200D02*
X113000D01*
X165300Y74100D02*
X165800D01*
X161200D02*
X162400D01*
X157200D02*
X159300D01*
X153200D02*
X153700D01*
X142500D02*
X143300D01*
X141000D02*
X141900D01*
X139500D02*
X140500D01*
X137400D02*
X138400D01*
X133200D02*
X134000D01*
X129800D02*
X130400D01*
X128500D02*
X129100D01*
X123000D02*
X123600D01*
X120800D02*
X121500D01*
X119900D02*
X120400D01*
X113400D02*
X114100D01*
X111000D02*
X113000D01*
X109100D02*
X110300D01*
X165300Y74000D02*
X165800D01*
X161300D02*
X162500D01*
X157300D02*
X159300D01*
X153200D02*
X153700D01*
X142700D02*
X143500D01*
X141000D02*
X141900D01*
X139500D02*
X140500D01*
X137500D02*
X138400D01*
X133300D02*
X134000D01*
X128400D02*
X130400D01*
X123000D02*
X123600D01*
X120800D02*
X121500D01*
X119900D02*
X120400D01*
X113500D02*
X114200D01*
X111600D02*
X113000D01*
X109100D02*
X110200D01*
X165300Y73900D02*
X165700D01*
X161400D02*
X162600D01*
X157300D02*
X159300D01*
X153200D02*
X153700D01*
X142900D02*
X143600D01*
X141100D02*
X142000D01*
X139600D02*
X140600D01*
X137500D02*
X138400D01*
X133300D02*
X134100D01*
X128400D02*
X130400D01*
X123100D02*
X123600D01*
X120900D02*
X121500D01*
X119900D02*
X120400D01*
X113700D02*
X114400D01*
X112200D02*
X112900D01*
X109100D02*
X110200D01*
X165200Y73800D02*
X165700D01*
X161400D02*
X162700D01*
X157300D02*
X159300D01*
X153200D02*
X153700D01*
X143100D02*
X143800D01*
X141300D02*
X142100D01*
X139700D02*
X140600D01*
X137600D02*
X138400D01*
X133400D02*
X134200D01*
X128400D02*
X130900D01*
X123100D02*
X123600D01*
X120900D02*
X121600D01*
X119900D02*
X120400D01*
X113800D02*
X114500D01*
X112200D02*
X112900D01*
X109200D02*
X110200D01*
X165200Y73700D02*
X165700D01*
X161500D02*
X162800D01*
X157300D02*
X159300D01*
X153300D02*
X153700D01*
X143300D02*
X144000D01*
X141400D02*
X142200D01*
X139800D02*
X140700D01*
X137600D02*
X138400D01*
X133500D02*
X134400D01*
X128600D02*
X131600D01*
X123100D02*
X123600D01*
X120900D02*
X121600D01*
X119900D02*
X120400D01*
X113900D02*
X114600D01*
X112200D02*
X112800D01*
X109300D02*
X110100D01*
X165200Y73600D02*
X165700D01*
X161500D02*
X162800D01*
X157300D02*
X159400D01*
X153300D02*
X153800D01*
X143600D02*
X144000D01*
X141600D02*
X142400D01*
X139900D02*
X140800D01*
X137600D02*
X138400D01*
X133500D02*
X134600D01*
X129300D02*
X132000D01*
X123100D02*
X123600D01*
X121000D02*
X121700D01*
X119900D02*
X120400D01*
X114100D02*
X114700D01*
X112200D02*
X112800D01*
X109300D02*
X110100D01*
X165200Y73500D02*
X165700D01*
X161600D02*
X162900D01*
X157300D02*
X159400D01*
X153300D02*
X153800D01*
X141700D02*
X142500D01*
X140000D02*
X140900D01*
X137700D02*
X138400D01*
X133600D02*
X134700D01*
X129800D02*
X132000D01*
X123100D02*
X123600D01*
X121000D02*
X121700D01*
X119900D02*
X120400D01*
X117300D02*
X117500D01*
X114300D02*
X114800D01*
X112200D02*
X112800D01*
X109300D02*
X110100D01*
X165200Y73400D02*
X165700D01*
X161600D02*
X162900D01*
X157300D02*
X159400D01*
X153300D02*
X153800D01*
X141800D02*
X142600D01*
X140100D02*
X141000D01*
X137700D02*
X138500D01*
X133600D02*
X134700D01*
X129800D02*
X131900D01*
X123100D02*
X123600D01*
X121100D02*
X121800D01*
X119900D02*
X120400D01*
X117300D02*
X117500D01*
X114600D02*
X114800D01*
X112200D02*
X112800D01*
X109300D02*
X110100D01*
X165100Y73300D02*
X165600D01*
X161600D02*
X163000D01*
X157300D02*
X159400D01*
X153300D02*
X153800D01*
X141900D02*
X142700D01*
X140200D02*
X141100D01*
X137700D02*
X138500D01*
X133600D02*
X134700D01*
X130900D02*
X131800D01*
X129800D02*
X130400D01*
X123100D02*
X123600D01*
X121100D02*
X121800D01*
X119900D02*
X120400D01*
X117300D02*
X117500D01*
X112200D02*
X112700D01*
X109400D02*
X110100D01*
X165100Y73200D02*
X165600D01*
X161600D02*
X163000D01*
X157300D02*
X159400D01*
X153400D02*
X153900D01*
X142100D02*
X142900D01*
X140300D02*
X141200D01*
X137800D02*
X138500D01*
X133700D02*
X134700D01*
X131300D02*
X131500D01*
X129800D02*
X130400D01*
X123100D02*
X123600D01*
X121200D02*
X121900D01*
X119900D02*
X120400D01*
X117300D02*
X117500D01*
X112200D02*
X112700D01*
X110400D02*
X111300D01*
X109400D02*
X110100D01*
X165100Y73100D02*
X165600D01*
X161600D02*
X163000D01*
X157300D02*
X159400D01*
X153400D02*
X153900D01*
X142200D02*
X143100D01*
X140400D02*
X141300D01*
X137800D02*
X138600D01*
X133700D02*
X134700D01*
X129800D02*
X130400D01*
X123100D02*
X123600D01*
X121300D02*
X122000D01*
X119900D02*
X120400D01*
X117300D02*
X117600D01*
X112200D02*
X112700D01*
X110400D02*
X111700D01*
X109400D02*
X110100D01*
X165100Y73000D02*
X165600D01*
X161600D02*
X163000D01*
X157300D02*
X159500D01*
X153400D02*
X153900D01*
X142400D02*
X143200D01*
X140500D02*
X141400D01*
X137800D02*
X138600D01*
X133800D02*
X134600D01*
X129800D02*
X130400D01*
X123100D02*
X123600D01*
X121300D02*
X122000D01*
X119900D02*
X120400D01*
X117200D02*
X117600D01*
X110400D02*
X112700D01*
X109400D02*
X110100D01*
X165000Y72900D02*
X165500D01*
X161600D02*
X163000D01*
X157300D02*
X159500D01*
X153500D02*
X154000D01*
X142700D02*
X143400D01*
X140600D02*
X141500D01*
X137900D02*
X138600D01*
X133800D02*
X134600D01*
X129800D02*
X130400D01*
X123100D02*
X123700D01*
X121400D02*
X122100D01*
X119900D02*
X120400D01*
X117200D02*
X117600D01*
X110500D02*
X112700D01*
X109400D02*
X110100D01*
X165000Y72800D02*
X165500D01*
X161600D02*
X163000D01*
X157300D02*
X159500D01*
X153500D02*
X154000D01*
X143000D02*
X143400D01*
X140700D02*
X141600D01*
X137900D02*
X138700D01*
X133900D02*
X134600D01*
X129800D02*
X130400D01*
X123100D02*
X123700D01*
X121500D02*
X122200D01*
X119900D02*
X120400D01*
X117200D02*
X117600D01*
X110900D02*
X112700D01*
X109400D02*
X110100D01*
X165000Y72700D02*
X165500D01*
X161500D02*
X163000D01*
X157400D02*
X159500D01*
X153500D02*
X154000D01*
X140800D02*
X141700D01*
X137900D02*
X138700D01*
X133900D02*
X134500D01*
X129800D02*
X130400D01*
X123100D02*
X123700D01*
X121500D02*
X122300D01*
X119900D02*
X120400D01*
X117200D02*
X117700D01*
X112200D02*
X112700D01*
X109400D02*
X110100D01*
X164900Y72600D02*
X165400D01*
X161500D02*
X163000D01*
X157400D02*
X159600D01*
X153600D02*
X154100D01*
X140900D02*
X141800D01*
X138000D02*
X138700D01*
X133900D02*
X134500D01*
X129700D02*
X130400D01*
X123100D02*
X123700D01*
X121600D02*
X122300D01*
X119900D02*
X120400D01*
X117200D02*
X117700D01*
X112200D02*
X112700D01*
X109400D02*
X110100D01*
X164900Y72500D02*
X165400D01*
X161400D02*
X162900D01*
X157400D02*
X159600D01*
X153600D02*
X154100D01*
X141000D02*
X141900D01*
X138000D02*
X138800D01*
X133900D02*
X134400D01*
X129700D02*
X130400D01*
X123100D02*
X123800D01*
X121700D02*
X122400D01*
X119800D02*
X120400D01*
X117200D02*
X117800D01*
X112200D02*
X112700D01*
X109400D02*
X110100D01*
X164800Y72400D02*
X165400D01*
X161400D02*
X162900D01*
X157400D02*
X159600D01*
X153600D02*
X154200D01*
X141100D02*
X142100D01*
X138000D02*
X138800D01*
X134000D02*
X134300D01*
X129700D02*
X130400D01*
X123100D02*
X123800D01*
X121800D02*
X122500D01*
X119800D02*
X120300D01*
X117100D02*
X117800D01*
X112200D02*
X112700D01*
X109400D02*
X110100D01*
X164800Y72300D02*
X165300D01*
X161300D02*
X162800D01*
X157400D02*
X159700D01*
X153700D02*
X154200D01*
X141300D02*
X142200D01*
X138100D02*
X138900D01*
X134000D02*
X134200D01*
X129700D02*
X130400D01*
X123100D02*
X123800D01*
X121900D02*
X122600D01*
X119700D02*
X120300D01*
X117100D02*
X117900D01*
X112200D02*
X112700D01*
X109400D02*
X110100D01*
X164700Y72200D02*
X165300D01*
X161300D02*
X162800D01*
X157500D02*
X159700D01*
X153700D02*
X154200D01*
X141400D02*
X142300D01*
X138100D02*
X138900D01*
X129700D02*
X130400D01*
X123100D02*
X123900D01*
X122000D02*
X122700D01*
X119500D02*
X120300D01*
X117000D02*
X118000D01*
X112200D02*
X112700D01*
X109400D02*
X110100D01*
X164700Y72100D02*
X165200D01*
X161200D02*
X162700D01*
X157500D02*
X159800D01*
X153800D02*
X154300D01*
X141500D02*
X142500D01*
X138100D02*
X139000D01*
X129700D02*
X130400D01*
X123100D02*
X123900D01*
X122200D02*
X122800D01*
X119300D02*
X120300D01*
X117000D02*
X118400D01*
X112200D02*
X112700D01*
X109400D02*
X110100D01*
X164600Y72000D02*
X165200D01*
X161100D02*
X162600D01*
X157500D02*
X159900D01*
X153800D02*
X154400D01*
X141700D02*
X142600D01*
X138200D02*
X139100D01*
X129700D02*
X130500D01*
X123100D02*
X123900D01*
X122300D02*
X122900D01*
X117000D02*
X120200D01*
X112200D02*
X112700D01*
X109400D02*
X110100D01*
X164600Y71900D02*
X165100D01*
X160900D02*
X162600D01*
X157600D02*
X159900D01*
X153900D02*
X154400D01*
X141800D02*
X142700D01*
X138200D02*
X139100D01*
X129700D02*
X130500D01*
X123200D02*
X123900D01*
X122500D02*
X123000D01*
X117000D02*
X120200D01*
X112200D02*
X112700D01*
X110600D02*
X110900D01*
X109400D02*
X110100D01*
X164500Y71800D02*
X165100D01*
X160700D02*
X162500D01*
X157600D02*
X160000D01*
X153900D02*
X154500D01*
X142000D02*
X142900D01*
X140500D02*
X140800D01*
X138300D02*
X139200D01*
X129700D02*
X130500D01*
X123200D02*
X123900D01*
X122800D02*
X123000D01*
X117100D02*
X120100D01*
X112200D02*
X112700D01*
X110400D02*
X111300D01*
X109400D02*
X110200D01*
X164500Y71700D02*
X165000D01*
X162600D02*
X162700D01*
X160300D02*
X162400D01*
X157700D02*
X160100D01*
X154000D02*
X154500D01*
X142100D02*
X143000D01*
X140200D02*
X140800D01*
X138300D02*
X139400D01*
X129700D02*
X130500D01*
X123200D02*
X123800D01*
X117300D02*
X120000D01*
X109400D02*
X112700D01*
X164400Y71600D02*
X165000D01*
X160500D02*
X162300D01*
X157700D02*
X160200D01*
X154000D02*
X154600D01*
X142300D02*
X143200D01*
X140000D02*
X140700D01*
X138400D02*
X139500D01*
X131200D02*
X131500D01*
X129800D02*
X130600D01*
X123200D02*
X123800D01*
X117500D02*
X119900D01*
X109400D02*
X112700D01*
X164300Y71500D02*
X164900D01*
X162500D02*
X162600D01*
X160700D02*
X162100D01*
X157800D02*
X160300D01*
X154100D02*
X154700D01*
X142500D02*
X143400D01*
X138400D02*
X140600D01*
X129800D02*
X131500D01*
X123200D02*
X123800D01*
X117800D02*
X119700D01*
X109400D02*
X112700D01*
X164300Y71400D02*
X164800D01*
X162300D02*
X162500D01*
X161000D02*
X161900D01*
X157800D02*
X160500D01*
X154100D02*
X154700D01*
X142700D02*
X143500D01*
X138500D02*
X140500D01*
X129800D02*
X131500D01*
X123200D02*
X123700D01*
X118300D02*
X119200D01*
X111200D02*
X112700D01*
X109400D02*
X110500D01*
X164200Y71300D02*
X164800D01*
X162100D02*
X162500D01*
X157900D02*
X160700D01*
X154200D02*
X154800D01*
X143000D02*
X143500D01*
X138600D02*
X140400D01*
X129800D02*
X131400D01*
X123300D02*
X123700D01*
X112100D02*
X112700D01*
X109400D02*
X110400D01*
X164100Y71200D02*
X164700D01*
X161900D02*
X162400D01*
X158000D02*
X161100D01*
X154300D02*
X154900D01*
X138700D02*
X140300D01*
X129800D02*
X131200D01*
X112200D02*
X112700D01*
X109500D02*
X110400D01*
X164000Y71100D02*
X164600D01*
X158100D02*
X162300D01*
X154300D02*
X155000D01*
X138800D02*
X140200D01*
X129900D02*
X131100D01*
X112200D02*
X112700D01*
X109500D02*
X110400D01*
X163900Y71000D02*
X164600D01*
X158200D02*
X162200D01*
X154400D02*
X155000D01*
X138900D02*
X140200D01*
X129900D02*
X131000D01*
X112300D02*
X112700D01*
X109500D02*
X110300D01*
X163900Y70900D02*
X164500D01*
X158300D02*
X162100D01*
X154500D02*
X155100D01*
X139000D02*
X140100D01*
X130000D02*
X130900D01*
X112300D02*
X112700D01*
X109500D02*
X110300D01*
X163800Y70800D02*
X164400D01*
X158500D02*
X162000D01*
X154600D02*
X155200D01*
X139100D02*
X140100D01*
X130100D02*
X130900D01*
X112400D02*
X112600D01*
X109600D02*
X110300D01*
X163700Y70700D02*
X164300D01*
X158600D02*
X161900D01*
X154600D02*
X155300D01*
X139300D02*
X140100D01*
X130200D02*
X130800D01*
X109600D02*
X110200D01*
X163600Y70600D02*
X164200D01*
X158900D02*
X161700D01*
X154700D02*
X155400D01*
X139500D02*
X140000D01*
X130300D02*
X130800D01*
X109700D02*
X110200D01*
X163500Y70500D02*
X164200D01*
X159100D02*
X161500D01*
X154800D02*
X155500D01*
X130400D02*
X130700D01*
X109800D02*
X110200D01*
X163400Y70400D02*
X164100D01*
X159400D02*
X161300D01*
X154900D02*
X155600D01*
X163200Y70300D02*
X164000D01*
X159900D02*
X160900D01*
X155000D02*
X155700D01*
X163100Y70200D02*
X163900D01*
X155100D02*
X155900D01*
X163000Y70100D02*
X163800D01*
X155200D02*
X156000D01*
X162900Y70000D02*
X163600D01*
X155300D02*
X156100D01*
X162700Y69900D02*
X163500D01*
X155500D02*
X156300D01*
X162500Y69800D02*
X163400D01*
X155600D02*
X156400D01*
X162400Y69700D02*
X163300D01*
X155700D02*
X156600D01*
X162200Y69600D02*
X163100D01*
X155800D02*
X156800D01*
X162000Y69500D02*
X163000D01*
X156000D02*
X157000D01*
X161800Y69400D02*
X162800D01*
X156200D02*
X157200D01*
X161500Y69300D02*
X162700D01*
X156300D02*
X157400D01*
X161200Y69200D02*
X162500D01*
X156500D02*
X157700D01*
X160900Y69100D02*
X162300D01*
X156700D02*
X158100D01*
X160400Y69000D02*
X162100D01*
X156900D02*
X158600D01*
X157100Y68900D02*
X161800D01*
X157400Y68800D02*
X161600D01*
X157700Y68700D02*
X161200D01*
X158100Y68600D02*
X160900D01*
X158700Y68500D02*
X160300D01*
D53*
X132998Y132231D02*
D03*
D54*
X110310Y28739D02*
D03*
X110316Y42239D02*
D03*
D55*
X136264Y167240D02*
D03*
X136264Y148740D02*
D03*
D56*
X153994Y147500D02*
D03*
D57*
X131878Y118198D02*
D03*
X118752Y118146D02*
D03*
M02*
