%FSLAX25Y25*%
%MOIN*%
G70*
G01*
G75*
G04 Layer_Physical_Order=1*
G04 Layer_Color=255*
%ADD10R,0.07874X0.07874*%
%ADD11R,0.02362X0.07874*%
%ADD12R,0.07874X0.02362*%
%ADD13R,0.11811X0.04213*%
%ADD14R,0.37008X0.27559*%
%ADD15R,0.03500X0.03000*%
%ADD16R,0.12992X0.07087*%
%ADD17R,0.04134X0.08661*%
%ADD18R,0.03937X0.04331*%
%ADD19R,0.03000X0.03500*%
%ADD20R,0.04331X0.03937*%
%ADD21R,0.08661X0.04134*%
%ADD22R,0.02362X0.04299*%
%ADD23R,0.01575X0.03937*%
%ADD24R,0.07874X0.03937*%
%ADD25C,0.01500*%
%ADD26C,0.01000*%
%ADD27C,0.02000*%
%ADD28C,0.07000*%
%ADD29C,0.03150*%
%ADD30C,0.04000*%
%ADD31C,0.06000*%
%ADD32R,0.06000X0.06000*%
%ADD33C,0.02500*%
G36*
X7874Y175228D02*
X169291D01*
X169345Y175239D01*
X170453Y175130D01*
X171569Y174791D01*
X172599Y174241D01*
X173501Y173501D01*
X174241Y172599D01*
X174791Y171569D01*
X175130Y170453D01*
X175239Y169345D01*
X175228Y169291D01*
Y166319D01*
X169238D01*
Y160319D01*
X169238Y160319D01*
X169238Y160126D01*
X169238D01*
Y154126D01*
X175228D01*
Y152978D01*
X174787Y152743D01*
X174472Y152953D01*
X173887Y153070D01*
X161995D01*
X161803Y153532D01*
X162398Y154126D01*
X168738D01*
Y159965D01*
X168738Y159965D01*
D01*
D01*
X168738Y160126D01*
Y160152D01*
Y160222D01*
X168738Y160319D01*
D01*
X168738Y160479D01*
X168738D01*
D01*
Y160479D01*
X168738D01*
D01*
Y162569D01*
X162238D01*
Y160479D01*
X162238Y160479D01*
X162238D01*
X162238Y160319D01*
Y160126D01*
D01*
D01*
X162238D01*
Y159110D01*
X161734Y159010D01*
X161072Y158568D01*
X158055Y155551D01*
X154750D01*
Y156376D01*
X151499D01*
Y157876D01*
X154750D01*
Y160126D01*
D01*
Y160126D01*
X154750Y160126D01*
Y160319D01*
X154750D01*
Y166319D01*
D01*
Y166319D01*
X154750Y166319D01*
Y166500D01*
X154750D01*
Y168750D01*
X148250D01*
Y169287D01*
X148166Y169252D01*
X147750Y169530D01*
Y172500D01*
X141250D01*
Y171551D01*
X136795D01*
Y173118D01*
X121984D01*
Y165906D01*
Y159213D01*
Y156876D01*
X136795D01*
Y158364D01*
X141250D01*
Y154126D01*
X142535D01*
X142616Y153720D01*
X142756Y153510D01*
X142520Y153070D01*
X136795D01*
Y155376D01*
X121984D01*
Y152520D01*
Y145827D01*
Y139134D01*
X136795D01*
Y139194D01*
X137257Y139386D01*
X140398Y136245D01*
X140398Y136245D01*
X140398D01*
X140398Y136245D01*
X140398D01*
X140398Y136245D01*
Y136245D01*
Y136245D01*
D01*
D01*
X140398D01*
Y136245D01*
X141060Y135803D01*
X141840Y135647D01*
X151059D01*
Y134037D01*
X156421D01*
Y141137D01*
X156884Y141600D01*
X160250D01*
Y145811D01*
X161004D01*
Y141342D01*
X175228D01*
Y131743D01*
X161004D01*
Y121657D01*
X163957D01*
Y116327D01*
X164129Y115022D01*
X164303Y114601D01*
X163887Y114324D01*
X160669Y117542D01*
X160250Y117822D01*
Y119100D01*
Y121350D01*
X153750D01*
Y119100D01*
Y113100D01*
X159343D01*
X163241Y109202D01*
X163049Y108740D01*
X161333D01*
X161087Y108789D01*
X160840Y108740D01*
X157837D01*
Y102740D01*
Y96740D01*
X158538D01*
Y96272D01*
X158407Y95958D01*
X158313Y95240D01*
X158407Y94522D01*
X158685Y93853D01*
X159125Y93279D01*
X159700Y92838D01*
X160369Y92561D01*
X161087Y92466D01*
X161804Y92561D01*
X162473Y92838D01*
X163048Y93279D01*
X163074Y93313D01*
X163547Y93152D01*
Y89413D01*
X163547Y89413D01*
X163547D01*
X163703Y88633D01*
X164145Y87972D01*
X166558Y85558D01*
X167220Y85116D01*
X167972Y84966D01*
X168069Y84731D01*
X168791Y83791D01*
X169731Y83069D01*
X170825Y82616D01*
X172000Y82461D01*
X173175Y82616D01*
X174269Y83069D01*
X174780Y83461D01*
X175228Y83240D01*
Y80760D01*
X174780Y80539D01*
X174269Y80931D01*
X173175Y81384D01*
X172750Y81440D01*
Y76999D01*
Y72560D01*
X173175Y72616D01*
X174269Y73069D01*
X174780Y73461D01*
X175228Y73240D01*
Y70760D01*
X174780Y70539D01*
X174269Y70931D01*
X173175Y71384D01*
X172750Y71440D01*
Y66999D01*
Y62560D01*
X173175Y62616D01*
X174269Y63069D01*
X174780Y63461D01*
X175228Y63240D01*
Y60760D01*
X174780Y60539D01*
X174269Y60931D01*
X173175Y61384D01*
X172750Y61440D01*
Y56999D01*
Y52560D01*
X173175Y52616D01*
X174269Y53069D01*
X174780Y53461D01*
X175228Y53240D01*
Y31044D01*
X176146D01*
Y7874D01*
X176147Y7865D01*
X176017Y6536D01*
X175626Y5250D01*
X174993Y4064D01*
X174140Y3025D01*
X173101Y2173D01*
X172861Y2044D01*
X148440D01*
X148333Y1937D01*
X124465D01*
Y2347D01*
X124465D01*
Y13220D01*
X118596D01*
Y7783D01*
X117096D01*
Y11255D01*
X117554Y11712D01*
X117886Y12208D01*
X118002Y12794D01*
Y12805D01*
X118069Y12967D01*
X118103Y13221D01*
X118481D01*
X118152Y13596D01*
X118164Y13685D01*
X118069Y14403D01*
X118002Y14565D01*
Y14694D01*
X117885Y15279D01*
X117554Y15775D01*
X117154Y16175D01*
X116658Y16507D01*
X116072Y16623D01*
X108572D01*
X107987Y16507D01*
X107491Y16175D01*
X106991Y15675D01*
X106659Y15179D01*
X106543Y14594D01*
Y13220D01*
X106543D01*
Y12594D01*
X106659Y12008D01*
X106785Y11819D01*
Y7783D01*
X105285D01*
Y13220D01*
X49661D01*
Y13220D01*
X44299D01*
Y13220D01*
X40362D01*
Y13220D01*
X36425D01*
Y9823D01*
X19935D01*
X17950Y11808D01*
X17288Y12250D01*
X16508Y12405D01*
X15008D01*
Y13616D01*
X9008D01*
Y7116D01*
X15008D01*
Y8327D01*
X15663D01*
X17435Y6555D01*
X17370Y6620D01*
X17321Y6123D01*
X17195Y6039D01*
X8345D01*
X7008Y7376D01*
Y13616D01*
X1937D01*
Y14116D01*
X7008D01*
Y14345D01*
X7384Y14675D01*
X8008Y14592D01*
X8632Y14675D01*
X9008Y14345D01*
Y14116D01*
X15008D01*
Y20616D01*
X9008D01*
Y20387D01*
X8632Y20058D01*
X8008Y20140D01*
X7384Y20058D01*
X7008Y20387D01*
Y20616D01*
X1937D01*
Y43113D01*
X2386Y43334D01*
X2731Y43069D01*
X3825Y42616D01*
X5000Y42461D01*
X6175Y42616D01*
X7269Y43069D01*
X8209Y43791D01*
X8931Y44731D01*
X9384Y45825D01*
X9539Y47000D01*
X9466Y47556D01*
X9914Y47777D01*
X13948Y43743D01*
D01*
X13948Y43743D01*
X13948Y43743D01*
D01*
D01*
D01*
X13948Y43743D01*
Y43743D01*
X14609Y43301D01*
X15390Y43146D01*
X15953D01*
Y42504D01*
Y38567D01*
Y36453D01*
X15577Y36123D01*
X15390Y36148D01*
X14672Y36053D01*
X14003Y35776D01*
X13429Y35335D01*
X12988Y34761D01*
X12711Y34092D01*
X12616Y33374D01*
X12711Y32656D01*
X12988Y31987D01*
X13429Y31413D01*
Y31398D01*
X12988Y30824D01*
X12711Y30155D01*
X12616Y29437D01*
X12711Y28719D01*
X12988Y28050D01*
X13429Y27476D01*
X14003Y27035D01*
X14672Y26758D01*
X15390Y26663D01*
X15577Y26688D01*
X15953Y26358D01*
Y26250D01*
X21391D01*
Y25501D01*
X22140D01*
Y22819D01*
X24617D01*
X24895Y22403D01*
X24711Y21958D01*
X24616Y21240D01*
X24711Y20522D01*
X24988Y19853D01*
X25429Y19279D01*
X26003Y18838D01*
X26672Y18561D01*
X27390Y18466D01*
X28108Y18561D01*
X28777Y18838D01*
X29351Y19279D01*
X29792Y19853D01*
X30069Y20522D01*
X30163Y21240D01*
X30069Y21958D01*
X29792Y22627D01*
X29429Y23100D01*
Y25348D01*
X29805Y25677D01*
X30390Y25600D01*
X30538Y25620D01*
X30913Y25290D01*
Y23494D01*
X35600D01*
Y28181D01*
X33333D01*
X33163Y28374D01*
X33069Y29092D01*
X32792Y29761D01*
X32429Y30234D01*
Y37874D01*
X32274Y38654D01*
X31832Y39316D01*
X29160Y41988D01*
X29477Y42374D01*
X29914Y42082D01*
X30890Y41888D01*
X44890D01*
X45865Y42082D01*
X46692Y42635D01*
X54192Y50135D01*
X54745Y50962D01*
X54939Y51937D01*
D01*
D01*
D01*
D01*
D01*
X54939D01*
D01*
D01*
D01*
D01*
Y51937D01*
X54939D01*
D01*
Y51937D01*
D01*
D01*
D01*
D01*
D01*
D01*
D01*
D01*
D01*
D01*
D01*
D01*
Y51937D01*
D01*
X54939D01*
D01*
D01*
D01*
D01*
X54939Y51937D01*
Y56444D01*
X55946Y57451D01*
X119102D01*
Y57315D01*
X119102D01*
Y52628D01*
X129976D01*
Y54427D01*
X130450Y54588D01*
X130539Y54472D01*
X131113Y54031D01*
X131782Y53754D01*
X132500Y53659D01*
X133218Y53754D01*
X133647Y53932D01*
X134063Y53654D01*
Y50378D01*
Y46441D01*
Y42504D01*
Y38567D01*
Y38061D01*
X144937D01*
Y38567D01*
Y42504D01*
Y46441D01*
Y50378D01*
Y54315D01*
Y58252D01*
Y62189D01*
Y64894D01*
X145313Y65224D01*
X146000Y65133D01*
X146718Y65228D01*
X147387Y65505D01*
X147961Y65946D01*
X148402Y66520D01*
X148679Y67189D01*
X148774Y67907D01*
X148679Y68625D01*
X148402Y69294D01*
X147961Y69868D01*
X147387Y70309D01*
X146718Y70586D01*
X146000Y70681D01*
X145913Y70669D01*
X145880Y70691D01*
X145100Y70846D01*
X144937D01*
Y74000D01*
Y77937D01*
Y79047D01*
X145385Y79268D01*
X145521Y79164D01*
X145835Y79034D01*
X149538Y75332D01*
Y45240D01*
X149538Y45240D01*
X149538D01*
X149732Y44265D01*
X150284Y43438D01*
X151784Y41938D01*
X151784Y41938D01*
X151784D01*
X151784Y41938D01*
X151784D01*
X151784Y41938D01*
Y41938D01*
Y41938D01*
D01*
D01*
X151784D01*
Y41938D01*
X152611Y41385D01*
X153337Y41241D01*
Y40740D01*
X157050D01*
X157084Y40656D01*
X156807Y40240D01*
X153337D01*
Y34240D01*
X159500D01*
X159829Y33864D01*
X159813Y33740D01*
X159907Y33022D01*
X160185Y32353D01*
X160625Y31779D01*
X161200Y31338D01*
X161869Y31061D01*
X161996Y31044D01*
X163177D01*
X163304Y31061D01*
X163973Y31338D01*
X164548Y31779D01*
X164989Y32353D01*
X165266Y33022D01*
X165360Y33740D01*
X165354Y33786D01*
X165471Y33960D01*
X165526Y34240D01*
X166837D01*
Y40240D01*
X163624D01*
X163432Y40702D01*
X163470Y40740D01*
X166837D01*
Y46740D01*
X165084D01*
X164862Y47189D01*
X164989Y47353D01*
X165266Y48022D01*
X165360Y48740D01*
X165354Y48786D01*
X165471Y48960D01*
X165526Y49240D01*
X166837D01*
Y55240D01*
X163624D01*
X163432Y55702D01*
X163470Y55740D01*
X166837D01*
Y61740D01*
X160337D01*
Y58770D01*
X159921Y58492D01*
X159837Y58527D01*
Y61740D01*
X154636D01*
Y76387D01*
X154442Y77363D01*
X153889Y78190D01*
X149440Y82639D01*
X149310Y82953D01*
X148869Y83527D01*
X148295Y83968D01*
X147626Y84245D01*
X146908Y84340D01*
X146190Y84245D01*
X145521Y83968D01*
X145385Y83864D01*
X144937Y84085D01*
Y85811D01*
Y89748D01*
Y91679D01*
X134063D01*
Y89748D01*
Y85811D01*
Y83299D01*
Y82440D01*
X133495Y82060D01*
X130438Y79003D01*
X129976Y79195D01*
Y81049D01*
X119102D01*
Y77405D01*
X113696D01*
X86724Y104377D01*
Y117006D01*
X87087Y117479D01*
X87364Y118148D01*
X87459Y118866D01*
X87364Y119584D01*
X87087Y120253D01*
X87188Y120457D01*
X92185D01*
Y119054D01*
X91822Y118581D01*
X91545Y117912D01*
X91451Y117194D01*
X91510Y116746D01*
X91180Y116370D01*
X90165D01*
Y111683D01*
X101039D01*
Y116370D01*
X101039D01*
X100841Y116476D01*
X100841D01*
X100935Y117194D01*
X100841Y117912D01*
X100564Y118581D01*
X100201Y119054D01*
Y120457D01*
X101348D01*
Y125893D01*
Y131331D01*
X93366D01*
X93037Y131707D01*
X93061Y131894D01*
X92967Y132612D01*
X93129Y132854D01*
X99928D01*
X100400Y132492D01*
X101069Y132214D01*
X101787Y132120D01*
X102505Y132214D01*
X103174Y132492D01*
X103749Y132932D01*
X104190Y133507D01*
X104467Y134176D01*
X104561Y134894D01*
X104467Y135612D01*
X104190Y136281D01*
X103749Y136855D01*
X103174Y137296D01*
X102505Y137573D01*
X101787Y137667D01*
X101069Y137573D01*
X100400Y137296D01*
X99928Y136933D01*
X88161D01*
X87381Y136778D01*
X86720Y136336D01*
X85867Y135483D01*
X85368Y135516D01*
X85302Y135601D01*
X84728Y136042D01*
X84059Y136319D01*
X83341Y136414D01*
X82623Y136319D01*
X81954Y136042D01*
X81380Y135601D01*
X80939Y135027D01*
X80662Y134358D01*
X80646Y134241D01*
X80184Y134049D01*
X79863Y134296D01*
X79194Y134573D01*
X78476Y134667D01*
X77759Y134573D01*
X77090Y134296D01*
X76515Y133855D01*
X76091Y133302D01*
X75592Y133270D01*
X73792Y135070D01*
X73130Y135512D01*
X72350Y135667D01*
X68110D01*
X67637Y136030D01*
X66968Y136307D01*
X66250Y136402D01*
X65532Y136307D01*
X64863Y136030D01*
X64289Y135589D01*
X63848Y135015D01*
X63571Y134346D01*
X63476Y133628D01*
X63571Y132910D01*
X63848Y132241D01*
X64202Y131779D01*
X63981Y131331D01*
X55872D01*
Y126994D01*
Y121894D01*
X55604Y121626D01*
Y120457D01*
X74799D01*
X75077Y120041D01*
X74888Y119584D01*
X74793Y118866D01*
X74888Y118148D01*
X75165Y117479D01*
X75528Y117006D01*
Y100584D01*
X75528Y100584D01*
X75528D01*
X75683Y99804D01*
X76125Y99142D01*
X111839Y63428D01*
X112439Y63027D01*
X112294Y62549D01*
X54939D01*
Y108533D01*
X58313Y111908D01*
X58628Y112038D01*
X59202Y112479D01*
X59377Y112706D01*
X59850Y112546D01*
Y111683D01*
X64537D01*
Y116370D01*
X59850D01*
Y116335D01*
X59377Y116174D01*
X59202Y116402D01*
X58628Y116842D01*
X57959Y117119D01*
X57241Y117214D01*
X56523Y117119D01*
X55854Y116842D01*
X55280Y116402D01*
X54839Y115827D01*
X54709Y115513D01*
X50587Y111391D01*
X50035Y110564D01*
X49841Y109589D01*
Y52993D01*
X43834Y46986D01*
X41787D01*
Y51128D01*
X30913D01*
Y49856D01*
X30451Y49665D01*
X29922Y50195D01*
X29792Y50509D01*
X29351Y51083D01*
X28777Y51524D01*
X28108Y51801D01*
X27390Y51896D01*
X27203Y51871D01*
X26827Y52201D01*
Y52309D01*
X21389D01*
Y53809D01*
X26827D01*
Y54315D01*
Y58252D01*
Y61948D01*
X26996Y62096D01*
X27714Y62191D01*
X28383Y62468D01*
X28524Y62576D01*
X29620D01*
X30498Y62751D01*
X31242Y63248D01*
X32074Y64079D01*
X32571Y64824D01*
X32746Y65701D01*
Y76362D01*
X35600D01*
Y81798D01*
Y87236D01*
X34707D01*
X34516Y87698D01*
X34695Y87878D01*
Y87878D01*
X34695D01*
X34695D01*
D01*
Y87878D01*
X34695D01*
D01*
D01*
Y87878D01*
D01*
D01*
D01*
D01*
D01*
D01*
D01*
D01*
D01*
Y87878D01*
X34695D01*
D01*
D01*
D01*
X35193Y88622D01*
X35367Y89500D01*
Y103500D01*
X35193Y104378D01*
X34695Y105122D01*
X34850Y105496D01*
X35600D01*
Y110183D01*
X30913D01*
Y109557D01*
X30619Y109436D01*
X30204Y109713D01*
Y125833D01*
X35512Y131142D01*
Y131142D01*
X35512D01*
X35512D01*
D01*
Y131142D01*
X35512D01*
D01*
D01*
Y131142D01*
D01*
D01*
D01*
D01*
D01*
D01*
D01*
D01*
D01*
Y131142D01*
X35512D01*
D01*
D01*
D01*
X36009Y131886D01*
X36184Y132764D01*
Y135990D01*
X39140D01*
Y139239D01*
Y142490D01*
X30890D01*
Y142441D01*
X30466D01*
Y142441D01*
X28216D01*
Y139190D01*
Y135941D01*
X30466D01*
Y135990D01*
X30890D01*
Y135990D01*
X31596D01*
Y133714D01*
X26287Y128406D01*
X25790Y127661D01*
X25615Y126784D01*
Y108664D01*
X25790Y107786D01*
X26073Y107362D01*
X25837Y106921D01*
X22140D01*
Y104990D01*
X26827D01*
Y105849D01*
X27289Y106040D01*
X30779Y102550D01*
Y90450D01*
X30143Y89815D01*
X30143Y89815D01*
X28829Y88500D01*
X28332Y87756D01*
X28157Y86878D01*
D01*
Y86878D01*
Y67816D01*
X27742Y67538D01*
X27714Y67549D01*
X26996Y67644D01*
X26827Y67792D01*
Y68057D01*
X21389D01*
Y69557D01*
X26827D01*
Y70063D01*
Y74000D01*
Y77937D01*
Y81874D01*
Y85811D01*
Y87742D01*
X21389D01*
Y89242D01*
X26827D01*
Y89425D01*
X27090Y89655D01*
X27808Y89750D01*
X28477Y90027D01*
X29051Y90468D01*
X29492Y91042D01*
X29769Y91711D01*
X29864Y92429D01*
X29769Y93147D01*
X29492Y93816D01*
X29051Y94390D01*
Y94405D01*
X29492Y94979D01*
X29769Y95648D01*
X29864Y96366D01*
X29769Y97084D01*
X29492Y97753D01*
X29051Y98327D01*
X28477Y98768D01*
X27808Y99045D01*
X27090Y99140D01*
X26827Y99370D01*
Y99553D01*
X21389D01*
Y101053D01*
X26827D01*
Y101559D01*
Y103490D01*
X21389D01*
Y104239D01*
X20640D01*
Y106921D01*
X17144D01*
Y122765D01*
X18398Y124018D01*
X18465Y123950D01*
X19210Y123453D01*
X20088Y123278D01*
X20966Y123453D01*
X21710Y123950D01*
X24281Y126522D01*
X24779Y127266D01*
X24953Y128144D01*
Y128244D01*
X24779Y129122D01*
X24281Y129866D01*
X24263Y129884D01*
X25835Y131456D01*
X26333Y132200D01*
X26507Y133078D01*
Y135941D01*
X26716D01*
Y139190D01*
Y142397D01*
X26761Y142442D01*
X27414D01*
X27222Y142903D01*
X27261Y142941D01*
X30466D01*
Y142990D01*
X30890D01*
Y142990D01*
X42890D01*
Y149490D01*
X35547D01*
X35332Y149812D01*
X33332Y151812D01*
X32670Y152254D01*
X31890Y152409D01*
X29289D01*
Y159113D01*
X17037D01*
Y155644D01*
X16766D01*
Y154895D01*
X14478D01*
Y152823D01*
X14410D01*
X13629Y152667D01*
X12968Y152225D01*
X11448Y150706D01*
X11006Y150044D01*
X10896Y149490D01*
X9790D01*
Y148279D01*
X9390D01*
X8609Y148124D01*
X7948Y147682D01*
X7121Y146855D01*
X6679Y146194D01*
X6524Y145413D01*
Y129740D01*
X6524Y129740D01*
X6524D01*
X6679Y128960D01*
X7121Y128298D01*
X8311Y127109D01*
Y111500D01*
X1937D01*
Y164775D01*
X5779D01*
Y168242D01*
Y171712D01*
X2937D01*
X2680Y172141D01*
X2925Y172599D01*
X3665Y173501D01*
X4567Y174241D01*
X5596Y174791D01*
X6713Y175130D01*
X7821Y175239D01*
X7874Y175228D01*
D02*
G37*
G36*
X175487Y149940D02*
Y146540D01*
X168487D01*
X167687Y147340D01*
X134287D01*
X132399Y151115D01*
X132662Y151540D01*
X173887D01*
X175487Y149940D01*
D02*
G37*
G36*
X142939Y164894D02*
Y161394D01*
X141439Y159894D01*
X135939D01*
X134939Y160894D01*
X133846D01*
X133538Y161288D01*
X134439Y164894D01*
X135439D01*
X136439Y165894D01*
X141939D01*
X142939Y164894D01*
D02*
G37*
G36*
X13540Y135990D02*
X15790D01*
Y135990D01*
X15817D01*
X15866Y135941D01*
Y135941D01*
X18116D01*
Y139192D01*
X19616D01*
Y135941D01*
X19819D01*
Y134898D01*
X12845Y127924D01*
X12366Y128069D01*
X12234Y128734D01*
X11792Y129395D01*
X10602Y130585D01*
Y135990D01*
X12040D01*
Y139241D01*
X13540D01*
Y135990D01*
D02*
G37*
G36*
X116472Y14694D02*
Y12794D01*
X115673Y11994D01*
X114673Y10994D01*
Y4094D01*
X109273D01*
X109172Y4194D01*
X108872Y4494D01*
Y11394D01*
Y11794D01*
X108072Y12594D01*
Y14594D01*
X108572Y15094D01*
X116072D01*
X116472Y14694D01*
D02*
G37*
%LPC*%
G36*
X35600Y57315D02*
X30913D01*
Y52628D01*
X35600D01*
Y57315D01*
D02*
G37*
G36*
X41787D02*
X37100D01*
Y52628D01*
X41787D01*
Y57315D01*
D02*
G37*
G36*
X171250Y61440D02*
X170825Y61384D01*
X169731Y60931D01*
X168791Y60209D01*
X168069Y59269D01*
X167616Y58175D01*
X167560Y57750D01*
X171250D01*
Y61440D01*
D02*
G37*
G36*
X129976Y51128D02*
X125289D01*
Y46441D01*
X129976D01*
Y51128D01*
D02*
G37*
G36*
X123789D02*
X119102D01*
Y46441D01*
X123789D01*
Y51128D01*
D02*
G37*
G36*
X144937Y36561D02*
X134063D01*
Y34630D01*
Y31044D01*
X144937D01*
Y34630D01*
Y36561D01*
D02*
G37*
G36*
X171250Y56250D02*
X167560D01*
X167616Y55825D01*
X168069Y54731D01*
X168791Y53791D01*
X169731Y53069D01*
X170825Y52616D01*
X171250Y52560D01*
Y56250D01*
D02*
G37*
G36*
Y66250D02*
X167560D01*
X167616Y65825D01*
X168069Y64731D01*
X168791Y63791D01*
X169731Y63069D01*
X170825Y62616D01*
X171250Y62560D01*
Y66250D01*
D02*
G37*
G36*
X129976Y87236D02*
X125289D01*
Y82549D01*
X129976D01*
Y87236D01*
D02*
G37*
G36*
X123789D02*
X119102D01*
Y82549D01*
X123789D01*
Y87236D01*
D02*
G37*
G36*
X41787Y110183D02*
X37100D01*
Y105496D01*
X41787D01*
Y110183D01*
D02*
G37*
G36*
X144937Y95616D02*
X134063D01*
Y93685D01*
Y93179D01*
X144937D01*
Y93685D01*
Y95616D01*
D02*
G37*
G36*
X41787Y87236D02*
X37100D01*
Y82549D01*
X41787D01*
Y87236D01*
D02*
G37*
G36*
X171250Y76250D02*
X167560D01*
X167616Y75825D01*
X168069Y74731D01*
X168791Y73791D01*
X169731Y73069D01*
X170825Y72616D01*
X171250Y72560D01*
Y76250D01*
D02*
G37*
G36*
Y71440D02*
X170825Y71384D01*
X169731Y70931D01*
X168791Y70209D01*
X168069Y69269D01*
X167616Y68175D01*
X167560Y67750D01*
X171250D01*
Y71440D01*
D02*
G37*
G36*
Y81440D02*
X170825Y81384D01*
X169731Y80931D01*
X168791Y80209D01*
X168069Y79269D01*
X167616Y78175D01*
X167560Y77750D01*
X171250D01*
Y81440D01*
D02*
G37*
G36*
X41787Y81049D02*
X37100D01*
Y76362D01*
X41787D01*
Y81049D01*
D02*
G37*
G36*
X129976Y28181D02*
X125289D01*
Y23494D01*
X129976D01*
Y28181D01*
D02*
G37*
G36*
X94852Y21994D02*
X90165D01*
Y17307D01*
X94852D01*
Y21994D01*
D02*
G37*
G36*
X70724D02*
X66037D01*
Y17307D01*
X70724D01*
Y21994D01*
D02*
G37*
G36*
X123789D02*
X119102D01*
Y17307D01*
X123789D01*
Y21994D01*
D02*
G37*
G36*
X101039D02*
X96352D01*
Y17307D01*
X101039D01*
Y21994D01*
D02*
G37*
G36*
X64537D02*
X59850D01*
Y17307D01*
X64537D01*
Y21994D01*
D02*
G37*
G36*
X165000Y27717D02*
X157500D01*
X156910Y27600D01*
X155150D01*
Y23400D01*
X155283D01*
Y18500D01*
X155400Y17910D01*
Y16150D01*
X159600D01*
Y17910D01*
X159717Y18500D01*
Y23283D01*
X165000D01*
X165590Y23400D01*
X167350D01*
Y27600D01*
X165590D01*
X165000Y27717D01*
D02*
G37*
G36*
X169500Y17148D02*
X168038Y16956D01*
X166676Y16392D01*
X165506Y15494D01*
X164608Y14324D01*
X164503Y14069D01*
X160435D01*
Y13717D01*
X159600D01*
Y13850D01*
X155400D01*
Y13717D01*
X153100D01*
Y13850D01*
X148900D01*
Y9150D01*
X153100D01*
Y9283D01*
X155400D01*
Y9150D01*
X159600D01*
Y9283D01*
X160435D01*
Y8931D01*
X164503D01*
X164608Y8676D01*
X165506Y7506D01*
X166676Y6608D01*
X168038Y6044D01*
X169500Y5852D01*
X170962Y6044D01*
X172324Y6608D01*
X173494Y7506D01*
X174392Y8676D01*
X174956Y10038D01*
X175148Y11500D01*
X174956Y12962D01*
X174392Y14324D01*
X173494Y15494D01*
X172324Y16392D01*
X170962Y16956D01*
X169500Y17148D01*
D02*
G37*
G36*
X41787Y21994D02*
X37100D01*
Y17307D01*
X41787D01*
Y21994D01*
D02*
G37*
G36*
X35600D02*
X30913D01*
Y17307D01*
X35600D01*
Y21994D01*
D02*
G37*
G36*
X94852Y28181D02*
X90165D01*
Y23494D01*
X94852D01*
Y28181D01*
D02*
G37*
G36*
X70724D02*
X66037D01*
Y23494D01*
X70724D01*
Y28181D01*
D02*
G37*
G36*
X123789D02*
X119102D01*
Y23494D01*
X123789D01*
Y28181D01*
D02*
G37*
G36*
X101039D02*
X96352D01*
Y23494D01*
X101039D01*
Y28181D01*
D02*
G37*
G36*
X64537D02*
X59850D01*
Y23494D01*
X64537D01*
Y28181D01*
D02*
G37*
G36*
X20640Y24750D02*
X15953D01*
Y22819D01*
X20640D01*
Y24750D01*
D02*
G37*
G36*
X129976Y21994D02*
X125289D01*
Y17307D01*
X129976D01*
Y21994D01*
D02*
G37*
G36*
X41787Y28181D02*
X37100D01*
Y23494D01*
X41787D01*
Y28181D01*
D02*
G37*
G36*
X150500Y27717D02*
X139500D01*
X139117Y27641D01*
X136000D01*
X135181Y27478D01*
X134486Y27014D01*
X134022Y26319D01*
X133859Y25500D01*
X134022Y24681D01*
X134486Y23986D01*
X135181Y23522D01*
X136000Y23359D01*
X139117D01*
X139500Y23283D01*
X150500D01*
X151090Y23400D01*
X152850D01*
Y27600D01*
X151090D01*
X150500Y27717D01*
D02*
G37*
G36*
X64537Y110183D02*
X59850D01*
Y105496D01*
X64537D01*
Y110183D01*
D02*
G37*
G36*
X89752Y171445D02*
X70498D01*
Y156915D01*
X89752D01*
Y171445D01*
D02*
G37*
G36*
X16015Y159113D02*
X14478D01*
Y156395D01*
X16015D01*
Y159113D01*
D02*
G37*
G36*
X164738Y166319D02*
X162238D01*
Y164069D01*
X164738D01*
Y166319D01*
D02*
G37*
G36*
X110506Y171445D02*
X91252D01*
Y156915D01*
X110506D01*
Y171445D01*
D02*
G37*
G36*
X54000Y171648D02*
X52538Y171456D01*
X51176Y170892D01*
X50006Y169994D01*
X49108Y168824D01*
X48923Y168377D01*
Y165999D01*
X48352D01*
X48544Y164538D01*
X49108Y163176D01*
X50006Y162006D01*
X51176Y161108D01*
X51412Y161011D01*
Y156935D01*
X51763D01*
Y155600D01*
X51630D01*
Y151400D01*
X53390D01*
X53980Y151283D01*
X58880D01*
Y151150D01*
X63080D01*
Y155850D01*
X58880D01*
Y155717D01*
X56198D01*
Y156935D01*
X56549D01*
Y160994D01*
X56824Y161108D01*
X57994Y162006D01*
X58892Y163176D01*
X59456Y164538D01*
X59648Y166000D01*
X59456Y167462D01*
X58892Y168824D01*
X57994Y169994D01*
X56824Y170892D01*
X55462Y171456D01*
X54000Y171648D01*
D02*
G37*
G36*
X89752Y155415D02*
X70498D01*
Y140886D01*
X89752D01*
Y155415D01*
D02*
G37*
G36*
X42890Y142490D02*
X40640D01*
Y139990D01*
X42890D01*
Y142490D01*
D02*
G37*
G36*
X49330Y155600D02*
X44630D01*
Y151400D01*
X44763D01*
Y146240D01*
X44880Y145650D01*
Y143890D01*
X49080D01*
Y144023D01*
X52290D01*
Y143890D01*
X56490D01*
Y148590D01*
X52290D01*
Y148458D01*
X49198D01*
Y151400D01*
X49330D01*
Y155600D01*
D02*
G37*
G36*
X110506Y155415D02*
X91252D01*
Y140886D01*
X110506D01*
Y155415D01*
D02*
G37*
G36*
X41887Y171712D02*
X37200D01*
Y168993D01*
X41887D01*
Y171712D01*
D02*
G37*
G36*
X35700D02*
X31013D01*
Y168993D01*
X35700D01*
Y171712D01*
D02*
G37*
G36*
X154750Y172500D02*
X152250D01*
Y170250D01*
X154750D01*
Y172500D01*
D02*
G37*
G36*
X150750D02*
X148250D01*
Y170250D01*
X150750D01*
Y172500D01*
D02*
G37*
G36*
X11966Y171712D02*
X7279D01*
Y168993D01*
X11966D01*
Y171712D01*
D02*
G37*
G36*
Y167493D02*
X7279D01*
Y164775D01*
X11966D01*
Y167493D01*
D02*
G37*
G36*
X168738Y166319D02*
X166238D01*
Y164069D01*
X168738D01*
Y166319D01*
D02*
G37*
G36*
X41887Y167493D02*
X37200D01*
Y164775D01*
X41887D01*
Y167493D01*
D02*
G37*
G36*
X35700D02*
X31013D01*
Y164775D01*
X35700D01*
Y167493D01*
D02*
G37*
G36*
X42890Y138490D02*
X40640D01*
Y135990D01*
X42890D01*
Y138490D01*
D02*
G37*
G36*
X41787Y116370D02*
X37100D01*
Y111683D01*
X41787D01*
Y116370D01*
D02*
G37*
G36*
X35600D02*
X30913D01*
Y111683D01*
X35600D01*
Y116370D01*
D02*
G37*
G36*
X152681Y132250D02*
X147319D01*
Y125100D01*
X146750D01*
Y119100D01*
Y116514D01*
X146288Y116323D01*
X135275Y127336D01*
X134613Y127778D01*
X133833Y127933D01*
X124465D01*
Y131331D01*
X118596D01*
Y125893D01*
X117096D01*
Y131331D01*
X106785D01*
Y125893D01*
Y121608D01*
X106743Y121394D01*
Y120457D01*
X106743D01*
Y119690D01*
X106711Y119612D01*
X106616Y118894D01*
X106711Y118176D01*
X106743Y118097D01*
Y117494D01*
X106860Y116908D01*
X107191Y116412D01*
X107687Y116081D01*
X108273Y115964D01*
X113789D01*
X113980Y115502D01*
X107067Y108589D01*
X106009D01*
X105694Y108719D01*
X104976Y108814D01*
X104259Y108719D01*
X103589Y108442D01*
X103015Y108001D01*
X102574Y107427D01*
X102297Y106758D01*
X102203Y106040D01*
X102297Y105322D01*
X102574Y104653D01*
X103015Y104079D01*
X103589Y103638D01*
X104259Y103361D01*
X104976Y103266D01*
X105694Y103361D01*
X106009Y103491D01*
X108123D01*
X109098Y103685D01*
X109925Y104238D01*
X118640Y112953D01*
X119102Y112762D01*
Y111683D01*
X129976D01*
Y115103D01*
X137419D01*
X141202Y111320D01*
X141010Y110858D01*
X134063D01*
Y106921D01*
X134063D01*
Y104990D01*
X139501D01*
Y103490D01*
X134063D01*
Y101559D01*
Y97622D01*
Y97116D01*
X144937D01*
Y97622D01*
Y101559D01*
Y102953D01*
X145399Y103144D01*
X150158Y98385D01*
X150820Y97943D01*
X150837Y97939D01*
Y96740D01*
X157337D01*
Y102740D01*
Y108740D01*
X156024D01*
X155971Y109006D01*
X155528Y109668D01*
Y109668D01*
X155528Y109668D01*
X155528Y109668D01*
D01*
D01*
D01*
X155528Y109668D01*
D01*
X152558Y112638D01*
X152750Y113100D01*
X153250D01*
Y119100D01*
Y125100D01*
X152681D01*
Y132250D01*
D02*
G37*
G36*
X70724Y116370D02*
X66037D01*
Y111683D01*
X70724D01*
Y116370D01*
D02*
G37*
G36*
X101039Y110183D02*
X96352D01*
Y105496D01*
X101039D01*
Y110183D01*
D02*
G37*
G36*
X94852D02*
X90165D01*
Y105496D01*
X94852D01*
Y110183D01*
D02*
G37*
G36*
X129976D02*
X125289D01*
Y105496D01*
X129976D01*
Y110183D01*
D02*
G37*
G36*
X123789D02*
X119102D01*
Y105496D01*
X123789D01*
Y110183D01*
D02*
G37*
G36*
X70724D02*
X66037D01*
Y105496D01*
X70724D01*
Y110183D01*
D02*
G37*
G36*
X160161Y127850D02*
X154799D01*
Y125100D01*
X153750D01*
Y122850D01*
X160250D01*
Y125100D01*
X160161D01*
Y127850D01*
D02*
G37*
G36*
X105285Y131331D02*
X102848D01*
Y125893D01*
Y120457D01*
X105285D01*
Y125893D01*
Y131331D01*
D02*
G37*
G36*
X160161Y132250D02*
X158230D01*
Y129350D01*
X160161D01*
Y132250D01*
D02*
G37*
G36*
X156730D02*
X154799D01*
Y129350D01*
X156730D01*
Y132250D01*
D02*
G37*
G36*
X42072Y131331D02*
X40362D01*
Y131331D01*
X36425D01*
Y120457D01*
X41787D01*
Y120457D01*
X42293D01*
Y121173D01*
X42072Y121394D01*
Y124194D01*
Y131331D01*
D02*
G37*
G36*
X49080Y141590D02*
X44880D01*
Y139830D01*
X44763Y139240D01*
Y125894D01*
X44839Y125510D01*
Y121394D01*
X45002Y120574D01*
X45466Y119880D01*
X46076Y119472D01*
X47884D01*
X48438Y119842D01*
X48532Y119936D01*
X48959Y120574D01*
X49121Y121394D01*
Y125510D01*
X49198Y125894D01*
Y139240D01*
X49080Y139830D01*
Y141590D01*
D02*
G37*
G36*
X54104Y121394D02*
X51667D01*
Y120457D01*
X54104D01*
Y121394D01*
D02*
G37*
G36*
X50167Y120489D02*
X50135Y120457D01*
X50167D01*
Y120489D01*
D02*
G37*
%LPD*%
G36*
X115073Y128494D02*
Y121994D01*
X116873Y120194D01*
Y118394D01*
X115972Y117494D01*
X108273D01*
Y121394D01*
X108973Y122094D01*
Y128094D01*
X109372Y128494D01*
X110073Y129194D01*
X114373D01*
X115073Y128494D01*
D02*
G37*
D10*
X65287Y110933D02*
D03*
X95602D02*
D03*
X124539D02*
D03*
Y81799D02*
D03*
Y51878D02*
D03*
Y22744D02*
D03*
X95602D02*
D03*
X65287D02*
D03*
X36350D02*
D03*
Y51878D02*
D03*
Y81799D02*
D03*
Y110933D02*
D03*
D11*
X43043Y7784D02*
D03*
X50917D02*
D03*
X54854D02*
D03*
X62728D02*
D03*
X58791D02*
D03*
X74539D02*
D03*
X78476D02*
D03*
X70602D02*
D03*
X66665D02*
D03*
X98161D02*
D03*
X102099D02*
D03*
X109973Y7784D02*
D03*
X106035Y7784D02*
D03*
X90287D02*
D03*
X94224D02*
D03*
X86350D02*
D03*
X82413D02*
D03*
X121783D02*
D03*
X117847D02*
D03*
X113909D02*
D03*
X46980Y7784D02*
D03*
X39106Y7784D02*
D03*
X43043Y125894D02*
D03*
X109973Y125894D02*
D03*
X113909D02*
D03*
X121783D02*
D03*
X117847D02*
D03*
X78476D02*
D03*
X82413D02*
D03*
X90287D02*
D03*
X86350D02*
D03*
X102098D02*
D03*
X106035D02*
D03*
X98161D02*
D03*
X94224D02*
D03*
X62728D02*
D03*
X66665D02*
D03*
X74539D02*
D03*
X70602D02*
D03*
X54854D02*
D03*
X58791D02*
D03*
X50917D02*
D03*
X46980D02*
D03*
X39106D02*
D03*
D12*
X139500Y104240D02*
D03*
Y100303D02*
D03*
Y92429D02*
D03*
Y96366D02*
D03*
Y80618D02*
D03*
Y76681D02*
D03*
Y84555D02*
D03*
Y88492D02*
D03*
Y56996D02*
D03*
Y53059D02*
D03*
Y45185D02*
D03*
Y49122D02*
D03*
Y64870D02*
D03*
Y60933D02*
D03*
Y68807D02*
D03*
Y72744D02*
D03*
Y25500D02*
D03*
Y33374D02*
D03*
Y29437D02*
D03*
Y37311D02*
D03*
Y41248D02*
D03*
X21390D02*
D03*
Y37311D02*
D03*
Y29437D02*
D03*
Y33374D02*
D03*
X139500Y108177D02*
D03*
X21390Y25500D02*
D03*
Y72744D02*
D03*
Y68807D02*
D03*
Y60933D02*
D03*
Y64870D02*
D03*
Y49122D02*
D03*
Y45185D02*
D03*
Y53059D02*
D03*
Y56996D02*
D03*
Y88492D02*
D03*
Y84555D02*
D03*
Y76681D02*
D03*
Y80618D02*
D03*
Y96366D02*
D03*
Y92429D02*
D03*
Y100303D02*
D03*
Y104240D02*
D03*
D13*
X129390Y149433D02*
D03*
Y142740D02*
D03*
Y162819D02*
D03*
Y156126D02*
D03*
Y169512D02*
D03*
D14*
X90502Y156165D02*
D03*
D15*
X163587Y43740D02*
D03*
X156587D02*
D03*
X144500Y169500D02*
D03*
X151500D02*
D03*
Y163319D02*
D03*
X144500D02*
D03*
X151500Y157126D02*
D03*
X144500D02*
D03*
X165488Y163319D02*
D03*
X172488D02*
D03*
X150000Y144600D02*
D03*
X161087Y105740D02*
D03*
X154087D02*
D03*
X161087Y99740D02*
D03*
X154087D02*
D03*
X150500Y25500D02*
D03*
X157500D02*
D03*
X46980Y153500D02*
D03*
X53980D02*
D03*
X150000Y122100D02*
D03*
X157000D02*
D03*
Y116100D02*
D03*
X150000D02*
D03*
X156587Y52240D02*
D03*
X163587D02*
D03*
X156587Y37240D02*
D03*
X163587D02*
D03*
X157000Y144600D02*
D03*
X156587Y58740D02*
D03*
X163587D02*
D03*
X165488Y157126D02*
D03*
X172488D02*
D03*
X172000Y25500D02*
D03*
X165000D02*
D03*
D16*
X169000Y126700D02*
D03*
Y146385D02*
D03*
D17*
X59787Y166000D02*
D03*
X48173D02*
D03*
D18*
X53980Y159701D02*
D03*
D19*
X39890Y146240D02*
D03*
Y139240D02*
D03*
X12008Y17366D02*
D03*
Y10366D02*
D03*
X4008Y17366D02*
D03*
Y10366D02*
D03*
X157500Y18500D02*
D03*
Y11500D02*
D03*
X46980Y139240D02*
D03*
Y146240D02*
D03*
X151000Y18500D02*
D03*
Y11500D02*
D03*
X54390Y139240D02*
D03*
Y146240D02*
D03*
X60980Y146500D02*
D03*
Y153500D02*
D03*
X33890Y139240D02*
D03*
Y146240D02*
D03*
X12790D02*
D03*
Y139240D02*
D03*
X27466Y146191D02*
D03*
Y139191D02*
D03*
X18866Y146191D02*
D03*
Y139191D02*
D03*
D20*
X163201Y11500D02*
D03*
D21*
X169500Y17307D02*
D03*
Y5693D02*
D03*
D22*
X153740Y137687D02*
D03*
X157480Y128600D02*
D03*
X150000D02*
D03*
D23*
X19324Y155645D02*
D03*
X27002D02*
D03*
X21883D02*
D03*
X16765D02*
D03*
X24442D02*
D03*
D24*
X36450Y168243D02*
D03*
X6529D02*
D03*
D25*
X19166Y146091D02*
X22113Y149038D01*
X22659Y128144D02*
Y128244D01*
X21019Y129884D02*
X22659Y128244D01*
X20088Y125573D02*
X22659Y128144D01*
X21019Y129884D02*
Y129884D01*
X18398Y127263D02*
X20088Y125573D01*
X14850Y123715D02*
X18398Y127263D01*
X12750Y124585D02*
X22113Y133948D01*
X31766Y88192D02*
X33073Y89500D01*
X30451Y86878D02*
X31766Y88192D01*
X21390Y68807D02*
X26917D01*
X27810Y69700D01*
Y88536D01*
X33073Y89500D02*
Y103500D01*
X27909Y108664D02*
Y126784D01*
X33890Y132764D01*
X27909Y108664D02*
X33073Y103500D01*
X33890Y132764D02*
Y139240D01*
X21883Y152898D02*
Y155645D01*
Y152898D02*
X22113Y152668D01*
X24442Y152898D02*
Y155645D01*
X24213Y152668D02*
X24442Y152898D01*
X22113Y149038D02*
Y152668D01*
X24213Y149045D02*
Y152668D01*
Y149045D02*
X27166Y146091D01*
X19166D02*
X22113Y143145D01*
X12750Y60250D02*
X16004Y56996D01*
X21390D01*
X24213Y143138D02*
X27166Y146091D01*
X24213Y133078D02*
Y143138D01*
X14850Y62100D02*
X16017Y60933D01*
X21390D01*
X12750Y60250D02*
Y124585D01*
X14850Y62100D02*
Y123715D01*
X22113Y133948D02*
Y143145D01*
X21019Y129884D02*
X24213Y133078D01*
X29620Y64870D02*
X30451Y65701D01*
X21390Y64870D02*
X29620D01*
X30451Y65701D02*
Y86878D01*
D26*
X98161Y117194D02*
Y125894D01*
X94224Y117194D02*
Y125894D01*
X147727Y112000D02*
X150313D01*
X154087Y108226D01*
X133833Y125894D02*
X147727Y112000D01*
X139500Y68807D02*
X145100D01*
X146000Y67907D01*
X121783Y125894D02*
X133833D01*
X153740Y141340D02*
X157000Y144600D01*
X153740Y137687D02*
Y141340D01*
X150000Y122100D02*
Y128600D01*
X110440Y72744D02*
X139500D01*
X112852Y75366D02*
X129685D01*
X121283Y1866D02*
X121783Y2366D01*
Y7784D01*
X12008Y10366D02*
X16508D01*
X19091Y7784D02*
X39106D01*
X16508Y10366D02*
X19091Y7784D01*
X156587Y37240D02*
X157087D01*
X163587Y43740D01*
X156587Y52240D02*
X157087D01*
X163587Y58740D01*
X129685Y75366D02*
X134937Y80618D01*
X139500D01*
X21390Y96366D02*
X27390D01*
X8563Y145413D02*
X9390Y146240D01*
X8563Y129740D02*
Y145413D01*
X15390Y33374D02*
X21390D01*
X27390Y21240D02*
Y36311D01*
X26390Y37311D02*
X27390Y36311D01*
X21390Y37311D02*
X26390D01*
X30390Y28374D02*
Y37874D01*
X27016Y41248D02*
X30390Y37874D01*
X21390Y41248D02*
X27016D01*
X19328Y152202D02*
Y155591D01*
X17910Y150784D02*
X19328Y152202D01*
X14410Y150784D02*
X17910D01*
X12890Y149264D02*
X14410Y150784D01*
X31890Y150370D02*
X33890Y148370D01*
Y146240D02*
Y148370D01*
X12890Y146240D02*
Y149264D01*
X15390Y45185D02*
X21390D01*
X129390Y169512D02*
X144488D01*
X144500Y154500D02*
Y156126D01*
Y154500D02*
X145488Y153512D01*
X162514Y157126D02*
X165488D01*
X145488Y153512D02*
X158900D01*
X162514Y157126D01*
X172488D02*
Y163319D01*
X135000Y60933D02*
X139500D01*
X4008Y7492D02*
Y10366D01*
X7500Y4000D02*
X34000D01*
X4008Y7492D02*
X7500Y4000D01*
X34000D02*
X36134Y1866D01*
X121283D01*
X162587Y48740D02*
X163587Y49740D01*
Y52240D01*
X162587Y33740D02*
X163587Y34740D01*
Y37240D01*
X149157Y148217D02*
X150000Y147374D01*
Y144600D02*
Y147374D01*
X159227Y116100D02*
X165587Y109740D01*
X157000Y116100D02*
X159227D01*
X139500Y108177D02*
X143250D01*
X151600Y99827D01*
X154087Y99740D02*
X154260D01*
X129390Y142740D02*
X136787D01*
X141840Y137687D01*
X153740D01*
X154087Y105740D02*
Y108226D01*
X151091Y162909D02*
X151181Y162819D01*
X144500Y169500D02*
X151091Y162909D01*
X144488Y169512D02*
X144500Y169500D01*
X151181Y162819D02*
X151500D01*
X150000Y115100D02*
Y116100D01*
Y121600D01*
X151600Y99827D02*
X154087D01*
X154173D01*
X154260Y99740D01*
X162587Y33240D02*
X162837Y33490D01*
X129390Y149433D02*
X142500D01*
X147941D01*
X149500D01*
X156500D01*
X163941D01*
X148437Y148937D02*
X149157Y148217D01*
X147941Y149433D02*
X148437Y148937D01*
X33890Y146240D02*
X36972D01*
X39890D01*
X117847Y7784D02*
Y12347D01*
X119500Y14000D01*
X168000Y87000D02*
X172000D01*
X165587Y89413D02*
X168000Y87000D01*
X165587Y89413D02*
Y109740D01*
X113281Y64870D02*
X139500D01*
X90287Y125894D02*
Y131894D01*
X86350Y133083D02*
X88161Y134894D01*
X86350Y125894D02*
Y133083D01*
X88161Y134894D02*
X101287D01*
X84685Y103533D02*
Y118866D01*
Y103533D02*
X112852Y75366D01*
X81126Y102058D02*
Y118866D01*
Y102058D02*
X110440Y72744D01*
X77567Y100584D02*
Y118866D01*
Y100584D02*
X113281Y64870D01*
X21390Y92429D02*
X27390D01*
X78476Y125894D02*
Y131894D01*
X82413Y132713D02*
X83341Y133640D01*
X82413Y125894D02*
Y132713D01*
X132500Y56433D02*
Y58433D01*
X134103Y60036D01*
X134103D02*
X135000Y60933D01*
X28390Y150370D02*
X31890D01*
X27005Y151755D02*
Y155591D01*
Y151755D02*
X28390Y150370D01*
X10350Y50225D02*
X15390Y45185D01*
X10350Y50225D02*
Y127953D01*
X8563Y129740D02*
X10350Y127953D01*
X9390Y146240D02*
X12890D01*
X66250Y133628D02*
X72350D01*
X74539Y131439D01*
Y125894D02*
Y131439D01*
D27*
X157480Y122580D02*
Y128600D01*
X157000Y122100D02*
X157480Y122580D01*
X152087Y45240D02*
Y76387D01*
Y58740D02*
X156587D01*
X146908Y81566D02*
X152087Y76387D01*
X138475Y117652D02*
X149127Y107000D01*
X149727D01*
X54890Y60000D02*
X130000D01*
X152087Y45240D02*
X153587Y43740D01*
X15390Y29437D02*
X21390D01*
X153587Y43740D02*
X156587D01*
X35169Y53059D02*
X36350Y51878D01*
X21390Y53059D02*
X35169D01*
X30890Y44437D02*
X44890D01*
X29390Y45937D02*
X30890Y44437D01*
X29390Y45937D02*
Y47122D01*
X27390Y49122D02*
X29390Y47122D01*
X13039Y139091D02*
X19166D01*
X12890Y139240D02*
X13039Y139091D01*
X12890Y134740D02*
Y139240D01*
X21390Y49122D02*
X27390D01*
X151500Y169500D02*
X155709D01*
X156390Y168819D01*
X144500Y157126D02*
Y162819D01*
X44890Y44437D02*
X52390Y51937D01*
X21390Y104240D02*
X27587D01*
X29087Y102740D01*
X21390Y100303D02*
X28650D01*
X27166Y134591D02*
Y139091D01*
X161087Y95240D02*
Y99740D01*
Y105740D01*
Y106240D01*
X29087Y99587D02*
X30173Y98500D01*
X27909Y88536D02*
X28610Y89237D01*
X28650Y100303D02*
X29087Y100740D01*
X21390Y88492D02*
X27865D01*
X29087Y99587D02*
Y102740D01*
X28610Y89237D02*
X30173Y90800D01*
Y98500D01*
X104976Y106040D02*
X108123D01*
X52390Y109589D02*
X57241Y114440D01*
X108123Y106040D02*
X119734Y117652D01*
X138475D01*
X52390Y57500D02*
X54890Y60000D01*
X4008Y17366D02*
X12008D01*
X52390Y51937D02*
Y109589D01*
D28*
X172000Y107500D02*
Y113327D01*
X169000Y116327D02*
Y126700D01*
Y116327D02*
X172000Y113327D01*
D29*
X157500Y18500D02*
Y25500D01*
X165000D01*
X46980Y125894D02*
Y139240D01*
Y146240D02*
Y152500D01*
X53980Y153500D02*
Y159701D01*
X46980Y146240D02*
X53890D01*
X53980Y153500D02*
X60380D01*
X139500Y25500D02*
X150500D01*
X152165Y11500D02*
X157500D01*
X163201D01*
D30*
X103972Y156126D02*
X129390D01*
X129890D01*
D31*
X5000Y97000D02*
D03*
Y87000D02*
D03*
Y77000D02*
D03*
Y67000D02*
D03*
Y57000D02*
D03*
Y47000D02*
D03*
X172000Y97000D02*
D03*
Y87000D02*
D03*
Y67000D02*
D03*
Y57000D02*
D03*
Y77000D02*
D03*
D32*
X5000Y107000D02*
D03*
X172000D02*
D03*
D33*
X87976Y111194D02*
D03*
X60476Y133194D02*
D03*
X14800Y37600D02*
D03*
X151900Y37800D02*
D03*
X162600Y21200D02*
D03*
X47000Y94500D02*
D03*
X115390Y118894D02*
D03*
X112390D02*
D03*
X109390D02*
D03*
X149727Y107000D02*
D03*
X104976Y106040D02*
D03*
X98161Y117194D02*
D03*
X94224D02*
D03*
X156500Y150000D02*
D03*
X149500D02*
D03*
X142500D02*
D03*
X8008Y17366D02*
D03*
X146908Y81566D02*
D03*
X78476Y131894D02*
D03*
X101787Y134894D02*
D03*
X137087Y161240D02*
D03*
X140087D02*
D03*
Y164240D02*
D03*
X137087D02*
D03*
X162587Y33740D02*
D03*
X146000Y67907D02*
D03*
X132500Y56433D02*
D03*
X57241Y114440D02*
D03*
X15390Y29437D02*
D03*
X84685Y118866D02*
D03*
X81126D02*
D03*
X27090Y92429D02*
D03*
Y96366D02*
D03*
X27390Y21240D02*
D03*
X15390Y33374D02*
D03*
X30390Y28374D02*
D03*
X60390Y15240D02*
D03*
X78890Y14740D02*
D03*
X94890D02*
D03*
X26996Y64870D02*
D03*
X12890Y134740D02*
D03*
X109390Y13685D02*
D03*
X112390D02*
D03*
X115390D02*
D03*
X27390Y49122D02*
D03*
X88890Y33240D02*
D03*
X156890Y173484D02*
D03*
X162587Y48740D02*
D03*
X130000Y60000D02*
D03*
X161087Y95240D02*
D03*
X29087Y100740D02*
D03*
X160200Y3300D02*
D03*
X36972Y146240D02*
D03*
X57800Y65900D02*
D03*
X97200Y66600D02*
D03*
X77750Y86000D02*
D03*
X115000Y80500D02*
D03*
X104000Y94500D02*
D03*
X131500Y88000D02*
D03*
X150500Y89500D02*
D03*
X162000Y82000D02*
D03*
X172000Y49000D02*
D03*
X163500Y65000D02*
D03*
X68700Y160500D02*
D03*
Y150500D02*
D03*
X42001Y162000D02*
D03*
X43100Y150800D02*
D03*
X40200Y134800D02*
D03*
X41887Y171712D02*
D03*
X68800Y171800D02*
D03*
X145176Y3894D02*
D03*
X143850Y18000D02*
D03*
X171000Y34500D02*
D03*
X137500Y18500D02*
D03*
X126500Y4000D02*
D03*
X172000Y22000D02*
D03*
X169000Y173500D02*
D03*
X116000Y169000D02*
D03*
X115500Y156500D02*
D03*
X116000Y146000D02*
D03*
X57000Y41500D02*
D03*
X82000Y52500D02*
D03*
X77500Y41000D02*
D03*
X100000Y31500D02*
D03*
X101000Y53500D02*
D03*
X17500Y14000D02*
D03*
X3000Y39500D02*
D03*
X4000Y119500D02*
D03*
X132100Y106100D02*
D03*
X132000Y95500D02*
D03*
X122500Y35500D02*
D03*
X45500Y37000D02*
D03*
X90287Y131894D02*
D03*
X83341Y133640D02*
D03*
X77567Y118866D02*
D03*
X66250Y133628D02*
D03*
X57950Y110500D02*
D03*
X67850Y92000D02*
D03*
X64350Y82500D02*
D03*
X44850Y82000D02*
D03*
X43850Y65000D02*
D03*
M02*
